<?xml version="1.0" encoding="UTF-8"?>
<svg id="Layer_2" data-name="Layer 2" xmlns="http://www.w3.org/2000/svg" viewBox="0 0 13.33 15.28">
  <defs>
    <style>
      .cls-1 {
        fill: #524c2f;
      }
    </style>
  </defs>
  <g id="Layer_1-2" data-name="Layer 1">
    <path class="cls-1" d="M7.16,8.59c-.04.06-.02.12-.02.18,0,.89,0,1.78,0,2.68,0,.11.03.2.12.27.56.5,1.12,1,1.68,1.5.34.3.3.74-.1.88-.21.07-.4.02-.56-.13-.32-.3-.65-.59-.97-.88-.04-.04-.07-.09-.14-.1-.05.04-.02.1-.02.15,0,.54,0,1.07,0,1.61,0,.36-.18.55-.51.54-.3,0-.49-.22-.49-.55,0-.51,0-1.01,0-1.52,0-.06.01-.12-.01-.17-.07,0-.1.06-.14.1-.32.28-.64.56-.94.86-.22.21-.57.15-.71,0-.18-.21-.18-.51.04-.72.35-.34.72-.67,1.08-1,.2-.18.4-.35.61-.53.05-.04.08-.09.08-.16,0-.97,0-1.95,0-2.92,0-.01,0-.02-.01-.04-.09.02-.16.07-.23.11-.77.43-1.53.86-2.3,1.28-.08.04-.11.09-.13.18-.17.73-.36,1.45-.54,2.17-.08.3-.33.45-.6.39-.28-.07-.43-.32-.36-.62.1-.42.21-.83.31-1.25,0-.02.02-.04,0-.07-.24.13-.48.27-.72.4-.26.15-.52.3-.79.44-.32.16-.63,0-.72-.34-.05-.21.04-.43.27-.55.45-.25.9-.49,1.35-.73.05-.03.11-.03.15-.1-.12-.08-.26-.11-.39-.16-.34-.12-.68-.24-1.02-.36-.24-.09-.37-.27-.37-.51,0-.32.23-.52.54-.45.24.05.47.14.7.22.53.18,1.05.36,1.58.55.1.04.17,0,.24-.04.77-.43,1.53-.85,2.3-1.28.11-.06.25-.1.35-.21-.45-.25-.9-.5-1.34-.76-.46-.26-.92-.52-1.37-.79-.1-.06-.18-.07-.29-.03-.67.25-1.34.48-2.01.72-.29.1-.55,0-.65-.26-.11-.28.01-.55.3-.66.48-.18.96-.35,1.43-.53,0-.05-.03-.06-.07-.07-.47-.2-.91-.44-1.36-.68-.22-.11-.36-.27-.35-.53.01-.35.34-.58.66-.43.43.21.84.44,1.26.67.11.06.22.11.34.18.02-.16-.05-.3-.08-.44-.07-.32-.16-.64-.24-.96-.08-.32.06-.55.35-.61.3-.07.52.07.6.38.2.77.39,1.55.59,2.32.02.07.04.13.11.16.82.45,1.65.91,2.47,1.36,0,0,.02,0,.04,0,.04-.04.02-.09.02-.13,0-.94,0-1.88,0-2.82,0-.11-.03-.18-.11-.25-.55-.49-1.09-.98-1.63-1.48-.14-.13-.23-.28-.19-.49.06-.37.52-.53.8-.27.29.27.59.53.88.8.07.07.14.14.24.19.03-.06.02-.13.02-.19,0-.52,0-1.05,0-1.57,0-.4.41-.63.76-.43.17.1.25.26.25.45,0,.53,0,1.06,0,1.59,0,.06,0,.11,0,.21.26-.23.48-.44.71-.64.17-.15.32-.3.5-.44.29-.21.68-.08.79.25.07.2,0,.37-.15.5-.28.25-.56.5-.84.74-.32.28-.64.56-.96.84-.04.04-.06.08-.06.14,0,1,0,2.01,0,3.01,0,0,0,.02.02.05.24-.13.49-.26.73-.4.61-.33,1.21-.67,1.82-1,.1-.05.14-.12.17-.23.19-.76.38-1.53.57-2.29.08-.33.36-.48.66-.37.22.08.33.25.3.51-.04.33-.16.65-.23.98-.03.15-.07.3-.12.48.32-.17.62-.33.91-.49.19-.1.39-.21.59-.31.29-.15.58-.08.71.17.14.26.05.57-.24.73-.43.24-.88.45-1.32.68-.06.03-.12.07-.2.11.4.14.78.28,1.16.41.14.05.27.1.4.16.23.11.31.36.22.61-.09.23-.29.36-.54.3-.5-.12-.97-.31-1.46-.47-.24-.08-.47-.16-.71-.25-.07-.03-.14-.03-.21,0-.87.5-1.75.99-2.63,1.48-.03.02-.07.04-.11.07.06.09.16.11.23.15.79.44,1.57.88,2.36,1.31.11.06.2.07.32.03.65-.24,1.3-.46,1.95-.69.12-.04.23-.08.35-.08.19,0,.36.14.43.33.07.19.01.4-.13.52-.09.08-.21.13-.32.17-.43.16-.86.32-1.32.48.17.1.32.18.48.27.34.18.68.36,1.01.55.27.15.37.38.3.62-.09.32-.43.45-.75.28-.44-.24-.87-.49-1.31-.74-.05-.03-.1-.07-.19-.08.08.31.15.61.23.91.04.15.08.29.11.44.06.28-.07.49-.34.57-.27.08-.55-.06-.63-.32-.1-.33-.17-.66-.26-.99-.11-.42-.21-.83-.31-1.25-.02-.07-.05-.11-.11-.14-.83-.46-1.67-.93-2.5-1.39-.03-.02-.07-.03-.11-.05Z"/>
  </g>
</svg>