<?xml version="1.0" encoding="UTF-8"?>
<svg xmlns="http://www.w3.org/2000/svg" viewBox="0 0 81.89 81.84">
  <defs>
    <style>
      .cls-1 {
        fill: #a06c45;
      }

      .cls-2 {
        fill: #f7d6af;
      }

      .cls-3 {
        fill: #d43218;
      }

      .cls-4 {
        fill: #7dbe3c;
      }

      .cls-5 {
        isolation: isolate;
      }

      .cls-6 {
        fill: #ffe5ba;
      }

      .cls-6, .cls-7, .cls-8, .cls-9 {
        mix-blend-mode: multiply;
      }

      .cls-10 {
        fill: #eb7b63;
      }

      .cls-11 {
        fill: #eb9f84;
      }

      .cls-12, .cls-13 {
        fill: #fff;
      }

      .cls-12, .cls-14 {
        mix-blend-mode: soft-light;
      }

      .cls-15 {
        fill: #fded8d;
      }

      .cls-7 {
        fill: #c07162;
        opacity: .3;
      }

      .cls-16 {
        fill: #c17447;
      }

      .cls-8, .cls-17 {
        fill: #fad68e;
      }

      .cls-9 {
        fill: #e1e4e4;
      }

      .cls-17 {
        mix-blend-mode: screen;
      }

      .cls-18 {
        fill: #e53718;
      }

      .cls-19 {
        fill: #78a72f;
      }
    </style>
  </defs>
  <g class="cls-5">
    <g id="Layer_2" data-name="Layer 2">
      <g id="Layer_1-2" data-name="Layer 1">
        <g>
          <path class="cls-15" d="M22.86,3.16c9.02,38.74.27,46.43,8.3,46.92,8.03.49,43.45,21.01,43.84,17.66.39-3.35-52.14-64.58-52.14-64.58Z"/>
          <path class="cls-16" d="M22.86,3.16s1.91-1.31,3.6-2.53c1.44-1.04,3.6-.76,4.76.63,9.53,11.46,46.59,56.05,50.65,61.5.55.73-6.86,4.99-6.86,4.99,0,0-52.58-66.52-52.14-64.58Z"/>
          <path class="cls-6" d="M54.4,39.15c1.33.26,2.91,1.21,4.09,1.8,3.33,1.66,7.01,4.28,6.81,8-.11,1.95-.76,3.67-.8,5.54-3.49-4.4-7.57-9.53-11.79-14.82.47-.31.91-.67,1.69-.52Z"/>
          <path class="cls-6" d="M24.52,4.79c1.09.46,2.35.25,3.5.32,2.03.12,3.91.99,5.61,1.99,1.99,1.17,3,2.93,4.35,4.61,2.42,3,4.23,5.8,5.02,9.44.62,2.85.99,5.73,1.74,8.56-8.83-11.03-17-21.13-20.32-24.96.03.02.06.03.09.05Z"/>
          <path class="cls-4" d="M69.86,72.17c-1.06.44-2.61-.04-3.08-1.08-2.85-6.28-9.63-9.1-13.99-14.29-2.17-2.58-3.74-5.51-6.05-8-1.05-1.13-2.36-2.03-3.43-3.14-1.09-1.13-1.57-2.53-2.56-3.68-1.91-2.23-5.22-3.04-7.13-5.43-2.03-2.54-3.01-5.67-4.37-8.5-1.45-3.04-3.04-6.03-4.76-8.97-1.24-2.11-3.1-6.87-5.89-7.56-1.77-.44-2.1-2.28-1.4-3.49-1.46-1.92-3.17-4.07-.65-5.89,2.54-1.84,5.35.63,6.96,2.41.74.82,1.5,1.79,2.53,2.35,1.31.71,2.14.35,3.45.24,1.81-.15,3.45.24,4.84,1.41,1.27,1.07,1.1,2.56,2.15,3.63,1.12,1.14,2.29,1.07,2.82,2.78.46,1.47-.32,2.73-.31,4.17.01,2.06,1.9,3.52,2.84,5.31,1.14,2.16,1.24,4.46,2.56,6.62,1.5,2.46,3.11,4.94,5.36,6.93,3.7,3.27,9.04,4.56,12.78,7.67,2.59,2.15.9,5.47-1.06,7.65.53.89,1.07,1.78,1.66,2.62.97,1.38,1.55,1.68,3.01,2.47,1.75.95,3.03,2.57,3.94,4.16,1.65,2.87,3.83,7.92-.25,9.6Z"/>
          <path class="cls-19" d="M71.09,67.38c-1.78-3.45-3.2-7.29-6.67-9.71-2.41-1.69-4.71-3.07-4.4-6.08.11-1.09.49-2.14.25-3.25-.53-2.45-3.99-4.78-6.38-5.72-.86-.34-1.71-.3-2.56-.56-1.43-.44-2.41-1.42-3.31-2.44-1.43-1.61-2.29-3.4-3.42-5.17-2.44-3.81-5.14-7.55-7.25-11.51-1.05-1.97-1.47-3.77-1.78-5.88-.18-1.21-.41-2.49-1.17-3.55-.92-1.26-2.18-1.65-3.68-2.13-2.19-.7-4-1.85-6.05-2.83-2.07-.99-5.82-2.97-8.09-1.75-.07.04-.13.08-.2.12-1.13-1.61-1.87-3.3.18-4.78,2.54-1.84,5.35.63,6.96,2.41.74.82,1.5,1.79,2.53,2.35,1.31.71,2.14.35,3.45.24,1.81-.15,3.45.24,4.84,1.41,1.27,1.07,1.1,2.56,2.15,3.63,1.12,1.14,2.29,1.07,2.82,2.78.46,1.47-.32,2.73-.31,4.17.01,2.06,1.9,3.52,2.84,5.31,1.14,2.16,1.24,4.46,2.56,6.62,1.5,2.46,3.11,4.94,5.36,6.93,3.7,3.27,9.04,4.56,12.78,7.67,2.59,2.15.9,5.47-1.06,7.65.53.89,1.07,1.78,1.66,2.62.97,1.38,1.55,1.68,3.01,2.47,1.75.95,3.03,2.57,3.94,4.16,1.1,1.91,2.44,4.8,1.99,7.01-.29-.73-.64-1.46-1.01-2.2Z"/>
          <g>
            <path class="cls-18" d="M49.92,48c.55-.19.94-.47,1.22-.82-.12.41-.35.72-.67.91-.39.22-.9.25-1.5.11.32-.03.64-.09.95-.19Z"/>
            <g>
              <path class="cls-3" d="M51.81,47.31l-1.57.91-.95-1.33c-2.36-1.15-5.51-4.06-8.31-7.88-2.96-4.05-4.71-8.01-4.74-10.33l-.73-1.02,1.37-.76s.1-.07.16-.11c.06-.04.13-.07.2-.09h0s0,0,0,0c2.07-.77,6.82,2.85,10.81,8.31,3.99,5.45,5.77,10.75,4.12,12.09h0s0,0,0,0c-.06.05-.12.09-.18.12-.06.03-.12.06-.18.08Z"/>
              <path class="cls-18" d="M50.47,48.09c1.95-1.1.19-6.57-3.94-12.21-4.13-5.64-9.06-9.32-11.01-8.21-1.95,1.1-.19,6.57,3.94,12.21,4.13,5.64,9.06,9.32,11.01,8.21Z"/>
              <path class="cls-3" d="M44.53,35.29c-1.49.68-2.85,1.53-4.32,2.29-.22.11-.42.18-.61.23-.06-.07-.12-.14-.18-.22-.58-.68-.93-1.32-1.3-2.11-.44-.96-1.31-2.42-1.3-3.61.07-.66.32-1.16.75-1.41,2.54-1.48,6.86,4.73,6.95,4.82Z"/>
              <path class="cls-3" d="M49.32,45.96c-2.12,2.08-8.02-5.03-8.47-6.31-.01-.04-.03-.07-.05-.1.31-.13.61-.28.89-.44,1.4-.77,2.73-1.61,4.22-2.22.81,1.24,1.47,2.56,2.09,3.86.47.99,2.3,4.26,1.33,5.21Z"/>
              <path class="cls-18" d="M38.95,34.33s-.03.05-.05.03c-.02-.03.03-.05.05-.03h0Z"/>
              <path class="cls-18" d="M40.41,35.16c.41.56.27,1.4-.38,1.73-.65.33-1.51.19-1.95-.42-.41-.56-.27-1.4.38-1.73.65-.33,1.51-.19,1.95.42h0Z"/>
              <path class="cls-18" d="M41.86,35.26c.31.43.21,1.07-.29,1.32-.5.25-1.16.14-1.49-.32-.31-.43-.21-1.07.29-1.32.5-.25,1.16-.14,1.49.32h0Z"/>
              <path class="cls-18" d="M43.02,34.38c.46.63-.6,1.23-1.06.6-.46-.63.6-1.23,1.06-.6h0Z"/>
              <path class="cls-18" d="M42.06,33.16c.52.7-.67,1.38-1.19.67-.52-.7.67-1.38,1.19-.67h0Z"/>
              <path class="cls-18" d="M40.66,32.4c.3.41.2,1.02-.28,1.26-.47.24-1.1.14-1.42-.3-.3-.41-.2-1.02.28-1.26.47-.24,1.1-.14,1.42.3h0Z"/>
              <path class="cls-18" d="M40.04,32.53c.4.54.26,1.35-.37,1.67-.63.32-1.46.18-1.88-.4-.4-.54-.26-1.35.37-1.67.63-.32,1.46-.18,1.88.4h0Z"/>
              <path class="cls-18" d="M46.15,38c.31.42.2,1.05-.28,1.29-.49.25-1.13.14-1.46-.31-.31-.42-.2-1.05.28-1.29.49-.25,1.13-.14,1.46.31h0Z"/>
              <path class="cls-18" d="M43.82,38.69c.31.42.2,1.05-.28,1.29-.49.25-1.13.14-1.46-.31-.31-.42-.2-1.05.28-1.29.49-.25,1.13-.14,1.46.31h0Z"/>
              <path class="cls-18" d="M44.04,40.37c.37.5.24,1.25-.34,1.55-.58.3-1.35.17-1.74-.37-.37-.5-.24-1.25.34-1.55.58-.3,1.35-.17,1.74.37h0Z"/>
              <path class="cls-18" d="M44.1,41.09s.04-.04.06-.06c.31-.31.88-.25,1.15.1.02.02.03.04.05.07.37.49-.07,1.14-.71,1.07-.63-.07-.98-.76-.55-1.19h0Z"/>
              <path class="cls-18" d="M46.53,39.49c.26.26.48.51.48.88,0,.56-.53,1.06-1.2.9-.07-.01-.13-.03-.2-.06-.16-.06-.17-.06-.03,0-.72-.12-1.1-.91-.8-1.46.29-.53,1.25-.77,1.75-.26h0Z"/>
              <path class="cls-18" d="M47.66,42.15c.28.39.19.97-.26,1.2-.45.23-1.05.13-1.35-.29-.28-.39-.19-.97.26-1.2.45-.23,1.05-.13,1.35.29h0Z"/>
            </g>
          </g>
          <g>
            <path class="cls-18" d="M67.95,68.45c.49-.28.81-.64,1-1.03-.03.43-.17.78-.45,1.02-.33.29-.82.41-1.43.38.31-.09.6-.2.88-.36Z"/>
            <g>
              <path class="cls-3" d="M69.63,67.42l-1.32,1.18-1.23-1.14c-2.55-.71-6.27-3.01-9.84-6.28-3.79-3.46-6.38-7.06-6.93-9.35l-.94-.88,1.16-1s.08-.09.13-.13c.05-.05.11-.09.18-.13h0s0,0,0,0c1.84-1.13,7.26,1.58,12.37,6.25,5.11,4.67,8.03,9.57,6.73,11.2h0s0,0,0,0c-.04.06-.09.11-.15.15-.05.04-.1.08-.16.12Z"/>
              <path class="cls-18" d="M68.5,68.43c1.65-1.44-1.3-6.53-6.58-11.35-5.28-4.83-10.9-7.57-12.54-6.12-1.65,1.44,1.3,6.53,6.58,11.35,5.28,4.83,10.9,7.57,12.54,6.12Z"/>
              <path class="cls-3" d="M59.85,56.87c-1.29.94-2.42,2.03-3.68,3.04-.19.15-.36.25-.54.34-.07-.06-.15-.12-.23-.18-.71-.56-1.21-1.14-1.73-1.85-.65-.87-1.81-2.15-2.07-3.33-.08-.67.05-1.2.41-1.53,2.13-1.92,7.73,3.43,7.83,3.51Z"/>
              <path class="cls-3" d="M66.9,66.54c-1.59,2.44-8.92-3.52-9.65-4.7-.02-.03-.05-.06-.07-.09.27-.19.53-.39.76-.59,1.18-1.02,2.29-2.09,3.59-2.95,1.06,1.07,2.01,2.26,2.9,3.43.68.9,3.19,3.79,2.46,4.91Z"/>
              <path class="cls-18" d="M54.21,56.92s-.01.06-.04.03c-.03-.02.01-.06.04-.03h0Z"/>
              <path class="cls-18" d="M55.82,57.48c.53.48.58,1.34.02,1.78-.56.45-1.43.46-1.99-.06-.53-.48-.58-1.34-.02-1.78.56-.45,1.43-.46,1.99.06h0Z"/>
              <path class="cls-18" d="M57.25,57.32c.4.37.44,1.02.02,1.36-.43.34-1.09.35-1.52-.04-.4-.37-.44-1.02-.02-1.36.43-.34,1.09-.35,1.52.04h0Z"/>
              <path class="cls-18" d="M58.18,56.24c.59.54-.3,1.32-.89.78-.59-.54.3-1.32.89-.78h0Z"/>
              <path class="cls-18" d="M56.97,55.21c.66.6-.34,1.48-1,.88-.66-.6.34-1.48,1-.88h0Z"/>
              <path class="cls-18" d="M55.44,54.71c.38.35.42.97.02,1.3-.41.32-1.04.33-1.45-.04-.38-.35-.42-.97-.02-1.3.41-.32,1.04-.33,1.45.04h0Z"/>
              <path class="cls-18" d="M54.86,54.95c.51.46.56,1.29.02,1.72-.54.43-1.37.44-1.92-.05-.51-.46-.56-1.29-.02-1.72.54-.43,1.37-.44,1.92.05h0Z"/>
              <path class="cls-18" d="M62.03,59.24c.39.36.43,1,.02,1.33-.42.33-1.06.34-1.48-.04-.39-.36-.43-1-.02-1.33.42-.33,1.06-.34,1.48.04h0Z"/>
              <path class="cls-18" d="M59.92,60.35c.39.36.43,1,.02,1.33-.42.33-1.06.34-1.48-.04-.39-.36-.43-1-.02-1.33.42-.33,1.06-.34,1.48.04h0Z"/>
              <path class="cls-18" d="M60.52,61.97c.47.43.52,1.19.02,1.59-.5.4-1.27.41-1.77-.05-.47-.43-.52-1.19-.02-1.59.5-.4,1.27-.41,1.77.05h0Z"/>
              <path class="cls-18" d="M60.74,62.68s.03-.04.04-.07c.23-.37.8-.41,1.14-.11.02.02.04.04.06.06.47.41.19,1.14-.44,1.19-.62.05-1.12-.57-.8-1.07h0Z"/>
              <path class="cls-18" d="M62.73,60.65c.31.21.58.42.66.78.13.56-.28,1.14-.96,1.11-.07,0-.14,0-.2-.02-.17-.03-.18-.03-.03,0-.73.01-1.27-.7-1.11-1.3.16-.57,1.04-.99,1.64-.57h0Z"/>
              <path class="cls-18" d="M64.43,63.08c.36.33.4.93.02,1.23-.39.31-.99.32-1.38-.04-.36-.33-.4-.93-.02-1.23.39-.31.99-.32,1.38.04h0Z"/>
            </g>
          </g>
          <g>
            <path class="cls-18" d="M35.39,25.87c.52-.25.87-.58,1.09-.96-.06.42-.24.76-.54.98-.35.26-.85.35-1.46.28.31-.07.62-.16.91-.3Z"/>
            <g>
              <path class="cls-3" d="M37.16,24.96l-1.42,1.08-1.13-1.22c-2.49-.88-6.01-3.42-9.31-6.91-3.5-3.7-5.78-7.45-6.14-9.76l-.87-.94,1.24-.91s.09-.09.14-.12c.06-.04.12-.08.19-.12h0s0,0,0,0c1.94-1,7.13,2.07,11.84,7.05,4.71,4.99,7.22,10.06,5.78,11.59h0s0,0,0,0c-.05.05-.1.1-.16.14-.05.04-.11.07-.17.1Z"/>
              <path class="cls-18" d="M35.94,25.89c1.77-1.32-.75-6.58-5.62-11.73-4.87-5.16-10.26-8.26-12.03-6.94-1.77,1.32.75,6.58,5.62,11.73,4.87,5.16,10.26,8.26,12.03,6.94Z"/>
              <path class="cls-3" d="M28.27,13.8c-1.37.84-2.59,1.85-3.94,2.77-.2.14-.39.23-.57.3-.07-.06-.13-.13-.21-.2-.66-.61-1.11-1.21-1.58-1.95-.58-.91-1.63-2.26-1.79-3.45-.02-.67.15-1.19.54-1.49,2.29-1.77,7.44,3.94,7.54,4.02Z"/>
              <path class="cls-3" d="M34.51,23.9c-1.8,2.32-8.62-4.11-9.25-5.33-.02-.04-.04-.06-.06-.1.29-.17.56-.35.82-.54,1.27-.93,2.47-1.92,3.84-2.69.97,1.14,1.81,2.38,2.61,3.61.61.94,2.87,3.98,2.05,5.05Z"/>
              <path class="cls-18" d="M22.63,13.48s-.02.06-.04.03c-.02-.02.02-.06.04-.03h0Z"/>
              <path class="cls-18" d="M24.19,14.14c.49.51.47,1.37-.13,1.77-.6.4-1.47.36-1.99-.19-.49-.51-.47-1.37.13-1.77.6-.4,1.47-.36,1.99.19h0Z"/>
              <path class="cls-18" d="M25.63,14.08c.37.39.36,1.05-.1,1.35-.45.31-1.12.27-1.52-.15-.37-.39-.36-1.05.1-1.35.45-.31,1.12-.27,1.52.15h0Z"/>
              <path class="cls-18" d="M26.66,13.07c.54.57-.42,1.29-.96.72-.54-.57.42-1.29.96-.72h0Z"/>
              <path class="cls-18" d="M25.53,11.96c.61.64-.47,1.45-1.08.81-.61-.64.47-1.45,1.08-.81h0Z"/>
              <path class="cls-18" d="M24.05,11.36c.35.37.34,1-.09,1.29-.43.29-1.07.26-1.44-.14-.35-.37-.34-1,.09-1.29.43-.29,1.07-.26,1.44.14h0Z"/>
              <path class="cls-18" d="M23.45,11.56c.47.5.45,1.32-.12,1.71-.57.39-1.41.35-1.91-.19-.47-.5-.45-1.32.12-1.71.57-.39,1.41-.35,1.91.19h0Z"/>
              <path class="cls-18" d="M30.26,16.32c.36.38.35,1.02-.1,1.32-.44.3-1.09.27-1.48-.14-.36-.38-.35-1.02.1-1.32.44-.3,1.09-.27,1.48.14h0Z"/>
              <path class="cls-18" d="M28.05,17.27c.36.38.35,1.02-.1,1.32-.44.3-1.09.27-1.48-.14-.36-.38-.35-1.02.1-1.32.44-.3,1.09-.27,1.48.14h0Z"/>
              <path class="cls-18" d="M28.51,18.92c.43.46.41,1.22-.11,1.58-.53.36-1.31.32-1.77-.17-.43-.46-.41-1.22.11-1.58.53-.36,1.31-.32,1.77.17h0Z"/>
              <path class="cls-18" d="M28.67,19.64s.03-.04.05-.06c.26-.35.84-.35,1.15-.03.02.02.04.04.06.06.43.44.09,1.15-.55,1.15-.63,0-1.07-.65-.71-1.12h0Z"/>
              <path class="cls-18" d="M30.83,17.76c.29.23.54.46.6.82.08.56-.38,1.12-1.06,1.03-.07,0-.14-.02-.2-.04-.17-.04-.18-.04-.03,0-.73-.04-1.22-.78-1-1.36.21-.56,1.12-.91,1.69-.46h0Z"/>
              <path class="cls-18" d="M32.33,20.29c.34.36.32.95-.09,1.23-.41.28-1.01.25-1.37-.13-.34-.36-.32-.95.09-1.23.41-.28,1.01-.25,1.37.13h0Z"/>
            </g>
          </g>
          <g>
            <path class="cls-10" d="M36.52,37.69c-3.76-2.3-8.58-6.33-13.31-11.33-4.73-5-8.36-9.92-10.27-13.61l-3.65-3.87,3.01-2.25.02.03c2.7-1.22,11.23,4.56,19.48,13.28,8.24,8.72,13.18,17.19,11.36,19.35l.02.03-3.01,2.25-3.65-3.87Z"/>
            <path class="cls-11" d="M40.13,41.68c.13-.09.23-.21.32-.33.02-.03.05-.06.07-.1.06-.09.1-.19.14-.29.01-.05.03-.09.05-.15.18-.59.14-1.39-.12-2.35-.07-.3-.17-.6-.28-.93-.07-.21-.15-.43-.24-.65-.02-.06-.05-.12-.07-.18-.21-.5-.45-1.02-.73-1.58-.09-.18-.19-.36-.29-.54-.04-.08-.08-.15-.12-.22-.33-.6-.69-1.22-1.1-1.86-.25-.4-.52-.81-.8-1.22-.12-.19-.24-.37-.37-.56-.52-.75-1.09-1.53-1.69-2.33-.68-.9-1.41-1.81-2.19-2.74-.61-.72-1.24-1.45-1.91-2.19-.49-.54-.98-1.08-1.5-1.63-.36-.38-.72-.76-1.08-1.13-.03-.03-.06-.05-.08-.08-.55-.56-1.1-1.11-1.64-1.63-.29-.28-.57-.55-.86-.81-.17-.16-.34-.33-.51-.48-.05-.05-.09-.09-.14-.13-.31-.29-.62-.56-.92-.84-.23-.2-.45-.39-.66-.58-.36-.31-.71-.61-1.06-.9,0,0-.01-.01-.03-.02-.19-.16-.39-.32-.58-.48-.07-.06-.14-.12-.21-.17-.78-.64-1.55-1.23-2.3-1.78-3.66-2.67-6.81-4.23-8.74-4.23-.25,0-.47.02-.67.07-.2.05-.38.12-.54.22-.04.02-.07.04-.1.07-.17.13-.3.28-.41.47-.11.18-.18.39-.22.63-.27,1.39.48,3.67,2.04,6.46.27.48.56.98.88,1.49h0c2.01,3.24,4.94,7.01,8.53,10.8.92.97,1.84,1.9,2.76,2.79,2.99,2.89,5.94,5.33,8.56,7.12,1.19.81,2.32,1.5,3.35,2.03.3.16.6.29.88.43,1.13.51,2.12.82,2.93.88.68.05,1.23-.06,1.63-.36Z"/>
          </g>
          <g>
            <path class="cls-10" d="M63.78,74.74l3.01-2.25-.03-.03c.57-.68.48-1.97-.17-3.7-.11-.3-.24-.61-.39-.95-.1-.23-.22-.47-.34-.71-.01-.03-.03-.06-.04-.09-.41-.82-.91-1.7-1.49-2.63-.3-.48-.63-.99-.98-1.51-.11-.16-.22-.33-.34-.5-.38-.54-.77-1.1-1.2-1.67-.03-.05-.06-.09-.1-.14-.35-.47-.72-.94-1.09-1.42-.05-.06-.1-.12-.15-.18-.42-.53-.85-1.06-1.3-1.6-.88-1.05-1.81-2.12-2.8-3.2-.32-.35-.65-.7-.98-1.05-.55-.58-1.09-1.14-1.64-1.69-.68-.68-1.35-1.34-2.02-1.97-.47-.44-.94-.88-1.4-1.3h0c-.08-.08-.16-.15-.24-.22-.06-.05-.12-.11-.18-.16-.56-.51-1.11-.99-1.65-1.45-.05-.04-.1-.08-.14-.12-.76-.64-1.51-1.25-2.24-1.8-.15-.12-.3-.23-.45-.34l-.02-.02s-.07-.05-.11-.08c-.96-.71-1.88-1.35-2.75-1.91-.31-.2-.62-.39-.92-.56-.28-.17-.55-.32-.81-.46-.06-.03-.12-.06-.18-.09-.21-.11-.41-.21-.61-.31-.43-.21-.85-.39-1.23-.53-1.03-.38-1.89-.52-2.52-.39-.13.02-.26.06-.37.11l-.03-.03-3.01,2.25,3.66,3.87c1.9,3.69,5.54,8.61,10.27,13.61,1.45,1.53,2.91,2.97,4.34,4.29,1.84,1.71,3.63,3.22,5.32,4.51.79.6,1.54,1.15,2.27,1.64.48.32.94.62,1.39.9l3.65,3.86Z"/>
            <path class="cls-11" d="M63.74,74.87c2.57-1.92-2.28-10.8-10.82-19.84-8.54-9.04-17.55-14.81-20.11-12.89-2.57,1.92,2.28,10.8,10.82,19.84,8.54,9.04,17.55,14.81,20.11,12.89Z"/>
          </g>
          <path class="cls-9" d="M64.36,76.46h0c.45-.37.68-.88.56-1.61-.05-.26-.12-.52-.22-.8l.67-.5c-.28-.72-.73-1.47-1.25-2.18h0c-.42-.59-.89-1.14-1.35-1.61-.45-.47-.97-.92-1.5-1.33-.03-.03-.05-.05-.08-.07.08-.02.16-.04.23-.07.26-.08.48-.17.59-.28.17-.14.3-.3.41-.48h0c.06-.1.11-.2.15-.31.13-.32.2-.68.18-1.07,0-.26-.03-.52-.09-.79,0-.04-.02-.09-.03-.13-.06-.25-.14-.47-.23-.67h0c-.15-.35-.33-.64-.54-.91-.29-.35-.62-.65-.99-.95-.03-.03-.07-.06-.11-.09-.31-.25-.66-.52-1.02-.82-.06-.05-.12-.11-.19-.16h0s-.06-.06-.1-.1c-.35-.31-.65-.62-.91-.91-.07-.08-.14-.15-.2-.22-.42-.46-.78-.9-1.18-1.33-.07-.07-.14-.15-.21-.22-.23-.23-.48-.46-.75-.68-.22-.18-.47-.35-.75-.51-.1-.06-.21-.13-.32-.19h0s-.08-.05-.13-.07c-.14-.07-.28-.14-.42-.21-.05-.03-.09-.05-.14-.07-.11-.05-.21-.1-.31-.15h0c-.44-.2-.87-.37-1.31-.55h0s-.04-.02-.06-.03c-.21-.09-.42-.17-.63-.26-.23-.1-.46-.2-.69-.29-.27-.12-.82-.3-1.39-.51-.77-.28-1.6-.61-1.87-.93-.21-.24-.27-1.04-.45-1.39-.35-.65-.8-1.08-1.38-1.62-1.17-1.09-1.18-1.28-1.12-2.57.01-.31.04-.61.08-.91.06-.45.13-.9.21-1.36.01-.07.02-.15.04-.22.04-.24.08-.49.11-.73.02-.14.05-.3.07-.45.04-.22.09-.45.14-.68,0-.02,0-.04.01-.06.09-.43.16-.87.18-1.33.01-.31,0-.63-.06-.94-.05-.3-.14-.6-.28-.91h0s-.03-.07-.05-.11c-.22-.44-.56-.87-.95-1.28-.23-.25-.48-.49-.75-.72-.17-.15-.35-.31-.53-.46-.13-.12-.26-.22-.39-.34l-.1-.08c-.37-.3-.73-.6-1.04-.87-.17-.15-.33-.29-.5-.44-.09-.08-.17-.15-.26-.23-.19-.16-.37-.33-.56-.49-.23-.2-.45-.39-.69-.58-.21-.18-.43-.35-.65-.51-.22-.16-.43-.31-.65-.45-.17-.11-.34-.21-.52-.3-.21-.11-.43-.22-.65-.3-.09-.04-.18-.07-.27-.11-.42-.15-.89-.22-1.35-.28-.73-.1-1.48-.2-2.12-.61-2.04-1.28-.88-1.48-1.42-2.47-.43-.81-.71-1.31-1.31-1.73-.23-.16-.52-.31-.9-.46-1.34-.53-1.07.05-2.35-1.29-1.17-1.22-1.22-1.86-1.76-3.2-.36-.88-.84-1.5-1.35-2.34-.18-.25-.39-.47-.63-.68-.23-.57-.31-1.1-.25-1.58-.07-.35-.2-.66-.36-.97t0,0c-.33-.63-.79-1.21-.97-1.93-.05-.18-.07-.35-.08-.51-.01-.23,0-.44.03-.65,0,0,0-.01,0-.02.03-.29.04-.57-.06-.93-.03-.11-.07-.22-.13-.34-.03-.08-.07-.17-.13-.26-.12-.22-.31-.38-.52-.5h0c-.19-.12-.41-.19-.6-.22-.04-.59-.3-1.2-.71-1.81-.24-.35-.52-.69-.84-1.02h0c-.48-.5-1.04-.99-1.61-1.43-.13-.09-.26-.19-.38-.28-.22-.16-.44-.31-.66-.46-.7-.47-1.4-.91-2.06-1.26-1.36-.72-2.56-1.04-3.35-.29-.23.21-.42.51-.58.91-.07.16-.1.35-.12.55-.03.22-.05.46-.09.68-.03.12-.06.25-.11.35-.14.3-.3.5-.46.62-.15.1-.3.14-.46.13-.22-.01-.44-.11-.69-.27-.11.18-.18.39-.22.63-.66-.18-1.42-1.05-2.23-1.81-.9-.84-1.94-1.83-3-1.67-.03,0-.06.01-.08.02-.98,1.19,1.21,4.55,2.71,6.33-.07.06-.13.13-.17.21-.11.18-.18.41-.17.7.01.69.08,1.48.2,2.29.31,2.2,1.04,4.71,2.35,6.7.7,1.05,1.6,1.87,2.57,2.62h0c1.66,1.28,3.5,2.39,4.77,4.22.99,1.43,1.76,2.89,2.86,4.28,1.02,1.29,2.22,2.4,3.39,3.57,2.66,2.68,3.25,5.71,5.71,8.4.99,1.09,2.14,1.96,3.43,2.52.89.38,2.05.39,3,.67.27.07.53.18.76.31,1.28.77,2.2,3.29,2.92,4.43.99,1.57,2.13,3.09,3.32,4.59,2.36,2.96,4.99,5.67,7.73,8.36.32.31.65.62,1,.95h.01c.92.88,1.94,1.79,2.9,2.74,1.18,1.16,2.29,2.36,3.07,3.58.17.27.33.54.46.8.34.67.99,1.43,1.79,1.57.23.04.48.08.75.12.73.11,1.6.21,2.48.25,1.19.06,2.4,0,3.28-.32Z"/>
          <path class="cls-4" d="M64.36,76.46h0c.45-.37.68-.88.56-1.61-.05-.26-.12-.52-.22-.8-.08-.22-.17-.44-.29-.66h0c-.56-1.15-1.48-2.34-2.35-3.25-.48-.5-1.02-.97-1.58-1.4.34-.09.63-.2.79-.32l.03-.03s.08-.07.12-.11c.36-.35.57-.84.62-1.39.01-.02,0-.04,0-.05.03-.38,0-.77-.11-1.17,0-.02,0-.04,0-.06-.1-.38-.23-.7-.38-.98-.25-.45-.56-.81-.92-1.14-.53-.49-1.18-.94-1.87-1.56h0c-.09-.08-.17-.15-.24-.24h0s-.06-.06-.09-.09l-.02-.02c-.15-.15-.3-.29-.43-.44-.52-.55-.93-1.07-1.39-1.56-.16-.19-.34-.37-.52-.54-.47-.44-1.02-.87-1.75-1.24-.19-.1-.38-.19-.56-.28h0s-.04-.02-.05-.03h0c-.29-.14-.58-.26-.88-.39h0c-.69-.3-1.38-.57-2.06-.86-.05-.02-.11-.05-.18-.07-.79-.3-2.64-.86-3.08-1.36-.21-.24-.27-1.04-.45-1.39-.36-.66-.8-1.08-1.38-1.63-.29-.27-.5-.48-.67-.67l-.02-.02c-.07-.08-.13-.16-.17-.24,0,0-.02-.02-.02-.03,0,0-.01-.02-.02-.03,0-.02-.02-.03-.02-.04-.05-.08-.09-.16-.11-.24,0,0,0,0,0-.02-.1-.32-.1-.68-.07-1.28.03-.6.11-1.19.21-1.76.08-.49.17-.97.23-1.45,0-.02,0-.02,0-.04h0s0-.05,0-.07c.05-.37.14-.76.22-1.16.05-.24.09-.48.12-.73,0,0,0-.01,0-.02.07-.59.07-1.21-.11-1.83h0c-.07-.21-.15-.41-.25-.62-.12-.23-.26-.45-.43-.67h0c-.25-.33-.54-.65-.86-.95-.19-.18-.38-.36-.58-.53-.24-.22-.49-.43-.74-.63-.07-.06-.15-.12-.22-.18-.33-.27-.65-.53-.94-.78-.17-.15-.33-.29-.5-.44-.19-.16-.37-.33-.56-.49-.05-.04-.09-.08-.15-.13-.37-.33-.75-.66-1.15-.97h0c-.26-.21-.53-.41-.81-.59-.03-.02-.05-.03-.07-.04h0c-.47-.31-.96-.56-1.48-.75-.12-.04-.26-.08-.4-.12-.98-.24-2.1-.19-3.02-.74-.02,0-.04-.02-.06-.03-2.04-1.28-.88-1.48-1.42-2.47-.61-1.14-.91-1.66-2.2-2.18-1.34-.54-1.07.05-2.36-1.29-1.17-1.22-1.22-1.86-1.76-3.19-.36-.89-.84-1.5-1.35-2.34-.18-.25-.39-.47-.63-.68-.23-.57-.31-1.1-.24-1.59-.21-1.09-1.07-1.84-1.35-2.9-.05-.2-.07-.38-.08-.55-.02-.58.17-1.01-.06-1.67-.04-.15-.11-.31-.21-.48-.23-.41-.74-.67-1.12-.72-.07-1.16-1.02-2.41-2.27-3.51-.61-.54-1.28-1.05-1.95-1.49-1.2-.8-2.37-1.53-3.38-1.83-.48-.14-.92-.2-1.32-.11-.55.13-.99.52-1.29,1.3-.08.22-.12.46-.14.71,0,.07-.02.14-.02.2-.03.23-.06.45-.14.64,0,0-.01.02-.01.02-.07.14-.14.26-.2.37-.27.36-.58.45-.91.35-.66-.18-1.42-1.05-2.23-1.81-.9-.84-1.94-1.83-3-1.67-.03,0-.06.01-.08.02-2.41.47.26,4.66,2,6.72-.11.09-.2.21-.26.36-.07.15-.09.33-.09.55.01.42.04.88.08,1.36.02.24.06.49.09.74.02.19.05.38.09.57,0,.03,0,.06.02.1.06.35.13.71.21,1.07.05.2.09.4.14.6.05.2.1.4.16.6.05.2.12.39.18.59.06.2.14.4.2.59.07.2.15.39.23.58.1.26.22.51.34.76.07.15.15.3.22.44.08.15.16.3.25.44.02.05.05.1.09.14.08.13.16.27.25.4.46.7,1.01,1.29,1.61,1.82.43.38.89.74,1.35,1.09.25.19.51.38.76.56.35.26.7.52,1.04.78.95.74,1.86,1.55,2.58,2.59.99,1.43,1.76,2.89,2.86,4.28,1.01,1.28,2.22,2.39,3.38,3.57,2.67,2.68,3.25,5.71,5.71,8.4,1,1.1,2.14,1.96,3.44,2.51,1.14.49,2.72.37,3.76.99.24.15.48.36.69.61,0,0,0,0,0,0,.02.02.03.04.05.06.06.07.12.14.18.22.1.13.19.27.29.41.05.08.1.16.15.25.13.21.26.43.37.65.05.09.1.18.15.28.02.04.05.09.08.14,0,0,0,0,0,.01.26.5.5.99.72,1.39.04.08.08.15.12.22.04.06.07.13.11.19.99,1.57,2.13,3.09,3.32,4.59,2.36,2.96,4.99,5.67,7.74,8.36.55.54,1.17,1.12,1.82,1.71.61.56,1.24,1.15,1.86,1.75.7.67,1.38,1.37,1.98,2.07.22.25.42.5.62.76h0s0,0,0,.01c.02.02.03.04.05.07.33.41.61.83.85,1.25,0,0,0,.01,0,.02.09.14.16.28.24.43.04.07.08.15.12.22.18.3.42.61.69.85.06.05.13.11.2.16.07.05.14.1.22.14.07.04.15.08.22.11.11.04.21.08.33.09.34.06.76.13,1.21.19.08,0,.16.02.23.03.05,0,.1.01.17.02.05,0,.1.01.16.02.13.02.26.03.4.05.09,0,.17.01.25.02.43.04.86.07,1.29.07.1,0,.19,0,.29,0,1.3,0,2.53-.17,3.22-.72Z"/>
          <path class="cls-19" d="M9.85,16.87c2.61-.82,4.8-7.09,7.95-4.19,2.19,2.01,2.89,5.67,3.77,8.24,1.29,3.75,3.32,7.03,6.06,10.16,4.1,4.67,9.23,8.56,12.98,13.49,1.45,1.91,2.74,3.91,3.98,5.93.07.2.18.39.37.6,1.7,2.79,3.34,5.61,5.21,8.32,2.88,4.16,7.36,7.49,9.34,12.1.7,1.64,1.4,3.67,1.62,5.68-1.47,0-3.02-.23-4-.4-.79-.14-1.44-.9-1.78-1.57-1.46-2.87-5.05-5.71-7.44-8.06-2.75-2.69-5.38-5.4-7.74-8.36-1.19-1.5-2.32-3.02-3.32-4.59-.72-1.14-1.64-3.67-2.92-4.43-1.04-.62-2.62-.5-3.76-.99-1.3-.56-2.44-1.42-3.43-2.51-2.46-2.69-3.04-5.72-5.7-8.4-1.17-1.18-2.37-2.29-3.39-3.57-1.1-1.39-1.87-2.85-2.86-4.28-2.02-2.91-5.45-3.98-7.34-6.85-1.5-2.27-2.23-5.23-2.47-7.63,1.48,1.07,3.18,1.85,4.87,1.32Z"/>
          <path class="cls-8" d="M58.88,72.93c-2.63-6.04-7.27-11.47-11.57-16.98-4.71-6.03-9.6-11.98-14.26-18.03-4.19-5.44-8.94-10.94-12.64-16.57-2.04-3.09-3.86-6.3-5.71-9.45-.37-.62-1.24-.69-1.35-.18-.09.47-.21.93-.33,1.39-.77,2.76-2,5.39-2.12,8.43-.33,0-.63.07-.84.24-.33.25-.45.71-.19,1.37.02.03.03.08.05.11,2.23,5.52,3.37,11.13,6.09,16.62,2.46,4.95,6.12,9.65,10.32,13.84,4.7,4.7,10.07,8.76,15.57,12.39,4.82,3.18,10.2,6.92,15.41,8.54.22.07.43.09.62.07.83-.07,1.35-.89.95-1.78Z"/>
          <path class="cls-17" d="M57.92,74.71s-.01-.05-.03-.07c-2.63-6.03-7.28-11.47-11.58-16.98-4.71-6.03-9.6-11.98-14.25-18.03-4.19-5.45-8.94-10.95-12.64-16.58-2.04-3.09-3.86-6.3-5.72-9.44-.17-.28-.44-.45-.7-.5-.77,2.76-2,5.39-2.12,8.43-.33,0-.63.07-.84.24-.07.48-.13.97-.14,1.48,2.23,5.52,3.37,11.13,6.09,16.62,2.46,4.95,6.12,9.65,10.32,13.84,4.7,4.7,10.07,8.76,15.57,12.39,4.82,3.18,10.2,6.92,15.41,8.54.22.07.43.09.62.07Z"/>
          <path class="cls-9" d="M11.5,17.93c.51.69,1.13,1.35,1.79,2.02,2.26,2.27,3.95,4.79,5.96,7.24,4.83,5.88,9.34,11.93,14.17,17.81,5.2,6.33,10.43,12.57,14.99,19.28,2.11,3.11,4.16,6.24,6.23,9.37-4.36-1.88-8.75-4.9-12.76-7.54-5.5-3.63-10.86-7.69-15.57-12.39-4.2-4.19-7.86-8.9-10.32-13.84-2.72-5.48-3.86-11.1-6.09-16.62.02-.5.07-.99.14-1.48.21-.17.51-.24.84-.24.05-1.26.29-2.45.61-3.61Z"/>
          <path class="cls-2" d="M0,17.22c10.25,37.82,2.21,44.97,9.91,45.72,7.69.74,42.4,21.8,42.63,18.57C52.78,78.27,0,17.22,0,17.22Z"/>
          <path class="cls-1" d="M14.15,61.66c-.5-.19-.95-.34-1.34-.45-1.43-3.2-2.42-6.76-2.7-10.01-.24-2.77.88-5.24.65-8-.28-3.34-2.59-8.02-1.63-11.32.75.86,1.53,1.77,2.35,2.72.18,1.19.25,2.36.41,3.26.63,3.62.98,7.12,1.01,10.69.03,4.38-.13,8.79,1.25,13.1Z"/>
          <path class="cls-1" d="M23.26,66.11c-.83-.45-1.65-.88-2.44-1.3-1.25-4.47-1.27-8.77-.84-13.22.11-1.14.11-2.31.18-3.45.05-.85.37-1.89.53-2.85.28.33.56.66.85.99.17.85.19,1.72.19,2.54,0,2.31-.43,4.53-.44,6.84-.02,3.5.78,6.99,1.97,10.46Z"/>
          <path class="cls-1" d="M29.79,65.71c.14,1.43.35,2.95.78,4.44-.3-.17-.61-.34-.91-.51-1.01-3.62-1.85-7.53-1.64-10.96.07-1.21.28-2.51.76-3.58.03-.07.07-.13.1-.19.64.76,1.28,1.51,1.91,2.26-.1,2.93-1.29,5.53-.99,8.55Z"/>
          <path class="cls-1" d="M40.2,75.48c-.57-.3-1.15-.62-1.76-.95-.25-1.38-.42-2.75-.54-4.1-.05-.53-.28-3.13.05-4.69.88,1.07,1.72,2.1,2.51,3.07-.06,1.86-.4,3.8-.39,4.68,0,.66.04,1.33.13,1.99Z"/>
          <path class="cls-16" d="M0,17.22l4.25-3.18c.76-.57,1.93-.43,2.56.31,7.36,8.77,47.79,56.9,52.07,62.55.55.73-6.34,4.6-6.34,4.6C52.54,81.51-.5,15.33,0,17.22Z"/>
          <path class="cls-7" d="M38.78,64.38c-2.07-7.17-5.47-14.09-9.34-20.68-1.64-2.8-3.32-5.63-5.08-8.43,14.21,16.97,31.78,38.02,34.53,41.64.55.73-6.34,4.6-6.34,4.6,0,0-5.91-7.37-13.77-17.13Z"/>
          <path class="cls-12" d="M9.32,39.19c1.3,4.06,3.46,7.8,5.52,11.61,2.11,3.9,4.3,7.79,7.04,11.39,2.06,2.7,4.45,5.14,7.1,7.35-7.41-3.79-14.98-7.57-17.9-7.86-6.41-.62.29-6.58-8.25-38.07,0,0,1.25,1.45,3.33,3.86,1.16,3.89,1.93,7.84,3.17,11.72Z"/>
          <g class="cls-14">
            <path class="cls-13" d="M30.72,28.61c-.41-.57-1.65-.7-2.24-1.09-.69-.45-1.21-1.11-1.64-1.78-.7-1.1-1.93-2.83-1.51-3.88.2-.49.61-.63,1.2-.53,1.13.19,2.23,1.6,3.02,2.45.81.87,2.44,2.4,2.04,3.44.21.21.41.45.6.74.68,1.05-.73,1.4-1.48.63Z"/>
            <path class="cls-13" d="M14.92,10.88c-.37-.19-1.08-.65-1.51-.7-1.32-.14-1.07.82-1.54,1.41-2.39,2.99-5.41,1.02-4.75.79,2.87-.97,1.88-4.65,5.31-5,1.89-.19,5.72,3.89,5.35,4.05-1.16.49-1.8-.01-2.86-.56Z"/>
          </g>
        </g>
      </g>
    </g>
  </g>
</svg>