<?xml version="1.0" encoding="UTF-8"?>
<svg id="Layer_2" data-name="Layer 2" xmlns="http://www.w3.org/2000/svg" viewBox="0 0 15.35 12.96">
  <defs>
    <style>
      .cls-1 {
        fill: #524c2f;
      }
    </style>
  </defs>
  <g id="Layer_1-2" data-name="Layer 1">
    <g>
      <g>
        <path class="cls-1" d="M15.25,7.18c-.25,1.6-1.18,3.09-2.55,4.08-1.05.76-2.25,1.17-3.48,1.19.02-.06.05-.12.07-.17,0,0,.04-.11.09-.31,1.07-.05,2.13-.43,3.05-1.09,1.27-.92,2.13-2.29,2.36-3.76.28-1.79-.16-5.09-.36-6.42l-.02-.12-.11.05c-3.47,1.39-5.71,3.15-6.64,5.23-.12-.11-.25-.21-.38-.32C8.33,3.3,10.76,1.45,14.5.01c.03,0,.06-.01.08-.01.04,0,.08.01.12.03.06.03.1.09.12.17.02.13.22,1.3.36,2.7.19,1.86.22,3.34.07,4.28Z"/>
        <path class="cls-1" d="M10.81,6.61c-.56.94-.99,1.62-1.29,2.07-.03.05-.06.09-.09.14v.02c.11.54.16,1.1.14,1.68.33-.49.59-.95.78-1.41l.08-.2c.12-.29.25-.61.39-.93.6-1.34,1.22-2.8,1.76-4.15-.58.88-1.19,1.85-1.77,2.78Z"/>
      </g>
      <path class="cls-1" d="M8.53,9.93c-.09-.88-.37-1.68-.85-2.37h0c-.15-.22-.33-.44-.53-.66-.17-.18-.35-.34-.53-.48-1.4-1.12-3.55-1.76-6.37-1.88h-.02c-.07,0-.13.03-.17.08-.05.05-.07.13-.06.2.02.16.59,3.78,1.44,5.43.6,1.16,1.69,2.07,2.99,2.48.51.16,1.03.24,1.55.24.63,0,1.24-.12,1.81-.36h.02c.12-.06.25-.12.38-.19.05-.03.1-.08.11-.13h0s.03-.1.05-.2h0s.02-.09.03-.14c.11-.45.22-1.17.13-2.01ZM7.94,11.65c-.01.07-.03.13-.04.19-.54-.95-1.83-2.07-2.45-2.54-.94-.81-1.99-1.66-2.96-2.41.62.74,1.31,1.54,1.85,2.15.42.46.94,1.04,1.29,1.47.62.7,1.44,1.27,2.04,1.59h0s-.02.01-.03.02c-.07.03-.15.06-.22.09-.45.16-.94.25-1.44.25-.47,0-.93-.07-1.39-.22-1.17-.37-2.16-1.18-2.69-2.22-.65-1.26-1.14-3.82-1.32-4.86v-.07s.06,0,.06,0c2.66.17,4.64.82,5.88,1.93.21.19.4.4.58.62.06.07.11.14.16.22.96,1.4.84,2.99.68,3.81Z"/>
    </g>
  </g>
</svg>