<?xml version="1.0" encoding="UTF-8"?>
<svg xmlns="http://www.w3.org/2000/svg" xmlns:xlink="http://www.w3.org/1999/xlink" viewBox="0 0 86.68 101.6">
  <defs>
    <style>
      .cls-1 {
        fill: #feba02;
      }

      .cls-2 {
        fill: #478c15;
      }

      .cls-3 {
        fill: #f6f6f6;
      }

      .cls-4 {
        fill: #ffe9a6;
      }

      .cls-5 {
        fill: #ffb300;
      }

      .cls-6 {
        fill: #bbc4c7;
        opacity: .1;
      }

      .cls-6, .cls-7, .cls-8, .cls-9 {
        mix-blend-mode: multiply;
      }

      .cls-10 {
        isolation: isolate;
      }

      .cls-11 {
        fill: url(#linear-gradient-2);
      }

      .cls-11, .cls-12, .cls-13, .cls-14, .cls-15 {
        opacity: .3;
      }

      .cls-12 {
        fill: url(#linear-gradient-4);
      }

      .cls-16 {
        fill: url(#linear-gradient-3);
      }

      .cls-16, .cls-8 {
        opacity: .5;
      }

      .cls-13 {
        fill: url(#linear-gradient);
      }

      .cls-17 {
        fill: #73a525;
      }

      .cls-18 {
        fill: #567600;
      }

      .cls-19 {
        fill: #fff;
      }

      .cls-7 {
        opacity: .6;
      }

      .cls-7, .cls-8, .cls-15 {
        fill: #ccc;
      }

      .cls-20 {
        fill: #ffc957;
      }

      .cls-9 {
        fill: #7a7a7a;
        opacity: .2;
      }

      .cls-21 {
        fill: #f78800;
      }

      .cls-22 {
        fill: #4b6301;
      }

      .cls-23 {
        fill: #c2c2c2;
      }

      .cls-24 {
        fill: #ffd75c;
      }

      .cls-25 {
        fill: #ff9500;
      }
    </style>
    <linearGradient id="linear-gradient" x1="14.29" y1="58.15" x2="57.33" y2="58.15" gradientUnits="userSpaceOnUse">
      <stop offset=".01" stop-color="#d3dde1"/>
      <stop offset=".08" stop-color="#adadad"/>
      <stop offset=".08" stop-color="#adadad"/>
      <stop offset=".12" stop-color="#bfc3c5"/>
      <stop offset=".17" stop-color="#cdd4d6"/>
      <stop offset=".24" stop-color="#d7e0e3"/>
      <stop offset=".32" stop-color="#dde7ea"/>
      <stop offset=".51" stop-color="#dfe9ed"/>
      <stop offset=".61" stop-color="#dce5e9"/>
      <stop offset=".7" stop-color="#d3dbde"/>
      <stop offset=".79" stop-color="#c4c9cb"/>
      <stop offset=".88" stop-color="#b0b0b1"/>
      <stop offset=".89" stop-color="#adadad"/>
      <stop offset="1" stop-color="#d3dde1"/>
    </linearGradient>
    <linearGradient id="linear-gradient-2" x1="17.28" y1="92.52" x2="54.35" y2="92.52" xlink:href="#linear-gradient"/>
    <linearGradient id="linear-gradient-3" x1="17.28" y1="94.96" x2="54.35" y2="94.96" xlink:href="#linear-gradient"/>
    <linearGradient id="linear-gradient-4" x1="14.29" y1="28.83" x2="29.81" y2="28.83" xlink:href="#linear-gradient"/>
  </defs>
  <g class="cls-10">
    <g id="Layer_2" data-name="Layer 2">
      <g id="Layer_1-2" data-name="Layer 1">
        <g>
          <path class="cls-13" d="M57.33,21.35c-.09,1.54-2.99,53.62-2.99,71.17,0,1.34-8.3,2.43-18.53,2.43-3.29,0-6.37-.11-9.05-.31-1.34-.1-2.58-.22-3.69-.36-.12-.02-.25-.03-.37-.05-3.35-.44-5.43-1.05-5.43-1.72,0-17.56-2.9-69.7-2.99-71.17.05.44,1.13.85,2.99,1.21,1.21.23,2.76.44,4.55.61,2.5.24,5.5.42,8.79.51,1.66.05,3.4.07,5.19.07,7.89,0,14.79-.48,18.53-1.2,1.85-.35,2.93-.77,2.99-1.2Z"/>
          <ellipse class="cls-15" cx="35.81" cy="21.32" rx="21.52" ry="2.43"/>
          <path class="cls-8" d="M35.81,18.88c-11.88,0-21.52,1.09-21.52,2.43s9.64,2.43,21.52,2.43,21.52-1.09,21.52-2.43-9.64-2.43-21.52-2.43ZM50.7,22.72c-4.02.45-9.31.7-14.89.7s-10.87-.25-14.89-.7c-5.56-.62-6.23-1.36-6.29-1.47.07-.1.74-.84,6.29-1.47,4.02-.45,9.31-.7,14.89-.7s10.87.25,14.89.7c5.56.62,6.23,1.36,6.29,1.47-.07.1-.74.84-6.29,1.47Z"/>
          <ellipse class="cls-11" cx="35.81" cy="92.52" rx="18.53" ry="2.43"/>
          <path class="cls-16" d="M54.35,92.52v2.43c0,1.34-8.3,2.43-18.53,2.43s-18.53-1.09-18.53-2.43v-2.43c0,1.34,8.3,2.43,18.53,2.43s18.53-1.09,18.53-2.43Z"/>
          <path class="cls-20" d="M17.33,30.27c0,.12,0,.24,0,.36-.03-.06-.05-.12-.05-.19,0-.06.02-.12.05-.18Z"/>
          <path class="cls-20" d="M54.35,30.45c0,.08-.03.16-.09.24,0-.16,0-.31,0-.47.06.07.08.15.08.23Z"/>
          <ellipse class="cls-20" cx="35.81" cy="30.45" rx="18.53" ry="2.43"/>
          <g>
            <circle class="cls-25" cx="15" cy="21.32" r="15" transform="translate(-9.11 31.23) rotate(-77.22)"/>
            <path class="cls-4" d="M15,35.54c-1.07,0-2.07-.5-3.08-.73-1.04-.24-2.16-.22-3.09-.68-.95-.46-1.64-1.35-2.45-2-.82-.66-1.84-1.13-2.49-1.95-.65-.82-.89-1.91-1.35-2.86-.45-.94-1.17-1.8-1.4-2.84-.23-1,.03-2.09.03-3.16s-.26-2.16-.03-3.16c.24-1.04.95-1.9,1.4-2.84.46-.95.7-2.05,1.35-2.86.66-.82,1.67-1.29,2.49-1.95.82-.65,1.5-1.54,2.45-2,.94-.45,2.06-.44,3.09-.68,1-.23,2.01-.73,3.08-.73s2.07.5,3.08.73c1.04.24,2.16.22,3.09.68.95.46,1.64,1.35,2.45,2,.82.66,1.84,1.13,2.49,1.95.65.82.89,1.91,1.35,2.86.45.94,1.17,1.8,1.4,2.84.23,1-.03,2.09-.03,3.16s.26,2.16.03,3.16c-.24,1.04-.95,1.9-1.4,2.84-.46.95-.7,2.05-1.35,2.86-.66.82-1.67,1.29-2.49,1.95-.82.65-1.5,1.54-2.45,2-.94.45-2.06.44-3.09.68-1,.23-2.01.73-3.08.73Z"/>
            <g>
              <path class="cls-5" d="M24.29,13.69c-.15.33-.39.64-.71.89-.36.28-.72.57-1.08.85-2.13,1.69-4.27,3.37-6.41,5.05-.02.01-.03.03-.05.04-.15-.19-.34-.34-.57-.43,0-.02.02-.04.02-.05.94-2.55,1.87-5.1,2.82-7.65.23-.62.41-1.3.74-1.87.28-.48.74-.85,1.31-.87.35,0,.69.1,1.02.23.73.29,1.41.71,2,1.23.38.33.73.72.92,1.19.2.49.18.97,0,1.4Z"/>
              <path class="cls-5" d="M27.83,19.48c-.12.51-.42.89-.83,1.13-.32.19-.69.29-1.1.3-.46.02-.91.04-1.37.05-2.71.11-5.43.21-8.15.32-.02,0-.04,0-.07,0,0-.25-.08-.49-.21-.68.02,0,.03-.02.05-.03,2.26-1.51,4.52-3.03,6.78-4.53.55-.37,1.09-.81,1.7-1.08.51-.22,1.1-.25,1.57.07.29.2.51.49.69.78.42.66.72,1.4.89,2.17.11.49.16,1.01.05,1.51Z"/>
              <path class="cls-5" d="M27.85,23.85c-.05.78-.24,1.56-.55,2.28-.2.46-.46.91-.85,1.24-.4.34-.87.47-1.34.43-.36-.03-.73-.18-1.07-.4-.38-.25-.76-.51-1.14-.76-2.26-1.5-4.52-3.02-6.78-4.53-.02-.01-.04-.02-.05-.04.13-.19.22-.43.23-.68.02,0,.04,0,.06,0,2.72.1,5.43.21,8.15.32.66.03,1.36-.01,2.01.13.54.12,1.04.44,1.23.98.12.33.12.69.1,1.04Z"/>
              <path class="cls-5" d="M24.44,30.03c-.1.34-.31.63-.53.9-.5.6-1.11,1.12-1.78,1.52-.44.26-.91.47-1.42.51-.53.04-.98-.13-1.33-.44-.27-.24-.49-.57-.63-.95-.16-.43-.32-.86-.47-1.29-.95-2.55-1.88-5.1-2.82-7.65,0-.02-.02-.04-.02-.06.23-.08.43-.22.58-.41.02.01.03.02.04.03,2.14,1.68,4.27,3.36,6.41,5.05.52.41,1.11.79,1.55,1.28.37.42.58.97.42,1.51Z"/>
              <path class="cls-5" d="M17.52,33.91c-.28.21-.62.33-.96.41-.76.19-1.55.26-2.34.18-.5-.05-1.01-.16-1.45-.42-.45-.28-.72-.68-.82-1.14-.08-.36-.06-.75.05-1.14.12-.44.25-.88.37-1.32.73-2.62,1.48-5.23,2.22-7.85,0-.02.01-.04.02-.07.12.04.24.06.38.06.12,0,.23-.02.34-.05,0,.02,0,.04.02.06.74,2.62,1.48,5.23,2.21,7.85.18.63.44,1.29.5,1.95.06.55-.1,1.13-.55,1.47Z"/>
              <path class="cls-5" d="M14.53,22.55s-.01.04-.02.05c-.94,2.55-1.87,5.1-2.82,7.65-.23.62-.41,1.3-.74,1.87-.28.48-.74.85-1.31.87-.35,0-.69-.1-1.02-.23-.73-.29-1.41-.71-2-1.22-.38-.33-.73-.72-.92-1.19-.21-.49-.18-.97,0-1.4.15-.34.39-.64.71-.89.36-.28.71-.57,1.08-.85,2.13-1.69,4.27-3.37,6.41-5.05.02-.01.04-.03.05-.04.14.19.34.34.57.43Z"/>
              <path class="cls-5" d="M13.89,22.03s-.03.02-.05.03c-2.26,1.51-4.52,3.03-6.78,4.53-.55.36-1.09.81-1.7,1.08-.51.22-1.1.25-1.57-.07-.29-.2-.5-.49-.69-.78-.42-.67-.72-1.4-.89-2.17-.11-.49-.16-1.01-.05-1.51.12-.52.43-.89.83-1.13.32-.19.69-.29,1.1-.3.46-.02.91-.04,1.37-.05,2.72-.11,5.43-.21,8.15-.32.02,0,.04,0,.07,0,0,.25.08.48.21.68Z"/>
              <path class="cls-5" d="M13.91,20.57c-.13.19-.22.43-.23.68-.02,0-.04,0-.06,0-2.72-.11-5.43-.21-8.15-.32-.66-.03-1.36.01-2.01-.13-.54-.12-1.04-.44-1.23-.98-.12-.33-.12-.69-.1-1.04.05-.78.24-1.56.55-2.28.2-.46.46-.91.85-1.24.4-.34.87-.47,1.33-.43.37.03.73.18,1.07.4.38.25.76.51,1.14.76,2.26,1.5,4.52,3.02,6.78,4.53.02.01.04.03.06.04Z"/>
              <path class="cls-5" d="M14.56,20.08c-.23.08-.43.22-.58.41-.02-.01-.03-.03-.05-.04-2.14-1.68-4.27-3.36-6.41-5.05-.52-.41-1.11-.79-1.55-1.28-.37-.41-.58-.97-.42-1.51.1-.34.31-.63.53-.9.5-.6,1.11-1.12,1.78-1.52.44-.26.91-.47,1.42-.51.53-.04.98.13,1.33.44.27.24.49.57.63.95.16.43.32.86.47,1.29.95,2.55,1.88,5.1,2.82,7.65,0,.02.02.04.02.07Z"/>
              <path class="cls-5" d="M17.98,10.83c-.12.44-.25.88-.37,1.32-.73,2.62-1.48,5.23-2.22,7.85,0,.02-.01.04-.02.07-.12-.04-.24-.06-.37-.06-.12,0-.23.02-.34.05,0-.02,0-.04-.02-.06-.74-2.62-1.48-5.23-2.22-7.85-.18-.63-.43-1.29-.5-1.95-.05-.55.1-1.13.55-1.47.28-.21.62-.33.96-.42.76-.19,1.55-.25,2.33-.18.5.05,1.01.16,1.45.42.45.28.72.68.82,1.14.08.36.06.75-.05,1.14Z"/>
            </g>
          </g>
          <path class="cls-3" d="M49.72.62l-4.3,27.77-.33,2.14c-1,.05-1.97-.06-2.72-.19l.33-2.13L47.05.18c0,.18.57.42,1.29.54.74.13,1.36.08,1.39-.1Z"/>
          <path class="cls-7" d="M46.25,23.11l-.05.35c-.88.06-1.81.1-2.77.14l.05-.34c.95-.04,1.88-.09,2.77-.15Z"/>
          <path class="cls-1" d="M54.26,30.69c-.02,1.41-.05,2.96-.08,4.63-.16,8.68-.48,20.48-1.08,31.15-.73,12.91-1.87,24.16-3.68,26.2-.13.15-.27.25-.4.29-4.78,1.65-20.41,2.12-26.07-.14-.24-.09-.45-.19-.66-.3-1.7-.89-2.83-9.33-3.57-20.07-.9-12.96-1.24-29.25-1.37-39.62v-.03c0-.75-.02-1.47-.03-2.16.72,1.26,8.72,2.25,18.48,2.25s17.53-.96,18.44-2.2Z"/>
          <path class="cls-23" d="M49.72.63c-.03.18-.65.23-1.39.1s-1.31-.37-1.29-.56c.03-.18.65-.23,1.39-.1.74.13,1.31.37,1.29.56Z"/>
          <g>
            <path class="cls-6" d="M57.33,21.35c-.09,1.54-2.99,53.62-2.99,71.17,0,1.34-8.3,2.43-18.53,2.43-5.12,0-9.75-.27-13.1-.71-3.35-.44-5.43-1.05-5.43-1.72,0-17.56-2.9-69.7-2.99-71.17.05.44,1.13.85,2.99,1.21,0,0,.04,67.36,5.02,69.96,4.98,2.6,21.74,2.16,26.72.44,4.98-1.72,5.33-70.41,5.33-70.41,1.85-.35,2.93-.77,2.99-1.2Z"/>
            <path class="cls-9" d="M51.43,92.52c-2.32,2.52-26.33,3.23-31.09,0,0,0-2.58.55-2.26-32.11h0c.18,4.14.39,8.24.65,12.04.74,10.74,1.87,19.18,3.57,20.07.2.1.42.2.66.3,5.65,2.26,21.29,1.79,26.07.14.14-.05.27-.15.4-.29,1.8-2.03,2.95-13.28,3.68-26.2.15-2.72.29-5.51.4-8.31,0,.65.22,31.86-2.08,34.36Z"/>
            <path class="cls-9" d="M54.5,30.45s-3.11,54.31-9.4,59.08-21.7,4.11-24.76,2.99c0,0,12.54,4.07,28.64.8,1.75-.36,2.15-2.24,2.34-4.02,1.53-14.16,2.2-18.91,3.19-58.85Z"/>
          </g>
          <g class="cls-14">
            <path class="cls-19" d="M24.41,71.95c0-.6,0-1.2,0-1.81-.18-11.24-.31-22.47-.43-33.71,0-.63-.08-8.81-.13-13.09-.7-.05-1.38-.11-2.02-.17-.98-.09-1.88-.2-2.69-.31.19,8.94.95,44.07,1.5,53.76.3,5.31.06,10.89,1.29,16.09.12.51.28,1.04.53,1.5.08.01.17.02.25.03.12.02.24.03.37.05.74.09,1.54.18,2.39.25-1.24-4.11-1.05-20.4-1.05-22.59Z"/>
          </g>
          <g>
            <circle class="cls-25" cx="68.85" cy="79" r="17.83"/>
            <path class="cls-21" d="M86.68,79c0,9.85-7.98,17.83-17.83,17.83-4.5,0-8.62-1.67-11.75-4.42,1.81.62,3.75.95,5.76.95,9.85,0,17.83-7.98,17.83-17.83,0-5.34-2.35-10.14-6.08-13.41,7.02,2.39,12.07,9.05,12.07,16.88Z"/>
            <ellipse class="cls-24" cx="58.37" cy="69.75" rx="3.3" ry="2.29" transform="translate(-31.22 85.43) rotate(-60)"/>
            <g>
              <path class="cls-2" d="M48.47,64.71s5.54,2.94,9.47,1.7c4.3-.75,6.95-5.71,9.53-10.43-5.81.34-8.46,5.3-11.95,7.14-3.12,2.33-7.07,1.55-7.05,1.58Z"/>
              <path class="cls-17" d="M48.47,64.71s3.93.75,7.05-1.58c3.48-1.85,6.14-6.8,11.95-7.14.41.54-4.29-2.86-7.72-1.74-3.84.56-6.41,5.64-11.28,10.47Z"/>
            </g>
            <path class="cls-18" d="M64.35,54.08c.38.69,1.12,1.17,1.67,1.79.59.65,1,1.38,1.29,2.13.53,1.39.61,2.83.81,4.26,0,.07.02.13.07.19.28.29.45-.26.46-.38.34-3.27.29-6.6-.58-9.83,0-.02,0-.03-.01-.05-.15-.53-.31-1.07-.5-1.6-.11-.31-.28-.66-.84-.53-1.25.29-2.26,1.52-2.53,2.38-.19.61-.11,1.14.16,1.63Z"/>
            <path class="cls-21" d="M69.17,62.44c0,.12-.35.21-.79.21s-.79-.09-.79-.21.35-.21.79-.21.79.09.79.21Z"/>
            <path class="cls-22" d="M68.7,61.65c-.01.14-.03.28-.04.42-.01.11-.18.66-.46.38-.05-.05-.06-.12-.07-.19-.2-1.43-.28-2.87-.81-4.26-.29-.75-.7-1.47-1.29-2.13-.55-.61-1.29-1.09-1.67-1.79-.27-.49-.35-1.03-.16-1.63.06-.19.15-.39.28-.6-.09.49,0,.93.23,1.35.38.69,1.12,1.17,1.67,1.79.59.65,1,1.38,1.29,2.13.53,1.39.61,2.83.81,4.26,0,.06.02.13.07.19.06.06.11.08.16.08Z"/>
          </g>
          <path class="cls-12" d="M29.81,23.66c-.54,3.46-2.27,6.53-4.75,8.77-4.35-.41-7.3-1.06-7.73-1.8,0,.69.02,1.41.03,2.16v.03c.01,1.04.03,2.14.04,3.3-.75.12-1.53.19-2.31.19-.44-8.47-.77-14.48-.8-14.97.05.44,1.13.85,2.99,1.21.55.11,1.18.21,1.86.3.2.03.41.06.63.08.11.01.21.03.32.04s.22.03.33.04c.11.01.23.03.34.04.34.04.7.08,1.07.11.23.02.47.04.71.06.24.02.49.04.75.06.18.02.37.03.56.04,1.81.14,3.82.24,5.96.32Z"/>
          <g>
            <path class="cls-25" d="M72.44,82.7c-.05,10.45-8.53,18.9-18.99,18.9s-18.94-8.45-18.99-18.9h16.14c.37-.01.73-.03,1.1-.04.03,0,.05,0,.08,0,0,.01,0,.03,0,.04h20.65Z"/>
            <path class="cls-4" d="M71.01,86.62c-.3,1.31-1.2,2.41-1.78,3.59-.58,1.2-.88,2.59-1.71,3.62-.83,1.04-2.12,1.64-3.16,2.47-1.03.83-1.9,1.95-3.11,2.53-1.18.57-2.6.56-3.91.86-1.27.29-2.54.93-3.9.93s-2.63-.64-3.9-.93c-1.31-.3-2.73-.28-3.91-.86-1.2-.58-2.07-1.71-3.1-2.53-1.04-.83-2.33-1.43-3.16-2.47-.83-1.03-1.13-2.42-1.71-3.62-.57-1.18-1.48-2.28-1.78-3.59-.28-1.24.03-2.59.04-3.92h14.67c.37-.01.73-.03,1.1-.04.03,0,.05,0,.08,0,0,.01,0,.03,0,.04h19.18c.01,1.33.32,2.68.04,3.92Z"/>
            <g>
              <path class="cls-5" d="M69.73,85.82c-.06.99-.3,1.97-.7,2.88-.25.59-.58,1.16-1.07,1.58-.51.44-1.1.6-1.69.54-.46-.04-.92-.23-1.35-.51-.48-.32-.96-.64-1.44-.97-2.87-1.9-5.72-3.82-8.59-5.74-.02-.01-.05-.03-.07-.05.17-.25.27-.54.29-.86.02,0,.05,0,.07,0,3.44.13,6.88.26,10.32.4.83.03,1.72-.02,2.54.16.69.15,1.32.56,1.56,1.24.15.42.15.87.12,1.31Z"/>
              <path class="cls-5" d="M65.41,93.64c-.13.43-.39.8-.67,1.14-.63.76-1.4,1.42-2.26,1.92-.55.33-1.15.59-1.79.64-.67.05-1.24-.16-1.69-.56-.35-.31-.61-.73-.79-1.21-.2-.54-.4-1.09-.6-1.63-1.2-3.23-2.38-6.46-3.57-9.69,0-.03-.02-.05-.03-.08.29-.1.55-.28.74-.52.02.01.04.03.06.04,2.7,2.13,5.41,4.25,8.11,6.39.65.52,1.41,1,1.96,1.62.47.53.74,1.23.53,1.92Z"/>
              <path class="cls-5" d="M56.65,98.56c-.36.27-.78.42-1.21.52-.96.25-1.97.32-2.96.23-.64-.06-1.28-.2-1.83-.53-.57-.35-.91-.86-1.03-1.44-.1-.45-.07-.95.07-1.44.15-.56.31-1.11.47-1.67.93-3.32,1.87-6.63,2.81-9.94,0-.03.01-.06.02-.08.15.05.31.07.48.07.15,0,.29-.02.43-.06,0,.02.01.05.02.07.94,3.31,1.88,6.62,2.8,9.94.23.8.55,1.63.63,2.47.07.7-.12,1.43-.69,1.86Z"/>
              <path class="cls-5" d="M52.86,84.17s-.02.05-.02.07c-1.19,3.23-2.37,6.46-3.57,9.69-.29.78-.52,1.64-.94,2.37-.35.61-.94,1.08-1.66,1.1-.45,0-.88-.12-1.29-.29-.92-.37-1.78-.89-2.53-1.55-.48-.42-.92-.91-1.17-1.51-.26-.62-.23-1.23,0-1.77.19-.43.5-.81.9-1.13.45-.36.9-.72,1.36-1.07,2.7-2.14,5.41-4.26,8.11-6.39.02-.02.05-.04.07-.05.18.24.43.43.72.54Z"/>
              <path class="cls-5" d="M52.06,83.52s-.04.03-.06.04c-2.86,1.91-5.72,3.83-8.58,5.74-.69.46-1.38,1.03-2.15,1.37-.64.28-1.4.32-1.99-.09-.37-.25-.64-.62-.87-.99-.53-.84-.92-1.77-1.13-2.74-.14-.62-.21-1.28-.06-1.91.16-.65.54-1.13,1.05-1.43.4-.23.88-.36,1.39-.38.58-.02,1.16-.05,1.73-.07,3.07-.13,6.15-.24,9.22-.36.37-.01.73-.03,1.1-.04.03,0,.05,0,.08,0,0,.01,0,.03,0,.04.01.3.11.58.27.82Z"/>
            </g>
          </g>
        </g>
      </g>
    </g>
  </g>
</svg>