<?xml version="1.0" encoding="UTF-8"?>
<svg id="Layer_2" data-name="Layer 2" xmlns="http://www.w3.org/2000/svg" viewBox="0 0 87.05 73.51">
  <defs>
    <style>
      .cls-1 {
        fill: #351c14;
      }

      .cls-2 {
        fill: #2b1410;
      }

      .cls-3 {
        fill: #d8a368;
      }

      .cls-4 {
        fill: #a37148;
      }

      .cls-5 {
        fill: #bf8652;
      }

      .cls-6 {
        fill: #300202;
      }

      .cls-7 {
        fill: #c99a67;
      }

      .cls-8 {
        fill: #42251a;
      }

      .cls-9 {
        fill: #d3a26c;
      }

      .cls-10 {
        fill: #44271b;
      }

      .cls-11 {
        fill: #cc935a;
      }

      .cls-12 {
        fill: #4f2c1d;
      }

      .cls-13 {
        fill: #5e3825;
      }

      .cls-14 {
        fill: #e1b37c;
      }

      .cls-15 {
        fill: #b7895c;
      }

      .cls-16 {
        fill: #422217;
      }

      .cls-17 {
        fill: #512f20;
      }

      .cls-18 {
        fill: #c18f5d;
      }

      .cls-19 {
        fill: #7c4e39;
      }
    </style>
  </defs>
  <g id="Layer_1-2" data-name="Layer 1">
    <g>
      <path class="cls-8" d="M80.84,17.84c-.67.94-1.89,1.72-3.16,1.72-.3,0-.61-.04-.91-.14-.79-.25-1.45-.94-1.73-1.79,0-.02-.01-.03-.02-.05-.62.77-1.24,1.53-1.85,2.29-2.01,2.49-4.06,5.05-5.85,7.73.18.55.21,1.14.07,1.68-.32,1.23-1.35,2.3-2.8,2.95-.74,1.48-1.38,3.01-1.87,4.59.14.33.23.67.31.98.39,1.61.63,3.26.72,4.92l22.87-16.8-4.68-11.99c-.03,1.6-.4,2.92-1.11,3.9ZM73.15,22.87c.05-.25.21-.44.37-.64.09-.12.18-.23.28-.35.14-.17.39-.24.6-.25.23-.01.44.1.6.25.33.3.33.9,0,1.2-.29.26-.56.58-.94.68-.25.07-.53,0-.71-.19-.19-.19-.24-.45-.19-.71ZM69.81,36.29c0,.06-.02.12-.05.18-.02.06-.05.11-.09.16-.05.08-.12.14-.2.18-.06.02-.11.05-.17.07-.06,0-.12.02-.19.03-.04,0-.07,0-.11,0-.11,0-.21-.03-.3-.08-.04-.03-.08-.06-.12-.09-.06-.05-.1-.12-.12-.19-.04-.07-.05-.15-.05-.23,0-.04,0-.07,0-.11,0-.1.02-.19.06-.27.02-.06.05-.11.09-.16.05-.08.12-.14.2-.18l.17-.07c.06,0,.12-.02.19-.03.06,0,.12.02.19.03l.17.07s.1.07.14.11c.07.06.12.14.15.23.03.05.05.11.05.18.02.06.02.12,0,.19ZM76.34,30.12c-.75,1.85-2.07,3.2-3.61,3.69-.33.11-.7.16-1.07.16-1.32,0-2.75-.62-3.33-1.55-.29-.46-.62-1.42.46-2.56l2.29-2.43c.55-.58,1.11-1.18,1.84-1.58.83-.46,1.75-.53,2.45-.21.74.34,1.27,1.13,1.39,2.06.09.72-.04,1.52-.42,2.43ZM79.58,25.66c-.75-.1-1.2-.59-1.46-1.26-.17-.43-.12-1.16,0-1.61.13-.56.4-1.13.95-1.4.53-.27,1.13-.28,1.65.03.44.26.7.71.85,1.19.21.67.16,1.64-.22,2.22-.39.6-1.04.94-1.75.84Z"/>
      <path class="cls-3" d="M81.71,13.33l-.78-2.01-2.08,1.53c-1.17,1.45-2.34,2.9-3.52,4.36.02.1.04.2.08.3.24.74.81,1.33,1.49,1.54.26.08.53.12.8.12,1.13,0,2.23-.71,2.84-1.56.72-1.01,1.07-2.38,1.04-4.1,0-.09.06-.17.15-.19ZM79.97,15.75s0,0,0,0c.15-.1.03-.01-.01.02,0,.01-.02.05-.04.08,0,.02-.01.04-.01.06-.07.3-.39.48-.68.44-.28-.04-.56-.3-.54-.61.03-.39.18-.76.47-1.04.29-.28.75-.25,1,.07.26.33.14.75-.18.98Z"/>
      <path class="cls-14" d="M77.09,8.34l-1.07-.8s-.06.08-.11.09c-.97.3-1.77,1.16-2.15,2.28.47-.2.94-.4,1.4-.62.65-.3,1.29-.63,1.93-.96Z"/>
      <path class="cls-3" d="M68.65,32.2c.52.82,1.83,1.37,3.01,1.37.33,0,.66-.04.95-.14,1.43-.45,2.66-1.72,3.37-3.47.35-.85.48-1.58.39-2.24-.1-.8-.55-1.47-1.17-1.76-.24-.11-.51-.17-.8-.17-.42,0-.88.12-1.31.36-.67.37-1.22.95-1.75,1.51l-2.29,2.43c-.68.72-.82,1.45-.41,2.1ZM71,29.98c.04-.15.12-.29.18-.43.01-.03.03-.05.04-.08.02-.04.04-.09.06-.15.08-.14.17-.28.3-.38.38-.34.82-.58,1.3-.72.56-.16,1.14.15,1.36.67.1.24.12.49.06.75-.06.24-.29.59-.53.69-.06.02-.29.19-.36.2-.04.04-.08.08-.12.12-.08.08-.28.18-.33.26.02-.02.05-.04.08-.06-.02.02-.03.03-.05.05-.18.21-.39.4-.67.45-.43.08-.99-.04-1.19-.48-.14-.3-.21-.56-.13-.89Z"/>
      <path class="cls-13" d="M16.31,39.87c.58-.21,1.14-.47,1.69-.76-.12-.98.03-2.07.5-2.85h0c.8-1.35,2.4-2.2,3.97-2.12.09,0,.16.07.18.15.12.58.24,1.17.31,1.77,5.23-2.85,11.51-3.32,16.78-6.13,1.13-.61,2.2-1.31,3.22-2.07-.05-.02-.08-.06-.1-.11,0,0,0,0,0,0-.03.05-.09.09-.15.1-.97.08-1.94-.69-2.15-1.72-.19-.9.19-1.94.95-2.63.64-.58,1.54-.95,2.59-1.07.87-.1,1.56.04,2.04.42.4.31.63.77.69,1.32.01.14.01.28,0,.43,2.7-2.48,5.31-5.11,8.38-7.1,1.15-.75,2.36-1.39,3.59-1.98-.77-.86-.41-2.63,1.1-2.63.98,0,1.48.75,1.49,1.51,3.9-1.55,8.02-2.67,11.92-4.28.35-1.35,1.26-2.41,2.4-2.81l-5.51-4.11s.03.08.02.13c-.22.98-.45,1.98-.95,2.89-.57,1.03-1.44,1.73-2.38,1.92-.17.04-.35.05-.53.05-1.19,0-2.4-.76-2.98-1.94-.52-1.04-.57-2.34-.15-3.62l-5.68,3.83c.04,3.26-.12,6.61-2.35,8.75-.85.82-1.91,1.35-2.94,1.86-1.53.76-3.27,1.63-5.13,1.67-.04,0-.08,0-.11,0-1.62,0-3.46-.8-4.15-2.37l-11.03,7.45c.78.42,1.63.91,2.25,1.62.47.53.89,1.31.91,2.15.19-.17.41-.32.57-.44.34-.24.81-.05,1.01.27.21.32.08.84-.27,1.01-.12.06-.24.13-.36.2-.05.03-.1.06-.15.1-.02.02-.13.1-.08.06-.17.14-.34.28-.58.28-.18,0-.36-.07-.49-.2-.35.6-.98,1.09-1.75,1.36-.83.29-1.7.33-2.6.34-.1,0-.2,0-.3,0-1.93,0-4.21-.25-5.52-1.8l-14.71,9.93c1.51,1.78,4.33,1.94,6.55,1.15ZM68.71,7.8c.15-.17.38-.22.59-.19.19.03.34.11.46.27.13.17.19.4.13.61-.06.18-.16.32-.32.42-.08.05-.15.1-.23.15-.04.03-.08.05-.12.08-.16.1-.35.11-.53.07-.13-.03-.24-.12-.32-.22-.09-.11-.12-.23-.13-.38-.03-.32.28-.58.48-.81ZM64.06,8.88c.27-.23.56-.35.92-.3.3.04.53.17.71.41.2.26.3.62.2.95-.07.22-.19.39-.35.54.01,0,.02-.02.04-.03-.02.02-.03.04-.05.05,0,0-.01.02-.02.03,0,0,0-.01,0-.02,0,0,0,0,0,0-.03.06-.06.13-.1.19-.21.35-.61.54-1.01.48-.4-.05-.73-.34-.84-.73-.16-.56.07-1.21.51-1.59ZM60.5,7.04c.11-.27.31-.5.56-.64.08-.04.16-.07.25-.1.25-.12.55-.1.81,0,.16.07.28.16.38.28.12.12.2.26.26.41.11.26.15.6.05.87-.02.07-.06.14-.09.2-.05.11-.08.23-.14.34-.06.1-.14.19-.22.28-.17.19-.44.3-.69.33-.22.03-.42,0-.62-.08-.46-.2-.7-.61-.74-1.09-.02-.25.07-.56.17-.8ZM60.09,11.2c.21-.33.63-.42.95-.18.15.12.26.3.25.51,0,.18-.07.32-.19.46-.16.19-.34.47-.6.51-.19.03-.35.02-.51-.1-.16-.12-.21-.27-.23-.46-.03-.26.2-.52.33-.73ZM48.7,19.39c.17-.2.34-.4.52-.6.22-.25.62-.2.84,0,.24.22.22.62,0,.84l-.55.57s-.05.04-.07.06c-.05.04-.1.06-.16.08,0,0-.02,0-.02,0-.02,0-.03,0-.05.01-.14.03-.28.01-.39-.07,0,0,0,0,.01,0-.05-.02-.09-.05-.13-.09-.24-.22-.19-.58,0-.81ZM42.91,20.55s.04-.09.06-.13c.05-.07.1-.14.15-.21.05-.09.12-.16.21-.21.09-.05.19-.08.3-.08.15,0,.31.07.42.17.11.11.17.26.17.42,0,.11-.03.21-.08.3-.05.09-.12.16-.21.21-.07.05-.14.1-.21.15-.11.07-.3.09-.42.06-.09-.03-.17-.08-.24-.14-.09-.08-.14-.2-.15-.32-.02-.07-.01-.15,0-.22ZM39.72,20.14s.02-.03.03-.05c0,0,0-.01,0-.02h.01c.02-.33.2-.62.47-.79.18-.11.4-.14.6-.11.22.03.38.12.54.26.16.14.29.37.35.57.09.32.03.62-.11.91-.1.2-.28.37-.46.49-.26.17-.58.19-.88.12-.28-.07-.5-.28-.61-.54-.11-.25-.12-.6.05-.84ZM36.08,23.6c-.31-.4-.37-.84-.27-1.32.1-.5.49-.94.95-1.15.32-.15.59-.28.96-.26.2.01.41.04.6.11.33.12.58.27.8.55.17.22.26.45.3.73.05.34,0,.68-.18.98-.12.21-.33.43-.55.55-.23.13-.45.24-.71.31-.06.02-.13.03-.19.05-.03.01-.07.03-.1.04-.23.07-.47.06-.69-.02,0,0-.01,0-.02,0-.03,0-.07-.01-.1-.02,0,0-.02,0-.02,0h0c-.31-.09-.59-.28-.79-.54ZM29.65,31.63c.07-.12.14-.24.2-.36.2-.35.64-.44.98-.26.16.08.28.26.33.43.03.1.03.19.01.29,0,.1-.03.18-.09.27-.05.13-.11.25-.16.38-.07.17-.27.29-.44.34-.19.06-.4.02-.57-.07-.16-.08-.29-.27-.34-.44-.05-.19-.02-.4.07-.57ZM20.62,32.41c.1-.1.22-.17.35-.21.14-.04.28-.04.43,0,.06.02.11.04.17.06.1.02.18.07.25.13.08.05.14.12.19.21.02.06.05.12.07.18,0,.07.02.13.03.2,0,.1-.02.2-.06.29-.02.06-.05.12-.1.16-.05.08-.12.14-.21.19-.06.02-.12.05-.18.07-.06.02-.11.04-.17.06-.14.04-.28.04-.43,0-.14-.04-.25-.11-.35-.21-.08-.07-.13-.16-.17-.26-.05-.1-.07-.2-.07-.31,0-.22.09-.41.23-.57ZM13.84,36.91c.12-.05.24-.11.35-.16.09-.04.18-.09.27-.12.15-.04.28,0,.42.06.19.08.27.36.22.54-.08.33-.46.44-.73.59-.26.13-.55.06-.71-.19-.14-.22-.06-.6.19-.71Z"/>
      <path class="cls-14" d="M63.74,2.27s0,.03-.01.05c-.54,1.32-.55,2.69-.02,3.76.59,1.2,1.92,1.92,3.09,1.68.83-.17,1.61-.8,2.13-1.73.48-.86.7-1.84.91-2.79.02-.1.12-.16.22-.15l-3.58-2.67-2.73,1.85ZM68.28,3.59c-.05.88-.32,2.21-1.31,2.44-2.24.53-1.89-4.08-.04-4.39,1.11-.19,1.4,1.11,1.35,1.95Z"/>
      <path class="cls-3" d="M67.03,29.19c.09-.36.1-.76.01-1.15-.78,1.18-1.5,2.39-2.15,3.62,1.1-.61,1.88-1.49,2.13-2.47Z"/>
      <path class="cls-3" d="M61.45,44.42l1.97-1.45s-.05-.07-.05-.12c-.08-1.67-.32-3.33-.71-4.95-.04-.15-.08-.3-.12-.44-.2.72-.37,1.45-.5,2.19-.28,1.54-.42,3.16-.59,4.76Z"/>
      <path class="cls-14" d="M47.09,18.37c1.78-.04,3.48-.89,4.97-1.63,1-.5,2.03-1.01,2.84-1.79,2.06-1.98,2.26-5.13,2.24-8.22l-13.98,9.44c.61,1.49,2.39,2.24,3.93,2.2ZM53.81,10.35c.08-.21.28-.35.51-.29.2.05.37.3.29.51-.06.14-.1.29-.11.44-.01.21.01.38-.15.55-.1.11-.29.13-.41.05-.39-.25-.26-.9-.12-1.26ZM51.28,11.85c.27.02.49.08.7.25.1.06.18.15.24.25.04.05.08.1.11.15.06.1.11.24.15.36.11.36.02.73-.03,1.08,0-.03,0-.06.01-.1-.03.19-.09.33-.19.54-.1.22-.35.39-.56.48-.26.11-.5.11-.77.06-.7-.14-1.15-.88-1.15-1.55,0-.78.65-1.59,1.47-1.52ZM49.03,15.8s0-.07.03-.1c.02-.05.04-.09.08-.12.03-.02.05-.04.08-.06,0,0,.02,0,.02,0,.01-.01.02-.03.04-.04.05-.03.1-.05.15-.05.05-.01.11,0,.16,0,.07.02.13.05.18.1l.06.08c.04.06.05.13.05.2,0,0,0,0,0,0,0,.03,0,.06-.01.09,0,0,0,0,0,.02,0,0,0,0,0,0,0,0,0,0,0,0,0,0,0,0,0,0v-.02s-.03.11-.04.13c-.01.02-.05.07-.07.08-.05.05-.13.09-.19.11-.02,0-.09.01-.11.01,0,0,0,0,0,0-.04,0-.08,0-.12-.02,0,0,0,0,0,0,0,0,0,0,0,0-.03-.01-.06-.03-.09-.04-.03-.02,0,.02-.08-.06-.05-.05-.08-.11-.1-.17-.02-.05-.02-.1,0-.15ZM47.24,14.66c.02-.08.09-.16.16-.2.07-.04.19-.07.26-.03.08.03.15.06.21.13.09.1.14.22.11.36-.02.1-.09.21-.19.25-.07.03-.13.04-.21.01-.04-.02-.07-.04-.09-.08-.01,0-.02-.02-.03-.03-.07-.02-.14-.08-.18-.15-.05-.08-.05-.17-.03-.26Z"/>
      <path class="cls-14" d="M42.66,27.45s.01,0,.02,0c.09,0,.16.06.18.14.02-.04.06-.07.11-.09.25-.08.52-.17.8-.27.89-.71,1.75-1.46,2.6-2.22.07-.27.1-.54.07-.81-.03-.31-.15-.75-.54-1.06-.4-.31-.99-.43-1.76-.34-.68.08-1.64.31-2.38.97-.67.61-1,1.5-.84,2.27.17.83.97,1.48,1.74,1.41ZM42.67,24.4c.25-.03.55.12.6.39,0,.03,0,.05.01.08.15,0,.29.09.35.23.08.18,0,.38-.16.49-.14.09-.3.15-.47.16-.11.05-.23.05-.36.03-.11-.02-.22-.11-.29-.2-.08-.1-.11-.21-.12-.34-.01-.1-.02-.21-.03-.31-.03-.27.23-.5.47-.54Z"/>
      <path class="cls-14" d="M30.29,30.2c.87-.01,1.71-.04,2.48-.32.84-.3,1.48-.88,1.71-1.56,0,0,0,0,0-.01,0-.04.02-.08.03-.12.2-.78-.08-1.74-.74-2.49-.63-.71-1.49-1.18-2.33-1.63l-6.66,4.5c1.28,1.49,3.6,1.66,5.5,1.63ZM29.22,26.41c.63-.3,1.21-.45,1.91-.34.67.11,1.15.53,1.49,1.09.21.34.15.77-.08,1.08-.26.34-.62.4-1.02.35-.2-.03-.67-.06-.99-.13-.34-.08-.52-.13-.8-.13-.98.01-1.47-1.47-.52-1.92Z"/>
      <path class="cls-14" d="M19.98,37.64c0-.35.14-.72.41-.96.2-.18.42-.26.68-.22.22.03.39.13.53.31.02.02.03.04.04.06.31-.19.62-.39.94-.57-.06-.59-.18-1.17-.29-1.75-1.38-.02-2.76.75-3.47,1.94h0c-.4.67-.55,1.6-.47,2.46.57-.32,1.12-.67,1.66-1.03-.03-.08-.04-.16-.04-.24Z"/>
      <path class="cls-17" d="M12.51,57.77c1.26,1.22,1.71,2.89,1.87,4.09,1.15.61,2.38,1.07,3.66,1.32.08.02.17.03.25.05l-1.86-4.76-3.68-3.01-1.9-1.55c-.43.12-.87.18-1.32.18-1.03,0-2.07-.31-2.9-.91-.23-.17-.45-.35-.65-.56.71,1.39,1.51,2.73,2.44,3.98,1.35-.38,2.96.07,4.09,1.17Z"/>
      <path class="cls-17" d="M4.55,49.21c0-.14.01-.28.04-.42l-.36-.29c.1.32.21.64.33.95,0-.08,0-.16-.01-.24Z"/>
      <path class="cls-7" d="M13.95,61.62c-.18-1.11-.63-2.53-1.71-3.58-.99-.96-2.38-1.38-3.57-1.11.48.62.99,1.22,1.54,1.78,1.1,1.13,2.37,2.13,3.74,2.91Z"/>
      <path class="cls-7" d="M6.84,52.86c1.03.74,2.39,1.01,3.63.74l-5.54-4.53s0,.09,0,.13c.02,1.42.76,2.82,1.91,3.65Z"/>
      <path class="cls-12" d="M59.9,12.88c-1.5,0-1.87,1.77-1.1,2.63-1.24.58-2.44,1.23-3.59,1.98-3.07,1.99-5.68,4.62-8.38,7.1-.04.58-.28,1.17-.66,1.6-.81.93-2.07,1.34-3.08,1.68-.02,0-.04,0-.06,0-.03,0-.06,0-.08-.02-1.02.76-2.09,1.47-3.22,2.07-5.26,2.81-11.55,3.29-16.78,6.13.06.51.09,1.03.06,1.56-.09,1.29-.58,2.39-1.38,3.08-.71.61-1.29.8-1.74.8s-.76-.19-.97-.36c-.5-.42-.81-1.19-.92-2.03-.54.29-1.1.55-1.69.76-2.22.8-5.04.63-6.55-1.15l-5.24,3.54c1.12,2.04,2.82,3.73,4.88,4.45.65.23,1.33.35,2.05.37,3.65.07,6.61-2.77,9.88-4.4,2.55-1.27,5.35-1.81,8.16-2.36-.04-.11-.07-.22-.1-.35-.23-.88-.3-1.88-.26-2.48.05-.78.35-1.58.81-2.19.51-.67,1.2-1.09,1.94-1.18,1.15-.13,2.38.59,2.92,1.71.46.95.46,2.14,0,3.23.52-.16,1.03-.35,1.53-.55,1.83-.74,3.51-1.76,5.14-2.88.45-1.32,1.23-2.72,2.33-4.18.75-1,1.68-2.11,2.9-2.85,1.31-.79,2.81-1,4.01-.57.54.2,1.01.53,1.37.94,2.23-.88,4.58-1.44,6.93-2.01l14.74-10.82.66-.49c-.1-.08-.19-.17-.25-.24-.39-.39-.55-.92-.68-1.39-.39-1.54-.45-2.76-.18-3.86,0-.02,0-.04.01-.05-3.89,1.61-8.01,2.74-11.92,4.28-.01-.76-.51-1.51-1.49-1.51ZM10.95,43.16c-.15.28-.51.34-.77.2-.15-.08-.3-.16-.44-.23-.29-.16-.36-.54-.21-.81.07-.13.22-.24.36-.27.13-.04.34-.03.46.06.14.1.27.2.41.29.25.18.35.48.2.77ZM14.81,42.92c-.07.05-.13.09-.22.1-.05,0-.1,0-.15-.02-.07-.02-.14-.04-.21-.06-.16-.05-.25-.21-.21-.37.03-.15.22-.27.37-.21.07.03.14.05.2.08.13.05.23.11.27.26.02.08,0,.18-.06.24ZM39.8,34.18c-.06.34-.36.52-.62.71l-.42.3c-.38.27-.91.05-1.13-.3-.11-.18-.14-.44-.08-.64.06-.22.2-.37.38-.49l.42-.3c.07-.05.14-.11.21-.15.22-.14.45-.13.7-.09.2.03.37.2.47.36.12.18.11.4.08.61ZM51.82,22.8c-.07.29-.27.51-.46.73-.14.16-.29.32-.43.48-.3.34-.84.28-1.15,0-.31-.29-.32-.87,0-1.15.16-.14.32-.29.48-.43.22-.19.44-.39.73-.46.51-.12.96.33.84.84ZM54.1,20.89c0,.09-.04.16-.09.22-.05.05-.12.08-.18.11-.15.08-.32.04-.42-.11-.08-.13-.03-.34.11-.42.06-.03.13-.07.19-.09.1-.03.2,0,.28.06.06.04.11.11.11.19,0,.01,0,.03,0,.04ZM63.98,19.71c.18-.13.35-.27.53-.39.12-.08.25-.12.38-.16-.12-1.04.77-2.02,1.45-2.71.97-.98,2.06-1.78,3.13-2.64.96-.77,2.16.4,1.36,1.36-.88,1.05-1.7,2.13-2.7,3.06-.66.61-1.57,1.43-2.52,1.43-.02.03-.03.06-.06.09-.15.19-.28.37-.48.51-.18.12-.37.23-.55.35-.24.15-.58.05-.72-.19-.15-.26-.04-.55.19-.72ZM62.46,18.43c-.12.58-.5,1.06-.88,1.49-.13.15-3.07,3.42-5.01,3.42-.1,0-.2,0-.29-.03-.5-.1-.86-.45-1.08-1.04-.34-.97.23-2.11,1.66-3.3,1.07-.89,2.48-1.68,3.33-2.04.46-.19,1.05-.38,1.58-.13.61.29.81,1.04.68,1.63Z"/>
      <path class="cls-9" d="M19.17,40.84c.71.6,1.59.09,2.21-.44.98-.84,1.2-2.12,1.25-2.81.03-.44,0-.89-.04-1.33-.32.18-.63.37-.94.57.22.34.14.76-.14,1.03-.03.19-.2.36-.36.46-.14.09-.33.11-.5.09-.3-.04-.54-.25-.63-.53-.55.36-1.1.71-1.66,1.03.07.81.35,1.55.81,1.94Z"/>
      <path class="cls-9" d="M34.29,39.21s.04-.08.06-.12c.5-1.03.53-2.18.09-3.09-.47-.98-1.54-1.61-2.53-1.5-1.4.16-2.32,1.66-2.41,3.01-.05.73.06,1.84.36,2.72,1.49-.29,2.98-.6,4.42-1.03ZM31.43,36.59c.1-.51.69-.76,1.15-.65.51.12.76.67.65,1.15-.08.37-.12.88-.34,1.19-.22.3-.51.48-.89.42-.33-.04-.67-.3-.74-.64-.1-.48.07-1,.17-1.47Z"/>
      <path class="cls-9" d="M45.88,25.94c.23-.26.4-.59.49-.93-.85.77-1.71,1.52-2.6,2.22.77-.28,1.56-.66,2.11-1.29Z"/>
      <path class="cls-9" d="M44.63,32.49c.1-.59.41-1.18.7-1.69.36-.64,1.23-.86,1.86-.49.36.21.55.52.62.87.96-.61,1.94-1.17,2.96-1.65.3-.14.6-.27.91-.4-.3-.32-.68-.58-1.11-.73-.37-.14-.78-.2-1.2-.2-.82,0-1.69.25-2.49.73-1.16.71-2.06,1.79-2.79,2.76-.94,1.24-1.63,2.43-2.08,3.57.87-.61,1.73-1.24,2.59-1.87-.03-.3-.02-.62.03-.9Z"/>
      <path class="cls-9" d="M61.61,17.15c-.39-.18-.88-.02-1.26.14-.83.35-2.19,1.11-3.23,1.98-.9.75-1.91,1.86-1.55,2.88.17.46.42.72.79.79.07.01.15.02.23.02,1.45,0,3.87-2.34,4.72-3.29.35-.39.69-.82.79-1.32.09-.43-.04-1-.48-1.21ZM59.44,20.57s-.03.07-.04.11c-.08.71-1.06,1.13-1.65,1.37-.38.16-.84-.17-.94-.53-.11-.42.14-.8.53-.94.22-.08.43-.18.65-.32.25-.16.49-.34.78-.32,0,0,.02,0,.03,0,.36-.11.77.27.64.64Z"/>
      <path class="cls-9" d="M75.16,9.3c-.46.22-.93.42-1.4.62-.04.11-.07.22-.1.34-.26,1.03-.2,2.19.18,3.67.11.42.25.9.57,1.21.11.11.21.2.31.28l5.98-4.39-3.61-2.69c-.64.33-1.28.65-1.93.96ZM77.08,11.51c-.13.1-.26.2-.39.3-.06.05-.13.11-.19.15-.13.07-.27.07-.41.04-.17-.04-.28-.21-.29-.37,0-.16.05-.3.16-.41.05-.05.11-.1.16-.15.12-.11.24-.22.36-.34.22-.2.56-.19.74.05.2.26.09.55-.14.73Z"/>
      <path class="cls-16" d="M34.78,39.06c-.03.07-.06.13-.09.2-.44.92-2.06,2.76-3.47,2.76-.14,0-.28-.02-.42-.06-.57-.17-1.02-.74-1.33-1.65-2.81.55-5.61,1.09-8.16,2.36-3.27,1.63-6.22,4.47-9.88,4.4-.72-.01-1.4-.14-2.05-.37-2.06-.72-3.76-2.41-4.88-4.45l-4.01,2.71,4.2,3.44c.22-.5.61-.93,1-1.19.75-.49,1.61-.53,2.2-.47,1.45.13,2.8.94,3.6,2.16.81,1.23.09,3.44-.35,4.78l1.81,1.48,3.61,2.95,5.18-3.81c-.3-.85-1.05-1.96-1.67-2.89-.27-.4-.52-.77-.69-1.06-.39-.66-1.21-2.34-.43-3.78.69-1.27,2.24-1.67,3.65-1.94,1.17-.23,2.62-.51,3.92-.04.87.31,1.59.94,2.23,1.49.35.3.81.58,1.24.85.32.2.65.4.95.62l10.27-7.54s-.02-.07-.03-.11c-.35-1.32-.26-2.75.26-4.27-1.63,1.12-3.31,2.14-5.14,2.88-.5.2-1.02.39-1.53.55Z"/>
      <path class="cls-16" d="M52.8,31.37c-.01.06-.02.11-.03.17l6.23-4.58c-2.35.57-4.7,1.13-6.93,2.01.59.67.89,1.56.73,2.4Z"/>
      <path class="cls-18" d="M11.2,49.12c-.73-1.11-2-1.87-3.32-1.99-.12-.01-.24-.02-.36-.02-.61,0-1.17.15-1.59.43-.37.24-.73.65-.9,1.12l5.83,4.77c.42-1.28,1.02-3.27.34-4.31ZM9.24,49.34c-.08.22-.16.42-.4.52-.37.16-.73.15-1.05-.13-.24-.22-.48-.42-.68-.68-.04-.05-.07-.1-.11-.15-.17-.12-.27-.31-.27-.56,0-.4.33-.72.72-.78.63-.08,1.16.55,1.56.94.21.2.32.56.22.84Z"/>
      <path class="cls-18" d="M28.52,46.37c-.64-.56-1.31-1.13-2.11-1.42-1.2-.43-2.59-.16-3.72.06-1.32.26-2.77.62-3.38,1.75-.69,1.26.07,2.8.43,3.4.17.29.42.65.68,1.05.61.9,1.33,1.98,1.67,2.86l8.55-6.28c-.26-.18-.55-.36-.82-.53-.45-.28-.92-.56-1.3-.89ZM25.48,48.86c-.11.41-.55.8-.99.76-1.19-.11-2.34-.87-2.73-2.04-.2-.61.44-1.21,1.03-1.03.76.23,1.58.67,2.22,1.15.37.28.6.69.47,1.16Z"/>
      <path class="cls-18" d="M30.92,41.59c.1.03.21.04.31.04,1.13,0,2.57-1.54,3.06-2.43-1.45.43-2.93.73-4.42,1.03.23.67.58,1.22,1.05,1.36Z"/>
      <path class="cls-18" d="M51.68,29.12c-.31.13-.61.26-.91.4-1.03.48-2.01,1.04-2.96,1.65.06.32,0,.67-.13.99-.17.39-.34,1.11-.52,1.54-.25.6-.84,1.18-1.6.97-.63-.17-.89-.71-.95-1.3-.86.62-1.72,1.26-2.59,1.87-.65,1.63-.8,3.14-.44,4.52l7.67-5.63c-.08-.03-.16-.07-.23-.13-.21-.2-.21-.58,0-.77.08-.08.16-.15.25-.23.09-.09.19-.16.31-.2.05-.02.09-.03.14-.04.32-.1.65.23.55.55-.01.03-.02.07-.03.1l2.06-1.52c.05-.19.1-.39.14-.59.14-.76-.17-1.57-.74-2.18Z"/>
      <path class="cls-1" d="M64.04,32.47s-.04.01-.06.01c-.03,0-.06,0-.09-.02-.06,0-.11-.04-.14-.09-.14-.22-.29-.44-.45-.68-.6-.89-1.29-1.9-1.13-2.97.22-1.46,1.28-3.01,2.83-3.01h0c.69,0,1.34.34,1.82.96.22.29.39.61.5.95,1.79-2.68,3.84-5.24,5.85-7.73.62-.77,1.24-1.53,1.85-2.29-.17-.55-.16-1.11.04-1.58-.12-.01-.23-.06-.34-.12l-.77.56-11.87,8.72c-2.36,2.25-4.63,4.64-7.08,6.78-1.35,1.18-2.79,2.32-3.84,3.76-.29.4-.55.82-.77,1.27-.74,1.53-.92,3.25-1.21,4.92-.96,5.51-3.2,10.8-6.5,15.32-.54.74-1.12,1.47-1.67,2.21l15.97-11.73c-.36-3.23-.01-6.57,1.01-9.65.24-.72.54-1.47,1.07-2.04.62-.66,1.49-.93,2.22-.71.74.23,1.17.86,1.45,1.54.49-1.58,1.12-3.11,1.87-4.59-.18.08-.37.16-.56.22ZM51.59,48.59s0,0,0,0c0,0,0,0-.01,0,0,0,0,0,0,0-.02.02-.04.03-.05.05-.02.02-.05.05-.07.07.02-.03.04-.06.06-.08-.07.05-.12.17-.19.25,0,0,0,0,0,.01-.02.05-.06.11-.09.16-.21.29-.48.49-.86.49-.32,0-.72-.18-.86-.49-.18-.4-.2-.75-.13-1.18.05-.34.27-.63.49-.88.43-.48,1.03-.71,1.66-.76.66-.06,1.15.59,1.18,1.18.03.64-.53,1.11-1.12,1.17ZM54.37,42.33c-.27,1.26-.66,2.35-1.64,3.21-.14.13-.37,0-.32-.19.28-1.12.75-2.16,1-3.29.14-.63,1.1-.36.96.26ZM57.99,33.99c-.09.34-.28.59-.52.77-.41,1.34-1.03,3.7-2.47,3.12-.9-.36-.96-1.59-.81-2.41.13-.73.46-1.39.83-2.02.12-1.02,1.17-1.84,2.26-1.2.59.34.89,1.08.71,1.74Z"/>
      <path class="cls-11" d="M62.05,39.65c.14-.74.3-1.47.5-2.19-.31-1.04-.76-1.61-1.38-1.8-.67-.21-1.4.16-1.82.61-.49.51-.76,1.22-.99,1.9-.98,2.96-1.33,6.16-1.02,9.27l4.11-3.02c.17-1.6.31-3.22.59-4.76ZM59.72,39.89s0,0,0,0c0,0,0,0,0,0,0,.01-.01.03-.02.04-.01.02-.02.05-.04.09-.03.06-.06.11-.11.15-.02.04-.05.1-.02.03,0,0,0,0,0,0-.11.26-.45.45-.72.26-.27-.19-.48-.46-.49-.81,0-.34.18-.66.39-.91.3-.35.88-.26,1.14.08.14.18.21.44.14.67-.05.16-.14.28-.26.38ZM60.88,42.2c-.12.3-.19.6-.48.77-.23.14-.53,0-.61-.25-.09-.3.05-.56.15-.84.1-.27.19-.53.29-.8.09-.26.34-.43.63-.36.24.07.46.37.36.63-.11.28-.22.56-.34.84Z"/>
      <path class="cls-11" d="M65.01,26.09h0c-1.28,0-2.26,1.37-2.45,2.69-.14.92.48,1.82,1.07,2.7.14.21.27.4.39.6.31-.12.61-.25.88-.4.65-1.24,1.37-2.44,2.15-3.62-.09-.41-.26-.81-.52-1.14-.4-.52-.94-.81-1.51-.81Z"/>
      <path class="cls-11" d="M75.09,15.62c.09.02.17,0,.24-.06.07-.06.18-.06.25.01.07.07.08.17.02.25-.27.38-.37.88-.27,1.39,1.17-1.45,2.34-2.9,3.52-4.36l-3.76,2.76Z"/>
      <path class="cls-2" d="M49.19,41.9c.29-1.67.47-3.4,1.21-4.92.22-.45.48-.87.77-1.27,1.04-1.43,2.49-2.58,3.84-3.76,2.45-2.14,4.72-4.53,7.08-6.78l-9.47,6.96c-.45,1.52-1.34,2.74-2.28,4.02-.44.6-.89,1.21-1.29,1.87-.44.7-.89,1.43-1.41,2.1-.56.72-1.16,1.34-1.8,1.84-.6.47-1.13.75-1.65.86-.11.02-.22.03-.33.03-1.17,0-2.07-1.32-2.49-2.45l-10.08,7.4s.02.02.03.03c.04.04.07.09.07.15-.06,1.58.09,3.15.46,4.69.07.29.15.59.23.88.24.9.49,1.82.5,2.77.02,1.3-.4,2.6-1.22,3.78-.77,1.1-1.86,2.02-3.08,2.59-.67.31-1.24.47-1.76.47-.14,0-.28-.01-.42-.03-1.32-.22-2.17-1.43-2.64-2.41-.91-1.88-1.24-3.96-1.56-5.97,0-.01,0-.03,0-.04l-5.06,3.72,2.04,5.23c1.29-.09,2.71-.15,3.37,1.02.68,1.22-.52,1.97-1.59,2.64-.09.06-.19.12-.28.18l2.16,5.53,18.5-13.59c.56-.74,1.13-1.47,1.67-2.21,3.3-4.52,5.55-9.81,6.5-15.32ZM40.99,56.18c-.43.17-.84.25-1.23.25-.59,0-1.13-.19-1.59-.58-1.27-1.07-1.69-3.43-1.36-5.1.28-1.41,1.11-2.97,2.59-3.12.84-.08,1.76.35,2.57,1.23,1.19,1.29,1.73,3.12,1.37,4.67-.2.87-.77,2.03-2.35,2.65Z"/>
      <path class="cls-5" d="M21.9,64.86c-.52-.93-1.7-.91-2.89-.83l1.21,3.1c.07-.05.15-.09.22-.14,1.22-.77,1.93-1.29,1.46-2.13Z"/>
      <path class="cls-5" d="M22.27,54.68c.31,1.98.64,4.03,1.52,5.86.44.9,1.2,2.01,2.36,2.2.56.09,1.18-.04,1.96-.4,2.49-1.17,4.13-3.59,4.08-6.02-.02-.9-.26-1.81-.49-2.68-.08-.29-.16-.59-.23-.89-.37-1.54-.53-3.12-.47-4.7-.01,0-.02-.02-.03-.02l-8.74,6.42c.02.08.04.15.05.23ZM26.15,53.88c.03-.65.84-.86,1.2-.32.81,1.23,1.85,3.04,1.22,4.52-.17.39-.82.55-1.16.31-1.29-.93-1.32-3.05-1.26-4.5Z"/>
      <path class="cls-5" d="M39.44,48.01c-1.27.13-2.01,1.6-2.25,2.81-.31,1.56.06,3.75,1.23,4.73.65.55,1.47.64,2.43.27,1.42-.55,1.94-1.6,2.12-2.37.33-1.41-.19-3.15-1.28-4.33-.42-.46-1.28-1.21-2.25-1.11ZM40.06,53.25c-.4.05-.91-.2-.99-.65-.09-.5-.1-1.01-.14-1.51-.04-.5.44-.88.9-.9.52-.02.85.43.9.9.04.42.11.85.11,1.27,0,.45-.34.83-.78.88Z"/>
      <path class="cls-5" d="M49.7,32.76s-.09.03-.14.04c-.12.04-.22.11-.31.2-.08.08-.16.15-.25.23-.21.2-.21.58,0,.77.07.06.15.1.23.13l.99-.73s.02-.07.03-.1c.1-.32-.23-.65-.55-.55Z"/>
      <path class="cls-5" d="M45.81,39.83s-.07-.09-.1-.14c.01.02.04.07.1.14Z"/>
      <path class="cls-5" d="M43.86,42.46c.08,0,.16,0,.24-.03.47-.1.94-.35,1.49-.78.61-.48,1.2-1.08,1.73-1.78.5-.65.95-1.37,1.38-2.06.41-.67.87-1.29,1.31-1.89.81-1.11,1.58-2.16,2.05-3.4l-10.4,7.64c.38,1.09,1.2,2.3,2.18,2.3ZM45.71,39.03c.11-.25.28-.49.49-.67.32-.29.8-.28,1.07.07.26.34.16.83-.2,1.05,0,0-.03.02-.05.03,0,0,0,0-.03.03-.01.01-.02.02-.03.03,0,0-.06.08-.09.09,0,0-.01.02-.02.02-.1.14-.25.28-.42.31-.25.15-.61.05-.69-.26,0-.03-.01-.05-.02-.06-.11-.2-.1-.43,0-.66Z"/>
      <path class="cls-10" d="M8.17,56.68c.08-.03.16-.06.25-.08-.93-1.25-1.74-2.59-2.44-3.98-.82-.85-1.34-1.99-1.42-3.17-.12-.31-.23-.63-.33-.95l-3.59-2.94,5.44,13.92c.02-.36.11-.73.28-1.09.36-.79,1.05-1.43,1.82-1.72Z"/>
      <path class="cls-10" d="M14.37,61.85s0,.03,0,.05c.19,1.51.04,3.03-.11,4.5l7.71,6.3-1.95-5s-.07.05-.1.07c-.03.02-.07.03-.11.03,0,0,0,0-.01,0-.86-.05-1.67-.57-2.18-1.39-.51-.82-.61-1.78-.27-2.57.03-.07.09-.11.17-.12l.52-.02c.14,0,.28-.02.42-.03l-.18-.46c-.08-.02-.17-.03-.25-.05-1.28-.26-2.51-.72-3.66-1.32Z"/>
      <path class="cls-15" d="M7.77,60.21c.27-.35.72-.41,1.1-.22.21.11.43.22.64.36.65,0,1.3.25,1.74.73.64.7.02,1.85-.93,1.6-.36-.09-.71-.23-1.05-.37l4.65,3.8c.14-1.37.26-2.79.08-4.17-.01-.11-.03-.21-.05-.33-1.37-.78-2.63-1.78-3.74-2.91-.55-.56-1.06-1.16-1.54-1.78-.12.03-.25.06-.37.11-.68.25-1.28.82-1.61,1.52-.23.49-.3,1.01-.21,1.48l1.13.93c-.06-.26,0-.56.15-.76Z"/>
      <path class="cls-15" d="M17.66,64.11c-.24.65-.13,1.43.29,2.11.43.69,1.1,1.14,1.81,1.21.04-.03.08-.06.13-.08l-.73-1.86s0,0,0,0c-.03.1-.06.2-.09.3-.05.18-.24.28-.42.24-.17-.04-.3-.25-.24-.42.04-.1.07-.2.11-.3.07-.17.22-.27.4-.23.03,0,.06.02.09.04l-.41-1.06c-.18.01-.37.03-.55.03l-.39.02Z"/>
      <path class="cls-2" d="M57.28,32.25c-1.09-.64-2.14.18-2.26,1.2-.38.63-.7,1.3-.83,2.02-.15.82-.09,2.05.81,2.41,1.44.58,2.06-1.78,2.47-3.12.24-.18.43-.43.52-.77.18-.66-.12-1.4-.71-1.74Z"/>
      <path class="cls-2" d="M53.41,42.06c-.26,1.12-.72,2.17-1,3.29-.05.2.18.31.32.19.98-.86,1.37-1.95,1.64-3.21.14-.62-.82-.89-.96-.26Z"/>
      <path class="cls-1" d="M81.56,22.6c-.15-.48-.41-.93-.85-1.19-.52-.3-1.12-.3-1.65-.03-.55.27-.81.84-.95,1.4-.11.46-.16,1.18,0,1.61.27.67.71,1.16,1.46,1.26.72.1,1.36-.24,1.75-.84.38-.58.43-1.55.22-2.22Z"/>
      <path class="cls-1" d="M74.05,23.77c.39-.11.66-.42.94-.68.33-.3.33-.9,0-1.2-.16-.15-.37-.26-.6-.25-.21,0-.46.08-.6.25-.09.12-.18.23-.28.35-.16.2-.32.38-.37.64-.05.26,0,.52.19.71s.46.26.71.19Z"/>
      <path class="cls-1" d="M69.76,35.92c-.03-.09-.08-.16-.15-.23-.05-.04-.1-.07-.14-.11l-.17-.07c-.06,0-.12-.02-.19-.03-.06,0-.12.02-.19.03l-.17.07c-.08.04-.15.1-.2.18-.04.04-.07.1-.09.16-.04.08-.06.17-.06.27,0,.04,0,.07,0,.11,0,.08.01.16.05.23.02.07.07.14.12.19.04.03.08.06.12.09.09.05.19.08.3.08.04,0,.07,0,.11,0,.06,0,.12-.02.19-.03.06-.02.11-.05.17-.07.08-.04.15-.1.2-.18.04-.04.07-.1.09-.16.03-.05.05-.11.05-.18.02-.06.02-.12,0-.19,0-.06-.02-.12-.05-.18Z"/>
      <path class="cls-2" d="M51.53,46.25c-.63.05-1.23.28-1.66.76-.22.25-.44.54-.49.88-.07.43-.05.77.13,1.18.14.31.54.49.86.49.37,0,.65-.2.86-.49.03-.05.07-.1.09-.16,0,0,0,0,0-.01.07-.08.12-.2.19-.25-.02.02-.04.05-.06.08.02-.03.04-.05.07-.07.01-.01.03-.03.05-.05,0,0,0,0,0,0,0,0,0,0,.01,0,0,0,0,0,0,0,.59-.06,1.15-.53,1.12-1.17-.03-.59-.52-1.24-1.18-1.18Z"/>
      <path class="cls-16" d="M64.51,20.61c.18-.12.37-.23.55-.35.21-.14.33-.32.48-.51.02-.03.04-.06.06-.09.96,0,1.87-.82,2.52-1.43,1-.94,1.82-2.02,2.7-3.06.8-.96-.4-2.13-1.36-1.36-1.07.86-2.16,1.66-3.13,2.64-.68.69-1.58,1.67-1.45,2.71-.13.04-.26.09-.38.16-.18.12-.35.26-.53.39-.23.17-.34.45-.19.72.14.24.48.34.72.19Z"/>
      <path class="cls-16" d="M50.98,21.96c-.29.07-.51.27-.73.46-.16.14-.32.29-.48.43-.32.29-.31.86,0,1.15.31.28.85.34,1.15,0,.14-.16.29-.32.43-.48.19-.22.39-.44.46-.73.12-.51-.33-.96-.84-.84Z"/>
      <path class="cls-16" d="M54,20.66c-.08-.05-.18-.09-.28-.06-.07.02-.13.06-.19.09-.14.07-.19.28-.11.42.09.15.26.19.42.11.06-.03.14-.06.18-.11.06-.06.09-.14.09-.22,0-.01,0-.03,0-.04,0-.08-.05-.15-.11-.19Z"/>
      <path class="cls-16" d="M39.26,33.22c-.25-.04-.48-.04-.7.09-.07.05-.14.1-.21.15l-.42.3c-.18.13-.32.27-.38.49-.05.2-.03.46.08.64.22.35.75.56,1.13.3l.42-.3c.26-.19.56-.36.62-.71.03-.2.04-.42-.08-.61-.1-.16-.27-.33-.47-.36Z"/>
      <path class="cls-16" d="M10.75,42.39c-.14-.1-.27-.2-.41-.29-.12-.09-.32-.1-.46-.06-.14.04-.29.14-.36.27-.15.27-.08.66.21.81.15.08.3.16.44.23.26.14.62.07.77-.2.15-.29.05-.58-.2-.77Z"/>
      <path class="cls-16" d="M14.6,42.43c-.07-.03-.14-.05-.2-.08-.15-.06-.34.06-.37.21-.04.16.05.33.21.37.07.02.14.04.21.06.05.01.1.03.15.02.09,0,.15-.04.22-.1.07-.05.08-.16.06-.24-.04-.15-.14-.21-.27-.26Z"/>
      <path class="cls-12" d="M36.87,24.14s.02,0,.02,0c.03,0,.07.02.1.02,0,0,.01,0,.02,0,.22.08.46.09.69.02.04-.01.07-.03.1-.04.06-.02.13-.03.19-.05.25-.07.48-.18.71-.31.22-.12.43-.34.55-.55.17-.3.23-.64.18-.98-.04-.28-.13-.51-.3-.73-.21-.28-.46-.43-.8-.55-.19-.07-.4-.1-.6-.11-.37-.02-.64.11-.96.26-.46.21-.85.65-.95,1.15-.1.49-.03.93.27,1.32.2.26.48.45.79.54h0Z"/>
      <path class="cls-12" d="M40.28,21.53c.3.07.62.06.88-.12.19-.12.36-.29.46-.49.14-.29.2-.59.11-.91-.06-.21-.18-.43-.35-.57-.16-.14-.33-.23-.54-.26-.2-.03-.43,0-.6.11-.27.17-.45.47-.47.78h-.01s0,.03,0,.04c0,.02-.02.03-.03.05-.17.24-.15.58-.05.84.11.26.33.48.61.54Z"/>
      <path class="cls-12" d="M29.92,32.65c.17.09.38.14.57.07.17-.06.37-.17.44-.34.05-.13.11-.25.16-.38.05-.08.08-.17.09-.27.02-.1.02-.19-.01-.29-.05-.17-.17-.35-.33-.43-.34-.18-.78-.09-.98.26-.07.12-.14.24-.2.36-.1.17-.13.38-.07.57.05.17.18.36.34.44Z"/>
      <path class="cls-12" d="M20.62,33.54c.1.1.22.17.35.21.14.04.28.04.43,0,.06-.02.11-.04.17-.06.06-.02.12-.05.18-.07.09-.05.16-.11.21-.19.05-.05.08-.1.1-.16.05-.09.07-.18.06-.29,0-.07-.02-.13-.03-.2-.02-.06-.05-.12-.07-.18-.05-.09-.11-.16-.19-.21-.07-.07-.16-.11-.25-.13-.06-.02-.11-.04-.17-.06-.14-.04-.28-.04-.43,0-.14.04-.25.11-.35.21-.14.16-.23.35-.23.57,0,.11.02.21.07.31.03.1.09.19.17.26Z"/>
      <path class="cls-12" d="M61.06,8.93c.2.09.4.11.62.08.25-.03.52-.14.69-.33.07-.09.16-.18.22-.28.06-.1.1-.23.14-.34.03-.07.06-.13.09-.2.1-.27.05-.61-.05-.87-.07-.15-.15-.29-.26-.41-.1-.12-.22-.21-.38-.28-.25-.11-.55-.12-.81,0-.08.02-.17.05-.25.1-.26.14-.45.37-.56.64-.1.23-.19.55-.17.8.04.49.27.9.74,1.09Z"/>
      <path class="cls-12" d="M59.99,12.39c.16.12.32.14.51.1.26-.05.44-.32.6-.51.12-.13.18-.28.19-.46,0-.2-.1-.39-.25-.51-.31-.24-.74-.14-.95.18-.13.21-.36.47-.33.73.02.19.07.34.23.46Z"/>
      <path class="cls-12" d="M68.37,8.98c.08.1.19.19.32.22.18.04.36.03.53-.07.04-.02.08-.05.12-.08.08-.05.15-.1.23-.15.16-.11.27-.24.32-.42.07-.21,0-.44-.13-.61-.12-.15-.27-.24-.46-.27-.21-.03-.45.03-.59.19-.2.23-.5.49-.48.81.01.14.04.26.13.38Z"/>
      <path class="cls-18" d="M50.96,14.92c.27.05.51.05.77-.06.22-.09.46-.26.56-.48.1-.22.15-.36.19-.54,0,.03,0,.06-.01.1.06-.35.14-.73.03-1.08-.03-.11-.09-.25-.15-.36-.03-.05-.07-.1-.11-.15-.07-.1-.14-.18-.24-.25-.21-.17-.43-.23-.7-.25-.83-.07-1.48.74-1.47,1.52,0,.67.45,1.42,1.15,1.55Z"/>
      <path class="cls-18" d="M47.45,15.06s.02.02.03.03c.02.03.05.06.09.08.07.03.14.02.21-.01.1-.04.17-.15.19-.25.03-.14-.02-.26-.11-.36-.06-.07-.13-.1-.21-.13-.08-.03-.19,0-.26.03-.07.04-.14.12-.16.2-.02.09-.02.18.03.26.04.06.1.12.18.15Z"/>
      <path class="cls-18" d="M29.74,28.33c.28,0,.46.05.8.13.31.07.79.1.99.13.4.05.76,0,1.02-.35.23-.3.29-.74.08-1.08-.35-.56-.82-.99-1.49-1.09-.7-.11-1.28.04-1.91.34-.95.45-.46,1.93.52,1.92Z"/>
      <path class="cls-18" d="M66.97,6.03c.99-.24,1.26-1.56,1.31-2.44.05-.84-.25-2.14-1.35-1.95-1.85.31-2.2,4.92.04,4.39Z"/>
      <path class="cls-18" d="M42.23,25.24c.01.13.04.23.12.34.07.09.18.18.29.2.13.02.25.01.36-.03.17-.02.33-.07.47-.16.16-.11.24-.3.16-.49-.06-.14-.2-.23-.35-.23,0-.03,0-.05-.01-.08-.05-.27-.35-.42-.6-.39-.25.03-.5.27-.47.54.01.1.02.21.03.31Z"/>
      <path class="cls-5" d="M47.19,30.3c-.63-.37-1.5-.15-1.86.49-.29.52-.6,1.11-.7,1.69-.05.28-.06.59-.03.9.07.58.32,1.12.95,1.3.76.21,1.35-.37,1.6-.97.18-.43.35-1.15.52-1.54.14-.32.19-.67.13-.99-.07-.35-.26-.66-.62-.87Z"/>
      <path class="cls-5" d="M25.01,47.7c-.64-.48-1.46-.92-2.22-1.15-.59-.18-1.23.42-1.03,1.03.39,1.17,1.54,1.92,2.73,2.04.44.04.88-.35.99-.76.13-.47-.1-.89-.47-1.16Z"/>
      <path class="cls-4" d="M27.41,58.37c.34.25,1,.09,1.16-.31.63-1.48-.41-3.29-1.22-4.52-.36-.53-1.17-.33-1.2.32-.07,1.45-.03,3.56,1.26,4.5Z"/>
      <path class="cls-4" d="M39.83,50.2c-.46.02-.94.4-.9.9.04.5.05,1.01.14,1.51.08.44.58.7.99.65.44-.06.78-.43.78-.88,0-.42-.07-.85-.11-1.27-.05-.47-.38-.92-.9-.9Z"/>
      <path class="cls-4" d="M45.73,39.75c.08.31.44.41.69.26.18-.04.33-.17.42-.31,0,0,.01-.02.02-.02.02-.02.08-.09.09-.09.01-.01.02-.02.03-.03.02-.02.03-.03.03-.03.02-.01.04-.02.05-.03.37-.22.47-.71.2-1.05-.27-.35-.75-.36-1.07-.07-.2.18-.38.42-.49.67-.1.23-.11.45,0,.66,0,.01.01.03.02.06ZM45.71,39.69s.06.09.1.14c-.06-.06-.09-.11-.1-.14Z"/>
      <path class="cls-4" d="M60.86,40.73c-.28-.08-.53.1-.63.36-.1.27-.19.53-.29.8-.1.28-.24.54-.15.84.08.25.37.39.61.25.28-.18.36-.48.48-.77.11-.28.22-.56.34-.84.1-.26-.11-.56-.36-.63Z"/>
      <path class="cls-4" d="M59.85,38.83c-.26-.34-.84-.43-1.14-.08-.21.25-.4.57-.39.91,0,.35.21.62.49.81.27.19.6,0,.72-.26,0,0,0,0,0,0-.03.08,0,.02.02-.03.04-.05.08-.1.11-.15.01-.04.03-.06.04-.09,0-.01.01-.03.02-.04,0,0,.01-.01,0,0,0,0,0,0,0,0,.12-.11.21-.22.26-.38.07-.23,0-.48-.14-.67Z"/>
      <path class="cls-5" d="M76.47,10.73c-.12.11-.24.22-.36.34-.05.05-.11.1-.16.15-.11.11-.16.25-.16.41,0,.16.11.34.29.37.14.03.28.03.41-.04.07-.04.13-.1.19-.15.13-.1.26-.2.39-.3.23-.18.34-.47.14-.73-.18-.24-.52-.26-.74-.05Z"/>
      <path class="cls-5" d="M79.16,14.7c-.29.28-.44.64-.47,1.04-.02.31.25.57.54.61.29.04.61-.14.68-.44,0-.02,0-.04.01-.06.01-.03.03-.06.04-.08.04-.04.16-.13.01-.02,0,0,0,0,0,0,.32-.23.44-.64.18-.98-.25-.32-.7-.34-1-.07Z"/>
      <path class="cls-5" d="M53.94,11.61c.12.08.31.05.41-.05.16-.17.13-.34.15-.55,0-.15.06-.3.11-.44.08-.21-.09-.45-.29-.51-.23-.06-.43.08-.51.29-.13.37-.27,1.02.12,1.26Z"/>
      <path class="cls-5" d="M49.86,15.93s0,0,0,0c0,0,0,0,0,0,0,0,0,0,0,0Z"/>
      <path class="cls-5" d="M49.14,16.13c.09.09.05.05.08.06.03.01.06.03.09.04,0,0,0,0,0,0,0,0,0,0,0,0,.04.01.08.01.12.02,0,0,0,0,0,0,.02,0,.09,0,.11-.01.07-.02.15-.06.19-.11.02-.02.05-.06.07-.08.01-.02.04-.1.05-.13,0-.03,0-.06.01-.09,0,0,0,0,0,0,0-.07-.02-.14-.05-.2l-.06-.08c-.05-.05-.11-.08-.18-.1-.05-.02-.11-.02-.16,0-.05,0-.1.02-.15.05-.02,0-.02.02-.04.04,0,0-.02,0-.02,0-.03.02-.05.04-.08.06-.04.04-.06.08-.08.12-.02.03-.03.06-.03.1-.01.05,0,.1,0,.15.02.07.05.12.1.17Z"/>
      <path class="cls-5" d="M49.86,15.92v.02s0-.03,0-.02Z"/>
      <path class="cls-5" d="M58.8,19.93s-.02,0-.03,0c-.29-.02-.53.16-.78.32-.22.14-.43.24-.65.32-.39.14-.65.52-.53.94.1.36.56.69.94.53.59-.24,1.57-.66,1.65-1.37.01-.04.03-.07.04-.11.13-.38-.28-.75-.64-.64Z"/>
      <path class="cls-5" d="M72.32,31.35c.28-.05.49-.24.67-.45.02-.02.03-.03.05-.05-.03.02-.06.04-.08.06.06-.08.25-.17.33-.26.04-.04.08-.08.12-.12.07-.01.3-.18.36-.2.24-.1.48-.45.53-.69.06-.26.05-.51-.06-.75-.22-.52-.8-.83-1.36-.67-.49.14-.93.38-1.3.72-.12.11-.22.24-.3.38-.03.06-.04.11-.06.15-.01.03-.03.05-.04.08-.07.14-.14.28-.18.43-.09.33,0,.59.13.89.2.45.76.56,1.19.48Z"/>
      <path class="cls-5" d="M8.63,60.48c.28-.09.58-.14.88-.13-.2-.14-.42-.25-.64-.36-.38-.19-.83-.13-1.1.22-.15.2-.22.5-.15.76l.43.35c-.01-.35.18-.7.59-.83Z"/>
      <path class="cls-4" d="M10.32,62.68c.95.25,1.57-.9.93-1.6-.44-.48-1.09-.72-1.74-.73-.3,0-.6.04-.88.13-.4.13-.6.49-.59.83l1.22,1c.34.14.7.28,1.05.37Z"/>
      <path class="cls-4" d="M18.53,65.3c-.04.1-.07.2-.11.3-.06.17.07.38.24.42.18.04.36-.05.42-.24.03-.1.06-.2.09-.3,0,0,0,0,0,0l-.14-.36s-.06-.03-.09-.04c-.19-.04-.34.06-.4.23Z"/>
      <path class="cls-4" d="M7.45,47.56c-.39.05-.72.37-.72.78,0,.25.11.43.27.56.04.05.07.1.11.15.19.26.44.46.68.68.32.29.67.29,1.05.13.24-.1.31-.29.4-.52.1-.28-.02-.64-.22-.84-.41-.39-.94-1.03-1.56-.94Z"/>
      <path class="cls-4" d="M21.07,36.46c-.26-.04-.49.05-.68.22-.26.23-.41.61-.41.96,0,.08.02.16.04.24.09.28.33.48.63.53.17.02.35,0,.5-.09.16-.1.33-.27.36-.46.28-.27.36-.69.14-1.03-.01-.02-.03-.04-.04-.06-.14-.18-.31-.28-.53-.31Z"/>
      <path class="cls-4" d="M32.01,38.7c.38.05.67-.13.89-.42.23-.31.26-.82.34-1.19.11-.48-.15-1.03-.65-1.15-.47-.11-1.05.14-1.15.65-.09.47-.27,1-.17,1.47.07.34.41.59.74.64Z"/>
      <path class="cls-19" d="M64.38,11.2c.4.05.81-.13,1.01-.48.04-.06.07-.13.1-.19,0,0,0,0,0,0,0,0,0,.01,0,.02,0,0,.01-.02.02-.03.02-.02.03-.04.05-.05-.01,0-.02.02-.04.03.16-.15.28-.32.35-.54.11-.33,0-.69-.2-.95-.18-.24-.42-.37-.71-.41-.36-.05-.64.07-.92.3-.45.38-.67,1.03-.51,1.59.11.39.45.67.84.73Z"/>
      <path class="cls-19" d="M48.82,20.29s0,0-.01,0c.11.08.25.09.39.07.02,0,.03,0,.05-.01,0,0,.02,0,.02,0,.06-.02.11-.04.16-.08.03-.02.05-.04.07-.06l.55-.57c.22-.22.24-.62,0-.84-.22-.2-.63-.25-.84,0-.17.2-.34.4-.52.6-.19.23-.24.59,0,.81.04.04.08.06.13.09Z"/>
      <path class="cls-19" d="M43.05,21.08c.07.06.15.11.24.14.12.04.32.02.42-.06.07-.05.14-.1.21-.15.09-.05.16-.12.21-.21.05-.09.08-.19.08-.3,0-.16-.06-.31-.17-.42-.11-.11-.27-.17-.42-.17-.11,0-.21.03-.3.08-.09.05-.16.12-.21.21-.05.07-.1.14-.15.21-.02.04-.04.09-.06.13-.02.07-.03.15,0,.22.02.12.06.23.15.32Z"/>
      <path class="cls-19" d="M35.13,29.08c.24,0,.41-.14.58-.28-.06.05.05-.04.08-.06.05-.03.1-.07.15-.1.12-.07.24-.14.36-.2.35-.17.47-.69.27-1.01-.2-.32-.67-.5-1.01-.27-.16.11-.38.26-.57.44,0,.28-.03.56-.13.84-.05.15-.12.3-.2.44.12.13.31.2.49.2Z"/>
      <path class="cls-19" d="M34.52,28.2s-.03.08-.03.12c.01-.04.02-.08.03-.12Z"/>
      <path class="cls-19" d="M14.36,37.81c.27-.14.64-.26.73-.59.05-.18-.03-.46-.22-.54-.14-.06-.27-.1-.42-.06-.09.02-.18.08-.27.12-.12.05-.24.11-.35.16-.25.12-.33.49-.19.71.16.25.45.32.71.19Z"/>
      <path class="cls-6" d="M81.19,10.96s0,0,0,0c0,0,0-.01-.01-.02,0,0,0-.01-.01-.02,0,0,0-.01-.01-.02,0,0-.01-.01-.02-.02,0,0,0,0,0,0L66.59.04c-.07-.05-.15-.05-.22,0l-23.34,15.76c-.05-.06-.13-.09-.2-.07-.1.03-.16.13-.13.24,0,.02,0,.03.01.05L.08,44.79s0,0,0,0c0,0,0,0,0,0,0,0-.02.02-.03.02,0,0,0,0,0,0,0,0-.01.02-.02.03,0,0,0,0,0,0,0,.01-.01.02-.02.04,0,0,0,0,0,0,0,.01,0,.02,0,.04,0,0,0,0,0,0,0,0,0,0,0,0,0,.01,0,.02,0,.04,0,0,0,0,0,0,0,.01,0,.02,0,.03l5.84,14.97s.03.06.06.08l.22.18c.02.1.05.19.09.28.04.1.15.15.25.11.03-.01.06-.03.08-.06l15.76,12.88s0,0,0,0c0,0,.01,0,.02.01,0,0,0,0,.01,0,0,0,.01,0,.02,0,0,0,0,0,.01,0,0,0,.01,0,.02,0,0,0,0,0,0,0,.01,0,.02,0,.03,0,0,0,0,0,0,0,0,0,.02,0,.03,0,0,0,0,0,.01,0,0,0,.01,0,.02,0,0,0,0,0,0,0,0,0,0,0,0,0,0,0,.01,0,.02-.01,0,0,0,0,.01,0,0,0,0,0,0,0l34.72-25.5s.06-.03.08-.06l29.63-21.77c.07-.05.1-.14.07-.22l-5.84-14.97ZM.64,45.56l3.59,2.94.36.29c-.03.14-.05.28-.04.42,0,.08,0,.16.01.24.08,1.18.6,2.32,1.42,3.17.2.2.41.39.65.56.84.6,1.87.91,2.9.91.45,0,.89-.06,1.32-.18l1.9,1.55,3.68,3.01,1.86,4.76.18.46c-.14,0-.28.02-.42.03l-.52.02c-.07,0-.14.05-.17.12-.34.79-.24,1.75.27,2.57.51.82,1.32,1.34,2.18,1.39,0,0,0,0,.01,0,.04,0,.08-.01.11-.03.03-.02.07-.05.1-.07l1.95,5-7.71-6.3c.15-1.47.3-3,.11-4.5,0-.02,0-.03,0-.05-.16-1.2-.61-2.86-1.87-4.09-1.13-1.1-2.74-1.55-4.09-1.17-.08.02-.17.05-.25.08-.78.29-1.46.93-1.82,1.72-.16.36-.26.72-.28,1.09L.64,45.56ZM31.45,24.07c.84.45,1.69.92,2.33,1.63.67.75.95,1.71.74,2.49-.01.04-.02.08-.03.12,0,0,0,0,0,.01-.23.68-.87,1.27-1.71,1.56-.77.27-1.61.31-2.48.32-1.9.02-4.21-.15-5.5-1.63l6.66-4.5ZM24.47,28.79c1.31,1.56,3.59,1.8,5.52,1.8.1,0,.2,0,.3,0,.9-.01,1.77-.04,2.6-.34.77-.27,1.39-.77,1.75-1.36.08-.14.15-.29.2-.44.1-.28.13-.57.13-.84-.02-.83-.44-1.62-.91-2.15-.63-.71-1.47-1.2-2.25-1.62l11.03-7.45c.69,1.57,2.52,2.37,4.15,2.37.04,0,.08,0,.11,0,1.86-.04,3.6-.91,5.13-1.67,1.03-.51,2.09-1.04,2.94-1.86,2.23-2.14,2.39-5.49,2.35-8.75l5.68-3.83c-.41,1.28-.36,2.58.15,3.62.58,1.17,1.8,1.94,2.98,1.94.18,0,.36-.02.53-.05.94-.19,1.81-.89,2.38-1.92.5-.9.73-1.91.95-2.89.01-.05,0-.09-.02-.13l5.51,4.11c-1.13.4-2.04,1.46-2.4,2.81,0,.02,0,.04-.01.05-.27,1.09-.22,2.32.18,3.86.12.47.28,1.01.68,1.39.07.07.16.15.25.24l-.66.49-14.74,10.82-6.23,4.58c.01-.06.02-.11.03-.17.16-.84-.14-1.73-.73-2.4-.36-.41-.83-.74-1.37-.94-1.21-.44-2.71-.23-4.01.57-1.22.74-2.15,1.86-2.9,2.85-1.1,1.46-1.87,2.86-2.33,4.18-.52,1.53-.61,2.95-.26,4.27,0,.04.02.07.03.11l-10.27,7.54c-.3-.22-.63-.42-.95-.62-.44-.27-.89-.55-1.24-.85-.64-.55-1.36-1.18-2.23-1.49-1.3-.47-2.75-.19-3.92.04-1.4.27-2.95.67-3.65,1.94-.78,1.44.04,3.12.43,3.78.17.29.43.67.69,1.06.62.92,1.37,2.04,1.67,2.89l-5.18,3.81-3.61-2.95-1.81-1.48c.44-1.34,1.15-3.55.35-4.78-.8-1.22-2.15-2.03-3.6-2.16-.59-.06-1.46-.02-2.2.47-.39.26-.79.68-1,1.19l-4.2-3.44,4.01-2.71,5.24-3.54,14.71-9.93ZM19.01,64.03c1.19-.08,2.37-.1,2.89.83.47.84-.24,1.36-1.46,2.13-.07.05-.15.09-.22.14l-1.21-3.1ZM19.02,65.11l.14.36.73,1.86s-.08.06-.13.08c-.71-.07-1.38-.51-1.81-1.21-.42-.68-.52-1.46-.29-2.11l.39-.02c.18,0,.37-.02.55-.03l.41,1.06ZM4.93,49.21s0-.09,0-.13l5.54,4.53c-1.24.26-2.6,0-3.63-.74-1.16-.83-1.89-2.23-1.91-3.65ZM5.03,48.66c.17-.47.54-.88.9-1.12.43-.28.98-.43,1.59-.43.12,0,.24,0,.36.02,1.32.12,2.59.89,3.32,1.99.68,1.03.07,3.03-.34,4.31l-5.83-4.77ZM30.99,48.05c-.05,1.58.11,3.16.47,4.7.07.3.15.6.23.89.23.87.47,1.78.49,2.68.05,2.42-1.59,4.84-4.08,6.02-.77.37-1.4.49-1.96.4-1.16-.19-1.92-1.3-2.36-2.2-.89-1.83-1.21-3.88-1.52-5.86-.01-.07-.03-.15-.05-.23l8.74-6.42s.02.02.03.02ZM22.09,54.07c-.34-.88-1.06-1.96-1.67-2.86-.26-.39-.51-.76-.68-1.05-.36-.6-1.11-2.14-.43-3.4.61-1.13,2.07-1.49,3.38-1.75,1.12-.22,2.52-.49,3.72-.06.8.29,1.47.87,2.11,1.42.38.33.84.61,1.3.89.28.17.56.35.82.53l-8.55,6.28ZM52.08,32.52c-.47,1.24-1.24,2.3-2.05,3.4-.44.6-.9,1.22-1.31,1.89-.43.69-.88,1.41-1.38,2.06-.54.7-1.12,1.29-1.73,1.78-.55.44-1.03.68-1.49.78-.08.02-.16.03-.24.03-.98,0-1.8-1.22-2.18-2.3l10.4-7.64ZM50.22,33.41l-.99.73-7.67,5.63c-.36-1.38-.21-2.89.44-4.52.45-1.13,1.15-2.32,2.08-3.57.73-.97,1.63-2.05,2.79-2.76.8-.48,1.67-.73,2.49-.73.42,0,.83.07,1.2.2.43.16.81.41,1.11.73.57.6.88,1.42.74,2.18-.04.2-.08.4-.14.59l-2.06,1.52ZM80.53,17.62c-.61.85-1.7,1.56-2.84,1.56-.27,0-.53-.04-.8-.12-.67-.22-1.24-.81-1.49-1.54-.03-.1-.06-.2-.08-.3-.1-.51,0-1.01.27-1.39.06-.08.05-.18-.02-.25-.07-.07-.18-.07-.25-.01-.07.06-.15.08-.24.06l3.76-2.76,2.08-1.53.78,2.01c-.09.02-.15.1-.15.19.03,1.71-.32,3.09-1.04,4.1ZM74.71,15.42c-.09-.07-.19-.16-.31-.28-.32-.32-.46-.79-.57-1.21-.38-1.47-.43-2.64-.18-3.67.03-.12.06-.23.1-.34.38-1.12,1.18-1.98,2.15-2.28.05-.02.09-.05.11-.09l1.07.8,3.61,2.69-5.98,4.39ZM69.83,3.24c-.21.95-.43,1.93-.91,2.79-.52.93-1.29,1.56-2.13,1.73-1.17.24-2.5-.48-3.09-1.68-.53-1.07-.52-2.44.02-3.76,0-.02.01-.03.01-.05l2.73-1.85,3.58,2.67c-.1-.02-.2.05-.22.15ZM54.91,14.94c-.81.78-1.85,1.3-2.84,1.79-1.5.75-3.19,1.59-4.97,1.63-1.54.04-3.32-.71-3.93-2.2l13.98-9.44c.02,3.09-.17,6.23-2.24,8.22ZM8.05,61.32l-.43-.35-1.13-.93c-.09-.48-.01-.99.21-1.48.32-.7.92-1.27,1.61-1.52.12-.04.24-.08.37-.11,1.19-.27,2.58.15,3.57,1.11,1.09,1.06,1.53,2.47,1.71,3.58.02.11.03.22.05.33.17,1.38.05,2.79-.08,4.17l-4.65-3.8-1.22-1ZM58.36,38.16c.23-.68.5-1.38.99-1.9.43-.45,1.15-.81,1.82-.61.62.19,1.06.77,1.38,1.8.04.14.08.28.12.44.39,1.62.63,3.29.71,4.95,0,.05.02.09.05.12l-1.97,1.45-4.11,3.02c-.31-3.11.04-6.31,1.02-9.27ZM63.75,42.73c-.08-1.65-.32-3.31-.72-4.92-.07-.3-.17-.65-.31-.98-.27-.67-.71-1.31-1.45-1.54-.73-.22-1.6.06-2.22.71-.54.57-.83,1.32-1.07,2.04-1.02,3.09-1.37,6.42-1.01,9.65l-15.97,11.73-18.5,13.59-2.16-5.53c.1-.06.19-.12.28-.18,1.07-.67,2.27-1.42,1.59-2.64-.66-1.17-2.08-1.11-3.37-1.02l-2.04-5.23,5.06-3.72s0,.03,0,.04c.32,2.01.65,4.09,1.56,5.97.48.98,1.32,2.2,2.64,2.41.14.02.28.03.42.03.53,0,1.1-.15,1.76-.47,1.22-.58,2.31-1.5,3.08-2.59.82-1.17,1.24-2.48,1.22-3.78-.02-.95-.26-1.87-.5-2.77-.08-.29-.16-.59-.23-.88-.37-1.53-.52-3.11-.46-4.69,0-.06-.02-.11-.07-.15-.01,0-.02-.02-.03-.03l10.08-7.4c.42,1.13,1.31,2.45,2.49,2.45.11,0,.22-.01.33-.03.53-.11,1.05-.38,1.65-.86.64-.5,1.24-1.12,1.8-1.84.52-.67.97-1.39,1.41-2.1.41-.65.86-1.27,1.29-1.87.94-1.28,1.83-2.5,2.28-4.02l9.47-6.96,11.87-8.72.77-.56c.11.06.22.1.34.12-.19.47-.21,1.03-.04,1.58,0,.02.01.03.02.05.28.85.95,1.53,1.73,1.79.3.1.61.14.91.14,1.27,0,2.48-.78,3.16-1.72.71-.99,1.08-2.3,1.11-3.9l4.68,11.99-22.87,16.8Z"/>
      <path class="cls-6" d="M30.81,41.96c.14.04.28.06.42.06,1.41,0,3.03-1.85,3.47-2.76.03-.07.06-.13.09-.2.46-1.08.46-2.27,0-3.23-.54-1.12-1.77-1.84-2.92-1.71-.74.09-1.43.5-1.94,1.18-.47.61-.76,1.41-.81,2.19-.04.6.03,1.59.26,2.48.03.12.07.23.1.35.3.91.76,1.48,1.33,1.65ZM29.5,37.52c.09-1.35,1.01-2.85,2.41-3.01.99-.11,2.06.51,2.53,1.5.44.91.4,2.06-.09,3.09-.02.04-.04.08-.06.12-.49.89-1.92,2.43-3.06,2.43-.11,0-.21-.01-.31-.04-.48-.14-.82-.68-1.05-1.36-.3-.88-.41-1.99-.36-2.72Z"/>
      <path class="cls-6" d="M41.97,48.86c-.81-.88-1.73-1.32-2.57-1.23-1.48.15-2.31,1.71-2.59,3.12-.33,1.67.08,4.03,1.36,5.1.46.39,1,.58,1.59.58.39,0,.8-.08,1.23-.25,1.58-.61,2.15-1.78,2.35-2.65.36-1.55-.18-3.39-1.37-4.67ZM42.97,53.45c-.18.78-.69,1.82-2.12,2.37-.96.37-1.78.28-2.43-.27-1.16-.98-1.54-3.17-1.23-4.73.24-1.22.98-2.69,2.25-2.81.97-.1,1.83.66,2.25,1.11,1.09,1.18,1.6,2.91,1.28,4.33Z"/>
      <path class="cls-6" d="M18.92,41.14c.2.17.53.36.97.36s1.03-.2,1.74-.8c.8-.69,1.29-1.78,1.38-3.08.03-.52,0-1.04-.06-1.56-.07-.6-.19-1.19-.31-1.77-.02-.09-.09-.15-.18-.15-1.57-.08-3.16.77-3.97,2.12h0c-.47.79-.62,1.87-.5,2.85.11.85.42,1.61.92,2.03ZM18.83,36.45h0c.71-1.19,2.09-1.95,3.47-1.94.12.58.23,1.16.29,1.75.05.44.07.89.04,1.33-.05.69-.27,1.97-1.25,2.81-.62.53-1.51,1.04-2.21.44-.46-.38-.73-1.13-.81-1.94-.08-.86.07-1.79.47-2.46Z"/>
      <path class="cls-6" d="M43.09,27.86c1.01-.33,2.27-.74,3.08-1.68.38-.44.61-1.02.66-1.6.01-.14.01-.29,0-.43-.05-.56-.29-1.01-.69-1.32-.48-.38-1.17-.52-2.04-.42-1.06.12-1.95.49-2.59,1.07-.77.7-1.14,1.73-.95,2.63.21,1.03,1.18,1.8,2.15,1.72.07,0,.12-.04.15-.1,0,0,0,0,0,0,.02.05.06.09.1.11.02.01.05.02.08.02.02,0,.04,0,.06,0ZM41.76,23.77c.73-.67,1.7-.9,2.38-.97.77-.09,1.36.03,1.76.34.39.31.51.75.54,1.06.03.27,0,.54-.07.81-.09.34-.26.67-.49.93-.54.63-1.34,1.01-2.11,1.29-.27.1-.54.19-.8.27-.05.02-.09.05-.11.09-.02-.08-.1-.14-.18-.14,0,0-.01,0-.02,0-.77.06-1.57-.58-1.74-1.41-.16-.77.17-1.67.84-2.27Z"/>
      <path class="cls-6" d="M60.2,16.93c-.85.36-2.26,1.15-3.33,2.04-1.43,1.19-2.01,2.33-1.66,3.3.21.59.57.94,1.08,1.04.09.02.19.03.29.03,1.94,0,4.88-3.27,5.01-3.42.38-.43.76-.91.88-1.49.12-.59-.07-1.34-.68-1.63-.52-.25-1.12-.06-1.58.13ZM62.09,18.35c-.1.5-.44.93-.79,1.32-.85.95-3.26,3.29-4.72,3.29-.08,0-.15,0-.23-.02-.36-.07-.62-.33-.79-.79-.36-1.01.64-2.12,1.55-2.88,1.04-.87,2.41-1.63,3.23-1.98.39-.16.88-.32,1.26-.14.43.21.57.77.48,1.21Z"/>
      <path class="cls-6" d="M75.37,25.63c-.71-.33-1.62-.25-2.45.21-.73.4-1.29,1-1.84,1.58l-2.29,2.43c-1.08,1.15-.75,2.1-.46,2.56.59.93,2.02,1.55,3.33,1.55.37,0,.74-.05,1.07-.16,1.54-.49,2.85-1.83,3.61-3.69.37-.92.51-1.71.42-2.43-.12-.93-.65-1.72-1.39-2.06ZM69.06,30.11l2.29-2.43c.53-.56,1.07-1.14,1.75-1.51.43-.24.89-.36,1.31-.36.28,0,.56.05.8.17.62.29,1.06.96,1.17,1.76.08.65-.05,1.39-.39,2.24-.71,1.75-1.94,3.01-3.37,3.47-.29.09-.62.14-.95.14-1.19,0-2.5-.55-3.01-1.37-.41-.65-.27-1.37.41-2.1Z"/>
      <path class="cls-6" d="M65.01,25.71h0c-1.55,0-2.61,1.56-2.83,3.01-.16,1.07.53,2.08,1.13,2.97.16.24.31.46.45.68.03.05.08.08.14.09.03.01.06.02.09.02.02,0,.04,0,.06-.01.19-.07.38-.14.56-.22,1.45-.65,2.48-1.73,2.8-2.95.14-.54.11-1.13-.07-1.68-.11-.34-.28-.66-.5-.95-.48-.62-1.12-.96-1.82-.96ZM67.03,29.19c-.26.98-1.03,1.86-2.13,2.47-.27.15-.57.29-.88.4-.12-.2-.26-.39-.39-.6-.59-.87-1.21-1.78-1.07-2.7.2-1.32,1.17-2.68,2.45-2.69h0c.57,0,1.11.29,1.51.81.26.33.44.73.52,1.14.08.39.08.79-.01,1.15Z"/>
    </g>
  </g>
</svg>