<?xml version="1.0" encoding="UTF-8"?>
<svg id="Layer_2" data-name="Layer 2" xmlns="http://www.w3.org/2000/svg" xmlns:xlink="http://www.w3.org/1999/xlink" viewBox="0 0 59.34 98.32">
  <defs>
    <style>
      .cls-1, .cls-2, .cls-3, .cls-4, .cls-5, .cls-6, .cls-7, .cls-8, .cls-9, .cls-10, .cls-11, .cls-12, .cls-13, .cls-14, .cls-15, .cls-16, .cls-17 {
        fill: none;
      }

      .cls-18 {
        fill: #c6b4ad;
      }

      .cls-2 {
        stroke: #dd691c;
      }

      .cls-2, .cls-3, .cls-4, .cls-5, .cls-6, .cls-7, .cls-8, .cls-9, .cls-10, .cls-11, .cls-12, .cls-13, .cls-14, .cls-15, .cls-16, .cls-17 {
        stroke-width: 2px;
      }

      .cls-19 {
        fill: #f9fceb;
      }

      .cls-20 {
        fill: #ad1509;
      }

      .cls-3 {
        stroke: #f8f7f5;
      }

      .cls-21 {
        fill: #f2efeb;
      }

      .cls-4 {
        stroke: #e2d7d0;
      }

      .cls-5 {
        stroke: #fed792;
      }

      .cls-22 {
        fill: #e6ebe7;
      }

      .cls-23 {
        fill: #c85920;
      }

      .cls-24 {
        fill: #ffe77b;
      }

      .cls-25 {
        fill: #f2e2cf;
      }

      .cls-6 {
        stroke: #fad58b;
      }

      .cls-26 {
        fill: #fcb639;
      }

      .cls-27 {
        fill: #c0750a;
      }

      .cls-28 {
        fill: #ffeecd;
      }

      .cls-7 {
        stroke: #e2d1c2;
      }

      .cls-29 {
        fill: #e1823a;
      }

      .cls-30 {
        fill: #fdad38;
      }

      .cls-31 {
        fill: #d1bfb5;
      }

      .cls-32 {
        fill: #cd692f;
      }

      .cls-33 {
        fill: #c37d60;
      }

      .cls-34 {
        fill: #e0d8d1;
      }

      .cls-35 {
        clip-path: url(#clippath-1);
      }

      .cls-36 {
        clip-path: url(#clippath-2);
      }

      .cls-37 {
        fill: #edb934;
      }

      .cls-38 {
        fill: #fedb8c;
      }

      .cls-39 {
        fill: #ffdfa6;
      }

      .cls-40 {
        fill: #d8a58b;
      }

      .cls-8 {
        stroke: #f2f5f3;
      }

      .cls-41 {
        fill: #f17918;
      }

      .cls-42 {
        fill: #f7eabf;
      }

      .cls-9 {
        stroke: #f07f19;
      }

      .cls-43 {
        fill: #f2f0ee;
      }

      .cls-10 {
        stroke: #e3e2dc;
      }

      .cls-44 {
        fill: #ab938c;
      }

      .cls-45 {
        fill: #ef8419;
      }

      .cls-46 {
        fill: #f06d1c;
      }

      .cls-47 {
        fill: #fefefe;
      }

      .cls-48 {
        fill: #ddc1a1;
      }

      .cls-11 {
        stroke: #d9ccc3;
      }

      .cls-49 {
        fill: #fecf6d;
      }

      .cls-50 {
        fill: #6e280a;
      }

      .cls-51 {
        fill: #ffdf33;
      }

      .cls-12 {
        stroke: #e17c27;
      }

      .cls-52 {
        fill: #d39313;
      }

      .cls-53 {
        fill: #f99f2d;
      }

      .cls-13 {
        stroke: #f8c576;
      }

      .cls-54 {
        fill: #b5481e;
      }

      .cls-55 {
        fill: #391510;
      }

      .cls-56 {
        fill: #f78e1b;
      }

      .cls-14 {
        stroke: #f49223;
      }

      .cls-57 {
        fill: #fdbf57;
      }

      .cls-15 {
        stroke: #dc6f1d;
      }

      .cls-16 {
        stroke: #fbaf42;
      }

      .cls-58 {
        clip-path: url(#clippath);
      }

      .cls-17 {
        stroke: #fbecc6;
      }
    </style>
    <clipPath id="clippath">
      <path class="cls-1" d="M32.65,18.61c-.22,0-.4.04-.56.14-.04.02-.05.07-.03.11,0,.01.02.02.03.03.09.04.23.05.43.02l.65,1.41c-.36-.41-.64-.75-.86-1.02-.72-.9-1.73.66-1.87,1.25-.02.08.03.16.11.18.02,0,.03,0,.05,0,1.92-.19,3.53.15,5.79-.04l4.07.05s.07-.03.07-.07c0-.02-.01-.05-.03-.06-1.95-1.48-5.4-2.92-7.87-1.98Z"/>
    </clipPath>
    <clipPath id="clippath-1">
      <path class="cls-1" d="M10.6,90.85c5.39,1.72,10.98,2.69,16.78,2.9l3.95.07c6.21-.08,12.24-.63,18.13-2.47l1.85-.8c.06-.03.1-.08.1-.14l.65-6.78c0-.09-.03-.11-.1-.07l-1.7,1.01c-2.12,1.01-4.16,1.81-6.12,2.39-4.69,1.23-9.43,1.63-14.44,1.69l-4.97-.2c-2.37-.23-4.7-.65-7-1.26-2.45-.62-4.95-1.55-7.5-2.81-1-.45-2.04-1.09-3.13-1.92-.05-.04-.07-.02-.06.04l.72,7.09c0,.09.05.15.14.18l2.7,1.09ZM17.79,95.13c4.98.89,10.02,1.25,15.12,1.09,5.63-.12,10.58-.73,15.9-2.51l2.21-.88c.08-.03.13-.09.14-.18l.07-.71.19-.92c.02-.1-.02-.13-.11-.09-2.37,1.05-5.05,1.57-7.51,2.11-3.97.86-8.27,1.05-12.31,1.14-4.72.03-9.37-.37-13.94-1.21-3.25-.58-6.41-1.5-9.46-2.75-.18-.07-.25-.01-.23.18l.24,1.65c.01.09.07.17.16.22,2.88,1.42,7,2.31,9.54,2.86ZM31.33,97.79c4.68-.02,9.3-.54,13.86-1.57.46-.1,1.06-.29,1.77-.56,1.26-.31,2.48-.78,3.66-1.43.35.11.53-.12.54-.69.02-.13.02-.24-.01-.34-.03-.09-.08-.11-.16-.07-1.12.52-2.28.92-3.49,1.21-5.32,1.57-10.64,2.13-16.16,2.17-8.23.04-15.44-.98-23.07-3.89-.08-.03-.12,0-.13.08-.16.86.74,1.29,1.28,1.5,6.85,2.7,14.67,3.63,21.92,3.58Z"/>
    </clipPath>
    <clipPath id="clippath-2">
      <path class="cls-1" d="M15.27,30.43l-1.11.53c-.84.62-1.78,2.14-1.61,3.16.03.19.18.33.36.37l1.54.28c-.52.06-.95.03-1.27-.1-.41-.16-.53-.04-.37.37.8,2.05,2.08,3.78,4.44,3.85,2.39.07,3.12-3.06,3.22-4.93.34-1.6-.14-2.77-1.43-3.53-1.19-.7-2.45-.7-3.78,0Z"/>
    </clipPath>
  </defs>
  <g id="Layer_1-2" data-name="Layer 1">
    <g>
      <path class="cls-19" d="M54.64.12c-.1.07-.11.19-.01.36l-.46.07c-.08.01-.16.04-.23.08l-2.46,1.56c-1.55.8-3.01,1.75-4.38,2.86l-.98.75c-1.13.43-2.4,1.07-3.81,1.92-.27.16-.38.32-.34.48-.2.4-.29.81-.26,1.23,0,.08-.03.16-.09.22-.58.51-.69,1.09-.32,1.73.14.25.3.28.48.1.05-.05.07-.11.05-.18l-.11-.61c-.03-.12.05-.23.16-.26.12-.03.23.05.26.16.46,1.83,1.22,3.53,2.28,5.08.06.08.04.14-.05.17l-.08.03c-.07.02-.13,0-.19-.05-.69-.77-1.26-1.61-1.69-2.53-.2-.43-.76-.48-1.09-.7-.61-.42-1.24-.8-1.89-1.15-.03-.02-.05-.01-.08.01l-.06.06s-.03.07,0,.1c1.33,1.01,2.49,2.18,3.49,3.52.06.08.04.18-.03.24-.06.05-.15.05-.21,0-1.38-1.09-2.66-2.35-3.83-3.77-.08-.1-.13-.21-.13-.35,0-.11-.06-.14-.15-.09-.14.07-.26.26-.36.57l-.82.85s-.1.07-.15.09c-.78.23-1.51.58-2.17,1.06-.88.63.56,2.95.97,3.54-.42.19-.92.25-1.49.18-.08-.01-.13-.05-.15-.13-.32-1.18-.65-2.35-.98-3.5-.02-.08-.09-.16-.19-.22-.03-.23-.2-.27-.53-.12-1.06.5-2.24,1.16-3.51,2l-.46.36c-2.62.81-4.71,2.45-7.13,4.16-.08-.05-.21-.03-.37.06-.52-.69-1.23-1.07-2.11-1.14-.06,0-.12.04-.12.1,0,.04.02.09.06.11.8.43,1.51.1,1.88,1.13.04.12-.02.24-.13.29-.03,0-.05.01-.08.01-1.27-.03-2.68-.91-3.86-1.42l-2.54-.54c-.06-.01-.1-.07-.09-.13,0-.05.05-.09.1-.09,2.64-.23,5.81-.05,8.02-.55,1.25-.28,2.47-.75,3.66-1.39l.93-.45s.05-.05.05-.08v-.07c0-.06-.05-.1-.1-.11-.01,0-.02,0-.03,0l-.82.29s-.1-.02-.11-.06c0-.04,0-.08.04-.1l.42-.2c.08-.04.17-.06.26-.07.45-.02.85-.18,1.2-.47.08-.07.08-.14.01-.21l-.09-.09.53-.29,9.78-5.71,2.25-1.36c2.79-1.53,4.67-2.58,8.27-4.69,1.63-.95,3.32-1.82,5.08-2.61.33.08.54.05.63-.07.05-.07.11-.1.19-.09.11,0,.19.04.25.12Z"/>
      <path class="cls-55" d="M53.58.17c-1.76.79-3.45,1.66-5.08,2.61-3.6,2.11-5.48,3.16-8.27,4.69,3.11-1.96,6.26-3.85,9.45-5.67,1.21-.69,2.51-1.24,3.9-1.63Z"/>
      <path class="cls-50" d="M54.64.12c.96.67.82,4.28.65,5.33-.54,3.4-1.43,6.7-2.66,9.91-.04.09,0,.15.09.17l2.36.42-.26.59-2.32-.49c-.09-.02-.15,0-.19.09-.72,1.32-1.59,2.55-2.61,3.69.12.17.19.34.22.52-1.48.16-2.92.6-4.32,1.33-.1.05-.15.15-.15.26.01.23.17.32.46.3,2.09-.2,4.19-.45,6.29-.76,2.06-.23,4.13-.62,6.21-1.17-.02.26-.02.34.03.24l-2.93.72-3.44.52-6.62.79c-.05-.02-.12.05-.19.19l-1.02-.74c-.11-.08-.1-.12.04-.14h.13s.66.54.66.54c.03.03.07.02.1,0,.01-.01.02-.03.02-.05,0-.06,0-.11-.02-.15-.03-.1-.1-.18-.2-.24l-.38-.21s.02-.08.01-.12c.1-.02.2-.03.29-.01.09.01.18,0,.26-.04l2.02-.94c.07-.03.09-.11.06-.17-.02-.05-.08-.08-.13-.07-1.53.18-3.02.67-4.53.36-.05,0-.09.02-.1.07,0,.04.01.08.05.1l1.52.59-2.71-.38-1.51-.08-5.84.15-3.65.05c-.11,0-.16.06-.15.17v.09c.03.09,0,.17-.08.23-.52.44-1.23.49-1.56,1.24l-1.48,1.53s-.05-.07-.07-.11l1.38-1.58,1.44-1.25c.08-.07.09-.2.02-.28-.04-.04-.09-.07-.14-.07-3.6.02-7.23-.09-10.89-.32.15-.05.22-.14.21-.26-.01-.08-.06-.14-.14-.16-.1-.03-.16-.07-.17-.12l-2.13-1.11s.05-.05.14-.08c1.18.5,2.58,1.39,3.86,1.42.12,0,.22-.1.23-.22,0-.03,0-.05-.01-.08-.37-1.03-1.08-.7-1.88-1.13-.06-.03-.08-.1-.05-.15.02-.04.06-.06.11-.06.88.07,1.59.45,2.11,1.14v.28c.01.11.1.2.21.21l8.53.27c.1,0,.17-.04.2-.14.4-1.28,1.27-2.08,2.61-2.41.57-.14,1.07-.36,1.67-.29,2.33.28,4.45,1.11,6.35,2.5.07.05.15.07.24.07,1.6-.15,3.19.04,4.7-.2.85-.14,1.72-.29,2.63-.45l.78-.1c.08,0,.15-.06.19-.13.23-.41.54-.51.79-.87,1.94-2.84,2.77-4.71,3.6-7.9.97-3.75,1.58-6.56,1.17-10.14,0-.05-.02-.1-.05-.14-.03-.05-.06-.1-.08-.14-.1-.17-.09-.29.01-.36Z"/>
      <g class="cls-58">
        <g>
          <path class="cls-17" d="M36.41,20.68c-1.03-.29-2.1-.41-3.22-.36" vector-effect="non-scaling-stroke"/>
          <path class="cls-5" d="M32.53,18.9c-.06-.13-.02-.23.12-.29" vector-effect="non-scaling-stroke"/>
        </g>
      </g>
      <path class="cls-26" d="M54.63.48s.05.09.08.14c.03.05.05.09.05.14.41,3.58-.2,6.39-1.17,10.14-.83,3.19-1.65,5.06-3.6,7.9-.25.37-.56.46-.79.87-.04.07-.11.12-.19.13l-.78.1c-.46-.22-1.03-.22-1.69,0-.07.02-.15-.02-.17-.09-.01-.05,0-.1.03-.14,1.52-1.55,2.72-3.33,3.61-5.33.2-.31.2-.59,0-.86-1.56-2-3.34-4.72-3.52-7.42.2.09.3.31.32.65.62,1.82,2.02,4.66,3.61,6.13.07.07.16.09.25.05.08-.02.13-.09.14-.2.1-.07.18-.17.24-.31,1.15-2.77,1.81-5.66,1.98-8.65.03-.53-.04-1.05-.22-1.57-.03-.08-.09-.13-.18-.14-.17-.01-.32.05-.47.2l-.67-.05,2.46-1.56c.07-.04.15-.07.23-.08l.46-.07Z"/>
      <path class="cls-24" d="M50.8,12.71c-.06-.25-.22-.43-.46-.53.65-.92,1.06-1.93,1.24-3.01.01-.08.05-.15.11-.2.34-.32.44-.71.29-1.19-.03-.1-.1-.16-.2-.18-.78-.15-2.15-.54-2.73.18-.06.07-.17.09-.25.04-.46-.29-.87-.37-1.22-.25l-.39-1.02.07-.11c.05-.07.06-.14.05-.22l-.07-.42c-.03-.18.03-.22.18-.12l.36.24c-.17-.04-.28.03-.32.2-.02.09,0,.16.09.19.42.18.93.44,1.54.78.25.14.43.1.53-.14.03-.07.12-.1.19-.07,0,0,0,0,0,0l.22.11c.05.03.12,0,.15-.05,0-.01.01-.03.01-.04,0-.09.04-.17.09-.24l1.3.42c.08.03.14,0,.19-.07.38-.58.62-1.22.71-1.92.03-.2-.06-.3-.26-.29-1.12.03-1.63-.44-1.54-1.4.02-.16.1-.22.26-.18.09.02.18,0,.24-.07.23-.25.5-.4.82-.47.09-.02.14-.08.14-.17v-.26c.15-.15.31-.22.47-.2.09,0,.15.05.18.14.17.51.25,1.04.22,1.57-.17,3-.83,5.88-1.98,8.65-.06.14-.14.24-.24.31Z"/>
      <path class="cls-51" d="M51.49,2.19l.67.05v.26c-.01.09-.06.15-.15.17-.31.07-.59.23-.82.47-.07.07-.15.1-.24.07-.16-.04-.25.02-.26.18-.09.96.42,1.43,1.54,1.4.2,0,.29.09.26.29-.1.7-.33,1.34-.71,1.92-.05.07-.11.09-.19.07l-1.3-.42c-.76-.38-1.59-.63-2.51-.75l-.36-.24c-.15-.1-.21-.06-.18.12l.07.42c.01.08,0,.15-.05.22l-.07.11c-.13.02-.25.08-.39.18-.01-.34-.12-.56-.32-.65.1-.08.03-.14-.22-.19.46-.12.75-.4.86-.84,1.37-1.1,2.83-2.06,4.38-2.86Z"/>
      <path class="cls-27" d="M47.11,5.05c-.11.44-.4.72-.86.84,0,.02-.01.04-.02.06l-.1-.15.98-.75Z"/>
      <path class="cls-54" d="M46.12,5.8l.1.15-4.1,2.33c-.07,0-.13-.03-.16-.07-.04-.16.08-.32.34-.48,1.41-.86,2.68-1.5,3.81-1.92Z"/>
      <path class="cls-42" d="M46.23,5.94s.01-.04.02-.06c.25.04.32.11.22.19.18,2.7,1.97,5.42,3.52,7.42.21.27.21.55,0,.86l-.76.65c-.06.05-.13.07-.2.04l-.68-.2c-.11-.03-.18-.15-.14-.26.02-.08.1-.14.18-.15.28-.03.44-.21.49-.54.11-.81-.19-1.37-.91-1.68-.08-.03-.14-.09-.18-.16-.44-.68-.84-1.39-1.2-2.12-.3-.61-.37-1.34-.62-2.03-.03-.1-.1-.12-.19-.08-.58.29-1.29.51-2.13.65-.15.03-.24.12-.26.28-.01.08-.04.15-.1.21-.59.61-1.83.11-1.16-.7l4.1-2.33Z"/>
      <path class="cls-42" d="M47.76,5.92c.92.12,1.75.37,2.51.75-.05.07-.08.15-.09.24,0,.06-.06.11-.13.1-.01,0-.03,0-.04-.01l-.22-.11c-.07-.04-.16,0-.2.06,0,0,0,0,0,0-.1.23-.28.28-.53.14-.6-.34-1.12-.6-1.54-.78-.09-.04-.12-.1-.09-.19.05-.17.15-.23.32-.2Z"/>
      <path class="cls-42" d="M47.18,6.54l.39,1.02,2.77,4.62c.24.1.4.28.46.53-.02.11-.06.17-.14.2-.09.03-.18.01-.25-.05-1.59-1.47-2.99-4.31-3.61-6.13.13-.1.26-.15.39-.18Z"/>
      <path class="cls-51" d="M50.33,12.18l-2.77-4.62c.35-.12.76-.03,1.22.25.08.05.19.03.25-.04.59-.72,1.96-.33,2.73-.18.1.02.17.08.2.18.15.47.05.87-.29,1.19-.06.05-.1.12-.11.2-.18,1.09-.59,2.09-1.24,3.01Z"/>
      <path class="cls-24" d="M50,14.35c-.89,2-2.09,3.78-3.61,5.33-.05.06-.05.14,0,.2.04.03.09.05.14.03.67-.23,1.23-.23,1.69,0-.91.16-1.78.31-2.63.45-1.51.25-3.11.05-4.7.2-.08,0-.17-.02-.24-.07-1.9-1.39-4.01-2.22-6.35-2.5-.6-.07-1.09.15-1.67.29l.03-.06c.03-.06.01-.1-.04-.12l-.14-.06s-.02-.02-.01-.03c0,0,0,0,0,0,.07-.04.1-.1.08-.17-.01-.06.03-.12.09-.14.01,0,.03,0,.04,0,.3.05.57,0,.81-.18.01,0,.03-.01.04-.01h.45c.16,0,.2-.07.13-.21-.56-1.06-.89-2.2-.99-3.4,0-.07-.05-.11-.12-.12l-.2-.03.28-.12c.1.06.17.13.19.22.33,1.15.66,2.32.98,3.5.02.08.07.12.15.13.57.08,1.06.02,1.49-.18l-.12-.53c-.02-.09,0-.17.05-.25.74-1.05,1.62.03,2.4.3,1.28.44,2.49,1.03,3.62,1.76.11.07.27.14.47.2.84.25.7,1.36,2.02,1.28.15-.01.26-.14.25-.28,0-.08-.05-.16-.12-.2-2.85-1.83-4.82-4.61-6.4-7.81.1-.31.22-.5.36-.57.1-.05.15-.02.15.09,0,.14.05.25.13.35,1.17,1.42,2.45,2.67,3.83,3.77.07.06.18.05.24-.02.05-.06.05-.15,0-.21-1-1.34-2.16-2.51-3.49-3.52-.04-.03-.04-.06,0-.1l.06-.06s.05-.03.08-.01c.65.35,1.28.73,1.89,1.15.32.22.88.27,1.09.7.43.92,1,1.77,1.69,2.53.05.06.11.07.19.05l.08-.03c.09-.03.11-.09.05-.17-1.06-1.55-1.82-3.25-2.28-5.08-.03-.12-.14-.19-.26-.16-.12.03-.19.14-.16.26l.11.61c.01.07,0,.13-.05.18-.18.18-.34.15-.48-.1-.37-.64-.26-1.21.32-1.73.06-.05.1-.14.09-.22-.03-.42.06-.83.26-1.23.03.04.09.06.16.07-.67.81.57,1.31,1.16.7.06-.06.09-.13.1-.21.02-.16.11-.25.26-.28.85-.15,1.56-.37,2.13-.65.09-.05.16-.02.19.08.25.69.32,1.41.62,2.03.36.73.76,1.44,1.2,2.12.05.07.11.12.18.16.72.31,1.02.87.91,1.68-.05.34-.21.52-.49.54-.12.01-.2.12-.19.23,0,.08.07.16.15.18l.68.2c.08.02.14,0,.2-.04l.76-.65Z"/>
      <path class="cls-50" d="M41.19,8.91c-1.18.45-1.91.95-2.94,1.62-.09.06-.2.03-.26-.05-.05-.08-.04-.19.04-.25.9-.77,1.89-1.4,2.96-1.89.08-.04.18,0,.22.08,0,0,0,.01,0,.02l.08.26c.03.1,0,.17-.1.21Z"/>
      <path class="cls-32" d="M37.98,8.83l-9.78,5.71v-.09c0-.07-.04-.1-.11-.11-.04,0-.07,0-.1.03,1.12-.69,3.69-2.18,7.72-4.49.9-.52,1.66-.87,2.28-1.05Z"/>
      <path class="cls-50" d="M34.34,12.65c-.61.15-.64.07-.09-.23l3.07-1.7c.06-.03.08-.01.06.05-.19.83-2.44,1.73-3.05,1.88Z"/>
      <path class="cls-28" d="M44.81,10.86c.02-.12.12-.2.24-.19l.35.03c.07,0,.12.07.11.14,0,.02-.01.05-.03.07-.27.35-.36.69-.26,1,.37,1.21.73,2.42,1.07,3.63.03.1,0,.18-.08.24l-.07.05c-.09.07-.15.05-.18-.06-.4-1.45-1.4-3.45-1.17-4.91Z"/>
      <path class="cls-42" d="M38.08,11.74c1.58,3.2,3.55,5.98,6.4,7.81.12.08.16.25.08.37-.05.07-.12.11-.2.12-1.32.08-1.18-1.03-2.02-1.28-.2-.06-.36-.13-.47-.2-1.13-.73-2.34-1.32-3.62-1.76-.78-.27-1.66-1.35-2.4-.3-.05.08-.07.16-.05.25l.12.53c-.41-.59-1.85-2.9-.97-3.54.66-.48,1.38-.83,2.17-1.06.06-.02.11-.05.15-.09l.82-.85Z"/>
      <path class="cls-20" d="M33.1,13.61l-.28.12c-1.33.93-2.31,1.68-3.76,1.76,1.28-.84,2.45-1.51,3.51-2,.32-.15.5-.11.53.12Z"/>
      <path class="cls-42" d="M32.83,13.73l.2.03c.07,0,.11.05.12.12.11,1.2.44,2.33.99,3.4.07.14.03.21-.13.21h-.45s-.03,0-.04.01c-.24.17-.51.23-.81.18-.06-.01-.12.03-.13.1,0,.01,0,.03,0,.04.02.07-.01.13-.08.17-.01,0-.01.02,0,.03,0,0,0,0,.01,0l.14.06c.06.02.07.06.04.12l-.03.06c-1.33.32-2.2,1.13-2.61,2.41-.03.1-.1.14-.2.14l-8.53-.27c-.11,0-.2-.09-.21-.21v-.28c.16-.09.28-.11.36-.06-.05-.02-.07,0-.07.05,0,.07.05.12.11.13.03,0,.05,0,.07-.02,2.05-1.29,4.07-2.46,6.05-3.5.36-.19.69-.3.99-.32.08,0,.12-.05.13-.13.02-.16-.03-.28-.16-.36l.46-.36c1.45-.09,2.43-.84,3.76-1.76Z"/>
      <path class="cls-43" d="M27.99,14.37s.06-.03.1-.03c.07,0,.1.04.1.11v.09s-.53.29-.53.29c-.45.35-.85.43-1.19.25-.08-.04-.16-.06-.24-.06-4.5.01-9,.18-13.48.51-3.94.29-8.21.6-11.64,2.34-.11.06-.11.11,0,.15.33.13.74.24,1.22.33,5.6,1.1,10.87,1.48,16.4,2,0,.05.06.09.17.12.08.02.13.08.14.16.01.12-.06.21-.21.26-3.91-.21-7.82-.55-11.71-1.03-2.16-.27-4.29-.73-6.38-1.39-.11-.04-.16,0-.15.12l.15,1.28c.01.09.07.16.16.19l1.85.49s-.04.08-.09.12l-1.71-.42c-.09-.02-.13.01-.12.11l1.05,9.84c.19,2.67.41,4.86.65,6.56.15,1.09.16,2.36.24,3.09.88,9.25,1.76,18.5,2.76,27.73.47,4.35.92,8.7,1.36,13.06.08.76.05,1.15.6,1.56.59.45,1.36.91,2.31,1.38,3.75,2.07,7.67,3.43,11.74,4.08,5.16.82,10.64.83,16.43.04,2.69-.37,4.79-.78,6.29-1.23,2.35-.67,4.45-1.52,6.3-2.56l1.52-1.03c.07-.05.12-.12.13-.21l5.16-51.7,1.13-10.44c-.04.1-.05.02-.03-.24l.18-1.47c.01-.1-.03-.14-.13-.11-2.18.6-4.34,1.05-6.48,1.36l-2.08.26c-.03-.17-.1-.34-.22-.52,2.44-.29,4.8-.68,7.08-1.16.61-.13,1.17-.3,1.69-.52.11-.05.16-.17.11-.28-.02-.05-.06-.08-.1-.11-1.2-.61-2.43-1.02-3.67-1.23l.26-.59c1.34.19,4.41.91,4.24,2.53-2.29,21.3-4.47,42.62-6.54,63.95-.31,3.25-.67,6.58-1.05,9.99-.09.34-.14.76-.16,1.26-.02.56-.21.89-.69,1.12-.99.48-2.02.87-3.08,1.18-10.94,3.15-22.9,2.94-33.91.36-2.01-.47-4.01-1.18-5.99-2.13-.08-.04-.13-.09-.17-.17l-.17-.35C4.98,68.6,2.58,43.49,0,18.41c-.4-3.86,25.44-3.92,27.98-4.04Z"/>
      <g class="cls-35">
        <g>
          <path class="cls-8" d="M10.23,84.38l.37,6.47" vector-effect="non-scaling-stroke"/>
          <path class="cls-8" d="M17.72,87.19l.06.15s.03.03.05.03c.03-.01.07-.02.1-.03.04-.01.06,0,.06.04v.71c0,.08.06.15.14.16,2.62.38,3.87,1.58,5.29,3.79.12.18.32.35.6.5.08.04.15.04.23,0,.42-.19.85-.36,1.29-.48.82-.24.5-2.15.31-2.65-.03-.09-.09-.13-.18-.13-.5-.02-.82-.29-.95-.81" vector-effect="non-scaling-stroke"/>
          <path class="cls-10" d="M29.7,88.65s-.07.07-.18.07c-.01,0-.02.01-.02.02,0,0,0,.01.01.01l.09.03s.02.02,0,.03c-1.08.64-1.05,2.7-.96,3.72.03.41-.27.76-.67.79-.03,0-.06,0-.1,0-.5-.02-.67.12-.51.42" vector-effect="non-scaling-stroke"/>
          <path class="cls-11" d="M31.32,93.82c-.32-.67.04-1.06,1.06-1.18,1.79-.21,4.07-.13,6.11-.34,1.67-.16,3.03.34,4.69.15.22-.02.39-.2.41-.42l.54-5.08" vector-effect="non-scaling-stroke"/>
          <path class="cls-4" d="M49.46,91.35c.6-2.09.65-4.59.8-6.78" vector-effect="non-scaling-stroke"/>
          <path class="cls-3" d="M17.54,92.97l-.1,1.02c0,.09,0,.18.03.26l.31.89" vector-effect="non-scaling-stroke"/>
          <path class="cls-4" d="M51.23,91.94c-.15.19-.29.36-.43.51-.42.47-1.47.76-2.06,1.03-.1.05-.1.1-.02.16l.09.06" vector-effect="non-scaling-stroke"/>
          <path class="cls-4" d="M32.91,96.22c-.3-.39-1.09-.22-1.5-.25-.09,0-.15-.05-.17-.14-.14-.56-.06-1.11.24-1.64" vector-effect="non-scaling-stroke"/>
          <path class="cls-4" d="M31.34,96.52l-.11.63c-.02.09,0,.16.06.23.11.13.13.27.04.41" vector-effect="non-scaling-stroke"/>
          <path class="cls-7" d="M50.63,94.24l-3.5.99c-.08.02-.14.08-.17.16-.04.1-.03.2.01.29" vector-effect="non-scaling-stroke"/>
          <path class="cls-4" d="M51.17,93.55c-.12.07-.23.09-.35.07-.08-.01-.16,0-.24.02l-2.77.94c-.1.03-.18.01-.25-.07-.04-.05-.06-.1-.06-.16" vector-effect="non-scaling-stroke"/>
        </g>
      </g>
      <path class="cls-47" d="M27.66,14.83l.09.09c.07.07.07.14-.01.21-.35.29-.76.45-1.2.47-.09,0-.18.03-.26.07l-.42.2s-.06.08-.03.12c.02.03.06.05.1.04l.82-.29c.05-.02.11.01.13.07,0,.01,0,.02,0,.03v.07s-.02.07-.05.08l-.93.45c-5.95-.32-11.82-.08-17.63.74-.32.05-.63.14-.95.27-.1.05-.11.1-.02.18.36.29.75.46,1.19.51,2.91.31,5.84.45,8.12,1.09l2.13,1.11c-5.53-.52-10.8-.9-16.4-2-.48-.1-.89-.21-1.22-.33-.12-.05-.12-.1,0-.15,3.42-1.73,7.69-2.05,11.64-2.34,4.49-.33,8.98-.5,13.48-.51.08,0,.16.02.24.06.35.18.75.09,1.19-.25Z"/>
      <path class="cls-50" d="M28.6,15.85c.13.08.18.2.16.36,0,.08-.05.13-.13.13-.3.02-.63.13-.99.32-1.98,1.04-4,2.21-6.05,3.5-.06.03-.13.02-.17-.04-.01-.02-.02-.05-.02-.07,0-.05.03-.07.07-.05,2.42-1.71,4.51-3.35,7.13-4.16Z"/>
      <path class="cls-21" d="M54.83,16.53c1.24.2,2.47.61,3.67,1.23.1.05.15.18.09.28-.02.05-.06.08-.11.1-.52.22-1.08.39-1.69.52-2.28.48-4.64.86-7.08,1.16,1.01-1.14,1.88-2.37,2.61-3.69.04-.08.1-.11.19-.09l2.32.49Z"/>
      <path class="cls-34" d="M25.9,16.45c-1.2.64-2.42,1.11-3.66,1.39-2.2.5-5.38.31-8.02.55-.06,0-.11.06-.1.12,0,.05.04.09.09.1l2.54.54c-.09.03-.14.06-.14.08-2.27-.64-5.2-.78-8.12-1.09-.43-.05-.83-.21-1.19-.51-.09-.07-.08-.13.02-.18.31-.14.63-.23.95-.27,5.8-.82,11.68-1.07,17.63-.74Z"/>
      <path class="cls-18" d="M5.43,18.28c-.13.19-.3.3-.38.24-.08-.05-.04-.25.09-.44.13-.19.3-.3.38-.24.08.05.04.25-.09.44Z"/>
      <path class="cls-28" d="M36.41,20.68c-1.03-.29-2.1-.41-3.22-.36l-.65-1.41c-.06-.13-.02-.23.12-.29,2.47-.94,5.91.5,7.87,1.98.03.02.04.07.02.1-.01.02-.04.03-.06.03l-4.07-.05Z"/>
      <path class="cls-21" d="M18.83,20.89c3.66.23,7.29.34,10.89.32.11,0,.2.09.19.2,0,.06-.02.11-.07.14l-1.44,1.25c-.45-.1-.83-.15-1.13-.15-2.97.05-5.94-.04-8.91-.25l-7.04-.64-8.58-1.22-1.85-.49c-.09-.02-.15-.1-.16-.19l-.15-1.28c-.01-.12.04-.16.15-.12,2.09.66,4.22,1.13,6.38,1.39,3.9.48,7.8.83,11.71,1.03Z"/>
      <path class="cls-57" d="M32.65,18.61c-.14.06-.18.16-.12.29-.2.03-.34.02-.43-.02-.04-.02-.06-.07-.04-.1,0-.01.02-.03.03-.03.16-.1.34-.14.56-.14Z"/>
      <path class="cls-54" d="M25.66,18.93s-.05-.01-.07-.02c-.03,0-.04-.04-.03-.06,0,0,0-.01.01-.02.17-.16.36-.18.58-.07.06.03.08.11.05.17,0,0-.01.02-.02.03-.14.14-.29.14-.45.02-.02-.02-.04-.03-.07-.04Z"/>
      <path class="cls-31" d="M58.44,20.29c-2.08.56-4.15.95-6.21,1.17l-.21-1.39c2.14-.31,4.29-.77,6.48-1.36.1-.03.14.01.13.11l-.18,1.47Z"/>
      <path class="cls-42" d="M33.18,20.32c1.12-.05,2.2.07,3.22.36-2.26.19-3.87-.15-5.79.04-.08,0-.15-.05-.16-.13,0-.02,0-.03,0-.05.15-.58,1.15-2.15,1.87-1.25.21.27.5.61.86,1.02Z"/>
      <path class="cls-33" d="M35.51,19.22c.05.13.02.25-.06.28-.08.03-.18-.05-.23-.18-.05-.13-.02-.25.06-.28.08-.03.18.05.23.18Z"/>
      <path class="cls-21" d="M52.01,20.07l.21,1.39c-2.1.31-4.2.57-6.29.76-.29.03-.45-.07-.46-.3,0-.11.05-.21.15-.26,1.39-.73,2.83-1.18,4.32-1.33l2.08-.26Z"/>
      <path class="cls-47" d="M2.65,20.66l1.53.32c-.27,3.04-.11,6.04.49,8.99.02.09,0,.15-.08.2l-.08.05-2.64-.04-1.05-9.84c-.01-.09.03-.13.12-.11l1.71.42Z"/>
      <path class="cls-30" d="M44.62,21.63c-.14-.15-.32-.19-.55-.13l-1.52-.59s-.07-.07-.05-.11c.02-.04.06-.06.1-.06,1.5.31,3-.19,4.53-.36.07,0,.14.05.14.12,0,.05-.02.11-.07.13l-2.02.94c-.08.04-.17.05-.26.04-.09-.01-.19,0-.29.01Z"/>
      <path class="cls-44" d="M2.75,20.55l8.58,1.22c-.17.16-.39.26-.65.32-.02-.03-.04-.06-.04-.08,0-.04-.03-.07-.07-.07l-6.38-.95-1.53-.32c.05-.04.08-.08.09-.12Z"/>
      <path class="cls-21" d="M58.46,20.53l-1.13,10.44-2.09.35s-.04-.04-.05-.05c-.05-.04-.07-.1-.06-.16l.82-9.28c0-.08-.02-.16-.08-.22l-.35-.36,2.93-.72Z"/>
      <path class="cls-21" d="M4.18,20.98l6.38.95s.07.03.07.07c0,.02.02.05.04.08-3.59,1.14-4.01,4.19-4.14,7.42,0,.09-.05.16-.14.18l-.46.14-1.5.47s.05-.04.07-.07l.08-.05c.07-.05.1-.12.08-.2-.6-2.95-.76-5.95-.49-8.99Z"/>
      <path class="cls-21" d="M39.85,21.03l.25.8c.02.08.01.17-.04.23-.24.34-.38.72-.42,1.13-.01.13-.09.19-.22.16-.71-.15-1.31.04-1.96-.05-.51-.07-1.02-.13-1.53-.19-.46-.67-1.07-1.18-1.8-1.53-.12-.02-.16-.15-.1-.39l5.84-.15Z"/>
      <path class="cls-38" d="M39.85,21.03l1.51.08c-.3.31-.16.82.43,1.52-.06.65-.23,1.23-.52,1.75-.04.07-.03.16.02.22.07.09.08.2.02.35-.07.16,0,.36.17.43.13.05.27.02.37-.08.34-.36,1.19-1.44,1.71-.99.06.05.07.15.02.22,0,0,0,0,0,0l-.95.99c-.06.06-.14.09-.22.09-1.74-.06-3.27-.66-4.58-1.8-.15-.13-.49-.24-.68-.3-.16-.05-.29-.05-.39,0-.2.1-.2.27,0,.53-.31.01-.59-.29-.85-.92.51.06,1.02.12,1.53.19.65.09,1.25-.1,1.96.05.13.03.21-.03.22-.16.04-.41.18-.78.42-1.13.05-.07.06-.15.04-.23l-.25-.8Z"/>
      <path class="cls-28" d="M34.01,21.19c-.05.24-.02.37.1.39l1.33,1.17c.08.06.1.18.04.26-.06.08-.18.1-.26.04-.25-.16-.52-.22-.81-.19-1.74.16-3.48.16-5.22,0-.08,0-.16.03-.21.09l-.08.11c-.07-.06-.18-.09-.32-.08.33-.74,1.04-.8,1.56-1.24.07-.06.1-.14.09-.23v-.09c-.03-.11.02-.17.13-.17l3.65-.05Z"/>
      <path class="cls-25" d="M41.36,21.11l2.71.38c.23-.07.41-.02.55.13,0,.04,0,.08-.01.12l-.17.11h-.13c-.13.02-.14.07-.04.15l1.02.74.09.62s.03.04.05.04c.02,0,.03-.01.03-.03l.03-.11c.02-.06.02-.13,0-.19-.07-.18-.07-.35-.01-.52l6.62-.79c.79,2.66,1.19,5.34,1.18,8.04,0,.12-.05.16-.16.12l-.22-.07c-.04-.13-.17-.27-.4-.41-1.08-.67-2.4-1.58-3.96-2.74-.74-.35-1.93-.87-2.46-1.55-.16-.21-.34-.45-.54-.69l-1.6-.48c-.76-.32-1.48-.78-2.15-1.36-.59-.71-.73-1.22-.43-1.52Z"/>
      <path class="cls-31" d="M55.53,21.25l.35.36c.06.06.08.14.08.22l-.82,9.28c0,.06.01.12.06.16.02.02.03.03.05.05l-.49.08-1.06-.28-.48-.18-.32-1.08.22.07c.11.03.16,0,.16-.12,0-2.7-.39-5.37-1.18-8.04l3.44-.52Z"/>
      <path class="cls-49" d="M34.12,21.58c.74.35,1.34.86,1.8,1.53.26.63.55.93.85.92,1.6,1.36,3.47,2.46,5.61,3.29.73.28,1.3.76,1.71,1.44.01.14-.09.16-.31.08-.77-.88-1.6-1.49-2.51-1.84-1.18-.45-1.97-.79-2.36-1.03l-2.07-1.68c-.05-.04-.13-.03-.18.02-.03.03-.03.07-.02.11.13.47.09.93-.11,1.37-.04.1-.12.16-.22.19-2.1.59-4,1.58-5.68,2.98-.08.06-.16.07-.25.03l-.13-.06c-.12-.06-.12-.12-.02-.19,1.84-1.28,3.82-2.26,5.94-2.94.1-.03.17-.09.2-.19.26-.62.1-1.09-.48-1.42-.09-.05-.15-.12-.18-.22-.04-.13-.12-.21-.24-.24-.1-.03-.21-.01-.29.04-.4.26-.83.34-1.31.26-.09-.01-.17.04-.18.13,0,0,0,.02,0,.03.01.49-.17.89-.55,1.21-.08.07-.17.09-.27.06l-.7-.19c-.13-.03-.19-.12-.19-.25v-.57c0-.32-.24-.59-.55-.63-.9-.11-1.75-.37-2.53-.77l.08-.11c.05-.07.13-.1.21-.09,1.74.17,3.48.17,5.22,0,.29-.03.56.04.81.19.08.06.2.05.26-.04.06-.08.05-.2-.04-.26l-1.33-1.17Z"/>
      <path class="cls-57" d="M44.61,21.75l.38.21c.1.05.16.13.2.24.01.05.02.1.02.15,0,.04-.03.07-.07.07-.02,0-.03,0-.05-.02l-.66-.55.17-.11Z"/>
      <path class="cls-54" d="M11.33,21.77l7.04.64c.12.06.16.15.13.28l-2.41-.23s-.07.02-.08.06c0,.02,0,.04.02.06.06.07.14.11.25.14,1.75.43,3.44,1.29,5.05,2.57.06.08.03.15-.08.2-2.45-1.91-7.54-4.33-10.56-3.05-1.17.4-2.04,1.05-2.63,1.95-1.11,1.92-1.41,3.92-.92,6.01-.11-.09-.2-.1-.26-.03l-.16-.39c-.03-.08-.09-.11-.18-.08-.21.07-.41.05-.6-.08l.46-.14c.09-.03.14-.09.14-.18.13-3.23.55-6.27,4.14-7.42.26-.06.47-.16.65-.32Z"/>
      <path class="cls-21" d="M21.25,25.49l.12.26c-.12.2-.22.33-.32.4l-.34-.17c-.08-.04-.16-.04-.24-.02-.96.25-1.93.4-2.92.44-.85.03-1.57-.29-2.37-.54-1.58-.51-2.8-.58-4.2.26l-.6.52-.98,1.33-.38-.02c-.22-.12-.48-.13-.78-.02-.12.04-.16,0-.12-.12.45-1.18,1.24-2.14,2.36-2.89.57-.37.83-.73.79-1.07-.31-.35-.42-.68-.34-1.01.02-.08,0-.14-.05-.2l-.19-.21c3.02-1.29,8.11,1.14,10.56,3.05Z"/>
      <path class="cls-49" d="M18.37,22.41c2.97.21,5.93.29,8.91.25.3,0,.67.04,1.13.15l-1.38,1.58-1.87,2.09c-.12.14-.33.15-.47.03-.05-.04-.08-.09-.1-.15-.1-.34-.32-.57-.66-.68-.08-.02-.13-.07-.17-.14l-1.41-2.35c.07-.25.03-.37-.11-.37-1.25.03-2.5-.01-3.74-.13.04-.13,0-.22-.13-.28Z"/>
      <path class="cls-25" d="M10.69,22.44l.19.21c.05.06.07.12.05.2-.08.32.04.66.34,1.01l-.93.99c-1.11.74-2.17,1.86-2.42,3.18-.06.31-.15.6-.29.87-.03.06-.1.08-.16.06-.05-.02-.07-.07-.07-.12l.65-4.43c.58-.9,1.46-1.55,2.63-1.95Z"/>
      <path class="cls-21" d="M18.5,22.69c1.24.12,2.49.16,3.74.13.14,0,.17.12.11.37l-.24.71c-.29.33-.47.71-.52,1.12l-.24.28c-1.61-1.28-3.3-2.14-5.05-2.57-.11-.03-.2-.08-.25-.14-.03-.03-.02-.07,0-.1.02-.01.04-.02.06-.02l2.41.23Z"/>
      <path class="cls-18" d="M45.47,22.55c-.06.16-.06.33.01.52.02.06.03.13,0,.19l-.03.11s-.03.04-.06.03c-.02,0-.03-.02-.03-.03l-.09-.62c.07-.14.14-.2.19-.19Z"/>
      <path class="cls-42" d="M41.79,22.64c.67.58,1.38,1.04,2.15,1.36l1.13.58c.09.05.13.12.12.22-.08,1.23-.36,2.42-.84,3.56-.06.18-.15.32-.27.41-.41-.68-.98-1.16-1.71-1.44-2.14-.83-4.01-1.93-5.61-3.29-.21-.26-.21-.44,0-.53.1-.05.23-.04.39,0,.19.07.53.17.68.3,1.31,1.14,2.83,1.74,4.58,1.8.08,0,.16-.03.22-.09l.95-.99c.06-.06.06-.16,0-.22,0,0,0,0,0,0-.52-.45-1.37.63-1.71.99-.12.13-.33.14-.46.02-.1-.09-.13-.24-.08-.37.06-.15.05-.26-.02-.35-.05-.06-.06-.15-.02-.22.29-.51.46-1.1.52-1.75Z"/>
      <path class="cls-39" d="M28.58,22.97c.14,0,.25.03.32.08.79.4,1.63.66,2.53.77.32.04.55.31.55.63v.57c0,.13.06.21.19.25l.7.19c.1.03.19,0,.27-.06.38-.32.56-.73.55-1.21,0-.09.07-.16.16-.16,0,0,.02,0,.03,0,.47.08.91,0,1.31-.26.09-.06.19-.07.29-.04.12.04.2.12.24.24.03.1.09.17.18.22.58.33.75.8.48,1.42-.04.09-.11.16-.2.19-2.12.68-4.1,1.66-5.94,2.94-.11.07-.1.14.02.19l.13.06c.09.04.17.03.25-.03,1.68-1.4,3.58-2.39,5.68-2.98.1-.03.17-.09.22-.19.2-.44.24-.89.11-1.37-.02-.07.02-.13.09-.15.04-.01.08,0,.11.02l2.07,1.68c-.62.05-1.04.2-1.27.44-.57.62-1.27.94-1.8,1.75-.38.57-.8,1.11-1.27,1.62-.06.06-.14.1-.22.11l-1.58.13-1.46-.22-3.92-1.99c-.23-.6-.74-.93-1.53-1.02-.17-.02-.29-.16-.27-.33,0-.06.03-.11.06-.16l1.43-1.81,1.48-1.53Z"/>
      <path class="cls-53" d="M22.34,23.19l1.41,2.35c.04.07.1.11.17.14.34.11.56.34.66.68.05.17.24.27.41.22.06-.02.11-.05.15-.1l1.87-2.09s.05.07.07.11l-1.43,1.81c-.1.13-.08.32.05.42.05.04.1.06.16.06.79.08,1.29.42,1.53,1.02l-2.94-1.03c-.06-.02-.11.01-.13.07-.01.04,0,.09.04.11.43.3.9.54,1.41.73,1.83.68,3.62,1.44,5.39,2.26l2.23.43c.08.02.14.1.12.19-.01.05-.05.1-.1.11-.52.18-1.08.19-1.68.04-.61-.05-1.21-.1-1.81-.17-1.84-.21-3.92-1.24-5.67-1.89-.08-.01-.18.01-.31.08.4-1.01-.86-4-1.53-4.76-.13-.02-.23-.06-.3-.11l.24-.71Z"/>
      <path class="cls-40" d="M11.27,23.85c.04.34-.23.7-.79,1.07-.17-.06-.21-.09-.13-.08l.93-.99Z"/>
      <path class="cls-29" d="M22.1,23.89c.07.05.17.09.3.11-.21,0-.32.11-.31.34,0,.09-.03.16-.09.23l-.43.44c.06-.41.23-.78.52-1.12Z"/>
      <path class="cls-25" d="M15.18,24.75c-.63-.2-1.25-.2-1.88-.01-.13.04-.15,0-.06-.09.8-.91,1.54-.05,2.39-.23.06-.01.1-.08.09-.14,0-.01,0-.02-.01-.04l-.04-.08s-.02-.09.03-.12c.71-.39,1.32.88,1.67,1.4.04.05.02.12-.03.15-.04.03-.1.03-.14,0l-.52-.46c-.06-.05-.14-.07-.21-.05-.43.11-.79.04-1.08-.22-.06-.05-.13-.09-.2-.11Z"/>
      <path class="cls-52" d="M43.94,24l1.6.48c-.21,1.41-.54,2.7-.97,3.88h-.21c.47-1.14.75-2.33.84-3.56,0-.1-.03-.17-.12-.22l-1.13-.58Z"/>
      <path class="cls-38" d="M22.4,24.01c.67.76,1.93,3.74,1.53,4.76l-1.15.2-3.98.47s-.07,0-.1,0c-.2-.06-.36,0-.49.18l-.5-.07c.33-.42.69-.66,1.09-.71,0,.07.01.11.03.13.11.08.21.07.3-.03.73-.78,1.38-1.62,1.95-2.52.15-.24.3-.24.47-.02.46.65.89,1.32,1.28,2.02.02.04.06.08.1.1.09.05.1.03.05-.05l-1.63-2.7-.12-.26c.12-.05.14-.12.08-.2l.24-.28.43-.44c.06-.06.09-.14.09-.23,0-.23.09-.34.31-.34Z"/>
      <path class="cls-49" d="M8.06,24.4l-.65,4.43c0,.07.04.13.1.13.05,0,.1-.02.12-.07.13-.28.23-.57.29-.87.25-1.32,1.31-2.44,2.42-3.18-.08-.01-.03.01.13.08-1.12.75-1.91,1.71-2.36,2.89-.05.12,0,.16.12.12.3-.11.56-.1.78.02v.12c0,.1-.06.14-.16.11-.52-.14-.85.07-.97.65-.27,1.26-.03,2.24.74,2.95.21.2.32.15.31-.14-.04-1.32.11-2.54.47-3.66l.98-1.33.14.1c-.1.15-.17.32-.2.49-.3,1.75-.54,3.5-.73,5.25-.03.24-.12.42-.27.53-.92-.71-1.65-1.58-2.19-2.6-.49-2.09-.19-4.09.92-6.01Z"/>
      <path class="cls-49" d="M45.54,24.47c.2.25.38.48.54.69.52.68,1.72,1.19,2.46,1.55.14.93.14,1.7,0,2.32-1.41-.22-2.73-.28-3.97-.18-.09,0-.13-.03-.13-.12,0-.13.05-.26.15-.38.43-1.18.75-2.47.97-3.88Z"/>
      <path class="cls-37" d="M28.76,25.2s.04-.02.05,0c0,0,0,0,0,0,.47.68-.94,1.43-1.36,1.6-.06.02-.12-.01-.14-.07-.01-.04,0-.09.04-.12.55-.39,1.02-.86,1.4-1.41Z"/>
      <path class="cls-48" d="M21.05,26.15l-.33.39c-1.14-.05-2.26-.03-3.37.07-.84.08-1.4-.28-2.15-.55-1.36-.49-2.61-.53-3.88.02l-.35.03c1.39-.85,2.61-.77,4.2-.26.8.26,1.52.58,2.37.54.99-.04,1.96-.18,2.92-.44.08-.02.16-.01.24.02l.34.17Z"/>
      <path class="cls-21" d="M20.72,26.54l-.79,1.09c-.07-.05-.12-.07-.15-.07-.53-.74-1.56-.31-2.31-.24-.09,0-.18,0-.25-.05-.82-.46-1.75.6-1.95,1.25-.05.28-.14.49-.24.62-.5.49-1.08.81-1.75.95-.07.02-.13.04-.16.08-.06.06-.08.11-.08.17-.22.22-.29.43-.19.62.04.08.05.17.01.25-.27.67-.65,1.26-1.15,1.77-.07.07-.08.15-.03.24.05.09.04.17-.02.25-.05.07-.12.09-.2.04-.42-.23-.97-.44-1.66-.63-.16-.04-.23-.18-.2-.4.19-1.75.43-3.5.73-5.25.03-.18.1-.34.2-.49l.8-.65c1.28-.55,2.53-.51,3.88-.02.74.27,1.31.63,2.15.55,1.1-.1,2.23-.12,3.37-.07Z"/>
      <path class="cls-52" d="M21.37,25.75l1.63,2.7c.05.08.03.1-.05.05-.04-.03-.08-.06-.1-.1-.39-.7-.82-1.37-1.28-2.02-.16-.23-.32-.22-.47.02-.56.91-1.21,1.75-1.95,2.52-.09.1-.19.11-.3.03-.02-.02-.03-.06-.03-.13l1.11-1.19.79-1.09.33-.39c.1-.06.21-.2.32-.4Z"/>
      <path class="cls-24" d="M38.91,25.97c.39.23,1.18.57,2.36,1.03.9.34,1.74.96,2.51,1.84l-8.01,1.22-3-.03,1.58-.13c.09,0,.16-.04.22-.11.47-.5.89-1.04,1.27-1.62.53-.81,1.23-1.13,1.8-1.75.23-.25.65-.39,1.27-.44Z"/>
      <path class="cls-18" d="M11.32,26.08l-.8.65-.14-.1.6-.52.35-.03Z"/>
      <path class="cls-46" d="M27.4,27.82l3.92,1.99c-.06-.06-.11,0-.15.16-1.76-.83-3.56-1.58-5.39-2.26-.51-.19-.99-.44-1.41-.73-.05-.04-.05-.1-.02-.15.03-.03.07-.05.11-.04l2.94,1.03Z"/>
      <path class="cls-57" d="M48.54,26.72c1.55,1.15,2.87,2.07,3.96,2.74.23.14.36.27.4.41l.32,1.08-4.68-1.9c.14-.62.14-1.39,0-2.32Z"/>
      <path class="cls-48" d="M19.78,27.57c-.34-.02-.67-.04-.99-.07-.65-.07-1.32.16-2.07-.13-.11-.04-.23-.01-.3.08l-.93,1.08s-.09.06-.15.04c-.02-.01-.05-.02-.07-.03.2-.65,1.13-1.71,1.95-1.25.08.04.16.06.25.05.75-.07,1.78-.5,2.31.24Z"/>
      <path class="cls-42" d="M19.78,27.57s.08.02.15.07l-1.11,1.19c-.4.06-.76.29-1.09.71-3.02.33-3.98,1.05-5.51,3.6-.1.18-.12.44-.04.79-.21.19-.25.27-.12.24-1.08-.3-1.99-.68-2.74-1.17.15-.11.24-.29.27-.53-.03.23.04.36.2.4.68.19,1.24.39,1.66.63.08.04.15.03.2-.04.06-.08.07-.17.02-.25-.05-.09-.04-.16.03-.24.5-.51.88-1.1,1.15-1.77.03-.09.03-.17-.01-.25-.1-.19-.03-.4.19-.62.12.08.24.09.35.03.24-.12.74-.39,1.49-.82,1.01-.58,2.07-.85,3.17-1.2.16-.05.27-.12.32-.22.02-.04,0-.09-.04-.12-.02-.01-.05-.01-.07,0l-3.23,1.14c.11-.13.19-.34.24-.62.02.01.05.02.07.03.06.02.11.01.15-.04l.93-1.08c.08-.09.2-.12.3-.08.75.29,1.41.07,2.07.13.32.03.65.05.99.07Z"/>
      <path class="cls-28" d="M9.02,27.94l.38.02c-.36,1.12-.51,2.34-.47,3.66,0,.29-.09.34-.31.14-.76-.71-1.01-1.69-.74-2.95.13-.58.45-.79.97-.65.1.03.15,0,.15-.11v-.12Z"/>
      <path class="cls-48" d="M13.03,30.34c0-.06.03-.12.08-.17.04-.03.09-.06.16-.08.67-.14,1.25-.46,1.75-.95l3.23-1.14s.1,0,.11.05c0,.02,0,.05,0,.07-.05.1-.16.17-.32.22-1.1.35-2.15.62-3.17,1.2-.75.43-1.25.71-1.49.82-.11.05-.23.04-.35-.03Z"/>
      <path class="cls-41" d="M44.36,28.35h.21c-.1.12-.15.25-.15.38,0,.09.04.13.13.12,1.24-.1,2.57-.03,3.97.18l4.68,1.9.48.18-.25,5.57c0,.17-.15.31-.33.3-.1,0-.19-.05-.24-.13l-.59-.84c-1.02-1.51-2.12-2.69-4-2.9l.24-3.41c.01-.17-.11-.31-.28-.32,0,0,0,0,0,0-1.24-.08-2.54-.24-3.77.1-.66.19-1.42.43-1.99.4-.18-.01-.25-.11-.19-.28l.04-.11c.02-.06-.02-.12-.08-.14-.02,0-.04,0-.06,0-2.13.5-4.28.73-6.44.71l8.01-1.22c.22.09.33.06.31-.08.12-.09.21-.23.27-.41Z"/>
      <path class="cls-56" d="M24.25,28.69c1.18,2.44,4.44,2.25,7.09,2.36.09,0,.16-.03.22-.09l.18-.21c.6.15,1.16.14,1.68-.04.08-.03.12-.12.09-.2-.02-.05-.06-.09-.11-.1l-2.23-.43c.04-.16.09-.22.15-.16l1.46.22,3,.03c2.16.03,4.3-.21,6.44-.71.06-.01.12.02.14.08,0,.02,0,.04,0,.06l-.04.11c-.05.17,0,.27.19.28.57.04,1.33-.21,1.99-.4,1.23-.35,2.53-.18,3.77-.1.17,0,.3.15.29.32,0,0,0,0,0,0l-.24,3.41-1.24.81c-.9.68-2.05,2.19-1.24,3.32.05.06.14.08.2.03,0,0,0,0,0,0,.04-.03.05-.08.04-.15.16.03.25-.01.27-.13.05-.34.05-.74,0-1.23,0-.04.02-.08.06-.08.03,0,.06,0,.07.03l.13.18c.06.08.14.11.24.09l1.48-.32c.1-.02.17-.08.22-.18l.37-.78c.04-.09.1-.1.18-.03.5.5.82,1.1.97,1.79.02.09.07.16.13.22l1.78,1.5c.38.23.65.5.82.81.05.08.05.16.01.25-.97,2.18-3.32,2.1-4.73.41-.06-.07-.05-.19.02-.25.02-.01.03-.02.05-.03.26-.09.41,0,.46.26.02.1.1.2.26.28.06.03.07.02.04-.04-.22-.47-.33-.97-.32-1.5,0-.1-.05-.13-.14-.1-.63.2-1.02.36-1.19.47-.14.09-.15.23-.03.42-.23.14-.4.34-.5.58-.03.07-.09.11-.16.12l-.34.03c-.11.01-.14.07-.09.16.67,1.24,1.64,2.27,2.9,3.12-.09,2.64-.22,5.3-.4,7.99-.03.4-.18.9-.21,1.36,0,.04.03.07.07.07.03,0,.05-.02.06-.04.39-.9,1.17-1.1,1.87-.4.06.06.09.14.09.22l-.07,2.97-2.55-2.69c-1.24-1.07-3.61-4.05-5.22-1.56-.04.06-.05.12-.04.17,0,.07.04.13.09.18.06.07.11.06.14-.03.22-.63.62-.98,1.21-1.03.04.16.03.27-.04.34-.2.17-.4.42-.6.73-.91,1.44-2.02,2.78-3.33,4.03-.57.54-1.13,1.37-1.9,1.9-.68.47-1.68.68-2.52,1.01-.08.03-.14.08-.19.15-.89,1.25-.47,2.01.43,3.16.8,1.04,1.37,2.2,1.7,3.5.02.08.08.15.15.19.73.36,1.42.78,2.07,1.26,4.68,3.44,8.88.34,12.09-3.13.05.53-.11,1.11-.51,1.74-1.08,1.75-2.12,2.86-4.1,3.59-2.77,1.02-5.44,1.43-8.18.14-1.97-.98-3.49-2.38-4.55-4.2-.21-.36-.49-.71-.82-1.04-.33-.33-.64-.68-.91-1.07-.15-.94,0-1.85.44-2.75,0-.01,0-.03-.01-.03,0,0,0,0,0,0-.03,0-.05-.02-.06-.03,0,0,0,0,0,0-.5.93-.65,1.89-.45,2.88l.22.32c-.05.04-.09.11-.12.21-.02.07-.06.09-.13.07l-.18-.07c-.16-.06-.22,0-.19.16.44,2.63.36,5.25-.24,7.84-.02.08.01.13.09.15.44.12.8.37,1.08.75l-5.55-2.73c-.26-.35-.72-.55-1.38-.59.04.08.05.04.03-.14.09.05.14.07.16.07.09-.06.13-.17.09-.25-.51-1.06-1.26-1.9-2.25-2.52-.04-.02-.05-.07-.02-.11,0-.01.02-.03.04-.03l1.38-.5c.83-.71,1.74-1.17,2.73-1.36,1.13-1.23,1.97-2.7,2.53-4.43.19-.58.55-.98.86-1.49l.16-.18c.06-.07.07-.15.04-.23-.08-.19-.19-.33-.34-.44.62-.4.98-.86,1.1-1.38-.05-.16.06-.26.35-.31l-.11.85c-.03.19.01.2.12.04.88-1.41-.73-3.58-1.42-4.69-.06-.09-.03-.14.08-.13,1.23.08,4.35-1.19,5.23-2.08.35-.35.33-.37-.06-.07-.56.45-3.33,1.82-4.13,1.62-.53-.13-.81-.13-1.28-.08-.09,0-.16-.02-.23-.08-.16-.16-.27-.37-.33-.62.77.21,1.57.15,2.41-.19.58-.34,1.26-.97,2.02-1.88.64-.77,1.72-1.68,2.73-2.31,1.2-.74,3.24-1.76,4.11-2.84.05-.06.14-.07.2-.02.03.02.05.06.05.1.15,1.28-1.72,2.65-2.61,3.35-1.1.87-1.83,1.61-2.64,2.58-.02.02-.02.04-.01.06.01.04.04.05.07.01,1.55-1.76,3.6-3.18,5.17-4.73,1.19-1.17-.55-2.95-1.24-3.95l.82-.61c.06-.05.09-.11.09-.19-.02-.22-.08-.44-.19-.64-1.12-2.14-2.92-4.37-5.34-5.05-.47-.13-.48-.29-.03-.48,1.45-.58,3.87-1.7,4.73-3.12.06-.11.04-.18-.08-.21-.59-.17-1.12,0-1.58.5-.62.68-1.56,1.2-2.33,1.86-.52.45-1.65.74-2.05-.07-.23-.47-1.48-1.73-2.1-1.26-.04.03-.07.06-.08.1-.03.09,0,.14.09.14.19.02.37.12.55.31-1.7,1.3-3.27,2.7-4.7,4.21-1.78,1.87-3.38,2.83-4.24,5.45-.12.35-.02.52.3.5l.16.2-.34.28c-.81-.87-2.43-3.04-3.51-1.73-1.04.2-2.11.18-3.21-.05-1.46-.3-2.22-.35-3.16.73-.43.49-1.41,1.58-2.96,3.27-1.68,1.74-3.09,3.69-4.23,5.85-.14.28-.23.58-.25.91,0,.09-.07.16-.15.16-.09,0-.16-.07-.16-.15l-.25-2.77-.28-.81c.68-.16,1.23-.46,1.65-.9.07-.07.08-.15.04-.23l-.67-1.29c-.41-.49-.69-1.08-.85-1.79,0-.03,0-.03.03-.02.14.1.31,0,.51-.31.29.56.51,1.23,1.02,1.57.51.34,1.46.7,1.97.21.06-.06.05-.08-.03-.06-.08.02-.15.06-.21.11-.06.06-.14.09-.23.09-.83,0-1.45-.32-1.87-.98-.23-.36-.22-.92-.46-1.36-.05-.1-.11-.1-.18-.01-.04.05-.06.15-.05.28-.04-.22-.16-.31-.34-.28.1-.22.07-.43-.1-.63-.05-.06-.15-.06-.2,0-.02.02-.04.05-.04.08-.06.32-.22.58-.47.76l.68-1.36.32-.26c.07-.06.11-.04.11.05v.18c0,.07.04.12.11.13.4.07.73,0,1.01-.23.61-.26.67-.38.18-.35.24-.34.36-.68.36-1,1.74.74,2.46,2.05,2.17,3.92t0,0c.79-1.86-.78-3.75-2.58-4.1-.97-.28-1.36.32-2.26.31.23-.29.24-.46.04-.52.41-.24.72-.22.93.04.06.07.08.06.08-.03,0-.21-.1-.31-.3-.3-1.01.05-1.85-.42-2.52-1.42-.28-.25-.31-.58-.07-.99.05-.08.11-.12.2-.13.41-.04.68-.18.8-.44l.37.15c.1.04.14,0,.14-.1-.02-.54-.14-.83-.37-.86-.38-.1-.73-.01-1.02.24-.06.05-.13.08-.21.09-.51.06-.98.24-1.41.53-.1.07-.24.05-.31-.05-.07-.1-.05-.24.05-.32l1.85-1.45c1.64.51,2.68.74,3.74,2.2.05.07.06.16.02.24-.35.67-.74,1.3-1.18,1.91,0,.01-.01.03-.01.04v.11s0,.04.03.01l1.39-2.01c.09-.14.24-.23.4-.25,1.09-.15,3.26-.6,4.09.07.29.57,1.5,2.18,2.38,1.87.08-.03.17-.04.26-.02,1.31.25,2.84.16,3.64-.95.82-1.14,1.35-3.13,1.47-4.52.16-.34.38-.33.66.03.13.16.35.18.51.06,0,0,.01-.01.02-.02,1.46-1.34,1.1-2.93.64-4.63l1.15-.2c.13-.06.24-.09.31-.08Z"/>
      <path class="cls-46" d="M24.25,28.69c1.75.65,3.84,1.68,5.67,1.89.6.07,1.2.12,1.81.17l-.18.21c-.06.07-.13.1-.22.09-2.64-.12-5.91.08-7.09-2.36Z"/>
      <path class="cls-46" d="M22.79,28.96c.46,1.7.81,3.29-.64,4.63-.15.14-.38.13-.51-.02,0,0-.01-.01-.02-.02-.28-.36-.5-.36-.66-.03-.21-1.82-1.12-3.12-2.73-3.92.12-.18.28-.24.49-.18.03,0,.06.01.1,0l3.98-.47Z"/>
      <path class="cls-54" d="M17.73,29.54l.5.07c1.61.79,2.52,2.1,2.73,3.92-.12,1.4-.64,3.38-1.47,4.52-.8,1.12-2.33,1.2-3.64.95-.09-.02-.17-.01-.26.02-.88.31-2.09-1.29-2.38-1.87l-1.03-3.22c-.08-.35-.07-.62.04-.79,1.53-2.55,2.48-3.27,5.51-3.6Z"/>
      <g class="cls-36">
        <g>
          <path class="cls-16" d="M19.05,30.43l-2.4-.11" vector-effect="non-scaling-stroke"/>
          <path class="cls-6" d="M16.64,30.32c-.25.23-.7.27-1.37.11" vector-effect="non-scaling-stroke"/>
          <path class="cls-14" d="M20.47,33.96l-1.08,1.23" vector-effect="non-scaling-stroke"/>
          <path class="cls-12" d="M19.39,35.19c-1.56.83-1.98-.11-2.52-1.26-.02-.05-.09-.08-.14-.05-.03.01-.05.03-.06.06l-.22.57" vector-effect="non-scaling-stroke"/>
          <path class="cls-14" d="M16.45,34.5l-2,.27" vector-effect="non-scaling-stroke"/>
          <path class="cls-13" d="M14.16,30.96c.79,1.11,1.92,1.76,3.38,1.95.16.02.19-.03.08-.15-.25-.3-.2-.55.15-.74.1-.05.16-.17.14-.29-.13-.66-.55-1.13-1.26-1.41" vector-effect="non-scaling-stroke"/>
          <path class="cls-15" d="M19.39,35.19c-.36.39-.94.47-1.73.26-.06-.02-.13.02-.14.08,0,.02,0,.04,0,.05.21,1.06-1.51,1.14-2.16,1.07-.1,0-.11-.05-.04-.12.11-.11.25-.15.44-.13" vector-effect="non-scaling-stroke"/>
          <path class="cls-2" d="M15.75,36.42c.46.08.92.01,1.4-.18.24-.1.31-.26.21-.47-.03-.07-.02-.13.04-.18.09-.08.11-.17.08-.27,0-.02-.02-.04-.03-.06-.13-.14-.25-.33-.36-.56-.07-.14-.25-.2-.39-.13-.09.05-.16.14-.16.25-.02.48-.11.9-.26,1.26-.06.14-.16.19-.31.14" vector-effect="non-scaling-stroke"/>
          <path class="cls-15" d="M15.95,36.2l.5-1.7" vector-effect="non-scaling-stroke"/>
          <path class="cls-9" d="M15.95,36.2c-.1.05-.16.12-.2.22" vector-effect="non-scaling-stroke"/>
        </g>
      </g>
      <path class="cls-41" d="M5.94,29.83c.19.13.39.15.6.08.08-.03.14,0,.18.08l.16.39,1.04,1.51c.04.06.06.12.07.19.01.2.03.4.05.59.02.11-.03.16-.14.15-.67-.06-1.61-.88-2.21-1.25-.21-.13-.4-.12-.57.03-.12.1-.13.27-.03.39.01.02.03.03.05.05,1.45,1.03,3.03,1.74,4.77,2.13.08.02.15,0,.21-.06.15-.16.35-.17.6-.04.58.32,1.03.36,1.35.12-.13.02-.09-.06.12-.24l1.03,3.22c-.83-.67-3-.21-4.09-.07-.16.02-.31.11-.4.25l-1.39,2.01s-.03.02-.03-.01v-.11s0-.03.01-.04c.43-.6.82-1.24,1.18-1.91.04-.08.03-.17-.02-.24-1.05-1.47-2.09-1.7-3.74-2.2l.08-.17c.03-.08.05-.15.04-.24l-.42-4.12,1.5-.47Z"/>
      <path class="cls-57" d="M19.05,30.43l-2.4-.11c-.25.23-.7.27-1.37.11,1.32-.7,2.58-.7,3.78,0Z"/>
      <path class="cls-57" d="M4.52,30.23s-.05.04-.07.07l.42,4.12c0,.08,0,.16-.04.24l-.08.17-1.85,1.45c-.1.07-.12.21-.05.32.07.1.21.12.31.05h0c.43-.29.9-.47,1.41-.53.08-.01.15-.04.21-.09.3-.26.64-.34,1.02-.24-.16.32-.21.59-.15.82-.13.26-.4.41-.8.44-.09,0-.16.05-.2.13-.24.42-.21.75.07.99.29.76.78,1.26,1.46,1.51.17.06.17.13,0,.19l-.43.16s-.04.04-.03.07c0,0,.01.02.02.02.04.02.08.03.12.02.22-.07.44-.16.67-.27.2.06.19.23-.04.52-1.84,1.51-2.52,4.57-1.02,6.56.4.54.87.84,1.41.89l.28.81c-.04,1.19.05,2.39.28,3.6-.05.78-.05,1.45.02,2,.29,2.44.51,4.89.65,7.33-1.29.54-2.12,1.46-2.48,2.77-.03.11,0,.16.12.15.1,0,.16-.17.17-.5.17.24.34.21.53-.08.04-.07.11-.1.19-.09.4.06.9-.01,1.51-.23l-.69,1.12s-.02.05-.02.07c0,.03.01.05.03.08.02.04.08.05.12.03,0,0,.01,0,.02-.02l.4-.45c.08-.09.13-.07.15.04.2,1.11.25,2.22.16,3.33-1.33.17-2.14-.38-2.45-1.65-.02-.09-.06-.1-.13-.04-.1.08-.11.22-.03.4.48,1.15,1.41,1.68,2.79,1.6l.56,8.41.73,7.04c-.95-.47-1.72-.94-2.31-1.38-.55-.41-.52-.8-.6-1.56-.44-4.35-.89-8.71-1.36-13.06-.99-9.23-1.88-18.48-2.76-27.73-.07-.74-.08-2.01-.24-3.09-.24-1.7-.46-3.88-.65-6.56l2.64.04Z"/>
      <path class="cls-53" d="M41.36,40.51c-1.19-1.74-2.33-2.93-3.4-3.56-.43-.25-.46-.22-.07.1,1.85,1.54,3.26,3.41,4.23,5.61.13.3.02.66-.27.82-1.92,1.11-3.91,2.15-5.5,3.7-.99.96-1.93,1.95-2.83,2.96-.84.34-1.64.4-2.41.19l-.57-.74c-.08-.14-.24-.24-.5-.29l-.15-.25-1.54-1.97-2.07-2.78c-.24-.65-.64-1.27-1.21-1.86l.34-.28c.13.18.25.27.38.27.22,0,2.13-3.87,3.24-4.21.58-.17.89,0,.94.54.08.82,0,2.48-.23,4.99-.04.48.14.78.17,1.27,0,.08.07.14.16.14,0,0,0,0,0,0,.36-.05.6-.27.7-.65.33-1.31.9-2.51,1.7-3.59,1.03-1.39,3.13-.89,4.22.08.41.36.92.65,1.53.87.08.03.17-.01.19-.09.01-.03.01-.06,0-.09-.3-1.17-1.55-2.69-2.18-3.78-.42-.72-.38-1.2.11-1.43,1.41,2.11,2.89,4.19,4.43,6.26.16.22.37.37.63.46.14.05.16.02.07-.1-1.66-2.11-3.19-4.32-4.59-6.61-.56-.91-.93-2.19-1.57-3.29-.43-.75-.91-1.22-1.42-1.41-.18-.19-.37-.29-.55-.31-.09,0-.12-.06-.09-.14.01-.04.04-.08.08-.1.62-.46,1.87.79,2.1,1.26.4.82,1.53.52,2.05.07.76-.66,1.7-1.18,2.33-1.86.46-.51.99-.68,1.58-.5.12.03.15.11.08.21-.86,1.42-3.28,2.54-4.73,3.12-.46.18-.45.34.03.48,2.42.68,4.21,2.91,5.34,5.05.1.2.17.41.19.64,0,.08-.02.14-.09.19l-.82.61Z"/>
      <path class="cls-53" d="M19.05,30.43c1.29.76,1.76,1.93,1.43,3.53l-1.08,1.23c-1.56.83-1.98-.11-2.52-1.26-.02-.05-.09-.08-.14-.05-.03.01-.05.03-.06.06l-.22.57-2,.27-1.54-.28c-.19-.03-.33-.18-.36-.37-.18-1.02.76-2.55,1.61-3.16.79,1.11,1.92,1.76,3.38,1.95.16.02.19-.03.08-.15-.25-.3-.2-.55.15-.74.1-.05.16-.17.14-.29-.13-.66-.55-1.13-1.26-1.41l2.4.11Z"/>
      <path class="cls-46" d="M7.14,30.4c.54,1.03,1.26,1.89,2.19,2.6.75.48,1.66.87,2.74,1.17-.32.23-.77.19-1.35-.12-.24-.13-.44-.12-.6.04-.06.06-.13.08-.21.06-1.73-.39-3.32-1.1-4.77-2.13-.12-.09-.15-.26-.07-.39.01-.02.03-.03.05-.05.17-.15.37-.16.57-.03.6.37,1.54,1.2,2.21,1.25.11,0,.15-.04.14-.15-.03-.2-.04-.4-.05-.59,0-.07-.03-.13-.07-.19l-1.04-1.51c.07-.07.16-.06.26.03Z"/>
      <path class="cls-42" d="M15.27,30.43c.67.16,1.13.12,1.37-.11.71.28,1.13.75,1.26,1.41.02.11-.03.23-.14.29-.36.19-.41.44-.15.74.1.12.08.18-.08.15-1.46-.18-2.58-.83-3.38-1.95l1.11-.53Z"/>
      <path class="cls-53" d="M57.33,30.97l-5.16,51.7c0,.08-.05.16-.13.21l-1.52,1.03,1.88-20.73c.25-1.26.34-2.53.25-3.8.06-.68.09-1.35.09-2,0-2.07.3-4.12.5-6.18.08-.77.24-2.16.5-4.17.65-5.02,1.08-11.08,1.24-15.45,0-.1-.08-.16-.24-.18l.49-.08,2.09-.35Z"/>
      <path class="cls-46" d="M53.7,31.11l1.06.28c.17.02.25.08.24.18-.16,4.36-.59,10.42-1.24,15.45-.26,2.01-.43,3.4-.5,4.17-.2,2.06-.51,4.11-.5,6.18,0,.65-.03,1.32-.09,2-.36-.4-.56-.83-.6-1.3.06-.56.03-1.13-.08-1.71-.1-.51-.14-.95-.11-1.31.27-2.97.6-5.93.99-8.89.07-.51.09-1.57.07-3.18,0-.09-.03-.16-.09-.22-.19-.19-.47-.19-.85,0,.78-.94,1.14-1.99,1.11-3.16,0-.08-.04-.12-.11-.13l-.12-.02c.09-.19.07-.43-.05-.71.16.04.25,0,.25-.12.06-.93-.25-1.75-.93-2.46.09-.05.14-.1.16-.15l.59.84c.1.14.3.18.44.08.08-.06.13-.15.13-.24l.25-5.57Z"/>
      <path class="cls-54" d="M33.88,31.8c.51.19.99.66,1.42,1.41.64,1.1,1.01,2.38,1.57,3.29,1.39,2.29,2.92,4.5,4.59,6.61.09.11.07.15-.07.1-.25-.09-.46-.24-.63-.46-1.54-2.07-3.01-4.15-4.43-6.26l-1.68-3.63c-.19-.33-.44-.52-.73-.57-.09-.02-.17,0-.25.05-1.6,1.12-3.04,2.4-4.33,3.85-.16.18-.14.2.06.07l4.89-3.23c.06.08.03.17-.08.25-1.75,1.33-3.45,2.48-5.23,3.48-1.32.74-4.26,3.46-3.75,5.2-.32.02-.42-.14-.3-.5.86-2.62,2.46-3.58,4.24-5.45,1.43-1.51,3-2.91,4.7-4.21Z"/>
      <path class="cls-57" d="M34.66,32.85l-.36.18-4.89,3.23c-.2.13-.22.11-.06-.07,1.29-1.45,2.73-2.74,4.33-3.85.08-.05.16-.07.25-.05.29.05.54.24.73.57Z"/>
      <path class="cls-30" d="M34.66,32.85l1.68,3.63c-.49.24-.53.72-.11,1.43.63,1.09,1.88,2.61,2.18,3.78.02.08-.03.17-.11.19-.03,0-.06,0-.09,0-.61-.22-1.12-.51-1.53-.87-1.09-.97-3.19-1.47-4.22-.08-.8,1.08-1.36,2.27-1.7,3.59-.09.38-.34.6-.7.65-.08.01-.15-.05-.16-.13,0,0,0,0,0,0-.03-.49-.21-.79-.17-1.27.23-2.51.31-4.18.23-4.99-.05-.54-.36-.72-.94-.54-1.11.34-3.03,4.21-3.24,4.21-.13,0-.25-.09-.38-.27l-.16-.2c-.51-1.74,2.44-4.46,3.75-5.2,1.78-1,3.48-2.15,5.23-3.48.11-.08.13-.16.08-.25l.36-.18Z"/>
      <path class="cls-53" d="M32.81,33.49c.31-.26.59-.44.63-.41.03.04-.2.28-.51.54-.31.26-.59.44-.63.41-.03-.04.2-.28.51-.54Z"/>
      <path class="cls-23" d="M48.28,33.11c1.88.21,2.99,1.4,4,2.9-.02.05-.07.1-.16.15-1.08-1.15-3.47-3.22-4.98-2.04-.09-.08-.12-.15-.1-.21l1.24-.81Z"/>
      <path class="cls-53" d="M52.13,36.17c.68.71.99,1.53.93,2.46,0,.12-.09.16-.25.12-.21-.25-.5-.45-.87-.58l-1.78-1.5c-.07-.06-.11-.13-.13-.22-.15-.69-.47-1.29-.97-1.79-.07-.07-.13-.06-.18.03l-.37.78c-.05.09-.12.15-.22.18l-1.48.32c-.1.02-.18,0-.24-.09l-.13-.18s-.07-.04-.1-.02c-.02.02-.04.04-.03.07.05.48.05.89,0,1.23-.02.12-.11.16-.27.13-.62-1.21.08-2.3,1.09-2.99,1.52-1.19,3.9.89,4.98,2.04Z"/>
      <path class="cls-23" d="M19.39,35.19c-.36.39-.94.47-1.73.26-.06-.02-.13.02-.14.08,0,.02,0,.04,0,.05.21,1.06-1.51,1.14-2.16,1.07-.1,0-.11-.05-.04-.12.11-.11.25-.15.44-.13.46.08.92.01,1.4-.18.24-.1.31-.26.21-.47-.03-.07-.02-.13.04-.18.09-.08.11-.17.08-.27,0-.02-.02-.04-.03-.06-.13-.14-.25-.33-.36-.56-.07-.14-.25-.2-.39-.13-.09.05-.16.14-.16.25-.02.48-.11.9-.26,1.26-.06.14-.16.19-.31.14l.5-1.7.22-.57c.02-.06.08-.08.14-.06.03,0,.05.03.06.06.54,1.15.96,2.09,2.52,1.26Z"/>
      <path class="cls-54" d="M47.05,33.92c-.02.06.01.13.1.21-1.02.69-1.71,1.78-1.09,2.99,0,.07,0,.12-.04.15-.06.05-.15.03-.2-.03,0,0,0,0,0,0-.81-1.13.34-2.64,1.24-3.32Z"/>
      <path class="cls-45" d="M20.47,33.96c-.09,1.87-.83,5-3.22,4.93-2.36-.07-3.64-1.8-4.44-3.85-.16-.41-.04-.53.37-.37.32.13.74.16,1.27.1l2-.27-.5,1.7c-.1.05-.16.12-.2.22-.19-.02-.34.02-.44.13-.07.07-.05.11.04.12.64.06,2.37-.02,2.16-1.07-.01-.06.03-.13.09-.14.02,0,.04,0,.05,0,.8.21,1.37.13,1.73-.26l1.08-1.23Z"/>
      <path class="cls-41" d="M15.75,36.42c.03-.1.1-.17.2-.22.15.05.26,0,.31-.14.15-.36.23-.78.26-1.26,0-.16.15-.29.31-.28.11,0,.2.07.25.16.11.23.23.42.36.56.02.02.03.04.03.06.03.1,0,.2-.08.27-.05.05-.07.11-.04.18.1.22.03.38-.21.47-.48.2-.94.26-1.4.18Z"/>
      <path class="cls-49" d="M5.66,36.59c-.07-.23-.02-.5.15-.82.23.04.35.32.37.86,0,.11-.04.14-.14.1l-.37-.15Z"/>
      <path class="cls-54" d="M41.36,40.51c.69,1,2.44,2.77,1.24,3.95-1.57,1.55-3.62,2.97-5.17,4.73-.03.03-.05.03-.07-.01,0-.02,0-.05.01-.06.82-.97,1.54-1.71,2.64-2.58.89-.7,2.76-2.07,2.61-3.35,0-.08-.08-.13-.16-.13-.04,0-.07.02-.1.05-.86,1.08-2.91,2.1-4.11,2.84-1.01.63-2.08,1.54-2.73,2.31-.76.91-1.43,1.54-2.02,1.88.9-1.01,1.84-2,2.83-2.96,1.59-1.54,3.58-2.59,5.5-3.7.29-.16.4-.52.27-.82-.98-2.2-2.39-4.07-4.23-5.61-.39-.32-.36-.36.07-.1,1.08.63,2.21,1.82,3.4,3.56Z"/>
      <path class="cls-23" d="M51.95,38.18c.36.13.65.32.87.58.12.28.14.52.05.71-1.54,2.82-4.14,1.53-5.66-.3-.12-.19-.11-.33.03-.42.17-.11.56-.27,1.19-.47.09-.03.14,0,.14.1,0,.53.1,1.03.32,1.5.03.06.01.07-.04.04-.16-.08-.24-.18-.26-.28-.04-.26-.2-.35-.46-.26-.09.03-.14.13-.11.22,0,.02.02.04.03.05,1.41,1.69,3.75,1.76,4.73-.41.04-.08.03-.17-.01-.25-.16-.31-.44-.58-.82-.81Z"/>
      <path class="cls-23" d="M4.72,38.16c.67,1,1.51,1.48,2.52,1.42.2-.01.31.09.3.3,0,.09-.03.1-.08.03-.21-.26-.52-.27-.93-.04-.22.11-.44.2-.67.27-.04.01-.08,0-.12-.02-.02-.02-.03-.05-.02-.08,0,0,.01-.02.02-.02l.43-.16c.17-.06.17-.13,0-.19-.68-.25-1.17-.75-1.46-1.51Z"/>
      <path class="cls-45" d="M47.2,39.17c1.52,1.83,4.12,3.12,5.66.3l.12.02c.07,0,.11.05.11.13.04,1.16-.33,2.22-1.11,3.16-.42.41-1.07.51-1.71.41-.51-.08-.94-.08-1.26,0-1.27-.84-2.23-1.88-2.9-3.12-.05-.1-.02-.15.09-.16l.34-.03c.08,0,.13-.05.16-.12.1-.24.27-.43.5-.58Z"/>
      <path class="cls-54" d="M8.75,40.07s-.02.04-.02.05c-1.07-.04-2,.37-2.78,1.24-1.25,1.61-1.42,3.34-.51,5.19.74,1.23,2.14,1.44,2.97.24.05-.06.05-.15.02-.22l-.52-1.15.67,1.29c.04.09.03.16-.04.23-.42.44-.98.74-1.65.9-.53-.06-1-.35-1.41-.89-1.5-1.99-.82-5.06,1.02-6.56.9,0,1.29-.59,2.26-.31Z"/>
      <path class="cls-50" d="M8.75,40.07c1.8.34,3.36,2.23,2.58,4.1t0,0c.3-1.87-.42-3.18-2.17-3.92-.15.04-.3,0-.44-.12,0-.02.01-.04.02-.05Z"/>
      <path class="cls-30" d="M8.73,40.13c.14.12.28.15.44.12,0,.32-.13.66-.36,1l-.18.35c-.27.22-.61.3-1.01.23-.07-.01-.11-.06-.11-.13v-.18c0-.1-.04-.11-.11-.05l-.32.26c-.17-.16-.55-.28-1.13-.35.78-.87,1.71-1.28,2.78-1.24Z"/>
      <path class="cls-54" d="M25.06,42.44c.57.59.98,1.21,1.21,1.86-.68-.9-3.09-4.31-4.31-3.72l-.42.12c1.08-1.31,2.7.86,3.51,1.73Z"/>
      <path class="cls-39" d="M21.54,40.7l.42-.12h.17c.27.03.48.27.46.55-.02.24-.2.43-.43.46-1.86.25-3.23-.13-5.02-.58-.46-.11-.93.11-1.13.54-.64,1.36-1.24,2.85-2.5,3.89-.06.05-.15.06-.22.03-.31-.15-.64-.14-.98.01-.07.03-.14.04-.21.02-.17-.04-.36-.03-.56.03l.68-.87c1.54-1.69,2.53-2.78,2.96-3.27.94-1.09,1.7-1.04,3.16-.73,1.1.23,2.17.25,3.21.05Z"/>
      <path class="cls-38" d="M26.27,44.3l2.07,2.78.87,1.5c-.21.09-.36.23-.44.41-.06.13-.11.21-.15.23-.08.04-.18.04-.31,0,.07-.07.1-.14.09-.21-.02-.19-.2-.33-.39-.3-.03,0-.06.01-.09.02l-9.23,3.61c-2.01.37-3.08,1.54-3.23,3.5,0,.07-.04.12-.11.14-.03.01-.06.03-.09.04-.14.07-.2.03-.19-.12l.08-1.2c0-.08,0-.16-.05-.24-.12-.22-.13-.45-.03-.69.04-.09.04-.17,0-.26-.62-1.47-2.58-2.94-3.81-3.95-.07-.06-.1-.13-.09-.22.09-.94-.08-1.84-.52-2.71l.87-1.11c.2-.06.38-.07.56-.03.07.02.14.01.21-.02.34-.16.67-.16.98-.01.07.03.16.02.22-.03,1.26-1.04,1.86-2.53,2.5-3.89.2-.43.67-.65,1.13-.54,1.78.44,3.16.82,5.02.58.27-.03.47-.28.43-.56-.03-.24-.22-.42-.46-.43h-.17c1.22-.61,3.63,2.8,4.31,3.7Z"/>
      <path class="cls-23" d="M8.8,41.25c.49-.02.43.09-.18.35l.18-.35Z"/>
      <path class="cls-38" d="M5.95,41.37c.58.07.96.19,1.13.35l-.68,1.36c-.72.93-.91,2-.57,3.21l-.02.13c-.01.08-.06.13-.15.13h-.21c-.91-1.85-.74-3.58.51-5.18Z"/>
      <path class="cls-57" d="M7.21,42.88l-.4.92c-.03.08-.04.16-.03.24l.17,1.24c0,.06-.02.13-.06.17-.25.21-.38.48-.4.79,0,.04-.02.08-.04.12-.08.1-.18.15-.32.14-.32-1.17-.23-2.31.27-3.41.25-.19.41-.44.47-.76.02-.08.09-.13.17-.11.03,0,.06.02.08.04.17.2.21.4.1.63Z"/>
      <path class="cls-41" d="M52.07,58.07l-1.62-2.73.07-2.97c0-.08-.03-.16-.09-.22-.71-.71-1.49-.5-1.87.4-.02.03-.06.05-.1.03-.02-.01-.04-.04-.04-.06.03-.46.18-.96.21-1.36.18-2.69.31-5.35.4-7.99.33-.09.75-.09,1.26,0,.64.1,1.28,0,1.71-.41.38-.19.67-.2.85,0,.06.06.09.14.09.22.02,1.61,0,2.67-.07,3.18-.39,2.96-.72,5.92-.99,8.89-.03.36,0,.8.11,1.31.12.58.14,1.15.08,1.71Z"/>
      <path class="cls-23" d="M7.59,43.3l-.03-.14c0-.13.01-.23.05-.28.07-.09.13-.08.18.01.24.44.23,1,.46,1.36.42.66,1.04.98,1.87.98.08,0,.17-.03.23-.09.06-.06.13-.09.21-.11.09-.02.1,0,.03.06-.51.48-1.47.13-1.97-.21-.51-.35-.73-1.02-1.02-1.57Z"/>
      <path class="cls-53" d="M7.21,42.88c.19-.03.3.06.34.28l.03.14c-.2.31-.37.41-.51.31-.02-.02-.03-.01-.03.02.16.71.44,1.31.85,1.79l.52,1.15c.03.07.03.16-.02.22-.83,1.21-2.23.99-2.97-.24h.21c.09-.01.14-.05.15-.14l.02-.13c.33.53.43.6.3.2.14.01.24-.03.32-.14.03-.03.04-.08.04-.12.02-.31.15-.58.4-.79.05-.04.07-.1.06-.17l-.17-1.24c-.01-.08,0-.16.03-.24l.4-.92Z"/>
      <path class="cls-46" d="M6.39,43.08c-.5,1.1-.59,2.24-.27,3.41.13.4.03.33-.3-.2-.34-1.21-.15-2.28.57-3.21Z"/>
      <path class="cls-54" d="M12.21,44.66l-.68.87-.87,1.11-1.52,2.3c-1.85,2.34-1.59,3.68-.08,6.06.26.41.34.78.25,1.13l-1.89-3.86c-.23-1.21-.32-2.41-.28-3.6l.25,2.77c0,.09.07.16.16.15.09,0,.16-.07.15-.16.02-.33.11-.63.25-.91,1.14-2.16,2.55-4.11,4.23-5.85Z"/>
      <path class="cls-57" d="M10.67,46.64c.44.87.61,1.77.52,2.71-.01.09.02.16.09.22,1.23,1.02,3.2,2.48,3.81,3.95.03.09.03.17,0,.26-.1.24-.1.47.03.69.04.07.06.15.05.24l-.08,1.2c-.01.16.05.2.19.12.03-.01.06-.03.09-.04.07-.02.11-.07.11-.14.14-1.97,1.22-3.14,3.23-3.5-1.37.7-2.43,1.13-2.87,2.55-.78,2.54.67,5.67,1.98,7.81.11.17.33.23.5.12.69-.42.84-1.06.45-1.9-.58-1.25-1.2-2.48-1.87-3.69-.4-.72-.2-1.09.14-1.75,1.19-2.29,3.43-3.1,5.69-3.83,1.91-.62,3.93-1.29,5.6-2.43.12.04.23.04.31,0,.04-.02.1-.1.15-.23.08-.18.23-.31.44-.41l.67.48.15.25c-.04.05-.12.07-.21.07-.38-.02-.43-.37-.91-.14-.1.05-.12.12-.06.21.16.25.44.62.84,1.11.65.8,1.67,2.61,3.05,5.42-.94.97-1.95,1.82-3.05,2.53l-4.19,2.85c-.06.04-.11.1-.15.17l-.23.46-4.75,3.35c-1.45.78-2.5.51-3.16-.8-1.39-2.78-2.97-5.16-4.8-7.68-.96-1.33-1.41-2.96-1.96-4.49-.01-.04-.02-.08-.01-.11,0-.04.02-.09.04-.13.04-.08.04-.15,0-.23l-1.32-2.97,1.52-2.3Z"/>
      <path class="cls-46" d="M29.89,49.06l-.67-.48-.87-1.5,1.54,1.97Z"/>
      <path class="cls-42" d="M28.32,49.22c-1.67,1.14-3.69,1.81-5.6,2.43-2.25.73-4.49,1.54-5.69,3.83-.34.65-.54,1.03-.14,1.75.67,1.21,1.29,2.44,1.87,3.69.39.84.24,1.48-.45,1.9-.17.1-.4.05-.5-.12-1.31-2.14-2.77-5.27-1.98-7.81.44-1.41,1.5-1.85,2.87-2.55l9.23-3.61c.18-.07.38.02.45.2.01.03.02.06.02.09.01.08-.02.15-.09.21Z"/>
      <path class="cls-53" d="M9.16,48.93l1.32,2.97c.03.08.03.16,0,.23-.02.04-.04.08-.04.13,0,.03,0,.07.01.11.55,1.53,1,3.16,1.96,4.49,1.83,2.52,3.4,4.9,4.8,7.68.66,1.31,1.71,1.58,3.16.8,1.5-1.03,3.03-2,4.62-2.89,2.4-1.36,3.95-2.49,5.7-4.25.33-.33.7-.64,1.11-.95.15.11.26.26.34.44.03.09.02.16-.04.23l-.16.18c-1.77,1.67-2.06,3.97-3.39,5.92-.99.19-1.9.65-2.73,1.36-.94.12-1.7.36-2.69.37-1.26.02-2.35.43-3.29,1.22-.36.06-.29-.13.21-.57.03-.02.03-.05,0-.08-.02-.02-.04-.03-.06-.03-.03,0-.06.01-.09.04-.47.45-.93.9-1.37,1.37-.06.06-.13.1-.21.11-1.48.25-2.68-.22-3.59-1.42-.05-.07-.04-.13.02-.18.57-.46,1.22-.72,1.96-.8.04,0,.06-.02.07-.06,0-.03,0-.05-.05-.05-.53-.02-1.05.02-1.58.1-.06.01-.11.04-.15.09-.1.13-.23.2-.37.22-.1,0-.15-.03-.17-.13-.24-1.5-1.12-2.56-2.1-3.64-1.05-1.16-1.7-2.5-2.23-3.97l-.8-1.88c.09-.35.01-.72-.25-1.13-1.52-2.38-1.77-3.72.08-6.06Z"/>
      <path class="cls-30" d="M30.03,49.31c.26.05.43.15.5.29.72,1.44,1.46,2.85,2.22,4.23.31.56.47,1.14.49,1.75-.29.05-.4.15-.35.31-.08-.08-.14-.05-.16.1-1.38-2.81-2.39-4.62-3.05-5.42-.4-.49-.68-.86-.84-1.11-.06-.09-.04-.16.06-.21.48-.23.53.12.91.14.1,0,.17-.02.21-.07Z"/>
      <path class="cls-54" d="M33.24,55.57c-.02-.6-.18-1.18-.49-1.75-.76-1.38-1.5-2.78-2.22-4.23l.57.74c.05.25.16.45.33.62.06.06.14.09.23.08.48-.05.75-.05,1.28.08.8.2,3.57-1.17,4.13-1.62.39-.31.41-.29.06.07-.87.89-4,2.15-5.23,2.08-.11,0-.14.04-.08.13.69,1.11,2.3,3.28,1.42,4.69-.1.16-.14.15-.12-.04l.11-.85Z"/>
      <path class="cls-50" d="M47.9,52.65c.01.08,0,.14-.03.18-.86-.78-2.54-2.74-3.79-2.45-.59.05-1,.4-1.21,1.03-.03.09-.08.1-.14.03-.05-.05-.08-.11-.09-.18,0-.05,0-.11.04-.17,1.62-2.49,3.98.49,5.22,1.56Z"/>
      <path class="cls-30" d="M47.87,52.83c2.01,1.76,3.46,3.95,4.34,6.59-.64-.4-2.79-1.58-3.09-.35-.37,1.53-.83,2.99-1.38,4.36-.02.08-.1.12-.18.1-.08-.02-.12-.1-.1-.18h0c.42-2.63.93-5.09,1.54-7.39.34-1.31-1.06-1.15-1.77-.87-.9.35-1.74,2.14-1.59,3.05.05.31.11.61.18.9.03.14-.05.27-.19.31-.05.01-.09,0-.14,0-.54-.18-1.01-.45-1.39-.82-1.16-1.03-2.39-1.29-3.68-.79-1.41.63-2.63,1.65-4.29,2.04-.13.03-.2-.02-.21-.15l-.03-.3c0-.06-.03-.08-.09-.04-.14.08-.26.08-.38-.01.04-.24.13-.44.25-.63.05-.08.12-.12.2-.15,1.01-.29,2.18-.56,2.95-1.34,2.21-2.23,3.83-3.9,5.21-6.42.07-.07.08-.18.04-.34,1.25-.29,2.93,1.67,3.79,2.45Z"/>
      <path class="cls-54" d="M44.04,50.72c-1.38,2.52-3,4.19-5.21,6.42-.77.78-1.94,1.05-2.95,1.34-.09.02-.16.07-.2.15-.12.18-.2.39-.25.63-.38,1.42.48,2.14,1.23,3.19.59.83.77,1.73,1.16,2.67.03.08.09.14.16.19.94.52,1.85,1.09,2.73,1.71,2.31,1.65,5.62.89,7.82-.64.85-.6,2.8-2.51,3.23-3.83.35-1.06.5-2.1.46-3.13-.89-2.64-2.33-4.83-4.34-6.59.03-.04.04-.1.03-.18l2.55,2.69,1.62,2.73c.04.47.24.9.6,1.3.09,1.27,0,2.54-.25,3.8-.31-.04-.47.08-.48.36-3.2,3.47-7.4,6.57-12.09,3.13-.65-.48-1.34-.9-2.07-1.26-.08-.04-.13-.11-.15-.19-.33-1.3-.89-2.46-1.7-3.5-.9-1.15-1.32-1.91-.43-3.16.05-.07.11-.12.19-.15.84-.33,1.84-.54,2.52-1.01.77-.53,1.34-1.36,1.9-1.9,1.31-1.25,2.42-2.6,3.33-4.03.2-.31.4-.56.6-.73Z"/>
      <path class="cls-53" d="M44.88,51.9s.08-.06.12-.04c.03.01.04.04.05.07.11.9.06,4.44-1.73,3.82-.09-.03-.14-.13-.11-.22,0,0,0-.01,0-.02l1.66-3.61Z"/>
      <path class="cls-56" d="M7.44,52.26l1.89,3.86.8,1.88c.23.8.53,1.58.91,2.33.52,1.06,1.47,2.03,2.16,3.14-.44-.06-.9-.43-1.36-1.1.05.02.07-.01.05-.11,0-.05-.03-.08-.07-.11-1.13-.64-2.37-.83-3.72-.56-.14-2.45-.36-4.89-.65-7.33-.06-.56-.07-1.22-.02-2Z"/>
      <path class="cls-50" d="M40.51,53.33c-.04.13-.13.23-.26.3-.05.03-.09.06-.11.11-.05.08-.12.13-.21.16-.07.02-.08,0-.03-.05l.55-.55c.06-.06.08-.05.05.03Z"/>
      <path class="cls-54" d="M36.31,56.91c-.06-1.11,1.97-2.08,2.86-2.52.01,0,.03,0,.03.02,0,0,0,.02,0,.02-1.01.71-2.43,1.09-2.76,2.49,0,.04-.03.06-.07.06-.04,0-.06-.03-.06-.07Z"/>
      <path class="cls-56" d="M52.21,59.42c.04,1.03-.11,2.07-.46,3.13-.43,1.31-2.37,3.23-3.23,3.83-2.2,1.53-5.51,2.3-7.82.64-.87-.62-1.78-1.19-2.73-1.71-.07-.04-.13-.11-.16-.19-.39-.94-.57-1.84-1.16-2.67-.75-1.06-1.61-1.77-1.23-3.19.12.09.25.09.38.01.05-.03.08-.02.09.04l.03.3c.01.13.08.18.21.15,1.65-.39,2.88-1.41,4.29-2.04-.65.57-1.08,1.26-1.28,2.05-.02.09.03.18.12.21.03,0,.07,0,.1,0,.11-.04.19-.01.26.09.06.08.13.11.23.1,1.69-.25,3.05-.5,4.24-1.65.39.37.85.64,1.39.82.13.04.28-.03.32-.16.01-.04.02-.09,0-.14-.07-.29-.13-.59-.18-.9-.15-.91.69-2.7,1.59-3.05.71-.27,2.11-.43,1.77.87-.61,2.3-1.12,4.76-1.54,7.39-.02.08.02.16.1.18.08.02.16-.02.18-.1h0c.55-1.37,1.01-2.83,1.38-4.36.29-1.23,2.44-.05,3.09.35Z"/>
      <path class="cls-23" d="M32.89,55.88c-.12.52-.48.98-1.1,1.38-.41.3-.78.62-1.11.95-1.75,1.76-3.31,2.89-5.7,4.25-1.58.9-3.12,1.86-4.62,2.89l4.75-3.35c1.83-.73,3.36-1.9,4.57-3.48,1.09-.72,2.11-1.56,3.05-2.53.02-.14.08-.18.16-.1Z"/>
      <path class="cls-53" d="M44.11,58.51c-1.19,1.15-2.55,1.41-4.24,1.65-.1.01-.17-.02-.23-.1-.07-.1-.16-.13-.26-.09-.09.03-.19,0-.22-.1-.01-.03-.02-.07,0-.1.2-.8.63-1.48,1.28-2.05,1.29-.5,2.52-.24,3.68.79Z"/>
      <path class="cls-41" d="M10.13,58c.53,1.47,1.18,2.81,2.23,3.97.99,1.09,1.86,2.14,2.1,3.64.02.09.07.14.17.13.15-.02.27-.09.37-.22.04-.05.09-.08.15-.09.53-.08,1.06-.11,1.58-.1.04,0,.06.02.05.05,0,.04-.03.06-.07.06-.74.07-1.39.34-1.96.8-.06.05-.07.11-.02.18.91,1.2,2.11,1.68,3.59,1.42.08-.01.15-.05.21-.11.45-.47.91-.93,1.37-1.37.03-.03.06-.05.09-.04.02,0,.05.01.06.03.02.03.02.05,0,.08-.5.44-.58.63-.21.57-2.21,2.25-2.44,5.21-.05,7.43.07.06.14.07.22.02.03-.02.06-.05.08-.09.04.05.1.08.18.09.08.01.12.06.13.13.02.14,0,.23-.08.3-.06.26-.16.43-.29.53-.07.05-.17.05-.23-.02-.19-.2-.41-.24-.66-.1-.25.14-.56.05-.7-.2-.44-.78-1.33-2.59-2.1-2.96-.08-.04-.13-.09-.16-.17-.41-.98-1.48-1.75-2.47-.92-.7.59-1.76,3.02-.24,3.32,1.61.32,2.79.11,3.86,1.66.05.07.07.15.07.24-.02,1.07-.44,1.79-1.25,2.16.11-2.5-1.03-3.64-3.4-3.44-1-1.97-.71-3.54.88-4.72.08-.06.19-.09.3-.09.93.04,1.68.43,2.26,1.16.06.07.13.11.23.11.64.02.52-.73.53-1.15,0-.09-.04-.17-.12-.21-.42-.24-.61-.59-.56-1.07,0-.07-.02-.13-.09-.16-1.37-.7-2.01-1.85-1.93-3.47-.25-.81-.6-1.45-1.05-1.93-.69-1.11-1.64-2.08-2.16-3.14-.37-.75-.67-1.53-.91-2.33Z"/>
      <path class="cls-54" d="M31.93,58.12c-.31.52-.67.91-.86,1.49-.56,1.72-1.4,3.2-2.53,4.43,1.33-1.95,1.62-4.25,3.39-5.92Z"/>
      <path class="cls-29" d="M29.68,58.51c-1.21,1.59-2.74,2.75-4.57,3.48l.23-.46c.03-.07.08-.13.15-.17l4.19-2.85Z"/>
      <path class="cls-23" d="M32.87,62.71c.07,0,.04.02-.09.08-.2-.99-.05-1.95.45-2.88,0,0,0,0,0,0,.01,0,.03.02.06.03.01,0,.02.02.02.03,0,0,0,0,0,0-.45.9-.59,1.81-.44,2.75Z"/>
      <path class="cls-37" d="M24.27,61.57l2.41-1.48s.07,0,.09.02v.02s.02.07-.01.09l-2.41,1.48s-.07,0-.09-.02v-.02s-.02-.07.01-.09Z"/>
      <path class="cls-23" d="M33.86,62.66s-.05-.02-.05-.04v-.04c-.02-1.28,0-2.33.07-2.34h.03c.06-.01.13,1.02.15,2.32,0,0,0,.01,0,.02v.04s-.02.05-.05.05h-.16Z"/>
      <path class="cls-54" d="M11.83,62.37c-1.12-.8-2.62-.74-3.91-.49-1.03.42-1.69,1.13-2.01,2.13-.02.32-.07.49-.17.5-.11.01-.15-.04-.12-.15.36-1.3,1.19-2.23,2.48-2.77,1.35-.27,2.58-.08,3.72.56.04.02.07.06.07.11.01.1,0,.13-.05.11Z"/>
      <path class="cls-53" d="M11.83,62.37c.47.67.92,1.04,1.36,1.1.45.47.8,1.12,1.05,1.93-.56.13-.95.15-1.18.04-.02-.37-.17-.68-.46-.94-.93-.86-2.09-1.43-3.48-1.73-.06-.01-.1.01-.11.08v.1c-.03.09-.07.11-.14.06l-.37-.26c-.01-.2-.2-.49-.58-.86,1.29-.25,2.79-.3,3.91.49Z"/>
      <path class="cls-39" d="M7.93,61.88c.37.38.57.66.58.86-.11.67-.23.96-.36.87-.61.22-1.11.3-1.51.23-.08-.01-.15.01-.19.09-.18.29-.36.32-.53.08.31-1,.98-1.71,2.01-2.13Z"/>
      <path class="cls-56" d="M12.6,64.49c.85,2.94-2.19,3.51-4.3,3.32.09-1.11.04-2.22-.16-3.33-.02-.12-.07-.13-.15-.04l-.4.45s-.08.04-.12,0c0,0-.01-.01-.02-.02-.02-.03-.03-.05-.03-.08,0-.03,0-.05.02-.07l.69-1.12c.13.09.25-.2.36-.87l.37.26c.08.05.12.03.13-.06v-.1c.02-.07.06-.09.13-.08,1.39.29,2.55.87,3.48,1.73Z"/>
      <path class="cls-54" d="M32.87,62.71c.28.39.58.74.91,1.07.33.33.6.67.82,1.04,1.06,1.82,2.58,3.21,4.55,4.2-.78-.27-1.47-.66-2.09-1.17-.77-.51-1.3-1-1.59-1.47-.72-1.18-1.55-2.27-2.47-3.27l-.22-.32c.13-.05.16-.08.09-.08Z"/>
      <path class="cls-45" d="M33,63.1c.92,1,1.75,2.09,2.47,3.27.29.47.82.96,1.59,1.47l-.29.41c-.05.07-.05.17,0,.24,1.91,2.33,3.3,3.55,6.55,2.87.1-.02.14.02.12.11-.01.07-.06.14-.14.2-.93,1.22-.95,2.31-.08,3.28.5.55,1.42.9,2.11.73,1.36-.34,2.32-1.17,2.9-2.5.05-.11,0-.25-.12-.3-.03-.01-.06-.02-.09-.02h-.13c-.08,0-.13.04-.13.13,0,.28-.12.5-.35.65-.07.05-.13.12-.16.21-1.1,3.36-6.44.94-3.8-2.13,1.21-1.3,2.56-1.62,4.05-.97,1.18.52,1.9,1.47,1.51,2.77-.67,2.23-1.5,3.87-4.14,3.75-.12,0-.14.04-.07.13.44.52.66,1.02.67,1.49.06,2.24-.36,4.77-1.24,7.57-1.5.45-3.6.86-6.29,1.23-5.79.79-11.26.78-16.43-.04-4.07-.65-7.99-2.01-11.74-4.08l-.73-7.04c1.41-2.53,1.05-5.74.99-8.57,1.5-.3,2.92-.86,3.03-2.53.23.1.62.09,1.18-.04-.08,1.62.56,2.77,1.93,3.47.07.03.1.09.09.16-.05.47.14.83.56,1.07.08.04.12.13.12.21-.02.41.1,1.17-.53,1.15-.09,0-.17-.04-.23-.11-.58-.73-1.33-1.12-2.26-1.16-.11,0-.21.03-.3.09-1.59,1.17-1.88,2.75-.88,4.72-3.78.71-2.22,2.51-2.51,5.08-.07.59.48,1.07,1.03,1.16,2.3.35,3.93-.59,4.88-2.8.81-.37,1.23-1.09,1.25-2.16,0-.09-.02-.17-.07-.24-1.07-1.55-2.25-1.34-3.86-1.66-1.53-.3-.46-2.73.24-3.32.99-.84,2.07-.07,2.47.92.03.08.09.14.16.17.77.37,1.66,2.18,2.1,2.96.14.25.45.34.7.2.25-.14.47-.1.66.1.06.07.16.07.23.02.13-.1.22-.28.29-.53l.07.61c-.55,1.41-.37,2.69.54,3.83-.26.28-.22.45.12.52-.29.91-.28,1.83.02,2.74.01.05-.01.1-.06.11-.03,0-.06,0-.09-.02-.77-.68-1.64-1.21-2.61-1.58-.51-.19-.9-.4-1.17-.63-.02-.01-.03-.02-.04-.02-.02,0-.05,0-.07.02-.03.01-.04.03-.01.06.99,1.05,1.96,2.12,2.89,3.23,1.18,1.39,3.34,3.07,5.1,1.86.03.12.12.2.27.24.08.02.15.02.23-.01l2.22-.88c.87.17,1.63.2,2.29.07,4.94-.91,7.11-4.32,8.35-8.86.01-.05.04-.09.08-.12.15-.12.32-.14.51-.08.2.07.42-.05.49-.25.19-.59.03-.89-.48-.91l-.46.3c-.07.05-.17.03-.22-.05,0,0,0,0,0,0-.11-.18-.26-.26-.47-.24-.09,0-.18-.02-.25-.07-.71-.58-1.49-1.05-2.33-1.43-.01,0-.02-.01-.02-.03v-.08s0-.01.02-.01c.84.24,1.66.52,2.46.85.02,0,.05,0,.07,0l.11-.04c.07-.02.1-.1.08-.16-.01-.03-.04-.06-.07-.07-.82-.34-1.65-.6-2.51-.8-.03,0-.05,0-.08,0-.03.01-.06.03-.09.05-.05.04-.11.05-.16.02l-1.73-.85c-.28-.38-.64-.63-1.08-.75-.08-.02-.11-.07-.09-.15.61-2.59.69-5.2.24-7.84-.03-.16.04-.22.19-.16l.18.07c.07.02.11,0,.13-.07.03-.1.07-.17.12-.21Z"/>
      <path class="cls-46" d="M52.41,63.18l-1.88,20.73c-1.85,1.04-3.95,1.89-6.3,2.56.89-2.81,1.3-5.33,1.24-7.57-.01-.47-.24-.97-.67-1.49-.08-.09-.05-.14.07-.13,2.63.12,3.47-1.51,4.14-3.75.39-1.3-.33-2.26-1.51-2.77-1.49-.65-2.83-.33-4.05.97l-.15-.04c.08-.07.12-.14.14-.2.02-.1-.02-.13-.12-.11-3.24.68-4.63-.54-6.55-2.87-.06-.07-.06-.17,0-.24l.29-.41c.62.51,1.31.9,2.09,1.17,2.74,1.29,5.41.88,8.18-.14,1.98-.73,3.02-1.84,4.1-3.59.39-.63.56-1.21.51-1.74.01-.28.17-.4.48-.36Z"/>
      <path class="cls-54" d="M34.6,64.17c-.13-.02-.14-.09-.03-.2.04-.04.1-.04.14,0,1.05.85,2.8,1.85,3.39,3.05,0,.01,0,.03-.02.03,0,0-.02,0-.03,0-.59-.66-2.64-2.7-3.46-2.87Z"/>
      <path class="cls-54" d="M12.6,64.49c.28.26.44.57.46.94-.11,1.68-1.54,2.24-3.03,2.53l-1.55.15c-1.38.08-2.32-.46-2.79-1.6-.08-.18-.06-.31.03-.4.07-.06.11-.05.13.04.31,1.27,1.13,1.82,2.45,1.65,2.11.19,5.15-.38,4.3-3.32Z"/>
      <path class="cls-23" d="M25.81,65.4l-1.38.5s-.06.06-.05.1c0,.02.02.03.03.04.99.62,1.74,1.46,2.25,2.52.04.09,0,.19-.09.25-.01,0-.07-.01-.16-.07-.29-1.12-.92-1.91-1.9-2.37-2.34-.94-4.6.24-5.71,2.43-1.04,1.9-.27,4.18,1.28,5.55-.02.03-.05.06-.08.09-.08.05-.15.04-.22-.02-2.39-2.23-2.16-5.19.05-7.43.93-.8,2.03-1.21,3.29-1.22.99-.02,1.75-.26,2.69-.37Z"/>
      <path class="cls-57" d="M24.52,66.37c-.28.16-.6.21-.94.13-.16-.04-.33.07-.36.23-.01.06,0,.12.01.17.41,1.11-.78,1.86-1.59.88-.04-.05-.06-.11-.05-.18,0-.05.02-.08.03-.09.37.26.73.3,1.08.09.07-.04.09-.13.05-.2,0,0,0-.01-.01-.02l-.34-.46c-.05-.07-.12-.1-.21-.09-.19.02-.32.13-.41.33-.37.15-.55.38-.54.7,0,.07-.03.14-.08.19l-.7.65c-.07.06-.17.06-.24-.01-.02-.02-.03-.04-.04-.06l-.05-.16.6-.62s.04-.07,0-.11c-.05-.06-.14-.11-.25-.16l.78-.53s.04-.06.02-.09c-.02-.02-.04-.03-.07-.03-.69.14-1.19.53-1.48,1.15l-.6.85c-.21.03-.32-.01-.31-.13,1.1-2.19,3.37-3.37,5.71-2.43Z"/>
      <path class="cls-53" d="M24.52,66.37c.98.46,1.61,1.25,1.9,2.37.02.18.01.23-.03.14l-2.24.59c-.82.12-1.59,0-2.32-.32l-.06-.29c-.02-.09-.05-.1-.1-.02-.12.2-.11.32.05.37.04.13-.04.24-.24.34-.08.04-.13.1-.15.18-.15.67-.48,1.23-1.01,1.67-.09.07-.22.09-.32.03-.65-.35-1-.89-1.05-1.62,0-.1.02-.18.07-.26l.71-1.05c.05-.07.12-.1.2-.1.08,0,.14.02.19.06l.05.16c.03.09.12.14.21.11.02,0,.04-.02.06-.04l.7-.65c.05-.05.09-.12.08-.19,0-.32.18-.55.54-.7l-.17.35s-.03.04-.03.09c0,.07,0,.13.05.18.81.98,2.01.24,1.59-.88-.06-.16.02-.33.18-.39.05-.02.11-.02.17-.01.34.08.66.04.94-.13Z"/>
      <path class="cls-38" d="M21.61,67.51l.17-.35c.08-.2.22-.31.41-.33.09,0,.16.02.21.09l.34.46c.05.06.04.15-.03.2,0,0-.01,0-.02.01-.35.2-.72.17-1.08-.09Z"/>
      <path class="cls-53" d="M20.48,67.59c0,.51-.26.68-.76.5.3-.63.79-1.01,1.48-1.15.04,0,.07.02.08.05,0,.03,0,.06-.03.07l-.78.53Z"/>
      <path class="cls-46" d="M20.13,68.47c-.05-.03-.12-.05-.19-.06-.08,0-.16.03-.2.1l-.71,1.05c-.05.08-.08.17-.07.26.05.73.39,1.27,1.05,1.62.1.06.23.04.32-.03.52-.44.86-.99,1.01-1.67.02-.08.07-.14.15-.18.2-.09.28-.21.24-.34.07-.07.11-.09.12-.06.73.33,1.5.44,2.32.32-.04.03-.06.06-.07.09-.01.04,0,.07.05.08.05.01.08.05.1.1-.34,0-.55.08-.62.23-.19.01-.33.13-.41.36-.21.54-.43,1.06-.67,1.54-.25.19-.38.46-.41.84-.18-.29-.33-.33-.46-.14-.11.17-.35.22-.52.1-1.29-.86-3.17-1.91-2.01-3.74l.6-.85c.5.18.76,0,.76-.5.12.05.2.1.25.16.03.04.03.07,0,.11l-.6.62Z"/>
      <path class="cls-46" d="M10.03,67.97c.06,2.83.42,6.04-.99,8.57l-.56-8.41,1.55-.15Z"/>
      <path class="cls-23" d="M45.23,68.46c.08.04.09.13.04.25-.01.03-.07.06-.16.09-.1.03-.16,0-.16-.12v-.19c0-.12.05-.15.16-.09l.12.06Z"/>
      <path class="cls-41" d="M21.82,69.16s-.04,0-.12.06c-.15-.05-.17-.17-.05-.37.05-.08.08-.07.1.02l.06.29Z"/>
      <path class="cls-56" d="M18.81,68.8c-.01.12.09.17.31.13-1.16,1.84.72,2.89,2.01,3.74.17.11.4.07.52-.1.13-.2.29-.15.46.14l-1.72,2.77-.07-.61c.07-.06.1-.16.08-.3-.01-.08-.05-.12-.13-.13-.08-.01-.14-.04-.18-.09-1.55-1.37-2.33-3.66-1.28-5.55Z"/>
      <path class="cls-23" d="M27.76,69.48c-1.27-.39-2.32,0-3.55.27-.01-.06-.05-.09-.1-.1-.04-.01-.06-.04-.05-.08,0-.03.03-.06.07-.09l2.24-.59c.66.04,1.12.24,1.38.59Z"/>
      <path class="cls-57" d="M27.76,69.48l5.55,2.73,1.73.85c.06.03.11.02.16-.02.02-.02.05-.03.09-.05.02,0,.05,0,.08,0,.86.19,1.69.46,2.51.8.06.03.09.1.07.17-.01.03-.04.06-.07.07l-.11.04s-.05,0-.07,0c-.8-.33-1.62-.62-2.46-.85-.01,0-.02,0-.02.01v.08s0,.02.02.03c.84.38,1.62.85,2.33,1.43.07.06.16.08.25.07.21-.02.36.06.47.24.04.08.14.1.22.06,0,0,0,0,0,0l.46-.3.29.39c.12.16.08.38-.07.49-.09.07-.22.09-.33.05-1.78-.62-3.62-1.13-5.3-1.89-1.71-.77-3.02-1.4-3.92-1.9-1.47-.81-2.86-1.36-4.16-1.65-.5-.06-.82.05-.96.33l-.11-.13c.09-.09.1-.16.03-.2-.24-.14-.5-.25-.81-.33.07-.15.28-.22.62-.23,1.22-.28,2.27-.67,3.55-.27Z"/>
      <path class="cls-39" d="M23.6,69.98c.3.08.57.19.81.33.07.05.06.11-.03.2-.13.06-.2.2-.21.4-.08.4-.43.69-1.04.85-.45.19-.26.66-.6,1.09-.12.14-.22.19-.3.15.01-.37.11-.75.3-1.12.24-.48.46-.99.67-1.54.09-.23.23-.35.41-.36Z"/>
      <path class="cls-54" d="M38.96,74.82c.52.02.68.32.48.91-.07.2-.29.32-.49.25-.19-.06-.36-.03-.51.08-.04.03-.07.07-.08.12-1.23,4.54-3.41,7.95-8.35,8.86-.66.12-1.42.1-2.29-.07-1.76-.28-3.04-1-3.84-2.16-.96-1.38-1.94-2.55-2.96-3.49-.91-1.14-1.09-2.42-.54-3.83l1.72-2.77c.03-.37.17-.65.41-.84-.18.38-.28.75-.3,1.12-.51.68-.97,1.38-1.36,2.11-.92,1.7-.73,3.37.76,4.61,2.56,2.12,2.59,4.55,6.14,4.93.05,0,.4.07,1.06.19.83.15,1.56-.23,2.12-.34,4.24-.85,6.38-4.51,7.25-8.51.02-.08-.01-.14-.08-.18l-.45-.24c-2.18-.49-4.25-1.27-6.2-2.35-.34-.19-.83-.24-1.11-.39-1.58-.8-3.21-1.64-4.89-2.51,1.31.3,2.7.85,4.16,1.65.9.5,2.21,1.13,3.92,1.9,1.68.76,3.52,1.27,5.3,1.89.18.06.39-.03.45-.22.04-.11.02-.23-.05-.33l-.29-.39Z"/>
      <path class="cls-49" d="M25.46,70.31c1.68.87,3.31,1.71,4.89,2.51.28.14.77.2,1.11.39,1.95,1.08,4.01,1.87,6.2,2.35-.03.22-.28.28-.75.18-.27-.09-.49-.2-.8-.16-1.23.16-3.18.13-4.32-.58-.07-.05-.12-.13-.12-.22v-.2c0-.07-.03-.12-.09-.15-2.16-1.1-4.43-1.81-6.56-2.92-.3-.32-.48-.61-.52-.86.15-.28.47-.39.96-.33Z"/>
      <path class="cls-27" d="M24.38,70.51l.11.13c.04.25.21.54.52.86-.34-.1-.62-.3-.84-.59.01-.2.08-.34.21-.4Z"/>
      <path class="cls-30" d="M24.17,70.91c.22.29.5.49.84.59,2.13,1.11,4.4,1.83,6.56,2.92.06.03.09.08.09.15v.2c0,.09.05.17.12.22,1.14.71,3.09.75,4.32.58.31-.04.52.07.8.16.07.15.03.31-.14.48-.75,1.17-1.99,2.57-3.36,2.83-.32.06-.64.13-.97.2-.41-.39-.87-.39-1.38-.01-.06.05-.13.05-.2.01l-.72-.4c-.18-.1-.22-.24-.13-.42.38-.75.32-1.45-.61-1.69-1.37-.36-2.65-.15-3.84.62-.13.09-.31.05-.39-.08-.05-.08-.06-.19-.02-.28l1.34-2.77c.14-.28.03-.63-.25-.78l-3.11-1.68c.61-.16.96-.45,1.04-.85Z"/>
      <path class="cls-23" d="M43.31,71.67l.15.04c-2.64,3.08,2.71,5.49,3.8,2.13.03-.08.08-.16.16-.21.23-.15.34-.37.35-.65,0-.09.05-.13.13-.13h.13c.13,0,.23.1.23.23,0,.03,0,.06-.02.09-.57,1.33-1.54,2.16-2.9,2.5-.69.17-1.62-.18-2.11-.73-.87-.97-.85-2.06.08-3.28Z"/>
      <path class="cls-53" d="M23.12,71.76l3.11,1.68c.28.15.39.49.25.78l-1.34,2.77c-.07.14-.01.31.13.38.09.04.2.04.28-.02,1.18-.77,2.46-.97,3.84-.62.93.24.99.93.61,1.69-.09.18-.05.32.13.42l.72.4c.07.04.13.03.2-.01.51-.38.97-.37,1.38.01,1.16.18,2.24-.28,3.24-1.39.52-.57.88-1.12,1.09-1.64.16-.17.21-.33.14-.48.47.1.73.04.75-.18l.45.24c.07.04.1.1.08.18-.87,4-3.01,7.66-7.25,8.51-.56.11-1.28.49-2.12.34-.65-.12-1.01-.18-1.06-.19-3.55-.38-3.58-2.81-6.14-4.93-1.49-1.23-1.68-2.9-.76-4.61.39-.73.84-1.43,1.36-2.11.09.05.19,0,.3-.15.34-.42.15-.9.6-1.09Z"/>
      <path class="cls-46" d="M15.77,73.07c-.8,1.31-2.69.55-1.71-.71.06-.08.15-.1.25-.07.07.02.1.09.08.16,0,.01,0,.02-.02.03-.15.22-.17.44-.08.68.09.21.33.32.55.23.32-.13.56-.35.73-.65.03-.06.1-.08.16-.05.02.01.04.03.05.05.06.11.05.22-.02.33Z"/>
      <path class="cls-54" d="M21.7,79.27c.01-1.39-.43-3.33.13-4.9.06-.16.08-.16.06,0-.21,1.76-.15,3.51.17,5.25.01.05-.02.1-.07.11-.04.01-.09,0-.11-.05l-.13-.21c-.04-.06-.06-.13-.06-.21Z"/>
      <path class="cls-56" d="M12.75,74.99c2.37-.21,3.51.94,3.4,3.44-.96,2.22-2.58,3.15-4.88,2.8-.54-.08-1.1-.57-1.03-1.16.3-2.57-1.26-4.37,2.51-5.08Z"/>
      <path class="cls-41" d="M36.76,76.22c-.21.52-.57,1.07-1.09,1.64-1,1.11-2.08,1.57-3.24,1.39.33-.07.65-.14.97-.2,1.37-.26,2.61-1.65,3.36-2.83Z"/>
      <path class="cls-56" d="M20.93,79.31c1.01.94,2,2.11,2.96,3.49.81,1.16,2.09,1.88,3.84,2.16l-2.22.88c-.08.03-.15.03-.23.01-.15-.04-.24-.12-.27-.24.17-.1.29-.23.37-.38.05-.08.02-.14-.06-.18-1.4-.58-3.93-1.08-4.15-2.83-.1-.77-.14-1.56-.13-2.4-.34-.07-.38-.24-.12-.52Z"/>
      <path class="cls-46" d="M21.05,79.83c-.01.83.03,1.63.13,2.4.22,1.75,2.75,2.25,4.15,2.83.09.04.11.1.06.18-.08.15-.21.27-.37.38-1.76,1.21-3.93-.47-5.1-1.86-.93-1.1-1.89-2.18-2.89-3.23-.02-.03-.02-.05.01-.06.03-.01.05-.02.07-.02.01,0,.03,0,.04.02.27.23.66.43,1.17.63.97.37,1.84.9,2.61,1.58.04.03.1.03.13-.01.02-.02.03-.06.02-.09-.3-.91-.31-1.83-.02-2.74Z"/>
      <path class="cls-47" d="M10.23,84.38l.37,6.47-2.7-1.09c-.08-.03-.13-.09-.14-.18l-.72-7.09c0-.06.01-.07.06-.04,1.09.83,2.13,1.47,3.13,1.92Z"/>
      <path class="cls-21" d="M49.46,91.35c.6-2.09.65-4.59.8-6.78l1.7-1.01c.08-.05.11-.03.1.07l-.65,6.78c0,.07-.04.12-.1.14l-1.85.8Z"/>
      <path class="cls-22" d="M10.23,84.38c2.55,1.25,5.05,2.19,7.5,2.81l.06.15s.03.03.05.03c.03-.01.07-.02.1-.03.04-.01.06,0,.06.04v.71c0,.08.06.15.14.16,2.62.38,3.87,1.58,5.29,3.79.12.18.32.35.6.5.08.04.15.04.23,0,.42-.19.85-.36,1.29-.48.82-.24.5-2.15.31-2.65-.03-.09-.09-.13-.18-.13-.5-.02-.82-.29-.95-.81l4.97.2s-.07.07-.18.07c-.01,0-.02.01-.02.02,0,0,0,.01.01.01l.09.03s.02.02,0,.03c-1.08.64-1.05,2.7-.96,3.72.03.41-.27.76-.67.79-.03,0-.06,0-.1,0-.5-.02-.67.12-.51.42-5.8-.21-11.39-1.18-16.78-2.9l-.37-6.47Z"/>
      <path class="cls-31" d="M50.26,84.57c-.15,2.19-.2,4.69-.8,6.78-5.9,1.85-11.92,2.39-18.13,2.47-.32-.67.04-1.06,1.06-1.18,1.79-.21,4.07-.13,6.11-.34,1.67-.16,3.03.34,4.69.15.22-.02.39-.2.41-.42l.54-5.08c1.96-.58,4-1.38,6.12-2.39Z"/>
      <path class="cls-34" d="M44.14,86.95l-.54,5.08c-.02.22-.2.39-.41.42-1.67.19-3.02-.31-4.69-.15-2.04.2-4.32.13-6.11.34-1.02.12-1.37.51-1.06,1.18l-3.95-.07c-.16-.31,0-.45.51-.42.41.02.75-.29.77-.7,0-.03,0-.07,0-.1-.09-1.01-.12-3.07.96-3.72.02-.01.02-.02,0-.03l-.09-.03s-.01-.02,0-.03c0,0,0,0,.01-.01.11,0,.17-.03.18-.07,5.01-.06,9.75-.46,14.44-1.69Z"/>
      <path class="cls-47" d="M17.72,87.19c2.3.62,4.63,1.04,7,1.26.13.52.45.79.95.81.09,0,.15.05.18.13.19.5.51,2.41-.31,2.65-.44.13-.87.29-1.29.48-.08.04-.16.03-.23,0-.28-.15-.48-.32-.6-.5-1.42-2.22-2.67-3.41-5.29-3.79-.08-.01-.14-.08-.14-.16v-.71s-.02-.05-.06-.04c-.03.01-.07.02-.1.03-.03,0-.04,0-.05-.03l-.06-.15Z"/>
      <path class="cls-47" d="M17.54,92.97l-.1,1.02c0,.09,0,.18.03.26l.31.89c-2.54-.55-6.66-1.44-9.54-2.86-.09-.04-.14-.12-.16-.22l-.24-1.65c-.03-.19.05-.25.23-.18,3.05,1.25,6.21,2.17,9.46,2.75Z"/>
      <path class="cls-31" d="M51.23,91.94c-.15.19-.29.36-.43.51-.42.47-1.47.76-2.06,1.03-.1.05-.1.1-.02.16l.09.06c-5.32,1.78-10.27,2.39-15.9,2.51-.3-.39-1.09-.22-1.5-.25-.09,0-.15-.05-.17-.14-.14-.56-.06-1.11.24-1.64,4.04-.1,8.34-.29,12.31-1.14,2.47-.53,5.15-1.06,7.51-2.11.09-.04.13-.01.11.09l-.19.92Z"/>
      <path class="cls-21" d="M51.23,91.94l-.07.71c0,.09-.05.15-.14.18l-2.21.88-.09-.06c-.08-.06-.08-.12.02-.16.59-.27,1.64-.56,2.06-1.03.14-.15.28-.32.43-.51Z"/>
      <path class="cls-21" d="M31.34,96.52l-.11.63c-.02.09,0,.16.06.23.11.13.13.27.04.41-7.25.05-15.07-.88-21.92-3.58-.54-.21-1.44-.64-1.28-1.5.01-.08.06-.1.13-.08,7.63,2.91,14.84,3.93,23.07,3.89Z"/>
      <path class="cls-21" d="M17.54,92.97c4.57.84,9.22,1.25,13.94,1.21-.3.53-.38,1.08-.24,1.64.02.09.08.14.17.14.41.03,1.2-.14,1.5.25-5.1.16-10.14-.2-15.12-1.09l-.31-.89c-.03-.08-.04-.17-.03-.26l.1-1.02Z"/>
      <path class="cls-21" d="M51.17,93.55c-.12.07-.23.09-.35.07-.08-.01-.16,0-.24.02l-2.77.94c-.1.03-.18.01-.25-.07-.04-.05-.06-.1-.06-.16,1.2-.29,2.37-.69,3.49-1.21.08-.04.14-.01.16.07.03.09.03.21.01.34Z"/>
      <path class="cls-31" d="M51.17,93.55c-.01.57-.19.8-.54.69l-3.5.99c-.08.02-.14.08-.17.16-.04.1-.03.2.01.29-.72.27-1.31.45-1.77.56-4.56,1.02-9.18,1.55-13.86,1.57.09-.14.07-.27-.04-.41-.06-.07-.08-.14-.06-.23l.11-.63c5.53-.04,10.84-.6,16.16-2.17,0,.06.02.11.06.16.07.08.15.1.25.07l2.77-.94c.08-.02.16-.03.24-.02.12.02.23,0,.35-.07Z"/>
      <path class="cls-25" d="M50.63,94.24c-1.18.65-2.4,1.12-3.66,1.43-.05-.09-.05-.18-.01-.29.03-.08.09-.13.17-.16l3.5-.99Z"/>
    </g>
  </g>
</svg>