<?xml version="1.0" encoding="UTF-8"?>
<svg id="Layer_2" data-name="Layer 2" xmlns="http://www.w3.org/2000/svg" viewBox="0 0 63.64 71.4">
  <defs>
    <style>
      .cls-1 {
        fill: #edcdaf;
      }

      .cls-2 {
        fill: #fff;
      }

      .cls-3 {
        fill: #f2f0ee;
      }

      .cls-4 {
        fill: #e0b38b;
      }
    </style>
  </defs>
  <g id="Layer_1-2" data-name="Layer 1">
    <g>
      <path class="cls-2" d="M31.79,71.16c-10.77,0-19.58-2.59-20.06-5.9v-.04s-.02-.03-.02-.03c-.01-.02-.02-.04-.02-.06-2.2-10.57-6.41-30.76-6.62-31.47-.09-.31-.31-.75-.54-1.21-.41-.81-.87-1.73-.98-2.55-.1-.78-2.23-15.76-3.03-21.4-.16-1.12-.26-1.82-.26-1.85,0-.04,0-.07,0-.11v-.04s0-.08,0-.08C.26,2.54,16.31.24,31.83.24s31.57,2.3,31.57,6.15c0,.05,0,.09,0,.14v.03s0,.03,0,.03c0,.03,0,.05,0,.06l-.09.65c-1.99,14.03-3.12,22.05-3.2,22.6-.11.82-.57,1.74-.98,2.55-.23.46-.45.9-.54,1.21-.21.7-4.42,20.89-6.62,31.47,0,.01,0,.03-.02.05l-.02.05v.06s0,.04,0,.06c-.65,3.26-9.49,5.81-20.12,5.81Z"/>
      <path class="cls-1" d="M4.35,9.48l1.34,11.04,2.35,3.96s14.34,2.29,20.46,2.16c6.12-.12,17.3-.37,17.3-.37l9.39-2.1,2.78-3.21,1.73-11.68-55.36.2Z"/>
      <path class="cls-1" d="M31.83,1.01C13.68,1.01,1.03,3.85,1.03,6.39s12.65,5.38,30.8,5.38,30.8-2.84,30.8-5.38S49.98,1.01,31.83,1.01Z"/>
      <path class="cls-4" d="M39.55,24.49c-3.93.09-7.85.24-11.77.39-1.25.05-2.51.1-3.76.07-1.62-.05-3.19-.32-4.8-.44-3.65-.27-7.25-1.09-10.65-2.43-.44-.17-.88-.36-1.32-.55-.24-.1-.89-.56-1.14-.49-.53.14-.14,2.03-.1,2.46.18,1.93.46,3.84.85,5.74.16.76.34,1.53.64,2.25.33.77,1.09,1.65,1.26,2.45.04.2,5.4,25.21,5.4,25.21l3.3,2.38,5.94,1.91s4.46.53,7.64.53,11.57-.96,11.57-.96l3.29-1.17,3.58-2.7,5.44-25.11,1.84-3.32.83-10.25s-4.57,3.7-18.05,4.01Z"/>
      <path class="cls-2" d="M14.18,15.41c0,.43-.35.78-.78.78s-.78-.35-.78-.78.35-.78.78-.78.78.35.78.78Z"/>
      <path class="cls-2" d="M22.57,19.94c0,.43-.35.78-.78.78s-.78-.35-.78-.78.35-.78.78-.78.78.35.78.78Z"/>
      <path class="cls-2" d="M32.73,16.85c0,.43-.35.78-.78.78s-.78-.35-.78-.78.35-.78.78-.78.78.35.78.78Z"/>
      <path class="cls-2" d="M43,19.49c0,.43-.35.78-.78.78s-.78-.35-.78-.78.35-.78.78-.78.78.35.78.78Z"/>
      <path class="cls-2" d="M50.5,15.86c0,.43-.35.78-.78.78s-.78-.35-.78-.78.35-.78.78-.78.78.35.78.78Z"/>
      <path class="cls-3" d="M31.83,12.78C16.41,12.78.02,10.54.02,6.39S16.41,0,31.83,0s31.81,2.24,31.81,6.39-16.39,6.39-31.81,6.39ZM31.83,1.01C13.68,1.01,1.03,3.85,1.03,6.39s12.65,5.38,30.8,5.38,30.8-2.84,30.8-5.38S49.98,1.01,31.83,1.01Z"/>
      <path class="cls-2" d="M39.03,9.78c-2.18,0-5.43-.71-8.58-1.39-2.54-.55-5.17-1.12-7.11-1.29-.25-.02-.44-.22-.46-.47-.02-.25.15-.47.39-.53l.98-.23c4.55-1.06,13.02-3.03,16.5-1.77.64.23.85.59.9.85.05.23.03.58-.34.96-.07.07-.14.13-.21.18.66.15,1.24.36,1.47.53.62.49.58,1.02.5,1.29-.31,1.03-2.16,1.73-3.38,1.83-.21.02-.43.03-.67.03ZM26.14,6.47c1.44.26,3,.6,4.53.93,3.42.74,6.96,1.51,8.95,1.35,1.12-.09,2.38-.72,2.5-1.11.02-.06-.1-.17-.15-.21-.29-.19-2.23-.68-2.94-.53-.26.06-.53-.11-.59-.37-.07-.26.09-.53.35-.61.17-.05.34-.09.51-.13.53-.13.99-.25,1.33-.58.02-.02.04-.04.05-.06-.03.01-.11-.04-.25-.09-2.82-1.03-9.82.4-14.27,1.42Z"/>
      <path class="cls-2" d="M48.62,7.74c-.17,0-.34-.09-.44-.25-.24-.42-1.24-.76-2.23-.77-.05,0-.09,0-.13,0-.26-.05-.43-.28-.41-.54.01-.15.09-.28.21-.36.06-.13.17-.49-.06-.78-.18-.22-.14-.53.07-.71.22-.18.53-.14.71.07.37.46.42.97.34,1.38.88.12,1.94.46,2.38,1.22.14.24.06.55-.18.69-.08.05-.17.07-.25.07Z"/>
      <path class="cls-2" d="M52.95,6.56c-.1,0-.2-.03-.28-.09-.41-.28-.91-.46-1.44-.52-.28-.03-.48-.28-.45-.56.03-.28.28-.48.56-.45.7.08,1.35.32,1.9.69.23.16.29.47.13.7-.1.14-.26.22-.42.22Z"/>
      <path class="cls-2" d="M9.34,6.53c-.21,0-.41-.14-.48-.35-.09-.26.06-.55.33-.63,1.03-.33,1.67-.59,2.72-1.01.26-.1.55.02.66.28.1.26-.02.55-.28.66-1.07.43-1.72.69-2.78,1.03-.05.02-.1.02-.15.02Z"/>
      <path class="cls-2" d="M21.05,9.24s-.1,0-.15-.02c-1.22-.37-2.23-.6-3.31-.84-1.14-.26-2.44-.55-4.16-1.06-.21-.06-.36-.26-.36-.48s.15-.42.36-.48c.92-.27,1.75-.52,2.61-.78,1.26-.38,2.59-.78,4.33-1.28.27-.08.55.08.62.34.08.27-.08.55-.34.62-1.74.5-3.06.9-4.32,1.28-.31.09-.62.19-.94.28.9.23,1.67.41,2.42.58,1.09.25,2.13.48,3.38.86.27.08.42.36.34.63-.07.22-.27.36-.48.36Z"/>
      <path class="cls-3" d="M31.79,71.4c-11.08,0-19.8-2.62-20.3-6.11-.04-.28.15-.53.43-.57.27-.04.53.15.57.43.36,2.53,8.2,5.24,19.3,5.24s18.87-2.69,19.37-5.2c.05-.27.32-.45.59-.4.27.05.45.32.4.59-.69,3.43-9.44,6.01-20.36,6.01Z"/>
      <path class="cls-3" d="M31.99,64.36c-9.72,0-17.25-2.29-18.3-5.56-.09-.26.06-.55.33-.63.27-.08.55.06.63.33.89,2.77,8.35,4.86,17.34,4.86s16.48-2.22,17.07-5.04c.06-.27.32-.45.6-.39.27.06.45.32.39.6-.72,3.44-8.15,5.85-18.06,5.85Z"/>
      <path class="cls-3" d="M11.94,65.58c-.23,0-.44-.16-.49-.4-2.2-10.58-6.41-30.76-6.62-31.45-.09-.29-.3-.72-.53-1.17-.42-.83-.89-1.77-1-2.63C3.17,28.99.04,6.9,0,6.68c-.04-.28.15-.53.43-.57.28-.04.53.15.57.43.03.22,3.16,22.32,3.29,23.26.09.69.52,1.55.9,2.31.26.51.48.96.59,1.33.26.88,6.38,30.28,6.64,31.54.06.27-.12.54-.39.6-.03,0-.07.01-.1.01Z"/>
      <path class="cls-3" d="M51.7,65.58s-.07,0-.1-.01c-.27-.06-.45-.32-.39-.6.26-1.25,6.38-30.66,6.64-31.54.11-.37.33-.82.59-1.33.38-.76.81-1.62.9-2.31.13-.94,3.26-23.03,3.29-23.26.04-.28.3-.47.57-.43.28.04.47.29.43.57-.03.22-3.16,22.31-3.29,23.25-.11.86-.59,1.8-1,2.63-.23.45-.44.88-.53,1.17-.21.69-4.42,20.88-6.62,31.45-.05.24-.26.4-.49.4Z"/>
      <path class="cls-3" d="M51.71,23.47c-.23,0-.44-.16-.49-.4-.06-.27.11-.54.38-.6,3.84-.84,5.45-1.73,6.12-2.32.21-.18.53-.16.71.04.18.21.16.53-.04.71-1.1.97-3.31,1.83-6.57,2.54-.04,0-.07.01-.11.01Z"/>
      <path class="cls-3" d="M31.76,25.45c-13.15,0-24.29-1.96-26.49-4.67-.18-.22-.14-.53.07-.71.22-.18.53-.14.71.07,1.69,2.08,11.28,4.3,25.71,4.3,5.39,0,9.97-.37,11.69-.52.28-.03.52.18.55.46.03.28-.18.52-.46.55-1.73.16-6.35.53-11.78.53Z"/>
      <path class="cls-3" d="M14.18,59.15q-.42,0-1.38-4.3c-.52-2.34-1.21-5.47-1.89-8.59-1.3-5.91-2.59-11.83-2.73-12.45l-1.44-3.12s-.03-.08-.04-.13c-1.66-10.08-1.66-10.12-1.66-10.18,0-.28.23-.5.5-.5s.5.23.5.5c.03.18,1.18,7.18,1.63,9.95l1.43,3.11s.03.07.03.1c1.82,8.32,5.29,24.15,5.5,24.93.02.05.03.11.03.17,0,.28-.23.5-.5.5Z"/>
      <path class="cls-3" d="M49.5,59.15c-.28,0-.5-.23-.5-.5,0-.06.01-.12.03-.17.21-.79,3.68-16.61,5.5-24.93l1.3-3.15c.12-.69,1.42-7.87,1.78-9.91.05-.27.31-.46.58-.41.27.05.46.31.41.58-.38,2.14-1.79,9.97-1.79,9.97,0,.04-.02.07-.03.1l-1.3,3.12s-1.35,6.21-2.71,12.41c-.69,3.12-1.37,6.25-1.89,8.59q-.95,4.3-1.38,4.3Z"/>
      <path class="cls-3" d="M46.85,24.43c-.25,0-.47-.19-.5-.44-.04-.28.16-.53.44-.56.43-.06.87-.15,1.28-.28.27-.08.55.06.63.33.08.27-.06.55-.33.63-.47.15-.96.26-1.46.32-.02,0-.04,0-.06,0Z"/>
      <path class="cls-3" d="M25.19,58.17c-.13,0-.26-.05-.36-.15-.1-.1-.15-.24-.14-.37-.02-.41-.51-4.87-1.16-10.69-.03-.28.17-.53.44-.56.28-.02.53.17.56.44q1.23,10.97,1.01,11.18c-.1.1-.23.14-.35.14Z"/>
      <path class="cls-3" d="M37.22,57.88c-.28,0-.5-.23-.5-.51,0-.08,0-.28,1.27-10.02l.87-6.65c.19-1.46.3-2.3.4-2.79-.4-.59-2.18-2.67-7.38-2.91-5.57-.26-8.06,2.13-8.46,2.56.17.85.39,2.74.85,6.88.03.28-.17.53-.44.56-.28.03-.53-.17-.56-.44-.19-1.66-.76-6.69-.82-7.08-.03-.13,0-.28.06-.39.02-.03,2.65-3.4,9.41-3.08,5.81.27,7.77,2.71,8.24,3.46.05.07.08.14.09.23,0,.05,0,.1,0,.15-.05.35-2.46,18.65-2.52,19.54,0,.07-.01.14-.04.2-.08.19-.26.3-.46.3ZM39.71,38.25h0s0,0,0,0Z"/>
      <path class="cls-3" d="M40.71,57.62c-.13,0-.26-.05-.36-.15-.13-.13-.18-.32-.13-.49.02-.08.09-.5.38-2.42.04-.27.29-.47.57-.42.28.04.46.3.42.57q-.4,2.63-.53,2.76c-.1.1-.23.15-.36.15Z"/>
      <path class="cls-3" d="M41.73,51.03s-.05,0-.08,0c-.28-.04-.46-.3-.42-.57.83-5.51,1.87-12.48,1.87-12.48,0-.04.02-.09.04-.13.05-.12,1.36-3.02,4.34-4.03.26-.09.55.05.64.32.09.26-.05.55-.32.64-2.34.79-3.52,3.04-3.71,3.42-.11.76-1.08,7.23-1.86,12.41-.04.25-.25.43-.5.43Z"/>
      <path class="cls-3" d="M52.16,34.86c-.09,0-.18-.02-.26-.07-.21-.13-.7-.35-1.61-.38-.28-.01-.49-.25-.48-.52.01-.28.26-.49.52-.48,1.08.05,1.73.31,2.09.53.24.14.31.45.17.69-.09.16-.26.24-.43.24Z"/>
      <path class="cls-3" d="M19.86,37.21c-.22,0-.33-.12-.45-.23-1.47-1.49-3.39-2.49-5.41-2.82-.7-.11-1.31-.18-1.79-.19-.28,0-.5-.24-.49-.52,0-.28.27-.5.52-.49.53.01,1.18.08,1.93.2,2.26.37,4.32,1.44,5.97,3.11.03.03-.08-.06-.26-.06.27,0,.49.23.49.5s-.23.5-.5.5ZM19.87,36.2h0,0ZM19.87,36.2h0,0ZM19.87,36.2h0,0ZM19.87,36.2h0,0ZM19.87,36.2h0,0Z"/>
    </g>
  </g>
</svg>