<?xml version="1.0" encoding="UTF-8"?>
<svg id="Layer_2" data-name="Layer 2" xmlns="http://www.w3.org/2000/svg" viewBox="0 0 15.36 11.76">
  <defs>
    <style>
      .cls-1 {
        fill: #524c2f;
      }

      .cls-2 {
        fill: #fff;
      }
    </style>
  </defs>
  <g id="Layer_1-2" data-name="Layer 1">
    <g>
      <g>
        <path class="cls-1" d="M15.36,9.09s-.03-.07-.06-.09l-1.98-1.19s-.06-.02-.08-.02l-.87.08s-.08.03-.11.07l-.17.28c-.94-.87-.95-2.39-.95-3.87,0-1.11,0-2.15-.43-2.82C10.03.49,9.03-.08,8.04,0c-.59.05-1.11.35-1.52.82h-1.67s-.06.01-.09.03l-2.25,1.84s0,0,0,0c0,0,0,0,0,0,0,0-.01,0-.02,0,0,0,0,0,0,0,0,0,0,0-.01.01,0,0,0,0,0,0,0,0,0,0,0,0,0,0,0,.01-.01.02,0,0,0,0,0,0,0,0,0,.02-.01.03,0,0,0,0,0,0,0,0,0,.02,0,.02l-.41,4.72-1.33-.77c-.07-.04-.15-.02-.19.05C.02,7.58-.12,8.51.11,9.37c.22.83.75,1.52,1.49,1.96.5.29,1.05.44,1.61.44.28,0,.56-.04.83-.11.5-.13.96-.39,1.34-.73l3.47.14h.02s.03.02.05.02c.03,0,.05,0,.08-.02.05-.02.09-.06.09-.12v-.03s.51-1.07.51-1.07l.87.03h0s.08-.02.1-.05c.03-.03.04-.07.04-.11l-.83-6.75v-.11s0-.08-.03-.11c0,0-.02-.02-.03-.02l-1.54-1.84s-.07-.05-.11-.05h-1.19c.33-.32.73-.51,1.16-.55.89-.08,1.78.44,2.4,1.39.38.6.38,1.6.39,2.67,0,1.5,0,3.16,1.08,4.11l-.21.36s-.03.09,0,.13l.34.81s.03.05.06.07l1.98,1.19s.05.02.07.02c.01,0,.02,0,.03,0,.04,0,.07-.03.09-.06l1.07-1.77s.02-.07.02-.11ZM3.97,11.38c-.76.2-1.55.1-2.23-.3-.68-.39-1.16-1.03-1.36-1.78-.2-.74-.09-1.54.28-2.2l5.09,2.93c-.39.67-1.03,1.16-1.78,1.36ZM8.83,10.78l-3.19-.13c.16-.19.3-.39.42-.61.03-.07.01-.15-.05-.19l-3.72-2.14.03-.32s.02-.01.03-.02c1.51-1.49,3.87-.75,6.36.04.14.04.27.09.41.13l-.29,3.25ZM9.17,10.1l.09-.97h.37l-.46.97ZM9.74,9.55l.14-.3.28.31-.42-.02ZM10.29,9.3l-.32-.36s0-.01,0-.02c-.03-.04-.07-.07-.12-.07h-.57l.11-1.23c.08.02.15.03.21.03.17,0,.29-.06.36-.11.04-.03.08-.06.11-.1l.23,1.85ZM9.99,6.84s-.02.05-.02.08c.01.16-.06.32-.17.4-.1.07-.23.08-.39.03l.27-3.05.31,2.54ZM9.14,7.25c-.12-.04-.23-.07-.35-.11-2.37-.75-4.81-1.52-6.44-.15l.35-4h6.82l-.38,4.27ZM8.03,1.11l1.33,1.58H2.97l1.93-1.58h1.41c-.04.07-.08.13-.12.2h-.95c-.08,0-.14.06-.14.14s.06.14.14.14h.81s-.03.08-.05.12c-.03.07,0,.15.08.18.07.03.15,0,.18-.08.03-.08.06-.15.1-.22h1.1c.08,0,.14-.06.14-.14s-.06-.14-.14-.14h-.95c.04-.07.09-.14.14-.2h1.38ZM14.11,10.7l-1.82-1.1-.29-.7.16-.26c.17.12.37.23.6.32.02,0,.03,0,.05,0,.06,0,.11-.03.13-.09.03-.07,0-.15-.08-.18-.21-.08-.39-.18-.55-.3l.16-.26.76-.07,1.82,1.1-.92,1.53Z"/>
        <path class="cls-1" d="M4.92,9.87l-1.86-1.08s0,0,0,0c0,0,0,0,0,0l-1.87-1.09s-.07-.02-.11-.01c-.04.01-.07.04-.09.07-.27.53-.36,1.15-.23,1.73,0,0,0,0,0,0,0,0,0,0,0,0,.18.57.56,1.06,1.06,1.39,0,0,0,0,0,0,0,0,0,0,0,0,.37.19.78.29,1.2.29.18,0,.36-.02.54-.06h0s0,0,.01,0c.57-.18,1.06-.56,1.39-1.06.02-.03.03-.07.02-.11,0-.04-.03-.07-.07-.09ZM1.17,8.02l1.45.84-1.62.43c-.06-.43,0-.87.17-1.27ZM1.07,9.56l1.62-.43-.84,1.45c-.35-.26-.62-.61-.78-1.02ZM2.09,10.72l.84-1.45.43,1.62c-.43.06-.87,0-1.27-.17ZM3.63,10.82l-.43-1.62,1.45.84c-.26.35-.61.62-1.02.78Z"/>
      </g>
      <g>
        <path class="cls-2" d="M8.7,8.6c-.12-.16-.04-.24.08-.47.12-.23-.09-.41-.23-.41-.14,0-.25-.15-.26-.15,0,0,0,0,0,0-.02-.06-.07-.11-.12-.14-.16-.11.06-.42-.21-.31-.27.11-.26-.03-.35-.12-.1-.1.15-.38-.22-.47-.38-.1-.3.46-.55.44-.25-.03-.44-.48-.16-.83.28-.35,0-.5.07-.66.08-.16.02-.41-.14-.46-.16-.04-.51-.31-.51-.31-.49-.19-.5.27-.83.59-.33.32-.14.55-.14.55,0,0-.29-.28-.44-.06-.15.22-.56.36-.47.58.1.22.07.22.13.47.07.26.31.32.51.24.2-.08.37.05.32.26-.06.21.02.2.26.38.24.18.42.78.15.91-.27.13-.07-.24-.27-.46-.21-.23-.26-.61-.7-.35-.44.27-.58.06-.53.41.05.35-.37.28-.02.52.36.24.5.11.58.48.08.37.25.41.42.21.17-.19.61-.26.8.04.19.3.25.84.25.84l1.41.12s0,0,0,0h0s.17-.29.19-.58c.02-.29.12-.51.25-.66.13-.15.17,0,.34-.13s.21-.1.42-.11c.21,0,.11-.19,0-.35h0ZM7.45,8.36c-.36-.16-.03-.54.07-.64.01-.01.04-.01.05,0,.04.06.09.12.14.16-.08.12.04.18.07.27.03.09.02.36-.33.2Z"/>
        <path class="cls-2" d="M5.49,5.83s-.19-.23.14-.55c.22-.21.3-.48.46-.59,0,0,0,0,0,0-.49-.19-.5.27-.83.59-.21.2-.21.37-.19.46.15-.16.42.09.42.09h0Z"/>
        <path class="cls-2" d="M5.02,9.21c-.08-.37-.23-.24-.58-.48-.36-.24.06-.16.02-.52-.05-.35.1-.14.53-.41.01,0,.03-.02.04-.02-.09-.08-.21-.1-.42.02-.44.27-.58.06-.53.41.05.35-.37.28-.02.52.36.24.5.11.58.48.08.37.25.41.42.21,0,0,.01-.02.02-.02-.02-.05-.05-.11-.06-.19h0Z"/>
        <path class="cls-2" d="M5.64,9.29c.08.03.16.09.22.17.19.3.25.84.25.84l.39.03c-.03-.2-.12-.65-.27-.88-.13-.21-.39-.24-.59-.17Z"/>
        <path class="cls-2" d="M4.34,6.82c.07.26.31.32.51.24.01,0,.03,0,.04-.01-.08-.04-.14-.12-.17-.23-.07-.26-.04-.25-.13-.47-.1-.22.31-.36.46-.57-.1-.07-.27-.16-.37,0-.15.22-.56.36-.47.58.1.22.07.22.13.47h0Z"/>
        <path class="cls-2" d="M5.95,8.61c.27-.13.09-.73-.15-.91-.24-.18-.32-.17-.26-.38.06-.21-.12-.33-.32-.26-.04.01-.07.02-.11.03.05.05.08.13.05.23-.06.21.02.2.26.38.12.09.22.28.26.47.19.23,0,.57.26.44h0Z"/>
        <path class="cls-2" d="M6.84,10.09c.39.03.69.18.68.34,0,0,0,0,0,0-.02.15-.34.25-.73.21-.39-.03-.69-.18-.68-.34.01-.15.34-.25.73-.22h0Z"/>
        <path class="cls-2" d="M6.48,10.31c0-.11.17-.19.4-.21-.01,0-.03,0-.04,0-.39-.03-.71.06-.73.22-.01.15.29.3.68.34.12.01.23,0,.33,0-.37-.04-.65-.18-.64-.33Z"/>
        <g>
          <path class="cls-1" d="M8.76,8.24s.03-.06.05-.1c.05-.1.05-.21,0-.3-.06-.09-.16-.15-.26-.15,0,0,0,0,0,0-.11,0-.21-.12-.23-.14-.03-.06-.08-.12-.13-.15-.05-.04-.05-.11-.05-.18,0-.06,0-.12-.04-.14-.03-.02-.08-.02-.15.01-.18.07-.21.03-.26-.04-.02-.02-.03-.05-.06-.08-.02-.02-.02-.07,0-.13.02-.11.04-.29-.23-.36-.24-.06-.32.11-.38.25-.06.12-.09.19-.18.18-.09,0-.18-.09-.23-.21-.06-.15-.07-.37.09-.58.18-.23.13-.39.09-.51-.02-.06-.04-.11-.02-.16.05-.1.05-.24,0-.35-.04-.08-.09-.13-.16-.15-.16-.04-.5-.3-.5-.31,0,0,0,0,0,0-.36-.14-.48.06-.63.28-.06.1-.14.22-.24.32-.21.2-.22.37-.2.48-.07-.04-.15-.09-.24-.08-.06,0-.11.04-.15.09-.05.08-.14.15-.23.21-.15.12-.31.24-.24.39.06.14.07.19.09.28,0,.05.02.1.04.19.03.12.1.21.2.26.1.05.23.06.35,0,0,0,0,0,0,0,0,0,0,0,0,0,.09-.04.18-.03.23.02.05.04.06.12.04.2-.05.19,0,.23.14.32.04.03.08.05.13.09.16.12.29.43.27.65,0,.07-.03.16-.12.2-.06.03-.08.03-.09.02-.02-.01-.02-.07-.03-.12,0-.1-.02-.24-.12-.35-.05-.05-.09-.12-.13-.18-.12-.19-.25-.39-.6-.17-.17.1-.29.13-.38.15-.15.04-.2.06-.17.29.02.14-.05.21-.1.26-.03.03-.07.07-.06.11,0,.05.05.1.16.17.13.09.23.13.31.16.14.05.21.08.26.3.05.21.12.32.22.35.05.01.14,0,.25-.12.09-.1.26-.16.42-.15.14.01.26.08.33.19.18.28.24.8.24.83,0,.09.07.17.21.24.13.07.31.11.5.13.05,0,.1,0,.15,0,.33,0,.58-.1.61-.24.02-.04.17-.31.19-.59.02-.32.14-.52.24-.64.06-.07.09-.06.13-.06.05,0,.11,0,.2-.06.14-.1.18-.1.31-.1.03,0,.05,0,.09,0,.07,0,.12-.03.14-.07.03-.07,0-.18-.12-.33-.09-.12-.05-.18.03-.34h0ZM7.49,10.42c0,.06-.08.11-.2.15-.13.04-.31.05-.49.04-.18-.02-.35-.06-.48-.12-.11-.06-.18-.12-.17-.18,0-.06.08-.11.2-.15.1-.03.22-.04.35-.04.05,0,.1,0,.15,0,.18.02.35.06.48.12.11.06.18.12.17.18h0ZM8.79,8.88s-.04.03-.09.03c-.03,0-.06,0-.09,0-.14,0-.19,0-.35.11-.07.05-.12.05-.16.05-.05,0-.11,0-.18.08-.11.13-.24.35-.26.68-.01.2-.09.39-.14.49-.03-.06-.09-.11-.19-.16-.13-.07-.31-.11-.5-.13-.33-.03-.6.03-.71.15-.03-.17-.1-.53-.24-.76-.08-.13-.21-.21-.38-.22-.18-.01-.37.05-.48.17-.05.06-.12.12-.19.1-.07-.02-.13-.13-.17-.3-.06-.25-.15-.29-.3-.35-.08-.03-.18-.07-.3-.15-.08-.06-.13-.1-.13-.12,0-.02.02-.03.04-.06.06-.05.14-.14.12-.31-.03-.18,0-.19.12-.22.09-.02.22-.05.4-.16.3-.18.39-.04.52.15.04.06.08.13.14.19.09.09.1.22.1.32,0,.08.01.15.06.17.03.02.08.01.15-.02.09-.04.14-.13.15-.25.02-.24-.12-.58-.29-.71-.05-.04-.1-.07-.13-.09-.14-.09-.16-.11-.12-.25.03-.1,0-.2-.06-.26-.05-.04-.11-.06-.18-.06.29-.3.32-.67.32-.68,0-.02-.01-.03-.03-.03-.02,0-.03.01-.03.03,0,0-.03.42-.37.71-.1.04-.21.04-.3,0-.08-.04-.14-.12-.16-.22-.02-.09-.03-.14-.04-.19-.02-.09-.03-.14-.09-.29-.05-.11.05-.19.22-.32.09-.07.19-.14.24-.23.03-.04.06-.06.1-.07.13-.01.28.14.29.14.01.01.03.01.04,0,.01-.01.01-.03,0-.04,0,0-.04-.05-.05-.14,0-.12.06-.25.19-.37.11-.1.18-.22.25-.33.14-.23.24-.38.55-.26.04.03.36.27.52.31.05.01.1.06.12.12.04.09.04.21,0,.29-.04.07-.01.14.01.21.04.11.08.24-.08.45-.18.22-.17.48-.1.64.06.14.16.23.28.25.13.01.19-.1.24-.22.06-.14.12-.27.31-.22.22.06.2.17.18.29-.01.07-.02.14.03.18.02.02.04.04.05.07.06.1.12.15.33.06.07-.03.09-.02.1-.02.01,0,.01.05,0,.09,0,.07,0,.18.08.23.07.05.13.13.12.22-.01.1-.1.19-.26.26-.14.06-.28-.02-.42-.22-.01-.02-.03-.02-.05-.03-.02,0-.04,0-.05.02-.09.09-.28.31-.24.49.02.09.08.15.18.2.15.07.26.07.33,0,.07-.07.07-.19.05-.25-.01-.03-.03-.06-.05-.09-.03-.05-.05-.08-.04-.13.13.09.24.08.31.05.23-.1.29-.22.3-.31,0,0,0-.01,0-.02.05.04.12.09.21.09,0,0,0,0,0,0,.06,0,.15.04.2.12.03.05.06.13,0,.24-.02.04-.04.07-.05.1-.09.16-.14.26-.03.41.13.18.12.25.11.27h0ZM7.71,8.1s.03.05.04.07c.01.04.02.13-.03.18-.05.04-.14.04-.26-.02-.08-.04-.13-.09-.14-.15-.03-.16.17-.38.23-.44.04.06.09.11.13.15-.04.09,0,.15.04.2h0Z"/>
          <path class="cls-1" d="M6.25,5.36s.02-.03.01-.04c0-.01-.03-.02-.04-.01-.38.23-.83.04-.83.04-.02,0-.03,0-.04.02,0,.02,0,.03.02.04.01,0,.19.08.42.08.15,0,.31-.03.47-.12Z"/>
          <path class="cls-1" d="M5.9,6.01c.15,0,.35-.04.56-.17.01,0,.02-.03.01-.04,0-.01-.03-.02-.04-.01-.5.31-.93.06-.93.06-.01,0-.03,0-.04.01,0,.01,0,.03.01.04,0,0,.12.07.3.1.04,0,.09.01.14.01Z"/>
          <path class="cls-1" d="M4.72,5.95h0s-.03.01-.03.03c0,0,0,.29-.22.6,0,.01,0,.03,0,.04,0,0,.01,0,.02,0,0,0,.02,0,.03-.01.23-.32.23-.62.23-.63,0-.02-.01-.03-.03-.03h0Z"/>
          <path class="cls-1" d="M6.35,6.68s0-.03-.01-.04c-.01,0-.03,0-.04.01,0,0-.05.08-.16.17-.1.08-.27.19-.53.22-.02,0-.03.02-.03.04,0,.02.02.03.03.03,0,0,0,0,0,0,.52-.07.73-.41.73-.42h0Z"/>
          <path class="cls-1" d="M6.64,7.21s0-.03,0-.04c-.01-.01-.03,0-.04,0,0,0-.32.39-.81.45-.02,0-.03.02-.03.03,0,.02.02.03.03.03,0,0,0,0,0,0,.51-.06.83-.45.85-.47h0Z"/>
          <path class="cls-1" d="M6.36,8.34s-.03,0-.04.02c0,.02,0,.03.02.04.06.02.11.02.17.02.22,0,.38-.11.39-.12.01,0,.02-.03,0-.04,0-.01-.03-.02-.04,0,0,0-.24.16-.51.08h0Z"/>
          <path class="cls-1" d="M7.04,8.92s-.34.21-.89.11c-.02,0-.03,0-.04.03,0,.02,0,.03.03.04.11.02.22.03.31.03.39,0,.61-.14.62-.15.01,0,.02-.03,0-.04,0-.01-.03-.02-.04,0h0Z"/>
          <path class="cls-1" d="M5.08,8.46c-.45.25-.85.06-.85.05-.02,0-.03,0-.04.01,0,.02,0,.03.01.04.01,0,.17.08.4.08.15,0,.33-.03.51-.14.02,0,.02-.03.01-.04,0-.02-.03-.02-.04-.01h0Z"/>
          <path class="cls-1" d="M4.83,8.12c.06,0,.12,0,.18-.03.02,0,.03-.02.02-.04,0-.02-.02-.03-.04-.02-.27.09-.48-.08-.49-.09-.01-.01-.03,0-.04,0-.01.01,0,.03,0,.04,0,0,.15.13.37.13Z"/>
          <path class="cls-1" d="M8.49,8.42c-.22.03-.36-.17-.37-.17,0-.01-.03-.02-.04,0-.01,0-.02.03,0,.04,0,0,.14.2.37.2.02,0,.04,0,.06,0,.02,0,.03-.02.03-.04,0-.02-.02-.03-.04-.03h0Z"/>
          <path class="cls-1" d="M8.33,8.83c-.12-.02-.22-.07-.3-.14-.06-.06-.08-.11-.08-.11,0-.02-.03-.02-.04-.02-.02,0-.02.03-.02.04,0,.01.11.25.43.29,0,0,0,0,0,0,.02,0,.03-.01.03-.03,0-.02,0-.03-.03-.04h0Z"/>
          <path class="cls-1" d="M7.46,7.29s.01,0,.02,0c0,0,.02,0,.03-.01,0-.01,0-.03,0-.04-.21-.14-.21-.37-.21-.38,0-.02-.01-.03-.03-.03h0s-.03.01-.03.03c0,.01,0,.27.24.43h0Z"/>
          <path class="cls-1" d="M7.77,7.67s0,0,0,0c.02,0,.03-.01.03-.03.02-.13.13-.17.14-.17.02,0,.03-.02.02-.04,0-.02-.02-.03-.04-.02,0,0-.15.05-.18.22,0,.02,0,.03.03.04h0Z"/>
        </g>
      </g>
    </g>
  </g>
</svg>