<?xml version="1.0" encoding="UTF-8"?>
<svg id="Layer_2" data-name="Layer 2" xmlns="http://www.w3.org/2000/svg" viewBox="0 0 86.13 71.04">
  <defs>
    <style>
      .cls-1 {
        fill: #eadbc4;
      }

      .cls-2 {
        fill: #e6d7be;
      }

      .cls-3 {
        fill: #fcf1dd;
      }

      .cls-4 {
        fill: #f0dbbd;
      }

      .cls-5 {
        fill: #efbdc0;
      }

      .cls-6 {
        fill: #fbf1de;
      }

      .cls-7 {
        fill: #4a4936;
      }

      .cls-8 {
        fill: #3d241d;
      }

      .cls-9 {
        fill: #494935;
      }

      .cls-10 {
        fill: #f2e9e8;
      }

      .cls-11 {
        fill: #a51f26;
      }

      .cls-12 {
        fill: #4c1715;
      }

      .cls-13 {
        fill: #371814;
      }

      .cls-14 {
        fill: #24221f;
      }

      .cls-15 {
        fill: #22201d;
      }

      .cls-16 {
        fill: #25231e;
      }

      .cls-17 {
        fill: #80c57d;
      }

      .cls-18 {
        fill: #fbf3e0;
      }

      .cls-19 {
        fill: #ba8e5f;
      }

      .cls-20 {
        fill: #cead96;
      }

      .cls-21 {
        fill: #d36d7b;
      }

      .cls-22 {
        fill: #86d686;
      }
    </style>
  </defs>
  <g id="Layer_1-2" data-name="Layer 1">
    <g>
      <polygon class="cls-4" points="33.78 10.16 44.72 5.87 71.81 18.23 47.48 32.13 33.78 10.16"/>
      <g>
        <path class="cls-4" d="M70.59,18.33c.37-.48.85-.23,1.22-.1,1.38.46,2.77.9,4.14,1.38,2.22.79,4.5,1.44,6.74,2.18.64.21,1.4.33,1.53,1.21-.18.37-.53.48-.88.6-2.86.98-5.69,2.03-8.56,2.99-5.04,1.68-10.05,3.47-15.05,5.28-5.22,1.89-10.46,3.73-15.71,5.53-.37.13-.74.26-1.14.2-10.63-4.05-21.39-7.74-32.08-11.63-3.23-1.18-6.45-2.42-9.74-3.44-.29-.09-.61-.16-.77-.48,1.19-.44,2.37-.89,3.57-1.3,4.4-1.51,8.76-3.16,13.16-4.66,4.33-1.48,8.63-3.03,12.95-4.54,1.27-.44,2.62-.67,3.8-1.38.39.03.56.36.74.62,1.04,1.49,2.02,3.01,3.04,4.51.14.21.3.43.2.72-.73.7-1.47,1.39-2.1,2.2-2.81,3.66-2.08,7.42,1.08,10.49,1.33,1.29,2.96,1.89,4.77,2.08.72.2,1.43.11,2.15,0,.97-.15,1.93-.29,2.86-.66,1.21-.49,2.29-1.1,2.95-2.28.14-.24.29-.5.59-.6.3-.08.57.04.82.18,2.85,1.56,5.96,2.15,9.17,2.31,1.15.06,1.18.03,1.17-1.15,0-.83.04-1.67-.05-2.5-.1-.92.14-1.15,1.07-.93,1.77.42,3.56.55,5.35.19,2.21-.45,4.04-1.63,5.67-3.15.39-.36.41-.67.02-1.04-.7-.66-1.45-1.27-2.15-1.93-.26-.25-.6-.44-.53-.89Z"/>
        <path class="cls-6" d="M42.9,37.39c1.23-.24,2.39-.71,3.57-1.12,5.4-1.9,10.78-3.84,16.18-5.75,3.95-1.4,7.9-2.77,11.86-4.15,3.24-1.13,6.49-2.25,9.73-3.37-.07.85-.66,1.38-1.22,1.91-.4.38-.36.73.11.88,1.02.32,1.02.99.78,1.82-.06.23-.25.48,0,.72-.15.35-.31.7-.31,1.09-.33.18-.61,0-.88-.14-.38-.19-.76-.35-1.17-.44-.71-.15-1.34-.06-1.79.6-.2.3-.47.56-.74.81-.82.77-1.47.87-2.49.38-.31-.15-.61-.3-.94-.38-.53-.14-1.06-.06-1.3.44-1,2.06-2.93,2.13-4.81,2.29-.93.08-1.88.02-2.82.01-.81,0-1.37.3-1.78,1.03-.82,1.45-1.52,1.66-2.92.74-1.21-.8-2.47-.6-3.42.47-.45.51-.97.95-1.43,1.44-1.1,1.17-2.46,1.5-4,1.26-.1-.02-.21-.03-.31-.06-1.94-.53-3.54.09-4.92,1.46-.72.72-1.45,1.42-2.24,2.07-.12.1-.23.21-.36.3-2.15,1.69-4.09,1.71-6.29.09-1.18-.87-2.13-2-3.25-2.94-1.27-1.07-2.63-1.52-4.27-1.04-2.02.6-3.63-.14-4.98-1.63-.35-.39-.66-.81-1.05-1.16-1.06-.94-2.07-1.05-3.28-.33-1.34.8-2.09.64-2.91-.71-.42-.69-.97-1.04-1.8-1-1.52.06-3.02-.04-4.52-.3-1.09-.19-1.94-.67-2.48-1.69-.48-.89-1.03-1.02-1.98-.65-2.16.85-2.24.85-3.71-.9-.58-.69-1.24-.8-2.03-.59-.48.13-.92.36-1.34.63-.24.15-.47.36-.79.23,0-.11,0-.21,0-.32.36-.62.02-1.22-.07-1.81-.1-.72-.33-1.41.67-1.76.51-.18.31-.59,0-.93-.51-.53-.93-1.11-.8-1.91.22-.02.41.06.58.19,1.64,1.27,3.59,1.9,5.51,2.57,6.62,2.32,13.27,4.56,19.91,6.81,4.94,1.67,9.89,3.31,14.83,4.99.61.21,1.15.3,1.66-.17Z"/>
        <path class="cls-7" d="M70.59,18.33c1.04.94,2.06,1.89,3.11,2.82.38.34.45.57.04.98-3.25,3.25-7.07,4.46-11.56,3.29-.66-.17-.83-.13-.75.61.12,1.11.07,2.24.13,3.35.03.54-.18.64-.67.64-3.81-.03-7.44-.76-10.78-2.68-.27-.02-.53-.05-.64-.36-.06-.2-.06-.42.02-.61.76-1.66.43-3.33.04-4.99-.06-.25-.14-.5-.08-.76.67-.85,1.43-.94,2.25-.19,1.33,1.21,2.67,2.4,3.94,3.66.51.52,1.08.98,1.46,1.37-1.58-1.38-3.1-3.08-4.83-4.56-1.4-1.2-1.38-1.23-.76-2.97.45-1.26,1.23-2.07,2.63-2.14,1.19.47,2.13-.13,3.16-.6,2.84-1.3,5.68-.85,8.48.25,1.76.69,3.28,1.78,4.79,2.89Z"/>
        <path class="cls-11" d="M49.65,20.49c.2,1.16.55,2.29.63,3.49.08,1.12-.42,2.05-.63,3.07.02.55-.36.89-.68,1.24-.42.45-.91.83-1.44,1.15-.23.14-.48.32-.77.1-.03-.35-.08-.55-.54-.36-1.66.7-3.41.94-5.21.82-1.26-.09-2.44-.4-2.99-.86.84.71,2.34,1.21,4.02,1.23.39,0,.78-.03,1.17.02.26.03.61-.02.64.39-.77.3-1.56.32-2.36.19-3.94-.21-6.97-3.37-7.71-6.82-.45-2.08.12-3.97,1.35-5.64.72-.99,1.39-2.07,2.61-2.58.35-.1.53.16.7.38.31.41.63.83.91,1.27.25.39.36.78.12,1.24-.3.59.12,1.01.48,1.34.36.32.83.25,1.23-.03.36-.25.61-.66,1.08-.73.54.05.86.35.93.87.07.51-.31.94-1.14,1.4.22-.14.46-.22.66-.39.64-.53.63-1.24-.01-1.76-.1-.08-.2-.16-.27-.28-.06-.12-.1-.24-.12-.37-.09-.6-.35-.89-1.04-.84-1.15.09-2.53-1.05-2.8-2.18-.03-.13-.03-.26.06-.37,1.6-.67,3.22-1.19,4.99-.82,1.59.33,2.88,1.15,3.97,2.32.18.19.3.43.57.51.91.79,1.45,1.77,1.59,2.97Z"/>
        <path class="cls-9" d="M51.34,16.1c0-.19-.15-.26-.26-.37-2.19-2.15-2.51-4.69-1.53-7.48.49-1.4,1.34-2.59,2.33-3.67,1.12-1.23,2.1-2.53,2.43-4.2.06-.31.14-.42.44-.2,4.81,3.56,5.47,8.46,2.49,12.67-.77,1.08-1.82,1.85-2.94,2.53-.16.1-.43.11-.41.4-.84.22-1.63.76-2.55.33Z"/>
        <path class="cls-19" d="M42.9,37.39c-.15.86-.66.82-1.33.59-7.5-2.54-15.01-5.05-22.51-7.6-5.01-1.7-10.03-3.35-14.98-5.22-1.34-.51-2.65-1.11-3.68-2.16-.05-.32-.39-.61-.11-.96,1.72.34,3.33,1.03,4.97,1.61,4.27,1.51,8.53,3.07,12.79,4.61,8.01,2.89,16.02,5.79,24.03,8.68.3.11.57.25.81.46Z"/>
        <path class="cls-13" d="M38.53,15.5c.37.82.87,1.52,1.63,2.03.29.19.59.31.94.29,1.34-.07,1.51.1,1.48,1.42-.03.18-.17.24-.32.29-.26.25-.52.5-.79.74-.72.66-1.67.48-2.09-.38-.08-.16-.17-.32-.29-.46-.22-.25-.35-.47.04-.68.32-.18.36-.45.17-.72-.49-.73-.91-1.5-1.57-2.1-1.32-1.93-6.47-10.01-7.16-12.41-.13-.47-.43-.82-.7-1.2-.43-.58-.53-1.22-.06-1.8.41-.5.97-.68,1.61-.4.65.28,1.07.92.78,1.67-.56,1.45,0,2.65.61,3.87,1.69,3.4,3.71,6.62,5.72,9.84Z"/>
        <path class="cls-15" d="M51.34,16.1c.84-.19,1.69-.33,2.55-.33.09,0,.18.02.27.02-1.79.43-2.33,1.89-2.85,3.39-.15.44.17.57.37.76,2.01,1.82,3.9,3.76,5.81,5.68.2.2.38.41.57.61-.05.05-.1.11-.14.16-.62-.53-1.26-1.05-1.86-1.6-1.51-1.39-3.06-2.75-4.5-4.21-.69-.69-1.27-.26-1.91-.11-.53-.99-1.06-1.98-1.59-2.97,1-.69,2.11-1.1,3.27-1.41Z"/>
        <path class="cls-8" d="M85.2,33.31c-.09.48-.48.73-.8,1.02-.46.42-.44.83-.06,1.29,1.01,1.22,1.03,1.6.17,3.05-.18.52-.46.98-.96,1.26-1.49.78-3.11,1.2-4.68,1.75-10.24,3.56-20.49,7.12-30.74,10.66-1.55.54-3.12,1.02-4.65,1.64-.74.3-1.45.29-2.21.03-7.22-2.49-14.43-5.01-21.65-7.52-4.11-1.43-8.22-2.87-12.34-4.28-1.73-.59-3.43-1.24-5.18-1.78-.41-.13-.78-.3-1.03-.66-.11-.15-.23-.31-.34-.46-.26-.22-.53-.42-.44-.83-.62-2-.21-3.9.6-5.76-.2-.23-.38-.46-.28-.79-.08-.52-.43-.99-.32-1.55.37-.32.75-.09,1.1.02,4.49,1.45,8.92,3.09,13.38,4.64,4.68,1.63,9.35,3.29,14.02,4.95,3.46,1.24,6.92,2.48,10.4,3.67,1.33.45,2,1.33,2.1,2.7.04.57.15,1.14.18,1.71.01.18.07.4.29.41.22,0,.28-.21.31-.39.06-.44.18-.87.18-1.32-.01-1.55.78-2.42,2.23-2.9,3.85-1.3,7.7-2.64,11.54-3.98,8.5-2.96,17.03-5.82,25.53-8.78.67-.23,1.34-.42,2.01-.65.32-.11.65-.22.95.07-.16.7-.17,1.34.62,1.7.39.34.14.71.06,1.07Z"/>
        <path class="cls-8" d="M84.43,47.59c.1.02.26,0,.28.06.07.17-.08.23-.2.26-.68.17-.6.49-.27.98.32.48.21,1.07.13,1.6-.07.51-.53,1,0,1.51.02.02-.02.14-.06.19-.97,1.38-.93,2.57.19,4.23-2.08.75-4.14,1.5-6.21,2.24-11.76,4.19-23.57,8.25-35.38,12.3-.41.14-.74.09-1.12-.05-12.29-4.32-24.59-8.63-36.88-12.93-1.28-.45-2.55-.89-3.84-1.31-.85-.28-1.09-.73-.74-1.55.07-.18.2-.26.1-.52-.55-1.44-.45-1.76.74-2.66-.04-.19-.25-.21-.37-.31-.45-.39-.6-.81-.07-1.23.41-.32.3-.56-.02-.86-.71-.67-.7-.68.24-1.08-.27-.29-.53-.57-.79-.85.45-.32.9-.11,1.33.04,3.47,1.21,6.95,2.42,10.42,3.64,5.27,1.85,10.53,3.71,15.8,5.57,4.06,1.44,8.12,2.86,12.17,4.31.99.35,1.54,1.02,1.7,2.05.12.8.22,1.6.2,2.41,0,.31-.02.63.06.93.06.2.14.42.38.45.28.04.41-.17.53-.38.18-.31.16-.66.15-.99-.02-.87.1-1.72.28-2.56.21-.98.76-1.57,1.73-1.92,5.49-1.92,11-3.81,16.49-5.73,7.14-2.49,14.29-4.98,21.44-7.47.52-.18,1.04-.33,1.59-.36Z"/>
        <path class="cls-2" d="M84.43,47.59c-2.14,1.02-4.43,1.65-6.66,2.43-11.02,3.86-22.06,7.69-33.09,11.51-.62.21-.95.59-1.1,1.18-.25.94-.37,1.89-.38,2.86,0,.31.01.63-.06.93-.11.46-.28.98-.88.91-.56-.06-.74-.55-.75-1.04-.02-1.02-.03-2.03-.18-3.04-.15-.99-.61-1.62-1.61-1.97-12.89-4.51-25.77-9.05-38.66-13.58-.29-.1-.56-.29-.9-.19.79-.72.82-1.79,1.23-2.69.16-1.52,2.92-1.81,3.69-.7.72,1.04,1.73,1.8,2.7,2.59.83.68,1.71.97,2.74.48,1.04-.49,1.92-.17,2.72.56.44.4.84.86,1.33,1.21.65.48,1.34.64,2.13.37.62-.21,1.22-.46,1.85-.62.89-.22,1.65-.02,2.33.57.62.54,1.12,1.16,1.56,1.85.74,1.14,1.74,1.66,3.13,1.4.77-.14,1.53-.32,2.29-.51,1.13-.29,2.12-.1,2.95.75.84.85,1.77,1.19,2.97.72,1.13-.45,2.16-.02,3.05.7,1.08.87,1.98,1.92,2.87,2.99,1.88,2.28,3.19,2.32,5.18.17.53-.57,1.03-1.18,1.53-1.78.66-.79,1.42-1.45,2.37-1.88.77-.34,1.54-.47,2.35-.13.8.34,1.58.25,2.17-.38,1.28-1.37,2.77-1.51,4.44-.93.22.08.45.12.68.17,2.09.45,2.85.14,4-1.65.28-.44.56-.88.95-1.24.85-.77,1.81-1.11,2.95-.73.54.18,1.08.4,1.62.57.76.24,1.43.11,2.05-.39.47-.38.89-.8,1.33-1.21.78-.74,1.7-.97,2.67-.58,1.28.51,2.25.1,3.22-.72.89-.74,1.64-1.6,2.43-2.42.83-.85,2.35-.78,3.16.08.09.1.13.22.15.35.35.86.71,1.72,1.05,2.58.08.21.18.37.41.42Z"/>
        <path class="cls-18" d="M82.97,44.6c-.13-.09-.25-.19-.38-.27-1.39-.84-2.3-.68-3.28.61-.8,1.05-1.8,1.86-2.9,2.57-.64.42-1.32.51-2.01.2-1.41-.63-2.4-.16-3.44.9-1.3,1.32-1.73,1.79-3.93.84-1.09-.47-2.14-.66-3.17.11-.55.42-.95.98-1.26,1.58-.77,1.51-2,2.21-4.14,1.69-.71-.17-1.42-.33-2.13-.5-.83-.2-1.53,0-2.15.6-.32.31-.66.59-1.01.85-.54.39-1.2.54-1.78.26-1.62-.79-2.85-.04-3.94.98-1.02.95-1.87,2.1-2.84,3.1-1.56,1.61-3.03,1.6-4.56-.04-.96-1.02-1.8-2.15-2.82-3.12-1.12-1.07-2.31-1.66-3.87-.97-.98.43-1.84,0-2.46-.7-.93-1.03-1.99-1.24-3.25-.83-.84.28-1.72.45-2.59.53-1.13.1-2.02-.4-2.65-1.33-.48-.71-.96-1.42-1.6-2.01-.62-.57-1.29-.81-2.14-.57-.58.16-1.14.36-1.69.59-1.11.45-2.03.13-2.87-.61-.25-.22-.49-.47-.72-.72-.83-.91-1.75-1.36-2.97-.72-1.39.72-2.32-.22-3.27-.98-.83-.66-1.59-1.4-2.28-2.24-.85-1.03-2.43-.77-3.46.51-.31-1.08,0-2.1.34-3.11.13-.37.06-.64-.16-.93-.24-.33-.52-.66-.5-1.11,6.69,2.31,13.38,4.62,20.06,6.94,6.88,2.38,13.77,4.77,20.65,7.17.37.13.67.14,1.04.01,13.13-4.56,26.26-9.12,39.39-13.67.47-.16.93-.33,1.4-.5.86-.27,2.09.12,2.52.81-.58.05-1.13-.11-1.66-.33-.51-.22-.87-.15-1.15.39-.33.64-.84,1.13-.3,2.01.31.5.25,1.35-.06,2.02Z"/>
        <path class="cls-1" d="M84.53,30.53c-1.55.35-3.03.92-4.53,1.43-11.77,4.03-23.53,8.09-35.3,12.14-1.84.63-2.02.88-2.17,2.85-.03.42-.06.83-.13,1.24-.06.36-.16.78-.63.77-.44-.01-.58-.4-.61-.78-.05-.47-.09-.94-.09-1.4.02-1.6-.76-2.46-2.28-2.99-10.2-3.55-20.38-7.17-30.57-10.76-2.63-.92-5.23-1.9-7.91-2.66-.02-.27.19-.43.3-.64.89-.7,1.81-1.31,3.02-1.26.51.02.9.18,1.2.61.27.38.56.75.88,1.09.53.55,1.14.66,1.85.33.51-.24.98-.57,1.59-.62.69-.05,1.24.21,1.46.81.55,1.47,1.8,1.67,3.08,1.86,1.24.18,2.49.23,3.74.15,1.06-.07,1.71.39,2.16,1.31.49,1.01,1.33,1.31,2.16.6,1.53-1.32,3.38-.65,4.59.92,1.39,1.81,3.05,2.66,5.37,1.95,1.58-.49,2.92.09,4.17,1.1,1.33,1.08,2.39,2.46,3.87,3.38,2.14,1.32,3.73.85,5.62-.7,1-.82,1.93-1.75,2.89-2.62,1.35-1.23,2.93-1.47,4.66-1.05,1.59.39,2.98.05,4.1-1.22.46-.53.99-1,1.49-1.5,1.15-1.15,2.12-1.25,3.48-.4.31.19.63.38.97.5.69.24,1.22-.05,1.45-.69.49-1.34,1.46-1.66,2.78-1.59,1.53.08,3.07.09,4.58-.3.92-.24,1.66-.64,2.09-1.58.44-.97,1.16-1.23,2.12-.73,2.23,1.15,2.48.5,3.66-1.01.68-.87,1.92-.66,3.01-.18.33.15.64.35.96.53.31.37.62.75.93,1.12Z"/>
        <path class="cls-3" d="M23.33,17.36c-1-.18-2.11-.18-3.16-.5-.14-.04-.33-.08-.34-.26,0-.07.09-.19.17-.22,1.32-.57,2.31-1.71,3.69-2.16,1.53-.51,3.07-.97,4.61-1.45.32-.1.52-.07.42.35-.51,2.17-3.1,4.25-5.39,4.25Z"/>
        <path class="cls-20" d="M46.78,29.55c1.21-.54,2.07-1.48,2.87-2.5.16.1.32.2.47.3-1.23,2.57-3.56,3.28-6.11,3.64-.84.12-1.68.32-2.52,0,.79-.11,1.62.05,2.39-.3.9-.55,1.82-1.05,2.91-1.14Z"/>
        <path class="cls-14" d="M70.08,20.66c-1.38-.18-2.77-.38-4.15-.54-1.21-.15-2.42-.32-3.64-.38-.7-.03-1.39-.2-2.1-.19-.44,0-.75-.28-.75-.65,0-.5.47-.25.72-.27,2.96-.26,5.7.72,8.48,1.51.47.13.95.26,1.42.4,0,.04,0,.08.01.13Z"/>
        <path class="cls-17" d="M60.27,22.53q-1.81-3.07-5.31-5.54c2.63.08,4.69,2.55,5.31,5.54Z"/>
        <path class="cls-12" d="M46.78,29.55c-.92.51-1.84,1.02-2.91,1.14-1.14-.04-2.29.07-3.42-.18-1.37-.3-2.53-.91-3.4-2.04-.1-.13-.25-.27-.17-.48,3,2.5,6.25,2.03,9.56.82.25-.09.53-.46.75-.19.22.27-.23.46-.34.71-.03.07-.05.15-.08.22Z"/>
        <path class="cls-10" d="M43.66,21.08c.02-.57.18-1.05.05-1.54-.08-.3.07-.55.43-.62.45-.09.95-.32,1.31.11.22.26.18.65-.04.94-.42.55-.98.91-1.75,1.11Z"/>
        <path class="cls-5" d="M42.25,19.54c.11-.1.21-.19.32-.29.55.34.94.76.71,1.47-.23.72-.92,1.13-1.95,1.16.4-.23.82-.41,1.16-.68.78-.63.67-1.28-.25-1.66Z"/>
        <path class="cls-21" d="M45.4,18.23c-.45.11-.74.07-1.17-.07.46-.25.74-.16,1.17.07Z"/>
        <path class="cls-22" d="M57.19,4.36c.61.36.73.91.89,1.41.46,1.5.32,2.98-.22,4.42-.19.51-.49.98-.92,1.33-.14.12-.31.26-.49.15-.17-.11-.12-.34-.07-.5.14-.5.32-.99.47-1.48.51-1.72.93-3.45.33-5.33Z"/>
        <path class="cls-16" d="M55.14,2.09c1.33,4.04-.21,7.61-1.83,11.17,1.17-3.63,2.07-7.3,1.83-11.17Z"/>
      </g>
    </g>
  </g>
</svg>