<?xml version="1.0" encoding="UTF-8"?>
<svg xmlns="http://www.w3.org/2000/svg" xmlns:xlink="http://www.w3.org/1999/xlink" viewBox="0 0 75.85 84.35">
  <defs>
    <style>
      .cls-1 {
        mask: url(#mask);
      }

      .cls-2 {
        filter: url(#luminosity-noclip);
      }

      .cls-3 {
        fill: #fff1c4;
      }

      .cls-4 {
        filter: url(#luminosity-noclip-3);
      }

      .cls-5 {
        fill: url(#linear-gradient-8);
      }

      .cls-6 {
        fill: url(#linear-gradient-7);
      }

      .cls-7 {
        fill: url(#linear-gradient-5);
      }

      .cls-8 {
        fill: url(#linear-gradient-6);
      }

      .cls-9 {
        fill: url(#linear-gradient-9);
      }

      .cls-10 {
        fill: url(#linear-gradient-4);
      }

      .cls-11 {
        fill: url(#linear-gradient-3);
      }

      .cls-12 {
        fill: url(#linear-gradient-2);
      }

      .cls-13 {
        fill: #c27646;
      }

      .cls-13, .cls-14, .cls-15, .cls-16, .cls-17, .cls-18 {
        opacity: .5;
      }

      .cls-13, .cls-19, .cls-20, .cls-21, .cls-22 {
        mix-blend-mode: multiply;
      }

      .cls-14, .cls-23 {
        fill: #538416;
      }

      .cls-24, .cls-25, .cls-22 {
        opacity: .2;
      }

      .cls-24, .cls-26 {
        fill: #e3be8d;
      }

      .cls-27 {
        fill: url(#linear-gradient);
      }

      .cls-28 {
        opacity: .1;
      }

      .cls-28, .cls-15, .cls-29 {
        fill: #fff;
      }

      .cls-29, .cls-30, .cls-21 {
        opacity: .3;
      }

      .cls-16 {
        fill: #61231c;
      }

      .cls-31 {
        fill: #769144;
      }

      .cls-32 {
        isolation: isolate;
      }

      .cls-33 {
        mask: url(#mask-2);
      }

      .cls-34 {
        mask: url(#mask-3);
      }

      .cls-35 {
        mask: url(#mask-1);
      }

      .cls-19 {
        fill: url(#linear-gradient-20);
      }

      .cls-20 {
        fill: url(#linear-gradient-25);
      }

      .cls-17, .cls-36 {
        fill: #81b756;
      }

      .cls-30, .cls-25, .cls-21, .cls-22 {
        fill: #d07a28;
      }

      .cls-37 {
        fill: #d3db9e;
      }

      .cls-38, .cls-18 {
        fill: #8ec726;
      }

      .cls-39 {
        fill: url(#linear-gradient-21);
      }

      .cls-39, .cls-40 {
        opacity: .7;
      }

      .cls-40 {
        fill: url(#linear-gradient-26);
      }

      .cls-41 {
        fill: url(#linear-gradient-10);
      }

      .cls-42 {
        fill: url(#linear-gradient-11);
      }

      .cls-43 {
        fill: url(#linear-gradient-12);
      }

      .cls-44 {
        fill: url(#linear-gradient-13);
      }

      .cls-45 {
        fill: url(#linear-gradient-19);
      }

      .cls-46 {
        fill: url(#linear-gradient-14);
      }

      .cls-47 {
        fill: url(#linear-gradient-22);
      }

      .cls-48 {
        fill: url(#linear-gradient-23);
      }

      .cls-49 {
        fill: url(#linear-gradient-28);
      }

      .cls-50 {
        fill: url(#linear-gradient-15);
      }

      .cls-51 {
        fill: url(#linear-gradient-16);
      }

      .cls-52 {
        fill: url(#linear-gradient-17);
      }

      .cls-53 {
        fill: url(#linear-gradient-18);
      }

      .cls-54 {
        fill: url(#linear-gradient-27);
      }

      .cls-55 {
        fill: url(#linear-gradient-24);
      }

      .cls-56 {
        fill: #a8d458;
      }

      .cls-57 {
        fill: #a9bf8a;
      }

      .cls-58 {
        fill: #f4e669;
      }
    </style>
    <linearGradient id="linear-gradient" x1="74.19" y1="55.75" x2="65.07" y2="60.14" gradientUnits="userSpaceOnUse">
      <stop offset="0" stop-color="#8dbb3f"/>
      <stop offset="1" stop-color="#699334"/>
    </linearGradient>
    <linearGradient id="linear-gradient-2" x1="7.05" y1="75.37" x2="67.06" y2="75.37" gradientUnits="userSpaceOnUse">
      <stop offset="0" stop-color="#fee8a3"/>
      <stop offset="1" stop-color="#fedf7e"/>
    </linearGradient>
    <linearGradient id="linear-gradient-3" x1="48.25" y1="75.89" x2="67.06" y2="75.89" gradientUnits="userSpaceOnUse">
      <stop offset="0" stop-color="#ebca65"/>
      <stop offset="1" stop-color="#e3c156"/>
    </linearGradient>
    <linearGradient id="linear-gradient-4" x1="-118.08" y1="852.41" x2="-107.78" y2="861.87" gradientTransform="translate(-106.71 -799.03) rotate(-17)" xlink:href="#linear-gradient"/>
    <linearGradient id="linear-gradient-5" x1=".63" y1="65.8" x2="12.77" y2="65.8" xlink:href="#linear-gradient"/>
    <linearGradient id="linear-gradient-6" x1="29.15" y1="90.53" x2="41.45" y2="67.88" xlink:href="#linear-gradient"/>
    <linearGradient id="linear-gradient-7" x1="15.96" y1="75.15" x2="17.28" y2="72.73" gradientUnits="userSpaceOnUse">
      <stop offset="0" stop-color="#709e38"/>
      <stop offset="1" stop-color="#538416"/>
    </linearGradient>
    <linearGradient id="linear-gradient-8" x1="11.63" y1="74.99" x2="11.06" y2="69.72" xlink:href="#linear-gradient-7"/>
    <linearGradient id="linear-gradient-9" x1="30.17" y1="76.85" x2="29.13" y2="72.2" xlink:href="#linear-gradient-7"/>
    <linearGradient id="linear-gradient-10" x1="74.86" y1="64.81" x2="70.43" y2="66.19" xlink:href="#linear-gradient-7"/>
    <linearGradient id="linear-gradient-11" x1="50.33" y1="77.77" x2="46.06" y2="76.46" xlink:href="#linear-gradient-7"/>
    <linearGradient id="linear-gradient-12" x1="34.6" y1="73.47" x2="39.3" y2="75.62" xlink:href="#linear-gradient-7"/>
    <linearGradient id="linear-gradient-13" x1="-38.97" y1="462.1" x2="5.06" y2="462.1" gradientTransform="translate(-29.42 -404.29) rotate(-8.53)" gradientUnits="userSpaceOnUse">
      <stop offset=".18" stop-color="#f1c4b8"/>
      <stop offset=".44" stop-color="#e3b7a7"/>
      <stop offset=".95" stop-color="#c1957d"/>
      <stop offset="1" stop-color="#be9279"/>
    </linearGradient>
    <linearGradient id="linear-gradient-14" x1="-34.63" y1="451.69" x2="-2.08" y2="468.05" gradientTransform="translate(-29.42 -404.29) rotate(-8.53)" gradientUnits="userSpaceOnUse">
      <stop offset="0" stop-color="#ce2025"/>
      <stop offset="1" stop-color="#9d2025"/>
    </linearGradient>
    <linearGradient id="linear-gradient-15" x1="-56.4" y1="462.58" x2="2.53" y2="459.62" gradientTransform="translate(-29.42 -404.29) rotate(-8.53)" gradientUnits="userSpaceOnUse">
      <stop offset="0" stop-color="#b1191b"/>
      <stop offset="1" stop-color="#87191b"/>
    </linearGradient>
    <linearGradient id="linear-gradient-16" x1="-41.8" y1="620.22" x2="3.17" y2="620.22" gradientTransform="translate(-52.91 -552.84) rotate(-11.61)" xlink:href="#linear-gradient-13"/>
    <linearGradient id="linear-gradient-17" x1="-41.89" y1="618.5" x2="2.81" y2="618.5" gradientTransform="translate(-52.91 -552.84) rotate(-11.61)" xlink:href="#linear-gradient-14"/>
    <linearGradient id="linear-gradient-18" x1="-41.89" y1="618.5" x2="2.81" y2="618.5" gradientTransform="translate(-52.91 -552.84) rotate(-11.61)" xlink:href="#linear-gradient-15"/>
    <linearGradient id="linear-gradient-19" x1="4.83" y1="59.53" x2="68.42" y2="59.53" xlink:href="#linear-gradient-2"/>
    <filter id="luminosity-noclip" x="6.78" y="51.27" width="31.78" height="16.47" color-interpolation-filters="sRGB" filterUnits="userSpaceOnUse">
      <feFlood flood-color="#fff" result="bg"/>
      <feBlend in="SourceGraphic" in2="bg"/>
    </filter>
    <filter id="luminosity-noclip-2" x="6.78" y="-8892.09" width="31.78" height="32766" color-interpolation-filters="sRGB" filterUnits="userSpaceOnUse">
      <feFlood flood-color="#fff" result="bg"/>
      <feBlend in="SourceGraphic" in2="bg"/>
    </filter>
    <mask id="mask-1" x="6.78" y="-8892.09" width="31.78" height="32766" maskUnits="userSpaceOnUse"/>
    <linearGradient id="linear-gradient-20" x1="5.37" y1="54.78" x2="35.93" y2="62.2" gradientUnits="userSpaceOnUse">
      <stop offset="0" stop-color="#fff"/>
      <stop offset="1" stop-color="#000"/>
    </linearGradient>
    <mask id="mask" x="6.78" y="51.27" width="31.78" height="16.47" maskUnits="userSpaceOnUse">
      <g class="cls-2">
        <g class="cls-35">
          <path class="cls-19" d="M8.48,61.04c5.36,1.34,19.83,4.6,30.07,6.71-.12-3.99-.37-10.51-.37-10.51l-29.18-5.97-2.23.07,1.7,9.69Z"/>
        </g>
      </g>
    </mask>
    <linearGradient id="linear-gradient-21" x1="5.37" y1="54.78" x2="35.93" y2="62.2" gradientUnits="userSpaceOnUse">
      <stop offset="0" stop-color="#fff6db"/>
      <stop offset="1" stop-color="#fff1c4"/>
    </linearGradient>
    <linearGradient id="linear-gradient-22" x1="49.32" y1="59.53" x2="68.42" y2="59.53" xlink:href="#linear-gradient-3"/>
    <linearGradient id="linear-gradient-23" x1="3.47" y1="50.29" x2="68.69" y2="50.29" gradientUnits="userSpaceOnUse">
      <stop offset="0" stop-color="#fffdc7"/>
      <stop offset="1" stop-color="#f7f281"/>
    </linearGradient>
    <linearGradient id="linear-gradient-24" x1="1.57" y1="35.11" x2="70.56" y2="35.11" xlink:href="#linear-gradient-2"/>
    <filter id="luminosity-noclip-3" x="3.73" y="28.36" width="29.22" height="23.93" color-interpolation-filters="sRGB" filterUnits="userSpaceOnUse">
      <feFlood flood-color="#fff" result="bg"/>
      <feBlend in="SourceGraphic" in2="bg"/>
    </filter>
    <filter id="luminosity-noclip-4" x="3.73" y="-8892.09" width="29.22" height="32766" color-interpolation-filters="sRGB" filterUnits="userSpaceOnUse">
      <feFlood flood-color="#fff" result="bg"/>
      <feBlend in="SourceGraphic" in2="bg"/>
    </filter>
    <mask id="mask-3" x="3.73" y="-8892.09" width="29.22" height="32766" maskUnits="userSpaceOnUse"/>
    <linearGradient id="linear-gradient-25" x1="3.73" y1="40.33" x2="32.95" y2="40.33" xlink:href="#linear-gradient-20"/>
    <mask id="mask-2" x="3.73" y="28.36" width="29.22" height="23.93" maskUnits="userSpaceOnUse">
      <g class="cls-4">
        <g class="cls-34">
          <path class="cls-20" d="M32.56,39.55L3.73,28.36l1.89,15.64c4.86,1.74,17.04,5.39,27.33,8.3l-.4-12.74Z"/>
        </g>
      </g>
    </mask>
    <linearGradient id="linear-gradient-26" x1="3.73" y1="40.33" x2="32.95" y2="40.33" xlink:href="#linear-gradient-21"/>
    <linearGradient id="linear-gradient-27" x1="49.05" y1="35.11" x2="70.56" y2="35.11" xlink:href="#linear-gradient-3"/>
    <linearGradient id="linear-gradient-28" x1="3.85" y1="31.34" x2="60.16" y2="31.34" xlink:href="#linear-gradient-21"/>
  </defs>
  <g class="cls-32">
    <g id="Layer_2" data-name="Layer 2">
      <g id="Layer_1-2" data-name="Layer 1">
        <g>
          <g>
            <path class="cls-27" d="M62.61,56.13c3.95-1.88,10.69.97,11.63,2.53s-3.16,4.6-8.4,5.53c-7.7,1.36-3.23-8.06-3.23-8.06Z"/>
            <path class="cls-14" d="M74.36,59.38c-3.09-.08-7.41-.19-9.64-.37-1.46-.12-.65-2.1-1.9-2.96-.07.03-.14.06-.2.09h0s-1.21,4.31-.47,7.42c.67.66,1.82.97,3.7.64,4.53-.8,8.22-3.16,8.52-4.81Z"/>
            <path class="cls-12" d="M7.05,66.39l1.96,10.85,39.44,7.1,18.21-9.38.4-7.52s-17.17,5.87-18.53,6.1c-2.15.36-41.49-7.15-41.49-7.15Z"/>
            <path class="cls-11" d="M67.06,67.44s-17.17,5.87-18.53,6.1c-.06.01-.16.01-.29.01l.2,10.79,18.21-9.38.4-7.52Z"/>
            <g>
              <path class="cls-10" d="M46.66,52.59s-1.98-2.55-3.71-2.96c-.79-.19-2.06,1.05-2.56,1.82-1.47-.45-3.04-.69-3.68-.48-.92.29-.58,2.52-.58,2.52,0,0-3.37-1.19-4.99.21-.92.79-.49,3.61-.49,3.61,4.26,8.13,17.28-2.75,17.28-2.75l-1.26-1.97Z"/>
              <path class="cls-38" d="M44.12,57.58l-7.34-6.64s-.06,0-.08.02c-.92.29-.58,2.52-.58,2.52l5.26,4.99,2.74-.89Z"/>
              <path class="cls-7" d="M7.36,61.79c-.27,0-6.92,1.23-6.72,2.28.42,2.23,4.43,3.75,4.43,3.75,0,0-1.77,1.02-1.67,1.79.09.66,5.64-.42,8.67-1.65,3.03-1.23-4.71-6.18-4.71-6.18Z"/>
              <path class="cls-14" d="M5.07,67.83s-1.77,1.02-1.67,1.79c.09.66,5.64-.42,8.67-1.65,1.17-.48-1.69-1.97-.24-2.59-3.24,1.38-6.76,2.44-6.76,2.44Z"/>
              <path class="cls-8" d="M14.61,67.06s-7.57,3.75-7.76,4.69c-.14.71,6.63,2.72,8.61,2.29.7-.15,3.53-2.32,3.83-2.29,1.59.17,1.76.35,3.32.67.56.12,1.89.48,2.01,1.38.05.38-1.57.86-1.57.86-.74.52.2,1.3,1.7,1.82,1.49.52,5.3,1.5,6.91,1.42.66-.83,1.66-1.93,2.02-2.39.44,1.04.74,2.45,1.07,3.03.31.54.46,1.08,1.06,1.41.94.53,1.87.29,2.42-.47.56-.77,1.32-2.51,2.81-4.44,1.28-.36,2.23-.13,3.55.12.21.04-1.29,1.79-1.6,2.01-.37.26.19.55.37.93s.83.68,1.2.93c1.63,1.12,3.6,2.19,5.72,2.35,1.7.13,3.81-1.64,4.4-2.91l.8-3.73,3.86,1.76s.94-.24,1.55-1.15c.69-1.04.65-5.44.65-5.44l5.38,2.01s3.46-.95,5.56-2.98c2.1-2.02,2.79-2.57,2.16-3.86-.94-1.94-5.63-4.25-7.99-5.13-2.36-.89-35.96-2.04-52.02,7.11Z"/>
              <path class="cls-18" d="M38.47,75.07l3.17-2.78s3.52-.29,3.35-.15-2.53,2.83-2.53,2.83c0,0-2.72-.33-3.99.1Z"/>
              <path class="cls-18" d="M52.33,80.79l-2.29-8.74.88-.24,3.82,5.91s-.7,2.39-2.41,3.08Z"/>
              <path class="cls-6" d="M15.46,74.04c.7-.15,3.53-2.32,3.83-2.29.26.03.47.05.67.08-1.07-.36-3.4-1.04-4.05-.43-.85.79-.27,2-.27,2l-.38.67c.07,0,.14-.02.21-.03Z"/>
              <path class="cls-5" d="M15.46,74.04l.18-3.1-4.94-1.83c-.23.13-.45.25-.68.38l-3.13,2.18s-.03.05-.03.08c-.14.71,6.63,2.72,8.61,2.29Z"/>
              <path class="cls-18" d="M10.04,73.41l4.41-2.98,1.19.51s.2,2.94-.17,3.1c-.37.15-5.01-.33-5.42-.63Z"/>
              <path class="cls-9" d="M36.62,68.44s-15.76,1.49-15.96,1.6c-.07.04-.02.85.08,1.93.52.12.96.26,1.87.45.56.12,1.89.49,2.01,1.38.05.38-1.57.86-1.57.86-.74.52.2,1.3,1.7,1.82.5.17,1.26.4,2.11.62l3.46-2.93,1.3-3.34,5.01-2.38Z"/>
              <path class="cls-41" d="M74.62,65.09c-.56-1.15-2.46-2.44-4.39-3.48l-8.32,6.25.69,2.46,4.31,1.61s3.46-.95,5.56-2.98c2.1-2.02,2.79-2.57,2.16-3.86Z"/>
              <path class="cls-18" d="M68.01,64.33l6.52.24s1.23,1.03-.29,2.44l-6.58-1.61.35-1.07Z"/>
              <path class="cls-23" d="M60.86,75.36c.48-.72.61-3.04.64-4.41l-5.9,2.18s-.31,1-.25,2.09l.1-.48,3.86,1.76s.94-.24,1.55-1.15Z"/>
              <path class="cls-42" d="M46.29,76.09c-.75-.46-1.36-.63-1.8-.68-.32.5-1.27,1.59-1.51,1.75-.37.26.19.55.37.93.18.37.83.68,1.2.93.68.47,2.35,1.46,3.82,2.03l.35-7.68-1.22.05-1.21,2.66Z"/>
              <path class="cls-23" d="M33.85,75.96c-.64-3.13-2.07-4.09-2.07-4.09-2.08,1.35-1.15,4.27-.33,6.02.07,0,.14,0,.2,0,.66-.83,1.66-1.93,2.02-2.39.06.14.12.3.18.45Z"/>
              <path class="cls-43" d="M39.68,70.38l-6.01,5.13c.44,1.04.74,2.45,1.07,3.03.31.54.46,1.08,1.06,1.41.94.53,1.87.29,2.42-.47.56-.77,1.32-2.51,2.81-4.44-1.65-.31-4.2.31-4.2.31l5.37-4.35-2.51-.62Z"/>
              <path class="cls-56" d="M75.35,65.54c-.62-2.66-7.04-5.1-7.31-5.2-.24-.09-.53,0-.64.2-.11.2.29.24.54.33,1.73.65,6.25,2.81,6.68,4.67.18.78-1.73,2.71-4.07,4.23-1.92,1.25-3.25,1.4-3.47,1.32-.09-.26.79-1.23,1.21-1.7.85-.95,1.33-1.5,1.14-1.98-.08-.2-.05-.25-.31-.32-.93-.23-3.12.68-4.34,1.25-.6.28-3.44,1.57-3.72,2.44-.1.31-.14.81-.18,1.44-.08,1.07-.26,3.55-.95,3.84-.07.03-.1.02-.11.02-.3-.1-.81-1.31-1.05-1.87-.41-.98-.81-1.9-1.61-2.15-.24-.07-.46-.09-.92.13-.97.46-1.14,1.46-1.32,2.9-.05.43-.08.7-.18,1.14h0c-.66,3.27-2.67,4.62-4.18,4.79-1.49.16-3.56-.82-4.67-1.41-1.6-.86-2.34-1.75-2.38-1.98.11-.14.77-.36,1.13-.47.85-.28,1.65-.54,1.63-1.1-.02-.88-2.13-1.27-2.38-1.31-1.62-.28-3.55-.28-5.43-.02-1.36.19-2,.64-1.9,1.34.06.43.26.86.45,1.28.15.32.29.63.36.91.12.44.16.79,0,1.06-.13.21-.4.36-.68.38-1.17.07-1.69-1.21-2.09-2.41l-.02-.05c-.16-.48-.28-.98-.4-1.46-.16-.63-.32-1.28-.56-1.92v-.04c-1.01-2.62-1.57-2.95-1.82-2.98-.22-.03-.44.04-.59.2-1.75,1.85-1.19,4.74-.7,6.17-2.13-.13-4.24-.6-6.15-1.38-.32-.13-.65-.28-.82-.5-.13-.17-.13-.41,0-.5.07-.05.21-.08.35-.11.2-.04.42-.09.62-.21.25-.15.41-.39.44-.67.04-.33-.11-.7-.38-.95-.43-.39-1.07-.54-1.53-.64l-4.81-1.1c-.55-.13-1.23-.28-1.91-.16-.74.14-1.44.69-1.34,1.38.03.18.11.34.18.48.06.12.11.23.12.32.02.22-.25.43-.52.51-.36.1-.8.06-1.18,0-2.21-.3-4.36-.98-6.26-1.97.52-.37,1.25-.79,2.08-1.27.76-.44,1.61-.93,2.42-1.45l-.5-.53c-.79.51-1.63,1-2.38,1.43-1.08.62-2.01,1.16-2.56,1.64l-.34.29.4.23c2.09,1.18,4.52,1.97,7.01,2.31.48.06,1.03.12,1.57-.03.56-.16,1.11-.62,1.07-1.19-.02-.21-.1-.38-.18-.54-.06-.11-.11-.21-.12-.3-.04-.29.34-.57.71-.64.48-.09,1.03.04,1.51.15l4.81,1.1c.5.11.9.22,1.15.45.12.11.19.28.17.42-.01.09-.05.15-.11.19-.08.05-.21.07-.34.1-.21.04-.44.09-.65.23-.53.35-.51.98-.19,1.4.29.37.74.58,1.15.74,2.18.89,4.62,1.4,7.05,1.47l.59.02-.18-.46c-.44-1.1-1.26-3.79.3-5.62.2.24.58.87,1.08,2.19l.02.04c.23.6.39,1.24.54,1.85.12.49.25,1,.41,1.5l.02.05c.35,1.06,1,3.03,2.94,2.91.56-.04,1.09-.33,1.35-.75.29-.47.2-1,.07-1.51-.09-.34-.25-.68-.4-1.01-.18-.4-.36-.78-.41-1.12-.02-.11-.06-.41,1.23-.59,1.78-.25,3.6-.25,5.13.01.82.14,1.64.48,1.72.65-.12.14-.76.35-1.11.47-.75.25-1.47.48-1.62.93-.23.69,1.23,1.91,2.73,2.72,1.34.72,3.2,1.54,4.78,1.54.15,0,.3,0,.44-.02,1.78-.19,4.12-1.7,4.87-5.3,0,0,0,0,0,0,.13-.61.13-.45.2-1,.14-1.17.28-2.27.81-2.52.16-.08.24-.06.26-.05.38.12.76,1.01,1.03,1.66.4.95.75,1.76,1.45,2,.2.07.52.11.9-.05,1.19-.5,1.33-2.45,1.45-4.01.04-.54.08-1.05.15-1.28.32-.77,5.54-3.22,6.85-3.29-.16.28-.61.79-.93,1.14-.81.89-1.57,1.74-1.38,2.38.05.16.18.39.54.53,1.05.41,3.11-.77,4.24-1.5,1.72-1.12,4.55-3.4,4.21-4.88Z"/>
            </g>
            <g>
              <path class="cls-44" d="M20.05,40.04C9.84,41.05-.36,48.4.35,56.75c.13,1.5.73,4.33,1.39,5.7,2.2,4.57,12.07,9.24,24.04,7.75,11.75-1.46,19.27-6.68,18.92-14.34-.03-.69-.95-3.39-1.16-4.12-2.43-8.39-14.08-12.64-23.49-11.71Z"/>
              <path class="cls-46" d="M19.74,38.31C9.52,39.32-.67,46.68.03,55.03c.77,9.19,14.41,15.81,26.01,13.89,11.03-1.83,20.23-8.33,17.18-18.9-2.43-8.39-14.08-12.64-23.49-11.71Z"/>
              <path class="cls-50" d="M43.22,50.02c-2.43-8.39-14.08-12.64-23.49-11.71C9.52,39.32-.67,46.68.03,55.03c.77,9.19,14.41,15.81,26.01,13.89,11.03-1.83,20.23-8.33,17.18-18.9ZM40.84,58.33c-2.68,6.12-10.41,9.34-16.67,9.83-9.6.75-21.97-4.45-22.76-13.04-.75-8.07,9.09-14.98,18.69-15.73,9.16-.71,18.79,4.14,21.14,10.98,1.28,3.71.04,6.94-.4,7.96Z"/>
              <path class="cls-15" d="M7.04,53.91c.56-.54-1.3-3.45-2.74-2.85-1.44.6,1.86,3.7,2.74,2.85Z"/>
              <path class="cls-29" d="M18.97,45.39c.96-.09,2.43-1.88,1.9-2.32-.53-.44-2.12.88-2.12.88,0,0-1.09-1.89-1.9-1.18-.8.71,1.04,2.72,2.11,2.62Z"/>
              <path class="cls-15" d="M11.12,62.27s-2.21.97-1.49,1.49c.72.52,3.36-.75,3.54-1.43.18-.68-3.09-2.5-3.63-1.82-.35.44,1.58,1.76,1.58,1.76Z"/>
              <path class="cls-29" d="M28.02,61.75c1.67.07,1.09,3.05-.3,2.89-1.4-.16-1.27-2.96.3-2.89Z"/>
              <path class="cls-28" d="M7.04,60.3c.55-.32.68-.97.29-1.43-.39-.46-1.17-.57-1.72-.24-.55.32-.68.97-.29,1.43.39.46,1.17.57,1.72.24Z"/>
              <path class="cls-28" d="M8.16,47.4c.33-.34.07-.84-.41-.91-.06-.01-.13-.02-.2-.02-.23.02-.45.14-.54.32-.07.14-.09.3-.02.44.19.4.83.51,1.17.17Z"/>
              <path class="cls-28" d="M8.45,56.38c.46-.27.6-.79.31-1.14-.3-.35-.93-.41-1.39-.14-.46.27-.6.79-.31,1.14.3.35.93.41,1.39.14Z"/>
              <path class="cls-29" d="M13.96,45.03c.58-.34.72-1.03.31-1.51-.41-.48-1.23-.6-1.81-.26-.58.34-.72,1.03-.31,1.51.41.48,1.23.6,1.81.26Z"/>
              <path class="cls-15" d="M3.1,54.97c.6.22,1.31-.09,1.42-.63.07-.32-.11-.63-.4-.81,0,0,.02,0,.03.01,0,0,0,0-.01-.01-.17-.14-.4-.18-.64-.17-.02,0-.05,0-.07,0,0,0,0,0,0,0,0,0,.02,0,.02,0-.09,0-.18.02-.26.04-.26.06-.49.26-.6.45-.24.42,0,.93.51,1.12Z"/>
              <path class="cls-28" d="M23.74,66.82c.64.24,1.4-.1,1.51-.67.07-.34-.12-.67-.42-.87,0,0,.02,0,.03.01,0,0-.01,0-.01-.01-.18-.15-.43-.19-.68-.18-.02,0-.05,0-.07,0,0,0,0,0,0,0,0,0,.02,0,.03,0-.09,0-.19.02-.27.04-.28.06-.52.27-.64.48-.25.44,0,.99.54,1.19Z"/>
            </g>
            <g>
              <path class="cls-51" d="M46.25,43.43c-7.52,1.96-14.74,7.72-15.88,14.57-.2,1.21.42,4.47.7,5.66,1.83,7.81,14.39,12.54,26.11,10.55,9.67-1.64,18.57-7.98,18.68-15.5.01-1-.91-4.56-1.27-5.56-3.2-9.05-17.16-12.62-28.33-9.71Z"/>
              <path class="cls-52" d="M45.76,41.45c-8.85,2.3-16.94,9.8-15.69,17.8,1.51,9.64,15.96,16,27.83,13.38,10.19-2.25,18.79-11.17,16.44-19.8-2.6-9.56-17.42-14.29-28.59-11.38Z"/>
              <path class="cls-53" d="M45.76,41.45c-8.85,2.3-16.94,9.8-15.69,17.8,1.51,9.64,15.96,16,27.83,13.38,10.19-2.25,18.79-11.17,16.44-19.8-2.6-9.56-17.42-14.29-28.59-11.38ZM57.55,71.63c-11.18,2.48-24.69-3.57-26.07-12.53-1.13-7.34,6.27-14.17,14.22-16.43,10.28-2.92,24.34.99,27.15,9.84,2.59,8.15-5.48,16.93-15.3,19.11Z"/>
              <g>
                <path class="cls-28" d="M66.12,46.37c-.31-.36-.97-.28-1.18.08-.03.05-.06.1-.07.16-.04.19.04.4.23.52.15.1.32.15.52.14.52-.04.82-.54.51-.9Z"/>
                <path class="cls-28" d="M69.39,60.78c-.2-.46-.83-.7-1.38-.53-.55.16-.85.68-.65,1.14.2.46.83.7,1.38.53.55-.16.85-.68.65-1.14Z"/>
                <path class="cls-15" d="M40.01,47.76c1.63,0,1.26,2.91-.11,2.82-1.38-.09-1.43-2.81.11-2.82Z"/>
                <path class="cls-29" d="M62.96,66.79s-2.04.24-1.77-.51c.27-.75,3.14-.89,3.69-.41.55.48-1.67,3.18-2.56,2.93-.88-.26.63-2.01.63-2.01Z"/>
                <path class="cls-28" d="M52.38,68.39c-1.13-.23-1.33-3.06.12-2.96,1.44.1.96,3.18-.12,2.96Z"/>
                <path class="cls-28" d="M48.33,67.49c-.52-.68-3.15-.99-3.39-.4-.25.59,1.91,1.2,1.91,1.2,0,0-1.86,1.8-.73,2.09,1.14.29,2.79-2.13,2.2-2.9Z"/>
                <path class="cls-29" d="M42.24,61.8c0-.49-2.89-.38-3.27.82-.38,1.21,2.02,2.6,2.35,2.08.33-.52-.52-1.84-.52-1.84,0,0,1.44-.57,1.44-1.06Z"/>
              </g>
            </g>
            <path class="cls-16" d="M6.39,60.44s20.61,6.8,44.42,11.09c0,0,14.91-9.01,16.95-13.81l-61.37,2.72Z"/>
            <path class="cls-45" d="M4.83,51.41s1.15,8.59,1.56,9.04c.41.45,39.67,9.24,42.94,9.24,2.6,0,18.33-11.62,18.44-12.25.27-1.58.66-8.05.66-8.05l-63.59,2.03Z"/>
            <g class="cls-1">
              <path class="cls-39" d="M8.48,61.04c5.36,1.34,19.83,4.6,30.07,6.71-.12-3.99-.37-10.51-.37-10.51l-29.18-5.97-2.23.07,1.7,9.69Z"/>
            </g>
            <path class="cls-47" d="M67.76,57.53c.27-1.58.66-8.15.66-8.15l-2.63.08s-16.31,8.13-16.25,12.52c.07,4.4-.22,7.7-.22,7.7,0,0,.34-.07.92-.19,4.16-1.31,17.41-11.38,17.51-11.96Z"/>
            <path class="cls-48" d="M3.47,42.82l1.36,8.58s43.06,10.77,44.77,10.65c1.64-.11,18.82-12.69,18.82-12.69l.27-10.84L3.47,42.82Z"/>
            <polygon class="cls-36" points="6.95 47.72 8.59 49.2 9.58 48.9 7.52 46.89 6.95 47.72"/>
            <polygon class="cls-17" points="28.84 56.01 30.97 54.3 31.47 55.19 29.62 56.49 28.84 56.01"/>
            <polygon class="cls-17" points="10.32 51.79 10.89 50.51 11.75 50.96 11.28 51.89 10.32 51.79"/>
            <polygon class="cls-36" points="40.86 57.98 43.09 59.18 43.51 58.73 41.52 57.23 40.86 57.98"/>
            <polygon class="cls-36" points="25.65 53.04 26.59 54.19 27.21 53.93 26.63 52.6 25.65 53.04"/>
            <polygon class="cls-57" points="15.23 49.95 13.83 49.18 13.38 49.61 14.52 50.67 15.23 49.95"/>
            <polygon class="cls-37" points="38.64 58.63 39.11 57.21 38.42 56.98 37.79 58.4 38.64 58.63"/>
            <path class="cls-58" d="M68.69,38.53l-1.73.11c-5.79,5.17-15.26,13.93-17.64,17.84,0,0,.02,2.36.27,5.57,1.64-.11,18.82-12.69,18.82-12.69l.27-10.84Z"/>
            <polygon class="cls-17" points="57.92 54.75 58.42 53.13 59.28 53.51 58.89 54.78 57.92 54.75"/>
            <polygon class="cls-31" points="52.96 56.43 52.78 58.58 53.62 58.68 54.1 56.58 52.96 56.43"/>
            <polygon class="cls-31" points="63.93 48.34 65.05 49.46 65.73 49.03 64.86 47.77 63.93 48.34"/>
            <path class="cls-13" d="M3.72,44.4c5.27,1.79,34.76,11.02,45.65,13.3,0,0,11.11-7.51,19.25-16.24l.07-2.93L3.47,42.82l.25,1.57Z"/>
            <path class="cls-55" d="M1.57,26.11s.72,9.02,1.9,16.94c.15,1,43.95,13.66,45.85,13.44,1.9-.23,19.1-17.05,19.37-17.96s1.86-24.8,1.86-24.8l-26.87,11.7-42.12.68Z"/>
            <g class="cls-33">
              <path class="cls-40" d="M32.56,39.55L3.73,28.36l1.89,15.64c4.86,1.74,17.04,5.39,27.33,8.3l-.4-12.74Z"/>
            </g>
            <path class="cls-54" d="M68.69,38.53c.27-.9,1.86-24.8,1.86-24.8l-1.66.72c-6.73,9.46-18.29,26.63-19.84,35.01l.27,7.03c1.9-.23,19.1-17.05,19.37-17.96Z"/>
            <path class="cls-21" d="M65.19,30.43c.1.61.56.86,1.13.9.29.02.71-.15.96-.35,1.32-1.02-.09-2.81-1.37-2.04-.52.31-.82.93-.72,1.49Z"/>
            <path class="cls-21" d="M65.94,36.23c.63.75,1.77.09,1.36-.72-.49-.97-2-.6-1.6.33.07.16.12.25.24.39Z"/>
            <path class="cls-21" d="M64.78,33.82c.38-.01.68-.34.67-.72-.02-.43-.49-.8-.92-.64-.71.27-.57,1.38.25,1.35Z"/>
            <path class="cls-21" d="M64.87,38.51c.3,0,.56-.26.58-.59.02-.38-.33-.72-.67-.61-.58.2-.55,1.18.1,1.2Z"/>
            <path class="cls-21" d="M65.09,55.02c-.41-.7-1.46-.27-1.25.45.25.87,1.57.72,1.39-.09-.03-.14-.06-.22-.14-.35Z"/>
            <path class="cls-21" d="M66.07,56.19c-.32-.03-.63.21-.67.52-.05.36.28.72.67.63.64-.14.69-1.09,0-1.16Z"/>
            <path class="cls-21" d="M66.35,53.24c-.25-.04-.51.16-.58.43-.07.32.16.64.47.58.52-.1.65-.93.11-1.01Z"/>
            <path class="cls-3" d="M49.05,49.46c-2.91.25-46.99-19.09-47.49-23.35-.36-3.1,66.42-15.91,68.76-13.33,3.07,3.39-18.67,36.45-21.27,36.68Z"/>
            <path class="cls-49" d="M60.14,16.57c-.56-.37-42.39,6.48-56.28,12,6.53,4.58,24.18,12.97,35.32,17.57,13.21-14.45,21.49-29.22,20.96-29.57Z"/>
            <path class="cls-24" d="M40.06,28.28s15.03-8.36,15.65-8.05c.62.31-13.16,9.18-13.16,9.18l-2.49-1.13Z"/>
            <path class="cls-26" d="M39.55,29.51l3-.1S41.93-.1,40.93,0c-.62.06-2.13,14.96-1.38,29.51Z"/>
          </g>
          <path class="cls-30" d="M9.35,36.78c-.53.47-.68,1.26-.25,1.82l.08.1c.4.52,1.26.64,1.79.17.53-.47.68-1.26.25-1.82-.03-.03-.05-.07-.08-.1-.4-.52-1.26-.64-1.79-.17Z"/>
          <path class="cls-30" d="M10.68,56.85c-.44.39-.56,1.04-.21,1.5l.06.08c.33.43,1.03.53,1.47.14.44-.39.56-1.04.21-1.5-.02-.03-.04-.06-.06-.08-.33-.43-1.03-.53-1.47-.14Z"/>
          <path class="cls-30" d="M8.22,54.62c-.19.32-.14.79.17,1.06l.06.05c.29.25.74.22.93-.1.19-.32.14-.79-.17-1.06-.02-.02-.04-.03-.06-.05-.29-.25-.74-.22-.93.1Z"/>
          <path class="cls-25" d="M46.31,43.51c-.44.28-.56.74-.21,1.07l.06.06c.33.31,1.03.38,1.47.1.44-.28.56-.74.21-1.07-.02-.02-.04-.04-.06-.06-.33-.31-1.03-.38-1.47-.1Z"/>
          <path class="cls-25" d="M43.85,41.91c-.19.23-.14.56.17.75l.06.03c.29.18.74.16.93-.07.19-.23.14-.56-.17-.75-.02-.01-.04-.02-.06-.03-.29-.18-.74-.16-.93.07Z"/>
          <path class="cls-30" d="M8.05,41.99c-.38.19-.53.59-.4.98.02.06.04.13.07.19.12.36.61.53.95.36.38-.19.53-.59.4-.98-.02-.06-.04-.13-.07-.19-.12-.36-.61-.53-.95-.36Z"/>
          <path class="cls-30" d="M6.77,34.77c-.16,1.13,1.27,1.26,1.43.14.16-1.13-1.27-1.26-1.43-.14Z"/>
          <path class="cls-22" d="M63.38,17.58c.77.63,2.15.08,1.65-.61-.59-.82-2.43-.51-1.95.28.09.14.15.21.29.33Z"/>
          <path class="cls-22" d="M60.12,16.89c.46-.01.83-.29.81-.61-.03-.36-.6-.67-1.12-.54-.87.23-.69,1.17.31,1.14Z"/>
          <path class="cls-22" d="M62.15,20.06c.37,0,.68-.22.7-.5.02-.32-.4-.61-.82-.51-.71.17-.67,1,.12,1.02Z"/>
        </g>
      </g>
    </g>
  </g>
</svg>