<?xml version="1.0" encoding="UTF-8"?>
<svg id="Layer_2" data-name="Layer 2" xmlns="http://www.w3.org/2000/svg" viewBox="0 0 85.06 72.52">
  <defs>
    <style>
      .cls-1 {
        fill: #ffe0c8;
      }

      .cls-2 {
        fill: #af5b48;
      }

      .cls-2, .cls-3, .cls-4 {
        opacity: .2;
      }

      .cls-5 {
        fill: #d88b03;
      }

      .cls-6 {
        fill: #ffad0b;
      }

      .cls-7 {
        opacity: .1;
      }

      .cls-7, .cls-3 {
        fill: #c26650;
      }

      .cls-8 {
        opacity: .3;
      }

      .cls-8, .cls-4 {
        fill: #ff9678;
      }
    </style>
  </defs>
  <g id="Layer_1-2" data-name="Layer 1">
    <g>
      <path class="cls-6" d="M.07,11.68v44.5c-.83.74,30.6,16.17,42.13,16.33.01,0,.03,0,.04,0,.08,0,.17,0,.25,0,.08,0,.17,0,.25,0,.01,0,.03,0,.04,0,11.53-.16,42.96-15.6,42.13-16.33V11.68H.07Z"/>
      <g>
        <path class="cls-8" d="M.07,21.31c.57.22,1.17.46,1.81.73,10.95,4.52,6.31,6.68,16.29,7.86,9.98,1.18,9.36,1.77,18.37,1.57,9.01-.2,9.77.2,13.59-.39,3.81-.59,11.78-2.75,22.6-5.8,5.21-1.47,9.21-3.44,12.18-5.26v-6.41c-2.72.72-2.53,1.22-8.58,4.1-8.67,4.13-11.02,5.7-17.26,6.68-6.24.98-9.57,2.16-15.04,2.56-5.48.39-1.59.88-8.94.1-7.35-.79-6.79-.69-18.65-5.11C9.16,19.22,4.07,17.7.07,16.69v4.62Z"/>
        <path class="cls-1" d="M.07,20.64c.57.22,1.17.46,1.81.73,10.95,4.52,6.31,6.68,16.29,7.86,9.98,1.18,9.36,1.77,18.37,1.57,9.01-.2,9.77.2,13.59-.39,3.81-.59,11.78-2.75,22.6-5.8,5.21-1.47,9.21-3.44,12.18-5.26v-6.41c-2.72.72-2.53,1.22-8.58,4.11-8.67,4.13-11.02,5.7-17.26,6.68-6.24.98-9.57,2.16-15.04,2.56-5.48.39-1.59.88-8.94.1-7.35-.79-6.79-.69-18.65-5.11C9.16,18.55,4.07,17.03.07,16.03v4.61Z"/>
        <path class="cls-3" d="M76.33,17.04c-8.67,4.13-11.02,5.7-17.26,6.68-6.24.98-9.57,2.16-15.04,2.56-5.48.39-1.59.88-8.94.1-7.35-.79-6.79-.69-18.65-5.11C9.16,18.55,4.07,17.03.07,16.03v1.7c4,1,9.09,2.53,16.37,5.24,11.85,4.42,11.3,4.32,18.65,5.11,7.35.79,3.47.29,8.94-.1,5.48-.39,8.8-1.57,15.04-2.56,6.24-.98,8.6-2.56,17.26-6.68,6.05-2.88,5.86-3.39,8.58-4.11v-1.7c-2.72.72-2.53,1.22-8.58,4.11Z"/>
        <path class="cls-8" d="M84.91,41.87c-1.24.84-3.24,1.75-9,3.76-11.58,4.03-23.71,4.62-27.66,5.9-3.95,1.28,2.56,3.83-14.9.98-17.47-2.85-19.48-1.28-27.17-4.82-2.39-1.1-4.35-2.19-6.11-3.25v8.3c7.73,5.47,17.88,7.56,31.2,10.78,16.71,4.03,9.29,9.34,19.2,4.82,9.91-4.52,14.97-8.96,26.34-11.56,2.88-.66,5.61-1.57,8.09-2.61v-12.3Z"/>
        <path class="cls-1" d="M84.91,40.02c-1.24.84-3.24,1.75-9,3.76-11.58,4.03-23.71,4.62-27.66,5.9-3.95,1.28,2.56,3.83-14.9.98-17.47-2.85-19.48-1.28-27.17-4.82-2.39-1.1-4.35-2.19-6.11-3.25v8.3c7.73,5.47,17.88,7.56,31.2,10.78,16.71,4.03,9.29,9.34,19.2,4.82,9.91-4.52,14.97-8.96,26.34-11.56,2.88-.66,5.61-1.57,8.09-2.61v-12.3Z"/>
        <path class="cls-7" d="M75.91,43.78c-11.58,4.03-23.71,4.62-27.66,5.9-3.95,1.28,2.56,3.83-14.9.98-17.47-2.85-19.48-1.28-27.17-4.82-2.39-1.1-4.35-2.19-6.11-3.25v3.05c1.76,1.06,3.72,2.15,6.11,3.25,7.69,3.54,9.7,1.97,27.17,4.82,17.47,2.85,10.95.29,14.9-.98,3.95-1.28,16.08-1.87,27.66-5.9,5.75-2,7.75-2.91,9-3.76v-3.05c-1.24.84-3.24,1.75-9,3.76Z"/>
        <path class="cls-4" d="M29.61,44.9c12.89.69,12.75,2.65,21.42-.84,8.67-3.49,5.41-4.08,14.49-4.57,9.08-.49,4.92,1.28,14.56-2.75,1.73-.72,3.32-1.41,4.84-2.07v-10.53c-.62.25-1.28.52-1.99.81-21.49,8.65-18.72,9.14-27.31,9.93-8.6.79-3.23.59-14.06,1.08-10.83.49-6.95,2.06-24.07-1.38-9.47-1.9-14.22-3.26-17.41-4.3v6.19c2.7,3.05,2.77,4.78,11.17,5.78,10.74,1.28,5.48,1.97,18.37,2.65Z"/>
        <path class="cls-1" d="M29.61,43.68c12.89.69-7.53-.84,21.42-.84,9.01,0,5.41-4.08,14.49-4.57,9.08-.49,4.92,1.28,14.56-2.75,1.73-.72,3.32-1.41,4.84-2.07v-10.53c-.62.25-1.28.52-1.99.81-21.49,8.65-18.72,9.14-27.31,9.93-8.6.79-3.23.59-14.06,1.08-10.83.49-6.95,2.06-24.07-1.38C8.01,31.46,3.25,30.1.07,29.06v6.19c2.7,3.05,2.77,4.78,11.17,5.78,10.74,1.28,5.48,1.97,18.37,2.65Z"/>
        <path class="cls-3" d="M82.91,23.73c-21.49,8.65-18.72,9.14-27.31,9.93-8.6.79-3.23.59-14.06,1.08-10.83.49-6.95,2.06-24.07-1.38C8.01,31.46,3.25,30.1.07,29.06v1.69c3.19,1.04,7.94,2.4,17.41,4.3,17.12,3.44,13.24,1.87,24.07,1.38,10.83-.49,5.46-.29,14.06-1.08,8.6-.79,5.82-1.28,27.31-9.93.71-.29,1.37-.55,1.99-.81v-1.69c-.62.25-1.28.52-1.99.81Z"/>
      </g>
      <path class="cls-2" d="M.07,56.17c-.83.74,30.6,16.17,42.13,16.33.01,0,.03,0,.04,0,.08,0,.17,0,.25,0,.08,0,.17,0,.25,0,.01,0,.03,0,.04,0,.42,0,.86-.04,1.33-.08-.46-13.27-.46-37.84-.46-55.83l-4.04-4.92H.07v44.5Z"/>
      <path class="cls-5" d="M84.91,11.68c0-.15.35-2.06,0-2.22-5.78-2.6-32.37-7.61-42.42-7.22C32.24,1.84,5.77,7.55.24,9.37c-.34.11-.24,1.62-.17,2.3.12,1.3,30.6,12.41,42.13,12.53.01,0,.03,0,.04,0,.08,0,.17,0,.25,0,.08,0,.17,0,.25,0,.01,0,.03,0,.04,0,11.53-.12,42.13-11.58,42.13-12.53Z"/>
      <path class="cls-6" d="M84.91,9.46C84.07,8.88,53.85-.43,42.49.02,31.13-.43.91,8.88.07,9.46c-.83.57,30.6,12.41,42.13,12.53.01,0,.03,0,.04,0,.08,0,.17,0,.25,0,.08,0,.17,0,.25,0,.01,0,.03,0,.04,0,11.53-.12,42.96-11.97,42.13-12.53Z"/>
    </g>
  </g>
</svg>