<?xml version="1.0" encoding="UTF-8"?>
<svg xmlns="http://www.w3.org/2000/svg" viewBox="0 0 63.05 94.94">
  <defs>
    <style>
      .cls-1, .cls-2, .cls-3 {
        fill: #f0eeec;
      }

      .cls-1, .cls-2, .cls-4 {
        mix-blend-mode: overlay;
      }

      .cls-1, .cls-4 {
        opacity: .2;
      }

      .cls-2 {
        opacity: .4;
      }

      .cls-5 {
        fill: #cccbca;
      }

      .cls-6 {
        fill: #fbc219;
      }

      .cls-7 {
        fill: #ffdf5a;
      }

      .cls-8 {
        fill: #f0cb42;
      }

      .cls-9 {
        fill: #95cec3;
      }

      .cls-10 {
        fill: #f6f6f6;
      }

      .cls-11 {
        opacity: .3;
      }

      .cls-11, .cls-12, .cls-13 {
        fill: #fff;
      }

      .cls-12 {
        opacity: .6;
      }

      .cls-14 {
        isolation: isolate;
      }

      .cls-15 {
        fill: #f4da6e;
      }

      .cls-16 {
        fill: #fdd325;
      }

      .cls-17 {
        fill: #3a6b2f;
      }

      .cls-18 {
        fill: #fff1b6;
      }

      .cls-19 {
        fill: #559849;
      }
    </style>
  </defs>
  <g class="cls-14">
    <g id="Layer_2" data-name="Layer 2">
      <g id="Layer_1-2" data-name="Layer 1">
        <g>
          <path class="cls-3" d="M63.02,63.23c-.4,13.14-6.72,23.46-11.42,29.36-4.94,1.46-11.63,2.35-18.99,2.35s-14.56-.96-19.55-2.52c-4.68-5.93-10.89-16.18-11.28-29.19-.63-21.04,10.17-43.17,10.17-43.17h40.89s10.8,22.13,10.17,43.17Z"/>
          <path class="cls-15" d="M60.82,63.17c-.28,9.27-3.64,17.09-7.32,22.96-5.05,1.82-12.52,2.97-20.88,2.97s-16.38-1.24-21.42-3.17c-3.63-5.83-6.92-13.58-7.2-22.75-.37-12.17,3.27-24.88,6.25-33.11h44.32c2.98,8.23,6.62,20.94,6.25,33.11Z"/>
          <path class="cls-2" d="M58.86,35.94c.5,5.73.76,11.5.08,17.21-2.03,17.05-14.57,32.46-31.92,35.4-4.94.84-10.7,1.56-15.97,1.14.69.99,1.37,1.9,2.03,2.73,4.98,1.56,11.9,2.52,19.55,2.52s14.05-.89,18.99-2.35c4.7-5.9,11.02-16.22,11.42-29.36.29-9.61-1.81-19.44-4.17-27.29Z"/>
          <path class="cls-1" d="M27.02,88.55c17.35-2.94,29.89-18.35,31.92-35.4.68-5.71.42-11.48-.08-17.21-2.81-9.35-6-15.88-6-15.88h-.05c-.23-.71-1.42-1.48-6.25-2.13-.95-.13-1.97-.24-3.06-.34,1.27,5.71,2.32,11.46,3.32,17.22.9,5.16,1.76,10.38,1.43,15.61-.19,2.98-.76,5.92-1.33,8.85-1.66,8.52-8.34,15.59-16.4,18.82-8.05,3.22-17.25,2.87-25.5.17-.05-.01-.09-.03-.14-.05,1.75,4.52,4,8.38,6.16,11.48,5.27.42,11.04-.3,15.97-1.14Z"/>
          <path class="cls-15" d="M52.49,28.72c-1.12-.36-2.71-.68-4.72-.95-4.11-.56-9.56-.86-15.36-.86s-11.25.31-15.36.86c-2.02.27-3.61.59-4.72.95-.97.31-2.08.78-2.08,1.67s1.11,1.36,2.08,1.67c1.12.36,2.71.68,4.72.95,4.11.56,9.56.86,15.36.86s11.25-.31,15.36-.86c2.02-.27,3.61-.59,4.72-.95.97-.31,2.08-.78,2.08-1.67s-1.11-1.36-2.08-1.67Z"/>
          <path class="cls-9" d="M11.2,85.92c1.06,1.7,2.14,3.23,3.18,4.59,4.92,1.44,11.36,2.23,18.24,2.23s12.85-.73,17.7-2.07c1.04-1.35,2.13-2.86,3.18-4.54-5.05,1.82-12.53,2.97-20.88,2.97s-16.38-1.24-21.42-3.17Z"/>
          <path class="cls-3" d="M46.55,17.93c-3.78-.51-8.81-.79-14.15-.79s-10.36.28-14.15.79c-5.55.75-6.3,1.65-6.3,2.44s.75,1.69,6.3,2.44c3.78.51,8.81.79,14.15.79s10.36-.28,14.15-.79c5.55-.75,6.3-1.65,6.3-2.44s-.75-1.69-6.3-2.44Z"/>
          <path class="cls-12" d="M27.06,19.39c.61-.39,1.55-.35,2.27-.45,2.94-.23,5.91-.21,8.84.12,1.76.15,2.16.9.09,1.03-2.91.18-5.84.15-8.75.03-.37-.03-3-.04-2.47-.7l.03-.02Z"/>
          <circle class="cls-13" cx="54.2" cy="76.67" r="1.42"/>
          <circle class="cls-13" cx="14.84" cy="80.68" r="1.42"/>
          <circle class="cls-13" cx="48.36" cy="70.63" r=".92"/>
          <circle class="cls-13" cx="19.48" cy="38.42" r=".85"/>
          <circle class="cls-13" cx="48.19" cy="35.39" r=".85"/>
          <g>
            <g>
              <g>
                <g>
                  <path class="cls-6" d="M7.57,51.63c-.63-2.82-.22-5.85,1.2-8.37.47-.83,1.03-1.61,1.67-2.32.24-.27,1.04-1.02,1.44-.79.12.07-.28.48-.18.58,0,0,0,0,0,0,2.14,2.3,4.42,4.47,6.62,6.71.27.27.54.55.8.82.71.73,1.35,1.52,1.97,2.33,1.85,2.39,3.96,4.55,5.99,6.79.35.39.71.76,1.08,1.13.14.14.81-.1.95.04-1.76,1.4-4.38,2.75-6.57,3.22-1.13.24-2.28.34-3.43.39-5.7.23-10.39-5.34-11.55-10.52Z"/>
                  <path class="cls-16" d="M8.1,51.25c-.63-2.82-.22-5.85,1.2-8.37.47-.83,1.03-1.61,1.67-2.32.24-.27.54-.72.94-.49.12.07.22.17.32.28,0,0,0,0,0,0,2.14,2.3,4.42,4.47,6.62,6.71.27.27.54.55.8.82.71.73,1.35,1.52,1.97,2.33,1.85,2.39,3.96,4.55,5.99,6.79.35.39.71.76,1.08,1.13.14.14.28.28.42.42-1.76,1.4-3.85,2.37-6.04,2.84-1.13.24-2.28.34-3.43.39-5.7.23-10.39-5.34-11.55-10.52Z"/>
                  <path class="cls-18" d="M8.82,51.03c-.6-2.68-.21-5.56,1.14-7.95.45-.79.98-1.53,1.59-2.2.18-.2.4-.52.68-.52,0,0,0,0,0,0,2.14,2.3,4.42,4.47,6.62,6.71.27.27.54.55.8.82.71.73,1.35,1.52,1.97,2.33,1.85,2.39,3.96,4.55,5.99,6.79.35.39.71.76,1.08,1.13-1.63,1.24-3.55,2.12-5.57,2.54-1.08.23-2.17.32-3.27.37-5.44.22-9.92-5.08-11.03-10.01Z"/>
                  <g>
                    <path class="cls-16" d="M17.33,45.71c1.03,1.13,2.24,2.72,1.18,2.99-.45.11-.99.04-1.45.02-.55-.02-1.1-.05-1.64-.09-.69-.05-1.39-.12-2.08-.21-.62-.08-1.3-.12-1.87-.37-.73-.32-1.12-.95-1.01-1.75.06-.47.26-.91.43-1.35.2-.5.36-1.01.64-1.47.54-.9,1.37-1.26,2.35-.8.88.42,1.67,1.24,2.36,1.91.15.14.6.58,1.09,1.12Z"/>
                    <path class="cls-16" d="M18.77,51.18s0,0,.01-.01c.32-.31.88-.79.9-1.27.02-.32-.36-.45-.62-.51-.45-.11-.91-.11-1.38-.12-1.77-.02-3.55-.1-5.32,0-1.04.06-2.26.19-2.22,1.5.02.69.21,1.37.42,2.03.23.74.48,1.54.93,2.17.94,1.3,2.43-.04,3.33-.71.93-.69,1.85-1.38,2.76-2.09.41-.31.81-.63,1.18-.99Z"/>
                    <path class="cls-16" d="M18.21,52.26c-.61.55-1.21,1.11-1.82,1.66-.4.37-.8.73-1.19,1.11-.34.33-.63.69-.88,1.09-.13.21-.24.43-.3.66-.14.53.03,1.11.34,1.55.32.44.77.76,1.24,1.02.7.38,1.48.64,2.27.75.37.05.76.07,1.1-.08.37-.16.64-.5.8-.86.16-.37.24-.77.3-1.17.29-1.81.49-3.63.58-5.46.02-.45.04-.9-.03-1.35-.19-1.17-2.09.79-2.4,1.07Z"/>
                    <path class="cls-16" d="M26.09,55.89c.42.54.86,1.16.79,1.84-.04.44-.3.83-.64,1.12-.33.29-.74.48-1.15.64-.58.23-1.18.41-1.79.54-.32.07-.66.12-.99.08-.33-.04-.66-.18-.87-.43-.12-.15-.19-.33-.25-.51-.22-.69-.24-1.42-.25-2.15-.04-1.97-.08-3.95.14-5.91.02-.19.07-.41.24-.48.4-.18.84.46,1.05.71.42.49.83.98,1.24,1.48.84,1.01,1.66,2.03,2.46,3.06Z"/>
                  </g>
                </g>
                <path class="cls-6" d="M13.86,48.25c.22.04,1.04,0,.55-.29-.49-.25-1.46-.37-2.05-.58-.25-.08-1.18-.4-1.18-.11.38.59,1.97.87,2.65.98h.03Z"/>
                <path class="cls-6" d="M15.42,53.08c.12.04.43-.08.77-.3.59-.4,1.3-.85,1.81-1.36.68-.77-.54-.17-.97.15-.31.23-1.98,1.2-1.63,1.5h.01Z"/>
                <path class="cls-6" d="M18.95,58.84c.15-.05.41-.81.51-1.24.16-.62.36-1.23.48-1.86.19-1.44-.44-.07-.57.56-.07.37-.85,2.57-.43,2.55h0Z"/>
                <path class="cls-6" d="M22.69,57.23s.07-.1.08-.22c.01-.27-.04-.6-.1-.88-.14-.64-.3-1.31-.44-1.96-.04-.19-.33-1.46-.57-1.22-.19.47.13,1.65.27,2.31.15.57.36,1.81.75,1.97h0Z"/>
                <path class="cls-13" d="M25.68,56.57s-.02-.04,0,0h0Z"/>
                <path class="cls-13" d="M18.05,59.39s-.01,0,0,0h0Z"/>
              </g>
              <g>
                <path class="cls-7" d="M17.67,46.94c.53-.23-1.27-1.73-1.56-2-.19-.17-.38-.34-.59-.48-.54-.39-1.04-.4-.69.14.24.36.66.68,1.01.97.49.38,1.3,1.29,1.81,1.36h.01Z"/>
                <path class="cls-7" d="M12.23,50.24c.17.05.4.02.65,0,.33-.04.74-.02,1.03-.13.2-.07.2-.27.03-.37-.38-.21-1.36-.2-1.81.1-.18.13-.13.34.07.39h.02Z"/>
                <g>
                  <polygon class="cls-7" points="14.59 53.42 14.59 53.42 14.58 53.42 14.59 53.42 14.59 53.42"/>
                  <path class="cls-7" d="M12.9,54.88c.23-.01.52-.15.8-.32.4-.26.94-.5,1.14-.94.09-.56-.88.03-1.23.21-.41.24-.85.41-1,.8-.05.17.09.26.26.25h.03Z"/>
                  <path class="cls-7" d="M14.58,53.42s0,0,0,0c.01,0,.02,0,.03,0-.01,0-.02,0-.04,0Z"/>
                </g>
                <path class="cls-7" d="M15.48,56.52c.35-.05.72-.45.99-.7.68-.7,1.34-1.43,1.99-2.16.4-.41,1.14-1.63,0-.74-.37.33-3.46,3.34-2.98,3.6h0Z"/>
                <path class="cls-7" d="M26.05,57.22c.17-.54-.86-1.7-1.19-2.22-.12-.21-1.17-1.48-1.08-.66.05.47,1.84,3.27,2.26,2.9h0Z"/>
                <g>
                  <path class="cls-7" d="M24.74,58.62c.36-.18-.1-1.21-.43-1.12-.42.1.04,1.29.41,1.13h.02Z"/>
                  <path class="cls-7" d="M24.18,57.89s0-.03,0-.05c0,0,0-.01,0-.02,0,.02,0,.04.01.06Z"/>
                </g>
              </g>
            </g>
            <path class="cls-11" d="M13.71,57.18c-1.49-1.67-2.72-3.83-3.07-6.09-.15-.95.11-2.49,1.37-2.02.88.35,1.56,1.19,2.35,2.09,1.71,2.08,3.96,3.85,6.68,4.28,1.29.26,2.69.24,3.95.57,2.92.81,2.15,2.97-.43,3.79-3.71,1.28-8.16.36-10.82-2.59l-.02-.03Z"/>
          </g>
          <g>
            <g>
              <g>
                <g>
                  <path class="cls-6" d="M33.88,85.06c-2.78.64-5.77.27-8.26-1.12-.82-.46-1.6-1-2.3-1.63-.27-.24-1.02-1.02-.79-1.42.07-.12.47.27.57.18,0,0,0,0,0,0,2.25-2.13,4.37-4.4,6.56-6.58.27-.27.53-.54.81-.8.72-.7,1.49-1.35,2.28-1.96,2.34-1.84,4.46-3.95,6.64-5.97.38-.35.75-.71,1.11-1.07.14-.14-.1-.8.03-.94,1.39,1.72,2.75,4.29,3.23,6.46.24,1.11.36,2.25.41,3.38.28,5.62-5.18,10.3-10.28,11.48Z"/>
                  <path class="cls-16" d="M33.5,84.54c-2.78.64-5.77.27-8.26-1.12-.82-.46-1.6-1-2.3-1.63-.27-.24-.71-.52-.49-.93.07-.12.17-.22.27-.31,0,0,0,0,0,0,2.25-2.13,4.37-4.4,6.56-6.58.27-.27.53-.54.81-.8.72-.7,1.49-1.35,2.28-1.96,2.34-1.84,4.46-3.95,6.64-5.97.38-.35.75-.71,1.11-1.07.14-.14.27-.28.41-.42,1.39,1.72,2.37,3.77,2.85,5.94.24,1.11.36,2.25.41,3.38.28,5.62-5.18,10.3-10.28,11.48Z"/>
                  <path class="cls-18" d="M33.27,83.83c-2.64.62-5.48.26-7.85-1.06-.78-.43-1.52-.96-2.19-1.55-.2-.18-.51-.39-.52-.66,0,0,0,0,0,0,2.25-2.13,4.37-4.4,6.56-6.58.27-.27.53-.54.81-.8.72-.7,1.49-1.35,2.28-1.96,2.34-1.84,4.46-3.95,6.64-5.97.38-.35.75-.71,1.11-1.07,1.24,1.6,2.12,3.49,2.55,5.47.23,1.06.34,2.14.39,3.23.26,5.36-4.93,9.83-9.78,10.96Z"/>
                  <g>
                    <path class="cls-16" d="M27.96,75.48c1.11-1.03,2.67-2.24,2.94-1.19.11.45.04.98.03,1.43-.01.54-.04,1.08-.07,1.62-.05.69-.11,1.37-.19,2.05-.07.61-.1,1.28-.35,1.85-.31.73-.93,1.11-1.72,1.01-.46-.06-.9-.25-1.33-.42-.49-.19-1-.35-1.45-.62-.89-.53-1.26-1.34-.81-2.31.41-.88,1.21-1.65,1.87-2.35.14-.15.57-.59,1.09-1.08Z"/>
                    <path class="cls-16" d="M33.34,74.02s0,0-.01-.01c-.31-.31-.78-.86-1.26-.88-.32-.01-.44.36-.5.62-.1.44-.1.9-.11,1.36,0,1.75-.07,3.5.04,5.24.06,1.02.2,2.23,1.49,2.18.68-.03,1.35-.22,2-.43.72-.23,1.51-.48,2.13-.94,1.28-.94-.06-2.4-.72-3.28-.68-.91-1.38-1.81-2.08-2.7-.31-.4-.63-.79-.98-1.16Z"/>
                    <path class="cls-16" d="M34.41,74.56l1.65,1.78c.37.39.73.79,1.11,1.17.32.33.69.62,1.09.86.21.12.42.24.66.29.53.13,1.09-.04,1.53-.35.43-.31.75-.76,1-1.23.37-.7.62-1.46.72-2.24.05-.36.06-.75-.09-1.08-.16-.36-.49-.62-.86-.78s-.76-.23-1.16-.29c-1.79-.27-3.59-.45-5.39-.52-.44-.02-.89-.03-1.33.04-1.15.2.8,2.06,1.08,2.36Z"/>
                    <path class="cls-16" d="M37.93,66.75c.53-.42,1.13-.86,1.81-.79.43.04.82.29,1.11.62.29.33.48.72.64,1.13.23.57.41,1.16.55,1.76.07.32.13.65.09.97-.03.33-.17.65-.42.86-.14.12-.32.19-.5.25-.68.23-1.4.25-2.12.27-1.94.05-3.9.11-5.83-.09-.18-.02-.4-.06-.48-.23-.18-.39.45-.83.69-1.04.48-.41.96-.83,1.45-1.24.99-.83,1.99-1.65,3-2.45Z"/>
                  </g>
                </g>
                <path class="cls-6" d="M30.49,78.88c.04-.22,0-1.03-.29-.54-.25.48-.35,1.44-.56,2.03-.08.25-.38,1.17-.1,1.16.58-.38.84-1.95.95-2.63v-.03Z"/>
                <path class="cls-6" d="M35.24,77.31c.03-.12-.09-.43-.3-.76-.4-.58-.85-1.27-1.36-1.78-.77-.66-.17.53.16.96.23.31,1.2,1.94,1.5,1.59h0Z"/>
                <path class="cls-6" d="M40.9,73.77c-.06-.14-.8-.4-1.23-.49-.61-.15-1.22-.34-1.84-.46-1.42-.18-.06.43.55.55.37.07,2.54.81,2.52.4h0Z"/>
                <path class="cls-6" d="M39.28,70.09s-.09-.07-.22-.08c-.26-.01-.59.05-.87.1-.63.14-1.29.31-1.93.45-.19.04-1.44.34-1.2.57.47.18,1.63-.14,2.28-.28.56-.15,1.79-.37,1.94-.76h0Z"/>
                <path class="cls-13" d="M38.6,67.15s-.04.02,0,0h0Z"/>
                <path class="cls-13" d="M41.45,74.66s0,.01,0,0h0Z"/>
              </g>
              <g>
                <path class="cls-7" d="M29.17,75.13c-.23-.52-1.69,1.26-1.96,1.56-.16.19-.33.38-.47.58-.38.54-.39,1.03.14.68.35-.24.66-.66.95-1,.37-.49,1.26-1.29,1.33-1.8h0Z"/>
                <path class="cls-7" d="M32.47,80.47c.04-.17.02-.4,0-.64-.05-.32-.03-.73-.13-1.02-.07-.2-.27-.19-.36-.03-.21.37-.19,1.35.11,1.78.13.18.33.13.38-.08v-.02Z"/>
                <g>
                  <polygon class="cls-7" points="35.58 78.12 35.58 78.12 35.58 78.13 35.58 78.12 35.58 78.12"/>
                  <path class="cls-7" d="M37.04,79.77c-.01-.22-.16-.51-.32-.78-.26-.4-.5-.92-.94-1.12-.55-.09.04.87.22,1.21.24.4.41.83.79.98.17.05.25-.1.24-.26v-.02Z"/>
                  <path class="cls-7" d="M35.58,78.13s0,0,0,0c0-.01,0-.02,0-.03,0,.01,0,.02,0,.03Z"/>
                </g>
                <path class="cls-7" d="M38.63,77.22c-.05-.34-.45-.71-.7-.97-.7-.67-1.43-1.31-2.15-1.94-.4-.39-1.62-1.11-.73.01.33.37,3.32,3.39,3.58,2.91h0Z"/>
                <path class="cls-7" d="M39.24,66.78c-.53-.16-1.67.87-2.18,1.19-.21.12-1.45,1.17-.65,1.07.46-.05,3.22-1.85,2.84-2.26h0Z"/>
                <g>
                  <path class="cls-7" d="M40.63,68.06c-.18-.36-1.2.1-1.1.43.1.41,1.27-.05,1.11-.41v-.02Z"/>
                  <path class="cls-7" d="M39.92,68.63s-.03,0-.05,0c0,0-.01,0-.02,0,.02,0,.04,0,.06-.01Z"/>
                </g>
              </g>
            </g>
            <path class="cls-11" d="M25.84,82.46c6.93,2.66,14.35-1.76,16.06-8.83.3-1.21.39-3.24-1.05-3.63-1.79-.28-2.94,2.44-3.83,3.67-1.19,1.81-2.82,3.46-4.8,4.27-1.09.46-2.26.62-3.44.7-1.18.09-2.45.13-3.54.6-2.2,1.01-1.3,2.54.57,3.22h.02Z"/>
          </g>
          <circle class="cls-13" cx="13.9" cy="65.32" r=".92"/>
          <g>
            <g>
              <path class="cls-19" d="M43.85,64.25s.02.08.05.1c.28.11.57.21.86.3.47.15.97.25,1.47.24.04,0,.08,0,.12,0-.06.06-.11.14-.13.23-.02.1,0,.19.06.27.06.07.15.11.24.14.08.03.17.05.25.07.17.04.35.08.53.1.35.05.71.04,1.06,0,.3-.04.6-.1.9-.2-.05.09-.1.17-.16.26-.03.05,0,.12.06.12.04,0,.07,0,.11,0,.3.02.6,0,.89-.05.3-.05.59-.13.87-.24.27-.11.54-.24.79-.41.13-.09.26-.18.38-.27v.02c-.06.16-.12.3-.21.45-.02.03-.01.07,0,.1.02.03.06.03.1.01.04-.02.08-.04.12-.06.33-.15.64-.33.95-.53.31-.2.6-.42.87-.66.27-.24.53-.49.77-.76.24-.28.47-.57.67-.87.05-.07.09-.14.14-.22.02.15.05.3.07.45,0,.06.09.08.13.04.1-.1.19-.2.27-.3.36-.43.65-.93.85-1.46.2-.52.31-1.07.33-1.63.02-.52-.04-1.05-.17-1.56-.12-.45-.29-.89-.52-1.3-.03-.05-.06-.11-.09-.16-.03-.04-.05-.08-.08-.12-.28-.43-.62-.82-1.02-1.14-.41-.33-.88-.57-1.38-.73-.5-.16-1.03-.24-1.55-.24-.53,0-1.05.08-1.55.24-.49.15-.96.38-1.39.66-.43.29-.83.63-1.16,1.03-.02.02-.03.05-.02.08,0,.02.03.05.05.06.09.02.18.03.27.05-.04.02-.07.03-.11.04-.45.21-.88.48-1.26.8-.38.32-.72.7-.99,1.12-.03.05,0,.12.07.12.06,0,.12,0,.18.01-.41.3-.71.71-.97,1.14-.07.11-.14.23-.2.35-.04.06-.08.13-.08.21,0,.05.02.1.06.14.03.03.07.05.12.07-.05.05-.1.1-.14.15-.34.39-.55.87-.72,1.36-.02.06-.05.12-.07.18-.02.06-.03.13.02.19.05.06.13.06.2.06.07,0,.14.01.2.02h0c-.23.22-.43.49-.59.77-.21.37-.36.77-.51,1.16Z"/>
              <path class="cls-19" d="M45.45,60.17s0,0,0,0h0Z"/>
            </g>
            <path class="cls-17" d="M44.24,64.1c.02.08.11.14.19.11.12-.03.23-.06.35-.1.94-.27,1.87-.59,2.78-.97.31-.13.62-.27.93-.42-.05.07-.1.15-.15.22-.06.08-.12.17-.19.25-.03.04-.06.08-.09.12t0,0s0,0,0,0c0,0-.02.02-.02.03-.01.02-.03.04-.05.06-.13.16-.28.31-.42.46-.29.29-.61.57-.94.81-.07.05-.06.17,0,.22.03.03.07.05.11.05.04,0,.08-.02.11-.04.19-.14.37-.29.55-.44.64-.56,1.18-1.22,1.62-1.95.01-.02.02-.03.02-.05.4-.2.79-.41,1.18-.63.43-.24.85-.5,1.26-.77-.01.09-.03.17-.05.27-.03.17-.07.34-.12.52-.16.61-.38,1.18-.67,1.72-.15.28-.31.55-.49.8-.18.26-.36.49-.57.72-.06.07-.07.15,0,.22.05.06.17.07.22,0,.24-.28.47-.57.68-.87.36-.54.66-1.12.89-1.73.23-.61.38-1.24.46-1.88,0,0,0,0,0,0,.29-.2.58-.4.86-.61.27-.2.53-.41.8-.62.02.31.03.62.02.93-.03.7-.13,1.35-.32,2.03-.19.68-.45,1.3-.79,1.91-.04.08-.02.17.05.22.07.05.18.02.22-.05.2-.36.38-.72.52-1.1.26-.66.44-1.35.54-2.06.1-.7.12-1.41.05-2.11.39-.33.78-.66,1.15-1.01.25-.23.49-.48.73-.72.06.26.12.53.15.8.02.16.04.28.05.43.01.15.02.3.03.45.01.3.01.6,0,.9-.02.3-.05.6-.09.89,0,.03,0,.05-.01.09,0,.04-.01.08-.02.11-.01.07-.03.14-.04.21-.03.15-.06.3-.1.44-.02.09.02.17.11.2.08.03.17-.03.2-.11.09-.34.15-.69.2-1.04.08-.6.11-1.21.07-1.82-.03-.61-.13-1.23-.28-1.82.23-.24.46-.49.68-.75-.03-.05-.06-.11-.09-.16-.03-.04-.05-.08-.08-.12-.25.29-.51.57-.77.85-.41-.2-.84-.38-1.27-.53-.83-.29-1.7-.48-2.58-.58-.88-.1-1.76-.09-2.64,0-.09.01-.13.12-.11.19.02.09.11.12.19.11.21-.02.47-.05.7-.06.24-.01.49-.02.73-.01.86.01,1.69.11,2.52.31.42.1.83.23,1.24.37.2.07.4.15.6.24.13.06.26.12.4.18-.31.32-.63.63-.95.93-.28.26-.57.51-.86.75-.45-.21-.92-.39-1.4-.54-.88-.28-1.79-.45-2.7-.51-.92-.07-1.85-.02-2.76.13-.09.02-.13.11-.11.19.02.09.11.13.19.11.5-.08.98-.13,1.49-.15.45-.01.9,0,1.35.04.22.02.44.04.66.08.06,0,.1.01.15.02.05,0,.11.02.16.03.11.02.22.04.34.06.44.09.88.21,1.3.35.21.07.42.15.63.23.16.06.3.12.45.19-.18.15-.36.29-.55.43-.1.08-.2.15-.3.22-.1.08-.17.13-.27.2-.12.09-.25.17-.38.26,0,0,0,0-.02-.01-.42-.16-.84-.29-1.27-.39-.78-.18-1.57-.27-2.37-.27-.8,0-1.6.11-2.37.31-.08.02-.13.11-.11.19.02.08.11.14.19.11.21-.05.43-.1.65-.14.11-.02.21-.04.32-.05.05,0,.11-.02.16-.02.03,0,.06,0,.09-.01.01,0,.03,0,.04,0,0,0,.01,0,.02,0,.77-.09,1.56-.08,2.33.02.2.03.35.05.55.09.19.04.38.08.57.13.31.08.61.17.9.28-.57.38-1.16.74-1.77,1.07-.32.18-.66.35-.99.51-.21-.08-.43-.16-.65-.21-.94-.25-1.94-.27-2.9-.07-.09.02-.13.11-.11.19.02.08.11.13.19.11.13-.03.26-.05.39-.07.03,0,.06,0,.09-.01.02,0,.04,0,.06,0,0,0,.02,0,.03,0,.06,0,.13-.01.19-.02.23-.02.47-.02.7-.01.12,0,.24.01.35.02.06,0,.12.01.18.02.03,0,.05,0,.08,0,.02,0,.03,0,.05,0h0s0,0,0,0c.32.05.63.13.94.23-.41.19-.83.38-1.25.55-.06.02-.12.05-.17.07-.03.01-.06.02-.08.03,0,0,0,0,0,0l-.04.02c-.11.04-.23.09-.34.13-.23.08-.46.17-.7.25-.46.15-.93.29-1.4.42-.08.02-.13.11-.11.19Z"/>
          </g>
          <g>
            <path class="cls-19" d="M32.13,77.9c-.09-.4-.24-.8-.44-1.16-.06-.11-.14-.22-.21-.33.1.02.21.04.31.06.08.02.16.05.24.08.04.02.1-.02.09-.07-.04-.46-.17-.9-.36-1.32-.19-.41-.45-.79-.77-1.11-.08-.08-.16-.16-.25-.23.07,0,.14,0,.21,0,.05,0,.08-.05.07-.09-.06-.26-.14-.51-.25-.75-.11-.24-.24-.46-.39-.68-.15-.22-.33-.42-.52-.6-.19-.18-.4-.35-.62-.49-.13-.08-.27-.16-.41-.23.13-.01.26-.02.39,0,.03,0,.06-.02.07-.04.01-.03,0-.06-.01-.08-.2-.25-.42-.48-.65-.71-.23-.22-.47-.44-.72-.63-.25-.2-.52-.39-.79-.56-.28-.18-.57-.35-.88-.47-.19-.08-.38-.14-.58-.17.07-.02.13-.04.2-.05.05-.01.11-.02.16-.03.03,0,.06,0,.09-.01.03,0,.06,0,.07,0,.03,0,.06-.02.07-.05,0-.03,0-.07-.03-.08-.29-.14-.58-.26-.88-.37-.3-.11-.6-.2-.9-.28-.31-.08-.62-.14-.94-.18-.31-.04-.62-.07-.93-.07-.31,0-.62,0-.93.05-.31.04-.62.09-.93.18-.31.08-.61.19-.9.32-.3.13-.58.28-.86.44-.28.16-.56.32-.84.48-.28.16-.57.32-.86.45-.07.03-.15.07-.22.1-.04.02-.05.04-.05.08,0,.02,0,.05,0,.07,0,.05-.01.09-.02.14-.02.18-.05.36-.07.53-.04.35-.07.71-.08,1.07-.01.36,0,.72.04,1.07.04.31.1.61.19.91.09.3.2.59.33.86.13.28.29.54.46.79.17.25.37.49.58.71.21.22.44.41.68.59.24.18.49.34.75.48.27.14.54.26.83.36.11.04.22.07.33.1.17.19.36.38.57.54.24.19.49.36.76.5.27.14.55.26.84.36.29.09.59.16.89.19.04,0,.07,0,.11.01.04,0,.09-.05.07-.09l-.06-.15c.14.11.28.22.43.31.26.16.54.29.83.39.29.1.59.16.9.19.31.03.61.02.92-.03.04,0,.07-.01.11-.02.04,0,.07-.07.05-.11-.04-.06-.08-.12-.12-.19.16.13.33.24.51.34.4.21.84.34,1.29.38.25.02.51,0,.76-.03.05,0,.06-.07.05-.11-.04-.1-.09-.19-.13-.29.2.05.4.09.61.12.39.06.77.07,1.16.05.22-.01.44-.04.65-.08.03,0,.05-.04.05-.07.03-.41,0-.83-.09-1.24Z"/>
            <path class="cls-17" d="M32.15,78.79c-.43-.44-.86-.87-1.31-1.28-.45-.42-.9-.82-1.36-1.22-.24-.21-.49-.41-.73-.61.02,0,.03,0,.05,0,.05,0,.09.01.14.02.03,0,.06,0,.08.01,0,0,0,0,0,0,.02,0,.03,0,.05,0,.1.02.2.03.3.05.41.08.81.19,1.19.33.11.04.21.08.32.12.02.01.05.02.07.03,0,0,.02,0,.02.01.01,0,.03.01.04.02.06.02.11.05.17.08.07.03.16.02.2-.05.04-.07.02-.17-.05-.2-.78-.37-1.61-.61-2.46-.71-.18-.02-.37-.03-.55-.04-.1-.08-.19-.16-.29-.23-.48-.37-.97-.73-1.47-1.08-.4-.28-.8-.55-1.21-.81.05,0,.1-.02.15-.03.19-.03.35-.06.53-.08.37-.04.75-.05,1.12-.04.18,0,.37.02.55.03.09,0,.19.02.28.03.05,0,.09.01.14.02,0,0-.02,0,0,0,.01,0,.02,0,.03,0,.02,0,.05,0,.07.01.37.06.74.14,1.09.25.4.12.79.27,1.16.44.07.03.16.02.2-.05.03-.06.02-.17-.05-.2-.69-.33-1.43-.56-2.19-.69s-1.53-.17-2.29-.1c-.39.04-.78.1-1.16.18-.5-.32-1.01-.63-1.53-.92-.28-.16-.56-.32-.85-.47.68-.19,1.38-.34,2.09-.44.84-.11,1.73-.15,2.6-.11.48.02.98.07,1.44.14.08.01.16-.02.18-.1.02-.07-.02-.17-.1-.18-.88-.13-1.77-.19-2.66-.16-.89.03-1.78.13-2.65.32-.43.09-.85.2-1.27.33-.13-.07-.26-.14-.38-.2-.54-.28-1.09-.54-1.65-.79-.35-.16-.71-.31-1.06-.46.66-.34,1.34-.58,2.06-.77.85-.23,1.74-.37,2.6-.47.51-.06,1.02-.11,1.53-.16.08,0,.15-.06.15-.15,0-.07-.06-.16-.15-.15-.92.09-1.85.18-2.76.33-.85.14-1.7.34-2.51.64-.44.16-.86.35-1.27.58-.1-.04-.19-.08-.29-.12-.57-.23-1.14-.44-1.71-.64-.14-.05-.28-.1-.43-.14-.07-.02-.17.03-.18.1-.02.08.02.16.1.18.58.19,1.15.4,1.72.62.2.08.4.16.6.24.05.91.2,1.81.43,2.69.24.89.58,1.76,1,2.58.24.46.5.91.79,1.33.04.06.13.1.2.05.06-.04.1-.13.05-.2-.25-.38-.49-.77-.7-1.17-.21-.39-.41-.82-.57-1.22-.34-.84-.59-1.71-.74-2.6-.02-.13-.04-.25-.06-.38-.02-.13-.03-.22-.04-.34-.02-.2-.04-.41-.05-.61.12.05.24.1.36.15.08.03.13.06.19.08.07.03.14.06.21.09.56.25,1.11.5,1.65.78.21.11.43.22.64.33-.02.02-.04.06-.04.09.03.91.15,1.81.37,2.69.22.87.53,1.72.93,2.53.22.45.47.89.75,1.31.04.06.13.1.2.05.06-.04.1-.13.05-.2-.48-.74-.89-1.54-1.2-2.35-.32-.83-.54-1.69-.68-2.57-.04-.25-.06-.46-.09-.72-.02-.23-.04-.47-.04-.7.24.13.47.25.71.38.53.3,1.05.6,1.57.92.05.03.11.07.16.1-.02.03-.02.07-.02.11.12.78.31,1.55.59,2.28.28.75.63,1.47,1.06,2.14.24.38.51.75.79,1.1.05.06.16.06.21,0,.06-.06.05-.15,0-.21-.13-.16-.23-.29-.35-.45-.11-.16-.22-.32-.33-.48-.21-.33-.41-.67-.59-1.01-.09-.17-.17-.35-.25-.53-.08-.18-.15-.33-.22-.52-.14-.36-.26-.73-.36-1.11-.1-.38-.18-.76-.25-1.14.36.23.72.47,1.08.71.5.34.99.7,1.48,1.06.12.09.24.19.36.28.01,0,.02.02.03.02,0,.01,0,.03,0,.04.2.99.57,1.94,1.09,2.8.15.24.3.47.47.7.05.06.13.1.2.05.06-.04.1-.14.05-.2-.3-.4-.56-.82-.78-1.27-.06-.11-.11-.23-.16-.34-.02-.05-.05-.1-.07-.15-.03-.07-.04-.1-.07-.16-.09-.23-.17-.46-.25-.7-.05-.16-.09-.33-.13-.5.22.18.44.35.66.54.47.39.92.79,1.37,1.2.45.41.89.83,1.32,1.26.1.1.21.21.31.32.05.06.16.06.21,0,.05-.06.06-.15,0-.21Z"/>
          </g>
          <g>
            <g>
              <g>
                <g>
                  <path class="cls-16" d="M50.16,37.45c1.45,1.07,2.64,2.48,3.46,4.08,3.15,6.1.4,13.8-5.61,16.93-3.11,1.62-6.88,1.91-10.18.72-5.31-1.92-8.44-7.33-7.95-12.89.32-3.7,2.17-7.08,5.25-9.16,2.86-1.93,6.53-2.8,9.93-2.06,1.85.4,3.58,1.26,5.1,2.38Z"/>
                  <path class="cls-6" d="M48.01,58.45c-3.11,1.61-6.88,1.91-10.18.72-2.45-.89-4.44-2.52-5.82-4.57,1.33,1.67,3.1,2.99,5.22,3.76,3.3,1.19,7.07.9,10.18-.72,6.02-3.13,8.76-10.83,5.61-16.93-.21-.41-.44-.8-.7-1.18.5.62.93,1.29,1.3,2,3.15,6.1.4,13.8-5.61,16.93Z"/>
                </g>
                <path class="cls-18" d="M49.31,38.53c1.29.95,2.35,2.21,3.08,3.63,2.8,5.44.36,12.29-5,15.08-2.77,1.44-6.13,1.7-9.07.64-4.73-1.71-7.52-6.53-7.08-11.48.29-3.29,1.93-6.3,4.68-8.16,2.55-1.72,5.82-2.49,8.84-1.83,1.65.36,3.19,1.12,4.55,2.12Z"/>
                <g>
                  <path class="cls-16" d="M44.1,46.43c1.42-.5,2.82-1.09,4.16-1.77,1.07-.54,2.62-1.07,2.66-2.49.03-1.22-.87-2.28-1.89-2.95-.69-.46-1.58-.81-2.34-.47-.41.18-.71.54-.92.93-.23.45-.34.95-.53,1.42-.21.52-.39,1.06-.58,1.59-.38,1.06-.74,2.12-1.09,3.2-.06.18-.1.42.05.54.13.11.32.06.47,0Z"/>
                  <path class="cls-16" d="M50.23,44.63c.14-.04.29-.07.44-.1.41-.09.94-.19,1.33.02.3.16.51.45.65.76.4.86.36,1.85.15,2.77-.12.54-.31,1.11-.75,1.45-.65.52-1.58.38-2.38.2-2.07-.47-4.11-1.11-6.09-1.9-.13-.05-.32-.15-.22-.28.12-.16.44-.27.62-.36.43-.22.88-.4,1.33-.58,1.63-.68,3.21-1.53,4.92-1.97Z"/>
                  <path class="cls-16" d="M45.57,52.63c.49.89.98,1.79,1.66,2.54.24.27.51.5.88.55.37.05.75-.06,1.07-.23.55-.29,1-.75,1.37-1.24.36-.48.76-1.04.94-1.62.1-.31.11-.65-.02-.96-.1-.26-.37-.47-.6-.63-.5-.36-1.1-.57-1.68-.77-.92-.31-1.83-.61-2.76-.9-.47-.15-.93-.29-1.4-.43-.41-.12-.88-.35-1.31-.35-.59,0,.23,1.28.33,1.46.47.79.94,1.58,1.39,2.38.04.07.08.14.11.2Z"/>
                  <path class="cls-16" d="M40.24,54.19c-.07.21-.13.42-.18.64-.21.88-.21,2.05.6,2.64.09.07.19.12.29.17.54.26,1.21.26,1.79.22.49-.04.98-.13,1.46-.22.42-.08.87-.13,1.25-.37.73-.45.74-1.41.5-2.14-.16-.47-.4-.9-.64-1.33-.39-.72-.77-1.45-1.13-2.18-.18-.37-.36-.74-.54-1.1-.16-.32-.34-.61-.52-.92-.11-.19-.25-.39-.46-.43-.44-.07-.61.57-.76.86-.22.45-.43.9-.62,1.36-.24.55-.46,1.11-.65,1.68-.12.37-.26.74-.38,1.12Z"/>
                  <path class="cls-16" d="M39.23,49.08c.38-.15.76-.3,1.14-.44.26-.1.52-.19.77-.29.19-.07.61-.17.65.14,0,.06,0,.13-.03.19-.55,1.97-1.31,3.89-2.29,5.68-.08.14-.16.29-.24.43-.04.06-.07.13-.11.19-.26.44-.57.9-1.05,1.07-.68.25-1.44-.14-2-.52-.59-.4-1.09-.91-1.57-1.43-.53-.58-.96-1.27-.61-2.06.18-.4.5-.72.86-.96.4-.27.85-.44,1.29-.64.47-.22.95-.43,1.43-.64.58-.25,1.17-.5,1.76-.73Z"/>
                  <path class="cls-16" d="M31.92,48.53c.3,1.3,1.51,1.91,2.78,1.78.82-.09,1.6-.44,2.35-.78,1.14-.52,2.31-.98,3.4-1.61.16-.09.35-.26.34-.46-.01-.21-.26-.33-.43-.41-1.59-.81-3.2-1.56-4.85-2.25-.53-.22-1.08-.44-1.65-.48-.58-.04-1.19.13-1.56.58-.4.48-.43,1.17-.45,1.8-.03.61-.07,1.23.07,1.83,0,0,0,.01,0,.02Z"/>
                  <path class="cls-16" d="M41.68,46.38c.14-.38-.36-1.34-.46-1.57-.64-1.47-1.1-3.02-1.93-4.39-.51-.84-1.49-2.13-2.63-1.92-.36.06-.66.28-.95.51-.52.4-1.03.84-1.45,1.36-.34.42-.61.91-.75,1.43-.09.33-.1.7.02,1.02.19.47.64.77,1.08,1.02,1.81,1.05,3.71,1.73,5.67,2.42.34.12.69.21,1.05.28.19.04.3-.02.34-.14Z"/>
                  <path class="cls-16" d="M44.78,37.6c-.71-.89-2.37-.85-3.37-.71-.59.08-1.2.26-1.62.68-.48.48-.48,1.04-.24,1.62.29.7.46,1.47.71,2.19.52,1.49,1.12,2.94,1.78,4.38.15.33.34.7.69.82.2.07.36-.18.43-.39.76-2.19,1.48-4.41,1.86-6.7.11-.65.17-1.38-.24-1.89Z"/>
                </g>
              </g>
              <g>
                <g>
                  <path class="cls-13" d="M51.53,45.66s.02.02.02.02c0,0,0,0-.01-.01,0,0,0,0,0,0Z"/>
                  <path class="cls-13" d="M51.46,45.61s0,0,0,0c-.02,0-.05-.02,0,0Z"/>
                  <path class="cls-13" d="M50.81,45.58s0,0,0,0c0,0,.02,0,.02,0,0,0,0,0,0,0,0,0,0,0-.01,0Z"/>
                </g>
                <path class="cls-13" d="M32.35,45.58s0,0,0-.01c0-.02.01-.03.02-.05l-.03.06Z"/>
              </g>
              <path class="cls-6" d="M40.72,43.97c-.06-.14-.12-.27-.19-.41-.12-.27-.25-.53-.38-.79-.27-.53-.55-1.05-.86-1.56-.08-.14-.17-.28-.25-.42-.04-.07-.08-.14-.13-.21-.05-.07-.09-.15-.16-.2-.01-.02-.03-.04-.04-.05-.09-.13-.29-.02-.22.13,0,.02.02.04.03.06.01.07.04.14.08.2.03.07.07.13.1.2.07.13.14.26.21.39.13.27.27.53.39.8.25.53.51,1.06.76,1.6.07.15.14.3.2.44.03.07.08.14.12.21.03.05.07.08.11.12.04.04.06.04.09.08.07.07.21.02.21-.08,0-.07,0-.14,0-.21,0-.1-.04-.21-.08-.29Z"/>
              <path class="cls-6" d="M49.09,43.45c-.09.03-.18.05-.27.09-.08.04-.16.07-.24.12-.16.08-.31.17-.47.25-.31.16-.62.32-.94.47-.32.15-.63.3-.95.44-.16.07-.32.14-.48.21-.04.02-.08.03-.12.05-.02,0-.04.02-.06.02,0,0-.02,0-.03.01,0,0-.01,0-.02,0-.08.03-.16.06-.24.1-.18.07-.37.15-.55.22-.1.04-.2.08-.29.12-.1.05-.18.11-.26.18-.07.07-.01.18.08.19.09,0,.19,0,.28-.02.08-.02.17-.05.25-.08.17-.06.33-.12.5-.18.34-.13.68-.27,1.01-.41.65-.27,1.29-.57,1.92-.89.17-.09.35-.18.52-.27.09-.05.17-.1.26-.15.05-.03.1-.06.15-.1.04-.03.07-.07.11-.1.12-.11,0-.3-.15-.26Z"/>
              <path class="cls-6" d="M42.61,49.86s0,0,0,0c0,0,0-.02,0-.03,0,0,0-.02,0-.03-.02-.04-.02-.04,0-.02,0,0,0-.01,0-.02-.01-.07-.09-.09-.14-.06,0,0,0,0,0,0,0,0,0,0,0,0,0,0-.03.01-.04.02,0,0-.02.01-.03.02,0,0,0,0,0,0,0,0-.02,0-.02,0-.05.03-.09.09-.12.14-.04.07-.07.13-.11.2-.07.14-.13.28-.19.43-.04.08-.07.17-.11.25-.03.07-.05.14-.08.22-.05.15-.1.29-.15.44-.03.08-.05.16-.08.25-.01.04-.03.09-.04.13,0,.02-.01.04-.02.06,0,.03-.01.06,0,.09,0,0,0,0,0,0,0,0,0,0,0,0h0c-.01.08-.03.15-.03.23,0,.05.04.11.09.13.06.01.12,0,.15-.06.03-.04.05-.09.07-.14,0-.01.01-.03.02-.04,0,0,0-.01,0-.02,0,0,.01-.02.02-.03,0-.02.01-.03.02-.05,0-.01,0-.02.01-.04.03-.1.07-.2.1-.29.07-.2.15-.39.23-.58l-.02.05c.06-.13.11-.26.17-.39.04-.11.09-.22.14-.33.04-.1.09-.2.13-.3.02-.05.03-.09.04-.14,0-.04,0-.07,0-.11Z"/>
              <path class="cls-6" d="M40.54,48.98s-.02,0-.03,0c0,0,.02,0,0,0-.02,0-.03,0-.05,0-.07-.01-.13,0-.2.02-.1.03-.19.06-.28.1-.16.07-.31.15-.46.22-.31.14-.62.29-.93.44-.61.31-1.21.63-1.82.95-.17.09-.33.19-.49.29-.08.05-.16.11-.24.17-.04.03-.08.05-.11.08-.06.04-.1.09-.13.15-.05.09,0,.23.12.22.05,0,.1,0,.14-.02.05-.02.09-.05.14-.07.07-.04.15-.08.22-.12.15-.08.3-.17.45-.25.15-.08.28-.18.43-.26.15-.09.3-.17.45-.25.6-.33,1.22-.61,1.84-.88.04-.02.09-.04.13-.06.02,0,.04-.02.07-.03,0,0,.02,0,.03-.01,0,0,.01,0,.02,0,0,0,.01,0,.01,0,.01,0,.02,0,.03-.01.02,0,.05-.02.07-.02.05-.02.09-.03.14-.05.1-.04.2-.08.3-.13.05-.03.1-.05.14-.09.02-.02.04-.05.06-.07,0,0,0,0,.01-.01,0,0,.02-.02.02-.02.08-.08.02-.22-.09-.23Z"/>
              <g>
                <path class="cls-6" d="M50.42,53.52c0-.05-.02-.1-.04-.14-.04-.07-.11-.09-.18-.08-.01,0-.02,0-.03,0-.05.01-.08.04-.12.07.02-.01.03-.02.05-.03-.01,0-.02.01-.04.02-.04.03-.08.06-.11.11-.02.03-.03.05-.05.08-.03.05-.06.11-.09.16-.06.1-.12.19-.19.28-.16.2-.34.38-.54.53-.09.06-.18.12-.27.18-.1.06-.21.12-.32.17-.05.02-.1.03-.15.04-.06,0-.13,0-.19.01h0s0,0,0,0c0,0,0,0,0,0,0,0-.02,0-.03,0-.06,0-.13.04-.15.11-.02.07.01.13.07.17.01,0,.02.02.04.02-.01,0-.02-.02-.03-.03.1.09.25.1.39.09.11-.01.23-.03.34-.07.11-.04.22-.08.32-.14.08-.05.16-.09.23-.15.16-.12.32-.24.46-.39.14-.14.27-.3.39-.46.06-.08.12-.17.17-.26.01-.02.02-.04.03-.07.03-.06.06-.12.06-.18,0-.02,0-.05,0-.07Z"/>
                <path class="cls-6" d="M48.15,54.93s.03,0,.04,0h-.05s0,0,0,0h0Z"/>
              </g>
            </g>
            <g>
              <g>
                <path class="cls-7" d="M45.37,55.67s0-.02,0-.03c0,0,0-.01,0-.02,0,.04,0,.03,0-.03,0-.03-.01-.06-.02-.09-.01-.05-.02-.1-.03-.15-.01-.05-.04-.11-.06-.16-.08-.21-.16-.41-.23-.62-.15-.41-.31-.82-.47-1.23-.05-.13-.09-.26-.15-.38-.02-.06-.05-.11-.08-.16-.01-.02-.03-.04-.04-.06,0,0,0,0,0,0,0,0,0,0,0,0-.01-.02-.02-.04-.04-.05-.02-.02-.04-.04-.07-.04-.01,0-.02,0-.03,0-.06-.01-.11.01-.15.06,0,0,0-.01.01-.02-.02.02-.04.04-.04.07-.01.04,0,.06,0,.1,0,0,0,0,0,.01,0,.01,0,.02,0,.04,0,.07.03.14.04.2.03.1.07.21.1.31.07.21.14.41.22.62.15.42.29.83.44,1.24.02.06.04.12.06.17.03.07.06.14.1.21.03.05.06.1.09.15.01.03.03.05.05.08.02.04.05.06.08.09.04.04.09.05.15.04.05-.01.1-.05.11-.1,0-.03.01-.07.01-.1,0-.04-.01-.08-.02-.12Z"/>
                <path class="cls-7" d="M44.12,52.62s0,0,0,0c-.03,0-.03,0,0,0Z"/>
              </g>
              <path class="cls-7" d="M39.42,52.81s-.1-.04-.15-.01c-.05.04-.11.08-.16.11-.06.04-.1.1-.16.15-.04.02-.07.05-.1.08-.04.05-.08.09-.12.14-.05.06-.09.13-.14.2-.09.13-.18.25-.27.38-.18.26-.35.52-.53.78-.05.07-.1.14-.14.22-.06.1-.11.21-.1.33,0,.06.02.1.07.14.04.03.1.05.15.03.06-.02.11-.04.16-.08.03-.03.07-.05.09-.08.06-.08.12-.15.18-.23.09-.13.18-.25.28-.38.19-.25.37-.51.55-.77.05-.07.1-.14.15-.21.03-.04.05-.08.07-.12.03-.05.06-.11.07-.17,0-.01.01-.02.02-.04.02-.04.05-.09.06-.14.02-.06.04-.13.05-.19.01-.05,0-.11-.05-.14Z"/>
              <path class="cls-7" d="M37.43,46.17c-.05-.04-.11-.07-.17-.11,0,0-.02-.01-.03-.02,0,0,0,0,0,0,0,0,0,0,0,0-.05-.04-.1-.06-.16-.09-.03-.01-.06-.02-.09-.03-.03-.01-.06-.02-.09-.03.04.03,0,0-.01,0-.03-.01-.05-.02-.08-.03-.04-.01-.07-.02-.11-.03-.26-.08-.52-.15-.78-.22-.52-.13-1.05-.24-1.58-.33-.16-.03-.32-.06-.49-.07-.07,0-.15-.01-.22-.01-.05,0-.1,0-.15.02-.01,0-.03,0-.04.01-.03,0-.05.02-.07.04-.03.04-.03.04-.02.02-.04.04-.05.11-.02.16,0,0,0-.01,0-.02,0,.03.02.05.04.07.02.02.03.03.06.04.04.02.07.04.12.06.07.02.13.03.2.05.13.02.26.04.39.06.26.04.53.09.79.15.53.11,1.05.25,1.56.41.07.02.14.05.21.07.07.02.15.04.22.06.05.01.09.03.14.03,0,0,.07,0,.09,0,0,0,0,0,0,0,.08.02.17.03.25.04.06,0,.12-.04.14-.1.02-.07-.01-.12-.06-.16Z"/>
              <path class="cls-7" d="M36.39,43.3s-.04-.08-.07-.11c-.03-.03-.06-.05-.09-.07-.03-.02-.06-.04-.09-.05-.02-.02-.05-.04-.08-.05-.02-.01-.05-.02-.07-.03-.05-.02-.09-.05-.14-.07-.09-.04-.18-.09-.27-.14-.18-.1-.35-.2-.51-.32-.09-.06-.17-.13-.26-.19-.06-.05-.13-.11-.19-.16-.07-.06-.15-.12-.23-.15.02,0,.03.01.05.02-.01,0-.03-.01-.04-.02-.04-.02-.07-.03-.12-.03-.04,0-.09.02-.12.05-.03.03-.05.08-.05.12,0,.05.01.08.03.12,0,.01.01.03.02.04l-.02-.05c.03.09.1.17.17.25.04.05.09.1.14.14.11.1.23.2.35.29.21.16.44.3.67.42.08.04.17.09.26.12.08.03.16.07.25.07.03,0,.06.01.09.02.08.02.17.02.25-.02.03-.02.06-.05.07-.08.01-.03.02-.08,0-.11Z"/>
              <g>
                <path class="cls-7" d="M41.03,38.5s0,.05,0,.07c0,0,0,0,0,0,0-.02,0-.05,0-.07Z"/>
                <path class="cls-7" d="M41.47,40.82s-.01-.08-.02-.12c-.01-.06-.04-.13-.05-.19,0,0,0-.02,0-.02,0-.03,0-.06-.01-.09,0-.03-.01-.06-.02-.09,0-.06-.02-.11-.03-.17-.03-.11-.06-.22-.08-.34-.02-.11-.06-.23-.08-.34-.02-.11-.05-.23-.06-.34-.02-.13-.04-.26-.06-.39,0,.03,0,.05,0,.08,0-.08-.02-.15-.03-.23-.01-.09-.03-.18-.04-.27,0-.03,0-.05-.01-.08-.01-.05-.04-.08-.07-.12.01.02.02.03.04.05,0-.01-.02-.03-.03-.04-.02-.02-.04-.04-.07-.06-.04-.03-.09-.03-.13-.03-.05,0-.08.03-.12.06-.02.02-.04.05-.06.08-.03.05-.04.09-.04.15,0,.04,0,.08,0,.13,0,.08,0,.16,0,.23,0,.18.02.36.05.53.02.16.05.31.08.47.02.07.03.15.05.22.02.08.05.15.07.23.03.1.06.21.11.31.04.08.08.16.14.23.04.06.07.13.11.2.03.04.06.08.09.12.01.02.02.03.04.05.02.03.06.04.09.05.07.03.14-.03.16-.09.02-.05,0-.11,0-.16Z"/>
              </g>
              <path class="cls-7" d="M44.18,40.29s0,.02,0,0c0-.02,0-.04,0-.06,0-.04,0-.09,0-.12,0-.17-.25-.21-.29-.04,0,.03-.03.06-.04.09,0,.03-.01.06-.02.08,0,0-.02.05-.02.05,0,.02-.01.04-.02.06,0,.03-.02.06-.02.09-.03.13-.06.25-.08.38-.05.26-.1.52-.14.78-.04.26-.08.52-.12.77-.02.13-.04.26-.06.39-.01.08-.02.16-.03.24,0,.07-.02.14-.03.21,0,.03,0,.06,0,.1,0,.04,0,.08,0,.12,0,.07,0,.14-.01.21,0,.05,0,.1,0,.15,0,.01,0,.02.01.03,0,.02,0,.02,0,0,0,0,0,.01,0,.02,0,.04,0,.08,0,.12,0,.04,0,.08,0,.12.02.15.2.18.26.04.02-.06.04-.12.06-.19,0-.01,0-.03.01-.04,0-.04,0,0,0-.03.02-.04.04-.07.05-.11.04-.12.06-.25.09-.38,0-.03.02-.06.03-.09,0-.03.01-.06.02-.1.01-.07.02-.13.03-.2.02-.14.04-.28.06-.41.08-.53.15-1.06.21-1.59.02-.14.03-.28.04-.43,0-.07.01-.14,0-.21,0-.02,0-.03,0-.05Z"/>
              <path class="cls-7" d="M47.36,39.65s-.05-.1-.09-.12c-.05-.03-.1-.03-.15-.02-.05.01-.09.03-.13.06-.05.03-.09.07-.13.12-.06.07-.12.15-.17.22-.05.06-.09.12-.13.18-.05.06-.09.13-.13.19-.17.25-.33.5-.48.77-.04.07-.09.15-.13.22-.05.09-.1.18-.13.27-.04.09-.09.19-.12.29-.03.1-.05.2-.06.3,0,.04,0,.08,0,.12.01.03.04.07.07.09.07.04.16.03.22-.03.08-.08.17-.17.24-.26.06-.08.11-.16.16-.24.03-.03.05-.06.07-.1.02-.04.04-.07.06-.11.04-.06.07-.13.11-.19.08-.13.15-.26.23-.4.15-.26.31-.51.46-.77.04-.07.09-.15.13-.22.03-.05.06-.11.08-.16,0-.02,0-.04.01-.05.01-.06,0-.09,0-.15Z"/>
              <path class="cls-7" d="M50.99,45.97c-.05-.02-.11-.04-.16-.05-.02,0-.03,0-.05-.01,0,0-.01,0-.02,0,0,0,0,0-.01,0-.03-.02-.05-.02-.09-.03-.11-.02-.23-.04-.35-.05-.1-.02-.2-.02-.3-.02-.09,0-.18,0-.27,0-.18,0-.35.02-.53.04-.38.04-.75.1-1.11.2-.1.02-.19.05-.29.08-.05.02-.09.03-.14.05-.04.02-.08.03-.11.06-.02.01-.04.03-.06.05-.07.05-.13.14-.1.24.03.08.11.16.2.16.08,0,.15,0,.23-.02.06-.01.12-.03.18-.04.12-.03.24-.06.36-.09.23-.05.46-.09.69-.12.19-.02.39-.04.58-.05.1,0,.2,0,.31,0,.05,0,.1,0,.16,0,.03,0,.05,0,.08,0,.03,0,.07,0,.1-.01.06,0,.13,0,.19,0,.04,0,.07,0,.11,0,.03,0,.06,0,.09,0,.01,0,.02,0,.04-.01.03,0,.05,0,.08,0,.03,0,.06,0,.09-.01.01,0,.03,0,.04,0,.08,0,.15-.05.16-.14.01-.08-.04-.15-.11-.18Z"/>
              <g>
                <polygon class="cls-7" points="49.14 51.8 49.13 51.79 49.13 51.8 49.14 51.8"/>
                <path class="cls-7" d="M49.32,52.03s-.06-.09-.1-.13c-.01-.02-.03-.04-.04-.05-.01-.01-.02-.03-.04-.05,0,0,0,.02,0,0,0,0,0,0,0,0,0,0,0,0,0,0,0,0,0,0,0,0,0,0,0-.02-.02-.02-.02-.03-.04-.06-.07-.09-.03-.03-.06-.06-.09-.09,0-.01-.02-.03-.03-.04-.02-.02-.05-.04-.07-.06-.02-.01-.04-.03-.05-.04-.04-.03-.08-.06-.12-.09-.08-.06-.16-.12-.24-.17-.16-.11-.32-.22-.49-.32-.17-.1-.34-.2-.51-.29-.18-.1-.38-.18-.57-.27-.1-.04-.2-.08-.3-.12-.05-.02-.1-.03-.15-.05-.04-.01-.07-.02-.11-.02-.01,0-.02,0-.04,0-.02,0-.04,0-.06,0,0,0,0,0,0,0-.04,0-.08,0-.13.02-.04.02-.06.07-.05.11.02.05.04.08.08.11,0,0,0,0,0,0,0,.01.02.02.03.04.04.03.05.04.02.02.03.02.05.04.08.06.04.02.08.05.13.07.09.04.17.09.26.14.17.09.33.18.5.28.34.19.67.39.98.61.09.06.17.12.26.19.04.03.09.06.13.1.02.02.04.03.06.05.01,0,.02.02.03.02.02.01.03.02.05.03.03.02.06.04.1.06.02.01.04.02.06.03.02.01.04.02.06.03,0,0,0,0,0,0,.04.02.08.04.11.07.04.02.08.05.12.06.06.03.14.03.19-.02.05-.05.06-.12.03-.18Z"/>
              </g>
            </g>
            <path class="cls-11" d="M46.21,42.11c-2.47.34-5.19.54-6.95,2.5-1.43,1.6-1.75,3.9-2.88,5.72-.38.61-.95,1.22-1.67,1.21-.45,0-.87-.27-1.16-.62-.29-.35-.45-.78-.58-1.22-.87-2.89-.23-6.17,1.61-8.56,1.85-2.39,4.84-3.82,7.86-3.83,1.71,0,3.29.76,4.48,1.99.46.48,1.52,1.75.77,2.42-.22.2-.54.25-.84.3-.21.03-.42.06-.63.09Z"/>
          </g>
          <g>
            <path class="cls-10" d="M41.94,84.32L22.33,10.93v-.05s-.14-.45-.14-.45l-.05-.18-.34-1.29-.04-.16-.15-.55-.05-.18-.49-1.83c-.02-.07-.04-.15-.07-.21-.02-.05-.04-.1-.07-.15-.06-.13-.12-.25-.2-.36-.11-.16-.23-.31-.38-.43-.32-.31-.71-.51-1.14-.59-.01,0-.02,0-.04,0-.12-.03-.25-.04-.38-.04-.05,0-.1-.02-.16-.03-.1-.02-.22-.04-.37-.07-.38-.09-.9-.2-1.53-.36-.07-.02-.15-.04-.23-.06-.16-.04-.33-.08-.51-.13-.02,0-.05-.01-.07-.02C12.55,2.96,6.83,1.45,1.46,0l-.15.15C.52.94.07,1.99,0,3.07c0,.09,0,.18,0,.26,0,.44.06.88.2,1.32,1.57.42,4.89,1.32,8.25,2.2,2.35.62,4.15,1.09,5.54,1.43.08.02.15.04.23.06.08.02.16.04.23.06.16.04.31.08.45.12.55.14,1.03.25,1.44.34.02,0,.04,0,.05.01.02,0,.04,0,.06.01.13.03.24.1.32.2h0c.06.07.1.15.13.24h0s.14.5.14.5l.07.27.13.5.12.44.02.04.03.11.12.46.11.41.09.36.09.35.13.46v.04s19.34,72.31,19.34,72.31c.15.43,1.08.44,2.07.24,1.33-.27,2.76-.92,2.59-1.48Z"/>
            <g>
              <g>
                <path class="cls-5" d="M16.52,3.95c-.05.06-.1.11-.15.17-.04.05-.08.1-.12.15,0,0-.02.02-.03.03,0,0,0,0,0,0h0s-.05.06-.07.09c-.28.37-.53.76-.75,1.17-.11.2-.21.41-.31.63-.01.03-.03.06-.04.09,0,.01-.01.03-.02.04-.02.05-.04.1-.06.15-.04.11-.09.22-.13.33-.04.12-.09.25-.12.37-.1.32-.18.64-.24.97-.02.08-.03.17-.04.25-.08-.02-.15-.04-.23-.06-.07-.02-.15-.04-.23-.06.02-.14.05-.28.08-.41.06-.27.13-.54.21-.8.2-.65.47-1.29.81-1.88.27-.48.59-.94.94-1.37.18.05.34.09.51.13Z"/>
                <path class="cls-5" d="M14.42,8.56s0-.01,0-.02c0,.01,0,.02,0,.02,0,0,0,0,0,0Z"/>
              </g>
              <path class="cls-5" d="M22.33,10.93c-.06.05-.12.1-.18.15-.71.57-1.48,1.06-2.31,1.44-.02,0-.04.02-.06.03-.59.27-1.21.5-1.84.66l-.13-.46c.25-.06.5-.14.74-.22.21-.07.42-.14.62-.23,0,0,0,0,.01,0,.01,0,.03-.01.04-.02.02-.01.05-.02.07-.03.05-.02.1-.04.15-.06.07-.03.13-.06.2-.09.03-.01.07-.03.1-.05.4-.19.79-.41,1.16-.65.18-.12.37-.24.54-.37.04-.03.08-.06.12-.09,0,0,0,0,.02-.02.01,0,.02-.02.03-.02.02-.02.04-.03.06-.05.09-.07.18-.14.26-.21.08-.07.16-.14.24-.2l.12.45v.05Z"/>
              <g>
                <path class="cls-5" d="M18.56,5.26s0,.01,0,0h0Z"/>
                <path class="cls-5" d="M19.22,4.51c-.23.23-.45.48-.65.73,0,0,0,0,0,.01h0s0,0,0,0c0,0,0,0,0,.01-.02.02-.03.04-.05.06-.03.04-.06.08-.09.12-.06.09-.13.17-.19.26-.12.17-.23.35-.34.53-.11.18-.21.36-.3.55-.05.09-.09.18-.13.27-.04.09-.1.18-.13.28,0,0,0-.01,0-.02,0,0,0,.02-.01.03h0s0,.02-.01.03c-.01.02-.02.05-.03.07-.02.04-.04.09-.05.13-.03.07-.05.14-.08.21-.01.03-.02.06-.03.09-.07.2-.13.39-.19.59-.06.2-.11.4-.15.6-.08-.1-.2-.17-.32-.2-.02,0-.04,0-.06-.01-.02,0-.04,0-.05-.01.05-.23.11-.45.18-.68.05-.17.11-.34.17-.5.23-.64.53-1.25.88-1.82.31-.51.67-.99,1.08-1.43.06.01.12.02.16.03.13,0,.26.02.38.04.01,0,.02,0,.04,0Z"/>
              </g>
              <path class="cls-5" d="M21.75,8.8c-.05.05-.1.11-.15.16-.67.7-1.43,1.3-2.26,1.8-.02,0-.03.02-.05.03-.57.34-1.17.62-1.78.85l-.12-.46c.1-.04.2-.07.3-.11,0,0,0,0,0,0,.01,0,.03-.01.04-.02.03-.01.06-.02.09-.04.06-.03.12-.06.18-.08.4-.18.79-.39,1.16-.62.03-.01.05-.03.07-.04.2-.12.4-.26.59-.39.05-.03.1-.07.14-.11.02-.02.05-.03.07-.05.01,0,.03-.02.03-.03.09-.07.19-.15.28-.22.36-.3.7-.62,1.02-.96.08-.08.15-.17.23-.26l.15.55Z"/>
              <path class="cls-5" d="M21,6.04c-.11.2-.22.41-.34.61-.47.8-1.03,1.55-1.65,2.25-.06.06-.12.13-.17.19-.5.54-1.04,1.05-1.61,1.5l-.13-.5c.26-.21.51-.43.75-.66.3-.28.58-.58.85-.88.03-.03.06-.07.09-.1.04-.05.08-.09.12-.14,0,0,.02-.02.02-.03h0s.03-.04.05-.06c.07-.09.15-.18.22-.27.14-.18.28-.36.41-.55.26-.37.51-.75.73-1.14.12-.2.22-.4.33-.6.02-.04.04-.09.07-.13.08.11.14.23.2.36.03.05.05.1.07.15Z"/>
            </g>
            <path class="cls-4" d="M39.36,85.8c-.99.2-1.93.19-2.07-.24L17.95,13.26v-.04s-.14-.46-.14-.46l-.09-.35-.09-.36-.11-.41-.12-.46-.03-.11-.02-.04-.12-.44-.13-.5-.07-.27-.14-.49h0c-.02-.1-.07-.18-.13-.25h0c-.08-.1-.2-.17-.32-.2-.02,0-.04,0-.06-.01-.02,0-.04,0-.05-.01-.41-.09-.89-.2-1.44-.34-.14-.04-.3-.08-.45-.12-.08-.02-.15-.04-.23-.06-.07-.02-.15-.04-.23-.06-1.39-.34-3.19-.81-5.54-1.43C5.09,5.97,1.76,5.08.2,4.65c-.13-.43-.2-.88-.2-1.32,0-.09,0-.18,0-.26,2.83.83,7.66,2.27,10.22,2.94,1.58.42,2.91.76,4.04,1.05.16.04.31.08.46.12.37.09.72.18,1.04.26.08.02.15.04.23.06.08.02.16.04.23.06.16.04.31.08.45.12.16.04.32.08.46.11.36.09.69.17.98.23.02,0,.04,0,.05.01.02,0,.04,0,.06.01.13.03.24.1.32.2h0c.06.07.1.15.13.24h0s.01.06.01.06l.12.44.03.1.04.17.13.5.12.44.02.04.02.08v.03s.13.44.13.44h0s.11.43.11.43l.09.36.09.35.05.17.08.29v.04s.05.14.05.14l19.58,73.24Z"/>
          </g>
          <path class="cls-8" d="M52.49,28.72c-1.12-.36-2.71-.68-4.72-.95-4.11-.56-9.56-.87-15.36-.87-1.98,0-3.92.04-5.78.11l.29,1.09c1.77-.06,3.62-.1,5.49-.1,5.49,0,10.72.28,14.72.79,5.06.64,6.13,1.4,6.33,1.59-.2.2-1.27.95-6.33,1.6-4,.51-9.23.79-14.72.79-1.44,0-2.87-.02-4.26-.06-1.75-.05-3.45-.12-5.06-.23-1.96-.13-3.79-.3-5.41-.5-5.06-.64-6.13-1.4-6.33-1.6.2-.2,1.27-.95,6.33-1.59,1.31-.17,2.76-.31,4.31-.43l-.29-1.08c-1.68.13-3.24.29-4.65.48-2.02.27-3.61.59-4.72.95-.97.31-2.08.78-2.08,1.67s1.11,1.36,2.08,1.67c1.12.36,2.71.68,4.72.95,1.87.25,4.01.46,6.34.6,1.61.1,3.3.17,5.06.22,1.29.03,2.62.05,3.96.05,5.8,0,11.25-.31,15.36-.87,2.01-.27,3.6-.59,4.72-.95.97-.31,2.08-.78,2.08-1.67s-1.11-1.36-2.08-1.67Z"/>
          <path class="cls-5" d="M46.55,17.93c-3.78-.51-8.81-.79-14.15-.79-2.93,0-5.77.08-8.36.24l.29,1.09c2.51-.15,5.25-.23,8.07-.23,5.02,0,9.81.25,13.48.71,4.45.56,5.57,1.2,5.83,1.41-.26.21-1.37.86-5.83,1.41-3.67.46-8.46.71-13.48.71-2.43,0-4.81-.06-7.04-.17-1.82-.09-3.54-.22-5.1-.39-.46-.05-.91-.1-1.34-.15-4.45-.56-5.57-1.2-5.83-1.41.26-.21,1.37-.86,5.83-1.41.17-.02.35-.04.53-.06l-.29-1.08c-.31.04-.61.08-.91.12-5.55.75-6.3,1.65-6.3,2.44s.75,1.69,6.3,2.44c.73.1,1.5.19,2.31.27,1.57.16,3.28.28,5.1.37,2.13.1,4.41.16,6.74.16,5.34,0,10.36-.28,14.15-.79,5.55-.75,6.3-1.65,6.3-2.44s-.75-1.69-6.3-2.44Z"/>
          <path class="cls-12" d="M8.91,65.24c.29.33.42.9.53,1.35.54,2.46,1.02,4.95,1.41,7.44.17.97-.14,2.29-1.33,2.22-1.7-.17-1.53-3.12-1.71-4.4-.05-.74-.45-7.79,1.08-6.65l.03.03Z"/>
          <path class="cls-12" d="M15.36,35.63c-.13.56-.37,1.1-.58,1.64-2.4,5.98-4.23,12.2-5.25,18.56-.4,2.11-1.63,1.54-1.52-.36.1-6.46,1.2-12.88,3.05-19.07.32-.97.54-2.07,1.27-2.82,1.52-1.37,3.56.1,3.05,2v.06Z"/>
          <circle class="cls-13" cx="55.57" cy="54.42" r=".92"/>
          <circle class="cls-13" cx="26.85" cy="84.67" r=".85"/>
        </g>
      </g>
    </g>
  </g>
</svg>