<?xml version="1.0" encoding="UTF-8"?>
<svg id="Layer_2" data-name="Layer 2" xmlns="http://www.w3.org/2000/svg" viewBox="0 0 18.13 13.73">
  <defs>
    <style>
      .cls-1 {
        fill: #fdfcfd;
      }

      .cls-2 {
        fill: #524c2f;
      }

      .cls-3 {
        fill: #fcfdfd;
      }
    </style>
  </defs>
  <g id="Layer_1-2" data-name="Layer 1">
    <g>
      <g>
        <path class="cls-2" d="M18.13,9.09s-.03-.07-.06-.09l-1.98-1.19s-.06-.02-.08-.02l-.87.08s-.08.03-.11.07l-.17.28c-.94-.87-.95-2.39-.95-3.87,0-1.11,0-2.15-.43-2.82C12.8.49,11.8-.08,10.81,0c-.59.05-1.11.35-1.52.82h-1.67s-.06.01-.09.03l-2.25,1.84s0,0,0,0c0,0,0,0,0,0,0,0-.01,0-.02,0,0,0,0,0,0,0,0,0,0,0-.01.01,0,0,0,0,0,0,0,0,0,0,0,0,0,0,0,.01-.01.02,0,0,0,0,0,0,0,0,0,.02-.01.03,0,0,0,0,0,0,0,0,0,.02,0,.02l-.41,4.72-1.33-.77c-.07-.04-.15-.02-.19.05-.48.75-.62,1.68-.39,2.54.22.83.75,1.52,1.49,1.96.5.29,1.05.44,1.61.44.28,0,.56-.04.83-.11.5-.13.96-.39,1.34-.73l3.47.14h.02s.03.02.05.02c.03,0,.05,0,.08-.02.05-.02.09-.06.09-.12v-.03s.51-1.07.51-1.07l.87.03h0s.08-.02.1-.05c.03-.03.04-.07.04-.11l-.83-6.75v-.11s0-.08-.03-.11c0,0-.02-.02-.03-.02l-1.54-1.84s-.07-.05-.11-.05h-1.19c.33-.32.73-.51,1.16-.55.89-.08,1.78.44,2.4,1.39.38.6.38,1.6.39,2.67,0,1.5,0,3.16,1.08,4.11l-.21.36s-.03.09,0,.13l.34.81s.03.05.06.07l1.98,1.19s.05.02.07.02c.01,0,.02,0,.03,0,.04,0,.07-.03.09-.06l1.07-1.77s.02-.07.02-.11ZM6.74,11.38c-.76.2-1.55.1-2.23-.3-.68-.39-1.16-1.03-1.36-1.78-.2-.74-.09-1.54.28-2.2l5.09,2.93c-.39.67-1.03,1.16-1.78,1.36ZM11.6,10.78l-3.19-.13c.16-.19.3-.39.42-.61.03-.07.01-.15-.05-.19l-3.72-2.14.03-.32s.02-.01.03-.02c1.51-1.49,3.87-.75,6.36.04.14.04.27.09.41.13l-.29,3.25ZM11.94,10.1l.09-.97h.37l-.46.97ZM12.51,9.55l.14-.3.28.31-.42-.02ZM13.06,9.3l-.32-.36s0-.01,0-.02c-.03-.04-.07-.07-.12-.07h-.57l.11-1.23c.08.02.15.03.21.03.17,0,.29-.06.36-.11.04-.03.08-.06.11-.1l.23,1.85ZM12.76,6.84s-.02.05-.02.08c.01.16-.06.32-.17.4-.1.07-.23.08-.39.03l.27-3.05.31,2.54ZM11.91,7.25c-.12-.04-.23-.07-.35-.11-2.37-.75-4.81-1.52-6.44-.15l.35-4h6.82l-.38,4.27ZM10.8,1.11l1.33,1.58h-6.39l1.93-1.58h1.41c-.04.07-.08.13-.12.2h-.95c-.08,0-.14.06-.14.14s.06.14.14.14h.81s-.03.08-.05.12c-.03.07,0,.15.08.18.07.03.15,0,.18-.08.03-.08.06-.15.1-.22h1.1c.08,0,.14-.06.14-.14s-.06-.14-.14-.14h-.95c.04-.07.09-.14.14-.2h1.38ZM16.87,10.7l-1.82-1.1-.29-.7.16-.26c.17.12.37.23.6.32.02,0,.03,0,.05,0,.06,0,.11-.03.13-.09.03-.07,0-.15-.08-.18-.21-.08-.39-.18-.55-.3l.16-.26.76-.07,1.82,1.1-.92,1.53Z"/>
        <path d="M7.69,9.87l-1.86-1.08s0,0,0,0c0,0,0,0,0,0l-1.87-1.09s-.07-.02-.11-.01c-.04.01-.07.04-.09.07-.27.53-.36,1.15-.23,1.73,0,0,0,0,0,0,0,0,0,0,0,0,.18.57.56,1.06,1.06,1.39,0,0,0,0,0,0,0,0,0,0,0,0,.37.19.78.29,1.2.29.18,0,.36-.02.54-.06h0s0,0,.01,0c.57-.18,1.06-.56,1.39-1.06.02-.03.03-.07.02-.11,0-.04-.03-.07-.07-.09ZM3.94,8.02l1.45.84-1.62.43c-.06-.43,0-.87.17-1.27ZM3.84,9.56l1.62-.43-.84,1.45c-.35-.26-.62-.61-.78-1.02ZM4.86,10.72l.84-1.45.43,1.62c-.43.06-.87,0-1.27-.17ZM6.4,10.82l-.43-1.62,1.45.84c-.26.35-.61.62-1.02.78Z"/>
      </g>
      <g>
        <path class="cls-2" d="M1.58,13.17c-.49-.39-.83-.89-.97-1.5-.24-1.01.21-2.11,1.07-2.68.01,0,.02-.02.04-.03-.5-.16-.86-.48-1.15-.89-.19-.26-.36-.53-.54-.8-.08-.12-.04-.28.09-.31.58-.14,1.17-.21,1.76-.05.2.05.38.15.56.27.03-.11.05-.22.08-.32.1-.38.26-.74.46-1.07.07-.12.2-.16.29-.06.41.4.78.82.98,1.37.02.06.04.12.06.18.25-.12.5-.21.77-.27.08-.02.15-.04.23-.04.08,0,.07-.03.05-.09-.16-.37-.42-.66-.77-.86-.06-.04-.13-.07-.15-.14-.02-.08,0-.15.05-.21.09-.1.18-.2.27-.29.09-.09.17-.1.28-.04.17.1.33.21.48.34.05-.09.1-.18.15-.26.21-.34.5-.6.85-.8.13-.08.27-.05.33.09.09.19.15.4.21.6.02.09-.02.18-.13.23-.21.11-.4.24-.56.41-.1.11-.2.23-.27.36-.02.04-.02.07,0,.11.08.14.14.29.18.44.02.06.04.07.1.08,1.19.09,2.1.62,2.66,1.7.3.57.37,1.18.25,1.8-.02.08.03.07.07.07.37,0,.67.15.85.48.17.31.14.62-.04.91-.03.05-.04.09-.02.14.14.41.09.79-.16,1.15,0,.04-.03.07-.06.1-.27.3-.62.44-1.02.45-.2,0-.4-.04-.59-.1-.16-.05-.33-.09-.49-.16-.04-.02-.08-.01-.12,0-.34.17-.71.24-1.08.23-.28,0-.55-.06-.81-.18-.06-.03-.12-.03-.19-.03-.22,0-.43-.02-.64-.07-.1-.02-.2-.05-.3-.09-.06-.02-.11-.02-.17.02-.48.28-1.01.38-1.56.34-.47-.03-.9-.18-1.29-.44-.04-.03-.09-.05-.1-.1Z"/>
        <path class="cls-3" d="M5.82,7.77c.25.01.49-.02.72-.11.02,0,.04-.01.06-.02.08-.04.11-.11.09-.18-.02-.07-.11-.11-.19-.09-.04.01-.07.02-.11.04-.03-.19-.03-.19.15-.18,1.12.11,2.14.88,2.43,2.07.05.21.07.42.07.63,0,.03,0,.05,0,.09-.24-.23-.53-.34-.85-.33-.39.01-.7.18-.93.49-.04.06-.08.08-.16.07-.43-.07-.86-.03-1.27.13-.03.01-.06.03-.08-.02-.14-.43-.38-.8-.7-1.11-.03-.09,0-.18.02-.26.07-.39.2-.76.47-1.07.08-.09.16-.19.3-.15Z"/>
        <path class="cls-3" d="M4.82,11.49c-.02.15-.05.29-.05.44,0,.22.05.43.13.64.02.06.01.09-.03.14-.39.39-.86.62-1.41.68-.77.08-1.45-.15-1.98-.72-.51-.54-.71-1.2-.57-1.94.16-.86.67-1.44,1.5-1.73.18-.06.36-.08.55-.07.07,0,.09.03.09.1,0,.18,0,.18-.17.14-.04-.01-.09-.03-.13-.04-.11-.03-.19,0-.21.08-.02.08.03.15.13.18.19.06.38.09.58.08.04,0,.07,0,.11,0,0,.04-.03.03-.05.04-.03,0-.07,0-.1,0-.25-.04-.39.1-.52.28-.11.16-.15.34-.19.52-.06.28-.08.55-.04.83.02.15.09.27.2.36.19.15.21.26.11.49-.07.17-.05.29.08.42.1.1.17.21.21.35.05.22.27.33.49.25.14-.05.24-.15.33-.26.22-.3.43-.62.66-.91.07-.1.15-.19.22-.29.02-.03.04-.07.09-.05Z"/>
        <path class="cls-3" d="M4.82,11.49c-.1.07-.16.18-.23.28-.25.33-.48.67-.73,1.01-.12.16-.27.28-.49.27-.17,0-.33-.13-.36-.29-.02-.13-.08-.24-.18-.32-.17-.14-.16-.33-.09-.49.09-.17.06-.29-.11-.43-.16-.13-.22-.3-.23-.49-.02-.38.02-.75.16-1.1.07-.18.19-.32.35-.43.05-.04.11-.02.17-.03.08,0,.17.02.25-.02.13-.02.25-.05.37-.09.06-.02.12-.04.13-.12.01-.08-.03-.13-.09-.16-.03-.04-.05-.09-.02-.14.37.06.69.21.98.44.37.29.61.67.75,1.12,0,.03.03.07-.01.1-.31.23-.5.54-.63.89Z"/>
        <path class="cls-3" d="M5.12,12.28c-.06-.22-.07-.44,0-.67.07.05.13-.02.2,0,.12.08.15.07.2-.06.1-.24.28-.4.51-.5.51-.21,1-.19,1.46.13.11.08.2.18.26.3.05.09.04.12-.06.15-.04,0-.07.02-.1.04-.03.02-.06.05-.05.09.02.05.06.06.1.06.03,0,.07-.02.1-.03.08-.02.11,0,.11.08-.01.27-.11.5-.33.67-.07.04-.15.05-.22.04-.16-.02-.27.05-.35.17-.02.03-.04.06-.08.08-.33.08-.63,0-.91-.16-.17-.09-.31-.23-.39-.41-.02-.05-.04-.1-.11-.1-.07,0-.09.05-.11.11,0,.01-.01.02-.02.03-.06.02-.13.03-.19-.01Z"/>
        <path class="cls-3" d="M5.3,11.62s-.09.03-.14.04c-.05.01-.04-.02-.05-.04.09-.38.32-.66.64-.86.59-.36,1.5-.31,2.06.1.72.54.75,1.51.07,2.11-.66.57-1.74.55-2.37-.04-.19-.18-.32-.39-.39-.65.07,0,.14,0,.2,0,.05,0,.06.04.08.07.2.33.49.53.86.62.36.09.71.07,1.05-.09.4-.19.65-.5.71-.95,0-.02,0-.04,0-.06-.02-.09-.01-.17.1-.19.04,0,.07-.05.05-.1-.01-.05-.06-.07-.1-.06-.09.03-.13-.02-.17-.09-.16-.31-.42-.49-.74-.59-.44-.13-.87-.11-1.28.1-.27.13-.47.33-.56.63,0,.02,0,.04-.03.05Z"/>
        <path class="cls-3" d="M5.82,7.77c-.14,0-.22.09-.3.19-.23.27-.35.6-.42.94-.03.12-.04.24-.06.36-.27-.23-.56-.42-.9-.53-.04-.01-.09-.03-.13-.04,0,0,0,0-.02-.02.16-.19.26-.41.32-.65.03-.12.04-.24.04-.36,0-.05.02-.08.06-.1.3-.15.62-.25.95-.3.11-.02.12,0,.11.14-.03,0-.06-.02-.09-.02-.07-.01-.15.04-.17.1-.02.08,0,.14.09.17.14.05.28.09.43.11.03,0,.06,0,.08.02Z"/>
        <path class="cls-3" d="M2.97,7.69c-.07-.08-.14-.16-.2-.24-.03-.03-.02-.06-.02-.1.03-.37.15-.71.29-1.04.03-.08.07-.16.11-.23.02-.04.04-.04.07,0,.31.34.63.69.76,1.15.15.52.06.98-.34,1.36-.01.01-.03.02-.06.05.1-.27.13-.52.12-.79-.02-.31-.13-.58-.29-.84-.04-.06-.1-.07-.15-.04-.07.04-.07.11-.04.18t-.07,0c-.09-.05-.09-.05-.11.06-.02.13-.01.26-.02.39,0,.04.01.08-.04.1Z"/>
        <path class="cls-3" d="M1.2,8.3c-.19-.15-.32-.34-.45-.53-.11-.16-.22-.32-.33-.48-.04-.06-.06-.08.04-.1.31-.06.62-.08.93-.07.71.04,1.24.46,1.49,1.06,0,.02.02.03,0,.06-.28-.34-.64-.53-1.06-.63-.08,0-.15-.03-.22-.06-.18-.08-.37-.11-.58-.16.03.06.07.09.11.12.06.05.13.1.19.15.07.06.07.1.02.18-.05.08-.05.1.03.15.04.03.09.05.14.08.05.03.1.06.09.14-.02.08-.07.14-.15.14-.09,0-.17,0-.25-.04Z"/>
        <path class="cls-3" d="M8.69,11.98c0-.07,0-.15-.02-.22,0-.05,0-.07.05-.09.31-.15.73-.06.98.19.24.26.3.67.14.98-.14.04-.27.03-.41,0-.4-.09-.69-.38-.75-.76,0-.03-.01-.06,0-.09Z"/>
        <path class="cls-3" d="M1.2,8.3c.08,0,.16.01.25.02.09,0,.11-.06.13-.13.02-.06-.03-.09-.07-.11-.07-.03-.13-.07-.19-.12-.05-.04-.05-.08,0-.12.08-.1.08-.11-.02-.19-.08-.07-.17-.14-.25-.2-.03-.02-.06-.05-.05-.08.02-.04.05,0,.08,0,.26.05.51.13.75.24-.07,0-.13.01-.15.09-.01.08.05.12.12.14.33.08.62.23.85.48.08.08.16.17.21.29-.24,0-.46.07-.68.13-.06.02-.12,0-.17-.01-.3-.08-.58-.2-.8-.43Z"/>
        <path class="cls-3" d="M8.69,11.98c.07.45.33.73.79.84.12.03.24.01.37.02-.14.3-.38.46-.7.53-.28.06-.55.01-.81-.1-.07-.03-.18-.03-.2-.09-.02-.05.09-.1.13-.16.24-.29.39-.61.41-1,0-.01,0-.03.01-.04Z"/>
        <path class="cls-3" d="M8.37,10.99c-.13-.14-.26-.28-.41-.4-.11-.13-.14-.42-.05-.54.53-.19,1.14.14,1.11.75,0,.09-.02.18-.06.26-.12.06-.25.03-.38.01-.08,0-.15-.03-.21-.09Z"/>
        <path class="cls-3" d="M2.97,7.69s.02-.06.02-.09c0-.15,0-.29.02-.44,0-.04,0-.08.04-.1.03-.02.05.03.08.04.03.01.04.06.09.05.33.48.32,1.13.08,1.54-.02-.37-.13-.7-.32-1.01Z"/>
        <path class="cls-3" d="M5.89,6.04s-.12-.16-.11-.18c.16-.4.43-.7.79-.94.03-.02.06-.02.07.02,0,0,0,.02,0,.03.03.1.1.2.09.3-.02.09-.15.12-.23.17-.22.16-.42.35-.57.57-.02.03-.03.04-.04.03Z"/>
        <path class="cls-3" d="M5.43,6.01c.3.27.47.61.57.99.04.14.05.28.07.42,0,.01,0,.03,0,.04-.06.05-.13.01-.2.02-.04,0-.05-.02-.05-.06-.03-.26-.11-.52-.22-.76-.07-.16-.18-.3-.28-.44,0-.09.07-.14.11-.21Z"/>
        <path class="cls-3" d="M9.94,11.66c-.2-.19-.42-.32-.69-.35-.04,0-.06-.01-.04-.06.07-.13.09-.27.11-.41,0-.03,0-.06.05-.06.23,0,.42.08.55.27.13.18.15.38.04.58,0,0,0,0-.02.02Z"/>
        <path class="cls-3" d="M8.37,10.99c.19.08.39.08.59.07-.05.15-.14.27-.3.32-.05.02-.08.01-.1-.04-.04-.13-.13-.23-.19-.35Z"/>
        <path class="cls-3" d="M7.91,10.05c-.04.19-.03.37.05.54-.14-.08-.27-.16-.42-.21-.05-.02-.05-.04-.01-.07.11-.12.23-.2.38-.25Z"/>
        <path class="cls-3" d="M5.08,5.98c-.08-.06-.16-.12-.25-.18-.01,0-.03-.02-.03-.03.01-.06.07-.08.1-.12.02-.03.05-.02.07,0,.11.08.23.14.32.25-.05.08-.14.08-.22.09Z"/>
        <path class="cls-3" d="M3.73,8.94s.03.09.02.14c-.1,0-.19.06-.29.08-.04,0-.08.04-.11-.01-.03-.06,0-.18.05-.21.11-.06.23-.04.34,0Z"/>
        <path class="cls-3" d="M5.08,5.98c.07-.03.15-.06.22-.09.06.03.1.07.13.12,0,.09-.08.14-.11.21-.08-.08-.16-.16-.24-.24Z"/>
        <path class="cls-3" d="M4.92,13.08s0-.02,0-.02c.05-.04.1-.12.15-.13.06,0,.08.08.13.13.03.03.06.05.08.09-.13,0-.25-.03-.38-.07Z"/>
        <path class="cls-3" d="M7.32,8.15c.25,0,.45.2.46.45,0,.24-.21.44-.46.44-.24,0-.45-.21-.45-.45,0-.25.21-.45.46-.45Z"/>
        <path class="cls-1" d="M4.27,9.74c.22,0,.39.17.39.39,0,.21-.18.38-.39.38-.22,0-.4-.18-.39-.4,0-.21.18-.38.39-.37Z"/>
        <path class="cls-2" d="M5.3,11.62c.01-.17.11-.31.22-.43.21-.23.48-.36.79-.41.4-.07.78-.04,1.15.16.22.12.39.29.49.52.02.05.04.06.09.05.09-.03.16.01.17.07.02.07-.03.12-.12.14-.03,0-.06,0-.06.05.04.48-.19.83-.59,1.07-.59.36-1.46.23-1.91-.27-.08-.09-.14-.2-.2-.3,0-.07.02-.13.1-.15.07-.02.11.03.14.09.18.37.49.53.88.6.14.02.28.03.42,0,.09-.05.2-.06.29-.1.12-.05.25-.11.35-.19.2-.17.31-.4.31-.66,0-.07-.02-.08-.08-.05-.04.02-.09.04-.14.04-.05,0-.09-.03-.1-.08-.02-.05.01-.08.05-.11.04-.04.09-.05.15-.05.08,0,.07-.03.04-.09-.1-.19-.25-.32-.43-.42-.44-.24-1.12-.18-1.52.13-.12.09-.2.21-.25.35-.05.14-.13.16-.23.04Z"/>
        <path class="cls-3" d="M7.51,12.52c-.06.08-.15.12-.23.16-.13.07-.27.12-.42.13.02-.03.04-.05.06-.08.09-.12.2-.2.36-.18.08,0,.16.01.23-.04Z"/>
        <path class="cls-2" d="M6.43,11.41c-.08,0-.13-.04-.13-.11,0-.08.08-.14.19-.14.08,0,.13.05.14.11,0,.08-.08.14-.19.14Z"/>
        <path class="cls-2" d="M7.3,11.41c.09,0,.14.02.15.11,0,.07-.09.14-.19.14-.07,0-.13-.03-.13-.11,0-.07.09-.13.17-.13Z"/>
        <path class="cls-2" d="M6.72,11.58c.07,0,.12.02.13.1,0,.08-.09.14-.18.14-.08,0-.14-.05-.13-.11,0-.08.08-.13.19-.13Z"/>
        <path class="cls-2" d="M5.93,11.66c-.06,0-.12-.02-.13-.09-.01-.07.03-.11.09-.13.01,0,.02,0,.04-.01.09-.03.17,0,.19.08.01.07-.05.14-.14.15-.01,0-.02,0-.04,0Z"/>
        <path class="cls-2" d="M6.41,11.85c.07,0,.13.02.13.1,0,.07-.09.14-.19.14-.08,0-.13-.04-.13-.11,0-.07.07-.13.18-.13Z"/>
        <path class="cls-2" d="M7.17,11.1s.11.02.11.11c0,.07-.09.14-.19.13-.07,0-.12-.02-.13-.1,0-.08.07-.14.21-.14Z"/>
        <path class="cls-2" d="M6.46,12.3s.1.02.1.1c0,.08-.08.14-.19.14-.07,0-.12-.03-.13-.11,0-.07.09-.13.21-.13Z"/>
        <path class="cls-2" d="M6.78,12.58c-.08,0-.13-.05-.13-.12,0-.08.07-.12.18-.12.07,0,.13.02.13.1,0,.07-.09.14-.19.14Z"/>
        <path class="cls-2" d="M5.91,12.17c-.08,0-.13-.04-.13-.11,0-.07.08-.13.18-.13.08,0,.13.04.13.11,0,.07-.09.13-.18.13Z"/>
        <path class="cls-2" d="M6.85,12.15c-.06,0-.12-.02-.12-.1,0-.08.07-.14.17-.14.07,0,.13.02.14.1,0,.07-.08.13-.19.14Z"/>
        <path class="cls-2" d="M7.45,12.43c-.08,0-.13-.02-.15-.08-.02-.07.03-.1.08-.13.02,0,.04-.02.06-.02.08-.02.14,0,.16.08.02.08-.04.12-.1.14-.02,0-.05,0-.06.01Z"/>
        <path class="cls-2" d="M9.4,12.26c-.08,0-.16-.07-.16-.15,0-.07.04-.11.11-.12.07-.01.16.08.17.15,0,.06-.05.12-.11.12Z"/>
        <path class="cls-2" d="M8.51,10.6c-.1,0-.18-.07-.17-.15,0-.07.04-.11.11-.11.08,0,.15.07.15.14,0,.07-.04.11-.09.12Z"/>
        <path class="cls-2" d="M9.65,11.19c-.01.07-.04.12-.11.11-.06,0-.11-.03-.11-.11,0-.07.04-.11.11-.11.07,0,.1.04.11.11Z"/>
      </g>
    </g>
  </g>
</svg>