<?xml version="1.0" encoding="UTF-8"?>
<svg id="Layer_2" data-name="Layer 2" xmlns="http://www.w3.org/2000/svg" viewBox="0 0 91.66 55.68">
  <defs>
    <style>
      .cls-1 {
        fill: none;
      }

      .cls-2 {
        fill: #7a3d21;
      }

      .cls-3 {
        fill: #3f2e2e;
      }

      .cls-4 {
        fill: #7f3f26;
      }

      .cls-5 {
        fill: #564343;
      }

      .cls-6 {
        fill: #965037;
      }

      .cls-7 {
        fill: #875632;
      }

      .cls-8 {
        fill: #914d2f;
      }
    </style>
  </defs>
  <g id="Layer_1-2" data-name="Layer 1">
    <g>
      <g>
        <polygon class="cls-2" points="91.59 7.77 57.92 22.15 58.58 55.68 91.59 37.51 91.59 7.77"/>
        <path class="cls-4" d="M62.4,26.39l18.06-9.24c1.73-.88,3.68.55,3.68,2.7v13.7c0,1.13-.56,2.16-1.45,2.66l-17.63,9.89c-1.7.95-3.7-.4-3.77-2.56l-.43-14.35c-.04-1.2.57-2.31,1.54-2.8Z"/>
        <polygon class="cls-8" points="1.18 20.83 1.18 45.9 58.58 55.68 58.11 22.05 1.18 20.83"/>
        <path class="cls-6" d="M3.73,24.93c.1-.11.2-.2.32-.27,1.17-.67,4.77.58,6.04.75,2.94.39,5.87.78,8.81,1.17,5.56.74,11.11,1.48,16.67,2.21,1.3.17,2.26,1.43,2.24,2.91l-.23,14.72c-.03,1.74-1.4,3.06-2.92,2.79l-29.42-5.17c-1.25-.22-2.17-1.46-2.15-2.9.04-2.82-.17-5.64-.17-8.46,0-1.5-.44-6.33.82-7.76Z"/>
        <path class="cls-3" d="M91.35,5.79c-.04-.1-.09-.19-.15-.28-1.04-1.7-3.13-1.95-4.79-2.1-2.12-.2-4.23-.4-6.35-.59-8.15-.76-16.29-1.52-24.44-2.21-7.21-.61-14.52-1.15-21.6.52-4.46,1.05-8.71,2.97-12.95,4.87-6.15,2.77-12.57,5.17-18.56,8.35-4.62,2.46-2.36,10.07,2.6,10.01,2.48-.03,4.57-2.02,6.94-2.83,2.68-.91,5.75-.19,7.89,1.85.85.81,1.57,1.82,2.53,2.46,2.22,1.48,5.58,1.26,7.98.19,2.4-1.07,4.46-2.96,6.92-2.09,1.67.59,2.95,2.06,4.44,3.11,3.28,2.3,7.69,2.34,11,.1,1.26-.85,2.35-1.99,3.62-2.8,1.27-.81,2.84-1.28,4.2-.65,2.03.95,2.86,3.96,4.91,4.85,1.93.83,4.1-.66,5.29-2.58,1.19-1.92,1.78-4.24,2.88-6.22,1.1-1.98,3.06-3.7,5.08-3.23.87.2,1.63.79,2.49,1.04,1.51.45,3.13-.17,4.42-1.16,1.29-.99,2.33-2.33,3.47-3.55.85-.9,1.81-1.9,2.42-3.01,0-1.28.27-2.9-.24-4.06Z"/>
        <polygon class="cls-3" points="1.18 28.74 58.31 36.59 58.31 42.06 1.18 33.91 1.18 28.74"/>
        <polygon class="cls-3" points="91.59 19.7 58.31 36.59 58.31 42.06 91.59 24.72 91.59 19.7"/>
        <ellipse class="cls-7" cx="30.45" cy="8.19" rx="1.98" ry=".82"/>
        <ellipse class="cls-7" cx="37.72" cy="6.82" rx="1.44" ry=".56"/>
        <ellipse class="cls-7" cx="43.87" cy="4.32" rx="1.21" ry=".61"/>
        <ellipse class="cls-7" cx="59.68" cy="7.5" rx="1.12" ry=".69"/>
        <ellipse class="cls-7" cx="24.7" cy="11.81" rx="1.17" ry=".56"/>
        <ellipse class="cls-7" cx="51.87" cy="16.5" rx="1.12" ry=".46"/>
        <ellipse class="cls-7" cx="58.58" cy="17.52" rx="1.1" ry=".56"/>
        <ellipse class="cls-7" cx="62.87" cy="12.65" rx="1.44" ry=".84"/>
        <ellipse class="cls-7" cx="16.31" cy="12.23" rx="1.21" ry=".42"/>
        <ellipse class="cls-7" cx="40.24" cy="17.01" rx="1.44" ry=".51"/>
        <ellipse class="cls-7" cx="44.56" cy="13.52" rx="1.54" ry=".87"/>
        <ellipse class="cls-7" cx="47.96" cy="8.91" rx="1.44" ry=".71"/>
        <ellipse class="cls-7" cx="36.47" cy="12.86" rx="1.26" ry=".63"/>
        <ellipse class="cls-7" cx="70.45" cy="8.2" rx="1.48" ry=".7"/>
        <ellipse class="cls-7" cx="76.96" cy="10.03" rx="1.44" ry=".41"/>
        <path class="cls-5" d="M3.2,15.91c17.52,1.66,34.83,4.56,52.32,6.39.88.09.88-1.01.02-1.1-17.49-1.83-34.8-4.73-52.32-6.39-.88-.08-.89,1.02-.02,1.1h0Z"/>
        <path class="cls-5" d="M63.34,20.21c8.88-4.22,17.77-8.44,26.65-12.67.75-.36,0-1.16-.75-.8-8.88,4.22-17.77,8.44-26.65,12.67-.75.36,0,1.16.75.8h0Z"/>
        <path class="cls-5" d="M.55,19.8c.39,1.56,1.53,2.59,2.84,3.11,1.71.68,3.18.29,4.8-.44.44-.2.34-.68.06-.96-.36-.37-1.01-.3-1.43-.11-1.04.47-1.92.76-2.97.12-.7-.43-1.13-1.06-1.35-1.92-.21-.84-2.21-.79-1.97.21h0Z"/>
        <path class="cls-5" d="M19.24,22.04c1.8-.24,1.92,1.15,2.97,2.29.64.69,1.36,1.06,2.23,1.22,2.21.4,4.66-.33,6.74-1.15,1.24-.49-.06-1.85-1.02-1.47-1.37.55-2.81.93-4.27.98-1.73.05-2.2-.9-3.14-2.25-1.02-1.47-2.54-1.46-4.05-1.25-1.32.18-.58,1.79.54,1.64h0Z"/>
        <path class="cls-5" d="M62.09,24.11c2.29.42,2.53,4.24,5.21,3.73,2.08-.39,3.54-2.82,4.2-4.9.19-.59-.75-1.63-.99-.86-.78,2.48-3.54,6.13-5.74,3.12-.86-1.18-1.51-2.23-2.91-2.49-.71-.13-.31,1.29.23,1.39h0Z"/>
      </g>
      <g>
        <path class="cls-1" d="M1.18,20.83v19.31c.07-.07.17-.06.23,0,.06.07.07.17.03.25.02,0,.04.01.05.02.13.07.18.26.11.43-.07.17-.23.25-.36.18-.03-.01-.05-.03-.07-.05v.57c.14-.13.33-.16.5-.1,0-.02-.02-.03-.02-.05-.03-.11.02-.21.1-.24.08-.03.17.04.2.14.03.11-.02.21-.1.24,0,0-.01,0-.02,0,.02.02.04.03.06.05.23.24.24.64.04.88-.05.06-.11.1-.17.14.05.08.06.18.02.27-.06.14-.2.2-.32.14-.12-.06-.18-.23-.12-.37,0,0,0-.02.01-.02,0,0-.02,0-.03-.01-.01.03-.04.05-.06.06-.03,0-.06,0-.08-.02v.79c.02-.06.06-.1.12-.12.09-.03.19.03.22.14.03.11-.03.21-.12.24-.09.03-.18-.03-.21-.12v.86s.08.01.12.05c.06.07.07.18,0,.25-.03.04-.08.06-.12.06v1.11l3.16.54s.02-.06.04-.08c.07-.08.18-.08.26,0,.04.04.06.09.06.14l4.39.75s0-.02.01-.04c.04-.09.12-.13.19-.1.06.03.09.1.07.18l1.11.19s.02-.1.04-.15c.09-.23.32-.34.5-.24.16.09.24.3.19.51l.88.15s0-.04.02-.05c0,0,0-.02.01-.02,0,0-.02,0-.03-.01-.01.03-.04.05-.06.06-.07.02-.14-.04-.16-.13,0-.04,0-.08,0-.11-.17-.24-.17-.59.01-.82.15-.18.37-.23.56-.16,0-.02-.02-.03-.02-.05-.03-.11.02-.21.1-.24s.17.04.2.14c.03.11-.02.21-.1.24,0,0-.01,0-.02,0,.02.02.04.03.06.05.23.24.24.64.04.88-.05.06-.11.1-.17.14.03.05.05.11.04.17l.68.12s.04-.05.07-.06c.07-.02.14.02.17.1l.62.11s.06,0,.09.02l.2.03c-.05-.12-.04-.26.05-.36.11-.13.28-.13.4-.01.09.09.11.24.06.36,0,0,0,0,0,0,.04.03.07.07.1.11l.58.1s0-.08.03-.11c.05-.06.14-.05.2.02.04.04.06.09.06.14l1.52.26s0-.02.01-.03c.04-.06.13-.06.2,0,.03.02.05.05.06.09l.5.09s.04-.08.07-.12c.15-.18.39-.18.56,0,.02.03.05.06.06.09.02.03.03.06.04.1,0,.02.01.05.02.07l1.68.29s.02-.03.03-.05c.04-.06.09-.12.15-.16-.05-.07-.08-.17-.05-.27.04-.15.18-.23.31-.18.13.05.2.2.16.35,0,0,0,.02,0,.02,0,0,.02,0,.03,0,.01-.03.03-.05.06-.06.06-.03.14.02.17.11.01.04.02.08.01.11.07.08.13.18.15.28l2.03.35c-.06-.2.04-.43.23-.52.2-.09.42,0,.5.22.05.14.03.3-.05.41l2.95.5c.05-.09.17-.13.28-.07.06.03.1.08.12.14l2.06.35c.02-.05.06-.09.11-.11.07-.02.15.01.19.09,0-.01,0-.03.01-.04.06-.16.23-.23.37-.16.12.06.19.22.16.36l.46.08s-.04-.1-.06-.15c-.08-.34.08-.69.37-.78.29-.09.59.11.67.45.06.23,0,.47-.14.62l1.91.33s0-.01.01-.02c.07-.08.18-.08.25,0,.02.02.03.05.04.08l.89.15c.09-.05.21-.04.28.04,0,0,0,0,0,.01.07-.02.14,0,.2.04l2.32.4c0-.06.03-.11.06-.15.1-.12.27-.12.38,0,.06.07.09.16.09.24l1.01.17c.01-.06.04-.12.08-.16.14-.17.38-.16.54,0,.07.08.12.18.13.28l1.02.17c.12-.13.29-.17.44-.09.08.04.15.11.19.2l.57.1s-.01-.1,0-.15c-.14-.03-.24-.21-.22-.4.02-.21.16-.36.31-.34.13.01.23.15.25.32.16-.04.33.03.42.18.07.12.09.27.05.41.02,0,.03,0,.04.02.05.03.09.07.11.13l.68.12c.02-.13.13-.23.24-.21.12.01.22.14.2.28,0,0,0,0,0,0l1.53.26s0-.07,0-.1c.02-.21.16-.36.33-.34.16.02.28.2.26.41,0,.05-.01.09-.03.13l5.53.94s0,0,0,0c-.03-.12.02-.23.12-.26.09-.03.19.04.22.16.01.06,0,.12-.02.17l6.27,1.07-.47-33.63L1.18,20.83ZM16.71,42.21c.11-.13.27-.15.37-.04.1.11.09.29-.01.42s-.27.15-.37.04c-.1-.11-.09-.29.01-.42ZM17.16,43.69c-.05.06-.13.05-.19,0-.06-.06-.06-.15-.02-.21.05-.06.13-.05.19,0,.06.06.06.15.02.21ZM16.25,44.64c.03.14-.04.28-.16.32-.12.04-.25-.04-.28-.18-.03-.14.04-.28.16-.32.12-.04.25.04.28.18ZM14.94,41.08c.11-.03.22.02.29.13,0-.05.03-.09.06-.12.11-.13.3-.12.43.03.13.14.16.36.05.49-.11.13-.3.12-.43-.03-.01-.01-.02-.02-.03-.04-.02.13-.09.24-.19.27-.15.05-.31-.08-.36-.28-.05-.2.03-.4.18-.45ZM14.96,44.71c.04.18-.03.36-.17.4-.14.04-.29-.07-.33-.25,0-.03-.01-.06-.01-.09-.08,0-.16-.04-.23-.11-.13-.14-.16-.36-.05-.49.11-.13.3-.12.43.03.07.07.11.17.12.26.11.01.21.11.25.25ZM13.68,42.27c.09-.1.23-.11.32-.01.06.06.08.14.07.22.18,0,.34.13.39.33.03.1.02.21-.02.31.12.08.16.28.09.46-.08.19-.25.28-.39.21-.12-.06-.18-.23-.14-.39-.16-.02-.3-.15-.35-.33-.03-.14,0-.29.07-.4-.01,0-.03-.02-.04-.03-.09-.1-.1-.26,0-.36ZM13.56,45.11c.06-.14.22-.19.36-.12.14.07.21.25.15.38-.06.14-.22.19-.36.12s-.21-.25-.15-.38ZM13.47,44.55c.04.17-.03.34-.16.38-.13.04-.27-.06-.31-.23-.04-.17.03-.34.16-.38.13-.04.27.06.31.23ZM13.02,41.15c.12-.04.25.04.28.18.03.14-.04.28-.16.32-.12.04-.25-.04-.28-.18-.03-.14.04-.28.16-.32ZM12.6,41.88c.05-.13.19-.19.3-.13.11.06.16.21.11.34-.05.13-.19.19-.3.13-.11-.06-.16-.21-.11-.34ZM11.58,43.35c-.07.17-.22.26-.35.23.03.03.06.08.07.13.04.15-.05.3-.19.35-.14.04-.28-.04-.32-.19-.04-.15.05-.3.19-.35.05-.02.1-.01.14,0-.09-.1-.12-.27-.05-.43.08-.19.25-.28.39-.21.14.07.19.29.12.48ZM11.38,41.93c.05.2-.04.4-.2.45-.16.05-.33-.07-.38-.27-.05-.2.04-.4.2-.45.16-.05.33.07.38.27ZM10.66,40.86c.08-.19.26-.28.41-.2.15.08.21.29.13.48-.08.19-.26.28-.41.2-.15-.08-.21-.29-.13-.48ZM10.14,42.45c-.06.14-.21.2-.34.13-.13-.07-.19-.24-.14-.38.06-.14.21-.2.34-.13.13.07.19.24.14.38ZM9.66,40.88c.04-.1.14-.14.23-.1.09.05.13.16.09.26-.04.1-.14.14-.23.1-.09-.05-.13-.16-.09-.26ZM9.41,43.29c.07-.18.26-.26.42-.18.16.08.23.29.15.47-.07.18-.26.26-.42.18-.16-.08-.23-.29-.15-.47ZM7.63,39.59c.09-.11.25-.12.35-.01.1.11.1.28.01.39-.09.11-.25.12-.35.01-.1-.11-.1-.28-.01-.39ZM6.96,38.3c.09-.1.23-.11.32-.01.09.1.1.26,0,.36-.09.1-.23.11-.32.01-.09-.1-.1-.26,0-.36ZM6.79,40.95s.09-.08.14-.1c-.02-.05-.02-.12,0-.18.04-.11.15-.16.24-.12.09.05.12.17.08.28,0,.02-.02.03-.02.04.04.02.07.05.1.08.16.17.18.45.04.62-.14.17-.38.16-.54,0-.16-.17-.18-.45-.04-.62ZM7.22,42.74c-.05.06-.14.07-.2,0-.06-.06-.06-.16,0-.22.05-.06.14-.07.2,0,.06.06.06.16,0,.22ZM5.95,37.15c.11-.13.27-.15.37-.04.1.11.09.29-.01.42-.11.13-.27.15-.37.04-.1-.11-.09-.29.01-.42ZM6.4,38.63c-.05.06-.13.05-.19,0-.06-.06-.06-.15-.02-.21.05-.06.13-.05.19,0,.06.06.06.15.02.21ZM5.5,39.58c.03.14-.04.28-.16.32-.12.04-.25-.04-.28-.18-.03-.14.04-.28.16-.32.12-.04.25.04.28.18ZM4.19,36.02c.11-.03.22.02.29.13,0-.05.03-.09.06-.12.11-.13.3-.12.43.03.13.14.16.36.05.49-.11.13-.3.12-.43-.03-.01-.01-.02-.02-.03-.04-.02.13-.09.24-.19.27-.15.05-.31-.08-.36-.28-.05-.2.03-.4.18-.45ZM4.21,39.65c.04.18-.03.36-.17.4-.14.04-.29-.07-.33-.25,0-.03-.01-.06-.01-.09-.08,0-.16-.04-.23-.11-.13-.14-.16-.36-.05-.49.11-.13.3-.12.43.03.07.07.11.17.12.26.11.01.21.11.25.25ZM3.1,41.46c-.13-.14-.13-.36-.01-.5.12-.14.32-.15.44-.02.13.14.13.36.01.5-.12.14-.32.15-.44.02ZM3.41,43.34c-.07.02-.15-.03-.17-.11-.02-.08.02-.17.1-.2.07-.02.15.03.17.11.02.08-.02.17-.1.2ZM2.93,37.21c.09-.1.23-.11.32-.01.06.06.08.14.07.22.18,0,.34.13.39.33.03.1.02.21-.02.31.12.08.16.28.09.46-.08.19-.25.28-.39.21-.12-.06-.18-.23-.14-.39-.16-.02-.3-.15-.35-.33-.03-.14,0-.29.07-.4-.01,0-.03-.02-.04-.03-.09-.1-.1-.26,0-.36ZM2.81,40.05c.06-.14.22-.19.36-.12.14.07.21.25.15.38-.06.14-.22.19-.36.12s-.21-.25-.15-.38ZM2.72,39.49c.04.17-.03.34-.16.38-.13.04-.27-.06-.31-.23-.04-.17.03-.34.16-.38.13-.04.27.06.31.23ZM2.27,36.09c.12-.04.25.04.28.18.03.14-.04.28-.16.32-.12.04-.25-.04-.28-.18-.03-.14.04-.28.16-.32ZM1.85,36.81c.05-.13.19-.19.3-.13.11.06.16.21.11.34-.05.13-.19.19-.3.13-.11-.06-.16-.21-.11-.34ZM1.92,39.35c-.11.14-.31.13-.45-.01-.13-.14-.15-.37-.04-.5.02-.03.05-.05.07-.06,0-.05.01-.1.03-.15.02-.06.05-.1.09-.14,0,0,0-.02,0-.03-.05-.2.03-.4.18-.45.15-.05.31.08.36.28.02.06.02.13,0,.18.15.13.21.36.13.55-.06.16-.2.25-.34.26-.01.03-.03.05-.04.07ZM1.96,45.21c-.04.09-.15.12-.24.06-.1-.05-.14-.17-.1-.26.04-.09.15-.12.24-.06.1.05.14.17.1.26ZM2.06,44.37c-.15-.16-.15-.43,0-.6.15-.18.38-.19.53-.03.15.16.15.43,0,.6-.15.18-.38.19-.53.03ZM2.63,41.72c-.05.13-.19.19-.3.13-.11-.06-.16-.21-.11-.34.05-.13.19-.19.3-.13.11.06.16.21.11.34ZM2.73,42.96c.02.1-.02.19-.09.21-.07.02-.15-.03-.18-.13s.02-.19.09-.21c.07-.02.15.03.18.13ZM2.82,46.03c-.09.1-.22.12-.3.04-.08-.08-.07-.23.02-.34s.22-.12.3-.04c.08.08.07.23-.02.34ZM2.78,41.03c-.11.03-.22-.02-.29-.13-.08.02-.17,0-.23-.06-.01-.01-.02-.03-.03-.04-.03.08-.11.12-.17.08-.06-.03-.09-.12-.05-.2.03-.08.11-.12.17-.09,0,0,0,0,.01,0,0-.06.03-.12.07-.17.1-.12.26-.13.36-.03,0,0,0,0,0,.01.14-.04.29.06.33.23.04.17-.04.34-.18.39ZM3.84,44.62s-.08.03-.13-.01c.03.22-.08.44-.27.5-.2.06-.42-.08-.48-.32-.06-.24.06-.49.26-.56.16-.05.32.03.42.18,0,0,0,0,0,0,.03-.04.11-.02.16.04.06.06.08.14.04.18ZM4.09,43.16c-.11.13-.28.13-.4.01s-.12-.32-.01-.45c.11-.13.28-.13.4-.01.11.12.12.32.01.45ZM4.07,42.43c-.2.06-.4-.09-.46-.33s.05-.49.25-.55c.2-.06.4.09.46.33s-.05.49-.25.55ZM4.35,38.48c-.16-.17-.16-.47,0-.66.16-.19.42-.21.58-.03,0,0,0,.01.01.02.13-.02.25.06.28.19.04.15-.06.31-.2.35-.01,0-.02,0-.03,0-.02.03-.04.06-.06.09-.16.19-.42.21-.58.03ZM4.51,39.04c.07-.02.13.03.16.12.02.08-.02.17-.08.19-.07.02-.13-.03-.16-.12-.02-.08.02-.17.08-.19ZM4.53,40.26c-.11-.12-.13-.31-.04-.42.09-.11.26-.1.37.02s.13.31.04.42c-.09.11-.26.1-.37-.02ZM4.81,41.83c.06-.07.16-.07.24,0,.07.08.08.19.02.27-.06.07-.16.07-.24,0-.07-.08-.08-.19-.02-.27ZM4.84,43.18c.05-.06.14-.05.2.02.06.07.08.17.03.22-.05.06-.14.05-.2-.02-.06-.07-.08-.17-.03-.22ZM5.1,45.36c-.06.07-.14.09-.18.05-.04-.05-.03-.14.03-.21.06-.07.14-.09.18-.05.04.05.03.14-.03.21ZM5.03,41.23c-.03-.13.02-.26.13-.32,0-.08.02-.15.07-.21.1-.12.27-.12.38,0,.11.12.12.31.02.43-.03.04-.08.07-.13.08-.02.1-.08.18-.17.21-.13.04-.27-.05-.3-.19ZM5.37,44.18c-.03-.07-.02-.16.03-.22.07-.08.18-.08.25,0,.03.03.05.07.05.11.09.07.14.19.1.29-.04.11-.17.15-.29.09-.1-.05-.15-.16-.14-.26ZM5.81,46.5c-.04.11-.15.16-.24.12-.09-.05-.12-.17-.08-.28.04-.11.15-.16.24-.12.09.05.12.17.08.28ZM5.82,39.1c.1-.12.28-.11.4.01.12.13.14.33.04.45-.1.12-.28.11-.4-.01s-.14-.33-.04-.45ZM6.1,42.39c-.08-.04-.11-.15-.08-.24.04-.09.13-.13.21-.09.08.04.11.15.08.24-.04.09-.13.13-.21.09ZM6.27,43.04c-.06-.07-.07-.17-.02-.24.05-.06.15-.06.21,0,.06.07.07.17.02.24-.05.06-.15.06-.21,0ZM6.45,45.22c0-.1.07-.19.18-.2.11-.01.2.06.2.16,0,.1-.07.19-.18.2-.11.01-.2-.06-.2-.16ZM6.98,46.65c-.02.06-.11.07-.19.03-.08-.04-.12-.12-.1-.18.02-.06.11-.07.19-.03.08.04.12.12.1.18ZM7.15,44.99c-.03.08-.09.13-.14.1-.04-.02-.05-.11-.02-.19.03-.08.09-.13.14-.1.04.02.05.11.02.19ZM6.84,43.65c-.19-.1-.28-.35-.2-.56.08-.21.31-.3.5-.2.19.1.28.35.2.56-.08.21-.31.3-.5.2ZM7.49,44.24c-.16-.17-.17-.45-.03-.63.15-.18.39-.18.56,0,.16.17.17.45.03.63-.15.18-.39.18-.56,0ZM8.19,46.62s-.04,0-.06,0c.03.06.04.13.01.19-.04.1-.14.14-.23.1-.09-.05-.13-.16-.09-.26.03-.08.11-.13.19-.11,0-.01-.01-.03-.02-.04-.02-.1.03-.19.11-.22.08-.03.17.03.19.12.02.1-.03.19-.11.22ZM8.57,45.93c-.04.09-.12.14-.18.1-.06-.03-.08-.13-.05-.22.04-.09.12-.14.18-.1.06.03.08.13.05.22ZM8.67,44.74c-.06.16-.23.23-.37.16-.06-.03-.11-.08-.13-.15-.02.05-.06.09-.1.1-.09.03-.19-.04-.22-.16-.03-.12.02-.23.12-.26.07-.02.15.01.19.09,0-.01,0-.03.01-.04.06-.16.23-.23.37-.16.14.07.2.26.14.42ZM8.92,42.03c-.13.32-.45.46-.73.32-.27-.14-.39-.52-.26-.83.13-.32.45-.46.73-.32.27.14.39.52.26.83ZM9.47,47.04c-.2.06-.41-.06-.47-.28-.05-.22.07-.45.27-.52.2-.06.41.06.47.28.05.22-.07.45-.27.52ZM9.43,45.35c.04-.1.14-.15.22-.11.08.04.11.16.07.25-.04.1-.14.15-.22.11-.08-.04-.11-.16-.07-.25ZM9.76,45.05c-.29.09-.59-.11-.67-.45-.08-.34.08-.69.37-.78.29-.09.59.11.67.45.08.34-.08.69-.37.78ZM10.05,42.87c-.03-.11.03-.21.12-.24.09-.03.19.03.22.14.03.11-.03.21-.12.24-.09.03-.19-.03-.22-.14ZM10.85,45.74c-.06.16-.22.23-.36.16-.13-.07-.19-.25-.12-.41.06-.16.22-.23.36-.16s.19.25.12.41ZM11.29,46.92c-.15.05-.3-.05-.34-.22-.04-.17.05-.34.19-.39.15-.05.3.05.34.22.04.17-.05.34-.19.39ZM11.62,45.13c-.17.05-.34-.06-.39-.25,0-.02,0-.05-.01-.07-.07.06-.16.08-.24.04-.12-.06-.17-.25-.11-.4s.22-.24.34-.17c.08.04.13.13.13.23.03-.03.07-.05.1-.06.17-.05.34.06.39.25.05.19-.05.39-.22.44ZM12.36,45.9c-.07.17-.23.25-.36.18-.13-.07-.18-.26-.11-.43.02-.05.05-.09.08-.13-.02,0-.03-.02-.04-.03-.07-.08-.07-.2,0-.28.07-.08.18-.08.25,0,.06.07.07.17.03.25.02,0,.04.01.05.02.13.07.18.26.11.43ZM12.67,44.41c-.11.14-.31.13-.45-.01-.13-.14-.15-.37-.04-.5.02-.03.05-.05.07-.06,0-.05.01-.1.03-.15.02-.06.05-.1.09-.14,0,0,0-.02,0-.03-.05-.2.03-.4.18-.45.15-.05.31.08.36.28.02.06.02.13,0,.18.15.13.21.36.13.55-.06.16-.2.25-.34.26-.01.03-.03.05-.04.07ZM13.39,46.78c-.05.13-.19.19-.3.13-.11-.06-.16-.21-.11-.34.05-.13.19-.19.3-.13.11.06.16.21.11.34ZM13.54,46.09c-.11.03-.22-.02-.29-.13-.08.02-.17,0-.23-.06-.01-.01-.02-.03-.03-.04-.03.08-.11.12-.17.08-.06-.03-.09-.12-.05-.2.03-.08.11-.12.17-.09,0,0,0,0,.01,0,0-.06.03-.12.07-.17.1-.12.26-.13.36-.03,0,0,0,0,0,.01.14-.04.29.06.33.23.04.17-.04.34-.18.39ZM13.86,46.52c-.13-.14-.13-.36-.01-.5.12-.14.32-.15.44-.02.13.14.13.36.01.5-.12.14-.32.15-.44.02ZM14.83,47.5c-.2.06-.4-.09-.46-.33s.05-.49.25-.55c.2-.06.4.09.46.33.06.24-.05.49-.25.55ZM15.09,42.88c.16-.19.42-.21.58-.03,0,0,0,.01.01.02.13-.02.25.06.28.19.04.15-.06.31-.2.35-.01,0-.02,0-.03,0-.02.03-.04.06-.06.09-.16.19-.42.21-.58.03-.16-.17-.16-.47,0-.66ZM15.27,44.1c.07-.02.13.03.16.12.02.08-.02.17-.08.19-.07.02-.13-.03-.16-.12-.02-.08.02-.17.08-.19ZM15.25,44.9c.09-.11.26-.1.37.02.11.12.13.31.04.42-.09.11-.26.1-.37-.02-.11-.12-.13-.31-.04-.42ZM15.81,47.16s-.06.05-.09.05c-.02,0-.03.01-.05.02-.1.02-.2-.03-.22-.13-.01-.08.03-.15.1-.19,0,0,0-.01.01-.02.06-.07.16-.07.24,0,.07.08.08.19.02.27ZM16.38,46.19s-.08.07-.13.08c-.02.1-.08.18-.17.21-.13.04-.27-.05-.3-.19-.03-.13.02-.26.13-.32,0-.08.02-.15.07-.21.1-.12.27-.12.38,0,.11.12.12.31.02.43ZM16.57,44.16c.1-.12.28-.11.4.01.12.13.14.33.04.45-.1.12-.28.11-.4-.01-.12-.13-.14-.33-.04-.45ZM17.24,48.11c-.05.06-.15.06-.21,0,0,0,0,0,0,0,0,.01,0,.02-.02.03-.06.09-.17.11-.24.04-.08-.07-.09-.19-.04-.28.06-.09.17-.11.24-.04.01,0,.02.02.03.03,0,0,0-.01.01-.02.05-.06.15-.06.21,0,.06.07.07.17.02.24ZM17.32,46.84c-.05.08-.13.11-.18.07-.05-.04-.04-.14,0-.21.05-.08.13-.11.18-.07.05.04.04.14,0,.21ZM17.72,43.37c.09-.1.23-.11.32-.01.09.1.1.26,0,.36s-.23.11-.32.01c-.09-.1-.1-.26,0-.36ZM17.47,45.36c.06-.09.17-.1.26-.03.09.07.11.2.05.29-.06.09-.17.1-.26.03-.09-.07-.11-.2-.05-.29ZM17.97,47.81c-.05.06-.14.07-.2,0-.06-.06-.06-.16,0-.22.05-.06.14-.07.2,0,.06.06.06.16,0,.22ZM18.13,46.63c-.14.17-.38.16-.54,0-.16-.17-.18-.45-.04-.62.14-.17.38-.16.54,0,.16.17.18.45.04.62ZM18.38,44.65c.09-.11.25-.12.35-.01.1.11.1.28.01.39-.09.11-.25.12-.35.01s-.1-.28-.01-.39ZM19.15,48.77c-.07.03-.15,0-.18-.09s0-.17.08-.21.15,0,.18.09,0,.17-.08.21ZM19.14,47.58c-.15.07-.32.02-.43-.12,0,0,0,0,0,0-.03.04-.1.04-.16-.01-.06-.05-.09-.13-.06-.17.02-.04.08-.04.13,0-.05-.22.04-.45.22-.53.2-.09.42.02.51.26.08.23,0,.5-.2.59ZM19.37,46.07c-.09-.07-.09-.22-.02-.34.07-.11.2-.15.29-.08.09.07.09.22.02.34-.07.11-.2.15-.29.08ZM19.95,48.87c-.07.03-.16-.01-.19-.11-.03-.09,0-.19.07-.23s.16.01.19.11c.03.09,0,.19-.07.23ZM20.35,47.87c-.13.19-.36.24-.52.1-.16-.14-.19-.4-.07-.6s.36-.24.52-.1c.16.14.19.4.07.6ZM20.65,46.58c-.03.09-.13.14-.23.09-.1-.04-.16-.15-.13-.24s.13-.14.23-.09.16.15.13.24ZM21.15,48.23c-.09.04-.19,0-.23-.11-.04-.1,0-.22.1-.26.09-.04.19,0,.23.11.04.1,0,.22-.1.26ZM21.25,47.03c-.05.08-.15.1-.22.04-.07-.06-.08-.17-.03-.25.05-.08.15-.1.22-.04.07.06.08.17.03.25ZM21.82,47.27c-.02-.06.03-.14.11-.18.08-.04.16-.02.19.04.02.06-.03.14-.11.18-.08.04-.16.02-.19-.04ZM22.06,48.12c.06-.09.17-.1.26-.03.09.07.11.2.05.29-.06.09-.17.1-.26.03-.09-.07-.11-.2-.05-.29ZM22.78,49.05c-.07.24-.28.38-.47.31s-.29-.32-.23-.56c.07-.24.28-.38.47-.31s.29.32.23.56ZM22.91,48.65s-.1-.03-.13-.11c-.03-.08-.02-.16.03-.18.04-.02.1.03.13.11.03.08.02.16-.03.18ZM22.95,46.53c-.09.04-.19-.02-.23-.13s0-.24.09-.28c.09-.04.19.02.23.13s0,.24-.09.28ZM23.65,48.35c-.02.08-.1.13-.18.1-.07-.03-.11-.12-.09-.2.02-.08.1-.13.18-.1.07.03.11.12.09.2ZM24.2,48.99c-.03.09-.11.15-.18.12-.07-.03-.11-.12-.08-.22.03-.09.11-.15.18-.12.07.03.11.12.08.22ZM24.63,47.22c-.05.16-.16.27-.29.31.09,0,.17.04.2.13.04.11-.02.25-.14.3-.12.05-.24,0-.28-.1s.02-.25.14-.3c.01,0,.02,0,.03-.01-.05,0-.1,0-.15-.02-.2-.07-.31-.33-.24-.57.07-.24.29-.37.49-.3.2.07.31.33.24.57ZM25.52,49.37c-.03.09-.1.14-.18.14,0,.01.02.03.02.04.03.09,0,.2-.09.23-.08.04-.17,0-.21-.1-.03-.09,0-.2.09-.23.02,0,.04-.01.06-.01-.04-.05-.05-.12-.03-.19.03-.1.13-.16.22-.13.09.03.14.15.11.25ZM25.86,47.87c-.08.05-.18,0-.23-.1-.05-.1-.04-.23.04-.28.08-.05.18,0,.23.1.05.1.04.23-.04.28ZM26.66,49.37c-.02.06-.1.09-.18.06-.08-.03-.14-.11-.12-.17.02-.06.1-.09.18-.06.08.03.14.11.12.17ZM28.78,46.89c.04-.11.15-.16.24-.12.09.05.12.17.08.28-.04.11-.15.16-.24.12-.09-.05-.12-.17-.08-.28ZM27.87,49.37c-.03.11-.13.18-.23.15-.09-.03-.14-.15-.11-.27.03-.11.13-.18.23-.15.09.03.14.15.11.27ZM28.16,48.53c-.04.09-.13.13-.21.09-.08-.04-.11-.15-.08-.24.04-.09.13-.13.21-.09s.11.15.08.24ZM29.19,49.68c-.08.21-.31.3-.5.2-.19-.1-.28-.35-.2-.56s.31-.3.5-.2c.19.1.28.35.2.56ZM30.77,48.25c-.13.32-.45.46-.73.32-.27-.14-.39-.52-.26-.83.13-.32.45-.46.73-.32.27.14.39.52.26.83ZM33.22,48.15c.05.2-.04.4-.2.45-.16.05-.33-.07-.38-.27-.05-.2.04-.4.2-.45.16-.05.33.07.38.27ZM31.98,48.67c-.06.14-.21.2-.34.13-.13-.07-.19-.24-.14-.38.06-.14.21-.2.34-.13s.19.24.14.38ZM31.5,47.11c.04-.1.14-.14.23-.1.09.05.13.16.09.26-.04.1-.14.14-.23.1-.09-.05-.13-.16-.09-.26ZM31.83,49.81c-.07.18-.26.26-.42.18-.16-.08-.23-.29-.15-.47.07-.18.26-.26.42-.18.16.08.23.29.15.47ZM32.11,49.22c-.09.03-.19-.03-.22-.14-.03-.11.03-.21.12-.24.09-.03.19.03.22.14.03.11-.03.21-.12.24ZM32.51,47.09c.08-.19.26-.28.41-.2.15.08.21.29.13.48-.08.19-.26.28-.41.2-.15-.08-.21-.29-.13-.48ZM32.83,49.74s.1-.01.14,0c-.09-.1-.12-.27-.05-.43.08-.19.25-.28.39-.21s.19.29.12.48c-.07.17-.22.26-.35.23.03.03.06.08.07.13.04.15-.05.3-.19.35-.14.04-.28-.04-.32-.19-.04-.15.05-.3.19-.35ZM33.46,51.35c-.17.05-.34-.06-.39-.25,0-.02,0-.05-.01-.07-.07.06-.16.08-.24.04-.12-.06-.17-.25-.11-.4.06-.16.22-.24.34-.17.08.04.13.13.13.23.03-.03.07-.05.1-.06.17-.05.34.06.39.25.05.19-.05.39-.22.44ZM38.63,47.65c.04-.1.14-.14.23-.1s.13.16.09.26c-.04.1-.14.14-.23.1-.09-.04-.13-.16-.09-.26ZM38.55,48.43c.11-.13.27-.15.37-.04.1.11.09.29-.01.42-.11.13-.27.15-.37.04-.1-.11-.09-.29.01-.42ZM38.18,49.08c.03-.08.12-.11.2-.07.08.04.12.14.09.22-.03.08-.12.11-.2.07-.08-.04-.12-.14-.09-.22ZM36.79,47.3c.11-.03.22.02.29.13,0-.05.03-.09.06-.12.03-.04.07-.07.12-.08,0-.01-.01-.02-.02-.03-.04-.09.01-.2.11-.25.1-.05.2-.02.24.07.03.09-.01.2-.1.25.03.02.06.04.09.07.13.14.16.36.05.49-.11.13-.3.12-.43-.03-.01-.01-.02-.02-.03-.04-.02.13-.09.24-.19.27-.15.05-.31-.08-.36-.28-.05-.2.03-.4.18-.45ZM35.52,48.49c.09-.1.23-.11.32-.01.06.06.08.14.07.22.18,0,.34.13.39.33.03.1.02.21-.02.31.12.08.16.28.09.46-.08.19-.25.28-.39.21-.12-.06-.18-.23-.14-.39-.16-.02-.3-.15-.35-.33-.03-.14,0-.29.07-.4-.01,0-.03-.02-.04-.03-.09-.1-.1-.26,0-.36ZM34.86,47.37c.12-.04.25.04.28.18.03.14-.04.28-.16.32-.12.04-.25-.04-.28-.18-.03-.14.04-.28.16-.32ZM34.45,48.1c.05-.13.19-.19.3-.13s.16.21.11.34c-.05.13-.19.19-.3.13s-.16-.21-.11-.34ZM34.07,50.62c-.13-.14-.15-.37-.04-.5.02-.03.05-.05.07-.06,0-.05.01-.1.03-.15.02-.06.05-.1.09-.14,0,0,0-.02,0-.03-.05-.2.03-.4.18-.45.15-.05.31.08.36.28.02.06.02.13,0,.18.15.13.21.36.13.55-.06.16-.2.25-.34.26-.01.03-.03.05-.04.07-.11.14-.31.13-.45-.01ZM35.15,51.15c-.13.04-.27-.06-.31-.23-.04-.17.03-.34.16-.38s.27.06.31.23c.04.17-.03.34-.16.38ZM35.92,51.59c-.06.14-.22.19-.36.12-.14-.07-.21-.25-.15-.38.06-.14.22-.19.36-.12s.21.25.15.38ZM36.63,51.34c-.14.04-.29-.07-.33-.25,0-.03-.01-.06-.01-.09-.08,0-.16-.04-.23-.11-.13-.14-.16-.36-.05-.49.11-.13.3-.12.43.03.07.07.11.17.12.26.11.01.21.11.25.25.04.18-.03.36-.17.4ZM37.11,50.32c.07-.02.13.03.16.12.02.08-.02.17-.08.19-.07.02-.13-.03-.16-.12-.02-.08.02-.17.08-.19ZM37.5,51.55c-.09.11-.26.1-.37-.02-.11-.12-.13-.31-.04-.42.09-.11.26-.1.37.02.11.12.13.31.04.42ZM37.57,49.66s-.03.05-.05.07c-.16.19-.42.21-.58.03-.16-.17-.16-.45-.02-.64-.1.06-.23.07-.35,0-.2-.1-.3-.36-.21-.58.09-.22.32-.31.52-.21.2.1.3.36.21.58-.01.03-.03.06-.05.09.15-.09.34-.08.47.06,0,0,0,.01.01.02.13-.02.25.06.28.19.02.1,0,.2-.08.27,0,0,.01,0,.02,0,.07.04.1.13.07.21-.03.08-.11.12-.18.08-.07-.03-.1-.12-.08-.19ZM38.85,50.85c-.08.1-.23.11-.34.03.03.1.03.2,0,.3-.08.21-.31.3-.52.19-.09-.04-.16-.12-.2-.2-.06-.03-.11-.09-.13-.17-.03-.14.04-.28.16-.32.01,0,.03,0,.04,0,.11-.11.28-.14.43-.06.03.01.05.03.08.05-.02-.1,0-.2.05-.28.1-.12.28-.11.4.01.12.13.14.33.04.45ZM39,49.91c-.05.06-.13.05-.19,0-.06-.06-.06-.15-.02-.21.05-.06.13-.05.19,0,.06.06.06.15.02.21ZM39.02,46.48c-.04.09-.11.14-.16.11-.05-.03-.07-.12-.03-.21.04-.09.11-.14.16-.11.05.03.07.12.03.21ZM39.23,45.17c-.04.1-.15.14-.25.09-.1-.05-.14-.17-.1-.27.04-.1.15-.14.25-.09s.14.17.1.27ZM56.97,45.54c.11-.03.22.02.29.13,0-.05.03-.09.06-.12.11-.13.3-.12.43.03.13.14.16.36.05.49-.11.13-.3.12-.43-.03-.01-.01-.02-.02-.03-.04-.02.13-.09.24-.19.27-.15.05-.31-.08-.36-.28s.03-.4.18-.45ZM56.99,49.18c.04.18-.03.36-.17.4-.14.04-.29-.07-.33-.25,0-.03-.01-.06-.01-.09-.08,0-.16-.04-.23-.11-.13-.14-.16-.36-.05-.49.11-.13.3-.12.43.03.07.07.11.17.12.26.11.01.21.11.25.25ZM55.88,50.98c-.13-.14-.13-.36-.01-.5.12-.14.32-.15.44-.02.13.14.13.36.01.5-.12.14-.32.15-.44.02ZM56.18,52.87c-.07.02-.15-.03-.17-.11-.02-.08.02-.17.1-.2.07-.02.15.03.17.11.02.08-.02.17-.1.2ZM55.7,46.74c.09-.1.23-.11.32-.01.06.06.08.14.07.22.18,0,.34.13.39.33.03.1.02.21-.02.31.12.08.16.28.09.46-.08.19-.25.28-.39.21-.12-.06-.18-.23-.14-.39-.16-.02-.3-.15-.35-.33-.03-.14,0-.29.07-.4-.01,0-.03-.02-.04-.03-.09-.1-.1-.26,0-.36ZM55.59,49.57c.06-.14.22-.19.36-.12.14.07.21.25.15.38-.06.14-.22.19-.36.12-.14-.07-.21-.25-.15-.38ZM55.49,49.01c.04.17-.03.34-.16.38-.13.04-.27-.06-.31-.23-.04-.17.03-.34.16-.38.13-.04.27.06.31.23ZM55.04,45.61c.12-.04.25.04.28.18.03.14-.04.28-.16.32-.12.04-.25-.04-.28-.18-.03-.14.04-.28.16-.32ZM54.63,46.34c.05-.13.19-.19.3-.13.11.06.16.21.11.34-.05.13-.19.19-.3.13-.11-.06-.16-.21-.11-.34ZM54.21,48.36s.05-.05.07-.06c0-.05.01-.1.03-.15.02-.06.05-.1.09-.14,0,0,0-.02,0-.03-.05-.2.03-.4.18-.45.15-.05.31.08.36.28.02.06.02.13,0,.18.15.13.21.36.13.55-.06.16-.2.25-.34.26-.01.03-.03.05-.04.07-.11.14-.31.13-.45-.01-.13-.14-.15-.37-.04-.5ZM53.95,49.96c-.07-.08-.07-.2,0-.28.07-.08.18-.08.25,0,.06.07.07.17.03.25.02,0,.04.01.05.02.13.07.18.26.11.43-.07.17-.23.25-.36.18-.13-.07-.18-.26-.11-.43.02-.05.05-.09.08-.13-.02,0-.03-.02-.04-.03ZM53.61,47.82c-.07.17-.22.26-.35.23.03.03.06.08.07.13.04.15-.05.3-.19.35-.14.04-.28-.04-.32-.19-.04-.15.05-.3.19-.35.05-.02.1-.01.14,0-.09-.1-.12-.27-.05-.43.08-.19.25-.28.39-.21.14.07.19.29.12.48ZM53.4,46.4c.05.2-.04.4-.2.45-.16.05-.33-.07-.38-.27-.05-.2.04-.4.2-.45.16-.05.33.07.38.27ZM52.69,45.33c.08-.19.26-.28.41-.2.15.08.21.29.13.48-.08.19-.26.28-.41.2-.15-.08-.21-.29-.13-.48ZM52.75,49.8c.13.07.19.25.12.41-.06.16-.22.23-.36.16-.13-.07-.19-.25-.12-.41.06-.16.22-.23.36-.16ZM52.16,46.91c-.06.14-.21.2-.34.13-.13-.07-.19-.24-.14-.38.06-.14.21-.2.34-.13.13.07.19.24.14.38ZM51.68,45.35c.04-.1.14-.14.23-.1.09.05.13.16.09.26-.04.1-.14.14-.23.1-.09-.05-.13-.16-.09-.26ZM51.44,47.76c.07-.18.26-.26.42-.18.16.08.23.29.15.47-.07.18-.26.26-.42.18-.16-.08-.23-.29-.15-.47ZM49.96,45.98c.13-.32.45-.46.73-.32.27.14.39.52.26.83-.13.32-.45.46-.73.32-.27-.14-.39-.52-.26-.83ZM50.54,48.43c-.01.12-.12.21-.24.19-.12-.01-.22-.12-.21-.24.01-.12.12-.21.24-.19.12.01.22.12.21.24ZM49.98,48.9c.07-.02.15.01.19.09,0-.01,0-.03.01-.04.06-.16.23-.23.37-.16.14.07.2.26.14.42-.06.16-.23.23-.37.16-.06-.03-.11-.08-.13-.15-.02.05-.06.09-.1.1-.09.03-.19-.04-.22-.16-.03-.12.02-.23.12-.26ZM49.45,46.36c.01-.12.1-.21.19-.2.1.01.17.12.16.24-.01.12-.1.21-.19.2-.1-.01-.17-.12-.16-.24ZM48.96,45.13c.04-.11.15-.16.24-.12.09.05.12.17.08.28-.04.11-.15.16-.24.12-.09-.05-.12-.17-.08-.28ZM48.67,47.56c.08-.21.31-.3.5-.2s.28.35.2.56c-.08.21-.31.3-.5.2-.19-.1-.28-.35-.2-.56ZM48.62,48.28c0-.09.05-.15.1-.15.05,0,.08.08.07.17,0,.09-.05.15-.1.15-.05,0-.08-.08-.07-.17ZM48.05,46.62c.04-.09.13-.13.21-.09.03.01.05.04.06.06.03-.04.08-.06.15-.05.09,0,.15.07.15.14,0,.07-.08.11-.17.1-.04,0-.08-.02-.1-.04,0,.01,0,.02-.01.03-.04.09-.13.13-.21.09-.08-.04-.11-.15-.08-.24ZM47.83,48.73c.07-.03.16,0,.21.09.06.1.04.23-.03.29-.06.05-.14.04-.21-.01,0,.01,0,.03,0,.04-.01.17-.15.3-.31.29-.15-.02-.27-.17-.25-.35.01-.12.08-.22.18-.27-.04-.06-.05-.14-.03-.21.04-.11.17-.15.29-.09.09.04.14.13.14.22ZM47.29,45.09c.06-.07.17-.05.25.04.07.09.08.21.01.28-.06.07-.17.05-.25-.04-.07-.09-.08-.21-.01-.28ZM47.16,47.12s.04-.02.06-.03c-.05-.04-.07-.11-.07-.18,0-.11.09-.19.19-.18.1.01.17.11.16.22,0,.09-.07.16-.15.18.01.01.02.02.03.04.05.08.03.19-.04.25-.07.06-.17.04-.22-.05-.05-.08-.03-.19.04-.25ZM47,47.92c0-.1.07-.17.14-.16.07,0,.11.09.11.19,0,.1-.07.17-.14.16-.07,0-.11-.09-.11-.19ZM46.35,47.3c.12.19.07.45-.11.59-.17.14-.41.09-.53-.09-.12-.19-.07-.45.11-.59.17-.14.41-.09.53.09ZM46.36,48.78c0,.11-.09.19-.17.18-.09,0-.15-.11-.14-.21,0-.11.09-.19.17-.18.09,0,.15.11.14.21ZM45.86,46.87c0-.1.08-.17.15-.16.08,0,.13.09.12.19,0,.1-.08.17-.15.16-.08,0-.13-.09-.12-.19ZM45.46,45c.02-.25.21-.44.42-.41.21.02.37.25.34.5-.01.17-.1.31-.23.37.08-.03.17,0,.22.07.06.1.03.25-.08.33-.1.08-.24.07-.3-.03-.06-.1-.03-.25.08-.33.01,0,.02-.01.03-.02-.05.02-.1.02-.15.02-.21-.02-.37-.25-.34-.5ZM45.35,46.24c.08,0,.13.09.13.17,0,.09-.08.15-.15.14-.08,0-.13-.09-.13-.17,0-.09.08-.15.15-.14ZM44.91,48.94c.01-.17.14-.3.29-.29.14.02.25.17.23.34-.01.17-.14.3-.29.29-.14-.02-.25-.17-.23-.34ZM44.65,46.63s.11,0,.15.07c.04.07.05.16,0,.19-.04.03-.11,0-.15-.07-.04-.07-.05-.16,0-.19ZM44.36,47.73c-.2-.02-.35-.24-.33-.49.02-.25.2-.44.4-.41.2.02.35.24.33.49-.02.25-.2.44-.4.41ZM44.46,48.52c-.13.1-.3.06-.39-.08-.09-.14-.06-.34.07-.44.13-.1.3-.06.39.08.09.14.06.34-.07.44ZM44.24,44.45c.08-.06.19-.03.25.07.06.1.04.23-.03.29-.08.06-.19.03-.25-.07s-.04-.23.03-.29ZM43.88,46.58c.04-.1.15-.14.25-.09.1.05.14.17.1.27-.04.1-.15.14-.25.09s-.14-.17-.1-.27ZM43.95,49.41c0,.06-.02.11-.04.15.02,0,.03,0,.05.01.09.04.13.16.09.26s-.14.14-.23.1c-.08-.04-.12-.13-.1-.22-.02,0-.04,0-.06,0-.14-.02-.25-.18-.23-.36.02-.19.15-.32.29-.31.14.02.25.18.23.36ZM43.56,45.6c.07-.06.16-.06.19,0,.03.05,0,.14-.07.2-.07.06-.16.06-.19,0-.03-.05,0-.14.07-.2ZM43.06,46.63c.05.09.03.21-.04.28-.08.06-.19.04-.24-.05-.05-.09-.03-.21.04-.28.08-.06.19-.04.24.05ZM42.6,45.56c.04-.09.13-.13.21-.09.08.04.11.15.08.24-.04.09-.13.13-.21.09-.08-.04-.11-.15-.08-.24ZM42.45,48.67c.12.01.22.14.2.28-.01.14-.12.25-.25.23s-.22-.14-.2-.28c.01-.14.12-.25.25-.23ZM41.84,45.36c.01-.1.11-.16.21-.15.11.02.18.11.17.2-.01.1-.11.16-.21.15-.11-.02-.18-.11-.17-.2ZM41.49,46.41c.09-.22.31-.32.49-.23.19.09.26.35.18.57-.09.22-.31.32-.49.23-.19-.09-.26-.35-.18-.57ZM41.96,47.82c-.06.05-.16.02-.2-.06-.05-.08-.04-.19.03-.24.06-.05.16-.02.2.06.05.08.04.19-.03.24ZM41.42,49.51c.07-.18.26-.26.42-.18.16.08.23.29.16.47-.07.18-.26.26-.42.18-.16-.08-.23-.29-.16-.47ZM40.64,48.76c.17-.13.4-.07.53.14.13.21.09.48-.07.61-.17.13-.4.07-.53-.14s-.09-.48.07-.61ZM40.41,48.08c.06-.16.23-.23.37-.16s.2.26.14.42c-.06.16-.23.23-.37.16-.14-.07-.2-.26-.14-.42ZM41.2,47.7c.04.07.03.17-.04.22-.06.05-.15.03-.19-.04-.04-.07-.03-.17.04-.22.06-.05.15-.03.19.04ZM40.79,44.9c.05-.13.17-.2.27-.15.1.05.13.19.08.32-.05.13-.17.2-.27.15-.1-.05-.13-.19-.08-.32ZM40.23,46.62s.07-.06.13-.04c-.09-.2-.05-.45.11-.57.17-.14.42-.08.54.13.13.21.09.49-.09.62-.14.11-.31.1-.44-.01,0,0,0,0,0,0-.02.05-.09.06-.16.03s-.11-.11-.09-.16ZM39.41,48.2c.03-.07.11-.09.19-.05.08.04.12.13.09.2-.03.07-.11.09-.19.05-.08-.04-.12-.13-.09-.2ZM39.56,49.59c.06-.07.15-.1.23-.07,0-.02,0-.05.01-.07.04-.09.14-.13.22-.08s.13.15.1.24c-.03.07-.1.11-.17.1.02.08,0,.17-.06.24-.09.1-.23.11-.32.01-.09-.1-.1-.26,0-.36ZM40.06,50.83c-.06.15-.22.21-.36.14-.14-.07-.21-.25-.15-.4.02-.05.05-.09.1-.12-.01-.1.03-.2.1-.26.11-.09.26-.06.34.07.07.11.05.26-.03.35.02.07.03.15,0,.22ZM40.43,52.06c-.1.08-.24.05-.32-.07-.07-.12-.05-.28.06-.36.1-.08.24-.05.32.07.07.12.05.28-.06.36ZM40.64,51.5c-.07-.04-.13-.1-.16-.18-.08.03-.18.01-.24-.06-.1-.11-.1-.28-.01-.39.09-.11.25-.12.35-.01.03.03.05.07.06.12.06-.02.13-.01.2.02.14.07.21.24.16.38-.06.14-.21.2-.36.12ZM41.2,52.13c-.06.04-.14.02-.18-.05-.04-.07-.03-.17.02-.21.06-.04.14-.02.18.05.04.07.03.17-.02.21ZM42.22,51.65c-.06.16-.25.22-.42.14-.09-.04-.15-.12-.18-.2-.11.03-.23-.02-.31-.15-.09-.15-.07-.35.05-.45.12-.09.29-.04.38.11.02.03.03.05.04.08.08-.03.17-.02.25.02.17.09.25.28.19.44ZM42.52,50.55c-.01.15-.15.26-.3.25-.15-.02-.27-.15-.25-.31.01-.15.15-.26.3-.25.15.02.27.15.25.31ZM42.59,50.14s0,0-.01,0c-.12.09-.29.05-.37-.09-.09-.14-.06-.34.06-.43.09-.07.22-.06.31.01.07-.05.16-.07.23-.03.02,0,.03.02.04.03,0-.09.07-.15.13-.14.07,0,.12.08.11.17,0,.09-.07.15-.14.14,0,0-.01,0-.02,0,.01.06,0,.12-.02.19-.06.15-.21.22-.33.16ZM43.13,51.15c-.11.09-.27.04-.36-.1-.09-.14-.07-.33.04-.42.11-.09.27-.04.36.1.09.14.07.33-.04.42ZM43.2,49.12c-.07.06-.17.03-.23-.06-.05-.09-.04-.21.03-.26,0,0,.01,0,.02,0-.02,0-.05-.02-.07-.03-.28-.14-.41-.51-.29-.82.03-.07.07-.14.12-.19-.07-.06-.11-.15-.1-.25.01-.15.13-.26.27-.25.13.01.23.15.22.3,0,0,0,.02,0,.03,0,0,.02,0,.03,0,0-.03.02-.06.04-.08.06-.04.14-.01.19.07.02.03.03.07.03.1.23.16.33.5.22.78-.09.22-.28.35-.49.36.01.01.03.03.04.04.05.09.04.21-.03.26ZM44.17,51.19s-.03.06-.05.09c.01.05.02.1.01.16,0,.06-.02.12-.05.17,0,0,.01.02.02.02.1.17.09.39-.04.49-.13.1-.31.04-.42-.13-.03-.05-.05-.11-.06-.17-.18-.07-.3-.26-.28-.48.01-.17.11-.31.25-.37,0-.03,0-.06.02-.09.07-.17.26-.24.42-.15.17.09.25.29.18.46ZM44.71,50.39c-.14.11-.34.07-.44-.09-.1-.16-.06-.38.08-.5.14-.11.34-.07.44.09.01.02.02.04.03.06.05-.08.13-.13.22-.12.13.01.23.17.22.34-.01.17-.14.3-.27.29-.09,0-.16-.08-.19-.17-.02.04-.05.07-.08.09ZM45.15,51.88c-.15-.02-.26-.2-.25-.41.02-.19.13-.33.26-.34-.04-.02-.08-.05-.1-.09-.08-.13-.04-.3.08-.4.12-.09.28-.07.35.06.08.13.04.3-.08.4-.04.03-.09.05-.13.05.12.06.19.21.18.38-.02.21-.16.36-.31.34ZM45.94,52.86c-.14.11-.33.05-.43-.12-.1-.17-.08-.4.06-.5.14-.11.33-.05.43.12.1.17.08.4-.06.5ZM46,50.06c-.18-.29-.12-.68.13-.87.25-.19.59-.12.76.17.18.29.12.68-.13.87s-.59.12-.76-.17ZM46.97,50.72c-.02.2-.17.34-.34.32-.17-.02-.3-.19-.28-.39.02-.2.17-.34.34-.32.17.02.3.19.28.39ZM46.45,51.64c-.08.06-.19.04-.24-.05-.05-.09-.03-.21.04-.28.08-.06.19-.04.24.05.05.09.03.21-.04.28ZM47.04,51.85c-.01.15-.14.26-.28.25s-.25-.15-.24-.31c.01-.15.14-.26.28-.25.14.02.25.15.24.31ZM47.24,53.27c-.1-.01-.17-.11-.16-.22,0-.11.09-.19.19-.18s.17.11.16.22c0,.11-.09.19-.19.18ZM47.59,51.08c-.09-.05-.12-.17-.08-.28.04-.11.15-.16.24-.12.09.05.12.17.08.28-.04.11-.15.16-.24.12ZM48.87,51.85c-.03.35-.3.61-.59.57-.3-.03-.52-.34-.49-.69.03-.35.3-.61.59-.57.3.03.52.34.49.69ZM49,51.12c-.02.06-.11.07-.19.03-.08-.04-.12-.12-.1-.18.02-.06.11-.07.19-.03.08.04.12.12.1.18ZM49.51,52.96c-.08.04-.18-.02-.22-.13-.04-.11-.01-.23.07-.27.08-.04.18.02.22.13.04.11.01.23-.07.27ZM49.64,49.88c-.02.23-.21.4-.42.37-.21-.02-.37-.23-.35-.46,0-.11.06-.21.13-.27-.02-.04-.01-.09,0-.15.03-.08.09-.13.14-.1.04.02.05.09.03.16.04,0,.07,0,.11,0,.21.02.37.23.35.46ZM50.06,52.28c-.01.12-.1.21-.19.2-.1-.01-.17-.12-.16-.24.01-.12.1-.21.19-.2s.17.12.16.24ZM50.21,51.09s-.04,0-.06,0c.03.06.04.13.01.19-.04.1-.14.14-.23.1-.09-.05-.13-.16-.09-.26.03-.08.11-.13.19-.11,0-.01-.01-.03-.02-.04-.02-.1.03-.19.11-.22s.17.03.19.12c.02.1-.03.19-.11.22ZM50.32,50.7c-.09,0-.15-.1-.14-.2,0-.1.09-.17.17-.16,0,0,0,0,0,0,0-.02,0-.04.02-.06.04-.09.12-.14.18-.1.06.03.08.13.05.22-.02.06-.06.1-.1.11,0,0,0,.02,0,.03,0,.1-.09.17-.17.16ZM51.21,53.73c-.09.23-.32.33-.52.23-.19-.1-.27-.37-.18-.6.06-.15.19-.25.32-.27-.09,0-.16-.06-.18-.15-.03-.12.05-.24.17-.28.12-.04.24.03.27.14.03.12-.05.24-.17.28-.01,0-.02,0-.04,0,.05,0,.1.01.15.04.19.1.27.37.18.6ZM51.37,51.81c-.04.09-.12.13-.19.1-.07-.04-.1-.14-.06-.23.04-.09.12-.13.19-.1.07.04.1.14.06.23ZM51.03,51.22c-.05-.22.07-.45.27-.52.2-.06.41.06.47.28.05.22-.07.45-.27.52-.2.06-.41-.06-.47-.28ZM51.45,49.82c.04-.1.14-.15.22-.11.08.04.11.16.07.25-.04.1-.14.15-.22.11-.08-.04-.11-.16-.07-.25ZM51.86,52.52c-.03.08-.12.11-.19.08-.07-.04-.1-.13-.07-.21.03-.08.12-.11.19-.08.07.04.1.13.07.21ZM51.79,49.52c-.29.09-.59-.11-.67-.45-.08-.34.08-.69.37-.78.29-.09.59.11.67.45.08.34-.08.69-.37.78ZM52.07,47.33c-.03-.11.03-.21.12-.24.09-.03.19.03.22.14.03.11-.03.21-.12.24-.09.03-.19-.03-.22-.14ZM52.44,52.49s-.1-.04-.12-.13c-.02-.08,0-.16.05-.18.05-.01.1.04.12.13.02.08,0,.16-.05.18ZM52.53,51.8c.09-.23.32-.34.5-.24.18.1.26.36.17.59-.09.23-.32.34-.5.24-.18-.1-.26-.36-.17-.59ZM52.88,52.52c.07-.08.18-.08.26,0,.08.08.09.21.02.29-.07.08-.18.08-.26,0-.08-.08-.09-.21-.02-.29ZM53.18,53.86c-.08.03-.16,0-.18-.07-.02-.06.04-.14.12-.16s.16,0,.18.07c.02.06-.04.14-.12.16ZM53.32,51.39c-.15.05-.3-.05-.34-.22-.04-.17.05-.34.19-.39s.3.05.34.22c.04.17-.05.34-.19.39ZM53.25,49.35s0-.05-.01-.07c-.07.06-.16.08-.24.04-.12-.06-.17-.25-.11-.4.06-.16.22-.24.34-.17.08.04.13.13.13.23.03-.03.07-.05.11-.06.17-.05.34.06.39.25.05.19-.05.39-.22.44-.17.05-.34-.06-.39-.25ZM54.08,54.26c-.06.07-.16.08-.22,0-.06-.07-.07-.18,0-.25.06-.07.16-.08.22,0,.06.07.07.18,0,.25ZM54.16,53.22c-.09.03-.19-.03-.22-.14-.03-.11.03-.21.12-.24.09-.03.19.03.22.14.03.11-.03.21-.12.24ZM54.24,52.54c-.12-.06-.18-.23-.12-.37,0,0,0-.02.01-.02,0,0-.02,0-.03-.01-.01.03-.04.05-.06.06-.07.02-.14-.04-.16-.13,0-.04,0-.08,0-.11-.17-.24-.17-.59.01-.82.15-.18.37-.23.56-.16,0-.02-.02-.03-.02-.05-.03-.11.02-.21.1-.24.08-.03.17.04.2.14.03.11-.02.21-.1.24,0,0-.01,0-.02,0,.02.02.04.03.06.05.23.24.24.64.04.88-.05.06-.11.1-.17.14.05.08.06.18.02.27-.06.14-.2.2-.32.14ZM54.74,54.74c-.04.09-.15.12-.24.06s-.14-.17-.1-.26c.04-.09.15-.12.24-.06.1.05.14.17.1.26ZM55.36,53.87c-.15.18-.38.19-.53.03-.15-.16-.15-.43,0-.6s.38-.19.53-.03c.15.16.15.43,0,.6ZM55,51.03c.05-.13.19-.19.3-.13.11.06.16.21.11.34-.05.13-.19.19-.3.13-.11-.06-.16-.21-.11-.34ZM55.42,52.7c-.07.02-.15-.03-.18-.13-.02-.1.02-.19.09-.21.07-.02.15.03.18.13.02.1-.02.19-.09.21ZM55.56,50.56c-.11.03-.22-.02-.29-.13-.08.02-.17,0-.23-.06-.01-.01-.02-.03-.03-.04-.03.08-.11.12-.17.08-.06-.03-.09-.12-.05-.2.03-.08.11-.12.17-.09,0,0,0,0,.01,0,0-.06.03-.12.07-.17.1-.12.26-.13.36-.03,0,0,0,0,0,.01.14-.04.29.06.33.23.04.17-.04.34-.18.39ZM56.62,54.14s-.08.03-.13-.01c.03.22-.08.44-.27.5-.2.06-.42-.08-.48-.32-.06-.24.06-.49.26-.56.16-.05.32.03.42.18,0,0,0,0,0,0,.03-.04.11-.02.16.04.06.06.08.14.04.18ZM56.87,52.69c-.11.13-.28.13-.4.01-.11-.12-.12-.32-.01-.45.11-.13.28-.13.4-.01.11.12.12.32.01.45ZM56.85,51.96c-.2.06-.4-.09-.46-.33s.05-.49.25-.55c.2-.06.4.09.46.33s-.05.49-.25.55ZM57.12,47.35c.16-.19.42-.21.58-.03,0,0,0,.01.01.02.13-.02.25.06.28.19.04.15-.06.31-.2.35-.01,0-.02,0-.03,0-.02.03-.04.06-.06.09-.16.19-.42.21-.58.03-.16-.17-.16-.47,0-.66ZM57.29,48.57c.07-.02.13.03.16.12.02.08-.02.17-.08.19-.07.02-.13-.03-.16-.12-.02-.08.02-.17.08-.19ZM57.31,49.78c-.11-.12-.13-.31-.04-.42.09-.11.26-.1.37.02.11.12.13.31.04.42-.09.11-.26.1-.37-.02ZM57.58,51.36c.06-.07.16-.07.24,0,.07.08.08.19.02.27-.06.07-.16.07-.24,0-.07-.08-.08-.19-.02-.27ZM57.62,52.71c.05-.06.14-.05.2.02.06.07.08.17.03.22-.05.06-.14.05-.2-.02-.06-.07-.08-.17-.03-.22ZM57.88,54.89c-.06.07-.14.09-.18.05-.04-.05-.03-.14.03-.21.06-.07.14-.09.18-.05s.03.14-.03.21ZM58.43,53.76c-.07.08-.18.08-.25,0-.07-.08-.07-.2,0-.28.07-.08.18-.08.25,0,.07.08.07.2,0,.28ZM58.41,50.66s-.08.07-.13.08c-.02.1-.08.18-.17.21-.13.04-.27-.05-.3-.19-.03-.13.02-.26.13-.32,0-.08.02-.15.07-.21.1-.12.27-.12.38,0,.11.12.12.31.02.43ZM58.27,49.11c.03.14-.04.28-.16.32-.12.04-.25-.04-.28-.18-.03-.14.04-.28.16-.32.12-.04.25.04.28.18Z"/>
        <path class="cls-1" d="M1.21,40.46s-.03-.02-.04-.03v.07s.02-.03.04-.04Z"/>
        <path class="cls-3" d="M9.47,43.83c-.29.09-.46.44-.37.78.08.34.38.54.67.45.29-.09.46-.44.37-.78-.08-.34-.38-.54-.67-.45Z"/>
        <path class="cls-3" d="M11.45,44.44s-.07.03-.1.06c0,.06,0,.12-.03.18-.02.06-.06.1-.1.14,0,.02,0,.05.01.07.05.19.22.3.39.25.17-.05.27-.25.22-.44-.05-.19-.22-.3-.39-.25Z"/>
        <path class="cls-3" d="M11.13,43.52s-.09-.01-.14,0c-.14.04-.22.2-.19.35.04.15.18.23.32.19.14-.04.22-.2.19-.35-.01-.05-.04-.09-.07-.13-.01,0-.03,0-.04-.02-.02-.01-.04-.03-.06-.05Z"/>
        <path class="cls-3" d="M11,41.66c-.16.05-.25.25-.2.45.05.2.22.32.38.27.16-.05.25-.25.2-.45-.05-.2-.22-.32-.38-.27Z"/>
        <path class="cls-3" d="M12.84,43.46s.06.04.08.06c0-.06,0-.12,0-.18-.05-.2-.21-.33-.36-.28-.15.05-.23.25-.18.45,0,0,0,.02,0,.03.12-.12.3-.16.46-.07Z"/>
        <path class="cls-3" d="M11.14,46.31c-.15.05-.24.22-.19.39.04.17.2.27.34.22s.24-.22.19-.39c-.04-.17-.2-.27-.34-.22Z"/>
        <path class="cls-3" d="M13.39,45.48c.09.11.09.28,0,.4-.04.04-.08.07-.13.09.06.11.18.16.29.13.14-.04.22-.22.18-.39-.04-.17-.19-.27-.33-.23Z"/>
        <path class="cls-3" d="M14.65,44.69c-.05.06-.13.09-.2.09,0,.03,0,.06.01.09.04.18.19.29.33.25.14-.04.22-.23.17-.4-.04-.14-.14-.24-.25-.25,0,.09-.01.17-.07.23Z"/>
        <path class="cls-3" d="M13.16,44.31c-.13.04-.2.21-.16.38.04.17.18.27.31.23.13-.04.2-.21.16-.38-.04-.17-.18-.27-.31-.23Z"/>
        <path class="cls-3" d="M11.85,47.48s0,.07,0,.11c.02.1.09.16.16.13.03,0,.05-.03.06-.06-.06-.03-.12-.07-.17-.13-.02-.02-.04-.04-.05-.06Z"/>
        <path class="cls-3" d="M9.27,46.24c-.2.06-.33.3-.27.52.05.22.26.35.47.28s.33-.3.27-.52c-.05-.22-.26-.35-.47-.28Z"/>
        <path class="cls-3" d="M14.61,46.62c-.2.06-.31.31-.25.55s.27.39.46.33c.2-.06.31-.31.25-.55-.06-.24-.27-.39-.46-.33Z"/>
        <path class="cls-3" d="M13.73,42.67c-.08.11-.11.26-.07.4.04.18.18.31.35.33,0-.03.01-.05.02-.08.08-.19.25-.28.39-.21,0,0,.02,0,.02.01.04-.09.05-.2.02-.31-.05-.2-.21-.33-.39-.33,0,.05-.03.1-.06.14-.07.09-.19.11-.28.04Z"/>
        <path class="cls-3" d="M13.14,41.64c.12-.04.19-.18.16-.32-.03-.14-.16-.22-.28-.18-.12.04-.19.18-.16.32.03.14.16.22.28.18Z"/>
        <path class="cls-3" d="M15.12,41.8c.1-.03.17-.14.19-.27-.07-.1-.1-.22-.08-.33-.07-.11-.18-.16-.29-.13-.15.05-.23.25-.18.45.05.2.21.33.36.28Z"/>
        <path class="cls-3" d="M15.74,43.42s.02,0,.03,0c.15-.05.24-.2.2-.35-.03-.13-.15-.21-.28-.19.12.15.14.37.05.55Z"/>
        <path class="cls-3" d="M15.81,44.78c.03.14.16.22.28.18.12-.04.19-.18.16-.32-.03-.14-.16-.22-.28-.18-.12.04-.19.18-.16.32Z"/>
        <path class="cls-3" d="M16,46.19c-.06-.06-.09-.14-.09-.22-.1.06-.16.19-.13.32.04.15.17.23.3.19.09-.03.15-.11.17-.21-.09.02-.18,0-.26-.08Z"/>
        <path class="cls-3" d="M13.31,47.89s-.05.03-.07.06l.24.04c-.03-.08-.1-.12-.17-.1Z"/>
        <path class="cls-3" d="M12.61,46.59c.08-.03.13-.13.1-.24-.03-.11-.11-.17-.2-.14s-.13.13-.1.24c0,.02.01.04.02.05.06.02.11.05.16.09,0,0,.01,0,.02,0Z"/>
        <path class="cls-3" d="M10.38,42.76c-.03-.11-.12-.17-.22-.14-.09.03-.15.14-.12.24.03.11.12.17.22.14.09-.03.15-.14.12-.24Z"/>
        <path class="cls-3" d="M8.1,46.28c-.08.03-.13.12-.11.22,0,.02.01.03.02.04.01,0,.03,0,.04.01.03.02.05.04.07.07.02,0,.04,0,.06,0,.08-.03.13-.12.11-.22-.02-.1-.11-.15-.19-.12Z"/>
        <path class="cls-3" d="M8.15,44.51c-.04-.07-.12-.11-.19-.09-.09.03-.15.15-.12.26.03.12.13.19.22.16.05-.01.08-.05.1-.1-.03-.07-.04-.15-.02-.23Z"/>
        <path class="cls-3" d="M14.1,48.1l.09.02s-.06-.02-.09-.02Z"/>
        <path class="cls-3" d="M15.34,44.41c.07-.02.1-.11.08-.19-.02-.08-.09-.14-.16-.12-.07.02-.1.11-.08.19.02.08.09.14.16.12Z"/>
        <path class="cls-3" d="M12.42,47.56s.08.06.1.1c.06-.03.12-.08.17-.14.21-.25.19-.64-.04-.88-.02-.02-.04-.04-.06-.05-.05-.04-.1-.07-.16-.09-.2-.07-.42-.02-.56.16-.19.23-.19.58-.01.82.02.02.03.04.05.06.05.06.11.1.17.13,0,0,.02,0,.03.01.06-.12.2-.17.31-.11Z"/>
        <path class="cls-3" d="M14.29,46c-.13-.14-.33-.13-.44.02-.12.14-.11.37.01.5.13.14.33.13.44-.02.12-.14.11-.37-.01-.5Z"/>
        <path class="cls-3" d="M13.39,45.48s0,0,0-.01c-.1-.11-.26-.09-.36.03-.04.05-.06.11-.07.17.05.04.07.12.04.19,0,0,0,0,0,0,0,.01.02.03.03.04.06.07.15.09.23.06.05-.01.09-.04.13-.09.1-.12.1-.29,0-.4Z"/>
        <path class="cls-3" d="M12.51,44.29c-.17-.09-.26-.27-.25-.46-.03.02-.05.04-.07.06-.11.14-.1.36.04.5.13.14.33.15.45.01.02-.02.03-.05.04-.07-.07,0-.14,0-.21-.04Z"/>
        <path class="cls-3" d="M14.16,44.18c-.11.13-.08.35.05.49.07.07.15.11.23.11.08,0,.15-.02.2-.09.05-.06.07-.15.07-.23,0-.09-.05-.18-.12-.26-.13-.14-.33-.15-.43-.03Z"/>
        <path class="cls-3" d="M14.89,48.13c.05-.12.03-.26-.06-.36-.11-.12-.29-.11-.4.01-.08.1-.1.24-.05.36h0c.13-.13.34-.14.49-.01Z"/>
        <path class="cls-3" d="M15.97,45.76c-.05.06-.07.13-.07.21,0,.08.03.16.09.22.07.08.17.1.26.08.05-.01.09-.04.13-.08.1-.12.09-.31-.02-.43-.11-.12-.28-.12-.38,0Z"/>
        <path class="cls-3" d="M17.01,44.62c.1-.12.08-.32-.04-.45-.12-.13-.3-.13-.4-.01-.1.12-.08.32.04.45.12.13.3.13.4.01Z"/>
        <path class="cls-3" d="M15.65,45.33c.09-.11.08-.3-.04-.42-.11-.12-.28-.13-.37-.02-.09.11-.08.3.04.42.11.12.28.13.37.02Z"/>
        <path class="cls-3" d="M15.6,48.24s-.03.07-.03.11l.28.05s-.02-.1-.06-.14c-.06-.07-.15-.08-.2-.02Z"/>
        <path class="cls-3" d="M17.54,46.01c-.14.17-.12.44.04.62.16.17.41.18.54,0,.14-.17.12-.44-.04-.62-.16-.17-.41-.18-.54,0Z"/>
        <path class="cls-3" d="M15.68,43.51s.04-.06.06-.09c.09-.18.08-.4-.05-.55,0,0,0-.01-.01-.02-.16-.17-.42-.16-.58.03-.16.19-.16.49,0,.66.16.17.42.16.58-.03Z"/>
        <path class="cls-3" d="M13.73,42.67c.09.06.21.05.28-.04.03-.04.05-.09.06-.14,0-.08-.01-.16-.07-.22-.09-.1-.24-.09-.32.01-.09.1-.08.27,0,.36.01.01.02.02.04.03Z"/>
        <path class="cls-3" d="M15.31,41.53s.02.03.03.04c.13.14.33.15.43.03.11-.13.08-.35-.05-.49-.13-.14-.33-.15-.43-.03-.03.04-.05.08-.06.12-.02.11,0,.23.08.33Z"/>
        <path class="cls-3" d="M17.06,42.59c.11-.13.11-.32.01-.42-.1-.11-.26-.09-.37.04-.11.13-.11.32-.01.42.1.11.26.09.37-.04Z"/>
        <path class="cls-3" d="M18.05,43.72c.09-.1.08-.27,0-.36-.09-.1-.24-.09-.32.01-.09.1-.08.27,0,.36.09.1.24.09.32-.01Z"/>
        <path class="cls-3" d="M18.74,45.03c.09-.11.09-.29-.01-.39-.1-.11-.25-.1-.35.01-.09.11-.09.29.01.39s.25.1.35-.01Z"/>
        <path class="cls-3" d="M17.01,47.87s0,.01-.01.02c.05.06.06.15.03.22,0,0,0,0,0,0,.06.07.16.07.21,0,.05-.06.04-.17-.02-.24-.06-.07-.16-.07-.21,0Z"/>
        <path class="cls-3" d="M15.56,46.89s0,.01-.01.02c.02-.01.04-.02.06-.02.1-.02.2.03.22.13.01.08-.03.16-.11.2.04,0,.07-.02.09-.05.06-.07.05-.19-.02-.27-.07-.08-.18-.08-.24,0Z"/>
        <path class="cls-3" d="M12.19,45.45c.04-.08.03-.18-.03-.25-.07-.08-.18-.07-.25,0-.07.08-.06.21,0,.28.01.01.03.02.04.03.06-.06.15-.09.23-.08Z"/>
        <path class="cls-3" d="M18.89,48.91h0s0-.05-.02-.07c0,.02,0,.05.01.07Z"/>
        <path class="cls-3" d="M18.78,48.68s.04.04.06.07c-.02-.03-.04-.06-.06-.09-.16-.17-.41-.17-.56,0-.03.04-.05.08-.07.12l.21.04s.02-.05.04-.08c.09-.14.27-.17.39-.07Z"/>
        <path class="cls-3" d="M17.77,47.59c-.05.06-.05.16,0,.22.06.06.14.06.2,0,.05-.06.05-.16,0-.22-.06-.06-.14-.06-.2,0Z"/>
        <path class="cls-3" d="M16.95,43.48c-.05.06-.04.15.02.21.06.06.14.06.19,0,.05-.06.04-.15-.02-.21-.06-.06-.14-.06-.19,0Z"/>
        <path class="cls-3" d="M8.66,41.2c-.27-.14-.6,0-.73.32-.13.32-.01.69.26.83.27.14.6,0,.73-.32.13-.32.01-.69-.26-.83Z"/>
        <path class="cls-3" d="M9.57,43.76c.16.08.34,0,.42-.18.07-.18,0-.39-.15-.47-.16-.08-.34,0-.42.18-.07.18,0,.39.15.47Z"/>
        <path class="cls-3" d="M9.66,42.2c-.06.14,0,.31.14.38.13.07.28.01.34-.13.06-.14,0-.31-.14-.38-.13-.07-.28-.01-.34.13Z"/>
        <path class="cls-3" d="M10.8,41.35c.15.08.33-.01.41-.2.08-.19.02-.41-.13-.48-.15-.08-.33.01-.41.2-.08.19-.02.41.13.48Z"/>
        <path class="cls-3" d="M11.07,43.09c-.06.16-.04.33.05.43.02.02.04.03.06.05.01,0,.03.01.04.02.13.04.28-.06.35-.23.08-.19.02-.4-.12-.48-.14-.07-.32.02-.39.21Z"/>
        <path class="cls-3" d="M8.54,44.32c-.14-.07-.31,0-.37.16,0,.01,0,.03-.01.04-.02.08-.01.16.02.23.03.06.07.12.13.15.14.07.31,0,.37-.16.06-.16,0-.35-.14-.42Z"/>
        <path class="cls-3" d="M10.72,45.33c-.13-.07-.29,0-.36.16-.06.16-.01.34.12.41.13.07.29,0,.36-.16.06-.16.01-.34-.12-.41Z"/>
        <path class="cls-3" d="M12.25,45.47s-.04-.02-.05-.02c-.08-.02-.16.01-.23.08-.03.03-.06.08-.08.13-.07.17-.02.36.11.43.13.07.29-.01.36-.18.07-.17.02-.36-.11-.43Z"/>
        <path class="cls-3" d="M11.32,44.68c.02-.06.03-.12.03-.18,0-.1-.05-.19-.13-.23-.12-.06-.27.01-.34.17s-.02.34.11.4c.08.04.17.02.24-.04.04-.03.07-.08.1-.14Z"/>
        <path class="cls-3" d="M6.88,46.47c-.08-.04-.16-.03-.19.03-.02.06.02.14.1.18.08.04.16.03.19-.03.02-.06-.02-.14-.1-.18Z"/>
        <path class="cls-3" d="M8.53,45.71c-.06-.03-.14.01-.18.1-.04.09-.02.19.05.22.06.03.14-.01.18-.1.04-.09.02-.19-.05-.22Z"/>
        <path class="cls-3" d="M7.15,42.9c-.19-.1-.42-.01-.5.2-.08.21,0,.46.2.56.19.1.42.01.5-.2.08-.21,0-.46-.2-.56Z"/>
        <path class="cls-3" d="M7.13,44.81s-.11.02-.14.1c-.03.08-.02.16.02.19.04.02.11-.02.14-.1.03-.08.02-.16-.02-.19Z"/>
        <path class="cls-3" d="M11.01,47.09c-.18-.1-.41.01-.5.24-.02.05-.03.1-.04.15l.73.12c.05-.21-.03-.43-.19-.51Z"/>
        <path class="cls-3" d="M13.06,44.08c.08-.2.02-.42-.13-.55-.03-.02-.05-.04-.08-.06-.16-.08-.34-.05-.46.07-.04.04-.07.09-.09.14-.02.05-.03.1-.03.15-.01.19.08.38.25.46.07.04.14.05.21.04.14-.01.28-.1.34-.26Z"/>
        <path class="cls-3" d="M12.71,42.22c.11.06.25,0,.3-.13.05-.13,0-.28-.11-.34-.11-.06-.25,0-.3.13-.05.13,0,.28.11.34Z"/>
        <path class="cls-3" d="M14.02,43.31s-.02.05-.02.08c-.04.17.02.33.14.39.14.07.32-.02.39-.21.07-.18.03-.38-.09-.46,0,0-.02,0-.02-.01-.14-.07-.32.02-.39.21Z"/>
        <path class="cls-3" d="M13.72,45.49c.14.07.3.02.36-.12.06-.14-.01-.31-.15-.38-.14-.07-.3-.02-.36.12s.01.31.15.38Z"/>
        <path class="cls-3" d="M13.27,46.44c-.11-.06-.25,0-.3.13-.05.13,0,.28.11.34.11.06.25,0,.3-.13.05-.13,0-.28-.11-.34Z"/>
        <path class="cls-3" d="M12.52,47.66s-.06-.08-.1-.1c-.12-.06-.25,0-.31.11,0,0,0,.01-.01.02,0,.02-.01.03-.02.05l.48.08c0-.06-.01-.12-.04-.17Z"/>
        <path class="cls-3" d="M9.29,47.11c-.07-.04-.16,0-.19.1,0,.01,0,.02-.01.04l.28.05c.01-.07-.02-.15-.07-.18Z"/>
        <path class="cls-3" d="M8.05,46.55s-.03-.01-.04-.01c-.08-.02-.16.03-.19.11-.04.1,0,.22.09.26.09.05.19,0,.23-.1.03-.06.02-.14-.01-.19-.02-.03-.04-.05-.07-.07Z"/>
        <path class="cls-3" d="M9.71,45.5c.04-.1,0-.21-.07-.25-.08-.04-.18,0-.22.11-.04.1,0,.21.07.25.08.04.18,0,.22-.11Z"/>
        <path class="cls-3" d="M9.74,41.15c.09.05.19,0,.23-.1.04-.1,0-.22-.09-.26-.09-.05-.19,0-.23.1-.04.1,0,.22.09.26Z"/>
        <path class="cls-3" d="M5.79,44.35c.04-.1,0-.22-.1-.29,0,.06,0,.12-.04.17-.07.08-.18.08-.25,0-.02-.02-.03-.04-.04-.06-.02.1.04.21.14.26.11.06.24.02.29-.09Z"/>
        <path class="cls-3" d="M6.31,42.31c.04-.09,0-.2-.08-.24-.08-.04-.17,0-.21.09-.04.09,0,.2.08.24.08.04.17,0,.21-.09Z"/>
        <path class="cls-3" d="M7.23,40.88s.02-.03.02-.04c.04-.11,0-.24-.08-.28-.09-.05-.19,0-.24.12-.02.06-.02.13,0,.18.09-.03.2-.02.3.03Z"/>
        <path class="cls-3" d="M5.73,46.22c-.09-.05-.19,0-.24.12-.04.11,0,.24.08.28.09.05.19,0,.24-.12.04-.11,0-.24-.08-.28Z"/>
        <path class="cls-3" d="M12.95,45.66s0,0-.01,0c-.06-.03-.14,0-.17.09-.03.08,0,.17.05.2.06.03.14,0,.17-.08,0,0,0,0,0,0,.03-.07.01-.16-.04-.19Z"/>
        <path class="cls-3" d="M22.11,47.13c-.02-.06-.1-.08-.19-.04-.08.04-.13.12-.11.18.02.06.1.08.19.04.08-.04.13-.12.11-.18Z"/>
        <path class="cls-3" d="M21.43,49.09s0-.07-.01-.11c-.03-.09-.11-.14-.17-.11-.03.01-.04.04-.06.06.06.02.13.05.18.1.02.02.04.04.06.06Z"/>
        <path class="cls-3" d="M24.34,49.42c-.08-.21-.3-.31-.5-.22-.19.09-.28.31-.23.52l.67.11c.08-.12.1-.27.05-.41Z"/>
        <path class="cls-3" d="M22.8,48.36s-.06.1-.03.18c.03.08.09.13.13.11.04-.02.06-.1.03-.18-.03-.08-.09-.13-.13-.11Z"/>
        <path class="cls-3" d="M19.83,48.54c-.07.03-.1.13-.07.23.03.09.12.14.19.11.07-.03.1-.13.07-.23-.03-.09-.12-.14-.19-.11Z"/>
        <path class="cls-3" d="M21.02,47.86c-.09.04-.13.16-.1.26.04.1.14.15.23.11.09-.04.13-.16.1-.26-.04-.1-.14-.15-.23-.11Z"/>
        <path class="cls-3" d="M24.25,47.56c-.12.05-.18.19-.14.3s.17.16.28.1c.12-.05.18-.19.14-.3-.03-.08-.11-.13-.2-.13-.02,0-.03,0-.05,0-.01,0-.02,0-.03.01Z"/>
        <path class="cls-3" d="M25.22,49.43s-.04,0-.06.01c-.08.04-.12.14-.09.23.03.09.12.13.21.1.08-.04.12-.14.09-.23,0-.02-.01-.03-.02-.04-.01,0-.03,0-.04,0-.03-.01-.06-.03-.08-.06Z"/>
        <path class="cls-3" d="M22.81,46.13c-.09.04-.13.17-.09.28s.15.17.23.13c.09-.04.13-.17.09-.28s-.15-.17-.23-.13Z"/>
        <path class="cls-3" d="M20.52,46.34c-.1-.04-.2,0-.23.09s.03.2.13.24c.1.04.2,0,.23-.09.03-.09-.03-.2-.13-.24Z"/>
        <path class="cls-3" d="M18.83,46.73c-.18.08-.27.31-.22.53.01,0,.02.01.03.02.06.05.09.13.06.17.11.14.28.19.43.12.2-.09.29-.35.2-.59-.08-.23-.31-.35-.51-.26Z"/>
        <path class="cls-3" d="M19.05,48.47c-.07.03-.11.13-.08.21s.11.12.18.09.11-.13.08-.21-.11-.12-.18-.09Z"/>
        <path class="cls-3" d="M21.43,49.09s-.04-.04-.06-.06c-.06-.05-.12-.08-.18-.1,0,0-.02,0-.03,0-.05.13-.18.2-.3.15-.04-.02-.08-.05-.11-.08-.06.04-.11.09-.15.16-.01.02-.02.03-.03.05l1.01.17c-.03-.11-.08-.2-.15-.28Z"/>
        <path class="cls-3" d="M18.84,48.75s-.03-.05-.06-.07c-.12-.1-.3-.07-.39.07-.02.02-.03.05-.04.08l.54.09s0-.05-.01-.07c0-.03-.02-.07-.04-.1Z"/>
        <path class="cls-3" d="M17.16,46.7c-.05.08-.06.18,0,.21.05.04.13,0,.18-.07.05-.08.06-.18,0-.21-.05-.04-.13,0-.18.07Z"/>
        <path class="cls-3" d="M17.58,48.61c-.07-.06-.16-.06-.2,0,0,.01-.01.02-.01.03l.27.05s-.03-.06-.06-.09Z"/>
        <path class="cls-3" d="M20.28,47.28c-.16-.14-.4-.09-.52.1s-.1.46.07.6c.16.14.4.09.52-.1.13-.19.1-.46-.07-.6Z"/>
        <path class="cls-3" d="M18.65,47.29s-.02-.02-.03-.02c-.05-.03-.11-.03-.13,0-.03.04,0,.12.06.17.06.05.14.06.16.01,0,0,0,0,0,0,.03-.04,0-.12-.06-.17Z"/>
        <path class="cls-3" d="M17,47.88s-.02-.02-.03-.03c-.08-.07-.19-.05-.24.04-.06.09-.04.21.04.28.08.07.19.05.24-.04,0-.01.01-.02.02-.03.03-.07.02-.16-.03-.22Z"/>
        <path class="cls-3" d="M19.64,45.65c-.09-.07-.22-.04-.29.08-.07.11-.07.27.02.34.09.07.22.04.29-.08.07-.11.07-.27-.02-.34Z"/>
        <path class="cls-3" d="M21.22,46.78c-.07-.06-.17-.04-.22.04-.05.08-.04.19.03.25.07.06.17.04.22-.04.05-.08.04-.19-.03-.25Z"/>
        <path class="cls-3" d="M22.11,48.41c.09.07.2.06.26-.03.06-.09.03-.22-.05-.29-.09-.07-.2-.06-.26.03-.06.09-.03.22.05.29Z"/>
        <path class="cls-3" d="M17.52,45.65c.09.07.2.06.26-.03.06-.09.03-.22-.05-.29-.09-.07-.2-.06-.26.03-.06.09-.03.22.05.29Z"/>
        <path class="cls-3" d="M15.83,47.02c-.02-.1-.12-.16-.22-.13-.02,0-.04.01-.06.02-.07.04-.11.12-.1.19.02.1.12.16.22.13.02,0,.03-.01.05-.02.08-.04.12-.12.11-.2Z"/>
        <path class="cls-3" d="M14.9,48.14s0,0,0,0c-.16-.13-.36-.12-.49.01l.59.1s-.06-.08-.1-.11Z"/>
        <path class="cls-3" d="M26.54,49.2c-.08-.03-.16,0-.18.06-.02.06.03.14.12.17.08.03.16,0,.18-.06.02-.06-.03-.14-.12-.17Z"/>
        <path class="cls-3" d="M22.56,48.49c-.19-.07-.4.07-.47.31-.07.24.03.49.23.56s.4-.07.47-.31-.03-.49-.23-.56Z"/>
        <path class="cls-3" d="M20.87,49.08c.12.04.25-.02.3-.15,0,0,0-.02,0-.02.04-.15-.03-.3-.16-.35-.13-.05-.27.03-.31.18-.03.1,0,.2.05.27.03.04.07.07.11.08Z"/>
        <path class="cls-3" d="M24.11,48.77c-.07-.03-.15.03-.18.12-.03.09.01.19.08.22.07.03.15-.03.18-.12.03-.09-.01-.19-.08-.22Z"/>
        <path class="cls-3" d="M25.41,49.12c-.09-.03-.19.02-.22.13-.02.07,0,.14.03.19.02.03.05.05.08.06.01,0,.03,0,.04,0,.08,0,.15-.05.18-.14.03-.1-.02-.22-.11-.25Z"/>
        <path class="cls-3" d="M27.77,49.11c-.09-.03-.19.03-.23.15-.03.11.02.23.11.27.09.03.19-.03.23-.15.03-.11-.02-.23-.11-.27Z"/>
        <path class="cls-3" d="M25.67,47.49c-.08.05-.09.17-.04.28.05.1.16.15.23.1.08-.05.09-.17.04-.28-.05-.1-.16-.15-.23-.1Z"/>
        <path class="cls-3" d="M24.38,46.66c-.2-.07-.42.06-.49.3-.07.24.04.49.24.57.05.02.1.02.15.02.02,0,.03,0,.05,0,.13-.03.25-.15.29-.31.07-.24-.04-.49-.24-.57Z"/>
        <path class="cls-3" d="M23.56,48.15c-.07-.03-.15.02-.18.1-.02.08.02.17.09.2.07.03.15-.02.18-.1.02-.08-.02-.17-.09-.2Z"/>
        <path class="cls-3" d="M31.98,50.5c-.08-.34-.38-.54-.67-.45-.29.09-.46.44-.37.78.01.05.03.1.06.15l.85.14c.14-.15.2-.39.14-.62Z"/>
        <path class="cls-3" d="M33.29,50.66s-.07.03-.1.06c0,.06,0,.12-.03.18-.02.06-.06.1-.1.14,0,.02,0,.05.01.07.05.19.22.3.39.25.17-.05.27-.25.22-.44-.05-.19-.22-.3-.39-.25Z"/>
        <path class="cls-3" d="M32.96,50.27c.14-.04.22-.2.19-.35-.01-.05-.04-.09-.07-.13-.01,0-.03,0-.04-.02-.02-.01-.04-.03-.06-.05-.04-.01-.09-.01-.14,0-.14.04-.22.2-.19.35.04.15.18.23.32.19Z"/>
        <path class="cls-3" d="M32.85,47.88c-.16.05-.25.25-.2.45.05.2.22.32.38.27.16-.05.25-.25.2-.45-.05-.2-.22-.32-.38-.27Z"/>
        <path class="cls-3" d="M34.69,49.69s.06.04.08.06c0-.06,0-.12,0-.18-.05-.2-.21-.33-.36-.28-.15.05-.23.25-.18.45,0,0,0,.02,0,.03.12-.12.3-.16.46-.07Z"/>
        <path class="cls-3" d="M35.23,51.7s0,0,0,0l.2.03c-.06-.04-.13-.06-.2-.04Z"/>
        <path class="cls-3" d="M36.56,50.68c0,.09-.01.17-.07.23-.05.06-.13.09-.2.09,0,.03,0,.06.01.09.04.18.19.29.33.25.14-.04.22-.23.17-.4-.04-.14-.14-.24-.25-.25Z"/>
        <path class="cls-3" d="M35,50.54c-.13.04-.2.21-.16.38.04.17.18.27.31.23.13-.04.2-.21.16-.38-.04-.17-.18-.27-.31-.23Z"/>
        <path class="cls-3" d="M35.57,48.89c-.08.11-.11.26-.07.4.04.18.18.31.35.33,0-.03.01-.05.02-.08.08-.19.25-.28.39-.21,0,0,.02,0,.02.01.04-.09.05-.2.02-.31-.05-.2-.21-.33-.39-.33,0,.05-.03.1-.06.14-.07.09-.19.11-.28.04Z"/>
        <path class="cls-3" d="M34.98,47.86c.12-.04.19-.18.16-.32-.03-.14-.16-.22-.28-.18-.12.04-.19.18-.16.32.03.14.16.22.28.18Z"/>
        <path class="cls-3" d="M36.96,48.02c.1-.03.17-.14.19-.27-.07-.1-.1-.22-.08-.33-.07-.11-.18-.16-.29-.13-.15.05-.23.25-.18.45.05.2.21.33.36.28Z"/>
        <path class="cls-3" d="M37.6,49.6s.09-.07.14-.05c.07-.07.1-.17.08-.27-.03-.13-.15-.21-.28-.19.12.14.14.34.07.52Z"/>
        <path class="cls-3" d="M37.77,50.8c.02-.05.05-.09.08-.13-.01,0-.03,0-.04,0-.12.04-.19.18-.16.32.02.08.07.14.13.17-.05-.11-.07-.24-.02-.36Z"/>
        <path class="cls-3" d="M32.01,48.84c-.09.03-.15.14-.12.24.03.11.12.17.22.14.09-.03.15-.14.12-.24-.03-.11-.12-.17-.22-.14Z"/>
        <path class="cls-3" d="M29.81,50.65s-.09.06-.11.11l.29.05s0-.05.01-.07c-.04-.07-.12-.11-.19-.09Z"/>
        <path class="cls-3" d="M37.18,50.63c.07-.02.1-.11.08-.19-.02-.08-.09-.14-.16-.12-.07.02-.1.11-.08.19.02.08.09.14.16.12Z"/>
        <path class="cls-3" d="M35.23,51.69c-.08-.08-.19-.09-.28-.04l.29.05s0,0,0,0c0,0,0,0,0-.01Z"/>
        <path class="cls-3" d="M34.35,50.51c-.17-.09-.26-.27-.25-.46-.03.02-.05.04-.07.06-.11.14-.1.36.04.5.13.14.33.15.45.01.02-.02.03-.05.04-.07-.07,0-.14,0-.21-.04Z"/>
        <path class="cls-3" d="M36.49,50.91c.05-.06.07-.15.07-.23,0-.09-.05-.18-.12-.26-.13-.14-.33-.15-.43-.03-.11.13-.08.35.05.49.07.07.15.11.23.11.08,0,.15-.02.2-.09Z"/>
        <path class="cls-3" d="M38.2,51.98c-.11-.12-.28-.12-.38,0-.04.04-.06.1-.06.15l.54.09c0-.09-.03-.18-.09-.24Z"/>
        <path class="cls-3" d="M38.42,50.38c-.06.07-.08.18-.05.28.07.06.12.13.15.22.11.08.26.07.34-.03.1-.12.08-.32-.04-.45-.12-.13-.3-.13-.4-.01Z"/>
        <path class="cls-3" d="M37.09,51.12c-.09.11-.08.3.04.42.11.12.28.13.37.02.09-.11.08-.3-.04-.42-.11-.12-.28-.13-.37-.02Z"/>
        <path class="cls-3" d="M39.38,52.23s-.07.1-.08.16h.08s0-.07.02-.11c.06-.15.23-.21.38-.13.13.07.2.22.18.35l.09.02c-.01-.1-.06-.2-.13-.28-.16-.17-.41-.18-.54,0Z"/>
        <path class="cls-3" d="M37.6,49.6c.07-.17.05-.38-.07-.52,0,0,0-.01-.01-.02-.13-.14-.32-.16-.47-.06-.03.05-.08.09-.12.11-.14.19-.14.47.02.64.16.17.42.16.58-.03.02-.02.04-.05.05-.07,0,0,0-.01,0-.02,0-.01.01-.03.02-.04Z"/>
        <path class="cls-3" d="M35.57,48.89c.09.06.21.05.28-.04.03-.04.05-.09.06-.14,0-.08-.01-.16-.07-.22-.09-.1-.24-.09-.32.01-.09.1-.08.27,0,.36.01.01.02.02.04.03Z"/>
        <path class="cls-3" d="M37.16,47.75s.02.03.03.04c.13.14.33.15.43.03.11-.13.08-.35-.05-.49-.03-.03-.06-.05-.09-.07,0,0,0,0,0,0-.08.04-.18.02-.22-.04-.04.01-.09.04-.12.08-.03.04-.05.08-.06.12-.02.11,0,.23.08.33Z"/>
        <path class="cls-3" d="M38.91,48.81c.11-.13.11-.32.01-.42-.1-.11-.26-.09-.37.04-.11.13-.11.32-.01.42.1.11.26.09.37-.04Z"/>
        <path class="cls-3" d="M39.89,49.94c.05-.07.07-.15.06-.24-.02,0-.03,0-.05-.02-.07-.03-.11-.1-.11-.17-.08-.03-.17,0-.23.07-.09.1-.08.27,0,.36.09.1.24.09.32-.01Z"/>
        <path class="cls-3" d="M40.48,51.12c.03-.07.09-.12.15-.14-.01-.04-.03-.08-.06-.12-.1-.11-.25-.1-.35.01-.09.11-.09.29.01.39.07.07.16.09.24.06-.02-.07-.03-.14,0-.21Z"/>
        <path class="cls-3" d="M33.76,51.43s0,.01-.01.02l.3.05s-.02-.05-.04-.08c-.07-.08-.18-.07-.25,0Z"/>
        <path class="cls-3" d="M38.8,49.7c-.05.06-.04.15.02.21.06.06.14.06.19,0,.05-.06.04-.15-.02-.21-.06-.06-.14-.06-.19,0Z"/>
        <path class="cls-3" d="M30.51,47.42c-.27-.14-.6,0-.73.32-.13.32-.01.69.26.83.27.14.6,0,.73-.32.13-.32.01-.69-.26-.83Z"/>
        <path class="cls-3" d="M31.68,49.34c-.16-.08-.34,0-.42.18-.07.18,0,.39.15.47.16.08.34,0,.42-.18.07-.18,0-.39-.15-.47Z"/>
        <path class="cls-3" d="M31.51,48.42c-.06.14,0,.31.14.38.13.07.28.01.34-.13.06-.14,0-.31-.14-.38s-.28-.01-.34.13Z"/>
        <path class="cls-3" d="M33.05,47.37c.08-.19.02-.41-.13-.48-.15-.08-.33.01-.41.2-.08.19-.02.41.13.48.15.08.33-.01.41-.2Z"/>
        <path class="cls-3" d="M33.08,49.8c.13.04.28-.06.35-.23.08-.19.02-.4-.12-.48s-.32.02-.39.21c-.06.16-.04.33.05.43.02.02.04.03.06.05.01,0,.03.01.04.02Z"/>
        <path class="cls-3" d="M30.38,50.54c-.14-.07-.31,0-.37.16,0,.01,0,.03-.01.04,0,.02,0,.05-.01.07l.55.09c.03-.14-.03-.3-.16-.36Z"/>
        <path class="cls-3" d="M33.16,50.9c.02-.06.03-.12.03-.18,0-.1-.05-.19-.13-.23-.12-.06-.27.01-.34.17-.06.16-.02.34.11.4.08.04.17.02.24-.04.04-.03.07-.08.1-.14Z"/>
        <path class="cls-3" d="M28.99,49.12c-.19-.1-.42-.01-.5.2s0,.46.2.56c.19.1.42.01.5-.2.08-.21,0-.46-.2-.56Z"/>
        <path class="cls-3" d="M34.35,50.51c.07.04.14.05.21.04.14-.01.28-.1.34-.26.08-.2.02-.42-.13-.55-.03-.02-.05-.04-.08-.06-.16-.08-.34-.05-.46.07-.04.04-.07.09-.09.14-.02.05-.03.1-.03.15-.01.19.08.38.25.46Z"/>
        <path class="cls-3" d="M34.56,48.44c.11.06.25,0,.3-.13.05-.13,0-.28-.11-.34s-.25,0-.3.13c-.05.13,0,.28.11.34Z"/>
        <path class="cls-3" d="M35.87,49.54s-.02.05-.02.08c-.04.17.02.33.14.39.14.07.32-.02.39-.21.07-.18.03-.38-.09-.46,0,0-.02,0-.02-.01-.14-.07-.32.02-.39.21Z"/>
        <path class="cls-3" d="M35.77,51.21c-.14-.07-.3-.02-.36.12-.06.14.01.31.15.38.14.07.3.02.36-.12.06-.14-.01-.31-.15-.38Z"/>
        <path class="cls-3" d="M31.59,47.37c.09.05.19,0,.23-.1.04-.1,0-.22-.09-.26-.09-.05-.19,0-.23.1-.04.1,0,.22.09.26Z"/>
        <path class="cls-3" d="M27.51,50.26c-.11-.06-.23-.02-.28.07l.4.07c-.02-.06-.07-.11-.12-.14Z"/>
        <path class="cls-3" d="M28.08,48.29c-.08-.04-.17,0-.21.09-.04.09,0,.2.08.24.08.04.17,0,.21-.09.04-.09,0-.2-.08-.24Z"/>
        <path class="cls-3" d="M28.86,47.17c.09.05.19,0,.24-.12.04-.11,0-.24-.08-.28-.09-.05-.19,0-.24.12-.04.11,0,.24.08.28Z"/>
        <path class="cls-3" d="M46.76,50.23c.25-.19.3-.58.13-.87-.18-.29-.52-.37-.76-.17-.25.19-.3.58-.13.87.18.29.52.37.76.17Z"/>
        <path class="cls-3" d="M44.77,50.12c0-.06.02-.12.05-.16,0-.02-.02-.04-.03-.06-.1-.16-.29-.2-.44-.09-.14.11-.18.33-.08.5.1.16.29.2.44.09.03-.03.06-.06.08-.09-.02-.05-.03-.11-.02-.18Z"/>
        <path class="cls-3" d="M45.21,51.13s.05.01.07.02c.05,0,.09-.02.13-.05.12-.09.15-.27.08-.4-.08-.13-.24-.15-.35-.06-.12.09-.15.27-.08.4.03.04.06.07.1.09.02,0,.03,0,.05,0Z"/>
        <path class="cls-3" d="M45.56,52.24c-.14.11-.16.33-.06.5.1.17.3.22.43.12.14-.11.16-.33.06-.5-.1-.17-.3-.22-.43-.12Z"/>
        <path class="cls-3" d="M43.67,51.84s-.07-.01-.1-.02c0,.06.03.12.06.17.1.17.29.23.42.13.13-.1.15-.32.04-.49,0,0-.01-.02-.02-.02-.08.16-.24.26-.41.24Z"/>
        <path class="cls-3" d="M44.14,47.99c-.13.1-.16.3-.07.44.09.14.26.18.39.08.13-.1.16-.3.07-.44-.09-.14-.26-.18-.39-.08Z"/>
        <path class="cls-3" d="M42.47,49.76c.02-.06.06-.1.1-.13-.09-.08-.21-.09-.31-.01-.12.09-.14.29-.06.43.09.14.25.19.37.09-.12-.07-.16-.23-.11-.38Z"/>
        <path class="cls-3" d="M41.62,51.34c.03-.08.09-.13.17-.16,0-.03-.02-.06-.04-.08-.09-.15-.27-.2-.38-.11-.12.09-.14.29-.05.45.07.12.2.18.31.15-.03-.08-.04-.17,0-.24Z"/>
        <path class="cls-3" d="M42.81,50.63c-.11.09-.13.27-.04.42.09.14.25.19.36.1s.13-.27.04-.42c-.09-.14-.25-.19-.36-.1Z"/>
        <path class="cls-3" d="M43.68,45.8c.07-.06.1-.15.07-.2-.03-.05-.12-.05-.19,0-.07.06-.1.15-.07.2.03.05.12.05.19,0Z"/>
        <path class="cls-3" d="M43.45,47.68s-.01-.07-.03-.1c-.05-.08-.13-.11-.19-.07-.02.02-.04.05-.04.08.07,0,.13.02.2.06.02.01.05.03.07.04Z"/>
        <path class="cls-3" d="M45.83,47.2c-.17.14-.22.4-.11.59.12.19.35.23.53.09.17-.14.22-.4.11-.59-.12-.19-.35-.23-.53-.09Z"/>
        <path class="cls-3" d="M44.81,46.89s.04-.11,0-.19c-.04-.07-.11-.11-.15-.07-.04.03-.04.11,0,.19.04.07.11.11.15.07Z"/>
        <path class="cls-3" d="M41.1,49.51c.17-.13.2-.4.07-.61-.13-.21-.36-.27-.53-.14-.17.13-.2.4-.07.61s.36.27.53.14Z"/>
        <path class="cls-3" d="M43.07,52.92c.04-.13.03-.28-.05-.41-.09-.16-.26-.22-.42-.18,0,.03,0,.06,0,.09-.02.21-.16.36-.31.34,0,0-.02,0-.03,0,0,.05,0,.1,0,.15l.58.1c.05-.07.14-.1.22-.08Z"/>
        <path class="cls-3" d="M40.18,51.63c-.1.08-.13.24-.06.36.07.12.21.15.32.07.1-.08.13-.24.06-.36-.07-.12-.21-.15-.32-.07Z"/>
        <path class="cls-3" d="M39.91,50.43c.07.04.12.1.15.18.08-.09.09-.24.03-.35-.08-.13-.23-.16-.34-.07-.08.06-.11.16-.1.26.08-.05.18-.06.27-.02Z"/>
        <path class="cls-3" d="M41.78,47.53c-.06.05-.08.16-.03.24.05.08.14.11.2.06.06-.05.08-.16.03-.24-.05-.08-.14-.11-.2-.06Z"/>
        <path class="cls-3" d="M42.77,46.85c.05.09.16.11.24.05.08-.06.1-.19.04-.28s-.16-.11-.24-.05c-.08.06-.1.19-.04.28Z"/>
        <path class="cls-3" d="M43.19,48.81c-.06,0-.12,0-.18-.03,0,0-.01,0-.02,0-.07.06-.08.17-.03.26.05.09.16.12.23.06.07-.06.08-.17.03-.26-.01-.02-.02-.03-.04-.04Z"/>
        <path class="cls-3" d="M46.25,51.31c-.08.06-.1.19-.04.28.05.09.16.11.24.05.08-.06.1-.19.04-.28-.05-.09-.16-.11-.24-.05Z"/>
        <path class="cls-3" d="M45.92,45.5c-.1.08-.14.23-.08.33.06.1.19.11.3.03.1-.08.14-.23.08-.33-.05-.08-.13-.1-.22-.07-.02,0-.03.02-.05.02-.01,0-.02.01-.03.02Z"/>
        <path class="cls-3" d="M47.34,47.42c.07-.06.09-.17.04-.25,0-.01-.02-.03-.03-.04-.01,0-.03,0-.04,0-.03,0-.06-.02-.09-.04-.02,0-.04.01-.06.03-.07.06-.09.17-.04.25.05.08.15.1.22.05Z"/>
        <path class="cls-3" d="M47.81,48.82s-.04.07-.08.09c.04.05.06.12.07.19.06.05.14.06.21.01.08-.06.09-.19.03-.29-.05-.08-.14-.12-.21-.09,0,.03,0,.06-.01.09Z"/>
        <path class="cls-3" d="M44.46,44.81c.08-.06.09-.19.03-.29-.06-.1-.17-.13-.25-.07-.08.06-.09.19-.03.29s.17.13.25.07Z"/>
        <path class="cls-3" d="M42.01,45.56c.11.02.2-.05.21-.15.01-.1-.07-.19-.17-.2-.11-.02-.2.05-.21.15-.01.1.07.19.17.2Z"/>
        <path class="cls-3" d="M40.48,46.74c.13.11.31.12.44.01.17-.14.21-.42.09-.62-.13-.21-.37-.26-.54-.13-.16.13-.21.37-.11.57.01,0,.02,0,.04.01.07.04.11.1.09.15Z"/>
        <path class="cls-3" d="M41.01,47.66c-.06.05-.08.15-.04.22.04.07.13.09.19.04.06-.05.08-.15.04-.22-.04-.07-.13-.09-.19-.04Z"/>
        <path class="cls-3" d="M41.04,51.87c-.06.04-.07.14-.02.21.04.07.12.1.18.05.06-.04.07-.14.02-.21-.04-.07-.12-.1-.18-.05Z"/>
        <path class="cls-3" d="M43.19,48.81c.21,0,.4-.14.49-.36.11-.28.01-.62-.22-.78-.02-.01-.04-.03-.07-.04-.06-.03-.13-.05-.2-.06,0,0-.02,0-.03,0-.02.14-.14.24-.26.22-.05,0-.09-.03-.12-.05-.05.05-.09.12-.12.19-.12.31,0,.68.29.82.02.01.05.02.07.03.06.02.12.03.18.03Z"/>
        <path class="cls-3" d="M41.58,49.98c.16.08.34,0,.42-.18.07-.18,0-.39-.16-.47-.16-.08-.34,0-.42.18-.07.18,0,.39.16.47Z"/>
        <path class="cls-3" d="M42.92,49.99c.02-.06.03-.13.02-.19-.06-.02-.1-.09-.09-.17,0,0,0,0,0,0-.01-.01-.03-.02-.04-.03-.08-.04-.16-.03-.23.03-.04.03-.07.08-.1.13-.06.15,0,.31.11.38,0,0,0,0,.01,0,.12.06.27,0,.33-.16Z"/>
        <path class="cls-3" d="M43.99,50.72c-.17-.09-.36-.02-.42.15-.01.03-.02.06-.02.09.06-.03.14-.04.21-.04.18.02.32.16.37.34.02-.02.04-.05.05-.09.07-.17-.01-.38-.18-.46Z"/>
        <path class="cls-3" d="M42.03,51.21c-.09-.04-.18-.05-.25-.02-.07.03-.13.08-.17.16-.03.08-.03.17,0,.24.03.08.1.16.18.2.17.09.35.02.42-.14.06-.16-.02-.36-.19-.44Z"/>
        <path class="cls-3" d="M40.92,48.34c.06-.16,0-.35-.14-.42s-.31,0-.37.16c-.06.16,0,.35.14.42.14.07.31,0,.37-.16Z"/>
        <path class="cls-3" d="M39.91,50.43c-.09-.05-.19-.04-.27.02-.04.03-.07.07-.1.12-.06.15,0,.33.15.4.14.07.3,0,.36-.14.03-.07.03-.15,0-.22-.03-.08-.08-.14-.15-.18Z"/>
        <path class="cls-3" d="M39.78,52.15c-.15-.08-.32-.02-.38.13-.02.04-.02.08-.02.12l.58.1c.02-.14-.05-.29-.18-.35Z"/>
        <path class="cls-3" d="M40.84,50.99c-.07-.03-.14-.04-.2-.02-.07.02-.13.07-.15.14-.03.07-.02.14,0,.21.03.07.08.14.16.18.14.07.3.02.36-.12.06-.14-.01-.31-.16-.38Z"/>
        <path class="cls-3" d="M38.98,46.27c-.05-.03-.12.02-.16.11-.04.09-.02.18.03.21.05.03.12-.02.16-.11s.02-.18-.03-.21Z"/>
        <path class="cls-3" d="M39.7,48.35c.03-.07-.01-.16-.09-.2-.08-.04-.17-.02-.19.05-.03.07.01.16.09.2.08.04.17.02.19-.05Z"/>
        <path class="cls-3" d="M41.67,46.98c.19.09.41,0,.49-.23.09-.22,0-.47-.18-.57-.19-.09-.41,0-.49.23-.09.22,0,.47.18.57Z"/>
        <path class="cls-3" d="M40.32,46.77c.07.04.14.02.16-.03,0,0,0,0,0,0,.02-.05-.02-.12-.09-.15-.01,0-.02-.01-.04-.01-.06-.02-.11,0-.13.04-.02.05.02.12.09.16Z"/>
        <path class="cls-3" d="M38.36,50.66s-.05-.04-.08-.05c-.15-.08-.32-.05-.43.06-.04.04-.06.08-.08.13-.05.12-.04.25.02.36.04.09.11.16.2.2.2.1.43.02.52-.19.04-.1.04-.2,0-.3-.03-.08-.08-.16-.15-.22Z"/>
        <path class="cls-3" d="M41.52,52.6c-.15-.08-.33-.03-.44.09l.63.11c-.04-.09-.1-.16-.19-.2Z"/>
        <path class="cls-3" d="M43.12,52.93s-.03-.01-.04-.02c-.08-.02-.16.01-.22.08l.38.06c-.02-.06-.06-.1-.11-.13Z"/>
        <path class="cls-3" d="M38.27,49.29c.08.04.17,0,.2-.07.03-.08,0-.18-.09-.22-.08-.04-.17,0-.2.07-.03.08,0,.18.09.22Z"/>
        <path class="cls-3" d="M38.72,47.91c.09.04.19,0,.23-.1.04-.1,0-.22-.09-.26s-.19,0-.23.1c-.04.1,0,.22.09.26Z"/>
        <path class="cls-3" d="M39.9,49.69s.03.01.05.02c.07.01.14-.03.17-.1.04-.09,0-.2-.1-.24s-.19,0-.22.08c0,.02-.01.05-.01.07,0,.07.04.14.11.17Z"/>
        <path class="cls-3" d="M43.72,49.72c-.02.09.02.18.1.22.09.04.19,0,.23-.1s0-.22-.09-.26c-.02,0-.03-.01-.05-.01-.04.08-.11.14-.19.16Z"/>
        <path class="cls-3" d="M40.87,45.23c.1.05.22-.02.27-.15.05-.13.01-.28-.08-.32-.1-.05-.22.02-.27.15-.05.13-.01.28.08.32Z"/>
        <path class="cls-3" d="M42.68,45.8c.08.04.17,0,.21-.09.04-.09,0-.2-.08-.24-.08-.04-.17,0-.21.09-.04.09,0,.2.08.24Z"/>
        <path class="cls-3" d="M43.98,46.85c.1.05.21,0,.25-.09.04-.1,0-.22-.1-.27-.1-.05-.21,0-.25.09-.04.1,0,.22.1.27Z"/>
        <path class="cls-3" d="M39.12,44.9c-.1-.05-.21,0-.25.09-.04.1,0,.22.1.27.1.05.21,0,.25-.09.04-.1,0-.22-.1-.27Z"/>
        <path class="cls-3" d="M37.48,47.26s0,0,0,0c.09-.05.14-.16.1-.25-.04-.09-.14-.12-.24-.07-.1.05-.15.16-.11.25,0,.01.01.02.02.03.05.06.14.08.22.04Z"/>
        <path class="cls-3" d="M37.05,49.01s.04-.06.05-.09c.09-.22,0-.48-.21-.58-.2-.1-.44,0-.52.21-.09.22,0,.48.21.58.12.06.25.05.35,0,.05-.03.09-.07.12-.11Z"/>
        <path class="cls-3" d="M37.83,49.77c.03-.08,0-.17-.07-.21,0,0-.01,0-.02,0-.05-.02-.11,0-.14.05,0,.01-.02.02-.02.04,0,0,0,.01,0,.02-.02.08,0,.16.08.19.07.04.15,0,.18-.08Z"/>
        <path class="cls-3" d="M48.39,51.16c-.3-.03-.56.22-.59.57-.03.35.19.66.49.69.3.03.56-.22.59-.57.03-.35-.19-.66-.49-.69Z"/>
        <path class="cls-3" d="M46.34,50.66c-.02.2.11.37.28.39.17.02.33-.12.34-.32.02-.2-.11-.37-.28-.39-.17-.02-.33.12-.34.32Z"/>
        <path class="cls-3" d="M46.81,51.54c-.14-.02-.27.09-.28.25-.01.15.09.29.24.31s.27-.09.28-.25c.01-.15-.09-.29-.24-.31Z"/>
        <path class="cls-3" d="M46.22,53.07c-.16-.02-.31.14-.33.34,0,.03,0,.07,0,.1l.56.1s.03-.08.03-.13c.02-.21-.1-.39-.26-.41Z"/>
        <path class="cls-3" d="M45.28,51.15s-.05-.02-.07-.02c-.02,0-.03,0-.05,0-.13.01-.25.16-.26.34-.02.21.09.39.25.41.15.02.29-.14.31-.34.01-.17-.06-.33-.18-.38Z"/>
        <path class="cls-3" d="M47.53,48.91s-.08-.05-.1-.09c-.1.04-.17.14-.18.27-.01.17.1.33.25.35.15.02.29-.11.31-.29,0-.01,0-.03,0-.04,0-.07-.03-.14-.07-.19-.06.04-.14.04-.21,0Z"/>
        <path class="cls-3" d="M45.14,49.29c.14.02.27-.11.29-.29.01-.17-.09-.33-.23-.34-.14-.02-.27.11-.29.29-.01.17.09.33.23.34Z"/>
        <path class="cls-3" d="M43.43,49.36c-.02.19.09.35.23.36.02,0,.04,0,.06,0,.08-.01.15-.07.19-.16.02-.04.04-.09.04-.15.02-.19-.09-.35-.23-.36-.14-.02-.27.12-.29.31Z"/>
        <path class="cls-3" d="M44.99,50.47c.13.01.26-.11.27-.29.01-.17-.08-.33-.22-.34-.09,0-.17.04-.22.12-.03.05-.05.1-.05.16,0,.06,0,.12.02.18.04.09.11.16.19.17Z"/>
        <path class="cls-3" d="M48.34,46.74s.06.04.1.04c.09,0,.16-.04.17-.1,0-.07-.06-.13-.15-.14-.06,0-.12.01-.15.05.03.04.03.09.02.14Z"/>
        <path class="cls-3" d="M47.1,48.11c.07,0,.13-.07.14-.16,0-.1-.04-.18-.11-.19-.07,0-.13.07-.14.16,0,.1.04.18.11.19Z"/>
        <path class="cls-3" d="M49.29,49.43s-.08,0-.11,0c0,0,0,.02,0,.03-.03.08-.09.13-.14.1-.01,0-.02-.02-.03-.04-.07.07-.12.16-.13.27-.02.23.14.43.35.46.21.02.4-.14.42-.37.02-.23-.14-.43-.35-.46Z"/>
        <path class="cls-3" d="M48.69,48.44s.09-.06.1-.15c0-.09-.03-.16-.07-.17-.05,0-.09.06-.1.15,0,.09.03.16.07.17Z"/>
        <path class="cls-3" d="M44.76,47.31c.02-.25-.12-.47-.33-.49-.2-.02-.38.16-.4.41-.02.25.12.47.33.49.2.02.38-.16.4-.41Z"/>
        <path class="cls-3" d="M43.75,50.93c-.07,0-.15,0-.21.04-.13.06-.23.2-.25.37-.02.21.1.41.28.48.03.01.06.02.1.02.17.02.33-.08.41-.24.02-.05.04-.11.05-.17,0-.05,0-.11-.01-.16-.04-.18-.19-.32-.37-.34Z"/>
        <path class="cls-3" d="M44.16,52.97c-.12-.01-.23.08-.24.21l.45.08s0,0,0,0c.01-.14-.08-.27-.2-.28Z"/>
        <path class="cls-3" d="M42.61,52.41s0-.06,0-.09c-.01-.17-.11-.31-.25-.32-.15-.02-.29.14-.31.34-.02.2.08.37.22.4,0,0,.02,0,.03,0,.15.02.29-.14.31-.34Z"/>
        <path class="cls-3" d="M42.26,50.24c-.15-.02-.29.09-.3.25-.01.15.1.29.25.31.15.02.29-.09.3-.25.01-.15-.1-.29-.25-.31Z"/>
        <path class="cls-3" d="M42.41,49.18c.12.01.24-.09.25-.23.01-.14-.08-.27-.2-.28-.12-.01-.24.09-.25.23-.01.14.08.27.2.28Z"/>
        <path class="cls-3" d="M43.16,47.58s0-.02,0-.03c.01-.15-.09-.29-.22-.3-.13-.01-.25.1-.27.25,0,.1.03.19.1.25.03.03.08.05.12.05.13.01.24-.08.26-.22Z"/>
        <path class="cls-3" d="M46.13,46.91c0-.1-.05-.18-.12-.19-.08,0-.15.06-.15.16s.05.18.12.19c.08,0,.15-.06.15-.16Z"/>
        <path class="cls-3" d="M47.35,47.13c.08-.01.14-.08.15-.18,0-.11-.06-.21-.16-.22-.1-.01-.18.07-.19.18,0,.07.02.14.07.18.02.02.06.04.09.04.01,0,.03,0,.04,0Z"/>
        <path class="cls-3" d="M46.22,48.57c-.09,0-.16.07-.17.18,0,.11.05.21.14.21.09,0,.16-.07.17-.18,0-.11-.05-.21-.14-.21Z"/>
        <path class="cls-3" d="M47.27,52.87c-.1-.01-.18.07-.19.18,0,.11.06.21.16.22.1.01.18-.07.19-.18,0-.11-.06-.21-.16-.22Z"/>
        <path class="cls-3" d="M50.08,48.38c-.01.12.08.23.21.24.12.01.23-.07.24-.19.01-.12-.08-.23-.21-.24-.12-.01-.23.07-.24.19Z"/>
        <path class="cls-3" d="M50.49,50.51s-.05,0-.07,0c-.05-.02-.07-.09-.06-.16,0,0,0,0,0,0-.09,0-.16.06-.17.16,0,.1.05.19.14.2.09,0,.16-.06.17-.16,0,0,0-.02,0-.03Z"/>
        <path class="cls-3" d="M49.91,52.05c-.1-.01-.18.08-.19.2-.01.12.06.23.16.24.1.01.18-.08.19-.2.01-.12-.06-.23-.16-.24Z"/>
        <path class="cls-3" d="M49.6,46.59c.1.01.18-.08.19-.2.01-.12-.06-.23-.16-.24-.1-.01-.18.08-.19.2-.01.12.06.23.16.24Z"/>
        <path class="cls-3" d="M47.55,45.41c.06-.07.06-.19-.01-.28-.07-.09-.18-.11-.25-.04-.06.07-.06.19.01.28.07.09.18.11.25.04Z"/>
        <path class="cls-3" d="M45.8,45.49c.05,0,.1,0,.15-.02.02,0,.03-.01.05-.02.12-.07.21-.2.23-.37.02-.25-.13-.47-.34-.5-.21-.02-.4.16-.42.41-.02.25.13.47.34.5Z"/>
        <path class="cls-3" d="M45.32,46.56c.08,0,.15-.06.15-.14,0-.09-.05-.16-.13-.17-.08,0-.15.06-.15.14,0,.09.05.16.13.17Z"/>
        <path class="cls-3" d="M42.94,49.8s0,0,.02,0c.07,0,.13-.06.14-.14,0-.09-.04-.16-.11-.17-.07,0-.13.06-.13.14,0,0,0,0,0,0,0,.08.03.15.09.17Z"/>
        <path class="cls-3" d="M2.09,38.4s.06.04.08.06c0-.06,0-.12,0-.18-.05-.2-.21-.33-.36-.28-.15.05-.23.25-.18.45,0,0,0,.02,0,.03.12-.12.3-.16.46-.07Z"/>
        <path class="cls-3" d="M2.96,40.64c-.04-.17-.19-.27-.33-.23.09.11.09.28,0,.4-.04.04-.08.07-.13.09.06.11.18.16.29.13.14-.04.22-.22.18-.39Z"/>
        <path class="cls-3" d="M3.89,39.63c-.05.06-.13.09-.2.09,0,.03,0,.06.01.09.04.18.19.29.33.25.14-.04.22-.23.17-.4-.04-.14-.14-.24-.25-.25,0,.09-.01.17-.07.23Z"/>
        <path class="cls-3" d="M2.41,39.25c-.13.04-.2.21-.16.38.04.17.18.27.31.23.13-.04.2-.21.16-.38-.04-.17-.18-.27-.31-.23Z"/>
        <path class="cls-3" d="M1.26,42.66s.05-.03.06-.06c-.05-.02-.1-.06-.15-.1v.14s.06.03.08.02Z"/>
        <path class="cls-3" d="M3.86,41.56c-.2.06-.31.31-.25.55s.27.39.46.33c.2-.06.31-.31.25-.55s-.27-.39-.46-.33Z"/>
        <path class="cls-3" d="M2.97,37.61c-.08.11-.11.26-.07.4.04.18.18.31.35.33,0-.03.01-.05.02-.08.08-.19.25-.28.39-.21,0,0,.02,0,.02.01.04-.09.05-.2.02-.31-.05-.2-.21-.33-.39-.33,0,.05-.03.1-.06.14-.07.09-.19.11-.28.04Z"/>
        <path class="cls-3" d="M2.39,36.58c.12-.04.19-.18.16-.32-.03-.14-.16-.22-.28-.18-.12.04-.19.18-.16.32.03.14.16.22.28.18Z"/>
        <path class="cls-3" d="M4.37,36.74c.1-.03.17-.14.19-.27-.07-.1-.1-.22-.08-.33-.07-.11-.18-.16-.29-.13-.15.05-.23.25-.18.45.05.2.21.33.36.28Z"/>
        <path class="cls-3" d="M4.98,38.36s.02,0,.03,0c.15-.05.24-.2.2-.35-.03-.13-.15-.21-.28-.19.12.15.14.37.05.55Z"/>
        <path class="cls-3" d="M5.06,39.72c.03.14.16.22.28.18.12-.04.19-.18.16-.32-.03-.14-.16-.22-.28-.18-.12.04-.19.18-.16.32Z"/>
        <path class="cls-3" d="M5.5,41.21c-.09.02-.18,0-.26-.08-.06-.06-.09-.14-.09-.22-.1.06-.16.19-.13.32.04.15.17.23.3.19.09-.03.15-.11.17-.21Z"/>
        <path class="cls-3" d="M2.55,42.83c-.07.02-.12.12-.09.21s.1.15.18.13c.07-.02.12-.12.09-.21-.02-.1-.1-.15-.18-.13Z"/>
        <path class="cls-3" d="M1.39,43.69c.09-.03.15-.14.12-.24-.03-.11-.12-.17-.22-.14-.06.02-.1.06-.12.12v.14c.03.1.12.15.21.12Z"/>
        <path class="cls-3" d="M1.85,41.53c.08-.03.13-.13.1-.24-.03-.11-.11-.17-.2-.14-.08.03-.13.13-.1.24,0,.02.01.04.02.05.06.02.11.05.16.09,0,0,.01,0,.02,0Z"/>
        <path class="cls-3" d="M1.86,44.95c-.1-.05-.2-.03-.24.06-.04.09,0,.2.1.26.1.05.2.03.24-.06.04-.09,0-.2-.1-.26Z"/>
        <path class="cls-3" d="M3.64,44.4c-.09-.15-.26-.23-.42-.18-.2.06-.32.31-.26.56.06.24.27.39.48.32.19-.06.3-.28.27-.5-.01,0-.02-.02-.03-.03-.06-.06-.07-.14-.04-.18Z"/>
        <path class="cls-3" d="M3.33,43.04c-.07.02-.12.11-.1.2.02.08.1.13.17.11.07-.02.12-.11.1-.2-.02-.08-.1-.13-.17-.11Z"/>
        <path class="cls-3" d="M4.59,39.35c.07-.02.1-.11.08-.19-.02-.08-.09-.14-.16-.12-.07.02-.1.11-.08.19.02.08.09.14.16.12Z"/>
        <path class="cls-3" d="M1.35,42.62c.06-.12.2-.17.31-.11.04.02.08.06.1.1.06-.03.12-.08.17-.14.21-.25.19-.64-.04-.88-.02-.02-.04-.04-.06-.05-.05-.04-.1-.07-.16-.09-.17-.06-.36-.03-.5.1v.97s.09.08.15.1c0,0,.02,0,.03.01Z"/>
        <path class="cls-3" d="M3.53,40.94c-.13-.14-.33-.13-.44.02-.12.14-.11.37.01.5.13.14.33.13.44-.02.12-.14.11-.37-.01-.5Z"/>
        <path class="cls-3" d="M2.64,40.42s0,0,0-.01c-.1-.11-.26-.09-.36.03-.04.05-.06.11-.07.17.05.04.07.12.04.19,0,0,0,0,0,0,0,.01.02.03.03.04.06.07.15.09.23.06.05-.01.09-.04.13-.09.1-.12.1-.29,0-.4Z"/>
        <path class="cls-3" d="M1.76,39.23c-.17-.09-.26-.27-.25-.46-.03.02-.05.04-.07.06-.11.14-.1.36.04.5.13.14.33.15.45.01.02-.02.03-.05.04-.07-.07,0-.14,0-.21-.04Z"/>
        <path class="cls-3" d="M3.41,39.12c-.11.13-.08.35.05.49.07.07.15.11.23.11.08,0,.15-.02.2-.09.05-.06.07-.15.07-.23,0-.09-.05-.18-.12-.26-.13-.14-.33-.15-.43-.03Z"/>
        <path class="cls-3" d="M3.68,42.73c-.11.13-.1.33.01.45s.29.11.4-.01c.11-.13.1-.33-.01-.45-.11-.12-.29-.11-.4.01Z"/>
        <path class="cls-3" d="M5.25,41.13c.07.08.17.1.26.08.05-.01.09-.04.13-.08.1-.12.09-.31-.02-.43-.11-.12-.28-.12-.38,0-.05.06-.07.13-.07.21,0,.08.03.16.09.22Z"/>
        <path class="cls-3" d="M6.25,39.56c.1-.12.08-.32-.04-.45-.12-.13-.3-.13-.4-.01-.1.12-.08.32.04.45s.3.13.4.01Z"/>
        <path class="cls-3" d="M4.86,39.85c-.11-.12-.28-.13-.37-.02-.09.11-.08.3.04.42.11.12.28.13.37.02.09-.11.08-.3-.04-.42Z"/>
        <path class="cls-3" d="M4.95,45.2c-.06.07-.07.17-.03.21.04.05.12.02.18-.05.06-.07.07-.17.03-.21-.04-.05-.12-.02-.18.05Z"/>
        <path class="cls-3" d="M5.07,43.42c.05-.06.03-.16-.03-.22-.06-.07-.15-.08-.2-.02-.05.06-.03.16.03.22.06.07.15.08.2.02Z"/>
        <path class="cls-3" d="M2.58,43.73c-.15-.16-.39-.14-.53.03-.15.18-.14.45,0,.6.15.16.39.14.53-.03.15-.18.14-.45,0-.6Z"/>
        <path class="cls-3" d="M3.64,44.4s0,0,0,0c-.03.04-.01.12.04.18,0,.01.02.02.03.03.05.04.1.04.13.01.03-.04.01-.12-.04-.18-.06-.06-.13-.08-.16-.04Z"/>
        <path class="cls-3" d="M7.37,41.57c.14-.17.12-.44-.04-.62-.03-.03-.07-.06-.1-.08-.1-.06-.2-.07-.3-.03-.05.02-.1.05-.14.1-.14.17-.12.44.04.62.16.17.41.18.54,0Z"/>
        <path class="cls-3" d="M4.93,38.45s.04-.06.06-.09c.09-.18.08-.4-.05-.55,0,0,0-.01-.01-.02-.16-.17-.42-.16-.58.03-.16.19-.16.49,0,.66.16.17.42.16.58-.03Z"/>
        <path class="cls-3" d="M2.97,37.61c.09.06.21.05.28-.04.03-.04.05-.09.06-.14,0-.08-.01-.16-.07-.22-.09-.1-.24-.09-.32.01-.09.1-.08.27,0,.36.01.01.02.02.04.03Z"/>
        <path class="cls-3" d="M4.56,36.47s.02.03.03.04c.13.14.33.15.43.03.11-.13.08-.35-.05-.49-.13-.14-.33-.15-.43-.03-.03.04-.05.08-.06.12-.02.11,0,.23.08.33Z"/>
        <path class="cls-3" d="M6.31,37.53c.11-.13.11-.32.01-.42-.1-.11-.26-.09-.37.04-.11.13-.11.32-.01.42.1.11.26.09.37-.04Z"/>
        <path class="cls-3" d="M7.29,38.66c.09-.1.08-.27,0-.36-.09-.1-.24-.09-.32.01-.09.1-.08.27,0,.36.09.1.24.09.32-.01Z"/>
        <path class="cls-3" d="M7.98,39.97c.09-.11.09-.29-.01-.39-.1-.11-.25-.1-.35.01-.09.11-.09.29.01.39.1.11.25.1.35-.01Z"/>
        <path class="cls-3" d="M6.47,42.81c-.06-.07-.16-.07-.21,0-.05.06-.04.17.02.24.06.07.16.07.21,0,.05-.06.04-.17-.02-.24Z"/>
        <path class="cls-3" d="M5.65,44.23s.05-.11.04-.17c0-.04-.02-.08-.05-.11-.07-.08-.18-.07-.25,0-.05.06-.06.15-.03.22,0,.02.02.04.04.06.07.08.18.07.25,0Z"/>
        <path class="cls-3" d="M5.06,42.1c.06-.07.05-.19-.02-.27-.07-.08-.18-.08-.24,0-.06.07-.05.19.02.27.07.08.18.08.24,0Z"/>
        <path class="cls-3" d="M1.44,40.39c.04-.08.03-.18-.03-.25-.07-.07-.17-.07-.23,0v.3s.02.02.04.03c.06-.06.15-.09.23-.08Z"/>
        <path class="cls-3" d="M2.54,45.73c-.09.1-.09.25-.02.34.08.08.21.07.3-.04.09-.1.09-.25.02-.34-.08-.08-.21-.07-.3.04Z"/>
        <path class="cls-3" d="M1.3,44.73c.06-.07.06-.18,0-.25-.03-.03-.07-.05-.12-.05v.36s.09-.02.12-.06Z"/>
        <path class="cls-3" d="M4.37,46.35s-.03.05-.04.08l.36.06s-.03-.1-.06-.14c-.08-.08-.19-.08-.26,0Z"/>
        <path class="cls-3" d="M6.83,45.19c0-.1-.1-.17-.2-.16-.11.01-.19.1-.18.2,0,.1.1.17.2.16.11-.01.19-.1.18-.2Z"/>
        <path class="cls-3" d="M8.02,43.6c-.16-.17-.41-.17-.56,0-.15.18-.13.46.03.63.16.17.41.17.56,0,.15-.18.13-.46-.03-.63Z"/>
        <path class="cls-3" d="M7.01,42.53c-.05.06-.05.16,0,.22.06.06.14.06.2,0s.05-.16,0-.22c-.06-.06-.14-.06-.2,0Z"/>
        <path class="cls-3" d="M6.2,38.42c-.05.06-.04.15.02.21.06.06.14.06.19,0,.05-.06.04-.15-.02-.21-.06-.06-.14-.06-.19,0Z"/>
        <path class="cls-3" d="M1.24,41.02c.13.07.29-.01.36-.18.07-.17.02-.36-.11-.43-.02,0-.04-.02-.05-.02-.08-.02-.16.01-.23.08-.01.01-.03.03-.04.04v.46s.04.04.07.05Z"/>
        <path class="cls-3" d="M2.3,39.02c.08-.2.02-.42-.13-.55-.03-.02-.05-.04-.08-.06-.16-.08-.34-.05-.46.07-.04.04-.07.09-.09.14-.02.05-.03.1-.03.15-.01.19.08.38.25.46.07.04.14.05.21.04.14-.01.28-.1.34-.26Z"/>
        <path class="cls-3" d="M1.96,37.16c.11.06.25,0,.3-.13.05-.13,0-.28-.11-.34-.11-.06-.25,0-.3.13-.05.13,0,.28.11.34Z"/>
        <path class="cls-3" d="M3.27,38.25s-.02.05-.02.08c-.04.17.02.33.14.39.14.07.32-.02.39-.21.07-.18.03-.38-.09-.46,0,0-.02,0-.02-.01-.14-.07-.32.02-.39.21Z"/>
        <path class="cls-3" d="M2.96,40.43c.14.07.3.02.36-.12.06-.14-.01-.31-.15-.38-.14-.07-.3-.02-.36.12-.06.14.01.31.15.38Z"/>
        <path class="cls-3" d="M2.52,41.38c-.11-.06-.25,0-.3.13-.05.13,0,.28.11.34.11.06.25,0,.3-.13.05-.13,0-.28-.11-.34Z"/>
        <path class="cls-3" d="M1.66,42.5c-.12-.06-.25,0-.31.11,0,0,0,.01-.01.02-.06.14,0,.3.12.37.12.06.27,0,.32-.14.04-.09.03-.19-.02-.27-.02-.04-.06-.08-.1-.1Z"/>
        <path class="cls-3" d="M2.2,40.6s0,0-.01,0c-.06-.03-.14,0-.17.09-.03.08,0,.17.05.2.06.03.14,0,.17-.08,0,0,0,0,0,0,.03-.07.01-.16-.04-.19Z"/>
        <path class="cls-3" d="M51.49,48.3c-.29.09-.46.44-.37.78.08.34.38.54.67.45.29-.09.46-.44.37-.78-.08-.34-.38-.54-.67-.45Z"/>
        <path class="cls-3" d="M53.86,49.16c-.05-.19-.22-.3-.39-.25-.04.01-.07.03-.11.06,0,.06,0,.12-.03.18-.02.06-.06.1-.1.14,0,.02,0,.05.01.07.05.19.22.3.39.25.17-.05.27-.25.22-.44Z"/>
        <path class="cls-3" d="M53.15,47.98s-.09-.01-.14,0c-.14.04-.22.2-.19.35.04.15.18.23.32.19.14-.04.22-.2.19-.35-.01-.05-.04-.09-.07-.13-.01,0-.03,0-.04-.02-.02-.01-.04-.03-.06-.05Z"/>
        <path class="cls-3" d="M53.03,46.13c-.16.05-.25.25-.2.45.05.2.22.32.38.27.16-.05.25-.25.2-.45-.05-.2-.22-.32-.38-.27Z"/>
        <path class="cls-3" d="M54.87,47.93s.06.04.08.06c0-.06,0-.12,0-.18-.05-.2-.21-.33-.36-.28-.15.05-.23.25-.18.45,0,0,0,.02,0,.03.12-.12.3-.16.46-.07Z"/>
        <path class="cls-3" d="M53.17,50.78c-.15.05-.24.22-.19.39.04.17.2.27.34.22.15-.05.24-.22.19-.39-.04-.17-.2-.27-.34-.22Z"/>
        <path class="cls-3" d="M55.74,50.17c-.04-.17-.19-.27-.33-.23.09.11.09.28,0,.4-.04.04-.08.07-.13.09.06.11.18.16.29.13.14-.04.22-.22.18-.39Z"/>
        <path class="cls-3" d="M56.67,49.16c-.05.06-.13.09-.2.09,0,.03,0,.06.01.09.04.18.19.29.33.25.14-.04.22-.23.17-.4-.04-.14-.14-.24-.25-.25,0,.09-.01.17-.07.23Z"/>
        <path class="cls-3" d="M55.18,48.78c-.13.04-.2.21-.16.38.04.17.18.27.31.23.13-.04.2-.21.16-.38-.04-.17-.18-.27-.31-.23Z"/>
        <path class="cls-3" d="M53.12,53.63c-.08.03-.14.1-.12.16.02.06.1.09.18.07.08-.03.14-.1.12-.16-.02-.06-.1-.09-.18-.07Z"/>
        <path class="cls-3" d="M53.88,51.94s0,.07,0,.11c.02.1.09.16.16.13.03,0,.05-.03.06-.06-.06-.03-.12-.07-.17-.13-.02-.02-.04-.04-.05-.06Z"/>
        <path class="cls-3" d="M51.77,50.99c-.05-.22-.26-.35-.47-.28-.2.06-.33.3-.27.52.05.22.26.35.47.28.2-.06.33-.3.27-.52Z"/>
        <path class="cls-3" d="M52.37,52.18s-.07.09-.05.18c.02.08.08.14.12.13.05-.01.07-.1.05-.18-.02-.08-.08-.14-.12-.13Z"/>
        <path class="cls-3" d="M56.63,51.08c-.2.06-.31.31-.25.55s.27.39.46.33c.2-.06.31-.31.25-.55s-.27-.39-.46-.33Z"/>
        <path class="cls-3" d="M55.75,47.13c-.08.11-.11.26-.07.4.04.18.18.31.35.33,0-.03.01-.05.02-.08.08-.19.25-.28.39-.21,0,0,.02,0,.02.01.04-.09.05-.2.02-.31-.05-.2-.21-.33-.39-.33,0,.05-.03.1-.06.14-.07.09-.19.11-.28.04Z"/>
        <path class="cls-3" d="M55.16,46.11c.12-.04.19-.18.16-.32-.03-.14-.16-.22-.28-.18-.12.04-.19.18-.16.32.03.14.16.22.28.18Z"/>
        <path class="cls-3" d="M57.14,46.27c.1-.03.17-.14.19-.27-.07-.1-.1-.22-.08-.33-.07-.11-.18-.16-.29-.13-.15.05-.23.25-.18.45s.21.33.36.28Z"/>
        <path class="cls-3" d="M57.76,47.88s.02,0,.03,0c.15-.05.24-.2.2-.35-.03-.13-.15-.21-.28-.19.12.15.14.37.05.55Z"/>
        <path class="cls-3" d="M57.99,48.93c-.12.04-.19.18-.16.32.03.14.16.22.28.18.12-.04.19-.18.16-.32-.03-.14-.16-.22-.28-.18Z"/>
        <path class="cls-3" d="M58.02,50.66c-.06-.06-.09-.14-.09-.22-.1.06-.16.19-.13.32.04.15.17.23.3.19.09-.03.15-.11.17-.21-.09.02-.18,0-.26-.08Z"/>
        <path class="cls-3" d="M55.33,52.36c-.07.02-.12.12-.09.21.02.1.1.15.18.13.07-.02.12-.12.09-.21-.02-.1-.1-.15-.18-.13Z"/>
        <path class="cls-3" d="M54.07,52.84c-.09.03-.15.14-.12.24.03.11.12.17.22.14.09-.03.15-.14.12-.24-.03-.11-.12-.17-.22-.14Z"/>
        <path class="cls-3" d="M54.63,51.06c.08-.03.13-.13.1-.24-.03-.11-.11-.17-.2-.14-.08.03-.13.13-.1.24,0,.02.01.04.02.05.06.02.11.05.16.09,0,0,.01,0,.02,0Z"/>
        <path class="cls-3" d="M52.41,47.23c-.03-.11-.12-.17-.22-.14-.09.03-.15.14-.12.24.03.11.12.17.22.14.09-.03.15-.14.12-.24Z"/>
        <path class="cls-3" d="M50.88,53.1s.02,0,.04,0c.12-.04.2-.16.17-.28-.03-.12-.15-.18-.27-.14-.12.04-.2.16-.17.28.02.09.1.15.18.15.02,0,.03,0,.05,0Z"/>
        <path class="cls-3" d="M50.13,50.74c-.08.03-.13.12-.11.22,0,.02.01.03.02.04.01,0,.03,0,.04.01.03.02.05.04.07.07.02,0,.04,0,.06,0,.08-.03.13-.12.11-.22-.02-.1-.11-.15-.19-.12Z"/>
        <path class="cls-3" d="M50.09,49.32s.08-.05.1-.1c-.03-.07-.04-.15-.02-.23-.04-.07-.12-.11-.19-.09-.09.03-.15.15-.12.26.03.12.13.19.22.16Z"/>
        <path class="cls-3" d="M52.32,54.44c-.03-.12-.13-.19-.22-.16-.09.03-.15.15-.12.26,0,0,0,0,0,0l.32.05s.03-.11.02-.17Z"/>
        <path class="cls-3" d="M54.63,54.48c-.1-.05-.2-.03-.24.06-.04.09,0,.2.1.26s.2.03.24-.06c.04-.09,0-.2-.1-.26Z"/>
        <path class="cls-3" d="M56.42,53.93c-.09-.15-.26-.23-.42-.18-.2.06-.32.31-.26.56.06.24.27.39.48.32.19-.06.3-.28.27-.5-.01,0-.02-.02-.03-.03-.06-.06-.07-.14-.04-.18Z"/>
        <path class="cls-3" d="M56.11,52.57c-.07.02-.12.11-.1.2.02.08.1.13.17.11.07-.02.12-.11.1-.2-.02-.08-.1-.13-.17-.11Z"/>
        <path class="cls-3" d="M57.36,48.88c.07-.02.1-.11.08-.19-.02-.08-.09-.14-.16-.12s-.1.11-.08.19c.02.08.09.14.16.12Z"/>
        <path class="cls-3" d="M54.44,52.03s.08.06.1.1c.06-.03.12-.08.17-.14.21-.25.19-.64-.04-.88-.02-.02-.04-.04-.06-.05-.05-.04-.1-.07-.16-.09-.2-.07-.42-.02-.56.16-.19.23-.19.58-.01.82.02.02.03.04.05.06.05.06.11.1.17.13,0,0,.02,0,.03.01.06-.12.2-.17.31-.11Z"/>
        <path class="cls-3" d="M56.31,50.46c-.13-.14-.33-.13-.44.02-.12.14-.11.37.01.5.13.14.33.13.44-.02.12-.14.11-.37-.01-.5Z"/>
        <path class="cls-3" d="M55.41,49.94s0,0,0-.01c-.1-.11-.26-.09-.36.03-.04.05-.06.11-.07.17.05.04.07.12.04.19,0,0,0,0,0,0,0,.01.02.03.03.04.06.07.15.09.23.06.05-.01.09-.04.13-.09.1-.12.1-.29,0-.4Z"/>
        <path class="cls-3" d="M54.7,48.88s.03-.05.04-.07c-.07,0-.14,0-.21-.04-.17-.09-.26-.27-.25-.46-.03.02-.05.04-.07.06-.11.14-.1.36.04.5.13.14.33.15.45.01Z"/>
        <path class="cls-3" d="M56.19,48.64c-.11.13-.08.35.05.49.07.07.15.11.23.11.08,0,.15-.02.2-.09.05-.06.07-.15.07-.23,0-.09-.05-.18-.12-.26-.13-.14-.33-.15-.43-.03Z"/>
        <path class="cls-3" d="M56.46,52.26c-.11.13-.1.33.01.45.11.12.29.11.4-.01.11-.13.1-.33-.01-.45-.11-.12-.29-.11-.4.01Z"/>
        <path class="cls-3" d="M58,50.22c-.05.06-.07.13-.07.21,0,.08.03.16.09.22.07.08.17.1.26.08.05-.01.09-.04.13-.08.1-.12.09-.31-.02-.43-.11-.12-.28-.12-.38,0Z"/>
        <path class="cls-3" d="M57.64,49.38c-.11-.12-.28-.13-.37-.02-.09.11-.08.3.04.42.11.12.28.13.37.02.09-.11.08-.3-.04-.42Z"/>
        <path class="cls-3" d="M57.72,54.72c-.06.07-.07.17-.03.21.04.05.12.02.18-.05.06-.07.07-.17.03-.21s-.12-.02-.18.05Z"/>
        <path class="cls-3" d="M57.85,52.95c.05-.06.03-.16-.03-.22-.06-.07-.15-.08-.2-.02-.05.06-.03.16.03.22.06.07.15.08.2.02Z"/>
        <path class="cls-3" d="M54.83,53.29c-.15.18-.14.45,0,.6.15.16.39.14.53-.03.15-.18.14-.45,0-.6-.15-.16-.39-.14-.53.03Z"/>
        <path class="cls-3" d="M56.42,53.93s0,0,0,0c-.03.04-.01.12.04.18,0,.01.02.02.03.03.05.04.1.04.13.01.03-.04.01-.12-.04-.18-.06-.06-.13-.08-.16-.04Z"/>
        <path class="cls-3" d="M57.7,47.97s.04-.06.06-.09c.09-.18.08-.4-.05-.55,0,0,0-.01-.01-.02-.16-.17-.42-.16-.58.03-.16.19-.16.49,0,.66.16.17.42.16.58-.03Z"/>
        <path class="cls-3" d="M55.75,47.13c.09.06.21.05.28-.04.03-.04.05-.09.06-.14,0-.08-.01-.16-.07-.22-.09-.1-.24-.09-.32.01-.09.1-.08.27,0,.36.01.01.02.02.04.03Z"/>
        <path class="cls-3" d="M57.34,46s.02.03.03.04c.13.14.33.15.43.03.11-.13.08-.35-.05-.49-.13-.14-.33-.15-.43-.03-.03.04-.05.08-.06.12-.02.11,0,.23.08.33Z"/>
        <path class="cls-3" d="M58.17,53.49c-.07.08-.06.21,0,.28.07.08.18.07.25,0,.07-.08.06-.21,0-.28-.07-.08-.18-.07-.25,0Z"/>
        <path class="cls-3" d="M57.84,51.63c.06-.07.05-.19-.02-.27-.07-.08-.18-.08-.24,0-.06.07-.05.19.02.27.07.08.18.08.24,0Z"/>
        <path class="cls-3" d="M54.22,49.91c.04-.08.03-.18-.03-.25-.07-.08-.18-.07-.25,0-.07.08-.06.21,0,.28.01.01.03.02.04.03.06-.06.15-.09.23-.08Z"/>
        <path class="cls-3" d="M53.85,54.02c-.06.07-.06.18,0,.25.06.07.16.06.22,0,.06-.07.06-.18,0-.25-.06-.07-.16-.06-.22,0Z"/>
        <path class="cls-3" d="M53.16,52.82c.07-.08.06-.21-.02-.29-.08-.08-.19-.08-.26,0s-.06.21.02.29c.08.08.19.08.26,0Z"/>
        <path class="cls-3" d="M50.22,46.82c.27.14.6,0,.73-.32.13-.32.01-.69-.26-.83-.27-.14-.6,0-.73.32-.13.32-.01.69.26.83Z"/>
        <path class="cls-3" d="M51.59,48.23c.16.08.34,0,.42-.18.07-.18,0-.39-.15-.47-.16-.08-.34,0-.42.18-.07.18,0,.39.15.47Z"/>
        <path class="cls-3" d="M51.69,46.67c-.06.14,0,.31.14.38.13.07.28.01.34-.13.06-.14,0-.31-.14-.38-.13-.07-.28-.01-.34.13Z"/>
        <path class="cls-3" d="M52.82,45.82c.15.08.33-.01.41-.2.08-.19.02-.41-.13-.48-.15-.08-.33.01-.41.2-.08.19-.02.41.13.48Z"/>
        <path class="cls-3" d="M53.1,47.55c-.06.16-.04.33.05.43.02.02.04.03.06.05.01,0,.03.01.04.02.13.04.28-.06.35-.23.08-.19.02-.4-.12-.48-.14-.07-.32.02-.39.21Z"/>
        <path class="cls-3" d="M50.19,49.21c.03.06.07.12.13.15.14.07.31,0,.37-.16.06-.16,0-.35-.14-.42-.14-.07-.31,0-.37.16,0,.01,0,.03-.01.04-.02.08-.01.16.02.23Z"/>
        <path class="cls-3" d="M52.51,50.37c.13.07.29,0,.36-.16.06-.16.01-.34-.12-.41-.13-.07-.29,0-.36.16-.06.16-.01.34.12.41Z"/>
        <path class="cls-3" d="M53.91,50.12c-.07.17-.02.36.11.43.13.07.29-.01.36-.18.07-.17.02-.36-.11-.43-.02,0-.04-.02-.05-.02-.08-.02-.16.01-.23.08-.03.03-.06.08-.08.13Z"/>
        <path class="cls-3" d="M53.34,49.14c.02-.06.03-.12.03-.18,0-.1-.05-.19-.13-.23-.12-.06-.27.01-.34.17-.06.16-.02.34.11.4.08.04.17.02.24-.04.04-.03.07-.08.1-.14Z"/>
        <path class="cls-3" d="M48.9,50.93c-.08-.04-.16-.03-.19.03-.02.06.02.14.1.18.08.04.16.03.19-.03.02-.06-.02-.14-.1-.18Z"/>
        <path class="cls-3" d="M50.42,50.5s.05.01.07,0c.04-.01.08-.05.1-.11.04-.09.02-.19-.05-.22-.06-.03-.14.01-.18.1,0,.02-.01.04-.02.06,0,.07.01.13.06.16Z"/>
        <path class="cls-3" d="M48.87,48.12c.19.1.42.01.5-.2.08-.21,0-.46-.2-.56s-.42-.01-.5.2c-.08.21,0,.46.2.56Z"/>
        <path class="cls-3" d="M49.03,49.56s.11-.02.14-.1c0,0,0-.02,0-.03.02-.07,0-.14-.03-.16-.04-.02-.11.02-.14.1-.02.06-.02.11,0,.15,0,.02.02.03.03.04Z"/>
        <path class="cls-3" d="M53.2,52.15c.09-.23.02-.49-.17-.59-.18-.1-.41.01-.5.24-.09.23-.02.49.17.59.18.1.41-.01.5-.24Z"/>
        <path class="cls-3" d="M54.53,48.76c.07.04.14.05.21.04.14-.01.28-.1.34-.26.08-.2.02-.42-.13-.55-.03-.02-.05-.04-.08-.06-.16-.08-.34-.05-.46.07-.04.04-.07.09-.09.14-.02.05-.03.1-.03.15-.01.19.08.38.25.46Z"/>
        <path class="cls-3" d="M54.74,46.69c.11.06.25,0,.3-.13.05-.13,0-.28-.11-.34-.11-.06-.25,0-.3.13-.05.13,0,.28.11.34Z"/>
        <path class="cls-3" d="M56.05,47.78s-.02.05-.02.08c-.04.17.02.33.14.39.14.07.32-.02.39-.21.07-.18.03-.38-.09-.46,0,0-.02,0-.02-.01-.14-.07-.32.02-.39.21Z"/>
        <path class="cls-3" d="M55.74,49.96c.14.07.3.02.36-.12.06-.14-.01-.31-.15-.38-.14-.07-.3-.02-.36.12-.06.14.01.31.15.38Z"/>
        <path class="cls-3" d="M55.41,51.25c.05-.13,0-.28-.11-.34-.11-.06-.25,0-.3.13-.05.13,0,.28.11.34.11.06.25,0,.3-.13Z"/>
        <path class="cls-3" d="M54.56,52.4c.04-.09.03-.19-.02-.27-.02-.04-.06-.08-.1-.1-.12-.06-.25,0-.31.11,0,0,0,.01-.01.02-.06.14,0,.3.12.37.12.06.27,0,.32-.14Z"/>
        <path class="cls-3" d="M51.31,51.58c-.07-.04-.16,0-.19.1-.04.09,0,.19.06.23.07.04.16,0,.19-.1.04-.09,0-.19-.06-.23Z"/>
        <path class="cls-3" d="M50.08,51.02s-.03-.01-.04-.01c-.08-.02-.16.03-.19.11-.04.1,0,.22.09.26.09.05.19,0,.23-.1.03-.06.02-.14-.01-.19-.02-.03-.04-.05-.07-.07Z"/>
        <path class="cls-3" d="M51.74,49.97c.04-.1,0-.21-.07-.25-.08-.04-.18,0-.22.11-.04.1,0,.21.07.25.08.04.18,0,.22-.11Z"/>
        <path class="cls-3" d="M51.77,45.62c.09.05.19,0,.23-.1.04-.1,0-.22-.09-.26-.09-.05-.19,0-.23.1-.04.1,0,.22.09.26Z"/>
        <path class="cls-3" d="M47.4,48.6c-.03.07-.02.15.03.21.02.04.06.07.1.09.07.04.15.03.21,0,.03-.02.06-.05.08-.09.01-.03.02-.06.01-.09,0-.09-.06-.17-.14-.22-.11-.06-.24-.02-.29.09Z"/>
        <path class="cls-3" d="M48.13,46.86c.08.04.17,0,.21-.09,0-.01,0-.02.01-.03.01-.05,0-.1-.02-.14-.02-.03-.04-.05-.06-.06-.08-.04-.17,0-.21.09-.04.09,0,.2.08.24Z"/>
        <path class="cls-3" d="M49.04,45.42c.09.05.19,0,.24-.12.04-.11,0-.24-.08-.28-.09-.05-.19,0-.24.12-.04.11,0,.24.08.28Z"/>
        <path class="cls-3" d="M47.75,50.68c-.09-.05-.19,0-.24.12-.04.11,0,.24.08.28.09.05.19,0,.24-.12.04-.11,0-.24-.08-.28Z"/>
        <path class="cls-3" d="M49.35,52.56c-.08.04-.11.16-.07.27.04.11.14.17.22.13.08-.04.11-.16.07-.27-.04-.11-.14-.17-.22-.13Z"/>
        <path class="cls-3" d="M51.03,53.13s-.1-.04-.15-.04c-.02,0-.03,0-.05,0-.13.02-.26.11-.32.27-.09.23-.01.5.18.6.19.1.42,0,.52-.23s.01-.5-.18-.6Z"/>
        <path class="cls-3" d="M51.79,52.31c-.07-.04-.15,0-.19.08-.03.08,0,.17.07.21.07.04.15,0,.19-.08.03-.08,0-.17-.07-.21Z"/>
        <path class="cls-3" d="M54.98,50.13s0,0-.01,0c-.06-.03-.14,0-.17.09-.03.08,0,.17.05.2.06.03.14,0,.17-.08,0,0,0,0,0,0,.03-.07.01-.16-.04-.19Z"/>
      </g>
    </g>
  </g>
</svg>