<?xml version="1.0" encoding="UTF-8"?>
<svg id="Layer_2" data-name="Layer 2" xmlns="http://www.w3.org/2000/svg" viewBox="0 0 67.05 86.73">
  <defs>
    <style>
      .cls-1 {
        fill: #d3deaa;
      }

      .cls-2 {
        fill: #5a871b;
      }

      .cls-3 {
        fill: #b8d47b;
      }

      .cls-4 {
        fill: #93bf41;
      }

      .cls-5 {
        fill: #cecdcc;
      }

      .cls-6 {
        fill: #62942f;
      }

      .cls-7 {
        fill: #eef0e1;
      }

      .cls-8 {
        fill: #4b7025;
      }
    </style>
  </defs>
  <g id="Layer_1-2" data-name="Layer 1">
    <g>
      <g>
        <path class="cls-2" d="M58.91,72.9s0,0,0,0c0,0,0,0,0,0,0,0,0,0,0,0Z"/>
        <path class="cls-2" d="M56.93,19.02s0,0,0,0c0,0,0,0,0,0Z"/>
        <path class="cls-2" d="M10.12,19.02s0,0,0,0c0,0,0,0,0,0Z"/>
        <path class="cls-2" d="M56.83,18.98s0,0,0,0c0,0,0,0,.01,0,0,0,0,0,0,0Z"/>
        <path class="cls-2" d="M10.22,18.98s0,0,0,0c0,0,0,0,0,0,0,0,0,0,.01,0Z"/>
        <path class="cls-2" d="M56.81,18.98s.01,0,.02,0c0,0-.01,0-.02,0Z"/>
        <path class="cls-2" d="M10.24,18.98s-.01,0-.02,0c0,0,.01,0,.02,0Z"/>
        <path class="cls-2" d="M36.93,69.46c0-.11,0-.22,0-.34-.05-.39-.31-.73-.63-.95-.24-.16-.51-.28-.78-.39-.27-.11-.55-.2-.82-.31-.26-.1-.52-.22-.78-.34,0,0,0,0,0,0,0,0-.02,0-.03-.01-.04-.02-.08-.04-.12-.06,0,0,0,0,.01,0-.26-.14-.52-.29-.78-.44-.27-.16-.55-.31-.85-.42-.32-.12-.7-.15-1.01.02-.16.09-.28.21-.37.37-.08.13-.11.29-.12.45,0,.2.03.39.06.59.06.29.16.59.31.85.2.34.48.64.77.9,0,.1.04.2.11.28.07.08.15.14.23.21.07.06.15.12.22.18.15.12.31.25.48.35.04.03.09.05.14.07,0,0,.02.01.03.02.17.11.33.22.52.3.16.07.32.11.49.15.18.04.37.05.56.05.1,0,.2,0,.3-.01.3-.02.6-.1.87-.22.27-.13.51-.31.74-.51.11-.09.2-.2.28-.32.1-.13.17-.3.18-.47ZM41.48,70.04c.04-.09.06-.21.04-.3-.01-.09-.03-.18-.08-.25-.08-.12-.17-.22-.3-.29-.13-.08-.28-.13-.42-.17-.19-.06-.4-.09-.6-.06-.08.01-.17.03-.25.05-.06.02-.12.04-.18.07-.03,0-.07-.01-.11,0-.27.03-.53.05-.77.18-.15.09-.27.2-.34.36-.08.17-.07.37,0,.55.05.15.15.28.29.36.05.03.11.06.16.08.13.06.27.1.41.12.19.03.38.05.58.05.06,0,.12,0,.17,0,.32-.02.62-.1.91-.24.08-.04.17-.09.24-.15.05-.04.1-.08.14-.13.05-.06.09-.13.12-.2ZM50.36,61.96c.06-.31.09-.63.09-.94,0-.3-.03-.6-.09-.89-.06-.32-.13-.63-.24-.93-.1-.29-.21-.58-.35-.84-.08-.14-.16-.28-.25-.41-.09-.13-.2-.26-.31-.38-.11-.12-.23-.22-.36-.33-.06-.05-.13-.1-.19-.14-.06-.03-.11-.07-.17-.1-.15-.08-.29-.15-.45-.21-.14-.06-.29-.09-.43-.12-.19-.04-.39-.06-.59-.05-.17,0-.35.05-.51.12-.16.07-.3.17-.43.28-.26.22-.45.52-.58.83-.12.29-.19.58-.24.89-.05.3-.07.6-.09.89-.02.28-.05.56-.1.83-.03.12-.06.23-.09.34-.03.07-.06.14-.09.21-.03.06-.07.12-.1.18-.04.06-.08.11-.13.17-.05.05-.1.11-.16.16-.06.05-.12.1-.18.14-.03.02-.06.04-.09.06-.07.04-.13.08-.2.11-.07.03-.14.06-.22.09-.08.02-.15.04-.23.06-.12.02-.24.04-.36.05-.1,0-.19,0-.29,0-.15-.01-.29-.03-.44-.06-.19-.05-.38-.1-.57-.16-.18-.07-.35-.14-.53-.22-.33-.17-.64-.35-.96-.54-.32-.19-.65-.39-.98-.56,0,0,0,0,0,0-.01,0-.02-.01-.03-.02-.03-.02-.06-.03-.09-.04,0,0,0,0,0,0-.29-.15-.6-.27-.91-.39-.16-.06-.33-.13-.49-.18-.16-.05-.32-.1-.49-.12-.14-.01-.29-.02-.43.02-.07.02-.14.04-.21.06-.14.05-.28.13-.4.24-.12.11-.22.24-.29.38-.07.13-.11.28-.13.42-.04.26,0,.53.08.78.08.25.2.48.33.7,0,0,0,0,0,0,0,.02,0,.04.01.06.01.05.02.11.04.16.06.23.15.46.28.67.08.14.18.27.27.4.12.16.26.31.41.46.14.15.29.28.45.41,0,0-.02-.02-.03-.02.23.21.49.38.75.56.26.18.54.34.82.49.54.29,1.11.51,1.7.67.16.04.32.08.48.12.16.04.32.06.48.09.14.02.28.04.42.05.09,0,.19.01.28.02.06,0,.12,0,.18,0,.09,0,.17,0,.26,0,.07,0,.13,0,.2,0,.16,0,.33-.01.49-.03.17-.02.33-.03.49-.05.16-.02.32-.05.48-.08.15-.03.31-.06.46-.09.13-.03.26-.06.39-.1.17-.05.33-.1.5-.15.15-.05.3-.11.45-.17.08-.03.16-.07.23-.1.05-.02.11-.05.16-.07.16-.08.32-.16.48-.24.27-.14.52-.3.78-.47.12-.08.24-.16.35-.24.13-.1.27-.2.39-.31.06-.05.12-.1.17-.15.05-.05.1-.11.15-.16.11-.11.2-.24.3-.36.09-.12.17-.26.25-.4.02-.04.04-.09.06-.13.02-.03.03-.06.05-.1.03-.07.06-.13.08-.2.11-.29.21-.59.27-.9ZM63.28,33.27c-.09,1.04-.18,2.08-.26,3.12-.17,1.96-.33,3.93-.5,5.89-.17,2.04-.35,4.08-.52,6.13-.17,1.99-.34,3.98-.51,5.97-.13,1.56-.26,3.11-.4,4.67-.02,0-.04-.02-.06-.02-.14-.05-.29-.09-.44-.11-.15-.02-.32-.03-.47,0-.11.02-.22.04-.33.08-.07.03-.13.06-.2.09-.13.07-.25.15-.36.24-.07.06-.14.12-.2.19-.12.13-.21.28-.27.45-.05.15-.08.31-.1.46-.03.31,0,.62.07.93.07.31.19.6.38.86.18.25.38.5.59.73.2.22.42.43.67.6.07.04.13.09.2.12.04.02.08.04.11.06-.07.86-.15,1.73-.22,2.59-.04.43-.07.85-.11,1.28-.08.01-.15.02-.23.03-.11,0-.22,0-.33,0-.1,0-.19-.02-.29-.03-.06-.01-.12-.02-.19-.03-.1-.02-.2-.05-.3-.09-.11-.04-.22-.08-.33-.13-.06-.03-.13-.06-.18-.1-.06-.04-.12-.07-.17-.11-.05-.04-.11-.07-.16-.11-.05-.04-.09-.08-.14-.12-.09-.08-.17-.16-.25-.25-.07-.09-.14-.18-.21-.27-.05-.07-.09-.14-.13-.21-.03-.05-.06-.11-.09-.17-.04-.1-.08-.19-.12-.29-.06-.18-.11-.37-.15-.56-.06-.34-.1-.69-.13-1.04-.03-.48-.05-.95-.09-1.43-.04-.43-.14-.86-.24-1.28-.22-.94-.54-1.85-.75-2.8-.04-.2-.07-.4-.08-.6-.01-.25-.02-.49,0-.74.02-.18.04-.35.07-.52.04-.18.09-.36.15-.54.08-.23.17-.45.28-.66.09-.17.19-.33.29-.49.11-.15.22-.3.34-.44.08-.09.17-.17.26-.26.06-.05.11-.09.17-.13.08-.05.15-.09.23-.13.11-.05.23-.1.34-.14.14-.05.29-.09.44-.12.08-.02.17-.03.25-.05.09-.02.17-.05.22-.12.07-.1.08-.25,0-.35-.08-.1-.2-.13-.33-.15-.15-.02-.3-.02-.45-.02-.32.02-.63.08-.94.15-.34.08-.66.18-.99.3-.31.11-.61.26-.88.44-.13.09-.26.18-.38.29-.1.09-.19.18-.28.28-.1.11-.19.23-.27.36-.08.13-.15.25-.22.39-.27.55-.45,1.15-.49,1.76-.02.31-.02.63,0,.94.02.32.04.63.07.95.06.61.12,1.22.17,1.83.03.45.05.91.06,1.36.01.44,0,.88-.02,1.32-.02.22-.03.44-.06.66-.02.21-.06.42-.1.62-.04.17-.08.33-.13.5-.05.17-.1.33-.16.5-.06.15-.11.3-.17.45-.06.14-.12.28-.19.42-.08.16-.16.31-.25.47-.09.16-.19.31-.29.46-.11.16-.23.33-.35.49-.12.16-.25.31-.38.47-.09.1-.18.2-.28.3-.09.09-.17.17-.26.25-.16.14-.32.27-.49.4-.16.12-.33.24-.5.35-.23.15-.46.3-.7.43-.21.12-.43.24-.64.35-.43.21-.87.41-1.32.59-.47.19-.95.37-1.43.54-.32.11-.65.22-.98.31-.36.1-.72.19-1.08.27-.4.08-.8.16-1.21.21-.21.03-.43.05-.64.07-.19.02-.38.03-.57.05-.6.03-1.2.05-1.8.04-.6,0-1.2-.02-1.81-.04-1.19-.03-2.38-.05-3.57-.13-.3-.02-.59-.04-.89-.08-.31-.04-.61-.08-.91-.14-.13-.03-.26-.05-.39-.09-.13-.04-.26-.07-.39-.11-.11-.04-.22-.08-.33-.12-.1-.05-.2-.09-.3-.14-.15-.08-.29-.16-.43-.25-.13-.09-.25-.19-.37-.29-.15-.14-.29-.28-.42-.42-.17-.19-.32-.39-.47-.6-.14-.21-.27-.42-.38-.65-.12-.24-.22-.49-.31-.75-.2-.59-.36-1.2-.6-1.79-.12-.29-.25-.57-.41-.84-.14-.23-.3-.45-.48-.65-.37-.43-.8-.81-1.27-1.13-.48-.34-1-.64-1.55-.85-.28-.11-.57-.2-.87-.27-.31-.07-.63-.14-.95-.16-.16-.01-.32-.02-.47-.03-.15,0-.3,0-.45,0-.28.01-.55.05-.82.11-.28.05-.56.13-.83.22-.26.09-.5.2-.75.32-.49.25-.98.57-1.34,1-.18.22-.35.46-.46.72-.07.16-.1.33-.1.5,0,.15.04.31.11.44.09.15.22.28.39.34.12.04.24.04.36.02.15-.03.29-.09.44-.12.05,0,.1-.02.15-.02.04,0,.09,0,.13,0,.06,0,.12.02.19.03.1.02.19.05.29.08.16.06.32.13.47.2.11.06.22.12.33.19.06.04.11.08.17.13.04.04.08.08.12.13.03.03.05.06.07.09.03.04.05.08.07.12.03.07.06.14.08.2.03.09.05.18.07.27.02.09.03.18.04.28,0,.06,0,.11,0,.17,0,.03,0,.07-.01.1-.01.04-.02.09-.04.13-.01.04-.03.07-.05.11-.02.04-.04.08-.07.12-.01.02-.03.04-.04.06-.03.03-.06.07-.1.1-.03.03-.06.05-.1.07-.04.03-.09.05-.13.08-.07.03-.14.06-.21.09-.11.04-.23.07-.35.09-.24.04-.49.07-.73.09-.18,0-.36,0-.54,0,0,0-.02,0-.03,0,0,0,0,0,0,0,0,0,0,0-.01,0,0,0,0,0-.01,0,0,0,0,0,0,0,0,0-.02,0-.03,0-.26-.02-.51-.05-.77-.11-.13-.03-.25-.06-.38-.1-.17-.06-.34-.14-.5-.22-.17-.09-.34-.18-.5-.29-.15-.11-.3-.22-.44-.34-.16-.15-.31-.3-.46-.46-.09-.1-.17-.21-.25-.32-.09-.13-.17-.27-.24-.41-.08-.17-.15-.33-.21-.5-.06-.18-.11-.35-.15-.54-.02-.13-.04-.25-.05-.38,0-.16,0-.31,0-.46.02-.2.05-.4.09-.6.05-.24.11-.48.17-.72.07-.25.14-.5.2-.76,0-.04.02-.08.03-.11,0-.02,0-.04.01-.06.02-.06.02-.12.03-.18.02-.14.03-.28.03-.42,0-.13-.02-.27-.04-.4-.02-.13-.05-.27-.08-.4-.04-.16-.08-.33-.15-.48-.06-.14-.14-.27-.22-.39-.17-.24-.39-.45-.61-.63-.23-.19-.48-.35-.75-.49-.27-.14-.58-.24-.89-.28-.15-.02-.3-.03-.45-.03-.14,0-.29,0-.43.02-.15.01-.3.04-.45.07-.14.03-.27.07-.4.11,0,0,0,0-.01,0-.21.07-.41.15-.61.24-.21.1-.41.2-.61.31-.2.11-.39.23-.58.36-.05.03-.1.07-.15.11-.04.03-.08.06-.12.09-.08.06-.17.13-.25.19-.23.2-.47.4-.67.63-.2.23-.41.46-.59.71-.1.14-.2.28-.3.42-.08.12-.16.25-.24.37-.11.18-.21.36-.31.55-.1-1.12-.19-2.24-.29-3.37-.17-1.99-.34-3.98-.51-5.97-.17-1.99-.34-3.98-.51-5.97-.17-2.04-.35-4.08-.52-6.13-.17-1.96-.33-3.93-.5-5.89-.12-1.4-.24-2.81-.36-4.21.01,0,.03-.01.04-.02.07-.04.11-.1.13-.17,0-.01,0-.03.01-.04.02-.05.04-.1.06-.15,0,.15.02.29.04.44.01.09.04.17.06.26,0,.03.02.06.03.08,0,.04.02.07.03.11.02.06.03.12.05.19.03.12.07.24.11.37.17.54.35,1.08.52,1.62.17.57.34,1.15.49,1.73.14.55.27,1.11.38,1.66.18.9.35,1.79.49,2.7.07.45.13.9.2,1.35.07.46.15.91.24,1.36.12.61.23,1.23.38,1.83.07.29.14.58.24.86.05.14.09.28.15.42.05.11.1.22.17.31.07.09.15.19.25.24.03.02.06.03.09.05.03.01.06.02.09.03.04.01.09.01.13.01.09,0,.17-.04.25-.09.09-.06.14-.14.19-.23.03-.05.05-.11.06-.16.02-.07.03-.14.04-.21.04-.3.03-.6,0-.9-.05-.6-.11-1.19-.15-1.79-.08-1.26-.09-2.53,0-3.79.02-.25.04-.5.06-.75.02-.23.04-.45.09-.68.05.1.1.19.15.29.11.2.21.4.33.59.23.41.48.82.71,1.23.54.97,1,2,1.64,2.91.08.12.17.24.26.35.08.09.15.19.24.27.06.06.13.11.2.15.07.04.16.07.24.08.08.02.17,0,.25-.02.08-.02.15-.07.21-.12.12-.09.21-.24.26-.38.05-.12.09-.24.12-.37.06-.26.11-.53.16-.8.06-.27.13-.55.22-.81.04-.1.08-.2.13-.3.02-.04.04-.08.07-.12.01-.02.03-.03.04-.05.01-.02.03-.03.05-.05.02-.01.03-.02.05-.04.02,0,.03-.02.05-.03,0,0,.02,0,.02,0,0,0,.01,0,.02,0,0,0,.01,0,.02,0h.01s.01,0,.02,0c.01,0,.02,0,.04,0,.01,0,.03.01.04.02.02.01.05.03.07.04.03.02.06.04.09.07.05.05.1.09.14.14.1.12.2.24.29.37.18.27.34.56.5.85.22.45.42.9.58,1.37.08.23.15.46.21.7.06.24.12.49.17.73.07.34.13.68.19,1.03.06.35.13.69.19,1.04.06.37.12.75.18,1.12.05.33.1.66.16.98.03.13.05.26.08.39.03.14.07.28.14.41.08.16.2.34.39.39.07.02.15.02.22,0,.07-.02.13-.07.19-.12.07-.07.12-.19.14-.29.02-.08.03-.17.04-.25.02-.15.03-.29.03-.44.01-.31.02-.62.03-.94.02-1.21.02-2.42.09-3.62.02-.25.04-.5.08-.74.03-.25.08-.49.13-.74.11-.52.25-1.03.42-1.54.11-.32.24-.62.38-.93.19-.37.4-.74.62-1.09.05-.07.1-.14.16-.21.03-.03.06-.07.1-.1.02-.01.03-.02.05-.04.02,0,.03-.02.05-.03.01,0,.03-.01.04-.02.02,0,.03,0,.05-.02-.01,0-.02,0-.04,0,.05-.01.11-.02.16-.02-.01,0-.03,0-.04,0,.02,0,.04,0,.06,0,.02,0,.04,0,.06,0,.08.02.15.04.22.06.09.04.18.07.27.12.1.05.2.11.29.17.13.09.25.19.37.29.11.1.22.21.32.32.08.09.15.19.22.29.13.2.24.41.35.63.32.65.61,1.33.86,2.01.13.36.25.73.34,1.1.1.37.19.75.26,1.12.26,1.32.42,2.65.52,3.99.05.74.09,1.48.14,2.22.04.64.09,1.29.16,1.93.07.63.17,1.26.28,1.89.1.6.21,1.19.33,1.78.06.29.11.58.18.86.03.14.07.28.12.41.03.07.06.14.1.2.04.06.1.09.16.11.02,0,.05.01.07.01.1,0,.2-.05.25-.14.04-.07.05-.13.06-.21,0-.07,0-.13,0-.2,0-.14,0-.27,0-.41,0-.26,0-.52,0-.79-.01-1.25-.03-2.5-.05-3.74,0-.65-.02-1.31-.02-1.96,0-.33,0-.67.01-1,0-.33.02-.65.04-.98.04-.53.08-1.06.16-1.59.08-.52.17-1.03.27-1.55.12-.59.25-1.18.4-1.76.15-.57.32-1.14.51-1.7.17-.48.34-.95.56-1.41.03-.06.06-.12.1-.17.02-.02.03-.04.05-.07.01-.02.03-.03.04-.05.01-.01.02-.02.04-.03,0,0,.02-.01.03-.02,0,0,0,0,.01,0,0,0,0,0,0,0,0,0,0,0,.01,0,0,0,.01,0,.02.01.01.01.03.02.04.03,0,0-.02-.02-.03-.02.04.03.08.07.11.11.07.09.14.18.21.28.29.46.55.93.8,1.41.25.5.5,1,.79,1.48.06.1.13.21.2.31.04.05.07.11.12.16.07.08.14.15.22.22.14.11.31.17.48.21.17.04.35.04.53.02.13-.02.27-.06.39-.11.12-.05.24-.09.36-.15.13-.05.25-.11.37-.17.11-.05.21-.1.32-.14.03-.01.06-.02.1-.03.02,0,.04,0,.06,0,.01,0,.03,0,.04,0,.01,0,.02,0,.03,0,0,0,.02,0,.03,0,.01,0,.02,0,.03.01.02,0,.03.02.05.03.04.02.07.05.1.08,0,0-.02-.02-.03-.02.02.02.04.04.06.06.04.04.07.09.11.13.08.12.15.25.22.38.15.32.29.65.41.98.06.19.12.38.18.58.02.09.05.18.07.27.02.07.03.14.05.2.04.12.09.22.2.29.09.06.21.05.31.01.06-.03.12-.07.17-.12.04-.05.08-.09.12-.14.06-.09.11-.17.16-.26.1-.18.19-.38.28-.57.09-.2.17-.39.24-.59.16-.44.31-.89.46-1.33.08-.24.16-.47.26-.7.09-.22.18-.43.29-.65.12-.23.24-.45.37-.67.04-.06.08-.12.13-.17.02-.02.03-.03.05-.05.01-.01.03-.02.04-.04,0,0-.02.01-.03.02.03-.02.06-.04.1-.06.01,0,.03,0,.04-.01.01,0,.02,0,.03,0,.01,0,.02,0,.03,0,.01,0,.02,0,.04,0,.01,0,.03,0,.04.01.02,0,.03.01.05.02.02.01.04.03.06.04.02.02.04.03.07.05.04.04.09.08.13.13.06.08.12.15.18.23.06.09.11.18.16.28.1.22.19.44.27.66.13.39.24.8.35,1.2.05.18.1.36.15.54.02.05.03.11.06.16.03.06.05.12.09.17.04.05.07.08.12.12.04.03.09.05.14.06.12.03.24-.01.33-.08.11-.09.18-.22.25-.34.1-.18.17-.36.24-.55.14-.36.25-.73.38-1.09.22-.63.46-1.26.75-1.86.04-.08.09-.16.13-.24.02-.03.05-.06.07-.09.03-.03.05-.05.08-.08.03-.02.06-.05.09-.07.04-.02.07-.04.11-.07.07-.03.13-.06.2-.08.08-.02.16-.05.24-.06.08-.01.16-.02.24-.03.06,0,.11,0,.17,0,.08,0,.15.02.22.03.05.01.11.03.16.04.07.03.14.06.22.09.07.04.14.08.2.12.06.04.12.09.18.14.04.04.08.08.12.12.06.07.11.14.16.21.07.11.13.21.19.32.06.12.1.23.15.36.16.48.25.99.37,1.48.11.47.21.94.34,1.4.03.11.06.23.09.34.03.1.05.2.1.29.06.13.13.25.27.31.11.05.24.03.34-.04.12-.07.2-.22.25-.34.05-.11.09-.22.13-.33.08-.23.16-.46.24-.7.07-.19.13-.39.2-.58.43-1.18.9-2.35,1.36-3.53.43-1.1.89-2.18,1.42-3.23,0,0,0,0,0,0,.07-.13.13-.27.21-.39.01.02.03.05.04.08.04.09.08.18.11.27.1.29.17.58.23.88.07.38.13.76.19,1.14.03.17.05.34.08.51.01.09.03.18.04.26.01.08.03.17.06.25.02.04.04.08.07.12.03.04.06.06.1.08.08.05.19.05.28.02.1-.04.17-.12.23-.21.06-.1.11-.19.15-.29.15-.31.3-.63.45-.94.27-.54.55-1.07.88-1.58.05-.07.1-.13.15-.2.02-.02.03-.03.05-.05.02-.01.03-.02.05-.04.01,0,.03-.02.04-.03.01,0,.03-.01.04-.02.01,0,.03,0,.04-.01.01,0,.03,0,.04,0,.01,0,.02,0,.03,0,.01,0,.03,0,.04,0,.02,0,.03.01.05.02.02.01.04.02.06.03.02.02.04.03.06.05.03.03.06.06.1.1.03.04.07.09.1.13.05.08.09.15.13.23.06.13.11.26.16.39.08.25.14.5.19.75.08.41.13.83.16,1.25.03.58.04,1.16.04,1.74,0,.55,0,1.1.03,1.65.03,1.1.08,2.21.12,3.31,0,.11,0,.22.02.33,0,.11.01.22.06.31.07.14.22.22.37.18.15-.04.23-.19.3-.32.07-.13.12-.28.16-.42.04-.13.09-.27.12-.4.08-.27.15-.54.21-.82.26-1.18.43-2.37.66-3.56.14-.67.29-1.33.48-1.99.18-.65.4-1.29.62-1.92,0,0,0-.01,0-.02,0,0,0,0,0,0,.18-.52.37-1.03.6-1.52.21-.41.44-.81.7-1.19,0,0,0,0,0,0,.06-.09.13-.18.2-.27,0,0,0,0,0,0,.03.11.06.23.09.34.06.28.11.56.16.84.04.21.07.43.14.64.04.13.13.28.26.33.07.03.14.05.22.03.06,0,.13-.03.19-.06.24-.15.4-.38.55-.61.15-.22.29-.45.42-.69.12-.23.24-.47.35-.71.22-.48.44-.95.65-1.44.23-.55.47-1.11.66-1.68.04-.13.08-.25.12-.38Z"/>
        <path class="cls-2" d="M63.87,24.57c.07.29.1.6.07.9,0,.06-.01.12-.03.17,0,.02,0,.05,0,.07,0,.06,0,.12-.01.18,0,.06,0,.11-.01.16,0,.11-.02.21-.03.32-.04.45-.08.9-.12,1.36-.01.16-.03.32-.04.48-.05-.04-.11-.08-.17-.12-.16-.09-.33-.17-.51-.22-.17-.05-.34-.09-.51-.12-.26-.04-.52-.06-.78-.07-.3-.01-.61-.02-.91,0-.65.03-1.3.07-1.94.14-1.31.13-2.62.29-3.93.44-1.32.15-2.65.3-3.97.46-1.3.15-2.6.32-3.9.48-1.28.16-2.56.31-3.84.44-.67.07-1.33.14-2,.2-.64.06-1.28.1-1.92.15-1.26.08-2.51.14-3.77.15-.63,0-1.26,0-1.9-.02-.64-.02-1.29-.06-1.93-.1,0,0-.01,0-.02,0,0,0-.01,0-.02,0,0,0,.01,0,.02,0-.53-.04-1.07-.08-1.6-.13-1.31-.12-2.62-.26-3.94-.4-.6-.07-1.21-.14-1.81-.22-.33-.05-.67-.09-1-.15-.31-.05-.62-.11-.93-.17-.11-.02-.23-.05-.34-.07-1.23-.26-2.43-.66-3.64-1.02-.61-.18-1.23-.35-1.85-.49-.6-.13-1.2-.26-1.8-.38.01,0,.02,0,.04,0-.01,0-.03,0-.04,0-.01,0-.02,0-.03,0-.04,0-.07-.02-.11-.02-.01,0-.02,0-.04,0,0,0-.02,0-.03,0-.6-.12-1.2-.25-1.8-.37-.59-.11-1.19-.23-1.79-.3-.28-.03-.57-.06-.86-.07-.15,0-.3,0-.45.01-.15.01-.29.04-.43.07-.29.06-.56.15-.84.25-.26.09-.52.2-.77.31-.28.13-.55.26-.82.42-.27.15-.53.31-.78.49-.47.34-.89.77-1.24,1.24-.33.43-.62.9-.88,1.38-.13.24-.24.48-.36.73,0,.01,0,.02-.01.03-.02-.23-.04-.47-.06-.7-.08-.9-.15-1.8-.23-2.7-.04-.45-.08-.9-.12-1.36,0-.11-.02-.21-.03-.32,0-.06,0-.11-.01-.16,0-.06-.01-.12-.01-.18,0-.02,0-.05,0-.07-.02-.06-.03-.11-.03-.17-.02-.3,0-.61.07-.9.04-.16.09-.32.15-.47.06-.15.11-.3.19-.44.14-.27.32-.53.5-.78.36-.51.82-.94,1.31-1.32.25-.2.51-.38.77-.56.26-.18.53-.35.8-.5.25-.14.51-.27.77-.4.27-.14.54-.27.82-.39.27-.12.55-.24.83-.36.27-.11.54-.23.81-.32,0,0,0,0,0,0,0,0,.01,0,.02,0,.01,0,.03-.01.04-.01,0,0,0,0,0,0,0,0,.01,0,.02,0,0,0,0,0,.01,0,0,0,.01,0,.02,0,.15-.05.31-.11.47-.16.06-.02.12-.04.18-.06.08-.03.16-.05.24-.08.12-.04.24-.07.36-.11.06-.02.12-.04.18-.06.1-.03.21-.07.31-.1.61-.19,1.21-.38,1.83-.56.59-.17,1.18-.34,1.77-.5.62-.18,1.24-.34,1.86-.51.29-.08.59-.16.88-.23.31-.08.62-.15.93-.22.3-.07.59-.13.89-.2.31-.07.62-.12.93-.18.62-.12,1.24-.23,1.87-.33.61-.1,1.22-.2,1.83-.28.31-.04.62-.07.93-.1.3-.03.59-.06.89-.08.59-.05,1.19-.08,1.78-.12,1.09-.07,2.18-.12,3.26-.19h0s.02,0,.03,0h.01c.28-.02.56-.04.84-.06.31-.02.62-.06.93-.04.03,0,.05,0,.08.01.03,0,.05-.01.08-.01.31-.02.62.02.93.04.28.02.56.04.83.06h.01s.02,0,.04,0h0c1.09.07,2.17.13,3.26.19.59.04,1.19.07,1.78.12.3.02.59.05.89.08.31.03.62.06.93.1.61.08,1.22.18,1.83.28.62.11,1.25.21,1.87.33.31.06.62.12.93.18.3.06.59.13.89.2.31.07.62.14.93.22.3.07.59.15.88.23.62.17,1.24.33,1.86.51.59.17,1.18.33,1.77.5.61.18,1.22.37,1.83.56.14.05.29.09.44.14.04.01.09.03.13.04.04.01.08.03.12.04.09.03.19.06.28.09.08.02.16.05.23.07.01,0,.02,0,.03.01.05.02.09.03.14.05.06.02.11.04.17.06.07.02.13.04.2.07,0,0,.01,0,.02,0,0,0,0,0,.01,0,0,0,.01,0,.02,0,0,0,0,0,0,0,.01,0,.03,0,.04.01h0c.28.1.56.21.83.33.28.12.55.24.83.36.28.12.55.25.82.39.26.13.52.26.77.4.27.16.54.33.8.5.26.18.52.36.77.56.49.39.95.81,1.31,1.32.18.25.35.51.5.78.08.14.13.29.19.44.06.15.11.31.15.47Z"/>
        <path class="cls-3" d="M18.66,70.2s.02,0,.03,0c-.01,0-.02,0-.03,0Z"/>
        <path class="cls-3" d="M18.66,69.63s0,0,0,0c0,0,0,0,0,0Z"/>
        <path class="cls-3" d="M18.21,66.24s0,0,0,0c0,0,0,0,0,0,0,0,0,0,0,0h0Z"/>
        <path class="cls-3" d="M10.81,59.73s-.02,0-.03.01c.01,0,.02,0,.03-.01Z"/>
        <path class="cls-3" d="M39.21,60.99s0,0,0,0c0,0,0,0,0,0,0,0,0,0,0,0Z"/>
        <path class="cls-3" d="M39.46,60.48s.02,0,.03.01c0,0-.02,0-.03-.01Z"/>
        <path class="cls-3" d="M39.43,60.46s.01,0,.02,0c0,0-.01,0-.02,0Z"/>
        <path class="cls-3" d="M33.5,67.57s.01,0,.02.01c0,0-.01,0-.02-.01Z"/>
        <path class="cls-3" d="M33.49,67.57s0,0,0,0c0,0,0,0,0,0Z"/>
        <path class="cls-3" d="M33.49,67.56s0,0,0,0c0,0,0,0,0,0,0,0,0,0,0,0Z"/>
        <path class="cls-3" d="M43.65,70.42s0,0,0,0c0,0,0,0-.01,0,0,0,0,0,0,0Z"/>
        <path class="cls-3" d="M43.66,70.42s0,0,0,0c0,0,0,0,0,0Z"/>
        <path class="cls-3" d="M43.69,70.42s-.01,0-.02,0c0,0,.01,0,.02,0Z"/>
        <path class="cls-3" d="M43.8,69.74s0,0,0,0c0,0,0,0,0,0,0,0,0,0,0,0,0,0,0,0,0,0Z"/>
        <path class="cls-3" d="M43.82,69.7s0,0,0,0c0,0,0,0,0,0,0,0,0,0,0,0,0,0,0,0,0,0Z"/>
        <path class="cls-3" d="M43.64,68.9s-.01,0-.02,0c0,0,.01,0,.02,0Z"/>
        <path class="cls-3" d="M18.28,66.3s0,0,0,0c0,0,0,0,0,0t0,0ZM60.37,67.61c-.02.19-.03.39-.05.58-.1,1.17-.2,2.35-.3,3.52,0,0,0,0,0,.01,0,.04,0,.08-.01.13,0,0,0,0,0,0,.03.17-.06.33-.13.48-.13.26-.26.51-.42.75-.31.48-.67.93-1.08,1.32-.21.2-.45.38-.69.55-.25.17-.5.34-.76.5-.48.31-.98.6-1.48.87-.52.28-1.07.5-1.62.73-1.08.46-2.16.93-3.26,1.32-.13.05-.27.09-.4.14-.55.19-1.11.37-1.66.55-.55.18-1.1.36-1.66.52-1.14.34-2.3.59-3.48.81-.29.05-.57.11-.86.15-.29.05-.58.08-.88.12-.6.07-1.2.15-1.8.24-1.17.17-2.34.33-3.52.46-.53.06-1.06.11-1.59.11-.02,0-.05,0-.07,0-.38,0-.76-.02-1.13-.05-.38.03-.75.05-1.13.05-.56,0-1.11-.05-1.66-.11-1.18-.13-2.35-.29-3.52-.46-.6-.09-1.2-.17-1.8-.24-.29-.03-.59-.07-.88-.12-.29-.05-.57-.1-.86-.15-1.17-.22-2.33-.47-3.48-.81-.55-.16-1.11-.34-1.66-.52-.55-.18-1.11-.36-1.66-.55-.13-.05-.27-.09-.4-.14-1.11-.39-2.19-.86-3.27-1.32-.54-.23-1.1-.45-1.62-.73-.5-.28-1-.57-1.48-.87-.26-.16-.51-.33-.76-.5-.24-.17-.48-.35-.69-.55-.41-.39-.78-.84-1.08-1.32-.15-.24-.29-.49-.42-.75-.07-.15-.16-.31-.13-.48,0,0,0,0,0,0,0-.04,0-.08-.01-.13,0,0,0,0,0-.01-.15-1.8-.3-3.59-.46-5.39-.04-.48-.08-.96-.12-1.45-.03-.39-.07-.77-.1-1.16.1-.19.2-.37.31-.55.08-.12.16-.25.24-.37.1-.14.2-.28.3-.42.18-.25.38-.48.59-.71.2-.23.44-.43.67-.63.08-.07.17-.13.25-.19.04-.03.08-.06.12-.09.05-.04.1-.07.15-.11.19-.12.38-.25.58-.36.2-.11.4-.21.61-.31.2-.09.4-.17.61-.24,0,0,0,0,.01,0,.13-.05.27-.08.4-.11.15-.03.3-.06.45-.07.14-.01.29-.02.43-.02.15,0,.3.02.45.03.31.04.61.14.89.28.26.14.52.3.75.49.22.19.44.39.61.63.09.13.16.25.22.39.07.15.11.32.15.48.03.13.06.27.08.4.02.13.04.27.04.4,0,.14-.01.28-.03.42,0,.06-.02.12-.03.18,0,.02,0,.04-.01.06,0,.04-.02.08-.03.11-.06.26-.13.51-.2.76-.06.24-.12.48-.17.72-.04.2-.07.4-.09.6,0,.15,0,.31,0,.46.01.13.03.26.05.38.04.18.09.36.15.54.06.17.13.34.21.5.07.14.15.28.24.41.08.11.16.21.25.32.15.16.3.32.46.46.14.12.29.24.44.34.16.1.33.2.5.29.16.08.33.16.5.22.12.04.25.07.38.1.25.05.51.08.77.11,0,0,.02,0,.03,0,0,0,0,0,0,0,0,0,0,0,.01,0,0,0,0,0,.01,0,0,0,0,0,0,0,0,0,.02,0,.03,0,.18,0,.36.01.54,0,.25-.02.49-.05.73-.09.12-.02.23-.05.35-.09.07-.03.14-.06.21-.09.05-.02.09-.05.13-.08.03-.02.06-.05.1-.07.03-.03.07-.06.1-.1.02-.02.03-.04.04-.06.02-.04.05-.08.07-.12.02-.04.03-.07.05-.11.01-.04.03-.09.04-.13,0-.03,0-.06.01-.1,0-.06,0-.11,0-.17,0-.09-.02-.18-.04-.28-.02-.09-.04-.18-.07-.27-.03-.07-.05-.14-.08-.2-.02-.04-.05-.08-.07-.12-.02-.03-.05-.06-.07-.09-.04-.04-.08-.09-.12-.13-.05-.05-.11-.09-.17-.13-.11-.07-.22-.13-.33-.19-.15-.08-.31-.14-.47-.2-.09-.03-.19-.06-.29-.08-.06-.01-.12-.02-.19-.03-.04,0-.09,0-.13,0-.05,0-.1.01-.15.02-.15.04-.29.1-.44.12-.12.02-.25.02-.36-.02-.17-.06-.3-.19-.39-.34-.08-.13-.11-.29-.11-.44,0-.17.03-.34.1-.5.11-.27.28-.5.46-.72.36-.43.84-.74,1.34-1,.24-.12.49-.23.75-.32.27-.09.55-.17.83-.22.27-.05.55-.09.82-.11.15,0,.3,0,.45,0,.16,0,.32.02.47.03.32.03.64.09.95.16.3.07.59.17.87.27.55.21,1.07.51,1.55.85.46.33.89.71,1.27,1.13.18.2.34.42.48.65.16.27.29.55.41.84.24.58.4,1.19.6,1.79.09.25.19.5.31.75.12.22.24.44.38.65.15.21.3.41.47.6.14.15.28.29.42.42.12.1.24.2.37.29.14.09.28.18.43.25.1.05.2.1.3.14.11.05.22.08.33.12.13.04.26.08.39.11.13.04.26.06.39.09.3.06.61.1.91.14.29.04.59.06.89.08,1.19.07,2.38.1,3.57.13.6.02,1.2.03,1.81.04.6,0,1.2-.01,1.8-.04.19-.01.38-.03.57-.05.22-.02.43-.05.64-.07.41-.05.81-.13,1.21-.21.36-.08.72-.17,1.08-.27.33-.09.65-.2.98-.31.48-.17.95-.35,1.43-.54.45-.18.89-.38,1.32-.59.22-.11.43-.23.64-.35.24-.14.47-.28.7-.43.17-.11.34-.23.5-.35.17-.13.33-.26.49-.4.09-.08.18-.17.26-.25.09-.1.19-.2.28-.3.13-.15.26-.31.38-.47.12-.16.23-.32.35-.49.1-.15.19-.3.29-.46.09-.15.17-.31.25-.47.07-.14.13-.28.19-.42.06-.15.12-.3.17-.45.06-.16.11-.33.16-.5.05-.16.09-.33.13-.5.04-.21.08-.41.1-.62.02-.22.04-.44.06-.66.02-.44.03-.88.02-1.32-.01-.45-.03-.91-.06-1.36-.04-.61-.11-1.22-.17-1.83-.03-.32-.05-.63-.07-.95-.02-.32-.02-.63,0-.94.04-.61.22-1.21.49-1.76.07-.13.14-.26.22-.39.08-.12.17-.25.27-.36.09-.1.18-.2.28-.28.12-.1.25-.2.38-.29.27-.18.58-.32.88-.44.32-.12.65-.22.99-.3.31-.07.62-.13.94-.15.15,0,.3,0,.45.02.12.02.25.05.33.15.08.1.07.25,0,.35-.05.07-.13.11-.22.12-.08.02-.17.03-.25.05-.15.03-.29.07-.44.12-.12.04-.23.09-.34.14-.08.04-.16.09-.23.13-.06.04-.11.09-.17.13-.09.08-.18.17-.26.26-.12.14-.23.29-.34.44-.1.16-.2.32-.29.49-.11.22-.2.44-.28.66-.06.18-.11.36-.15.54-.03.17-.06.35-.07.52-.01.25-.01.49,0,.74.02.2.05.4.08.6.21.94.52,1.86.75,2.8.1.42.2.85.24,1.28.05.48.07.95.09,1.43.03.35.07.69.13,1.04.04.19.09.38.15.56.04.1.08.19.12.29.03.06.06.11.09.17.04.07.09.14.13.21.07.09.14.18.21.27.08.09.16.17.25.25.05.04.09.08.14.12.05.04.1.08.16.11.06.04.12.07.17.11.06.04.12.07.18.1.11.05.21.1.33.13.1.03.2.06.3.09.06.01.12.02.19.03.1.02.19.03.29.03.11,0,.22,0,.33,0,.08,0,.15-.01.23-.03Z"/>
        <path class="cls-3" d="M36.92,69.13c.02.11.02.22,0,.34-.01.17-.09.33-.18.47-.08.11-.17.22-.28.32-.22.2-.46.38-.74.51-.27.13-.57.2-.87.22-.1,0-.2.01-.3.01-.19,0-.38-.02-.56-.05-.17-.03-.33-.08-.49-.15-.18-.08-.35-.19-.52-.3,0,0-.02-.01-.03-.02-.05-.02-.09-.04-.14-.07-.17-.1-.32-.23-.48-.35-.07-.06-.15-.12-.22-.18-.08-.07-.17-.13-.23-.21-.06-.08-.1-.18-.11-.28-.3-.26-.58-.56-.77-.9-.15-.26-.25-.55-.31-.85-.04-.2-.07-.39-.06-.59,0-.15.04-.31.12-.45.09-.16.22-.28.37-.37.31-.17.69-.13,1.01-.02.3.11.57.26.85.42.26.15.52.3.78.44,0,0,0,0-.01,0,.04.02.08.04.12.06,0,0,.02,0,.03.01,0,0,0,0,0,0,.25.13.51.24.78.34.27.11.55.2.82.31.27.11.54.22.78.39.32.21.58.56.63.95Z"/>
        <path class="cls-3" d="M41.52,69.74c.02.1,0,.21-.04.3-.03.07-.07.14-.12.2-.04.05-.09.09-.14.13-.07.06-.16.11-.24.15-.29.14-.59.22-.91.24-.06,0-.11,0-.17,0-.19,0-.39-.02-.58-.05-.14-.02-.28-.06-.41-.12-.06-.02-.11-.05-.16-.08-.14-.08-.24-.21-.29-.36-.06-.18-.07-.37,0-.55.07-.16.19-.27.34-.36.24-.13.51-.15.77-.18.04,0,.07,0,.11,0,.06-.03.12-.05.18-.07.08-.03.16-.04.25-.05.2-.03.41,0,.6.06.15.04.29.1.42.17.12.07.22.17.3.29.05.07.07.17.08.25Z"/>
        <path class="cls-3" d="M43.82,69.69h0s0-.01,0-.02c0,0,0,0,0-.01,0,0,0,0,0,0,0,0,0,0,0,0,0,0,0,0,0,0,0,0,0,0,0,0,0,0-.02-.01-.03-.02-.01,0-.02-.01-.03-.02-.02-.01-.05-.02-.07-.03-.05-.01-.1-.03-.15-.04-.08.02-.16.05-.24.07-.05.02-.1.04-.16.06-.02.01-.05.03-.07.04-.01,0-.02.02-.03.03,0,0,0,0-.01.01,0,0,0,0,0,.01,0,0,0,0,0,0,0,0,0,0,0,0,0,0,0,0,0,.01,0,0,0,0,0,0,0,0,0,0,0,0,0,0,0,.01,0,.02,0,0,0,0,0,0,0,0,.01.01.02.02,0,0,0,0,0,0,0,0,.02,0,.03.01.02,0,.04.02.05.02.01,0,.03,0,.04.01.03,0,.05,0,.08,0,.06,0,.12,0,.17,0,.05,0,.1-.01.15-.02,0,0,0,0,.01,0,.04,0,.08-.02.12-.03.02,0,.04-.02.06-.02,0,0,.01,0,.02-.01,0,0,0,0-.01,0,0,0,0,0,0,0,0,0,0,0,0,0,0,0,.01,0,.02-.01,0,0,.01-.01.02-.02,0,0,0,0,0-.01,0,0,.01-.02.02-.03,0,0,0,0,0-.01,0,0,0-.01,0-.02,0,0,0,0,0-.01ZM44.37,69.57c.03.17,0,.33-.1.48-.13.22-.37.32-.61.37,0,0,0,0,0,0-.12.02-.24.04-.37.04-.17,0-.33-.03-.48-.1-.19-.09-.33-.25-.38-.45-.05-.17,0-.36.1-.5.13-.19.35-.29.55-.36.16-.06.33-.1.49-.14.03,0,.06-.01.1-.02.03,0,.05,0,.08-.01.15-.02.3.09.32.24.02.01.05.03.07.04.13.09.22.25.25.4Z"/>
        <path class="cls-3" d="M50.45,61.01c0,.32-.03.63-.09.94-.06.31-.16.6-.27.9-.03.07-.06.13-.08.2-.01.03-.03.06-.05.1-.02.04-.04.09-.06.13-.08.13-.15.27-.25.4-.09.12-.19.25-.3.36-.05.05-.1.11-.15.16-.05.05-.11.1-.17.15-.12.11-.26.21-.39.31-.11.09-.23.17-.35.24-.25.17-.51.33-.78.47-.16.08-.32.16-.48.24-.05.03-.11.05-.16.07-.08.03-.15.07-.23.1-.15.06-.3.12-.45.17-.17.06-.33.1-.5.15-.13.04-.26.07-.39.1-.15.03-.31.07-.46.09-.16.03-.32.05-.48.08-.16.02-.33.04-.49.05-.16.02-.33.02-.49.03-.07,0-.13,0-.2,0-.09,0-.17,0-.26,0-.06,0-.12,0-.18,0-.09,0-.19,0-.28-.02-.14-.02-.28-.03-.42-.05-.16-.03-.32-.05-.48-.09-.16-.04-.32-.07-.48-.12-.59-.16-1.16-.38-1.7-.67-.28-.15-.56-.31-.82-.49-.26-.18-.51-.36-.75-.56,0,0,.02.02.03.02-.15-.13-.31-.26-.45-.41-.14-.15-.28-.29-.41-.46-.1-.13-.19-.26-.27-.4-.12-.21-.22-.43-.28-.67-.01-.05-.02-.11-.04-.16,0-.02,0-.04-.01-.06,0,0,0,0,0,0-.14-.22-.25-.46-.33-.7-.08-.25-.12-.52-.08-.78.02-.15.06-.29.13-.42.07-.15.17-.27.29-.38.11-.1.25-.18.4-.24.07-.03.14-.05.21-.06.14-.03.29-.03.43-.02.17.02.33.07.49.12.17.05.33.12.49.18.31.12.61.25.91.39,0,0,0,0,0,0,.03.01.06.03.09.04.01,0,.02.01.03.02,0,0,0,0,0,0,.34.17.66.37.98.56.32.19.63.37.96.54.17.08.35.15.53.22.19.06.38.12.57.16.15.03.29.05.44.06.1,0,.19,0,.29,0,.12,0,.24-.02.36-.05.08-.02.15-.04.23-.06.07-.03.15-.06.22-.09.07-.04.13-.07.2-.11.03-.02.06-.04.09-.06.06-.04.12-.09.18-.14.05-.05.11-.1.16-.16.04-.05.09-.11.13-.17.04-.06.07-.12.1-.18.03-.07.06-.14.09-.21.03-.11.06-.22.09-.34.05-.28.08-.55.1-.83.02-.3.04-.6.09-.89.05-.3.12-.6.24-.89.13-.31.33-.6.58-.83.13-.12.28-.21.43-.28.16-.07.34-.11.51-.12.2-.01.39.01.59.05.15.03.29.07.43.12.15.06.3.13.45.21.06.03.11.07.17.1.07.04.13.09.19.14.12.1.25.21.36.33.11.12.21.24.31.38.09.13.17.27.25.41.15.27.25.56.35.84.11.3.18.62.24.93.06.29.09.6.09.89Z"/>
        <path class="cls-3" d="M61.09,59.06c0,.07-.01.14-.02.2-.01.13-.02.26-.03.39-.02.24-.04.47-.06.71-.08.92-.16,1.84-.23,2.76-.02.21-.04.41-.05.62-.04-.02-.08-.04-.11-.06-.07-.04-.14-.08-.2-.12-.25-.16-.47-.38-.67-.6-.21-.23-.41-.47-.59-.73-.18-.26-.3-.56-.38-.86-.07-.31-.1-.62-.07-.93.01-.16.04-.31.1-.46.06-.17.15-.32.27-.45.06-.07.13-.13.2-.19.11-.09.23-.18.36-.24.06-.03.13-.07.2-.09.11-.04.21-.07.33-.08.15-.02.32-.01.47,0,.15.02.3.06.44.11.02,0,.04.01.06.02h0Z"/>
        <path class="cls-4" d="M25.25,52.41s0-.02,0-.03c0,.01,0,.02,0,.03,0,0,0,0,0,0Z"/>
        <path class="cls-4" d="M57.96,39.64s0,0,0,0c0,0,0,0,0,0,0,0,0,0,0,0Z"/>
        <path class="cls-4" d="M13.51,27.29s0,0,0,0c0,0,0,0,0,0Z"/>
        <path class="cls-4" d="M63.71,28.22c-.06.74-.13,1.48-.19,2.22-.08.95-.16,1.89-.24,2.84-.04.13-.08.26-.12.38-.19.57-.42,1.13-.66,1.68-.21.48-.43.96-.65,1.44-.11.24-.22.48-.35.71-.13.24-.27.46-.42.69-.15.23-.32.46-.55.61-.06.03-.12.06-.19.06-.08.01-.15,0-.22-.03-.13-.05-.22-.2-.26-.33-.07-.21-.1-.42-.14-.64-.06-.28-.11-.56-.16-.84-.02-.12-.05-.23-.09-.34,0,0,0,0,0,0-.07.09-.13.18-.2.27,0,0,0,0,0,0-.26.38-.49.78-.7,1.19-.24.49-.42,1.01-.6,1.52,0,0,0,0,0,0,0,0,0,.01,0,.02-.22.64-.44,1.28-.62,1.92-.19.66-.34,1.32-.48,1.99-.23,1.18-.4,2.38-.66,3.56-.06.27-.13.55-.21.82-.04.13-.08.27-.12.4-.05.14-.1.28-.16.42-.07.13-.15.28-.3.32-.15.04-.3-.04-.37-.18-.05-.1-.05-.21-.06-.31,0-.11-.01-.22-.02-.33-.04-1.1-.09-2.21-.12-3.31-.02-.55-.02-1.1-.03-1.65,0-.58,0-1.16-.04-1.74-.03-.42-.08-.84-.16-1.25-.05-.25-.12-.51-.19-.75-.05-.13-.1-.26-.16-.39-.04-.08-.08-.15-.13-.23-.03-.05-.06-.09-.1-.13-.03-.03-.06-.07-.1-.1-.02-.02-.04-.03-.06-.05-.02-.01-.04-.02-.06-.03-.02,0-.03-.01-.05-.02-.01,0-.03,0-.04,0-.01,0-.02,0-.03,0-.01,0-.03,0-.04,0-.01,0-.03,0-.04.01-.01,0-.03.01-.04.02-.01,0-.03.02-.04.03-.02.01-.03.02-.05.04-.02.02-.03.03-.05.05-.05.06-.1.13-.15.2-.32.51-.61,1.04-.88,1.58-.16.31-.3.63-.45.94-.05.1-.1.2-.15.29-.05.09-.13.17-.23.21-.09.04-.2.03-.28-.02-.04-.02-.08-.05-.1-.08-.03-.04-.05-.08-.07-.12-.03-.08-.05-.17-.06-.25-.02-.09-.03-.18-.04-.26-.03-.17-.05-.34-.08-.51-.06-.38-.12-.76-.19-1.14-.06-.3-.13-.59-.23-.88-.03-.09-.07-.18-.11-.27-.01-.03-.03-.05-.04-.08-.08.13-.15.26-.21.39,0,0,0,0,0,0-.52,1.05-.99,2.14-1.42,3.23-.46,1.17-.93,2.34-1.36,3.53-.07.19-.14.38-.2.58-.08.23-.16.47-.24.7-.04.11-.09.22-.13.33-.06.13-.13.27-.25.34-.1.06-.23.08-.34.04-.14-.06-.21-.18-.27-.31-.04-.09-.07-.2-.1-.29-.03-.11-.06-.23-.09-.34-.12-.47-.23-.93-.34-1.4-.11-.5-.2-1-.37-1.48-.05-.12-.09-.24-.15-.36-.06-.11-.12-.22-.19-.32-.05-.07-.11-.14-.16-.21-.04-.04-.08-.08-.12-.12-.06-.05-.12-.1-.18-.14-.07-.04-.13-.08-.2-.12-.07-.03-.14-.06-.22-.09-.05-.02-.11-.03-.16-.04-.07-.01-.15-.02-.22-.03-.06,0-.11,0-.17,0-.08,0-.16.02-.24.03-.08.02-.16.04-.24.06-.07.02-.13.05-.2.08-.04.02-.07.04-.11.07-.03.02-.06.05-.09.07-.03.03-.05.05-.08.08-.02.03-.05.06-.07.09-.05.08-.09.16-.13.24-.29.6-.53,1.23-.75,1.86-.13.36-.24.73-.38,1.09-.07.19-.15.37-.24.55-.07.12-.14.25-.25.34-.09.07-.21.11-.33.08-.05-.01-.09-.03-.14-.06-.05-.03-.08-.07-.12-.12-.04-.05-.07-.11-.09-.17-.02-.05-.04-.11-.06-.16-.06-.18-.11-.36-.15-.54-.11-.4-.22-.8-.35-1.2-.08-.22-.17-.45-.27-.66-.05-.1-.1-.19-.16-.28-.06-.08-.12-.16-.18-.23-.04-.04-.08-.09-.13-.13-.02-.02-.04-.03-.07-.05-.02-.01-.04-.03-.06-.04-.02,0-.03-.02-.05-.02-.01,0-.03,0-.04-.01-.01,0-.02,0-.04,0-.01,0-.02,0-.03,0-.01,0-.02,0-.03,0-.01,0-.03,0-.04.01-.03.02-.07.04-.1.06.01,0,.02-.01.03-.02-.01.01-.03.02-.04.04-.02.02-.03.03-.05.05-.05.06-.09.11-.13.17-.13.22-.26.44-.37.67-.1.21-.2.43-.29.65-.09.23-.17.47-.26.7-.15.44-.3.89-.46,1.33-.07.2-.16.4-.24.59-.09.19-.17.39-.28.57-.05.09-.11.18-.16.26-.03.05-.08.1-.12.14-.04.05-.11.1-.17.12-.1.04-.22.05-.31-.01-.11-.06-.16-.17-.2-.29-.02-.07-.03-.14-.05-.2-.02-.09-.04-.18-.07-.27-.05-.19-.11-.39-.18-.58-.12-.34-.25-.66-.41-.98-.07-.13-.14-.26-.22-.38-.03-.05-.07-.09-.11-.13-.02-.02-.04-.04-.06-.06,0,0,.02.02.03.02-.03-.03-.06-.06-.1-.08-.02,0-.03-.02-.05-.03-.01,0-.02,0-.03-.01-.01,0-.02,0-.03,0-.01,0-.02,0-.03,0-.01,0-.03,0-.04,0-.02,0-.04,0-.06,0-.03,0-.06.02-.1.03-.11.04-.21.09-.32.14-.12.06-.25.11-.37.17-.12.05-.24.1-.36.15-.12.05-.26.09-.39.11-.18.02-.36.03-.53-.02-.17-.04-.34-.1-.48-.21-.08-.07-.15-.14-.22-.22-.04-.05-.08-.11-.12-.16-.07-.1-.13-.21-.2-.31-.29-.48-.54-.98-.79-1.48-.25-.48-.51-.96-.8-1.41-.07-.1-.13-.19-.21-.28-.04-.04-.07-.08-.11-.11,0,0,.02.02.03.02-.01-.01-.03-.02-.04-.03,0,0-.01,0-.02-.01,0,0,0,0-.01,0,0,0,0,0,0,0,0,0,0,0-.01,0,0,0-.02.01-.03.02-.01.01-.02.02-.04.03-.01.02-.03.03-.04.05-.02.02-.03.04-.05.07-.03.06-.07.12-.1.17-.21.46-.39.93-.56,1.41-.19.56-.36,1.12-.51,1.7-.15.58-.28,1.17-.4,1.76-.1.51-.2,1.03-.27,1.55-.08.53-.12,1.06-.16,1.59-.02.33-.03.65-.04.98,0,.33-.01.67-.01,1,0,.65.01,1.31.02,1.96.02,1.25.03,2.5.05,3.74,0,.26,0,.52,0,.79,0,.14,0,.27,0,.41,0,.07,0,.13,0,.2,0,.08-.02.14-.06.21-.05.09-.15.14-.25.14-.03,0-.05,0-.07-.01-.06-.02-.13-.05-.16-.11-.04-.06-.08-.13-.1-.2-.05-.13-.08-.27-.12-.41-.07-.28-.12-.57-.18-.86-.12-.59-.23-1.19-.33-1.78-.11-.63-.21-1.26-.28-1.89-.07-.64-.11-1.29-.16-1.93-.05-.74-.09-1.48-.14-2.22-.1-1.34-.27-2.68-.52-3.99-.08-.38-.17-.75-.26-1.12-.1-.37-.22-.74-.34-1.1-.25-.69-.54-1.36-.86-2.01-.11-.21-.22-.42-.35-.63-.07-.1-.14-.19-.22-.29-.1-.11-.21-.22-.32-.32-.12-.1-.24-.2-.37-.29-.1-.06-.19-.12-.29-.17-.09-.04-.18-.08-.27-.12-.07-.02-.15-.05-.22-.06-.02,0-.04,0-.06,0-.02,0-.04,0-.06,0,.01,0,.03,0,.04,0-.05,0-.11,0-.16.02.01,0,.02,0,.04,0-.02,0-.03.01-.05.02-.01,0-.03.01-.04.02-.02,0-.03.02-.05.03-.02.01-.03.02-.05.04-.03.03-.07.06-.1.1-.06.07-.11.14-.16.21-.23.35-.43.72-.62,1.09-.14.3-.27.61-.38.93-.17.5-.3,1.02-.42,1.54-.05.25-.09.49-.13.74-.03.25-.06.49-.08.74-.07,1.21-.07,2.41-.09,3.62,0,.31-.01.62-.03.94,0,.15-.02.29-.03.44,0,.09-.03.17-.04.25-.02.1-.07.22-.14.29-.05.05-.11.1-.19.12-.07.02-.15.02-.22,0-.19-.05-.31-.23-.39-.39-.07-.13-.1-.27-.14-.41-.03-.13-.06-.26-.08-.39-.06-.33-.11-.65-.16-.98-.06-.37-.11-.75-.18-1.12-.06-.35-.12-.7-.19-1.04-.06-.34-.12-.68-.19-1.03-.05-.24-.11-.49-.17-.73-.06-.23-.13-.47-.21-.7-.17-.47-.36-.93-.58-1.37-.15-.29-.31-.57-.5-.85-.09-.13-.18-.25-.29-.37-.05-.05-.09-.1-.14-.14-.03-.02-.06-.04-.09-.07-.02-.01-.05-.03-.07-.04-.01,0-.03-.01-.04-.02-.01,0-.02,0-.04,0,0,0-.01,0-.02,0h-.01s-.01,0-.02,0c0,0-.01,0-.02,0,0,0-.02,0-.02,0-.02,0-.03.02-.05.03-.02.01-.03.02-.05.04-.02.02-.03.03-.05.05-.01.02-.03.03-.04.05-.02.04-.05.08-.07.12-.05.1-.09.2-.13.3-.09.27-.16.54-.22.81-.05.27-.09.53-.16.8-.03.13-.07.25-.12.37-.05.14-.14.29-.26.38-.06.05-.13.1-.21.12-.08.02-.17.04-.25.02-.08-.02-.17-.04-.24-.08-.07-.04-.14-.09-.2-.15-.09-.08-.16-.18-.24-.27-.09-.11-.17-.23-.26-.35-.63-.92-1.09-1.94-1.64-2.91-.23-.41-.48-.82-.71-1.23-.11-.2-.22-.39-.33-.59-.05-.1-.1-.19-.15-.29-.04.22-.06.45-.09.68-.03.25-.05.5-.06.75-.08,1.26-.07,2.53,0,3.79.04.6.1,1.2.15,1.79.02.3.03.6,0,.9,0,.07-.03.14-.04.21-.01.06-.03.11-.06.16-.05.09-.1.17-.19.23-.07.05-.16.09-.25.09-.04,0-.09,0-.13-.01-.03,0-.06-.02-.09-.03-.03-.01-.06-.03-.09-.05-.1-.05-.18-.15-.25-.24-.07-.09-.12-.2-.17-.31-.06-.13-.11-.28-.15-.42-.09-.28-.17-.57-.24-.86-.14-.61-.26-1.22-.38-1.83-.09-.45-.17-.91-.24-1.36-.07-.45-.13-.9-.2-1.35-.14-.9-.31-1.8-.49-2.7-.12-.56-.24-1.11-.38-1.66-.15-.58-.32-1.16-.49-1.73-.16-.54-.35-1.08-.52-1.62-.04-.12-.07-.24-.11-.37-.02-.06-.03-.12-.05-.19,0-.03-.02-.07-.03-.11,0-.03-.02-.06-.03-.08-.03-.08-.05-.17-.06-.26-.02-.15-.04-.29-.04-.44-.02.05-.04.1-.06.15,0,.01,0,.03-.01.04-.02.07-.06.13-.13.17-.01,0-.03.01-.04.02-.03-.35-.06-.7-.09-1.05,0-.01,0-.02.01-.03.11-.24.23-.49.36-.73.26-.48.55-.95.88-1.38.36-.47.77-.89,1.24-1.24.25-.18.51-.34.78-.49.27-.15.54-.29.82-.42.25-.12.51-.22.77-.31.27-.1.55-.19.84-.25.14-.03.28-.05.43-.07.15-.01.3-.02.45-.01.29,0,.57.04.86.07.6.07,1.19.18,1.79.3.6.12,1.2.24,1.8.37,0,0,.02,0,.03,0,.01,0,.02,0,.04,0,.04,0,.07.01.11.02.01,0,.02,0,.03,0,.01,0,.03,0,.04,0-.01,0-.02,0-.04,0,.6.12,1.2.24,1.8.38.62.14,1.24.31,1.85.49,1.21.35,2.41.76,3.64,1.02.11.02.23.05.34.07.31.06.62.12.93.17.33.06.66.1,1,.15.6.09,1.2.16,1.81.22,1.31.15,2.62.29,3.94.4.53.05,1.07.09,1.6.13,0,0-.01,0-.02,0,0,0,.01,0,.02,0,0,0,.01,0,.02,0,.64.04,1.29.07,1.93.1.63.02,1.26.03,1.9.02,1.26,0,2.52-.07,3.77-.15.64-.05,1.28-.09,1.92-.15.67-.06,1.33-.13,2-.2,1.28-.13,2.56-.29,3.84-.44,1.3-.16,2.6-.32,3.9-.48,1.32-.16,2.65-.31,3.97-.46,1.31-.15,2.62-.31,3.93-.44.65-.07,1.3-.11,1.94-.14.3-.01.61-.01.91,0,.26.01.52.03.78.07.17.03.34.07.51.12.18.05.35.13.51.22.06.03.11.07.17.12Z"/>
        <path class="cls-3" d="M43.2,70.2c-.63-.22-.27-.86.27-.88.23-.04.59.24.32.44.07.33-.3.55-.59.44Z"/>
      </g>
      <g>
        <path class="cls-7" d="M36.86,40.4s0,0,0,0c0,0,0,0,0,0,0,0,0,0,0,0Z"/>
        <path class="cls-7" d="M32.12,40.11s0,0,0,0c0,0,0,0,0,0,0,0,0,0,0,0Z"/>
        <path class="cls-7" d="M54.61,34.39s0,0,0,0c0,0,0,0,0,0,0,0,0,0,0,0Z"/>
        <path class="cls-7" d="M56.1,34.19s0,0,0,0c0,0,0,0,0,0,0,0,0,0,.01,0Z"/>
        <path class="cls-7" d="M63.95,24.78c.06.8.01,1.6-.11,2.35-.02.05-.04.11-.06.19-.01.14-.02.27-.04.41-.03.38-.07.77-.1,1.15-.04.1-.09.2-.13.3-.11.25-.24.5-.37.74-.12.23-.26.44-.41.66-.32.47-.66.91-1.06,1.31-.43.43-.91.81-1.42,1.14-.48.3-.98.58-1.49.82-.5.24-1.01.46-1.54.63-.23.08-.46.13-.7.19-.3.07-.61.13-.92.18-.3.05-.6.08-.9.1-.33.03-.65.03-.98.05-.19.01-.39.03-.58.07-.19.04-.37.1-.56.16-.2.07-.39.15-.58.24-.28.14-.55.3-.81.48-.15.11-.31.22-.46.33-.16.12-.31.25-.46.38-.46.41-.9.84-1.36,1.25-.23.21-.48.39-.74.55-.26.16-.54.3-.82.43-.58.27-1.19.48-1.79.67-.6.19-1.2.35-1.81.49-1.28.29-2.58.47-3.88.62-.62.07-1.24.14-1.87.19-.63.06-1.27.12-1.9.13-.2,0-.4,0-.6,0-.1,0-.2,0-.3,0-.28,0-.56-.02-.83-.04-.55-.03-1.1-.1-1.64-.18-.52-.08-1.04-.19-1.56-.31-.52-.12-1.04-.26-1.57-.37-.24-.05-.48-.09-.72-.13-.25-.04-.5-.06-.76-.08-.64-.04-1.29-.05-1.94-.03-.61.01-1.23.04-1.84,0-.59-.03-1.19-.16-1.74-.38-.28-.11-.55-.24-.81-.4-.24-.14-.48-.3-.71-.46-.3-.21-.6-.43-.9-.64-.24-.16-.48-.31-.74-.44-.13-.06-.25-.11-.38-.16-.1-.03-.21-.06-.31-.08-.19-.03-.37-.05-.56-.07-.24-.01-.48,0-.73,0-.6.05-1.19.16-1.78.28-.59.11-1.19.25-1.78.34-.31.05-.63.09-.95.11-.16,0-.31.02-.47.01-.17,0-.33-.02-.49-.04-.27-.03-.55-.1-.81-.18-.28-.09-.56-.2-.82-.33-.61-.31-1.15-.74-1.65-1.2-.26-.23-.5-.48-.74-.73-.22-.22-.44-.43-.67-.64-.19-.16-.38-.31-.58-.45-.17-.11-.34-.21-.53-.31-.56-.27-1.15-.46-1.67-.81-.13-.09-.26-.18-.37-.28-.13-.11-.24-.24-.34-.36-.04-.04-.07-.09-.11-.13-.06-.69-.12-1.39-.18-2.09-.04-.49-.08-.97-.12-1.46.01-.03.02-.06.03-.08,0-.01,0-.02.01-.04.02-.79.32-1.99.86-2.66.1-1.02.44-2.02,1.07-2.83.67-.97,1.63-1.54,2.69-1.86-.15-1.45.91-3.08,1.96-3.98,1.82-1.75,4.38-2.28,6.83-2.33.47-.02.93-.04,1.4-.06-.12-1.76.78-3.68,1.89-4.95,1.6-1.84,3.84-2.91,5.76-4.34,2.14-1.49,4.2-3.18,5.48-5.49.11-.21.33-.47.58-.31.24.21.23.62.36.88.36.96.83,1.95,1.52,2.71,2.12,2.26,5.16,2.62,7.44,4.46,3.21-.25,6.62,1.91,7.79,4.91,3.81.14,8.05,1.45,9.61,5.16,2.16.19,3.56,1.51,4.33,3.27.28.5.49,1.05.64,1.62.09.31.16.64.23.94.05.26.07.52.06.77Z"/>
        <path class="cls-7" d="M4.56,26.25c-.62-.43-.14-1.82.11-2.39.86-1.73,2.72-2.7,4.58-2.92.36-.05.44.51.08.56-2.18.21-4.67,1.86-4.46,4.29.05.2-.03.58-.31.45Z"/>
      </g>
      <g>
        <path class="cls-1" d="M42.71,15.89c-.35-.37.32-.74.46-1.08,1.86-2.36-1.1-4.37-2.26-6.21-.4-.51,0-1.11.42-.42,1.06,1.79,3.3,3.19,2.97,5.54,0,.4-1.14,2.59-1.59,2.17Z"/>
        <path class="cls-1" d="M42.34,22.45c-1.22-.06-2.42-.36-3.57-.79-1.43-.65-2.75-1.54-4.27-1.99-.15-.05-.21-.24-.15-.37.13-.49,1.68.41,2.04.5,2.42,1.34,4.36,2.26,7.23,2.08,2.59-.16,5.54-2.05,5.6-4.86.03-.67-.08-1.33-.21-1.98-.04-.55-.54-1.32-.23-1.81.1-.13.28-.05.35.07.58,1.79,1,3.85.22,5.65-1.33,2.47-4.28,3.75-7.01,3.49Z"/>
        <path class="cls-1" d="M31.99,19.08c-2.67-.73-5.43-.37-8.15-.31-1.67.01-3.44.02-4.94-.78-.88-.48-1.21-1.51-1.43-2.43-.05-.4.56-.43.57-.03.17.62.37,1.29.84,1.75,1.38.97,3.19.9,4.81.92,2.41-.01,4.83-.36,7.22.07.43.1.9.12,1.29.32.28.21.16.5-.19.48Z"/>
        <path class="cls-1" d="M25.95,27.3c-1.19-.03-2.26-.55-3.35-.96-1.21-.41-2.4-.88-3.67-1.07-2.61-.23-5.35.33-7.82-.82-1.26-.59-2.78-1.42-3.08-2.89-.08-.47.39-.71.55-.17.06.56.45,1.01.85,1.38,2.4,2.11,5.72,1.94,8.71,1.87,1.23.03,2.41.42,3.56.8,1.16.34,2.21.89,3.37,1.19.35.11.76.02,1.07.2.18.16.04.5-.2.48Z"/>
        <path class="cls-1" d="M50.59,24.57c-.02-.15.09-.3.24-.32.49-.05.97-.12,1.45-.19.88-.13,1.77-.25,2.61-.55,1.7-.61,4.21-2.52,3.37-4.57-.34-.63.3-.89.52-.22,1.18,2.88-2.74,5.43-5.22,5.73-.61.1-1.22.19-1.83.27-.36-.02-1,.33-1.15-.14Z"/>
        <path class="cls-1" d="M10.39,31.21c-2.44-.1-4.98-1.51-5.78-3.92-.08-.41-.58-1.14-.1-1.43.48.04.5,1.19.76,1.57.7,1.64,2.35,2.72,4.06,3.07,1.39.3,2.81.07,4.22,0,.59-.03,1.19-.03,1.78-.03.26.02.7-.09.72.29.02.51-1.27.19-1.63.28-1.34,0-2.68.24-4.02.17Z"/>
        <path class="cls-1" d="M40.98,35.08c-1.22-.11-2.41-.48-3.49-1.04-.34-.25-1.38-.51-1.23-1.02.29-.39,1.65.71,2.12.81,2.68,1.19,5.7.69,8.5.22,2.04-.43,4.01-1.21,5.77-2.32,1.2-.79,2.18-1.88,3.37-2.68,1.89-1.24,4.29-1.72,5.87-3.41.32-.35.52-.78.69-1.22.05-.14.23-.21.37-.15.54.28-.5,1.61-.77,1.9-2.12,2.06-5.35,2.45-7.4,4.6-3.67,3.37-8.92,4.55-13.79,4.32Z"/>
        <path class="cls-1" d="M34.49,39.5c-.84-.28-.32-1.44.45-1.17.36-.08.67.27.65.61-.03.5-.68.75-1.1.56Z"/>
        <path class="cls-1" d="M37.2,39.63c-.31,0-.79-.1-.76-.49.14-.52,1.23-.7,1.7-.59.31.07.45.46.25.71-.27.36-.78.37-1.19.37Z"/>
        <path class="cls-1" d="M23.81,36.43c.69,1.01-.65,1.61-1.43,1.03-.92-.41-.91-1.44.22-1.42.41-.25.97.02,1.22.38Z"/>
        <path class="cls-1" d="M25.32,35.38c.93.41.42,1.52-.52,1.16-.67-.11-.9-.98-.12-1.1.17-.18.43-.16.64-.07Z"/>
        <path class="cls-1" d="M31.95,37.41c1.26-.02,1.94,2.09.34,2.04-.6-.03-1.21.08-1.8-.03-.83-.13-1.58-1.07-.63-1.64.27-.23.62-.27.96-.26.37-.1.75-.16,1.13-.1Z"/>
        <path class="cls-1" d="M45.7,36.45c2.16-1.14,2.13,2.57-.83,2.14-.35-.07-.72-.29-.77-.66-.03-.24.14-.59.41-.56.21-.46.77-.67,1.19-.91Z"/>
        <path class="cls-1" d="M60.21,31.54c-.44.05-.79-.62-.27-.76.08-.34.53-.44.79-.25.54.4.03,1.05-.52,1.01Z"/>
        <path class="cls-1" d="M60.39,31.06c-.09-.08.04-.24.13-.15.09.09-.03.25-.13.15Z"/>
        <path class="cls-1" d="M61.09,29.48c-.62-.45.49-1.19.94-.82.52.52-.48,1.05-.94.82Z"/>
        <path class="cls-1" d="M8.73,34.54c-.44-.09-1.02-.68-.69-1.13.24-.76,1.11-.1,1.3.37.28.44-.11.95-.61.76Z"/>
        <path class="cls-1" d="M30.51,33.55c-.9-.15-1.78-.34-2.66-.55-.84-.19-1.61-.62-2.45-.81-1.01-.2-2.09-.19-3.07-.44-.13-.07-.21-.24-.07-.35.4-.31,1.11,0,1.58.01.9.11,1.83.16,2.68.53,1.37.57,2.82.84,4.25,1.06.68.03,1.32-.13,1.99-.16.36,0,.37.57,0,.57-.75.04-1.49.23-2.24.14Z"/>
        <path class="cls-1" d="M19.21,33.39c-.84-.51-.18-1.22.58-.94,1.06.23.84,1.15-.23.89-.09.09-.24.12-.35.05Z"/>
        <path class="cls-1" d="M18.17,34.27c-.52-.04-.66-.95-.08-1,.11,0,.28.05.3.18.53.2.32.89-.22.82Z"/>
        <path class="cls-1" d="M11.62,35.62c.3.51-.47.84-.85.61-.19-.15-.48-.19-.57-.44-.13-.33.23-.39.45-.27.23-.3.77-.18.97.1Z"/>
        <path class="cls-1" d="M58.5,31.05c.49.14.81.84.36,1.2-.22.9-1.41.9-2.16.88-1.16-.04-1.34-1.32-.31-1.78.66-.24,1.42-.53,2.11-.29Z"/>
      </g>
      <g>
        <path class="cls-8" d="M39.36,12.17c-.1-1.52.35-3.03-.84-4.24-1.57-1.73-2.99-1.82-5.17-1.4-.7.14-1.43.18-2.09.45-.65.31-.33,1.22.28,1.33.42,1.15,2.9.53,4.27,2.1.37.46.5,1.05.69,1.6.13.56.22,1.24.81,1.51.85.46,1.78-.62,2.05-1.35ZM41.78,8.64c.98,1.54-.05,2-.16,3.6-.21,1.4-.58,2.77-1.97,3.43-.75.45-.94,1.37-1.45,2.03-.75,1.13-2.25,1.55-3.55,1.5-.51.06-.54-.52-.34-.85.27-.5.96-.74.92-1.41-.01-.16-.02-.33-.03-.49-.04-.71-.06-1.44-.24-2.12-.02-.06-.05-.12-.08-.17-.04-.07-.09-.13-.15-.19-.19-.18-.44-.23-.71-.21-.13.01-.26.04-.38.08-.06.02-.11.04-.17.07-.05.02-.1.05-.14.07-.05.02-.09.05-.13.08-.05.02-.11.04-.17.05-.42.08-1.03-.07-1.55-.29-.37-.16-.7-.36-.89-.55-.24-.25-.44-.55-.62-.85-.43-.74-.76-1.56-1.44-2.1-1.29-.83-3.2.64-4.21-.83-.65-.64-.24-1.89-1.06-1.32-.41.31-.8,0-.4-.41.04-.03.09-.06.14-.09-.05-.31.48-.58.7-.75,1.43-.98,3.21-1.23,4.91-1.22,1.36-.31,2.75.6,4.06-.02.53-.28.86-.82,1.4-1.09.16-.1.48-.06.52.14.01.01.03.03.04.04.24-.22.47.07.64.23.36.29.72.6,1.12.84.07.04.14.08.21.11.07.04.15.07.23.1.34.12.7.16,1.04.26.49.13.95.33,1.4.56.17.09.33.18.49.27.04.03.09.05.13.08.76.31,1.58.62,1.92,1.43Z"/>
        <path class="cls-8" d="M31.1,5.24c0-.15.13-.28.28-.28s.28.13.28.28-.13.28-.28.28-.28-.13-.28-.28Z"/>
        <path class="cls-8" d="M31.88,5.14c0-.15.13-.28.28-.28s.28.13.28.28-.13.28-.28.28-.28-.13-.28-.28Z"/>
        <path class="cls-8" d="M32.94,4.17c0-.15.13-.28.28-.28s.28.13.28.28-.13.28-.28.28-.28-.13-.28-.28Z"/>
        <path class="cls-8" d="M33.32,3.84c0-.15.13-.28.28-.28s.28.13.28.28-.13.28-.28.28-.28-.13-.28-.28Z"/>
        <path class="cls-8" d="M33,5.29c0-.15.13-.28.28-.28s.28.13.28.28-.13.28-.28.28-.28-.13-.28-.28Z"/>
        <path class="cls-8" d="M33.12,5.24s0-.02,0,0c0,0,0,.01,0,0Z"/>
        <path class="cls-8" d="M33.8,4.67c0-.15.13-.28.28-.28s.28.13.28.28-.13.28-.28.28-.28-.13-.28-.28Z"/>
        <path class="cls-8" d="M34.16,4.62c0-.15.13-.28.28-.28s.28.13.28.28-.13.28-.28.28-.28-.13-.28-.28Z"/>
        <path class="cls-8" d="M34.49,4.8c0-.15.13-.28.28-.28s.28.13.28.28-.13.28-.28.28-.28-.13-.28-.28Z"/>
        <path class="cls-8" d="M34.72,4.96c0-.15.13-.28.28-.28s.28.13.28.28-.13.28-.28.28-.28-.13-.28-.28Z"/>
        <path class="cls-8" d="M32.4,5.54c0-.15.13-.28.28-.28s.28.13.28.28-.13.28-.28.28-.28-.13-.28-.28Z"/>
        <path class="cls-8" d="M32.41,5.77c0-.15.13-.28.28-.28s.28.13.28.28-.13.28-.28.28-.28-.13-.28-.28Z"/>
        <path class="cls-8" d="M33.29,4.86c0-.15.13-.28.28-.28s.28.13.28.28-.13.28-.28.28-.28-.13-.28-.28Z"/>
        <path class="cls-8" d="M33.24,5.23c-.25-.37.47-.94.79-1,.38-.05.75.17,1,.44.26.27-.14.66-.4.4-.74-.8-.79.48-1.39.16Z"/>
        <path class="cls-8" d="M32.63,5.87c-.34-.26.18-.75.45-.5.16.27-.16.72-.45.5Z"/>
        <path class="cls-8" d="M30.54,4.83c0-.15.13-.28.28-.28s.28.13.28.28-.13.28-.28.28-.28-.13-.28-.28Z"/>
        <path class="cls-8" d="M29.79,4.46s.04,0,.02.01c-.01,0-.02,0-.02-.01Z"/>
        <path class="cls-8" d="M29.39,4.7c0-.15.13-.28.28-.28s.28.13.28.28-.13.28-.28.28-.28-.13-.28-.28Z"/>
        <path class="cls-8" d="M30.15,5.8c0-.15.13-.28.28-.28s.28.13.28.28-.13.28-.28.28-.28-.13-.28-.28Z"/>
        <path class="cls-8" d="M30.66,5.9c0-.15.13-.28.28-.28s.28.13.28.28-.13.28-.28.28-.28-.13-.28-.28Z"/>
        <path class="cls-8" d="M30.04,6.15c-.23-.07-.46-.26-.7-.16-.3.14-.63.1-.95.17-.24.05-.42-.27-.26-.45.15-.16.4-.13.6-.16.47-.05.76-.29,1.25-.03.21.09.48.14.59.37.15.31-.32.38-.52.27Z"/>
        <path class="cls-8" d="M27.61,11.78c0-.15.13-.28.28-.28s.28.13.28.28-.13.28-.28.28-.28-.13-.28-.28Z"/>
        <path class="cls-8" d="M28.19,13.07c0-.15.13-.28.28-.28s.28.13.28.28-.13.28-.28.28-.28-.13-.28-.28Z"/>
        <path class="cls-8" d="M28.55,13.44c0-.15.13-.28.28-.28s.28.13.28.28-.13.28-.28.28-.28-.13-.28-.28Z"/>
        <path class="cls-8" d="M29.18,11.84c0-.15.13-.28.28-.28s.28.13.28.28-.13.28-.28.28-.28-.13-.28-.28Z"/>
        <path class="cls-8" d="M28.54,11.25c0-.15.13-.28.28-.28s.28.13.28.28-.13.28-.28.28-.28-.13-.28-.28Z"/>
        <path class="cls-8" d="M27.87,10.25c0-.15.13-.28.28-.28s.28.13.28.28-.13.28-.28.28-.28-.13-.28-.28Z"/>
        <path class="cls-8" d="M28.8,10.63c0-.15.13-.28.28-.28s.28.13.28.28-.13.28-.28.28-.28-.13-.28-.28Z"/>
        <path class="cls-8" d="M28.98,11.13c0-.15.13-.28.28-.28s.28.13.28.28-.13.28-.28.28-.28-.13-.28-.28Z"/>
        <path class="cls-8" d="M29.6,12.04c-.42-.15-.53-.57-.68-.95-.08-.17-.23-.28-.3-.45-.13-.39.16-.53.45-.29.26.26.43.6.53.95.02.06.05.12.11.16.19.08.4.26.27.48-.08.14-.25.17-.39.1Z"/>
        <path class="cls-8" d="M29.7,14.46c0-.15.13-.28.28-.28s.28.13.28.28-.13.28-.28.28-.28-.13-.28-.28Z"/>
        <path class="cls-8" d="M27.68,15.38c0-.15.13-.28.28-.28s.28.13.28.28-.13.28-.28.28-.28-.13-.28-.28Z"/>
        <path class="cls-8" d="M29.33,12.81c0-.15.13-.28.28-.28s.28.13.28.28-.13.28-.28.28-.28-.13-.28-.28Z"/>
        <path class="cls-8" d="M29.79,12.94c0-.15.13-.28.28-.28s.28.13.28.28-.13.28-.28.28-.28-.13-.28-.28Z"/>
        <path class="cls-8" d="M30.19,12.64c0-.15.13-.28.28-.28s.28.13.28.28-.13.28-.28.28-.28-.13-.28-.28Z"/>
        <path class="cls-8" d="M30.52,13.67c-.26-.3-.62-.62-.64-1.04,0-.22.17-.34.36-.21.14.08.2.24.28.37.11.16.24.31.37.45.39.15.83-.09,1.21-.2.15-.05.31,0,.37.15.15.46-.6.48-.89.6-.35.09-.77.12-1.07-.13Z"/>
        <path class="cls-8" d="M25.38,11.02c0-.15.13-.28.28-.28s.28.13.28.28-.13.28-.28.28-.28-.13-.28-.28Z"/>
        <path class="cls-8" d="M24.15,11.54s.02-.02.03,0c0,.02-.03.02-.03,0Z"/>
        <path class="cls-8" d="M22.74,11.02s0-.02.02,0c0,.01-.02.03-.02,0Z"/>
        <path class="cls-8" d="M22.15,10.85c0-.15.13-.28.28-.28s.28.13.28.28-.13.28-.28.28-.28-.13-.28-.28Z"/>
        <path class="cls-8" d="M23.91,10.37c0-.15.13-.28.28-.28s.28.13.28.28-.13.28-.28.28-.28-.13-.28-.28Z"/>
        <path class="cls-8" d="M24.4,10.96c0-.15.13-.28.28-.28s.28.13.28.28-.13.28-.28.28-.28-.13-.28-.28Z"/>
        <path class="cls-8" d="M23.94,11.89c0-.15.13-.28.28-.28s.28.13.28.28-.13.28-.28.28-.28-.13-.28-.28Z"/>
        <path class="cls-8" d="M22.99,9.25s.02-.07.03-.03c0,.02-.01.04-.03.03Z"/>
        <path class="cls-8" d="M24.8,10.11c-.27-.06-.59-.13-.77-.37-.11-.15-.08-.42.15-.4.32-.35.55.26.89.24.42.17.15.7-.27.53Z"/>
        <path class="cls-8" d="M22.8,9.35c0-.15.13-.28.28-.28s.28.13.28.28-.13.28-.28.28-.28-.13-.28-.28Z"/>
        <path class="cls-8" d="M23.53,8.68c0-.15.13-.28.28-.28s.28.13.28.28-.13.28-.28.28-.28-.13-.28-.28Z"/>
        <path class="cls-8" d="M23.93,8.54s.02-.05.02-.02c0,.01-.01.03-.02.02Z"/>
        <path class="cls-8" d="M23.18,7.89c0-.15.13-.28.28-.28s.28.13.28.28-.13.28-.28.28-.28-.13-.28-.28Z"/>
        <path class="cls-8" d="M25.68,10.58c-.22-.07-.49-.1-.63-.29-.07-.11-.01-.24.06-.28.21-.18.46-.04.69.02.28,0,.59-.44.82-.09.23.41-.63.71-.94.64Z"/>
        <path class="cls-8" d="M32.93,14.84c0-.15.13-.28.28-.28s.28.13.28.28-.13.28-.28.28-.28-.13-.28-.28Z"/>
        <path class="cls-8" d="M33.07,15.62c0-.15.13-.28.28-.28s.28.13.28.28-.13.28-.28.28-.28-.13-.28-.28Z"/>
        <path class="cls-8" d="M32.44,16.47c0-.15.13-.28.28-.28s.28.13.28.28-.13.28-.28.28-.28-.13-.28-.28Z"/>
        <path class="cls-8" d="M31.7,16.83c0-.15.13-.28.28-.28s.28.13.28.28-.13.28-.28.28-.28-.13-.28-.28Z"/>
        <path class="cls-8" d="M31.25,16.41c0-.15.13-.28.28-.28s.28.13.28.28-.13.28-.28.28-.28-.13-.28-.28Z"/>
        <path class="cls-8" d="M33.38,14.1s-.01-.01,0-.02c.01-.03.04.02,0,.02Z"/>
        <path class="cls-8" d="M33.81,14.45c0-.15.13-.28.28-.28s.28.13.28.28-.13.28-.28.28-.28-.13-.28-.28Z"/>
        <path class="cls-8" d="M34.07,15.48c0-.15.13-.28.28-.28s.28.13.28.28-.13.28-.28.28-.28-.13-.28-.28Z"/>
        <path class="cls-8" d="M33.86,17.18c0-.15.13-.28.28-.28s.28.13.28.28-.13.28-.28.28-.28-.13-.28-.28Z"/>
        <path class="cls-8" d="M33.76,18.11c0-.15.13-.28.28-.28s.28.13.28.28-.13.28-.28.28-.28-.13-.28-.28Z"/>
        <path class="cls-8" d="M29.29,16.75c0-.15.13-.28.28-.28s.28.13.28.28-.13.28-.28.28-.28-.13-.28-.28Z"/>
        <path class="cls-8" d="M32.5,14.38c0-.15.13-.28.28-.28s.28.13.28.28-.13.28-.28.28-.28-.13-.28-.28Z"/>
        <path class="cls-8" d="M33.36,13.82s0,.01,0,.02c0,.05-.02.1-.04.15-.05.08-.14.14-.24.14-.02,0-.04,0-.06,0-.13-.03-.22-.14-.22-.28,0-.15.13-.28.28-.28.12,0,.23.08.27.19,0,.02.01.05.02.08Z"/>
        <path class="cls-8" d="M33.73,13.83s0-.02.02-.01c.04,0-.02.05-.02.01Z"/>
        <path class="cls-8" d="M35.12,16.37c-.13-.22-.32-.4-.43-.63-.16-.33-.02-.72-.15-1.06-.17-.23-.29-.45-.54-.57-.31-.07-.56-.34-.17-.53.51-.17.89.38,1.15.72.26.34.17.78.23,1.17.11.22.29.4.41.61.18.32-.3.61-.49.29Z"/>
        <path class="cls-8" d="M34.83,14.57s-.06-.04-.08-.07c-.15.05-.28-.11-.34-.24-.13-.26.16-.55.42-.43.62-.37.65,1.06,0,.73Z"/>
        <path class="cls-8" d="M33.51,13.93c-.08-.03-.17-.1-.16-.19,0-.03.02-.07.03-.1,0,0,0,0,0,.01.1-.25.5-.4.64-.1.12.3-.25.49-.5.38Z"/>
        <path class="cls-8" d="M34.84,16.83c0-.15.13-.28.28-.28s.28.13.28.28-.13.28-.28.28-.28-.13-.28-.28Z"/>
        <path class="cls-8" d="M34.98,17.76c-.05-.12-.01-.25.08-.32-.18-.39-.26-1.17.33-1.22.15.03.17.22.16.34-.01.13-.09.25-.06.38.06.25.22.51.07.77-.1.24-.46.33-.58.06Z"/>
        <path class="cls-8" d="M34.39,16.46s.04-.05.03-.01c0,.02-.02.03-.03.01Z"/>
        <path class="cls-8" d="M34.87,17.28s-.02-.03,0-.04c.04-.04.07.06,0,.04Z"/>
        <path class="cls-8" d="M35.12,17.45s.08-.03.08.02c0,.06-.1.05-.08-.02Z"/>
        <path class="cls-8" d="M34.23,16.45c0-.15.13-.28.28-.28s.28.13.28.28-.13.28-.28.28-.28-.13-.28-.28Z"/>
        <path class="cls-8" d="M34.81,17.51c0-.15.13-.28.28-.28s.28.13.28.28-.13.28-.28.28-.28-.13-.28-.28Z"/>
        <path class="cls-8" d="M34.84,16.28c0-.15.13-.28.28-.28s.28.13.28.28-.13.28-.28.28-.28-.13-.28-.28Z"/>
        <path class="cls-8" d="M34.65,16.62c0-.15.13-.28.28-.28s.28.13.28.28-.13.28-.28.28-.28-.13-.28-.28Z"/>
        <path class="cls-8" d="M34.57,18.2c-.24-.25.08-.49.28-.63-.08-.22-.16-.47-.06-.7.09-.22.45-.37.51-.05.03.1.01.21.01.31.02.16.1.3.13.45.03.19-.08.4-.27.45-.17.14-.39.37-.6.16Z"/>
        <path class="cls-8" d="M39.6,17.47c0-.15.13-.28.28-.28s.28.13.28.28-.13.28-.28.28-.28-.13-.28-.28Z"/>
        <path class="cls-8" d="M40.17,17.02c0-.15.13-.28.28-.28s.28.13.28.28-.13.28-.28.28-.28-.13-.28-.28Z"/>
        <path class="cls-8" d="M41.35,15.56c0-.15.13-.28.28-.28s.28.13.28.28-.13.28-.28.28-.28-.13-.28-.28Z"/>
        <path class="cls-8" d="M41.69,15.12c0-.15.13-.28.28-.28s.28.13.28.28-.13.28-.28.28-.28-.13-.28-.28Z"/>
        <path class="cls-8" d="M39.75,16.24c0-.15.13-.28.28-.28s.28.13.28.28-.13.28-.28.28-.28-.13-.28-.28Z"/>
        <path class="cls-8" d="M40.14,14.95c0-.15.13-.28.28-.28s.28.13.28.28-.13.28-.28.28-.28-.13-.28-.28Z"/>
        <path class="cls-8" d="M40.4,14.69c0-.15.13-.28.28-.28s.28.13.28.28-.13.28-.28.28-.28-.13-.28-.28Z"/>
        <path class="cls-8" d="M41.49,17.91c0-.15.13-.28.28-.28s.28.13.28.28-.13.28-.28.28-.28-.13-.28-.28Z"/>
        <path class="cls-8" d="M38.78,16.88c0-.15.13-.28.28-.28s.28.13.28.28-.13.28-.28.28-.28-.13-.28-.28Z"/>
        <path class="cls-8" d="M38.99,15.62c0-.15.13-.28.28-.28s.28.13.28.28-.13.28-.28.28-.28-.13-.28-.28Z"/>
        <path class="cls-8" d="M36.8,18.4c-.23-.61,1.22-.31,1.66-1.5.05-.33.12-.64.26-.95.05-.25.49-.56.58-.19.07.25-.11.48-.18.72-.1.39-.13.8-.41,1.12-.38.48-.94.77-1.52.94-.15.07-.33.02-.4-.14Z"/>
        <path class="cls-8" d="M37.38,19.1c0-.15.13-.28.28-.28s.28.13.28.28-.13.28-.28.28-.28-.13-.28-.28Z"/>
        <path class="cls-8" d="M38.4,18.78c0-.15.13-.28.28-.28s.28.13.28.28-.13.28-.28.28-.28-.13-.28-.28Z"/>
        <path class="cls-8" d="M38.87,18.09c0-.15.13-.28.28-.28s.28.13.28.28-.13.28-.28.28-.28-.13-.28-.28Z"/>
        <path class="cls-8" d="M39.37,19.71c0-.15.13-.28.28-.28s.28.13.28.28-.13.28-.28.28-.28-.13-.28-.28Z"/>
        <path class="cls-8" d="M38.43,17.88c0-.15.13-.28.28-.28s.28.13.28.28-.13.28-.28.28-.28-.13-.28-.28Z"/>
        <path class="cls-8" d="M38.61,18.05c0-.15.13-.28.28-.28s.28.13.28.28-.13.28-.28.28-.28-.13-.28-.28Z"/>
        <path class="cls-8" d="M38.24,17.45c0-.15.13-.28.28-.28s.28.13.28.28-.13.28-.28.28-.28-.13-.28-.28Z"/>
        <path class="cls-8" d="M38.58,17.64c.06-.06.1.07.03.08-.04,0-.08-.04-.03-.08Z"/>
        <path class="cls-8" d="M37.89,18.26c0-.15.13-.28.28-.28s.28.13.28.28-.13.28-.28.28-.28-.13-.28-.28Z"/>
        <path class="cls-8" d="M38.08,18.27c-.15-.06-.2-.23-.15-.37.04-.12.14-.16.25-.19.15-.1.24-.26.3-.44.11-.27-.06-.81.39-.79.42.07.2.77.12,1.04.18.28-.12.56-.38.64-.17.05-.35.17-.53.1Z"/>
        <path class="cls-8" d="M36.79,18.57c-.18-.48.88-.63,1.19-.74.19-.06.39-.22.59-.15.09.05.11.17.1.26-.1.44-.67.45-1.03.57-.27.07-.66.44-.85.06Z"/>
        <path class="cls-8" d="M41.6,13.23c0-.15.13-.28.28-.28s.28.13.28.28-.13.28-.28.28-.28-.13-.28-.28Z"/>
        <path class="cls-8" d="M42.11,12.77c0-.15.13-.28.28-.28s.28.13.28.28-.13.28-.28.28-.28-.13-.28-.28Z"/>
        <path class="cls-8" d="M42.64,12.32c0-.15.13-.28.28-.28s.28.13.28.28-.13.28-.28.28-.28-.13-.28-.28Z"/>
        <path class="cls-8" d="M41.68,11.87c0-.15.13-.28.28-.28s.28.13.28.28-.13.28-.28.28-.28-.13-.28-.28Z"/>
        <path class="cls-8" d="M40.97,13.35c-.24-.26.09-.55.23-.77.02-.55.06-1.1.24-1.63.08-.22.19-.55.49-.43.14.06.21.23.15.37-.14.28-.2.58-.25.88.37.31.12.77-.12,1.07-.1.28-.41.8-.75.52Z"/>
        <path class="cls-8" d="M45.22,15.24c.15,0,.28.13.28.28s-.13.28-.28.28-.28-.13-.28-.28.13-.28.28-.28Z"/>
        <path class="cls-8" d="M45.8,15.45s-.01-.04,0-.03c.01,0,0,.03,0,.03Z"/>
        <path class="cls-8" d="M47.52,13.83c.06.26.13.52.1.79,0,.33-.45.96-.87,1.15.04.26,0,.55-.16.77-.12.18-.26.4-.42.59-.01.13-.11.23-.24.25-.2.18-.44.3-.72.26-.35-.11-.54-.55-.39-.88.14-.28.4-.48.66-.65.26-.28.34-.63.46-.98.02-.04.05-.07.09-.1-.41-.27-.17-.93-.13-1.35.07-.41-.16-1.06.35-1.23.83-.19,1.22.68,1.27,1.37Z"/>
        <path class="cls-8" d="M45.7,17.18c-.24-.44.42-.78.6-1.13.21-.34.29-.74.5-1.08.19-.32.67-.04.49.29-.18.31-.27.66-.44.98-.18.26-.8,1.24-1.15.95Z"/>
        <path class="cls-8" d="M46.11,15.65c-.26-.07-.22-.35-.15-.55.03-.17.13-.35.3-.4.39-.06.27.53.2.75-.04.15-.2.24-.35.2Z"/>
        <path class="cls-8" d="M45.73,17.98c0-.15.13-.28.28-.28s.28.13.28.28-.13.28-.28.28-.28-.13-.28-.28Z"/>
        <path class="cls-8" d="M46.57,17.28s0-.04.02-.04c.04,0,0,.07-.02.04Z"/>
        <path class="cls-8" d="M46.54,16.71c0-.15.13-.28.28-.28s.28.13.28.28-.13.28-.28.28-.28-.13-.28-.28Z"/>
        <path class="cls-8" d="M46.22,18.36c0-.15.13-.28.28-.28s.28.13.28.28-.13.28-.28.28-.28-.13-.28-.28Z"/>
        <path class="cls-8" d="M46.73,18.85c0-.15.13-.28.28-.28s.28.13.28.28-.13.28-.28.28-.28-.13-.28-.28Z"/>
        <path class="cls-8" d="M45.82,19.91c0-.15.13-.28.28-.28s.28.13.28.28-.13.28-.28.28-.28-.13-.28-.28Z"/>
        <path class="cls-8" d="M44.35,18.32s.01.02,0,.02-.01-.02,0-.02Z"/>
        <path class="cls-8" d="M44.65,18.64s0,.01,0,.01,0-.01,0-.01Z"/>
        <path class="cls-8" d="M47.6,14.23c0-.15.13-.28.28-.28s.28.13.28.28-.13.28-.28.28-.28-.13-.28-.28Z"/>
        <path class="cls-8" d="M46.55,11.68c0-.15.13-.28.28-.28s.28.13.28.28-.13.28-.28.28-.28-.13-.28-.28Z"/>
        <path class="cls-8" d="M46.18,11.08s.03-.05.02-.01c0,0,0,.02-.02.01Z"/>
        <path class="cls-8" d="M44.17,18.55c0-.15.13-.28.28-.28s.28.13.28.28-.13.28-.28.28-.28-.13-.28-.28Z"/>
        <path class="cls-8" d="M46.39,17.17c0-.15.13-.28.28-.28s.28.13.28.28-.13.28-.28.28-.28-.13-.28-.28Z"/>
        <path class="cls-8" d="M41.02,14.16c-.06-.05-.12-.15-.07-.23,0,0,0-.01.01-.02,0-.34-.18-1.1.38-1.04.14.04.25.2.2.35-.11.29.12.65-.12.9-.1.1-.28.14-.4.04Z"/>
        <path class="cls-8" d="M42.2,10.92c0-.15.13-.28.28-.28s.28.13.28.28-.13.28-.28.28-.28-.13-.28-.28Z"/>
        <path class="cls-8" d="M36.22,6.07c0-.15.13-.28.28-.28s.28.13.28.28-.13.28-.28.28-.28-.13-.28-.28Z"/>
        <path class="cls-8" d="M39.18,7.03c0-.15.13-.28.28-.28s.28.13.28.28-.13.28-.28.28-.28-.13-.28-.28Z"/>
        <path class="cls-8" d="M39.69,7.37c0-.15.13-.28.28-.28s.28.13.28.28-.13.28-.28.28-.28-.13-.28-.28Z"/>
        <path class="cls-8" d="M31.83,5.82c0-.15.13-.28.28-.28s.28.13.28.28-.13.28-.28.28-.28-.13-.28-.28Z"/>
        <path class="cls-8" d="M31.89,3.14c0-.15.13-.28.28-.28s.28.13.28.28-.13.28-.28.28-.28-.13-.28-.28Z"/>
        <path class="cls-8" d="M31.66,2.33c0-.15.13-.28.28-.28s.28.13.28.28-.13.28-.28.28-.28-.13-.28-.28Z"/>
        <path class="cls-6" d="M38.52,7.92c1.19,1.22.74,2.73.84,4.24-.27.72-1.2,1.81-2.05,1.35-.58-.28-.68-.95-.81-1.51-.19-.55-.32-1.14-.69-1.6-1.37-1.58-3.85-.95-4.27-2.1-.62-.11-.93-1.02-.28-1.33.66-.27,1.4-.31,2.09-.45,2.18-.43,3.59-.34,5.17,1.4Z"/>
        <path class="cls-6" d="M32.94,9.6c-.05-.01-.05-.09,0-.1.08-.01.07.12,0,.1Z"/>
        <path class="cls-6" d="M33.42,9.54c0-.15.13-.28.28-.28s.28.13.28.28-.13.28-.28.28-.28-.13-.28-.28Z"/>
        <path class="cls-6" d="M34.28,9.24c0-.15.13-.28.28-.28s.28.13.28.28-.13.28-.28.28-.28-.13-.28-.28Z"/>
        <path class="cls-6" d="M32.55,9.7c0-.15.13-.28.28-.28s.28.13.28.28-.13.28-.28.28-.28-.13-.28-.28Z"/>
        <path class="cls-6" d="M34.28,10.95c0-.15.13-.28.28-.28s.28.13.28.28-.13.28-.28.28-.28-.13-.28-.28Z"/>
        <path class="cls-6" d="M34.86,9.99c0-.15.13-.28.28-.28s.28.13.28.28-.13.28-.28.28-.28-.13-.28-.28Z"/>
        <path class="cls-6" d="M35.26,9.78c0-.15.13-.28.28-.28s.28.13.28.28-.13.28-.28.28-.28-.13-.28-.28Z"/>
        <path class="cls-6" d="M35.27,10.42c-.31,0-.73-.23-.68-.59.04-.1.19-.13.28-.13.16-.02.26.13.41.14.37,0,.37.57,0,.57Z"/>
        <path class="cls-6" d="M34.53,10.06c-.21-.18-.44-.69-.06-.82.24-.07.35.16.41.35.22.34.09.74-.34.47Z"/>
        <path class="cls-6" d="M35.82,11.12c-.24-.23-.62-.7-.31-1,.39-.1.46.42.71.6.26.26-.14.66-.4.4Z"/>
        <path class="cls-6" d="M35.38,12.94c0-.15.13-.28.28-.28s.28.13.28.28-.13.28-.28.28-.28-.13-.28-.28Z"/>
        <path class="cls-6" d="M35.59,13.52c0-.15.13-.28.28-.28s.28.13.28.28-.13.28-.28.28-.28-.13-.28-.28Z"/>
        <path class="cls-6" d="M35.49,14.71c0-.15.13-.28.28-.28s.28.13.28.28-.13.28-.28.28-.28-.13-.28-.28Z"/>
        <path class="cls-6" d="M36.33,12.94c-.25-.04-.29-.46-.02-.49.33-.05.32.5.02.49Z"/>
        <path class="cls-6" d="M36.08,11.88c0-.15.13-.28.28-.28s.28.13.28.28-.13.28-.28.28-.28-.13-.28-.28Z"/>
        <path class="cls-6" d="M36.78,12.87c-.18-.25-.71-.9-.22-1.07.37.05.44.49.67.72.23.29-.23.64-.45.35Z"/>
        <path class="cls-6" d="M37.92,13.62c-.19-.39.37-.48.59-.66.28-.21.53-.4.74-.67.04-.15,0-.31,0-.46,0-.35-.28-1.06.24-1.12.37.21.24.76.33,1.11.03.32.06.69-.2.93-.27.26-1.39,1.35-1.7.87Z"/>
        <path class="cls-6" d="M37.07,14.71c0-.15.13-.28.28-.28s.28.13.28.28-.13.28-.28.28-.28-.13-.28-.28Z"/>
        <path class="cls-6" d="M37.33,15.12c0-.15.13-.28.28-.28s.28.13.28.28-.13.28-.28.28-.28-.13-.28-.28Z"/>
        <path class="cls-6" d="M38.63,14.25c0-.15.13-.28.28-.28s.28.13.28.28-.13.28-.28.28-.28-.13-.28-.28Z"/>
        <path class="cls-6" d="M30.5,9.06c0-.15.13-.28.28-.28s.28.13.28.28-.13.28-.28.28-.28-.13-.28-.28Z"/>
        <path class="cls-6" d="M29,8.41c0-.15.13-.28.28-.28s.28.13.28.28-.13.28-.28.28-.28-.13-.28-.28Z"/>
        <path class="cls-6" d="M28.87,7.83c0-.15.13-.28.28-.28s.28.13.28.28-.13.28-.28.28-.28-.13-.28-.28Z"/>
        <path class="cls-6" d="M30.86,7.64c-.41-.13-.37-.66.04-.76.3-.03,1.04-.13,1.07.31-.11.29-.47.24-.71.23-.02.18-.23.29-.39.22Z"/>
        <path class="cls-6" d="M33.6,7.19c-.35-.07-.74.04-1.07-.1-.22-.11-.12-.34.06-.43.34-.16.74-.04,1.1-.03.37.05.29.61-.08.56Z"/>
        <path class="cls-6" d="M30.34,7.83c0-.15.13-.28.28-.28s.28.13.28.28-.13.28-.28.28-.28-.13-.28-.28Z"/>
        <path class="cls-6" d="M27.8,6.72s.02-.03.03-.02c.02.02-.02.04-.03.02Z"/>
        <path class="cls-6" d="M26.83,7.41c0-.15.13-.28.28-.28s.28.13.28.28-.13.28-.28.28-.28-.13-.28-.28Z"/>
        <path class="cls-6" d="M32.09,9.01c-.25,0-.51-.05-.67-.24-.16-.17-.45-.41-.28-.66.12-.1.3-.06.43.01.16.07.23.31.41.32.19,0,.37,0,.56,0,.15,0,.28.13.28.28-.02.37-.47.28-.73.29Z"/>
        <path class="cls-6" d="M39.16,10.72c-.17-.47,0-.99-.2-1.44-.28-.37-.13-.87.35-.49.46.49.22,1.2.4,1.79.09.36-.45.51-.55.15Z"/>
        <path class="cls-6" d="M40.15,9.2c0-.15.13-.28.28-.28s.28.13.28.28-.13.28-.28.28-.28-.13-.28-.28Z"/>
        <path class="cls-6" d="M40.17,10.19c0-.15.13-.28.28-.28s.28.13.28.28-.13.28-.28.28-.28-.13-.28-.28Z"/>
        <path class="cls-6" d="M40.79,11.01c0-.15.13-.28.28-.28s.28.13.28.28-.13.28-.28.28-.28-.13-.28-.28Z"/>
        <path class="cls-6" d="M39.63,10.2c0-.15.13-.28.28-.28s.28.13.28.28-.13.28-.28.28-.28-.13-.28-.28Z"/>
        <path class="cls-6" d="M39.43,11.62c.03-.31.06-.63-.04-.94-.11-.3-.45-.85-.01-1.02.36.05.37.5.52.76.14.41.21,1,.01,1.4-.16.18-.5.04-.48-.2Z"/>
        <path class="cls-6" d="M40.22,12.82c0-.15.13-.28.28-.28s.28.13.28.28-.13.28-.28.28-.28-.13-.28-.28Z"/>
        <path class="cls-6" d="M40.25,13.13c0-.15.13-.28.28-.28s.28.13.28.28-.13.28-.28.28-.28-.13-.28-.28Z"/>
        <path class="cls-6" d="M38.5,8.69c-.27-.09-.23-.42-.32-.63-.18-.28-.53-.38-.79-.56-.46-.31-1.01-.59-1.54-.69-.4-.02-.36-.62.03-.57.15.03.36.07.48.12.54.16,1,.46,1.47.75.45.23.94.56.96,1.11.03.19-.07.49-.3.47Z"/>
        <path class="cls-6" d="M33.4,7.11c-.15.02-.28-.09-.24-.25.05-.29.37-.35.6-.43.15-.05.31.05.35.2.08.37-.45.44-.71.48Z"/>
        <path class="cls-8" d="M31.91,8.47c0-.15.13-.28.28-.28s.28.13.28.28-.13.28-.28.28-.28-.13-.28-.28Z"/>
        <path class="cls-8" d="M32.91,7.9c0-.15.13-.28.28-.28s.28.13.28.28-.13.28-.28.28-.28-.13-.28-.28Z"/>
        <path class="cls-8" d="M31.93,6.97c0-.15.13-.28.28-.28s.28.13.28.28-.13.28-.28.28-.28-.13-.28-.28Z"/>
        <path class="cls-8" d="M39.18,12.65c0-.15.13-.28.28-.28s.28.13.28.28-.13.28-.28.28-.28-.13-.28-.28Z"/>
        <path class="cls-8" d="M39.39,11.22c0-.15.13-.28.28-.28s.28.13.28.28-.13.28-.28.28-.28-.13-.28-.28Z"/>
        <path class="cls-8" d="M37.89,7.97c0-.15.13-.28.28-.28s.28.13.28.28-.13.28-.28.28-.28-.13-.28-.28Z"/>
        <path class="cls-8" d="M35.59,6.66c0-.15.13-.28.28-.28s.28.13.28.28-.13.28-.28.28-.28-.13-.28-.28Z"/>
        <path class="cls-8" d="M33.67,6.82c0-.15.13-.28.28-.28s.28.13.28.28-.13.28-.28.28-.28-.13-.28-.28Z"/>
        <path class="cls-6" d="M32.6,6.58c0-.15.13-.28.28-.28s.28.13.28.28-.13.28-.28.28-.28-.13-.28-.28Z"/>
        <path class="cls-6" d="M34.39,6.31c0-.15.13-.28.28-.28s.28.13.28.28-.13.28-.28.28-.28-.13-.28-.28Z"/>
        <path class="cls-6" d="M30.27,7.03s.06-.07.04-.01c0,.02-.02.02-.04.01Z"/>
        <path class="cls-6" d="M38.52,13.65c0-.15.13-.28.28-.28s.28.13.28.28-.13.28-.28.28-.28-.13-.28-.28Z"/>
        <path class="cls-6" d="M36.9,13.44c0-.15.13-.28.28-.28s.28.13.28.28-.13.28-.28.28-.28-.13-.28-.28Z"/>
        <path class="cls-6" d="M46.25,14.32c0-.15.13-.28.28-.28s.28.13.28.28-.13.28-.28.28-.28-.13-.28-.28Z"/>
        <path class="cls-6" d="M46.11,15.62c0-.15.13-.28.28-.28s.28.13.28.28-.13.28-.28.28-.28-.13-.28-.28Z"/>
        <path class="cls-6" d="M46.5,14.83c0-.15.13-.28.28-.28s.28.13.28.28-.13.28-.28.28-.28-.13-.28-.28Z"/>
        <path class="cls-8" d="M25.5,20.51c.58.51.09,1-.56.88-1.89-.14-3.82.06-5.67-.4-1.19-.23-2.78-.56-3.1-1.92-.19-.82.55-1.4,1.27-.98.4.21.2.69.81.85,1.06.22,2.1.54,3.16.75.73.1,1.47.04,2.21.14.66.1,1.33.3,1.89.68Z"/>
        <path class="cls-8" d="M19.03,19.14c0-.15.13-.28.28-.28s.28.13.28.28-.13.28-.28.28-.28-.13-.28-.28Z"/>
        <path class="cls-8" d="M20.04,19.64c0-.15.13-.28.28-.28s.28.13.28.28-.13.28-.28.28-.28-.13-.28-.28Z"/>
        <path class="cls-8" d="M18.28,19.19c0-.15.13-.28.28-.28s.28.13.28.28-.13.28-.28.28-.28-.13-.28-.28Z"/>
        <path class="cls-8" d="M16.57,17.43c0-.15.13-.28.28-.28s.28.13.28.28-.13.28-.28.28-.28-.13-.28-.28Z"/>
        <path class="cls-8" d="M13.88,19.49c0-.15.13-.28.28-.28s.28.13.28.28-.13.28-.28.28-.28-.13-.28-.28Z"/>
        <path class="cls-8" d="M15.53,21.66c0-.15.13-.28.28-.28s.28.13.28.28-.13.28-.28.28-.28-.13-.28-.28Z"/>
        <path class="cls-8" d="M17.11,21.28c0-.15.13-.28.28-.28s.28.13.28.28-.13.28-.28.28-.28-.13-.28-.28Z"/>
        <path class="cls-8" d="M16.25,19.67c0-.15.13-.28.28-.28s.28.13.28.28-.13.28-.28.28-.28-.13-.28-.28Z"/>
        <path class="cls-8" d="M16.22,20.58c0-.15.13-.28.28-.28s.28.13.28.28-.13.28-.28.28-.28-.13-.28-.28Z"/>
        <path class="cls-8" d="M16.1,19.07c0-.15.13-.28.28-.28s.28.13.28.28-.13.28-.28.28-.28-.13-.28-.28Z"/>
        <path class="cls-8" d="M14.96,18.81c0-.15.13-.28.28-.28s.28.13.28.28-.13.28-.28.28-.28-.13-.28-.28Z"/>
        <path class="cls-8" d="M13.31,18.38c-.06,0-.07-.09-.01-.11.08-.02.09.11.01.11Z"/>
        <path class="cls-8" d="M12.92,18.39c0-.15.13-.28.28-.28s.28.13.28.28-.13.28-.28.28-.28-.13-.28-.28Z"/>
        <path class="cls-8" d="M18.92,21.78c0-.15.13-.28.28-.28s.28.13.28.28-.13.28-.28.28-.28-.13-.28-.28Z"/>
        <path class="cls-8" d="M19.39,20.95c0-.15.13-.28.28-.28s.28.13.28.28-.13.28-.28.28-.28-.13-.28-.28Z"/>
        <path class="cls-8" d="M19.43,21.02c0-.15.13-.28.28-.28s.28.13.28.28-.13.28-.28.28-.28-.13-.28-.28Z"/>
        <path class="cls-8" d="M21.03,21.64c0-.15.13-.28.28-.28s.28.13.28.28-.13.28-.28.28-.28-.13-.28-.28Z"/>
        <path class="cls-8" d="M21.57,21.98c0-.15.13-.28.28-.28s.28.13.28.28-.13.28-.28.28-.28-.13-.28-.28Z"/>
        <path class="cls-8" d="M21.38,22.83c0-.15.13-.28.28-.28s.28.13.28.28-.13.28-.28.28-.28-.13-.28-.28Z"/>
        <path class="cls-8" d="M23.57,23.16c0-.15.13-.28.28-.28s.28.13.28.28-.13.28-.28.28-.28-.13-.28-.28Z"/>
        <path class="cls-8" d="M23.23,21.38c0-.15.13-.28.28-.28s.28.13.28.28-.13.28-.28.28-.28-.13-.28-.28Z"/>
        <path class="cls-8" d="M22.71,21.34c0-.15.13-.28.28-.28s.28.13.28.28-.13.28-.28.28-.28-.13-.28-.28Z"/>
        <path class="cls-8" d="M22.04,21.27s.02-.02.02,0c0,.01-.01.01-.02,0Z"/>
        <path class="cls-8" d="M25.13,21.87c0-.15.13-.28.28-.28s.28.13.28.28-.13.28-.28.28-.28-.13-.28-.28Z"/>
        <path class="cls-8" d="M27.59,20.87c0-.15.13-.28.28-.28s.28.13.28.28-.13.28-.28.28-.28-.13-.28-.28Z"/>
        <path class="cls-8" d="M23.49,22.03c0-.15.13-.28.28-.28s.28.13.28.28-.13.28-.28.28-.28-.13-.28-.28Z"/>
        <path class="cls-8" d="M23.81,20.83c0-.15.13-.28.28-.28s.28.13.28.28-.13.28-.28.28-.28-.13-.28-.28Z"/>
        <path class="cls-8" d="M25.79,23.28c0-.15.13-.28.28-.28s.28.13.28.28-.13.28-.28.28-.28-.13-.28-.28Z"/>
        <path class="cls-8" d="M25.1,20.83c0-.15.13-.28.28-.28s.28.13.28.28-.13.28-.28.28-.28-.13-.28-.28Z"/>
        <path class="cls-8" d="M25.98,21.05c0-.15.13-.28.28-.28s.28.13.28.28-.13.28-.28.28-.28-.13-.28-.28Z"/>
        <path class="cls-8" d="M26.18,20.96c0-.15.13-.28.28-.28s.28.13.28.28-.13.28-.28.28-.28-.13-.28-.28Z"/>
        <path class="cls-8" d="M25.03,21.22c0-.15.13-.28.28-.28s.28.13.28.28-.13.28-.28.28-.28-.13-.28-.28Z"/>
        <path class="cls-8" d="M25.48,21.55c-.64.02-.55-.56.02-.57.07-.36.61-.3.57.07-.05.3-.32.52-.62.5.01,0,.03,0,.04,0Z"/>
        <path class="cls-8" d="M24.32,21.63c-.32-.16-.27-.46.08-.52.23-.04.56-.18.65.13.08.38-.46.47-.73.38Z"/>
        <path class="cls-8" d="M20.97,20.16c-.53-.07-.48-.56.04-.57.4.01.36.61-.04.57Z"/>
        <path class="cls-8" d="M23.54,19.88c0-.15.13-.28.28-.28s.28.13.28.28-.13.28-.28.28-.28-.13-.28-.28Z"/>
        <path class="cls-8" d="M25.07,19.78c0-.06.09,0,.03.03-.02,0-.04,0-.03-.03Z"/>
        <path class="cls-8" d="M15.25,20c0-.15.13-.28.28-.28s.28.13.28.28-.13.28-.28.28-.28-.13-.28-.28Z"/>
        <path class="cls-8" d="M16.81,20.16c0-.15.13-.28.28-.28s.28.13.28.28-.13.28-.28.28-.28-.13-.28-.28Z"/>
        <path class="cls-8" d="M15.73,18.87c0-.15.13-.28.28-.28s.28.13.28.28-.13.28-.28.28-.28-.13-.28-.28Z"/>
        <path class="cls-8" d="M15.4,18.15c0-.15.13-.28.28-.28s.28.13.28.28-.13.28-.28.28-.28-.13-.28-.28Z"/>
        <path class="cls-8" d="M13.06,20.32c0-.15.13-.28.28-.28s.28.13.28.28-.13.28-.28.28-.28-.13-.28-.28Z"/>
        <path class="cls-8" d="M15.88,19.44c0-.15.13-.28.28-.28s.28.13.28.28-.13.28-.28.28-.28-.13-.28-.28Z"/>
        <path class="cls-8" d="M16.23,19.7c0-.15.13-.28.28-.28s.28.13.28.28-.13.28-.28.28-.28-.13-.28-.28Z"/>
        <path class="cls-8" d="M16.59,19.99c-.29.01-.66-.31-.44-.59.16-.1.35.01.52.03.37.05.29.61-.08.56Z"/>
        <path class="cls-8" d="M17.18,20.42c-.64-.05-1.7-.76-1.08-1.43.35-.23.59.03.39.39.07.34.54.43.84.5.36.09.2.65-.15.55Z"/>
        <path class="cls-8" d="M19.08,21.2c-1.95-.09-1.12-1.49-.76-.83.26.31.75.25,1.12.28.23-.04.57-.12.62.2,0,.47-.67.36-.98.36Z"/>
        <path class="cls-8" d="M32.17,24.06c0-.15.13-.28.28-.28s.28.13.28.28-.13.28-.28.28-.28-.13-.28-.28Z"/>
        <path class="cls-8" d="M34.1,23.1c0-.15.13-.28.28-.28s.28.13.28.28-.13.28-.28.28-.28-.13-.28-.28Z"/>
        <path class="cls-8" d="M33.88,23.88c0-.15.13-.28.28-.28s.28.13.28.28-.13.28-.28.28-.28-.13-.28-.28Z"/>
        <path class="cls-8" d="M36.18,23.59c0-.15.13-.28.28-.28s.28.13.28.28-.13.28-.28.28-.28-.13-.28-.28Z"/>
        <path class="cls-8" d="M36.66,24.36c0-.15.13-.28.28-.28s.28.13.28.28-.13.28-.28.28-.28-.13-.28-.28Z"/>
        <path class="cls-8" d="M38.48,24.21s-.02-.03,0-.04c.04-.03.05.06,0,.04Z"/>
        <path class="cls-8" d="M35.68,24.26c0-.15.13-.28.28-.28s.28.13.28.28-.13.28-.28.28-.28-.13-.28-.28Z"/>
        <path class="cls-8" d="M39.06,24.85c0-.15.13-.28.28-.28s.28.13.28.28-.13.28-.28.28-.28-.13-.28-.28Z"/>
        <path class="cls-8" d="M40.69,25.19s.04.06,0,.06-.04-.06,0-.06Z"/>
        <path class="cls-8" d="M44.08,23.81c-.07-.11.07-.26.18-.18.15.11-.08.32-.18.18Z"/>
        <path class="cls-8" d="M43.68,23.89c0-.15.13-.28.28-.28s.28.13.28.28-.13.28-.28.28-.28-.13-.28-.28Z"/>
        <path class="cls-8" d="M43.7,23.86c0-.15.13-.28.28-.28s.28.13.28.28-.13.28-.28.28-.28-.13-.28-.28Z"/>
        <path class="cls-8" d="M39.65,25.17c0-.15.13-.28.28-.28s.28.13.28.28-.13.28-.28.28-.28-.13-.28-.28Z"/>
        <path class="cls-8" d="M52.83,17.96c.15,0,.28.13.28.28s-.13.28-.28.28-.28-.13-.28-.28.13-.28.28-.28Z"/>
        <path class="cls-8" d="M52.52,17.04c0-.15.13-.28.28-.28s.28.13.28.28-.13.28-.28.28-.28-.13-.28-.28Z"/>
        <path class="cls-8" d="M52.49,16.72c0-.15.13-.28.28-.28s.28.13.28.28-.13.28-.28.28-.28-.13-.28-.28Z"/>
        <path class="cls-8" d="M50.72,18.1c0-.15.13-.28.28-.28s.28.13.28.28-.13.28-.28.28-.28-.13-.28-.28Z"/>
        <path class="cls-8" d="M55.35,18.03c0-.15.13-.28.28-.28s.28.13.28.28-.13.28-.28.28-.28-.13-.28-.28Z"/>
        <path class="cls-8" d="M55.65,19.05c0-.15.13-.28.28-.28s.28.13.28.28-.13.28-.28.28-.28-.13-.28-.28Z"/>
        <path class="cls-8" d="M54.83,20.15c0-.15.13-.28.28-.28s.28.13.28.28-.13.28-.28.28-.28-.13-.28-.28Z"/>
        <path class="cls-8" d="M53.36,22.02c0-.15.13-.28.28-.28s.28.13.28.28-.13.28-.28.28-.28-.13-.28-.28Z"/>
        <path class="cls-8" d="M55.48,20.74c0-.15.13-.28.28-.28s.28.13.28.28-.13.28-.28.28-.28-.13-.28-.28Z"/>
        <path class="cls-8" d="M56.93,19.38c0-.15.13-.28.28-.28s.28.13.28.28-.13.28-.28.28-.28-.13-.28-.28Z"/>
        <path class="cls-8" d="M52,22.14c0-.15.13-.28.28-.28s.28.13.28.28-.13.28-.28.28-.28-.13-.28-.28Z"/>
        <path class="cls-8" d="M49.99,21.9c0-.15.13-.28.28-.28s.28.13.28.28-.13.28-.28.28-.28-.13-.28-.28Z"/>
        <path class="cls-8" d="M48.32,22.53c0-.15.13-.28.28-.28s.28.13.28.28-.13.28-.28.28-.28-.13-.28-.28Z"/>
        <path class="cls-8" d="M54.1,20.29s-.03-.03-.05-.04c0,0-.01.01-.02.02.02,0,.05.01.07.02ZM55.27,18.95s0,.03,0,.05h0c0,.16-.13.29-.28.29-.09,0-.17-.04-.22-.11-.1.23-.22.45-.35.64.08.05.14.14.14.25,0,.15-.13.28-.28.28-.04,0-.08,0-.12-.03.07.05.11.13.11.23,0,.15-.13.28-.28.28s-.28-.12-.28-.27c-.48.36-1.05.61-1.63.67-.88-.2-.1-.84.49-1.39-.06-.05-.11-.13-.11-.22,0-.12.08-.22.18-.26-.03-.05-.05-.1-.05-.16,0-.15.13-.28.28-.28.11,0,.21.07.26.17.18-.47.24-1.01.37-1.48.02-.21.06-.47.15-.65-.02-.04-.03-.08-.03-.13,0-.14.1-.25.23-.28.04-.15.12-.27.26-.31.27-.07.5.11.67.37.03-.13.14-.23.28-.23.15,0,.28.13.28.28,0,.1-.05.18-.13.23.07.05.12.13.12.23,0,.15-.13.28-.28.28,0,0,0,0-.01,0,0,.12,0,.24-.03.34.06.29.02.61-.06.93.02,0,.03,0,.05,0,.15,0,.28.13.28.28Z"/>
      </g>
      <g>
        <path class="cls-5" d="M33.74,29.2c-.07,0-.15,0-.22,0-.07,0-.15,0-.22,0-.02,0-.04,0-.06,0-1.01-.02-2.01-.06-3.02-.12-.64-.04-1.28-.08-1.92-.14-.62-.06-1.25-.13-1.87-.2-.63-.07-1.25-.16-1.88-.23-.64-.08-1.28-.15-1.93-.23-.64-.07-1.28-.16-1.93-.24-.65-.08-1.3-.16-1.95-.25-1.31-.19-2.63-.41-3.93-.68-.66-.14-1.31-.29-1.95-.47-.62-.17-1.23-.36-1.84-.55-.63-.2-1.26-.41-1.88-.67-.59-.25-1.18-.52-1.76-.8-.29-.14-.57-.28-.85-.44-.28-.16-.55-.33-.82-.5-.54-.35-1.09-.7-1.57-1.13-.25-.22-.49-.45-.72-.69-.21-.23-.39-.48-.57-.73-.17-.26-.31-.55-.39-.85-.04-.16-.08-.32-.09-.48,0-.08,0-.16.02-.24.03-.09.07-.18.15-.24.06-.04.15-.09.22-.06.06.03.1.09.13.15.03.06.04.12.05.18,0,.06,0,.13,0,.19,0,.06.01.12.02.18.02.1.05.2.08.29.03.09.07.18.11.26.07.13.14.26.23.39.12.17.24.33.37.48.26.28.54.55.8.78.28.24.57.45.85.65,0,0,.02.01.03.02h0c.3.2.6.4.91.59.32.2.65.37.98.54.5.25,1.02.49,1.53.72.25.11.51.22.76.33.26.1.52.2.78.29.62.21,1.24.41,1.87.59.63.19,1.27.36,1.92.51.28.07.57.13.86.19,1.28.26,2.57.48,3.86.66.65.09,1.31.17,1.96.25.66.08,1.32.17,1.97.25.63.07,1.26.14,1.9.22.63.08,1.26.16,1.9.24.92.1,1.83.21,2.75.27,1.16.08,2.33.14,3.5.17.21,0,.42,0,.64.01.21,0,.43,0,.64-.01,1.17-.03,2.33-.09,3.5-.17.92-.06,1.83-.17,2.75-.27.63-.07,1.27-.16,1.9-.24.63-.08,1.26-.15,1.9-.22.66-.08,1.32-.16,1.97-.25.65-.08,1.31-.16,1.96-.25,1.29-.18,2.58-.4,3.86-.66.29-.06.57-.12.86-.19.64-.15,1.28-.32,1.92-.51.63-.18,1.25-.38,1.87-.59.26-.09.52-.19.78-.29.26-.1.51-.22.76-.33.52-.23,1.03-.47,1.53-.72.33-.17.67-.35.98-.54.31-.19.61-.39.91-.59,0,0,0,0,0,0h.01c.3-.21.59-.43.84-.64.29-.25.57-.51.82-.8.13-.16.25-.32.37-.48.08-.13.16-.25.23-.39.04-.09.08-.17.11-.26.03-.1.06-.19.08-.29.01-.06.02-.12.02-.18,0-.06,0-.13,0-.19,0-.06.02-.12.05-.18.03-.06.07-.12.13-.15.07-.03.16.01.22.06.08.06.12.15.15.24.02.08.02.16.02.24,0,.16-.04.33-.09.48-.08.3-.22.59-.39.85-.17.26-.35.51-.57.73-.23.24-.47.47-.72.69-.48.43-1.03.79-1.57,1.13-.27.17-.54.34-.82.5-.28.15-.56.3-.85.44-.58.28-1.17.55-1.76.8-.61.26-1.24.47-1.88.67-.61.19-1.22.38-1.84.55-.65.18-1.3.33-1.95.47-1.3.27-2.61.49-3.93.68-.65.09-1.3.17-1.95.25-.64.08-1.28.17-1.93.24-.64.07-1.28.15-1.93.23-.63.08-1.25.16-1.88.23-.62.07-1.25.14-1.87.2-.64.06-1.28.11-1.92.14-1.01.06-2.01.11-3.02.12-.02,0-.04,0-.06,0h0Z"/>
        <path class="cls-5" d="M61.62,22.8s0,0-.01,0c0,0,0,0,0,0,0,0,0,0,.01,0Z"/>
        <path class="cls-5" d="M5.44,22.81s0,0-.01,0c0,0,0,0,.01,0,0,0,0,0,0,0Z"/>
        <path class="cls-5" d="M2.58,19.73c-.07-.05-.12-.13-.14-.22-.02-.09-.02-.17,0-.26,0-.08.02-.16.04-.25.06-.32.17-.62.29-.92.12-.3.28-.59.45-.87.17-.28.37-.56.6-.8.4-.44.83-.85,1.3-1.21.12-.09.24-.18.36-.26.05-.04.11-.08.16-.11.02-.01.04-.03.07-.05.03-.03.07-.05.08-.05,1.09-.74,2.3-1.28,3.53-1.76,1.24-.49,2.5-.9,3.78-1.27,1.27-.37,2.55-.71,3.84-1.02,1.13-.27,2.27-.49,3.42-.7-.06.07-.12.14-.19.21-.13.15-.26.31-.38.47-.36.07-.71.13-1.06.21-1.3.27-2.59.58-3.88.93-.62.17-1.25.35-1.87.53-.64.19-1.28.39-1.92.61-.1.03-.19.07-.29.1-1.07.37-2.13.79-3.14,1.29-.25.13-.5.26-.75.4-.26.15-.52.31-.77.48-.02.01-.04.03-.05.04-.02.02-.05.04-.08.05-.34.23-.66.48-.97.74-.27.24-.53.5-.77.77-.14.17-.28.34-.4.52-.15.22-.28.45-.4.68-.1.2-.18.4-.25.61-.05.16-.1.33-.14.5-.01.06-.02.12-.03.18-.01.09-.01.17-.05.25-.04.1-.12.24-.24.24,0,0,0,0,0,0-.04,0-.09-.02-.12-.05Z"/>
        <path class="cls-5" d="M64.34,19.78c-.12,0-.2-.15-.24-.24-.03-.08-.04-.17-.05-.25,0-.06-.02-.12-.03-.18-.04-.17-.09-.33-.14-.5-.07-.21-.16-.41-.25-.61-.12-.24-.26-.46-.4-.68-.13-.18-.26-.35-.4-.52-.24-.27-.5-.53-.77-.77-.31-.27-.63-.51-.97-.74-.03-.02-.05-.03-.08-.05-.02-.01-.04-.02-.05-.04-.25-.17-.51-.32-.77-.48-.25-.14-.5-.27-.75-.4-1.02-.5-2.07-.92-3.14-1.29-.1-.03-.19-.07-.29-.1-.64-.22-1.28-.42-1.92-.61-.62-.18-1.24-.36-1.87-.53-1.28-.35-2.58-.66-3.87-.93-.23-.05-.47-.09-.7-.14-.24-.25-.49-.49-.76-.72,1.09.2,2.17.41,3.24.67,1.29.31,2.57.65,3.84,1.02,1.28.37,2.54.78,3.78,1.27,1.23.48,2.44,1.02,3.5,1.74.03.02.07.04.11.07.02.01.04.03.07.05.05.04.11.07.16.11.12.09.24.17.36.26.47.36.91.77,1.3,1.21.22.25.42.52.6.8.17.28.33.57.45.87.12.3.23.61.29.92.02.08.03.16.04.25,0,.09.02.17,0,.26-.02.08-.07.16-.14.22-.03.03-.08.05-.12.05,0,0,0,0,0,0Z"/>
        <path class="cls-5" d="M66.68,21.52c-.07,0-.14-.05-.19-.11-.05-.06-.06-.13-.06-.21v-.03s0-.01,0-.02h0c.03-.48.05-.97.02-1.45-.01-.2-.03-.4-.06-.6,0-.06-.02-.12-.02-.17,0-.07.01-.13.04-.19.03-.07.08-.15.15-.18.1-.04.22.05.27.12.05.07.09.15.11.24,0,.05.01.1.02.15.03.25.05.51.06.76.02.48,0,.97-.03,1.45,0,.14-.15.25-.29.25-.01,0-.02,0-.03,0Z"/>
        <path class="cls-5" d="M.04,21.28c-.03-.48-.06-.97-.03-1.45.01-.25.03-.51.06-.76,0-.05.01-.1.02-.15.01-.09.05-.17.11-.24.06-.07.18-.17.27-.12.07.03.12.11.15.18.03.06.04.13.04.19,0,.06-.01.12-.02.17-.03.2-.04.4-.06.6-.03.48-.01.97.02,1.43,0,0,0,.01,0,.02h0s0,.03,0,.05c0,.08,0,.15-.06.21-.05.06-.11.1-.19.11-.01,0-.02,0-.03,0-.14,0-.28-.1-.29-.25Z"/>
        <path class="cls-5" d="M66.44,21.15s0,0,0,0c0,0,0,0,0,0,0,0,0,0,0,0Z"/>
        <path class="cls-5" d="M.6,21.15s0,0,0,0c0,0,0,0,0,0,0,0,0,0,0,0Z"/>
        <path class="cls-5" d="M66.42,18.9c-.05-.08-.06-.15-.08-.24-.01-.07-.02-.13-.04-.2-.04-.21-.1-.42-.17-.62-.11-.3-.24-.59-.38-.86-.11-.21-.24-.41-.36-.58-.15-.22-.3-.43-.47-.64-.15-.19-.31-.38-.47-.56-.24-.27-.5-.52-.76-.76-.38-.32-.77-.63-1.18-.91-.16-.11-.32-.21-.48-.31-.17-.11-.33-.22-.51-.32-.34-.2-.69-.38-1.01-.54-.54-.27-1.09-.53-1.65-.75-.55-.22-1.1-.43-1.65-.63,0,0,0,0-.01,0-.01,0-.02,0-.03-.01,0,0,0,0-.01,0,0,0-.01,0-.02,0,0,0-.02,0-.03,0,0,0-.01,0-.02,0,0,0,0,0,0,0-.08-.03-.15-.05-.23-.08-.16-.06-.33-.11-.49-.16-.33-.11-.66-.22-1-.32-.66-.2-1.33-.39-1.99-.59-.66-.19-1.33-.36-2-.53-.66-.17-1.33-.32-2-.46-.04,0-.08-.02-.12-.02-.67-.13-1.35-.25-2.03-.37-.35-.06-.69-.12-1.04-.18-.33-.06-.65-.11-.98-.15-1.35-.19-2.7-.36-4.05-.48-.23-.02-.46-.04-.69-.06-.4-.25-.8-.47-1.22-.68.64.06,1.29.12,1.93.17.34.03.68.06,1.03.1.33.04.66.08.99.12.69.08,1.37.17,2.06.27.68.09,1.35.21,2.03.33.67.12,1.33.24,1.99.37.33.06.66.14.99.21.35.08.7.16,1.04.24.67.17,1.34.33,2.01.53.66.19,1.32.39,1.98.58.66.2,1.31.41,1.96.63.01,0,.02,0,.03.01,0,0,.01,0,.02,0,.01,0,.03,0,.04.01,0,0,0,0,.01,0,0,0,0,0,0,0,.64.22,1.28.47,1.91.73.61.25,1.2.54,1.79.84.31.16.62.33.92.51.29.18.57.36.85.55.28.19.55.39.82.61.26.21.52.43.76.67.24.23.46.48.67.73.23.27.45.54.65.83.19.28.38.56.54.86.15.29.29.59.39.9.1.28.17.58.22.87.01.07.03.14.02.22,0,.06-.03.13-.06.18-.04.06-.1.14-.18.15,0,0,0,0-.02,0-.1,0-.19-.11-.24-.18Z"/>
        <path class="cls-5" d="M.38,19.08c-.08,0-.14-.09-.18-.15-.03-.06-.05-.12-.06-.18,0-.07,0-.15.02-.22.05-.29.12-.59.22-.87.11-.31.25-.61.39-.9.15-.3.34-.58.54-.86.2-.29.42-.56.65-.83.21-.25.44-.5.67-.73.24-.24.5-.46.76-.67.27-.21.54-.42.82-.61.28-.19.56-.37.85-.55.3-.18.61-.35.92-.51.58-.3,1.18-.59,1.79-.84.63-.26,1.27-.51,1.91-.73,0,0,0,0,0,0,0,0,0,0,.01,0,.01,0,.03,0,.04-.01,0,0,.01,0,.02,0,.01,0,.02,0,.03-.01.65-.22,1.3-.44,1.96-.63.66-.2,1.32-.39,1.98-.58.66-.19,1.33-.36,2.01-.53.35-.09.69-.17,1.04-.24.33-.07.66-.15.99-.21.66-.13,1.33-.25,1.99-.37.67-.12,1.35-.24,2.03-.33.69-.09,1.37-.19,2.06-.27.01,0,.03,0,.04,0-.36.23-.72.46-1.07.7-.33.04-.65.09-.98.13-.33.05-.66.1-.98.15-.35.06-.69.12-1.04.18-.68.12-1.35.24-2.03.37-.04,0-.08.02-.12.02-.67.14-1.34.29-2,.46-.67.17-1.34.34-2,.53-.66.19-1.33.39-1.99.59-.33.1-.67.21-1,.32-.16.05-.33.11-.49.16-.08.03-.15.05-.23.08,0,0,0,0,0,0,0,0-.01,0-.02,0,0,0-.02,0-.03,0,0,0-.01,0-.02,0,0,0,0,0-.01,0,0,0-.02,0-.03.01,0,0,0,0-.01,0-.56.2-1.1.41-1.65.63-.56.23-1.11.48-1.62.73-.35.18-.7.36-1.05.56-.17.1-.34.21-.51.32-.16.1-.32.21-.48.31-.41.28-.8.59-1.18.91-.27.24-.52.5-.76.76-.16.18-.32.37-.47.56-.17.2-.32.42-.45.61-.13.2-.27.4-.37.6-.14.28-.28.57-.38.87-.07.2-.12.41-.17.62-.01.07-.02.13-.04.2-.01.09-.03.16-.08.24-.05.08-.14.18-.24.18,0,0-.01,0-.02,0Z"/>
        <path class="cls-5" d="M49.36,8.79s.01,0,.02,0c0,0-.01,0-.02,0Z"/>
        <path class="cls-5" d="M66.3,18.46c-.04-.21-.1-.42-.17-.62-.11-.3-.24-.59-.38-.87,0,0,0,0,0,0-.11-.21-.24-.41-.38-.61,0,0,.01.02.02.03-.15-.22-.3-.43-.47-.64-.15-.19-.31-.38-.47-.56-.24-.27-.49-.52-.76-.76-.39-.33-.79-.64-1.21-.93,0,0,.02.01.03.02-.65-.44-1.33-.85-2.04-1.19.01,0,.02.01.03.02-.54-.27-1.09-.53-1.65-.75-.54-.22-1.09-.43-1.64-.62,0,0-.02,0-.03,0-.06,0-.11-.02-.15-.05-.56-.19-1.11-.37-1.68-.55-1.97-.6-3.96-1.17-5.98-1.58,0,0,0,0,.01,0-2.95-.6-5.94-.99-8.93-1.28-.4-.26-.82-.48-1.25-.69,2.02.17,4.04.41,6.04.67,4.09.58,8.11,1.56,12.02,2.9.03,0,.06.01.09.03.02,0,.03.02.05.03.57.1,1.57.64,1.87.7,2.78,1.16,5.52,2.88,6.99,5.59.19.45,1.03,2.06.39,2.33-.3-.03-.33-.39-.37-.62Z"/>
        <path class="cls-5" d="M62.26,77.03c-.16-.02-.27-.16-.25-.31.09-1.07.17-2.14.26-3.21.18-2.23.36-4.46.53-6.7.18-2.24.36-4.47.53-6.71.18-2.28.36-4.55.54-6.83.18-2.29.36-4.58.55-6.86.19-2.33.37-4.66.56-6.98.18-2.3.37-4.6.55-6.9.18-2.21.35-4.42.53-6.63.08-1.07.17-2.13.25-3.2.04-.48.08-.95.11-1.43,0-.11.02-.22.03-.33,0-.09.02-.18.06-.27.05-.09.13-.19.23-.21.06-.01.11.03.15.06.05.05.08.11.11.18.03.1.02.21.02.31,0,.11-.02.22-.03.33-.04.53-.08,1.05-.13,1.58-.17,2.18-.35,4.36-.52,6.54-.18,2.29-.36,4.58-.55,6.87-.18,2.29-.36,4.57-.55,6.86-.18,2.31-.37,4.63-.55,6.94-.18,2.29-.36,4.57-.55,6.86-.18,2.24-.36,4.49-.54,6.73-.18,2.24-.36,4.47-.53,6.71-.17,2.11-.34,4.22-.5,6.34-.01.15-.14.26-.28.26,0,0-.02,0-.03,0Z"/>
        <path class="cls-5" d="M4.48,76.77c-.17-2.11-.34-4.22-.5-6.34-.18-2.24-.36-4.47-.53-6.71-.18-2.24-.36-4.49-.54-6.73-.18-2.29-.36-4.57-.55-6.86-.18-2.31-.37-4.63-.55-6.94-.18-2.29-.36-4.57-.55-6.86-.18-2.29-.36-4.58-.55-6.87-.17-2.18-.35-4.36-.52-6.54-.04-.53-.08-1.05-.13-1.58,0-.11-.02-.22-.03-.33,0-.11-.02-.21.02-.31.02-.07.06-.13.11-.18.04-.04.09-.07.15-.06.11.02.19.12.23.21.04.08.05.17.06.27,0,.11.02.22.03.33.04.48.08.95.11,1.43.09,1.07.17,2.13.25,3.2.18,2.21.35,4.42.53,6.63.18,2.3.37,4.6.55,6.9.19,2.33.37,4.66.56,6.98.18,2.29.36,4.58.55,6.86.18,2.28.36,4.55.54,6.83.18,2.24.36,4.47.53,6.71.18,2.23.36,4.46.53,6.7.09,1.07.17,2.14.26,3.21.01.15-.1.3-.25.31,0,0-.02,0-.03,0-.14,0-.27-.11-.28-.26Z"/>
        <path class="cls-5" d="M33.52,86.73c-.14,0-.27,0-.41,0-.04,0-.08,0-.11-.02-.17,0-.34-.02-.5-.02-.6-.03-1.19-.06-1.79-.09-.31-.01-.62-.02-.92-.05-.29-.02-.57-.05-.86-.09-.62-.07-1.23-.15-1.84-.23-1.23-.16-2.47-.32-3.7-.51-.63-.1-1.26-.21-1.89-.32-.6-.11-1.2-.23-1.8-.35-.09-.02-.18-.04-.23-.05-.03,0-.05-.01-.07-.01h-.03s-.04-.02-.06-.02c-.02,0-.05,0-.07-.01-.01,0-.02,0-.03,0-.11-.02-.22-.04-.29-.06-1.23-.25-2.45-.53-3.65-.9-1.2-.37-2.37-.81-3.51-1.33-.57-.26-1.13-.55-1.68-.85-.55-.3-1.09-.61-1.63-.93-.29-.17-.57-.35-.85-.54-.07-.05-.13-.09-.17-.12-.53-.35-1.02-.75-1.49-1.17-.46-.42-.9-.88-1.21-1.43-.1-.18-.19-.36-.27-.55-.05-.13-.06-.25-.01-.38.02-.06.08-.13.15-.15.04,0,.09,0,.13.02.07.03.13.08.18.14.05.07.08.14.11.21.03.06.06.13.09.19.08.16.17.31.26.46.1.15.21.29.33.43.23.25.47.49.73.72.42.37.85.71,1.29,1.01.06.04.12.08.18.12h0c.51.34,1.04.66,1.58.97.56.32,1.11.63,1.68.92.04.02.07.04.11.06.52.25,1.04.5,1.57.72.55.23,1.12.44,1.68.64.59.2,1.17.38,1.77.55.61.17,1.22.31,1.84.45.3.06.59.12.89.19.1.02.2.04.26.05.02,0,.05,0,.06.01h.02s.06.02.09.02c.01,0,.02,0,.03,0h.04s.04.02.05.02c1.21.24,2.42.49,3.64.68.63.1,1.25.19,1.88.28.62.09,1.24.16,1.87.24.5.07,1.01.13,1.51.19.46.06.92.12,1.38.15.6.04,1.21.06,1.81.09.57.03,1.13.06,1.7.08.05,0,.11,0,.16,0,.05,0,.11,0,.16,0,.57-.02,1.14-.05,1.7-.08.6-.03,1.21-.05,1.81-.09.46-.03.92-.09,1.38-.15.5-.06,1.01-.13,1.51-.19.62-.08,1.24-.16,1.87-.24.63-.09,1.25-.18,1.88-.28,1.22-.19,2.43-.43,3.62-.67h.03s.05-.02.08-.02c.01,0,.02,0,.03,0,.03,0,.06-.01.08-.02,0,0,.02,0,.05-.01.1-.02.2-.04.3-.06.3-.06.59-.12.89-.19.62-.14,1.23-.28,1.84-.45.6-.16,1.19-.35,1.77-.55.57-.2,1.13-.41,1.68-.64.53-.22,1.05-.46,1.57-.72.04-.02.07-.04.11-.06.57-.29,1.13-.6,1.68-.92.54-.31,1.06-.62,1.55-.94.01,0,.02-.02.04-.02.06-.04.12-.08.15-.1.46-.31.9-.66,1.32-1.03.25-.23.5-.47.73-.72.12-.14.23-.28.33-.43.1-.15.18-.3.26-.46.03-.06.06-.12.09-.19.03-.08.06-.15.11-.21.05-.06.11-.11.18-.14.04-.02.08-.03.13-.02.07.01.13.08.15.15.05.13.04.25-.01.38-.08.19-.17.37-.27.55-.31.55-.75,1.01-1.21,1.43-.47.42-.96.82-1.46,1.15-.07.05-.13.09-.2.13-.28.19-.57.37-.85.54-.53.32-1.08.63-1.63.93-.55.3-1.11.59-1.68.85-1.14.52-2.31.96-3.51,1.33-1.2.37-2.42.65-3.61.89-.11.02-.22.05-.32.07-.01,0-.02,0-.03,0-.02,0-.05,0-.06.01h-.03s-.05.02-.05.02h-.04c-.09.03-.18.04-.26.06-.6.12-1.2.24-1.8.35-.63.12-1.26.22-1.89.32-1.23.19-2.46.35-3.7.51-.61.08-1.23.16-1.84.23-.29.03-.57.06-.86.09-.31.02-.62.03-.92.05-.6.03-1.19.06-1.79.09-.17,0-.34.02-.5.02-.03.02-.07.02-.11.02-.14,0-.27,0-.41,0Z"/>
        <path class="cls-5" d="M47.77,84.96s-.02,0-.03,0c0,0,.02,0,.03,0Z"/>
        <path class="cls-5" d="M19.27,84.96s.02,0,.03,0c0,0-.02,0-.03,0Z"/>
        <path class="cls-5" d="M19.22,84.95s.01,0,.02,0c0,0-.01,0-.02,0Z"/>
        <path class="cls-5" d="M47.82,84.95s0,0-.01,0c0,0,0,0,.01,0Z"/>
        <path class="cls-5" d="M47.87,84.94s-.02,0-.03,0c.01,0,.02,0,.03,0Z"/>
        <path class="cls-5" d="M19.18,84.94s.02,0,.03,0c-.01,0-.02,0-.03,0Z"/>
        <path class="cls-5" d="M47.56,84.43s-.02,0-.03,0c0,0,.02,0,.03,0Z"/>
        <path class="cls-5" d="M19.48,84.43s.02,0,.03,0c0,0-.02,0-.03,0Z"/>
        <path class="cls-5" d="M47.57,84.42s0,0-.01,0c0,0,0,0,0,0,0,0,0,0,.01,0Z"/>
        <path class="cls-5" d="M19.48,84.43s0,0-.01,0c0,0,0,0,.01,0,0,0,0,0,0,0Z"/>
        <path class="cls-5" d="M47.68,84.4s-.02,0-.03,0c0,0,.02,0,.03,0Z"/>
        <path class="cls-5" d="M19.37,84.4s.02,0,.03,0c0,0-.02,0-.03,0Z"/>
        <path class="cls-5" d="M59.14,79.86s0,0-.01,0c0,0,0,0,.01,0Z"/>
        <path class="cls-5" d="M7.9,79.86s0,0,.01,0c0,0,0,0-.01,0Z"/>
        <path class="cls-5" d="M59.16,79.85s0,0,0,0c0,0,0,0-.01,0,0,0,.01,0,.02-.01Z"/>
        <path class="cls-5" d="M7.89,79.85s0,0,0,0c0,0,.01,0,.02.01,0,0,0,0-.01,0Z"/>
      </g>
    </g>
  </g>
</svg>