<?xml version="1.0" encoding="UTF-8"?>
<svg id="Layer_2" data-name="Layer 2" xmlns="http://www.w3.org/2000/svg" viewBox="0 0 10.86 14.9">
  <defs>
    <style>
      .cls-1 {
        fill: #524c2f;
      }
    </style>
  </defs>
  <g id="Layer_1-2" data-name="Layer 1">
    <path class="cls-1" d="M6.34,14.89c.34-.29.64-.58.87-.92.32-.47.51-.98.44-1.56-.07-.6-.33-1.12-.69-1.59-.28-.37-.6-.7-.9-1.04-.39-.46-.7-.96-.79-1.56-.05-.32-.02-.64.04-.96,0-.04,0-.08.02-.14-.16.12-.26.27-.37.4-.56.7-1.14,1.38-1.58,2.17-.33.58-.56,1.19-.64,1.85-.12,1.07.14,2.03.91,2.82.18.19.38.36.59.56-.27-.02-.5-.08-.74-.16-1.79-.58-2.92-1.8-3.37-3.61-.29-1.15-.09-2.27.42-3.34.37-.77.87-1.44,1.41-2.09.59-.71,1.25-1.37,1.76-2.14.41-.62.75-1.27.85-2.02.07-.53.01-1.04-.27-1.54.2.02.37.1.53.17,1.06.49,1.79,1.29,2.26,2.34.37.81.57,1.64.52,2.53-.02.48-.12.95-.26,1.42-.11.38-.14.75,0,1.16.91-.67,1.45-1.51,1.34-2.68.03,0,.05,0,.06.01.7.83,1.32,1.71,1.71,2.74.31.81.44,1.64.36,2.5-.12,1.28-.67,2.35-1.59,3.25-.79.78-1.74,1.25-2.82,1.45-.02,0-.03,0-.09,0Z"/>
  </g>
</svg>