<?xml version="1.0" encoding="UTF-8"?>
<svg id="Layer_2" data-name="Layer 2" xmlns="http://www.w3.org/2000/svg" xmlns:xlink="http://www.w3.org/1999/xlink" viewBox="0 0 81.35 77.79">
  <defs>
    <style>
      .cls-1 {
        fill: none;
      }

      .cls-2 {
        fill: #936134;
      }

      .cls-3 {
        clip-path: url(#clippath-11);
      }

      .cls-4 {
        clip-path: url(#clippath-10);
      }

      .cls-5 {
        clip-path: url(#clippath-13);
      }

      .cls-6 {
        clip-path: url(#clippath-14);
      }

      .cls-7 {
        clip-path: url(#clippath-12);
      }

      .cls-8 {
        clip-path: url(#clippath-1);
      }

      .cls-9 {
        clip-path: url(#clippath-3);
      }

      .cls-10 {
        clip-path: url(#clippath-4);
      }

      .cls-11 {
        clip-path: url(#clippath-2);
      }

      .cls-12 {
        clip-path: url(#clippath-7);
      }

      .cls-13 {
        clip-path: url(#clippath-6);
      }

      .cls-14 {
        clip-path: url(#clippath-9);
      }

      .cls-15 {
        clip-path: url(#clippath-8);
      }

      .cls-16 {
        clip-path: url(#clippath-5);
      }

      .cls-17 {
        fill: #271509;
      }

      .cls-18 {
        fill: #c08956;
      }

      .cls-19 {
        fill: #7e4f25;
      }

      .cls-20 {
        fill: #e7c8ba;
      }

      .cls-21 {
        clip-path: url(#clippath);
      }

      .cls-22 {
        fill: #a97749;
      }
    </style>
    <clipPath id="clippath">
      <path class="cls-1" d="M9.59,48.64s-1.35.9-3.2,3.92c-1.85,3.03-7.96,6.62-2.69,14.58,5.27,7.96,7.74,5.21,15.7,7.62,7.96,2.41,11.72.5,11.72.5,0,0,3.98-.62,6.5.45s4.43-1.07,10.54-.28,10.76,1.29,16.99-.73c6.22-2.02,12.33-1.85,13.79-13.79,0,0-.17-6.78-8.75-10.26-8.58-3.48-29.26-10.88-60.6-2.02Z"/>
    </clipPath>
    <clipPath id="clippath-1">
      <path class="cls-1" d="M70.8,68.47s-2.09-2.06-.53-3.95,2.51-.29,3.63-1.14,2.24-2,3.48-.04,2.54,6.46-3.04,6.33c0,0-2.27.04-3.53-1.21Z"/>
    </clipPath>
    <clipPath id="clippath-2">
      <path class="cls-1" d="M50.54,65.4s1.94.77,2.67-.6-.13-2.58-1.27-2.47-2.5.04-2.6,1.53c-.09,1.49.84,1.78,1.2,1.53Z"/>
    </clipPath>
    <clipPath id="clippath-3">
      <path class="cls-1" d="M24.13,68.79s-1.49-1.36-.37-2.82,1.49-.6,2.71-.93,2.09-.5,3.38,1.25.82,2.95-1.31,3.64-4.41-.09-4.41-1.14Z"/>
    </clipPath>
    <clipPath id="clippath-4">
      <path class="cls-1" d="M1.45,61.01s0-2.32,2.22-2.17c0,0,1.18-.06,2.06,1.91,0,0,2.62,2.43.06,4.09-2.56,1.66-5.57-1.05-4.34-3.83Z"/>
    </clipPath>
    <clipPath id="clippath-5">
      <path class="cls-1" d="M15.26,29.69c-1.59.44-3.15,1.04-4.64,1.74-2.15,1-4.22,2.56-5.38,4.7-1.43,2.63-.95,5.63-.28,8.42.61,2.56,2.28,4.47,4.81,5.27,6.05,1.91,9.64,6,15.36,5.33s11.38,2.69,19.45,1.63c0,0,1.75-.03,4.15.39s3.99.38,7.99-1.09c3.99-1.47,9.17-1.89,11.06-3.24s9.17-1.22,10.89-7.19-5.72-12.91-11.56-14.88c-5.84-1.98-51.84-1.07-51.84-1.07Z"/>
    </clipPath>
    <clipPath id="clippath-6">
      <path class="cls-1" d="M6.42,43.95s-3.53-.13-2.73-2.99c.8-2.86,5.61-3.29,6.9-1.59,1.29,1.7,1.85,4.2-1.64,5.01,0,0-1.46.45-2.52-.43Z"/>
    </clipPath>
    <clipPath id="clippath-7">
      <path class="cls-1" d="M33.64,46.76c-.22,1.06.07,2.33.84,3.11.5.51,1.2.8,1.9.97,1.03.25,2.11.25,3.17.13.7-.08,1.41-.22,2.04-.52s1.2-.79,1.5-1.43c.37-.8.27-1.77-.17-2.53s-1.21-1.3-2.06-1.55c-.8-.24-1.66-.24-2.5-.15s-1.66.28-2.49.39c-.36.05-.72.09-1.06.2-.61.2-1.04.7-1.16,1.33"/>
    </clipPath>
    <clipPath id="clippath-8">
      <path class="cls-1" d="M57.78,40.96s-1.63,2.2,1.56,2.76,5.13-1.49,3.95-3.43-3.08-1.58-4.29-.88-1.22,1.56-1.22,1.56Z"/>
    </clipPath>
    <clipPath id="clippath-9">
      <path class="cls-1" d="M70.87,36.16s-1.46.77-.88,1.81,1.68.84,1.68.84c0,0,1.4,2.5,5.16.71,0,0,1.4-.6.93-2.65-.47-2.06-2.35-2.34-3.57-1.92,0,0-2.67-1.39-3.33,1.21Z"/>
    </clipPath>
    <clipPath id="clippath-10">
      <path class="cls-1" d="M5.82,17.34s-.05.09-.08.13c-.51.84-6.26,10.93,11.36,13.34,18.39,2.52,47.76,1.85,52.7.17,4.1-1.4,7.11-2.68,6.51-8.43-.25-2.4-1.05-4.72-2.29-6.79-.61-1.01-1.32-2.09-2-2.77-1.6-1.63-3.67-1.26-5.8-2.97s-3.56-1.96-5.61-2.33c-2.05-.36-13.15-3.5-16.05-2.16-2.69,1.25-5.88-2.42-11.29-1.15-1,.23-2.02.32-3.05.28-2.62-.09-7.52.05-9.63,2.21-2.69,2.76-6.63,2.3-8.96,4.73-.63.65-1.28,1.28-1.98,1.86-1.3,1.07-3.17,2.72-3.83,3.88Z"/>
    </clipPath>
    <clipPath id="clippath-11">
      <path class="cls-1" d="M26.05,18.14s-3.39-.39-3.08,2.35c.31,2.75,1.57,3.06,2.94,2.75s4.65-.36,5.1-3.11c.45-2.75-3.22-5.91-4.96-1.99Z"/>
    </clipPath>
    <clipPath id="clippath-12">
      <path class="cls-1" d="M55.1,16.61s1.98-1.03,2.77.88-2.95,3.7-4.77,2.09c-1.81-1.61-.88-3.96,2-2.97Z"/>
    </clipPath>
    <clipPath id="clippath-13">
      <path class="cls-1" d="M49.47,8.33s.99.95,3.55.45c0,0,4.78.64,4.52-1.96-.26-2.6-1.55-1.35-3.1-2.56s-3.48-.22-3.48-.22c0,0-3.64-1.14-3.74,1.4-.09,2.54,2.24,2.9,2.24,2.9Z"/>
    </clipPath>
    <clipPath id="clippath-14">
      <path class="cls-1" d="M15.37,12.31s-2.94.62-1.4,2.55c1.54,1.93,3.92,1.91,5.89.62,0,0,1.37-.74,1.43-1.14,0,0,3.62-.65,1.82-4.44s-5.44,2.15-7.74,2.41Z"/>
    </clipPath>
  </defs>
  <g id="Layer_1-2" data-name="Layer 1">
    <g>
      <g>
        <g class="cls-21">
          <path class="cls-22" d="M9.59,48.64s-1.35.9-3.2,3.92-7.96,6.62-2.69,14.58c5.27,7.96,7.74,5.21,15.7,7.62,7.96,2.41,11.72.5,11.72.5,0,0,3.98-.62,6.5.45s4.43-1.07,10.54-.28,10.76,1.29,16.99-.73c6.22-2.02,12.33-1.85,13.79-13.79,0,0-.17-6.78-8.75-10.26-8.58-3.48-29.26-10.88-60.6-2.02Z"/>
          <path class="cls-19" d="M2.39,56.91s3.87-1.93,10.68.34,19.09,9.75,26.82,8.91,11.02-3.78,15.39-2.02c4.37,1.77,7.4.5,12.45-2.44,5.05-2.94,10.09-2.94,12.78-1.6l-2.69-6.31-7.65-4.88-26.4.42-38.93-1.6-2.44,9.17Z"/>
          <path class="cls-18" d="M75.8,53.46s-.17,16.65-12.61,19c-12.45,2.35-28.42-5.72-43.47,2.77,0,0,4.71,2.86,7.65,2.52s15.47-.59,15.47-.59l19.93.17,10.17-2.1,5.89-6.22,2.52-11.1-5.55-4.46Z"/>
        </g>
        <g>
          <path class="cls-17" d="M53.85,56.49s1.68,3.46,5.97,1.14c0,0,4.02-.13,3.81-3.64l-9.78,2.5Z"/>
          <path class="cls-17" d="M26.38,54.83s-.73,2.39,1.98,2.97,3.18-1.16,3.46-1.72-1.36-1.4-1.36-1.4l-4.07.15Z"/>
          <g class="cls-8">
            <path class="cls-17" d="M70.8,68.47s-2.09-2.06-.53-3.95,2.51-.29,3.63-1.14,2.24-2,3.48-.04,2.54,6.46-3.04,6.33c0,0-2.27.04-3.53-1.21Z"/>
          </g>
          <g class="cls-11">
            <path class="cls-17" d="M50.54,65.4s1.94.77,2.67-.6-.13-2.58-1.27-2.47-2.5.04-2.6,1.53c-.09,1.49.84,1.78,1.2,1.53Z"/>
          </g>
          <g class="cls-9">
            <path class="cls-17" d="M24.13,68.79s-1.49-1.36-.37-2.82,1.49-.6,2.71-.93,2.09-.5,3.38,1.25.82,2.95-1.31,3.64-4.41-.09-4.41-1.14Z"/>
          </g>
          <g class="cls-10">
            <path class="cls-17" d="M1.45,61.01s0-2.32,2.22-2.17c0,0,1.18-.06,2.06,1.91,0,0,2.62,2.43.06,4.09-2.56,1.66-5.57-1.05-4.34-3.83Z"/>
          </g>
        </g>
        <g class="cls-16">
          <path class="cls-2" d="M15.26,29.69c-1.59.44-3.15,1.04-4.64,1.74-2.15,1-4.22,2.56-5.38,4.7-1.43,2.63-.95,5.63-.28,8.42.61,2.56,2.28,4.47,4.81,5.27,6.05,1.91,9.64,6,15.36,5.33s11.38,2.69,19.45,1.63c0,0,1.75-.03,4.15.39s3.99.38,7.99-1.09c3.99-1.47,9.17-1.89,11.06-3.24s9.17-1.22,10.89-7.19-5.72-12.91-11.56-14.88c-5.84-1.98-51.84-1.07-51.84-1.07Z"/>
          <path class="cls-19" d="M5.17,46.4s1.68-7.9,10.03-9.7c8.35-1.79,18.28,4.04,22.42,3.81,4.15-.22,5.94-3.08,9.98.28,4.04,3.36,8.02,5.1,12.5,1.96,4.48-3.14,6.11-4.09,11.21-3.08,5.1,1.01,6.73-2.69,6.73-2.69l-10.93-7.57-52.25-2.8-7.74,2.02-6.5,6.62.11,10.65,4.43.5Z"/>
          <path class="cls-22" d="M18.51,54.75s3.36-1.63,9.75-1.01c6.39.62,13.4,3.31,19.4.78,6-2.52,5.33-4.37,14.58-5.1s15.14-1.01,14.8-8.18c-.34-7.18.84-7.06.84-7.06l2.58,9.03-.56,5.16-8.52,5.55-14.46,4.48-12.11,1.18-26.29-4.82Z"/>
        </g>
        <g>
          <path class="cls-17" d="M20.02,30.76s-.5,3.45,3.76,3.78c0,0,1.68.03,3-.87,0,0,3.7,1.29,4.77-1.82l-11.52-1.09Z"/>
          <g class="cls-13">
            <path class="cls-17" d="M6.42,43.95s-3.53-.13-2.73-2.99c.8-2.86,5.61-3.29,6.9-1.59,1.29,1.7,1.85,4.2-1.64,5.01,0,0-1.46.45-2.52-.43Z"/>
          </g>
          <g class="cls-12">
            <path class="cls-17" d="M33.64,46.76c-.22,1.06.07,2.33.84,3.11.5.51,1.2.8,1.9.97,1.03.25,2.11.25,3.17.13.7-.08,1.41-.22,2.04-.52s1.2-.79,1.5-1.43c.37-.8.27-1.77-.17-2.53s-1.21-1.3-2.06-1.55c-.8-.24-1.66-.24-2.5-.15s-1.66.28-2.49.39c-.36.05-.72.09-1.06.2-.61.2-1.04.7-1.16,1.33"/>
          </g>
          <g class="cls-15">
            <path class="cls-17" d="M57.78,40.96s-1.63,2.2,1.56,2.76,5.13-1.49,3.95-3.43-3.08-1.58-4.29-.88-1.22,1.56-1.22,1.56Z"/>
          </g>
          <g class="cls-14">
            <path class="cls-17" d="M70.87,36.16s-1.46.77-.88,1.81,1.68.84,1.68.84c0,0,1.4,2.5,5.16.71,0,0,1.4-.6.93-2.65-.47-2.06-2.35-2.34-3.57-1.92,0,0-2.67-1.39-3.33,1.21Z"/>
          </g>
        </g>
        <g class="cls-4">
          <path class="cls-22" d="M5.82,17.34s-.05.09-.08.13c-.51.84-6.26,10.93,11.36,13.34,18.39,2.52,47.76,1.85,52.7.17,4.1-1.4,7.11-2.68,6.51-8.43-.25-2.4-1.05-4.72-2.29-6.79-.61-1.01-1.32-2.09-2-2.77-1.6-1.63-3.67-1.26-5.8-2.97s-3.56-1.96-5.61-2.33c-2.05-.36-13.15-3.5-16.05-2.16-2.69,1.25-5.88-2.42-11.29-1.15-1,.23-2.02.32-3.05.28-2.62-.09-7.52.05-9.63,2.21-2.69,2.76-6.63,2.3-8.96,4.73-.63.65-1.28,1.28-1.98,1.86-1.3,1.07-3.17,2.72-3.83,3.88Z"/>
          <path class="cls-2" d="M56.85,8.05s10.03,9.59,6.73,13.85-17.27.62-24.61.39c-7.34-.22-14.58,1.23-14.58,1.23,0,0-12.45-.28-14.02.73l2.35,6.33s27.08,5.83,54.66,1.4c0,0,11.44,1.18,9.47-10.32-1.96-11.49-12.28-14.52-12.28-14.52l-7.74.9Z"/>
          <path class="cls-18" d="M9.37,12.93s-6.22,7.74,2.86,12.28c0,0,16.76-.56,27.02,2.07,10.26,2.63,18.85-1.11,18.85-1.11,0,0,5.21-2.27,9.17-2.31,0,0,3.87-2.52-1.47-9.75,0,0-1.26-3.36-7.4-4.58-6.14-1.22-7.74-4.67-7.74-4.67l4.79-.84,10.26,4.29,5.38,3.03,3.45,3.03,2.94,8.16-.25,4.2-2.35,3.53-7.32,2.35-41.2,1.51-20.1-5.38-3.62-3.03-.34-5.05,2.69-5.8,4.37-1.93Z"/>
          <path class="cls-2" d="M7.74,13.72c-.03.08,1.4,1.4,4.18-.14,0,0,9.35,2.05,16.5-3.92,0,0,1.64-2.31,5.34-1.98s13.29.34,15.56-2.69c2.27-3.03-16.19-1.35-16.19-1.35l-9.88.21s-14.52,6.78-15.5,9.87Z"/>
        </g>
        <g>
          <g class="cls-3">
            <path class="cls-17" d="M26.05,18.14s-3.39-.39-3.08,2.35c.31,2.75,1.57,3.06,2.94,2.75s4.65-.36,5.1-3.11c.45-2.75-3.22-5.91-4.96-1.99Z"/>
          </g>
          <g class="cls-7">
            <path class="cls-17" d="M55.1,16.61s1.98-1.03,2.77.88-2.95,3.7-4.77,2.09c-1.81-1.61-.88-3.96,2-2.97Z"/>
          </g>
          <g class="cls-5">
            <path class="cls-17" d="M49.47,8.33s.99.95,3.55.45c0,0,4.78.64,4.52-1.96-.26-2.6-1.55-1.35-3.1-2.56s-3.48-.22-3.48-.22c0,0-3.64-1.14-3.74,1.4-.09,2.54,2.24,2.9,2.24,2.9Z"/>
          </g>
          <g class="cls-6">
            <path class="cls-17" d="M15.37,12.31s-2.94.62-1.4,2.55c1.54,1.93,3.92,1.91,5.89.62,0,0,1.37-.74,1.43-1.14,0,0,3.62-.65,1.82-4.44s-5.44,2.15-7.74,2.41Z"/>
          </g>
        </g>
      </g>
      <polygon class="cls-20" points="16.73 11.2 16.74 11.2 16.74 11.2 16.73 11.2"/>
      <path class="cls-20" d="M70.77,8.56s0,0,0,0c0,0,0,0,0,0,0,0,0,0,0,0Z"/>
      <polygon class="cls-20" points="5.39 35.28 5.38 35.28 5.38 35.28 5.39 35.28"/>
      <polygon class="cls-20" points="16.79 11.15 16.79 11.15 16.79 11.14 16.79 11.15"/>
      <polygon class="cls-20" points="23.37 12.18 23.37 12.18 23.37 12.19 23.37 12.18"/>
      <path class="cls-20" d="M76.03,34.68c-.11-.69-.06-1.38-.09-2.07-.05-1.21-.13-2.42-.19-3.63-.03-.54-.09-1.09-.13-1.63-.18.14-.27.36-.41.53-.13.15-.28.29-.28.51.14.25.08.53.1.8.07.73.1,1.47.12,2.2.04,1.04.13,2.08.11,3.13.02.4.06.79.03,1.19.04,1.37.06,2.74.02,4.11,0,1.01,0,2.02-.01,3.03-.02,1.02-.06,2.04-.09,3.06,0,.09-.01.18-.02.27-.05.63-.03,1.27-.06,1.9-.04.92-.06,1.83-.11,2.75-.03.68-.09,1.36-.1,2.04,0,.19,0,.38-.07.56.21.19.51.46.74.68,0-.21.03-.41.04-.62.07-1.42.12-2.83.18-4.25.03-.64.07-1.29.1-1.93.03-.73.05-1.45.07-2.18.03-1.39.06-2.79.08-4.18,0-.45,0-.89,0-1.34,0-1.05-.02-2.09-.02-3.14-.02-.6-.04-1.2-.02-1.81Z"/>
      <path class="cls-20" d="M80.07,4.48c-.42-.3-.9-.5-1.38-.64-1.98-.58-3.92-1.26-5.76-2.22-.89-.46-1.82-.85-2.78-1.15-1.07-.33-2.18-.45-3.29-.46-.47,0-.94.03-1.42.07-1.23.11-2.43.34-3.64.55-.99.17-1.97.36-2.97.44-.85.07-1.7.12-2.56.08-.91-.04-1.81-.15-2.72-.25-.98-.12-1.95-.22-2.94-.25-.8-.02-1.6.05-2.4.16-1,.14-1.98.39-2.94.71-1.21.41-2.33,1-3.46,1.57-.61.31-1.24.58-1.88.81-.44.15-.84.14-1.26-.05-2.11-.96-4.34-1.56-6.6-2.04-2.46-.53-4.95-.86-7.45-1.04-1.24-.09-2.49-.14-3.74-.17-1.23-.03-2.46.03-3.69.09-1.18.05-2.36.15-3.54.27-1.22.12-2.44.3-3.65.52-2.15.4-4.28.9-6.29,1.8-1.15.51-2.25,1.1-3.05,2.12C.1,6.1-.17,6.9.11,7.79c.3.96,1.05,1.52,1.91,1.93,1.23.59,2.57.74,3.91.78,1.05.03,2.09-.08,3.13-.2,1.5-.17,2.98-.46,4.46-.75.13-.03.27-.12.42-.03.63-.25,1.31-.32,1.97-.45,1.62-.33,3.25-.62,4.91-.52.09,0,.2-.02.3.06-.2.13-.38.25-.6.32-.62.36-1.24.71-1.87,1.07-.59.37-1.17.75-1.76,1.12-.02.04-.05.06-.1.06,0,.04-.03.05-.06.05l-1.37,1.16c-.43.46-.84.93-1.14,1.5-.14.27-.23.55-.34.83-.06.4-.1.79-.02,1.19.15.77.64,1.32,1.25,1.76.14.1.2.17.05.31-1.76,1.74-3.33,3.64-4.79,5.65-.56.84-1.14,1.67-1.66,2.54-.23.39-.46.79-.7,1.18-.05.08-.07.17-.18.19.02.1-.01.17-.06.26-.16.28-.32.57-.47.87-.79,1.53-1.48,3.09-2.07,4.7-.57,1.53-1.04,3.09-1.4,4.68-.38,1.63-.65,3.28-.83,4.95-.13,1.22-.24,2.45-.25,3.67-.02,2.68-.07,5.35.04,8.03.03.76-.05,1.51-.05,2.27,0,.16,0,.31-.06.46.17-.3.45-.76.82-1.25,0-.01,0-.02,0-.04.02-2.98-.12-5.95-.04-8.93.03-1.33.07-2.66.26-3.97.03-.21-.06-.44.11-.63-.06-.14-.03-.28,0-.43.09-.72.19-1.44.34-2.15.05-.44.12-.88.28-1.31.14-.84.38-1.65.61-2.47.08-.31.19-.6.33-.89-.04-.02-.04-.04,0-.06.01-.34.17-.65.28-.96.66-1.89,1.45-3.72,2.37-5.49.12-.23.25-.47.37-.7.04-.07.07-.15.17-.16,0-.27.19-.45.31-.66.62-1.08,1.28-2.12,2-3.13.02-.04.07-.06.1-.09.02-.13.11-.21.2-.28.41-.66.91-1.26,1.39-1.86.56-.7,1.13-1.38,1.75-2.03l.39-.43c.38-.39.76-.78,1.14-1.18.1-.11.19-.1.32-.04,1.31.65,2.64,1.29,3.91,2.02.9.52,1.87.82,2.92.74.98-.19,1.85-.62,2.64-1.21.02-.02.05-.02.08-.03.03.06,0,.11-.02.16-.37,1-.7,2.02-1,3.05-.01.04-.04.08-.06.12,0,.09-.02.18-.06.25-.16.64-.33,1.28-.49,1.92-.13.67-.27,1.34-.39,2.01-.24,1.29-.44,2.59-.55,3.9,0,.04-.03.08-.04.13-.07.99-.13,1.97-.2,2.96-.01.71-.03,1.43-.04,2.14.02.98.05,1.97.13,2.95.02.26.04.53.07.79.03.3.19.46.42.43.24-.03.35-.2.31-.51-.12-1.14-.17-2.29-.17-3.44-.06-.77,0-1.54.03-2.3.01-.99.09-1.97.22-2.95.05-.79.17-1.57.28-2.35.17-1.17.4-2.33.65-3.49.02-.07.04-.14.06-.21.15-.72.33-1.43.55-2.13,0-.04,0-.09.04-.11.18-.78.45-1.54.71-2.29.18-.52.39-1.04.59-1.56.11-.37.31-.68.59-.96.59-.57,1.1-1.21,1.62-1.84,1.22-1.56,2.27-3.24,3.36-4.89.86-1.3,1.78-2.56,2.9-3.65.07-.06.13-.12.2-.18.79-.81,1.67-1.52,2.61-2.14.32-.21.81-.11,1.02-.58.02.03.05.05.07.08-.19.92-.39,1.84-.58,2.76-.36,1.97-.71,3.95-1.01,5.93-.2,1.34-.37,2.69-.52,4.04-.14,1.31-.27,2.61-.34,3.92,0,.03-.02.07-.03.1-.07,1.25-.13,2.5-.2,3.74-.02.36.02.73-.07,1.09-.07,1.79-.13,3.59-.2,5.38-.03,1.2-.07,2.41-.1,3.62-.03,1.29-.06,2.58-.08,3.86,0,.1,0,.2-.01.3,0,1.7,0,3.4,0,5.1,0,.48.02.95.02,1.43.02.43.04.85.05,1.28.03.9.11,1.8.09,2.7,0,.08,0,.16.04.24.08,1.39.16,2.78.24,4.17.06.58.11,1.17.1,1.75.1.74.11,1.49.15,2.24.12,2.1.29,4.19.49,6.28.02.16.02.33.03.49.05.47.11.94.15,1.41.12,1.44.32,2.88.66,4.29,0,.03,0,.07,0,.11.36,1.39.81,2.76,1.12,4.17.33.3.48.28.71-.06.05-.12-.05-.23-.01-.36.15.14.3.29.53.18.21-.1.21-.29.23-.48.1-1.02.2-2.04.31-3.06.02-.17-.02-.35.06-.51.09-.96.18-1.93.26-2.89.07-.79.13-1.58.19-2.37.04-.97.09-1.95.12-2.92.04-1.24.07-2.48.1-3.72.02-.84.04-1.68.05-2.52,0-.44,0-.88,0-1.32,0-1.47,0-2.95,0-4.42,0-.32,0-.64,0-.95,0-.71.01-1.42.02-2.13-.02-.9-.03-1.8.01-2.7,0-1.83,0-3.65,0-5.48,0-.12,0-.24-.01-.36-.01-2.29-.03-4.59-.04-6.88,0-.11,0-.22,0-.33,0-.26-.01-.53-.01-.79-.02-1.33-.03-2.66-.05-3.99-.04-1.72-.08-3.44-.12-5.15-.04-1.07-.07-2.13-.12-3.2-.1-2-.2-4.01-.34-6.01-.1-1.53-.25-3.05-.43-4.57-.03-.25-.06-.51-.08-.76-.11-.79-.23-1.59-.34-2.38,0-.06-.04-.14.01-.18.07-.05.14.01.2.04.67.31,1.26.73,1.86,1.14.37.25.73.51,1.1.77.63.39,1.28.74,1.92,1.11.45.26.78.69,1.13,1.07,1.8,1.94,3.22,4.13,4.35,6.51,1.17,2.48,2.03,5.06,2.68,7.72.33,1.28.6,2.58.77,3.89.05.33.1.67.16,1,.05.27.21.41.42.36.24-.05.33-.22.3-.45-.05-.4-.1-.79-.16-1.19-.19-1.22-.45-2.42-.71-3.62-.34-1.36-.74-2.71-1.16-4.05-.25-.64-.49-1.29-.73-1.93-.05-.14-.17-.26-.14-.43-.21-.32-.33-.69-.48-1.04-1.02-2.27-2.29-4.38-3.88-6.3-.19-.22-.37-.45-.56-.67,0,0,0-.02,0-.06.35.11.69.22,1.04.33,1.8.55,3.64,1.01,5.4,1.7.3.12.61.25.91.37.16.03.3.1.43.18.72.27,1.41.61,2.1.93,1.74.8,3.47,1.62,5.25,2.34,1.19.44,2.38.87,3.62,1.15.38.09.76.16,1.15.25.35.03.71.05,1.06.08,1.17.07,2.3-.08,3.25-.84.53-.42.81-.99.99-1.63.02-.07,0-.18.12-.18-.12-.2,0-.41,0-.62.02-.97-.23-1.87-.64-2.74-.31-.66-.77-1.23-1.24-1.81-.01,0-.01-.01-.01-.02,0,0,.01,0,.01,0,0,0,0,0,0,.02.1,0,.19,0,.27.01,1.28.27,2.56.52,3.87.66,1.06.11,2.11.15,3.15-.08,1.02-.22,1.94-.65,2.53-1.57.73-1.13.52-2.37-.54-3.14ZM15.96,17.2s-.1.06-.17.04c-.54-.2-1.2-1.1-1.23-1.68,0-.04.08-.78.21-1.07.37-.84.98-1.5,1.7-2.06.4-.4.88-.71,1.35-1.02,1.31-.86,2.68-1.63,4.08-2.34.3-.24.61-.27.99-.14.8.29,1.57.64,2.34.99.08.03.24.08.06.19-.56.35-1.13.69-1.7,1.04-.53.37-1.06.74-1.59,1.12-1.68,1.18-3.28,2.45-4.8,3.82-.08.07-.9.81-1.22,1.13ZM23.45,8.33c1.38-1.11,7.52-2.64,11.19-2.76-.37.14-.74.29-1.1.44-2.4.95-4.72,2.06-6.96,3.35-.26.15-.47.16-.73.04-.77-.35-1.56-.68-2.34-1.02-.02,0-.04-.03-.06-.05ZM27.18,16.53s-.03.05-.04.07c-.23.51-.46,1.03-.7,1.54-.12.26-.37.42-.59.59-.73.65-1.52,1.19-2.47,1.47-.12.04-.25.05-.38.07-.69.15-1.32-.03-1.94-.31-.87-.39-1.67-.9-2.52-1.32-.59-.29-1.18-.59-1.77-.87-.19-.09-.21-.16-.05-.3.62-.54,1.2-1.14,1.86-1.65,1.13-1,2.33-1.91,3.56-2.79.41-.29.8-.61,1.25-.83,0-.03.03-.05.06-.05.88-.64,1.82-1.19,2.76-1.75.22-.13.43.07.65.1.59.13,1.18.23,1.79.22.8-.01,1.56-.18,2.3-.44.09-.03.18-.08.29-.07.01,0,.03-.01.04-.02,0,.01-.02.02-.02.04-.38.49-.76.98-1.13,1.47-1.13,1.51-2.09,3.12-2.92,4.82ZM32.33,10.29c-.65.99-1.31,1.98-1.96,2.97-.63.96-1.29,1.9-2,2.81-.04.06-.1.1-.15.15-.01.02-.03.04-.04.06,0,.03,0,.08-.05.06-.03-.02,0-.06.03-.08.02-.02.04-.03.06-.05.13-.48.43-.88.67-1.3.92-1.6,1.98-3.1,3.2-4.49.04-.05.09-.09.14-.13.09-.17.19-.32.38-.38-.05.15-.14.28-.27.38ZM32.62,9.9s0,0-.01,0c0,0,.01-.02.02-.02,0,0,0,.01,0,.02ZM35.45,6.34c-.56.44-1.12.89-1.68,1.33-1.47,1.46-3.24,2.26-5.32,2.34-.15,0-.31-.03-.46-.05-.25-.01-.5-.03-.81-.12.5-.27.93-.51,1.36-.74,2.07-1.08,4.2-2.04,6.4-2.85.09-.03.19-.05.29-.08.28-.19.62-.23.92-.38.01.02.02.04.04.06-.25.16-.49.33-.74.49ZM36.85,4.74c-2.8,0-5.56.27-8.28.94-2.04.5-4,1.23-5.88,2.16-.25.12-.48.16-.76.1-1.17-.24-2.34-.18-3.52-.05-.1.01-.19.07-.29-.01-1.06.21-2.12.41-3.18.62-1.8.36-3.6.75-5.42,1.01-1.39.2-2.79.3-4.2.22-1.03-.06-2.05-.23-2.99-.68-.51-.24-.99-.56-1.31-1.04-.43-.65-.36-1.41.17-2.11.53-.69,1.24-1.15,1.99-1.55,1.72-.91,3.57-1.42,5.45-1.85,1.2-.27,2.41-.49,3.63-.64.93-.12,1.86-.22,2.8-.3,2.31-.22,4.63-.25,6.95-.19,1.06.02,2.13.09,3.19.19,1.21.11,2.41.23,3.61.41,2.12.32,4.21.73,6.27,1.36.53.16,1.06.33,1.59.51.08.03,1.05.42,1.46.59-.42.12-.81.33-1.26.33ZM40.23,11.76c.17,2.1.31,4.2.39,6.31.05,1.36.13,2.71.14,4.07.09,1.73.1,3.47.14,5.2.05.48.02.96.03,1.44.01,1.03,0,2.05.05,3.08,0,.11,0,.22-.02.33,0,.08.02.16.02.25,0,2.45.02,4.89.02,7.34,0,.08,0,.16-.01.25,0,1.59,0,3.18,0,4.77.02.91.02,1.83,0,2.74,0,.98,0,1.97,0,2.95,0,.02,0,.04,0,.06,0,1.55,0,3.09,0,4.64,0,.08-.02.16-.03.24,0,.47,0,.95,0,1.42,0,.96,0,1.92-.02,2.87-.04,1.87-.09,3.74-.2,5.61-.01.21-.03.42-.05.63-.04,1.08-.15,2.15-.24,3.22-.06.7-.14,1.4-.21,2.1-.05.58-.1,1.16-.15,1.74-.05.59-.11,1.18-.17,1.77,0,.06-.03.12-.06.18-.33-1.23-.73-2.44-1.02-3.68-.26-.99-.43-2.01-.56-3.03-.1-.84-.19-1.68-.24-2.52-.1-1.01-.2-2.02-.29-3.03-.17-1.91-.27-3.83-.39-5.74,0-.09,0-.18,0-.27-.03-.59-.07-1.18-.1-1.76-.06-.92-.13-1.83-.18-2.75-.02-.45-.09-.91-.06-1.36-.09-.33-.06-.67-.08-1-.06-1.09-.12-2.18-.13-3.27-.01-.53-.02-1.06-.03-1.59,0-.05-.02-.11-.02-.16,0-1.58-.04-3.15.04-4.73,0-.75,0-1.5.01-2.25.05-1.92.07-3.84.17-5.75.05-1.16.09-2.31.14-3.47.02-.6.05-1.2.08-1.81-.04-.9.1-1.8.12-2.7.02-.75.1-1.49.15-2.23.06-.76.1-1.53.17-2.29.09-.96.2-1.92.31-2.88.18-1.59.42-3.18.69-4.76.22-1.29.46-2.58.69-3.88.01-.06.04-.12.05-.18.04-.49.17-.95.29-1.42.07.48.18.94.19,1.42.18,1.29.3,2.59.41,3.89ZM71.85,12.27c.02.15.09.3-.03.44.16.52.03,1.01-.16,1.49-.37.89-1.13,1.26-2.01,1.41-1,.17-2,.06-2.98-.16-.52-.07-1.01-.23-1.51-.37-1.15-.32-2.25-.75-3.35-1.21-.07-.03-.13-.07-.19-.11-.57-.18-1.11-.46-1.66-.71-1.63-.74-3.24-1.52-4.89-2.21-1.88-.79-3.83-1.36-5.79-1.92-1.09-.31-2.16-.66-3.19-1.14-.5-.23-.84-.66-1.26-1-.61-.43-1.19-.89-1.83-1.3,1.26.31,2.54.51,3.82.63.12,0,.25,0,.37,0,2.58.04,5.15-.18,7.73-.09.84.03,1.68.07,2.51.16.67,0,1.32.1,1.98.17.96.11,1.92.27,2.88.42,1.37.21,2.72.5,4.07.79.87.18,1.74.39,2.61.57.23.05.41.15.57.29,1.16,1.04,2.04,2.25,2.31,3.84ZM42.83,4.61c.33-.04.66-.1.99-.13,1.1-.1,2.2-.06,3.31-.06.1,0,1.72.15,2.44.25,1.18.16,2.35.34,3.52.51.15.02.3.06.46.09v.02s-.01-.02-.03-.02c-2.1.02-4.2.18-6.3.11-.05,0-.09-.01-.13-.02-.7.02-1.38-.09-2.07-.2-.02,0-1.47-.35-2.18-.55ZM59.53,5.62c1.94,0,3.88.04,5.76.59.67.2,1.33.41,1.94.77-2.55-.52-5.11-1.04-7.7-1.36ZM79.93,7.31c-.51.7-1.25,1.01-2.07,1.17-1.04.2-2.08.14-3.13.02-1.64-.18-3.24-.56-4.85-.9-.16-.03-.32-.09-.45-.19-1.44-1.07-3.05-1.74-4.79-2.12-.76-.16-1.52-.26-2.29-.33-1.17-.1-2.35-.11-3.53-.1-1,0-2.01-.04-3.01-.11-.12,0-1.31-.11-1.79-.18-1.36-.19-2.72-.4-4.09-.6-.4-.02-.79-.07-1.19-.15-1.07-.09-2.14-.2-3.22-.17-1.3.04-2.6.14-3.87.42-.03,0-.07,0-.11,0,0-.02,0-.05.02-.05,1.4-.71,2.78-1.47,4.29-1.94,1.05-.33,2.13-.56,3.23-.65,1.42-.11,2.82-.02,4.22.16.8.1,1.61.19,2.42.25.55.04,1.09.05,1.64.04,1.27-.02,2.52-.19,3.77-.41,1.34-.23,2.68-.5,4.04-.64.68-.07,1.36-.11,2.05-.1,1.47.02,2.86.38,4.2.98,1.43.64,2.81,1.4,4.29,1.93.9.32,1.83.57,2.73.88.35.12.69.26,1.03.44.95.49,1.03,1.55.46,2.34Z"/>
    </g>
  </g>
</svg>