<?xml version="1.0" encoding="UTF-8"?>
<svg id="Layer_2" data-name="Layer 2" xmlns="http://www.w3.org/2000/svg" viewBox="0 0 86.3 68.81">
  <defs>
    <style>
      .cls-1 {
        fill: #80807f;
      }

      .cls-2 {
        fill: #e0e0e0;
      }

      .cls-3 {
        fill: #838282;
      }

      .cls-4 {
        fill: #dfdfdf;
      }

      .cls-5 {
        fill: #a9a9a9;
      }

      .cls-6 {
        fill: #b0b0b1;
      }

      .cls-7 {
        fill: #858584;
      }

      .cls-8 {
        fill: #868686;
      }

      .cls-9 {
        fill: #9fa0a0;
      }

      .cls-10 {
        fill: #a5a5a5;
      }

      .cls-11 {
        fill: #cdbd9c;
      }

      .cls-12 {
        fill: #ebdbbc;
      }

      .cls-13 {
        fill: #7c7d7d;
      }

      .cls-14 {
        fill: #717171;
      }

      .cls-15 {
        fill: #848484;
      }

      .cls-16 {
        fill: #aeaead;
      }

      .cls-17 {
        fill: #838483;
      }

      .cls-18 {
        fill: #afafae;
      }

      .cls-19 {
        fill: #848584;
      }

      .cls-20 {
        fill: #acacac;
      }

      .cls-21 {
        fill: #aeaeae;
      }

      .cls-22 {
        fill: #737373;
      }

      .cls-23 {
        fill: #9e9e9e;
      }

      .cls-24 {
        fill: #848483;
      }

      .cls-25 {
        fill: #adadad;
      }
    </style>
  </defs>
  <g id="Layer_1-2" data-name="Layer 1">
    <g>
      <path class="cls-11" d="M49.41.35c5.64-.1,11.27-.22,16.91-.26,2.59-.11,5.19-.05,7.78-.09-.21.6-.57,1.14-.83,1.72-.87,1.9-1.98,3.69-2.84,5.6.06.01.19.03.25.04-1.57-.18-3.15-.08-4.72-.2-2.92-.16-5.84-.24-8.76-.34-1.57-.09-3.15-.01-4.72-.13-5.08-.16-10.17-.16-15.25-.24.02-1.97-.13-3.94.02-5.9.78-.1,1.57,0,2.36-.07,3.27-.02,6.53-.12,9.79-.12h0Z"/>
      <path class="cls-12" d="M.36.22c2.04.02,4.09.04,6.13.05.79-.03,1.58.09,2.36.06,5.32.03,10.64.04,15.96.06,3.03.11,6.07.04,9.11.08,1.9.02,3.8-.04,5.7,0-.78.08-1.58-.03-2.36.07-.15,1.96,0,3.93-.02,5.9,0,.06-.01.17-.02.23-.1-.1-.19-.23-.34-.23-.79-.08-1.58.08-2.37.04-.87-.07-1.73.08-2.6.05-3.04,0-6.07.11-9.1.15-1.38.18-2.77.05-4.15.14-1.03.01-2.05.09-3.07.09-1.19.15-2.38.08-3.57.18-1.14,0-2.26.21-3.4.17-1.46.03-2.91.12-4.37.16-.22-.02-.44-.05-.66-.08-.48-.73-.84-1.53-1.26-2.29C1.66,3.79.97,2.54.33,1.26.21,1,0,.76,0,.46c0-.18.21-.25.36-.24H.36Z"/>
      <path class="cls-4" d="M31.92,6.53c.87.03,1.73-.12,2.6-.05.79.04,1.58-.12,2.37-.04.15,0,.24.14.34.23-.02,3.2-.02,6.4-.02,9.59.01.6-.02,1.2.04,1.8-.03.13-.07.26-.1.39-.72,1.25-1.16,2.64-1.65,3.99-.05.19-.17.45.02.61.21.27.68.19.81-.13.34-.75.49-1.57.83-2.32.09,6.35.02,12.7.05,19.06,0,6.43.02,12.87,0,19.3-.44,0-.87-.01-1.31,0-.15-2.7-.46-5.38-.67-8.07-.52-5.71-.97-11.42-1.53-17.13-.26-2.79-.48-5.58-.77-8.37-.07-.49-.92-.41-.89.08.41,4.21.78,8.43,1.15,12.65.22,2.92.49,5.84.77,8.75.25,2.52.42,5.05.69,7.56.14,1.5.33,3,.41,4.51-.69,0-1.38.02-2.06-.03-.29-1.47-.71-2.92-1.07-4.37-.76-2.89-1.41-5.82-2.16-8.72-.62-2.57-1.25-5.13-1.9-7.69-.96-4.17-2.03-8.3-2.99-12.47-.07-.25-.11-.6-.42-.63-.31-.08-.64.23-.53.54,1.25,5.06,2.43,10.13,3.69,15.19.58,2.48,1.17,4.96,1.82,7.42.57,2.33,1.14,4.66,1.73,6.98.31,1.26.62,2.52.95,3.78-.61.03-1.22,0-1.83.02-.86-2.6-1.86-5.16-2.82-7.73-.79-2.29-1.74-4.51-2.57-6.78-1.04-2.64-2.02-5.3-3.05-7.94-1.37-3.8-2.88-7.55-4.27-11.34-.1-.48-.88-.4-.88.08.28,1.01.74,1.95,1.08,2.93,1.71,4.48,3.4,8.97,5.09,13.46.88,2.17,1.69,4.38,2.54,6.56,1.34,3.58,2.73,7.14,4,10.75-.38,0-.76,0-1.14-.02-3.09-6.8-6.44-13.47-9.72-20.17-2.04-4.33-4.19-8.61-6.2-12.96-.13-.21-.18-.52-.43-.62-.37-.16-.81.28-.57.64,3.57,7.36,7.09,14.75,10.72,22.08,1.57,3.23,3.15,6.46,4.71,9.69.21.45.48.88.61,1.36-.16,0-.33,0-.49,0-.64-.98-1.1-2.07-1.68-3.09-2.39-4.59-4.79-9.17-7.2-13.75-3.67-7.08-7.39-14.14-11.19-21.15l.06-.09c.11-.16.26-.32.17-.52-.82-2.38-1.84-4.69-2.82-7.01-.46-1.13-.94-2.26-1.49-3.36-.13-.23-.25-.49-.47-.65-.27-.09-.68.17-.53.47.91,2.04,1.8,4.1,2.58,6.2-.28-.13-.36-.45-.52-.69-.65-1.03-1.14-2.15-1.79-3.18-.33-.52-.55-1.1-.87-1.62-.28-.5-.51-1.07-.47-1.65.05-.53.34-1.11.88-1.28.67-.26,1.41-.04,2.08-.27.22.02.44.06.66.08,1.46-.04,2.91-.13,4.37-.16,1.14.04,2.26-.17,3.4-.17,1.19-.1,2.38-.03,3.57-.18,1.03,0,2.05-.08,3.07-.09,1.38-.1,2.77.04,4.15-.14,3.03-.04,6.07-.15,9.1-.15M24.27,8.87c-.17.03-.39.1-.4.31-.09,1.62-.2,3.23-.32,4.85-.17,2.96-.54,5.91-.64,8.87-.11.53.8.72.9.19.24-4.57.75-9.12,1-13.68.08-.32-.24-.57-.54-.53M33.72,8.99c-.22.13-.24.42-.31.65-.52,2.17-1.64,4.12-2.59,6.12-1.13,2.18-1.88,4.53-2.42,6.91-.13.32.23.64.55.55.26-.05.37-.33.4-.56.48-2.63,1.62-5.07,2.79-7.46.94-1.86,1.86-3.75,2.37-5.78.05-.39-.49-.64-.78-.42M14.57,9.1c-.26.18-.13.52-.12.78.52,4.38,1.12,8.75,1.75,13.12.04.49.89.49.91,0-.06-.71-.21-1.42-.3-2.13-.59-3.81-.92-7.66-1.48-11.47,0-.37-.5-.5-.76-.3M6.86,9.44c-.27.1-.34.43-.24.68.48,1.6.88,3.22,1.31,4.83.75,2.81,1.51,5.63,2.31,8.42.14.51,1.06.26.86-.26-.65-2.08-1.11-4.21-1.72-6.3-.65-2.34-1.24-4.7-1.84-7.05-.05-.31-.41-.43-.68-.33h0Z"/>
      <path class="cls-10" d="M37.25,6.45c5.08.08,10.17.07,15.25.24,1.57.11,3.15.04,4.72.13,2.92.11,5.84.18,8.76.34,1.57.13,3.15.02,4.72.2.63,0,1.34,0,1.86.43.56.45.7,1.28.45,1.93-.31.9-.79,1.72-1.19,2.58.23-.02.46-.08.7-.08-.24.08-.49.14-.73.22.15.18.53.17.67.44-.16.06-.32.1-.46.19-.13.33-.02.69.05,1.02.29.05.59.05.89.06-.08.04-.16.09-.24.14.01.07.03.13.04.2-.11.14-.31.23-.29.44-.72.16-1.48.22-2.17.43-1.14,2.14-2.28,4.28-3.37,6.44-2.36,4.4-4.56,8.89-6.91,13.3-.5,1.06-1.08,2.07-1.61,3.12-.11.24-.25.48-.4.7.11.03.23.07.34.12.09.29.24.56.45.79.1.38,0,.76-.2,1.09h0c-.61.2-1.28.23-1.87.46-1,2.09-2.14,4.11-3.17,6.19-1.12,2.08-2.19,4.18-3.31,6.26-.57,1.19-1.25,2.31-1.82,3.5-.27.56-.56,1.11-.89,1.64-.16,0-.33,0-.49,0,2.03-4.43,4.29-8.75,6.45-13.12.88-1.7,1.73-3.42,2.53-5.16,1.01-2.09,2.14-4.13,3.08-6.26,1.41-3.09,2.99-6.11,4.37-9.21.2-.42-.47-.76-.67-.33-1.63,3.08-2.93,6.32-4.54,9.42-.44.9-.9,1.78-1.32,2.69-.47,1.15-1.09,2.23-1.62,3.36-1.06,2.17-2.15,4.32-3.2,6.5-1.08,2.25-2.26,4.45-3.34,6.7-.79,1.82-1.82,3.53-2.55,5.37-.35.02-.69.03-1.04.03.35-.91.73-1.81,1.08-2.72.78-2.15,1.68-4.25,2.46-6.4.85-2.19,1.64-4.4,2.52-6.58,1.09-2.82,2.14-5.66,3.23-8.48.91-2.27,1.69-4.59,2.6-6.87.33-.89.7-1.76,1.01-2.66.17-.33-.24-.71-.55-.54-.27.15-.33.49-.45.75-.85,2.42-1.8,4.8-2.72,7.19-.9,2.37-1.77,4.75-2.72,7.1-.68,1.77-1.36,3.54-2.01,5.32-1.03,2.65-2.06,5.29-3.03,7.97-.37,1.02-.81,2.01-1.18,3.03-.36.96-.78,1.89-1.07,2.87-.56-.01-1.12.04-1.67.01,1.17-4.58,2.26-9.17,3.39-13.76.68-2.95,1.5-5.87,2.17-8.83.87-3.71,1.84-7.4,2.63-11.12.15-.51-.73-.73-.83-.21-1.71,7.17-3.41,14.35-5.2,21.5-.71,3.12-1.51,6.21-2.3,9.31-.25,1.01-.57,2.02-.68,3.06-.72.14-1.45.03-2.17.08,0-1.16.26-2.3.34-3.46.32-3.35.58-6.7.9-10.05.34-3.23.64-6.47.97-9.7.38-3.45.68-6.91.98-10.36.02-.49-.83-.52-.85-.04-.64,6.1-1.16,12.22-1.8,18.32-.32,2.8-.52,5.6-.82,8.4-.1,1.3-.26,2.6-.35,3.9-.09,1-.12,2-.24,3-.53,0-1.06,0-1.6-.02.02-6.43,0-12.87,0-19.3-.02-6.35.04-12.7-.05-19.06l.02-.08c.44-1.34,1.21-2.52,1.86-3.77.35-.63.76-1.22,1.11-1.85.9-1.64,1.95-3.22,2.58-4.99.1-.3.3-.69.03-.95-.28-.27-.74-.07-.81.29-.56,1.9-1.62,3.6-2.65,5.27-.72,1.15-1.3,2.39-2.05,3.53-.05-.6-.02-1.2-.04-1.8,0-3.2,0-6.4.02-9.59,0-.06.01-.17.02-.23M50.61,8.96c-.33.28-.34.78-.52,1.15-.92,2.24-2.44,4.15-3.74,6.17-1.13,1.66-2.17,3.39-3.09,5.18-.22.43-.55.83-.64,1.31-.03.46.67.66.87.24.69-1.32,1.33-2.66,2.13-3.91,1.2-2.03,2.62-3.92,3.9-5.9.76-1.14,1.29-2.41,1.77-3.68.22-.4-.34-.76-.67-.56M58.54,9.07c-.15.11-.19.3-.26.46-.37.99-.83,1.95-1.41,2.83-1.98,3.06-4.28,5.9-6.06,9.08-.21.4-.55.76-.66,1.21-.01.41.59.61.81.26.35-.55.68-1.12,1.03-1.67,1.37-2.34,2.99-4.51,4.52-6.74,1.09-1.51,2.07-3.1,2.75-4.84.2-.4-.36-.81-.72-.58M65.54,9.23c-.17.2-.24.46-.35.7-.55,1.33-1.25,2.58-2,3.81-.67.95-1.31,1.93-1.96,2.89-1.29,1.84-2.44,3.78-3.68,5.65-.2.23-.2.64.11.78.25.19.54-.02.66-.26.66-1.11,1.34-2.2,2.07-3.26,1.42-2.26,3.05-4.38,4.39-6.7.52-.89.95-1.84,1.39-2.77.07-.18.18-.35.16-.54-.06-.32-.51-.53-.77-.31M71.81,9.45c-.31.5-.52,1.05-.8,1.57-.41.92-1,1.75-1.56,2.58-.88,1.29-1.72,2.61-2.61,3.89-1.16,1.59-2.15,3.28-3.24,4.91-.15.22-.16.61.13.71.21.11.46-.07.58-.24.72-1.05,1.39-2.14,2.12-3.2,1.37-2.16,2.94-4.19,4.28-6.37.68-1.16,1.4-2.31,1.93-3.55-.11-.31-.54-.55-.82-.32h0Z"/>
      <path class="cls-16" d="M24.27,8.87c.29-.03.62.21.54.53-.25,4.57-.75,9.12-1,13.68-.1.53-1.01.33-.9-.19.11-2.96.47-5.91.64-8.87.11-1.62.22-3.23.32-4.85.01-.2.23-.28.4-.31h0Z"/>
      <path class="cls-3" d="M41.94,9.27c.07-.36.53-.56.81-.29.28.26.07.65-.03.95-.62,1.78-1.67,3.35-2.58,4.99-.35.63-.76,1.22-1.11,1.85-.64,1.24-1.41,2.43-1.86,3.77-.04-.69.06-1.39-.03-2.08.03-.13.06-.26.1-.39.75-1.14,1.33-2.37,2.05-3.53,1.03-1.68,2.09-3.37,2.65-5.27h0Z"/>
      <path class="cls-25" d="M33.72,8.99c.3-.22.84.03.78.42-.51,2.03-1.44,3.92-2.37,5.78-1.17,2.38-2.3,4.83-2.79,7.46-.03.23-.13.52-.4.56-.31.09-.67-.23-.55-.55.55-2.38,1.29-4.73,2.42-6.91.95-2,2.07-3.95,2.59-6.12.07-.23.08-.52.31-.65h0Z"/>
      <path class="cls-17" d="M50.61,8.96c.33-.2.89.16.67.56-.48,1.27-1.01,2.54-1.77,3.68-1.28,1.98-2.7,3.87-3.9,5.9-.8,1.25-1.44,2.59-2.13,3.91-.2.42-.9.22-.87-.24.1-.48.43-.88.64-1.31.92-1.79,1.96-3.51,3.09-5.18,1.3-2.02,2.82-3.93,3.74-6.17.19-.37.19-.87.52-1.15h0Z"/>
      <path class="cls-25" d="M14.57,9.1c.26-.2.75-.07.76.3.56,3.82.89,7.66,1.48,11.47.09.71.24,1.41.3,2.13-.02.5-.87.5-.91,0-.63-4.37-1.23-8.74-1.75-13.12-.02-.26-.14-.6.12-.78h0Z"/>
      <path class="cls-15" d="M58.54,9.07c.35-.22.91.18.72.58-.67,1.74-1.66,3.34-2.75,4.84-1.53,2.23-3.15,4.4-4.52,6.74-.35.55-.67,1.12-1.03,1.67-.22.36-.82.16-.81-.26.11-.45.45-.8.66-1.21,1.79-3.18,4.09-6.02,6.06-9.08.58-.88,1.04-1.84,1.41-2.83.07-.16.12-.35.26-.46h0Z"/>
      <path class="cls-15" d="M65.54,9.23c.26-.22.71-.02.77.31.02.19-.09.36-.16.54-.44.93-.87,1.88-1.39,2.77-1.33,2.32-2.97,4.44-4.39,6.7-.73,1.06-1.41,2.15-2.07,3.26-.12.23-.41.44-.66.26-.31-.14-.31-.55-.11-.78,1.25-1.87,2.4-3.8,3.68-5.65.65-.97,1.29-1.94,1.96-2.89.75-1.22,1.46-2.48,2-3.81.1-.24.18-.5.35-.7h0Z"/>
      <path class="cls-5" d="M1.7,9.83c-.14-.31.26-.56.53-.47.22.16.34.41.47.65.54,1.1,1.03,2.22,1.49,3.36.98,2.32,2,4.63,2.82,7.01.1.2-.06.36-.17.52-.11-.05-.18-.13-.23-.24-.79-1.53-1.67-3.02-2.34-4.62-.78-2.1-1.67-4.15-2.58-6.2h0Z"/>
      <path class="cls-16" d="M6.86,9.44c.27-.11.63.01.68.33.61,2.35,1.19,4.71,1.84,7.05.61,2.09,1.07,4.22,1.72,6.3.2.51-.72.77-.86.26-.8-2.8-1.56-5.61-2.31-8.42-.43-1.61-.83-3.24-1.31-4.83-.1-.25-.03-.58.24-.68h0Z"/>
      <path class="cls-19" d="M71.81,9.45c.28-.23.71,0,.82.32-.54,1.23-1.25,2.38-1.93,3.55-1.34,2.18-2.91,4.21-4.28,6.37-.72,1.05-1.39,2.14-2.12,3.2-.12.17-.36.35-.58.24-.3-.1-.29-.5-.13-.71,1.09-1.63,2.08-3.33,3.24-4.91.89-1.29,1.73-2.6,2.61-3.89.57-.83,1.15-1.66,1.56-2.58.28-.52.49-1.07.8-1.57h0Z"/>
      <path class="cls-23" d="M72.51,12.23c2.7-.35,5.51-.05,8,1.09,2.11.92,3.9,2.59,4.89,4.68,1.06,2.2,1.16,4.81.38,7.11-.71,2.07-2.04,3.87-3.58,5.4-3.43,3.18-7.64,5.37-11.96,7.08-3.79,1.44-7.71,2.52-11.68,3.35.19-.33.3-.71.2-1.09-.2-.24-.36-.5-.45-.79-.11-.04-.23-.08-.34-.12.15-.22.29-.46.4-.7,2.68-.61,5.36-1.21,7.97-2.07,2.42-.85,4.83-1.74,7.11-2.92,1.88-.93,3.66-2.06,5.33-3.32,1.74-1.33,3.37-2.95,4.21-5.01.77-1.77.9-3.87.06-5.65-.8-1.86-2.51-3.19-4.38-3.86-1.98-.76-4.17-.75-6.25-.48-.02-.2.18-.3.29-.44-.02-.07-.03-.14-.04-.2.08-.05.16-.1.24-.14-.3,0-.59,0-.89-.06-.07-.33-.18-.7-.05-1.02.14-.09.31-.13.46-.19-.14-.26-.52-.25-.67-.44.24-.08.49-.14.73-.22h0Z"/>
      <path class="cls-20" d="M35.5,22.45c.49-1.35.93-2.74,1.65-3.99.09.69-.01,1.39.03,2.08l-.02.08c-.34.75-.49,1.57-.83,2.32-.12.31-.6.4-.81.13-.19-.16-.08-.42-.02-.61h0Z"/>
      <path class="cls-8" d="M57.52,24.73c.32-.17.72.21.55.54-.31.9-.68,1.77-1.01,2.66-.91,2.27-1.69,4.59-2.6,6.87-1.09,2.82-2.14,5.66-3.23,8.48-.87,2.18-1.67,4.39-2.52,6.58-.79,2.15-1.69,4.25-2.46,6.4-.02-.06-.05-.17-.07-.23-.08.13-.16.26-.24.4-.18-.11-.35-.23-.54-.33.38-1.02.82-2.01,1.18-3.03.96-2.67,2-5.32,3.03-7.97.66-1.78,1.33-3.55,2.01-5.32.96-2.35,1.82-4.73,2.72-7.1.92-2.39,1.87-4.77,2.72-7.19.12-.26.18-.6.45-.75h0Z"/>
      <path class="cls-7" d="M62.78,24.9c.2-.43.87-.09.67.33-1.39,3.1-2.96,6.12-4.37,9.21-.95,2.12-2.07,4.16-3.08,6.26-.8,1.74-1.65,3.46-2.53,5.16-2.15,4.37-4.41,8.69-6.45,13.12-.27-.01-.54-.03-.81-.04.73-1.85,1.76-3.56,2.55-5.37,1.08-2.25,2.26-4.45,3.34-6.7,1.04-2.18,2.14-4.33,3.2-6.5.53-1.13,1.14-2.21,1.62-3.36.42-.9.89-1.79,1.32-2.69,1.61-3.09,2.91-6.33,4.54-9.42h0Z"/>
      <path class="cls-24" d="M50.02,25.04c.11-.52.98-.3.83.21-.8,3.72-1.77,7.41-2.63,11.12-.66,2.95-1.48,5.87-2.17,8.83-1.13,4.59-2.23,9.18-3.39,13.76-.28-.01-.55-.04-.83-.05.12-1.04.44-2.04.68-3.06.79-3.1,1.59-6.2,2.3-9.31,1.8-7.15,3.5-14.33,5.2-21.5h0Z"/>
      <path class="cls-16" d="M16.67,25.26c0-.48.78-.56.88-.08,1.4,3.79,2.9,7.54,4.27,11.34,1.03,2.64,2.01,5.3,3.05,7.94.83,2.27,1.78,4.5,2.57,6.78.96,2.57,1.96,5.13,2.82,7.73-.3,0-.59,0-.89-.01-1.26-3.61-2.65-7.17-4-10.75-.85-2.18-1.66-4.39-2.54-6.56-1.69-4.49-3.38-8.97-5.09-13.46-.34-.98-.8-1.93-1.08-2.93h0Z"/>
      <path class="cls-18" d="M23.92,25.59c-.11-.31.22-.62.53-.54.31.04.36.39.42.63.95,4.17,2.03,8.31,2.99,12.47.65,2.56,1.28,5.12,1.9,7.69.75,2.9,1.39,5.82,2.16,8.72-.05.09-.1.18-.15.27-.15.02-.3.03-.45.06-.04.07-.11.21-.15.28-.59-2.32-1.16-4.65-1.73-6.98-.65-2.46-1.24-4.94-1.82-7.42-1.26-5.05-2.44-10.13-3.69-15.19h0Z"/>
      <path class="cls-24" d="M42.01,25.37c.02-.48.87-.45.85.04-.29,3.46-.6,6.91-.98,10.36-.33,3.23-.63,6.47-.97,9.7-.32,3.35-.58,6.7-.9,10.05-.08,1.16-.34,2.3-.34,3.46-.29.01-.58.02-.87,0,.12-1,.15-2,.24-3,.09-1.3.25-2.6.35-3.9.3-2.8.5-5.61.82-8.4.64-6.1,1.16-12.22,1.8-18.32h0Z"/>
      <path class="cls-25" d="M11.32,25.83c-.24-.36.2-.8.57-.64.24.1.3.41.43.62,2.01,4.35,4.16,8.62,6.2,12.96,3.28,6.71,6.63,13.37,9.72,20.17-.91.09-1.82.14-2.73.09.45-.08.9-.07,1.35-.06.16,0,.33,0,.49,0-.13-.48-.4-.91-.61-1.36-1.55-3.24-3.14-6.46-4.71-9.69-3.64-7.33-7.16-14.72-10.72-22.08h0Z"/>
      <path class="cls-21" d="M32.04,25.49c-.03-.49.82-.56.89-.08.28,2.79.51,5.58.77,8.37.56,5.71,1.01,11.42,1.53,17.13.21,2.69.52,5.37.67,8.07-.28,0-.57-.02-.85-.01-.07-1.51-.27-3.01-.41-4.51-.27-2.52-.43-5.04-.69-7.56-.27-2.92-.54-5.83-.77-8.75-.37-4.22-.74-8.44-1.15-12.65h0Z"/>
      <path class="cls-5" d="M31.75,54.83c.06-.09.11-.18.15-.27.36,1.46.79,2.9,1.07,4.37-.9.09-1.81.18-2.71.03.61-.02,1.22.01,1.83-.02-.33-1.26-.64-2.52-.95-3.78.04-.07.11-.21.15-.28.15-.03.3-.04.45-.06h0Z"/>
      <path class="cls-1" d="M45.94,56.41c.09-.13.16-.27.24-.4.02.06.05.17.07.23-.35.91-.73,1.81-1.08,2.72-.28,0-.56,0-.83-.02.29-.98.71-1.91,1.07-2.87.19.1.36.22.54.33h0Z"/>
      <path class="cls-9" d="M35.05,58.97c.28,0,.56.02.85.01.44-.01.87,0,1.31,0-.04.84-.04,1.68-.02,2.52,5.03.04,10.06,0,15.09.03.73.1,1.49.02,2.23.04,5.05,0,10.09,0,15.14,0,1.09,0,2.23.82,2.28,1.97-11.57-.07-23.15.04-34.72,0h-.06c.03-.68.01-1.36.02-2.04-5.04,0-10.08.03-15.12.02.51-1.45,1.99-2.37,3.48-2.51.91.06,1.82,0,2.73-.09.38.01.76.02,1.14.02.3,0,.59,0,.89.01.9.15,1.81.05,2.71-.03.69.05,1.38.04,2.06.03h0Z"/>
      <path class="cls-22" d="M41.84,58.91c.28,0,.55.04.83.05.56.02,1.11-.03,1.67-.01.28,0,.56.01.83.02.35,0,.69,0,1.04-.03.27,0,.54.03.81.04.16,0,.33,0,.49,0,.94-.03,1.91,0,2.77.42.91.42,1.64,1.2,1.99,2.13-5.03-.03-10.06,0-15.09-.03-.01-.84-.01-1.68.02-2.52.53.02,1.06.01,1.6.02.29,0,.58,0,.87,0,.72-.05,1.46.06,2.17-.08h0Z"/>
      <path class="cls-2" d="M20.32,61.6c.57-.02,1.15.04,1.71-.07,5.04,0,10.08-.03,15.12-.02,0,.68.01,1.36-.02,2.04-11.63,0-23.26-.04-34.88,0-.02-.68.47-1.3,1.04-1.63.68-.4,1.49-.31,2.25-.32,4.93.02,9.85,0,14.78,0h0Z"/>
      <path class="cls-6" d="M2.25,63.55c11.63-.04,23.26,0,34.88,0-.07.42-.02.86-.04,1.29-1.29.09-2.58.03-3.87.05-3.91.02-7.83-.03-11.74,0-5.94.03-11.88,0-17.82.01-.75.05-1.36-.63-1.4-1.34h0Z"/>
      <path class="cls-23" d="M37.14,63.55h.06c-.03.43,0,.87-.02,1.31-.02,1.31.01,2.63,0,3.94-5.24,0-10.48,0-15.71.01,0-1.31.01-2.62,0-3.93,3.91-.02,7.83.03,11.74,0,1.29-.02,2.58.04,3.87-.05.02-.43-.03-.86.04-1.29h0Z"/>
      <path class="cls-13" d="M37.2,63.55c11.57.03,23.15-.07,34.72,0-.06.67-.64,1.3-1.34,1.3-2.68-.02-5.36.02-8.04,0-3.25.04-6.52.06-9.78.03-5.19-.06-10.39.06-15.58-.02.01-.44-.02-.87.02-1.31h0Z"/>
      <path class="cls-14" d="M37.18,64.86c5.19.08,10.39-.03,15.58.02.02,1.3.03,2.6.02,3.9-5.2,0-10.4,0-15.6.01,0-1.31-.02-2.63,0-3.94h0Z"/>
    </g>
  </g>
</svg>