<?xml version="1.0" encoding="UTF-8"?>
<svg id="Layer_2" data-name="Layer 2" xmlns="http://www.w3.org/2000/svg" viewBox="0 0 84.97 90.32">
  <defs>
    <style>
      .cls-1 {
        fill: none;
      }

      .cls-2 {
        fill: #bc3737;
      }

      .cls-3 {
        fill: #aa2e2e;
      }

      .cls-4 {
        fill: #8e2626;
      }

      .cls-5 {
        fill: #af2727;
      }

      .cls-6 {
        fill: #ffe7e6;
      }

      .cls-7 {
        fill: #cc4340;
      }

      .cls-8 {
        fill: #f9c7c7;
      }

      .cls-9 {
        fill: #62703a;
      }

      .cls-10 {
        fill: #fccecd;
      }

      .cls-11 {
        fill: #992828;
      }

      .cls-12 {
        fill: #f9c478;
      }

      .cls-13 {
        fill: #ffd9d7;
      }

      .cls-14 {
        fill: #f9eaea;
      }

      .cls-15 {
        fill: #fcf0f0;
      }

      .cls-16 {
        fill: #7e8e54;
      }

      .cls-17 {
        fill: #e85858;
      }

      .cls-18 {
        fill: #ed7474;
      }

      .cls-19 {
        fill: #102d4c;
      }

      .cls-20 {
        fill: #153359;
      }

      .cls-21 {
        opacity: .15;
      }

      .cls-21, .cls-22 {
        fill: #f47d7d;
      }

      .cls-23 {
        fill: #f98585;
      }

      .cls-24 {
        fill: #c43f3f;
      }

      .cls-25 {
        fill: #bf3c3c;
      }

      .cls-26 {
        fill: #d34444;
      }

      .cls-27 {
        fill: #708248;
      }
    </style>
  </defs>
  <g id="Layer_1-2" data-name="Layer 1">
    <g>
      <path class="cls-10" d="M84.95,90.32l-3.16-.67-55.33-11.7-17.25-3.65-7.44-1.57s-4.12-33.63.21-41.79c.03-.06.06-.11.09-.17,2.7-4.73,24.14-17.07,33.74-16.03,14.99,1.62,44.71,31.85,47.95,35.18.17.18.27.28.28.3h0s.2,8.82.2,8.82l.31,13.65.28,12.67.11,4.76v.2Z"/>
      <path class="cls-8" d="M37.64,65.68c2.32.52,4.65,1.04,6.97,1.56,6.17,1.38,12.33,2.75,18.5,4.13,1.19.27,2.41.54,3.39,1.18.73.48,1.29,1.13,2.09,1.52,1.5.73,3.37.35,5.09.2,3.31-.29,6.73.4,9.53,1.92.58.32,1.19.75,1.19,1.33,0,.86-1.25,1.27-2.27,1.39-11.73,1.39-22.81-4.15-34.05-7.28-7.12-1.98-14.53-3-21.91-4-3.82-.52-7.65-1.02-11.44-1.65-2.71-.45-8.58-.7-10.65-2.34-1.86-1.47-1.45-3.19,1.04-4.23,2.82-1.17,7.09.57,9.88,1.2,7.55,1.69,15.09,3.37,22.64,5.06Z"/>
      <path class="cls-23" d="M84.25,59.05l.02,1.1.13,9.13.02,1.12L9.62,53.99c-1.15-.29-2.18-.79-3.02-1.46-1.36-1.08-2.23-2.58-2.35-4.23l-.34-4.66c-.06-.86.37-1.61,1.06-2.11.74-.54,1.77-.78,2.82-.53l76.47,18.05Z"/>
      <path class="cls-23" d="M84.97,90.13h-.03s-3.19-.67-3.19-.67l-55.29-11.51-16.51-3.44c-.25-.06-.5-.13-.74-.21-.95-.32-1.8-.79-2.51-1.39-.8-.67-1.42-1.49-1.8-2.39-.22-.52-.36-1.07-.41-1.64l-.41-4.65c-.1-1.15.69-2.13,1.81-2.55.61-.23,1.31-.29,2.02-.13l73.27,16.46,3.46.78.03,1.01.16,5.57.08,2.73.04,1.41.02.63Z"/>
      <path class="cls-13" d="M84.05,50.23L1.98,30.95c.03-.06.06-.11.09-.17,2.7-4.73,24.14-17.07,33.74-16.03,15.8,1.71,47.98,35.21,48.23,35.48h0Z"/>
      <path class="cls-22" d="M84.25,59.05l.02,1.1c-10.01.15-19.68-3.83-29.56-5.83-5.14-1.04-10.44-1.55-15.5-2.84-9.44-2.41-18.03-7.53-27.87-7.98-1.41-.06-5.43-.45-6.37-1.97.74-.54,1.77-.78,2.82-.53l76.47,18.05Z"/>
      <path class="cls-22" d="M84.91,88.1l.06,2.04-75.02-15.61c-2.39-.57-4.25-2.08-5.05-3.99,5.17-1.19,13.74,2.42,17.87,4.3.89.4,1.77.83,2.73,1.07,1.07.27,2.19.29,3.3.37,7.61.54,14.7,3.74,22.29,4.51,3.07.31,6.29.24,9.08,1.42,1.32.56,2.5,1.39,3.88,1.83,2.13.68,4.5.37,6.69.87,1.18.27,2.27.77,3.44,1.06,2.27.57,4.69.35,7.01.7,1.33.2,2.71.68,3.72,1.44Z"/>
      <g>
        <path class="cls-13" d="M9.74,36.88c-.1-.02-.21-.02-.31.01l-.17.07s-.08.03-.12.05c-.06.03-.1.07-.14.12-.06.08-.11.17-.1.27,0,.08.03.15.08.22.03.05.08.09.14.12.05.04.11.06.18.07.06.02.11.04.17.05.1.02.21.02.31-.01.1-.03.18-.07.25-.14.1-.1.16-.22.15-.35,0-.13-.08-.26-.19-.34-.08-.06-.16-.1-.26-.12Z"/>
        <path class="cls-13" d="M17.07,39.85c-1.21.04-1.13,1.62.08,1.58,1.21-.04,1.13-1.62-.08-1.58Z"/>
        <path class="cls-13" d="M15.24,36.56c-.92.03-.86,1.23.06,1.2.92-.03.86-1.23-.06-1.2Z"/>
        <path class="cls-13" d="M23.66,40.8c-.04-.1-.11-.18-.21-.25-.04-.03-.08-.05-.11-.08-.15-.11-.37-.19-.58-.18-.07.01-.14.02-.21.03-.14.04-.25.1-.35.19-.03.03-.07.06-.1.09-.05.06-.09.11-.14.17-.03.07-.06.13-.09.2-.03.11-.04.22,0,.32,0,.07.03.14.08.2.03.07.07.13.13.17.05.06.11.11.18.14.06.05.13.08.22.1.12.05.24.07.37.06.08-.01.17-.03.25-.04.08-.03.15-.06.23-.09.06-.04.13-.09.19-.13.05-.06.09-.11.14-.17.03-.07.06-.13.09-.2.03-.11.04-.22,0-.32,0-.07-.03-.14-.08-.2Z"/>
        <path class="cls-13" d="M28.36,44.05c.26-.02.5-.1.68-.26.16-.15.28-.39.26-.59-.02-.21-.12-.43-.31-.57-.2-.14-.43-.21-.7-.22-.13,0-.26,0-.39,0-.25,0-.53.12-.69.27-.17.15-.28.4-.26.6.02.22.12.44.32.58.19.14.45.25.72.22.13-.01.26-.02.39-.04Z"/>
        <path class="cls-13" d="M36.69,42.1c-.33.02-.61.19-.73.45-.11.24-.05.5.14.69.02.08.04.16.06.24.05.21.37.38.61.36.25-.02.54-.17.58-.4.01-.08.02-.16.03-.25.15-.17.2-.4.12-.61-.11-.28-.46-.51-.81-.48Z"/>
        <path class="cls-13" d="M45.01,45.93c-.1-.05-.21-.08-.32-.1-.09-.17-.27-.31-.51-.36-.38-.08-.81.02-1.08.27-.37.33-.46.85-.05,1.19.25.2.55.33.87.42.48.14.97.02,1.33-.26.43-.33.22-.94-.23-1.16Z"/>
        <path class="cls-13" d="M53.66,47.34c-.3-.12-.61-.06-.86.12-.17.13-.34.26-.51.4-.16.12-.26.38-.24.55.02.19.11.41.29.53.23.15.5.26.8.24.22-.01.45-.07.63-.18.31-.19.5-.46.49-.79,0-.2-.11-.39-.26-.54-.06-.14-.18-.27-.33-.33Z"/>
        <path class="cls-13" d="M50.09,44.45c-.06-.08-.13-.14-.22-.19-.08-.06-.18-.1-.28-.11,0,0-.01,0-.02,0-.04-.02-.09-.04-.14-.05-.09-.03-.18-.05-.28-.04-.17,0-.38.08-.49.19-.12.12-.2.27-.19.43.01.05.02.11.03.16.02.06.06.12.11.18,0,0,0,.01,0,.02.03.05.06.11.09.16.06.08.13.14.22.19.08.06.18.1.28.11.07,0,.15.01.22.02.11,0,.22-.02.31-.07.1-.03.19-.08.26-.15.04-.05.08-.1.12-.14.06-.08.08-.17.08-.26.02-.09.01-.18-.03-.27-.03-.05-.06-.11-.09-.16Z"/>
        <path class="cls-13" d="M62.23,49.32c-.18-.04-.37-.02-.54.04-.2.03-.38.1-.52.23-.12.11-.21.25-.25.39-.09.34.05.69.39.89.42.25.97.18,1.33-.12.13-.11.23-.27.28-.43.07-.24,0-.47-.14-.68-.12-.17-.33-.27-.55-.33Z"/>
        <path class="cls-13" d="M69.89,52.01c.11.02.21.02.32,0,.11,0,.2-.04.29-.09.13-.07.29-.14.39-.24.08-.07.14-.15.17-.24.05-.09.07-.18.06-.28,0-.1-.03-.19-.09-.28-.04-.09-.1-.16-.19-.23-.17-.12-.39-.21-.62-.19-.08.01-.15.02-.23.03-.14.04-.27.11-.37.2-.11.09-.18.23-.26.35-.02.05-.05.11-.07.16-.03.09-.03.18,0,.27,0,.06.02.12.06.17.04.08.09.15.17.21.11.08.23.13.36.16Z"/>
        <path class="cls-13" d="M64.64,49.13c.12.1.26.18.41.25.19.09.4.1.61.07.2-.03.4-.11.54-.24.27-.27.34-.67.1-.98-.09-.12-.2-.23-.33-.32-.08-.05-.15-.11-.23-.16-.2-.14-.43-.22-.69-.21-.24,0-.51.11-.67.26-.16.16-.28.37-.25.58.02.22.12.4.31.56.07.06.14.12.21.18Z"/>
        <path class="cls-13" d="M66.95,51.88c-.99.03-.93,1.34.06,1.3.99-.03.93-1.34-.06-1.3Z"/>
        <path class="cls-13" d="M77.8,54.02c-.29-.17-.67-.13-.92.08-.51.43-.4,1.28.3,1.53.36.13.75.08.99-.2.2-.24.2-.64-.08-.84.04-.22-.06-.43-.28-.57Z"/>
        <path class="cls-13" d="M82.89,52c-1.31.05-1.23,1.77.08,1.72,1.31-.05,1.23-1.77-.08-1.72Z"/>
        <path class="cls-13" d="M5.21,36.8c-.09,0-.17.01-.25.04-.07.03-.14.06-.22.09-.11.05-.19.12-.25.21-.05.05-.09.11-.11.18-.05.09-.07.2-.06.3,0,.03.01.07.02.1.01.07.03.13.04.2.03.1.09.18.17.25.04.05.1.1.17.13.09.06.19.1.31.12.16.02.32.02.47-.02.11-.03.21-.08.3-.14.09-.06.17-.13.22-.22.01-.03.03-.06.04-.09.03-.06.06-.13.08-.19.03-.1.03-.21,0-.31,0-.07-.03-.13-.07-.19-.04-.1-.11-.18-.2-.24-.13-.08-.25-.16-.42-.19-.08,0-.16-.01-.24-.02Z"/>
        <path class="cls-13" d="M4.94,35.74c.06-.02.13-.04.19-.06.06-.02.12-.05.18-.07.09-.04.16-.1.21-.18.05-.04.08-.09.09-.15.05-.08.06-.17.05-.26-.01-.12-.05-.23-.12-.33-.05-.08-.12-.13-.21-.18-.08-.06-.17-.09-.27-.11l-.19-.05c-.15-.03-.3-.02-.45.02-.14.04-.27.11-.37.2-.15.15-.23.32-.23.52,0,.18.11.38.27.5.11.09.24.14.39.17.15.03.3.02.45-.02Z"/>
        <path class="cls-13" d="M2.23,54.99s.01.06.02.09c.16.74,1.69.68,1.78-.06,0-.03,0-.06.01-.09.15-1.28-2.08-1.21-1.81.06Z"/>
        <path class="cls-13" d="M1.37,48.53s.07.03.1.04c.08.03.16.06.25.08.16.03.33.03.49-.02.16-.04.26-.1.37-.18.12-.06.21-.15.27-.25.07-.11.1-.22.09-.34,0-.12-.05-.23-.12-.33-.08-.1-.17-.18-.3-.23-.13-.07-.23-.13-.39-.16-.16-.03-.33-.03-.49.02-.08.03-.16.06-.24.1-.03.01-.07.03-.1.04-.26.12-.4.4-.39.63.01.24.18.5.45.6Z"/>
        <path class="cls-13" d="M6.92,56.8c-.21-.16-.46-.31-.76-.28-.21,0-.44.05-.57.2,0,0,0,0,0,0-.17.14-.26.32-.29.52-.04.15-.03.3.02.45.04.08.09.16.13.23.03.05.05.09.08.14.1.17.39.33.6.36.22.03.43.02.63-.06.45-.18.65-.59.52-.99-.07-.21-.15-.41-.35-.57Z"/>
        <path class="cls-13" d="M13.11,57.73c-.12.07-.24.14-.36.21-.32.19-.44.52-.28.82.07.12.18.24.33.3.18.07.41.11.6.04.13-.05.26-.1.39-.14.14-.04.25-.1.35-.19.04-.05.08-.1.12-.14.13-.19.12-.42.01-.61-.2-.36-.77-.53-1.17-.29Z"/>
        <path class="cls-13" d="M23.94,59.69s-.02-.11-.03-.14c-.01-.07-.02-.14-.03-.22-.03-.23-.13-.41-.36-.55-.21-.13-.49-.18-.74-.1-.54.17-1.02.58-1.08,1.08-.02.19-.02.35.11.52.1.14.3.27.5.3.07.01.15.01.22,0,.16.14.37.23.62.21.39-.03.71-.24.81-.57.06-.18.05-.33,0-.51,0-.01,0-.03-.01-.04Z"/>
        <path class="cls-13" d="M29.24,61.54c-.14.08-.28.16-.39.26-.07.06-.14.13-.21.19-.15.14-.24.35-.23.54,0,.18.12.4.29.52.18.13.4.22.64.2.24-.02.45-.09.62-.24.07-.06.14-.13.21-.19.11-.11.2-.23.28-.35.17-.27.11-.66-.17-.86-.28-.2-.71-.26-1.03-.08Z"/>
        <path class="cls-13" d="M41.52,63.38c-.3-.06-.63,0-.89.14-.34.19-.52.53-.48.87.04.35.27.61.53.88.14.14.46.21.67.21.23,0,.49-.1.64-.25.15-.15.27-.35.24-.56,0-.07-.02-.15-.05-.22.05-.09.08-.2.07-.31-.03-.36-.32-.66-.74-.75Z"/>
        <path class="cls-13" d="M34.67,61.28s-.07.02-.11.03c-.77.2-.72,1.18.06,1.32.04,0,.07.01.11.02,1.37.25,1.28-1.72-.07-1.37Z"/>
        <path class="cls-13" d="M53.38,65.95c0-.33-.26-.65-.66-.72-.47-.07-.92.15-1.04.55-.05.16-.1.33-.14.49-.05.18-.08.36-.02.55.06.2.28.38.49.47.62.27,1.5-.03,1.61-.64.04-.2.02-.4-.12-.58-.03-.04-.07-.08-.11-.12Z"/>
        <path class="cls-13" d="M48.78,66.4c-.85.03-.8,1.15.05,1.12.85-.03.8-1.15-.05-1.12Z"/>
        <path class="cls-13" d="M67.45,69.4c-.09-.17-.19-.31-.38-.42-.1-.06-.2-.1-.31-.12-.15-.2-.41-.35-.7-.32-.34.02-.65.22-.73.51-.12.45.08.93.5,1.23.35.25.81.28,1.21.09,0,0,.01,0,.02,0,.18-.09.31-.25.38-.4.07-.16.11-.37.02-.53,0,0,0-.01,0-.02Z"/>
        <path class="cls-13" d="M62,66.03c-.15-.06-.31-.09-.47-.09-.16,0-.34.05-.48.14-.14.02-.28.06-.38.12-.19.11-.38.3-.42.5-.05.21-.02.44.13.62.14.17.34.3.59.35.33.07.67.01.96-.13.26-.13.51-.38.55-.64,0-.07.02-.14.02-.21,0-.11-.03-.21-.09-.3-.08-.15-.22-.29-.4-.36Z"/>
        <path class="cls-13" d="M71.19,70.06c-.37.03-.72.24-.8.56-.06.24-.14.49-.03.73.08.16.18.29.35.39.16.1.36.16.57.15.16-.01.32-.05.46-.12.21-.1.33-.29.4-.48.09-.25-.02-.49-.1-.72-.1-.29-.48-.53-.85-.5Z"/>
        <path class="cls-13" d="M76.07,72.74c-.19-1.05-1.85-.99-1.94.07,0,.03,0,.07,0,.1-.09,1.07,2.17,1,1.97-.07,0-.03-.01-.06-.02-.1Z"/>
        <path class="cls-13" d="M82.98,72.14s0,0,0,0c-.12-.09-.26-.15-.41-.18-.16-.03-.32-.03-.48.02-.04.01-.07.03-.11.04-.07.03-.14.05-.2.08-.1.05-.18.11-.23.2-.05.05-.09.1-.1.17-.05.09-.07.18-.06.28.01.06.03.13.04.19.03.06.06.11.1.17.06.08.14.15.23.2.09.06.19.1.3.12.04.01.08.02.12.03.16.03.32.03.48-.02.15-.04.28-.11.39-.21,0,0,0,0,0,0,.08-.07.14-.15.17-.25.05-.09.07-.19.06-.29-.01-.07-.03-.13-.04-.2-.05-.13-.13-.23-.25-.32Z"/>
        <path class="cls-13" d="M2.22,70.27c-.09.3-.12.59-.1.9.01.13.01.25.03.38.03.22.13.38.26.56.31.45,1.17.42,1.43-.05.11-.19.2-.36.21-.58,0-.13,0-.25,0-.38,0-.31-.07-.6-.19-.89-.27-.67-1.44-.63-1.64.06Z"/>
        <path class="cls-13" d="M2.17,66.45c.22.12.57.14.81.05.17-.06.31-.12.43-.24.12-.11.2-.24.24-.39.1-.43-.19-.88-.72-.98-.17-.03-.37-.03-.53.02-.19.05-.27.11-.42.22-.09.09-.16.19-.19.3-.03.1-.03.19,0,.28-.04.12-.05.25,0,.37.03.05.06.1.09.15.07.1.17.17.29.23Z"/>
        <path class="cls-13" d="M2.81,59.52c.17-.17.29-.39.27-.61,0-.05,0-.09-.01-.14,0-.02,0-.04,0-.05,0-.08-.02-.2-.06-.27-.04-.07-.07-.13-.11-.2-.07-.09-.15-.17-.27-.22-.17-.1-.39-.17-.61-.16-.17.01-.34.06-.49.13-.11.06-.2.13-.27.22-.08.08-.14.18-.16.29-.06.14-.04.32-.04.47,0,.21.14.45.32.59.18.14.47.24.72.22.26-.02.53-.1.7-.27Z"/>
        <path class="cls-13" d="M9.82,58.76s0,0,0,0c0,0,0,0,0,0Z"/>
        <path class="cls-13" d="M1.35,40.47c.02.08.04.13.07.2.01.03.02.05.04.08.04.09.1.16.18.22.06.03.12.07.17.1.07.02.13.04.2.06.11.03.22.03.33,0,.07,0,.14-.02.21-.06.1-.03.19-.08.26-.15.09-.09.16-.2.2-.32.03-.09.03-.19,0-.28,0-.06-.03-.12-.07-.17-.04-.09-.1-.16-.18-.22-.06-.03-.12-.07-.17-.1-.06-.02-.13-.04-.19-.06-.08-.03-.15-.04-.25-.05-.07,0-.13,0-.2-.01-.09,0-.18.02-.26.06-.08.03-.15.07-.21.13-.11.11-.2.26-.18.41,0,.06.02.11.03.17Z"/>
      </g>
      <g>
        <path class="cls-22" d="M18.08,47.11c-.5-.3-1.25.17-1.22.68.03.51.61.9,1.2,1,.21.03.43.04.62-.04.43-.17.51-.69.28-1.05-.23-.35-.88-.6-.88-.6Z"/>
        <path class="cls-22" d="M25.21,52.22c-.68-.41-1.73.23-1.69.94.04.71.84,1.25,1.66,1.38.28.05.59.05.85-.05.59-.24.7-.96.38-1.44-.31-.48-1.21-.83-1.21-.83Z"/>
        <path class="cls-22" d="M29.29,49.59c-.31-.48-1.21-.83-1.21-.83-.68-.41-1.73.23-1.69.94.04.71.84,1.25,1.66,1.38.28.05.59.05.85-.05.59-.24.7-.96.38-1.44Z"/>
      </g>
      <path class="cls-22" d="M39.05,56.23c-.24-.37-.68-.59-1.11-.8l.2.18c-.52-.31-1.3.18-1.27.71.03.53.63.94,1.25,1.04.21.04.44.04.64-.04.45-.18.53-.72.29-1.09Z"/>
      <path class="cls-22" d="M84.39,69.28l.02,1.12L9.62,53.99c-1.15-.29-2.18-.79-3.02-1.46.85.08,1.71.19,2.3.33,1.59.39,4.44.82,6.26,1.46,1.81.64,16.14,4.13,18.46,4.31,2.32.19,13.12,2.38,14.61,2.77,1.49.39,12.31,2.93,14.31,3.22,2.01.28,11.85,2.24,13.67,2.98,1.77.71,5.71.85,8.18,1.68Z"/>
      <path class="cls-22" d="M50.79,58.35c-.24-.37-.68-.59-1.11-.8l.2.18c-.52-.31-1.3.18-1.27.71.03.53.63.94,1.25,1.04.21.04.44.04.64-.04.45-.18.53-.72.29-1.09Z"/>
      <path class="cls-22" d="M14,49.78c-.36-.55-1.37-.94-1.37-.94-.77-.46-1.96.27-1.91,1.07.05.8.95,1.41,1.88,1.57.32.05.67.06.97-.06.67-.27.79-1.09.44-1.63Z"/>
      <path class="cls-22" d="M57.63,57.76c-.47-.43-1.22-.59-1.22-.59-.65-.27-.93.61-.5,1.33.43.71,1.23,1.1,1.81,1.06.2-.01.39-.07.5-.23.23-.37-.12-1.13-.59-1.56Z"/>
      <path class="cls-22" d="M62.02,61.85c-.36-.55-1.37-.94-1.37-.94-.77-.46-1.96.27-1.91,1.07.05.8.95,1.41,1.88,1.57.32.05.67.06.97-.06.67-.27.79-1.09.44-1.63Z"/>
      <path class="cls-22" d="M68.19,59.77c-.26-.41-1.02-.7-1.02-.7-.58-.34-1.45.2-1.42.79.03.59.7,1.05,1.4,1.16.24.04.5.05.72-.04.5-.2.59-.81.32-1.21Z"/>
      <path class="cls-22" d="M82.05,62.45c-.36-.55-1.37-.94-1.37-.94-.77-.46-1.96.27-1.91,1.07.05.8.95,1.41,1.88,1.57.32.05.67.06.97-.06.67-.27.79-1.09.44-1.63Z"/>
      <path class="cls-22" d="M72.33,62.82c-.74.03-1.6.63-1.6.63-.83.39-.56,1.6.31,1.91s1.92-.11,2.49-.75c.2-.22.36-.48.36-.76,0-.63-.82-1.07-1.56-1.04Z"/>
      <path class="cls-22" d="M46.68,54.6c-.36-.55-1.37-.94-1.37-.94-.77-.46-1.96.27-1.91,1.07.05.8.95,1.41,1.88,1.57.32.05.67.06.97-.06.67-.27.79-1.09.44-1.63Z"/>
      <path class="cls-18" d="M84.95,89.5l.02.63-75.02-15.61c-1.26-.3-2.36-.86-3.25-1.6.75-.35,1.65-.51,2.65-.17,2.77.97,9.35,2.51,11.9,3.13,2.55.62,12.37,2.05,14.41,3.04,2.04.99,16.81,2.87,19.59,3.92,2.78,1.05,11.26,2.97,13.89,3.23,2.63.26,9.72,1.52,11.23,2.26.97.48,3.16.92,4.59,1.17Z"/>
      <path class="cls-22" d="M84.65,78.78l.03,1.01c-2.45-.46-8.08-1.56-9.67-2.33-2.04-.99-10.18-2.39-12.72-2.74s-11.57-2.87-15.17-3.54-21.08-4.4-22.37-5.06c-1.29-.66-13.04-2.91-15.57-3.18-1.2-.13-2.38-.7-3.29-1.26.61-.23,1.31-.29,2.02-.13l76.73,17.23Z"/>
      <path class="cls-21" d="M84.94,90.13v.2s-3.15-.67-3.15-.67c-.01-.06-.03-.13-.04-.19-.18-.97-.23-1.98-.27-2.96-.09-2.46-.17-4.93-.26-7.39-.01-.37-.03-.74-.04-1.11-.1-2.79-.19-5.58-.29-8.38-.08-2.18-.15-4.36-.23-6.55-.06-1.63-.11-3.26-.01-4.88.07-1.17.22-2.33.5-3.47.24-.96,1.26-3.4,2.61-4.79.17.18.27.28.28.3h0s.2,8.82.2,8.82l.31,13.65.28,12.67.08,2.73.04,1.41.02.63h-.03Z"/>
      <g>
        <path class="cls-22" d="M16.8,65.82c-.5-.3-1.25.17-1.22.68s.61.9,1.2,1c.21.03.43.04.62-.04.43-.17.51-.69.28-1.05-.23-.35-.88-.6-.88-.6Z"/>
        <path class="cls-22" d="M23.92,70.93c-.68-.41-1.73.23-1.69.94s.84,1.25,1.66,1.38c.28.05.59.05.85-.05.59-.24.7-.96.38-1.44-.31-.48-1.21-.83-1.21-.83Z"/>
        <path class="cls-22" d="M28,68.3c-.31-.48-1.21-.83-1.21-.83-.68-.41-1.73.23-1.69.94.04.71.84,1.25,1.66,1.38.28.05.59.05.85-.05.59-.24.7-.96.38-1.44Z"/>
      </g>
      <path class="cls-22" d="M37.76,74.94c-.24-.37-.68-.59-1.11-.8l.2.18c-.52-.31-1.3.18-1.27.71.03.53.63.94,1.25,1.04.21.04.44.04.64-.04.45-.18.53-.72.29-1.09Z"/>
      <path class="cls-22" d="M49.5,77.07c-.24-.37-.68-.59-1.11-.8l.2.18c-.52-.31-1.3.18-1.27.71s.63.94,1.25,1.04c.21.04.44.04.64-.04.45-.18.53-.72.29-1.09Z"/>
      <path class="cls-22" d="M12.71,68.49c-.36-.55-1.37-.94-1.37-.94-.77-.46-1.96.27-1.91,1.07.05.8.95,1.41,1.88,1.57.32.05.67.06.97-.06.67-.27.79-1.09.44-1.63Z"/>
      <path class="cls-22" d="M56.34,76.47c-.47-.43-1.22-.59-1.22-.59-.65-.27-.93.61-.5,1.33.43.71,1.23,1.1,1.81,1.06.2-.01.39-.07.5-.23.23-.37-.12-1.13-.59-1.56Z"/>
      <path class="cls-22" d="M60.74,80.56c-.36-.55-1.37-.94-1.37-.94-.77-.46-1.96.27-1.91,1.07.05.8.95,1.41,1.88,1.57.32.05.67.06.97-.06.67-.27.79-1.09.44-1.63Z"/>
      <path class="cls-22" d="M66.9,78.48c-.26-.41-1.02-.7-1.02-.7-.58-.34-1.45.2-1.42.79.03.59.7,1.05,1.4,1.16.24.04.5.05.72-.04.5-.2.59-.81.32-1.21Z"/>
      <path class="cls-22" d="M80.76,81.17c-.36-.55-1.37-.94-1.37-.94-.77-.46-1.96.27-1.91,1.07.05.8.95,1.41,1.88,1.57.32.05.67.06.97-.06.67-.27.79-1.09.44-1.63Z"/>
      <path class="cls-22" d="M71.04,81.53c-.74.03-1.6.63-1.6.63-.83.39-.56,1.6.31,1.91.87.31,1.92-.11,2.49-.75.2-.22.36-.48.36-.76,0-.63-.82-1.07-1.56-1.04Z"/>
      <path class="cls-22" d="M45.39,73.31c-.36-.55-1.37-.94-1.37-.94-.77-.46-1.96.27-1.91,1.07s.95,1.41,1.88,1.57c.32.05.67.06.97-.06.67-.27.79-1.09.44-1.63Z"/>
      <path class="cls-13" d="M38.11,16.98c-.19.33-.42.66-.64,1-1.75,2.74-5.06,4.37-8.81,4.38-.36,0-.74,0-1.06.13-.38.16-.6.5-.83.81-1.12,1.5-3,2.58-5.06,2.91-1.51.24-3.16.12-4.48.78-1.42.71-2.14,2.18-3.61,2.81-2.14.92-4.28-.36-6.45-.1-1.68.2-2.93,1.54-4.69.35-.78-.53-1.18-1.42-1-2.25.14-.65.6-1.27.5-1.92-.04-.25-.16-.49-.23-.74-.22-.88.37-1.81,1.26-2.32.5-.28,1.08-.45,1.68-.53.46-.06.93-.07,1.39-.04.73.04,1.63.11,2.05-.4.24-.3.21-.7.25-1.06.16-1.47,1.8-2.71,3.54-2.68.75.01,1.64.19,2.14-.28.21-.2.29-.47.4-.71.6-1.33,2.38-2.2,4.05-1.99.34.04.68.12,1.02.19.6.12,1.18.21,1.73,0,.92-.35,1.15-1.34,1.66-2.08.76-1.08,2.38-1.67,3.83-1.4,1.39.26,2.84,1.2,4.07.59.31-.15.54-.39.85-.54.66-.34,1.51-.24,2.26-.11,1.59.28,3.45,1.12,4.28,2.35.72,1.07.43,1.95-.11,2.86Z"/>
      <path class="cls-6" d="M19.54,15.31c-.64.49-1.57.75-2.17,1.31-.49.46-.72,1.11-1.23,1.55-1.53,1.32-4.8.34-5.95,1.91-.42.57-.39,1.32-.82,1.89-.48.63-1.45.89-2.34.83-.57-.04-1.53-.22-2.33-.52.46-.06.93-.07,1.39-.04.73.04,1.63.11,2.05-.4.24-.3.21-.7.25-1.06.16-1.47,1.8-2.71,3.54-2.68.75.01,1.64.19,2.14-.28.21-.2.29-.47.4-.71.6-1.33,2.38-2.2,4.05-1.99.34.04.68.12,1.02.19Z"/>
      <path class="cls-6" d="M18,18.63c.93-.13,1.62,1.31,1.83,1.9.12.34.2.7.22,1.06.02.31-.14.7.07.97.07.1.22.11.32.03.35-.27.21-.9.16-1.25-.07-.48-.22-.95-.46-1.39-.37-.69-1.17-1.82-2.24-1.61-.24.05-.13.34.1.3h0Z"/>
      <path class="cls-6" d="M28.56,18.3c-.04-.51-.42-.87-.91-1.14-.62-.34-1.37-.59-2.05-.8-.74-.23-1.51-.39-2.3-.43-.7-.03-1.58,0-2.15.37-.24.16-.04.51.24.5.59-.03,1.14-.21,1.74-.2.66,0,1.31.13,1.93.3.62.17,1.22.37,1.81.59.49.18,1.07.39,1.18.87.06.23.51.18.49-.06h0Z"/>
      <path class="cls-6" d="M31.02,16.71c.32-.58-.04-1.42-.36-1.95-.39-.65-1.01-1.18-1.77-1.53-.11-.05-.28-.07-.39,0-.13.08-.19.14-.19.28,0,.11.07.23.19.28.63.28,1.16.69,1.53,1.21.17.24.31.5.4.77.1.29.09.61.22.89.06.13.3.2.39.04h0Z"/>
      <path class="cls-6" d="M34.2,16.28c.35-.4.47-.94.45-1.42-.02-.43-.09-.98-.52-1.25-.16-.1-.37.04-.38.18-.02.38.25.75.28,1.14.03.43-.08.82-.19,1.23-.05.19.23.28.36.13h0Z"/>
      <path class="cls-6" d="M12.64,26.44c-.05-.95-.27-1.88-.97-2.65-.29-.32-.65-.61-1.07-.81-.32-.16-.87-.43-1.19-.16-.07.06-.07.14-.03.21.14.26.63.27.91.4.4.18.74.44,1.01.75.58.66.82,1.51.97,2.3.03.18.38.13.37-.04h0Z"/>
      <path class="cls-6" d="M4.47,22.91c-1.45.26-1.87,1.7-1.7,2.78.1.63.38,1.25.8,1.78.32.4.97,1.18,1.61,1.15.13,0,.26-.11.21-.24-.1-.24-.31-.34-.53-.5-.22-.16-.42-.35-.6-.55-.37-.42-.64-.9-.77-1.41-.25-.91-.12-2.27,1.09-2.65.27-.09.17-.42-.12-.37h0Z"/>
      <path class="cls-10" d="M16.71,29.33c1.34-.76,2.5-1.77,3.98-2.33,1.51-.57,3.24-.62,4.73-1.21,2.65-1.05,4.01-3.56,6.32-5.08,1.23-.81,2.69-1.32,3.95-2.09,1.25-.78,2.33-1.97,2.2-3.28-.01-.13-.04-.27-.13-.38-.32-.4-1.06-.18-1.54.09-8.48,4.63-16.75,9.75-26.22,12.73-1.93.61-4.4,2.54-1.17,3.1,2.62.45,5.7-.3,7.88-1.54Z"/>
      <path class="cls-15" d="M20.3,26.08c-1.61.08-3.18.74-4.21,1.79-.54.54-.94,1.3-.59,1.94.37.68,1.43.94,1.79,1.62.39.73-.21,1.59-.06,2.38.2,1.1,1.71,1.67,3.03,1.75,1.32.08,2.71-.12,3.93.31.62.22,1.15.59,1.73.89,1.68.86,3.81,1.07,5.68.56,1.16-.32,2.22-.91,3.4-1.16,1.23-.26,2.52-.15,3.77-.29,1.25-.14,2.59-.62,3.08-1.6.41-.83.12-1.82.52-2.66.41-.86,1.47-1.38,2.51-1.66.86-.23,1.82-.34,2.66-.05.64.23,1.14.67,1.67,1.04.92.63,2.05,1.1,3.24,1.1,1.19,0,2.41-.57,2.84-1.5.38-.82.11-1.74.24-2.61.16-1.08.89-2.31.07-3.15-.31-.31-.77-.48-1.12-.76-.87-.69-.86-1.83-1.23-2.79-.68-1.75-2.93-2.95-5.09-2.72-1.49.16-2.78.9-4.17,1.37-1.26.43-2.61.64-3.97.63-1.37-.01-2.74-.26-4.09-.13-1.56.15-2.99.79-4.31,1.5-1.98,1.06-3.59,2.31-5.29,3.64-1.65,1.3-4,.48-6,.58Z"/>
      <path class="cls-14" d="M19.76,29.46c.46.91,1.27,1.69,1.65,2.63.26.64.36,1.39.98,1.82,1.51,1.06,4.09-.96,5.65.05.74.48.86,1.45,1.65,1.86,1.03.54,2.3-.22,3.17-.93,1.28-1.05,2.58-2.12,3.55-3.39.22-.29.42-.59.72-.83.55-.44,1.34-.6,2.07-.78,1.06-.27,2.08-.65,3.03-1.12.82-.41,1.68-1.04,1.63-1.85-.05-.77-.93-1.33-1.82-1.5-.89-.17-1.82-.06-2.72-.11-.2-.01-.41-.03-.56-.14-.14-.1-.22-.25-.32-.38-.58-.78-1.93-.83-2.98-.55-2.2.57-4.15,2.14-6.43,1.88-.69-.08-1.34-.33-2.01-.48-1.29-.29-2.65-.21-3.99-.13-2.49.15-4.38,1.76-3.27,3.96Z"/>
      <g>
        <path class="cls-7" d="M48.39,24.77c-.44,1.12-1.6,1.93-2.78,2.57-.05.03-.09.05-.14.07-2.25,1.2-5.18,2.1-7.49.99-1.74-.83-2.34-1.79-3.75-2.77-1.02-.71-1.73-1.61-2.02-2.64-.15-.53-.19-1.1-.1-1.69.07-.5.22-.98.42-1.45.58-1.38,1.62-2.64,2.64-3.86.01-.01.02-.03.04-.04,1.23-1.46,2.67-3.03,4.76-3.36.28-.04.56-.06.85-.04.22.02.44.05.65.12.84.28,1.34.99,1.79,1.65.13.2.26.39.4.59,1.11,1.66,2.23,3.32,3.34,4.97,1.01,1.5,2.05,3.24,1.4,4.88Z"/>
        <path class="cls-26" d="M43.65,14.92c-.47.6-1.09,1.09-1.87,1.34-.38.12-.8.18-1.14.38-.62.36-.78,1.08-.8,1.71-.02.64.02,1.32-.37,1.86-.39.55-1.43.81-1.89.31-.46-.5-.02-1.28-.38-1.82-1.12-1.68-3.08.95-4.66,1.16.59-1.4,1.65-2.67,2.68-3.9,1.23-1.46,2.67-3.03,4.76-3.36.5-.08,1.02-.08,1.49.08.84.28,1.34.99,1.79,1.65.13.2.26.39.4.59Z"/>
        <path class="cls-25" d="M45.61,27.34s-.09.05-.14.07c-2.25,1.2-5.18,2.1-7.49.99-1.74-.83-2.34-1.79-3.75-2.77-1.02-.71-1.73-1.61-2.02-2.64.91.95,2.87.82,3.81,1.88.4.45.5,1.04.9,1.48.6.65,1.69.8,2.67.83,1.17.05,2.34.01,3.5-.09.85-.08,1.88-.13,2.53.25Z"/>
        <g>
          <path class="cls-12" d="M41.98,14.36c.04.11.09.21.14.31.04.09.07.2.13.28.03.03.09.02.09-.02,0-.1-.07-.2-.11-.3-.05-.1-.11-.21-.18-.3-.02-.03-.08-.01-.07.02h0Z"/>
          <path class="cls-12" d="M41.55,16.06c.07.13.13.26.17.4.04.12.04.25.09.37,0,.01.04.02.04,0,.06-.26-.11-.57-.25-.8-.02-.03-.07,0-.05.03h0Z"/>
          <path class="cls-12" d="M43.81,17.68c.01.09.05.17.08.26.03.07.04.17.12.22.03.02.08.02.09-.02.02-.08-.04-.16-.07-.24-.04-.08-.07-.17-.13-.25-.02-.03-.1-.02-.09.02h0Z"/>
          <path class="cls-12" d="M42.17,19.05c.04.23.05.46.06.69,0,.08.15.08.15,0-.01-.24-.06-.48-.12-.71-.01-.05-.09-.03-.08.02h0Z"/>
          <path class="cls-12" d="M40.33,17.59c-.02.19-.03.45.05.63.03.06.12.05.13-.01,0-.1-.02-.2-.04-.29-.02-.11-.03-.22-.05-.33,0-.05-.09-.05-.1,0h0Z"/>
          <path class="cls-12" d="M40.03,14.54c-.02.11-.05.23-.08.34-.03.1-.09.2-.08.3,0,.03.05.04.07.02.08-.09.09-.21.12-.32.03-.11.05-.22.07-.33,0-.04-.08-.05-.09-.01h0Z"/>
          <path class="cls-12" d="M39.68,13.51c-.08.08-.15.16-.21.25-.05.07-.14.17-.11.25,0,.03.04.04.07.02.08-.04.11-.15.15-.21.06-.09.12-.17.19-.25.04-.05-.05-.1-.09-.06h0Z"/>
          <path class="cls-12" d="M37.45,15.16c-.19.19-.35.41-.48.64-.04.06.07.12.11.06.15-.21.3-.43.44-.64.03-.04-.04-.09-.08-.05h0Z"/>
          <path class="cls-12" d="M38.56,16.01c-.08.22-.19.42-.3.62-.03.06.07.12.11.06.14-.19.24-.43.28-.66,0-.05-.07-.07-.09-.02h0Z"/>
          <path class="cls-12" d="M39.52,16.48c-.04.1-.08.2-.11.31-.03.09-.08.17-.05.26.01.03.07.05.09.02.07-.07.08-.16.1-.25.03-.11.05-.21.08-.32.01-.06-.09-.09-.11-.03h0Z"/>
          <path class="cls-12" d="M36.92,17.36c-.08.15-.13.31-.19.47-.05.14-.14.29-.11.43,0,.04.07.05.1.02.11-.1.12-.25.17-.38.06-.16.12-.33.17-.49.02-.06-.09-.11-.13-.05h0Z"/>
          <path class="cls-12" d="M34.98,17.22c-.07.09-.15.18-.23.27-.07.07-.17.14-.23.22-.03.05.03.1.09.08.11-.04.18-.15.26-.22.09-.09.16-.19.22-.29.04-.06-.07-.12-.11-.06h0Z"/>
          <path class="cls-12" d="M38.65,18.47c-.09.18-.14.4-.17.59-.02.09.15.14.18.04.06-.19.12-.41.11-.6,0-.05-.09-.07-.11-.03h0Z"/>
          <path class="cls-12" d="M36.78,19.7c-.1.19-.14.41-.19.61-.02.09.14.13.16.04.05-.2.13-.42.13-.63,0-.04-.08-.07-.11-.02h0Z"/>
          <path class="cls-12" d="M35.01,20.07c-.08.17-.17.34-.24.52-.03.08.11.11.15.03.08-.17.13-.35.19-.53.02-.06-.08-.08-.1-.02h0Z"/>
          <path class="cls-12" d="M33.32,21.04c-.02.09-.02.18-.04.27-.02.09-.05.18-.07.26-.02.08.11.11.15.03.07-.17.1-.39.07-.56,0-.04-.09-.04-.1,0h0Z"/>
          <path class="cls-12" d="M39.31,21.55c.01.23.02.46.04.68,0,.08.15.08.14,0-.01-.23-.05-.46-.08-.68,0-.06-.11-.06-.11,0h0Z"/>
          <path class="cls-12" d="M41.75,21.48c.04.23.13.46.24.67.04.08.19.04.15-.04-.1-.22-.19-.44-.29-.66-.02-.05-.11-.03-.1.02h0Z"/>
          <path class="cls-12" d="M40.49,19.62c0,.08.01.17.02.25,0,.07,0,.14.03.2.01.02.05.01.06,0,.02-.07,0-.14,0-.21l-.02-.24s-.08-.04-.08,0h0Z"/>
          <path class="cls-12" d="M44.32,19.94c.15.24.29.49.41.75.03.07.17.04.14-.03-.11-.27-.27-.53-.47-.76-.03-.04-.11,0-.08.04h0Z"/>
          <path class="cls-12" d="M44.3,22.26c.08.16.15.32.23.48.04.08.18.05.15-.04-.06-.17-.16-.33-.28-.48-.03-.04-.12-.02-.1.04h0Z"/>
          <path class="cls-12" d="M46.33,21.96c.12.24.17.49.22.75.01.07.16.06.15-.02-.03-.27-.14-.52-.3-.76-.02-.04-.1-.01-.08.03h0Z"/>
          <path class="cls-12" d="M37.49,21.8c-.08.11-.09.25-.11.38-.02.14-.03.29.01.43.02.08.15.05.15-.02.01-.13-.01-.26,0-.38,0-.13.05-.25.05-.38,0-.04-.07-.07-.1-.02h0Z"/>
          <path class="cls-12" d="M35.77,22.17c-.07.23-.15.47-.17.7,0,.07.12.08.14.02.05-.23.08-.47.12-.7,0-.05-.08-.07-.09-.02h0Z"/>
          <path class="cls-12" d="M34.06,23c0,.12,0,.25,0,.37,0,.1-.01.2.04.3.02.04.09.02.1-.01.04-.09.01-.21,0-.31,0-.12-.02-.23-.03-.35,0-.06-.11-.06-.12,0h0Z"/>
          <path class="cls-12" d="M39.28,24.14c.04.15.06.3.05.45,0,.13-.07.27-.07.4,0,.05.07.06.1.02.2-.23.12-.64.02-.9-.02-.06-.12-.03-.11.02h0Z"/>
          <path class="cls-12" d="M41.21,23.82c.03.16.07.33.13.48.04.09.19.05.17-.04-.04-.16-.11-.32-.18-.47-.03-.06-.13-.04-.12.03h0Z"/>
          <path class="cls-12" d="M43.26,24.57c.05.15.08.3.1.46.02.12,0,.26.05.37.02.04.08.04.1,0,.04-.12,0-.26-.02-.39-.03-.16-.08-.31-.14-.47-.02-.05-.11-.03-.09.02h0Z"/>
          <path class="cls-12" d="M43.63,16.14c.03.08.06.17.09.25.03.07.04.16.1.22.01.01.04.01.04,0,0-.08-.04-.15-.07-.23-.03-.08-.07-.17-.1-.25-.01-.03-.08-.02-.06.01h0Z"/>
          <path class="cls-12" d="M46.22,24.3c.04.15.09.29.14.44.04.11.05.25.15.34.03.02.08.01.09-.02.03-.12-.04-.24-.09-.35-.05-.14-.1-.29-.16-.43-.03-.07-.14-.04-.13.03h0Z"/>
          <path class="cls-12" d="M40.69,26.23c0,.14.01.27,0,.41-.01.12-.07.25-.03.37.01.04.09.06.12.03.09-.1.1-.24.1-.37,0-.15,0-.31-.06-.45-.02-.06-.13-.05-.14.02h0Z"/>
          <path class="cls-12" d="M37.12,23.83c-.05.2-.08.43-.03.63.02.07.15.06.15-.02,0-.2-.03-.4,0-.6,0-.06-.11-.07-.13-.01h0Z"/>
          <path class="cls-12" d="M38.54,26.35c-.03.17-.06.36-.04.52.01.07.15.1.16.02.03-.17,0-.36-.02-.53,0-.04-.09-.06-.1-.01h0Z"/>
          <path class="cls-12" d="M35.66,24.43c.02.21-.03.38-.1.58-.03.07.1.12.14.05.12-.19.13-.44.07-.65-.01-.05-.11-.04-.11.01h0Z"/>
          <path class="cls-12" d="M44.9,25.29c.01.15.03.31.04.46,0,.14-.01.28.04.41.02.04.08.04.1,0,.05-.14.02-.3,0-.44-.01-.15-.03-.3-.06-.44-.01-.06-.13-.05-.12.01h0Z"/>
          <path class="cls-12" d="M36.75,25.8c-.09.2-.06.45-.02.66.02.09.19.05.17-.04-.05-.21-.02-.4-.03-.61,0-.06-.1-.07-.13-.01h0Z"/>
          <path class="cls-12" d="M42.68,26.15c0,.16.02.32.04.48.02.14.02.29.07.43.02.07.15.05.15-.02,0-.16-.04-.32-.06-.48-.02-.14-.04-.29-.08-.43-.02-.05-.11-.04-.11.01h0Z"/>
          <path class="cls-12" d="M33.95,19.03c-.06.13-.13.25-.2.37-.06.1-.13.19-.18.3-.02.05.06.07.1.03.16-.19.25-.47.34-.69.01-.03-.04-.04-.06-.01h0Z"/>
          <path class="cls-12" d="M45.52,19.28c.25.13.24.46.5.58.04.02.08-.03.05-.06-.11-.1-.18-.21-.26-.33-.07-.1-.14-.19-.26-.24-.03-.02-.06.03-.03.04h0Z"/>
          <path class="cls-12" d="M42.23,17.64c.07.14.14.28.2.43.04.12.06.25.12.35.02.03.07.01.07-.02.02-.13-.06-.29-.11-.41-.06-.13-.12-.26-.21-.39-.03-.04-.1,0-.08.04h0Z"/>
        </g>
        <path class="cls-15" d="M37.73,14.02c.24-.2.51-.36.78-.52.3-.17.61-.35.97-.4.03.16-.12.31-.28.42-.44.31-.96.52-1.38.84-.4.31-.69.7-1.01,1.07-.23.27-.67.88-1.11.91-.03-.18.31-.34.44-.46.2-.19.37-.4.53-.61.33-.43.61-.89,1.05-1.26Z"/>
      </g>
      <g>
        <path class="cls-20" d="M34.87,23.94c-.2.47-.46.94-.84,1.32-.08.08-.17.16-.26.23-1.09.86-2.74.89-4.23.87-.75,0-1.58-.04-2.13-.47-.98-.78-.96-2.14-.39-3.33.46-.97,1.29-1.82,2.25-2.14.15-.05.31-.09.46-.11,1.72-.24,3.86.28,4.83,1.39.52.59.71,1.35.32,2.24Z"/>
        <path class="cls-19" d="M34.02,25.26c-.08.08-.17.16-.26.23-1.09.86-2.74.89-4.23.87-.75,0-1.58-.04-2.13-.47-.98-.78-.96-2.14-.39-3.33.11.2.26.39.5.56.56.39,1.32.54,2.05.5.46-.03.93-.13,1.37-.01.57.15.94.6,1.45.85.55.27,1.31.32,1.63.79,0,0,0,0,0,.01Z"/>
      </g>
      <g>
        <path class="cls-20" d="M37.39,28.73c-.3.43-.65.85-1.1,1.17-.1.07-.2.13-.3.19-1.25.68-2.88.48-4.35.24-.74-.12-1.55-.27-2-.78-.81-.91-.51-2.25.29-3.34.65-.89,1.64-1.6,2.65-1.78.16-.03.32-.04.48-.04,1.74.01,3.74.84,4.48,2.07.39.66.42,1.43-.14,2.25Z"/>
        <path class="cls-19" d="M36.3,29.9c-.1.07-.2.13-.3.19-1.25.68-2.88.48-4.35.24-.74-.12-1.55-.27-2-.78-.81-.91-.51-2.25.29-3.34.07.22.18.43.38.63.47.47,1.19.73,1.92.79.46.04.94.01,1.36.19.53.23.8.73,1.26,1.05.49.34,1.22.51,1.44,1.01,0,0,0,0,0,.02Z"/>
      </g>
      <g>
        <path class="cls-20" d="M29.8,27.61c-.3.43-.65.85-1.1,1.17-.1.07-.2.13-.3.19-1.25.68-2.88.48-4.35.24-.74-.12-1.55-.27-2-.78-.81-.91-.51-2.25.29-3.34.65-.89,1.64-1.6,2.65-1.78.16-.03.32-.04.48-.04,1.74.01,3.74.84,4.48,2.07.39.66.42,1.43-.14,2.25Z"/>
        <path class="cls-19" d="M28.7,28.78c-.1.07-.2.13-.3.19-1.25.68-2.88.48-4.35.24-.74-.12-1.55-.27-2-.78-.81-.91-.51-2.25.29-3.34.07.22.18.43.38.63.47.47,1.19.73,1.92.79.46.04.94.01,1.36.19.53.23.8.73,1.26,1.05.49.34,1.22.51,1.44,1.01,0,0,0,0,0,.02Z"/>
      </g>
      <g>
        <path class="cls-20" d="M29.92,30.26c-.15.38-.35.76-.65,1.07-.06.07-.13.13-.21.19-.86.71-2.19.76-3.39.77-.61,0-1.27,0-1.73-.35-.81-.61-.82-1.71-.39-2.67.35-.79,1-1.48,1.76-1.75.12-.04.24-.08.37-.1,1.38-.22,3.11.17,3.92,1.04.43.47.6,1.07.31,1.8Z"/>
        <path class="cls-19" d="M29.27,31.34c-.06.07-.13.13-.21.19-.86.71-2.19.76-3.39.77-.61,0-1.27,0-1.73-.35-.81-.61-.82-1.71-.39-2.67.09.16.22.31.42.45.46.31,1.08.42,1.66.37.37-.03.75-.12,1.11-.03.46.11.77.47,1.19.66.45.21,1.06.24,1.33.61,0,0,0,0,0,.01Z"/>
      </g>
      <g>
        <path class="cls-20" d="M36.59,31.64c-.15.38-.35.76-.65,1.07-.06.07-.13.13-.21.19-.86.71-2.19.76-3.39.77-.61,0-1.27,0-1.73-.35-.81-.61-.82-1.71-.39-2.67.35-.79,1-1.48,1.76-1.75.12-.04.24-.08.37-.1,1.38-.22,3.11.17,3.92,1.04.43.47.6,1.07.31,1.8Z"/>
        <path class="cls-19" d="M35.94,32.71c-.06.07-.13.13-.21.19-.86.71-2.19.76-3.39.77-.61,0-1.27,0-1.73-.35-.81-.61-.82-1.71-.39-2.67.09.16.22.31.42.45.46.31,1.08.42,1.66.37.37-.03.75-.12,1.11-.03.46.11.77.47,1.19.66.45.21,1.06.24,1.33.61,0,0,0,0,0,.01Z"/>
      </g>
      <path class="cls-1" d="M29,29.09c.4.45,1.13.59,1.79.7,1.31.21,2.77.39,3.89-.22.54-.3.93-.75,1.25-1.22,1.44-2.12-1.49-3.85-3.88-3.87-2.13-.01-4.46,3.04-3.05,4.61Z"/>
      <g>
        <path class="cls-27" d="M32.87,35.62c.51-.35.94-.79,1.52-1.05.93-.42,3.01-.65,1.9-1.83-.74-.79-2.4-1.3-3.5-.81-.6.26-.99.78-1.57,1.07-.41.2-.88.28-1.34.36-.49.08-.98.16-1.47.24-.27.04-.55.09-.8.2-.1.04-.2.09-.28.16-.29.22-.42.64-.15.88.36.33.99.07,1.54.06.05,0,.1,0,.15,0,.88.06,1.35.98,2.2,1.19.63.16,1.3-.12,1.8-.47Z"/>
        <path class="cls-16" d="M31.18,34.03s.08-.06.09-.1c.02-.1-.13-.15-.25-.17-.64-.08-1.31-.02-1.92.16-.22.07-.45.15-.68.18-.24.03-.5-.01-.66-.16-.05-.05-.09-.1-.16-.14-.1.04-.2.09-.28.16-.29.22-.42.64-.15.88.36.33.99.07,1.54.06.2-.08.38-.18.54-.32.08-.07.16-.15.25-.21.46-.3,1.19-.05,1.67-.33Z"/>
        <path class="cls-9" d="M28.31,34.34c1.61.21,3.34-.39,4.87-.7.8-.16,1.61-.29,2.44-.29.87,0,1.59.19,2.38.46.26.09.39-.25.18-.37-1.27-.72-3.1-.55-4.5-.28-.85.16-1.68.4-2.52.59-.94.22-1.86.31-2.82.4-.11,0-.16.17-.03.18h0Z"/>
        <path class="cls-9" d="M30.75,34.74c.61-.12,1.21-.24,1.81-.39.37-.09.82-.17,1.03-.46.04-.05-.04-.12-.1-.09-.82.43-1.85.6-2.78.82-.09.02-.05.14.04.12h0Z"/>
        <path class="cls-9" d="M32.36,34.84c.59-.09,1.15-.26,1.64-.56.23-.14.43-.29.64-.45.22-.17.5-.3.65-.52.02-.04-.02-.07-.06-.07-.46.06-.84.52-1.19.76-.51.34-1.1.58-1.73.7-.11.02-.06.16.05.14h0Z"/>
        <path class="cls-9" d="M32.41,33.06c.75-.23,1.48-.27,2.27-.31.09,0,.12-.13.02-.14-.79-.12-1.63.07-2.34.35-.07.03-.02.13.05.11h0Z"/>
        <path class="cls-9" d="M30.65,33.65c.69-.19,1.38-.19,2.1-.18.03,0,.04-.04,0-.05-.71-.17-1.45-.07-2.14.13-.08.02-.05.13.03.11h0Z"/>
      </g>
      <g>
        <path class="cls-27" d="M36.98,39.34c-.11-.55-.34-1.08-.31-1.63.04-.89.85-2.52-.92-2.31-1.18.14-2.54,1.1-2.59,2.14-.03.57.3,1.12.31,1.69,0,.4-.15.78-.31,1.16-.16.4-.33.8-.49,1.19-.09.22-.18.45-.2.68,0,.1,0,.19.02.28.08.32.44.62.82.55.53-.1.57-.68.83-1.1.02-.04.05-.07.08-.11.5-.62,1.68-.49,2.33-1.01.48-.38.53-1.01.43-1.55Z"/>
        <path class="cls-16" d="M34.5,39.77s-.02-.09-.05-.12c-.09-.07-.22.02-.3.1-.4.43-.68.94-.8,1.48-.05.2-.07.4-.16.59-.09.19-.26.36-.49.41-.07.01-.15.02-.22.04,0,.1,0,.19.02.28.08.32.44.62.82.55.53-.1.57-.68.83-1.1.01-.19,0-.37-.05-.55-.03-.1-.08-.19-.09-.29-.08-.49.54-.9.5-1.39Z"/>
        <g>
          <path class="cls-9" d="M33.38,42.02c.49-.51.78-1.19,1.02-1.81.28-.73.49-1.48.75-2.22.23-.64.52-1.28.93-1.85.43-.61.98-1.02,1.63-1.45.23-.15-.06-.4-.29-.31-1.35.53-2.09,1.95-2.52,3.08-.27.71-.45,1.44-.67,2.16-.25.81-.63,1.54-1.03,2.3-.05.09.09.2.17.11h0Z"/>
          <path class="cls-9" d="M35.01,40.44c.19-.5.37-1,.51-1.52.09-.32.24-.68.04-.99-.03-.05-.14-.03-.14.03.03.81-.32,1.65-.56,2.44-.02.08.11.11.14.03h0Z"/>
          <path class="cls-9" d="M35.82,39.41c.19-.45.29-.91.22-1.39-.05-.37-.09-.91-.31-1.23-.02-.04-.08-.02-.1.01-.14.32.07.72.13,1.05.1.52.06,1.03-.12,1.53-.03.09.13.13.17.04h0Z"/>
          <path class="cls-9" d="M34.13,38.39c.14-.67.48-1.21.82-1.81.04-.07-.07-.15-.13-.09-.52.5-.75,1.23-.82,1.89,0,.07.12.08.14.02h0Z"/>
          <path class="cls-9" d="M33.94,39.99c.14-.54.46-.99.78-1.46.02-.02-.02-.05-.04-.03-.49.37-.73.93-.86,1.46-.02.07.11.1.13.03h0Z"/>
        </g>
      </g>
      <g>
        <path class="cls-27" d="M45.2,42.75c-.53-.41-1.17-.74-1.6-1.23-.69-.79-1.31-2.67-2.66-1.47-.9.8-1.3,2.42-.51,3.35.44.51,1.17.79,1.64,1.28.33.34.5.77.68,1.18.18.44.36.88.55,1.31.1.24.21.49.38.7.07.09.15.17.25.24.33.24.89.28,1.16,0,.38-.39-.06-.92-.17-1.43,0-.05-.02-.09-.02-.14-.07-.82,1.06-1.4,1.2-2.21.11-.6-.36-1.18-.89-1.59Z"/>
        <path class="cls-16" d="M43.41,44.55s-.09-.07-.14-.07c-.13,0-.18.14-.18.26,0,.6.18,1.21.5,1.74.12.2.26.39.33.6.07.21.06.46-.1.64-.05.05-.12.1-.15.16.07.09.15.17.25.24.33.24.89.28,1.16,0,.38-.39-.06-.92-.17-1.43-.14-.17-.3-.33-.5-.45-.11-.07-.22-.12-.31-.2-.46-.38-.26-1.09-.69-1.49Z"/>
        <g>
          <path class="cls-9" d="M44.26,47.14c.02-.69-.27-1.43-.55-2.07-.32-.73-.7-1.43-1.05-2.15-.34-.7-.64-1.42-.79-2.17-.17-.85-.06-1.59.18-2.42.07-.23-.34-.4-.48-.17-.79,1.38-.2,3.14.45,4.47.35.73.77,1.43,1.13,2.15.39.78.61,1.56.87,2.38.04.11.24.09.24-.03h0Z"/>
          <path class="cls-9" d="M44.4,44.85c-.24-.53-.48-1.06-.77-1.57-.18-.32-.36-.79-.79-.92-.08-.03-.12.07-.08.11.67.71,1.06,1.61,1.49,2.43.04.07.18.02.15-.05h0Z"/>
          <path class="cls-9" d="M44.26,43.49c-.18-.46-.45-.9-.84-1.26-.22-.2-.46-.37-.7-.54-.21-.15-.4-.35-.66-.43-.04-.01-.08.03-.07.06.11.38.71.63,1.03.88.47.37.83.82,1.07,1.33.04.09.22.06.18-.04h0Z"/>
          <path class="cls-9" d="M41.97,43.57c-.43-.67-.56-1.32-.76-2.04-.02-.09-.18-.07-.19.02-.05.73.35,1.49.81,2.09.05.07.18,0,.13-.07h0Z"/>
          <path class="cls-9" d="M43.1,45.06c-.32-.55-.41-1.11-.51-1.71,0-.03-.06-.03-.06,0-.11.62.12,1.23.45,1.77.04.07.16,0,.12-.06h0Z"/>
        </g>
      </g>
      <g>
        <path class="cls-27" d="M44.67,24.41c.3.49.71.94.89,1.48.29.86.1,2.62,1.7,1.96,1.07-.44,2.02-1.7,1.7-2.71-.18-.55-.69-.98-.9-1.53-.15-.38-.14-.79-.13-1.18.01-.42.02-.84.03-1.26,0-.23.01-.48-.06-.7-.03-.09-.07-.18-.12-.27-.19-.29-.65-.48-.98-.31-.47.23-.3.8-.4,1.26,0,.04-.02.08-.03.12-.26.72-1.43.9-1.86,1.56-.32.48-.14,1.09.15,1.59Z"/>
        <path class="cls-16" d="M46.87,23.36s.05.08.1.1c.11.04.21-.07.25-.17.23-.51.31-1.07.23-1.62-.03-.2-.08-.4-.06-.6.02-.2.12-.41.32-.51.06-.03.14-.06.19-.1-.03-.09-.07-.18-.12-.27-.19-.29-.65-.48-.98-.31-.47.23-.3.8-.4,1.26.05.18.13.36.25.51.06.08.14.16.19.25.25.44-.19.99.02,1.45Z"/>
        <g>
          <path class="cls-9" d="M47.13,20.95c-.61,1.33-.24,2.95-.23,4.33,0,.65-.04,1.3-.21,1.94-.19.69-.56,1.22-1.03,1.8-.16.19.18.39.37.24,1.1-.87,1.3-2.41,1.3-3.61,0-.75-.1-1.5-.14-2.24-.05-.83.04-1.61.15-2.44.02-.11-.18-.11-.22-.02h0Z"/>
          <path class="cls-9" d="M46.15,22.85c0,.52.01,1.05.06,1.57.03.32.02.72.31.95.05.04.15,0,.12-.06-.32-.77-.3-1.66-.35-2.47,0-.08-.15-.08-.15,0h0Z"/>
          <path class="cls-9" d="M45.76,24.04c-.02.48.06.94.29,1.38.18.34.41.85.74,1.1.03.03.09,0,.09-.03.02-.34-.32-.67-.5-.96-.29-.47-.43-.96-.44-1.49,0-.09-.17-.09-.17,0h0Z"/>
          <path class="cls-9" d="M47.73,24.59c.11.66-.01,1.27-.13,1.92-.02.09.12.12.17.04.3-.62.26-1.35.1-1.99-.02-.08-.15-.04-.13.03h0Z"/>
          <path class="cls-9" d="M47.34,23c.06.55-.07,1.06-.21,1.59,0,.03.04.04.05.02.32-.49.36-1.06.29-1.61,0-.07-.14-.07-.13,0h0Z"/>
        </g>
      </g>
      <g>
        <path class="cls-27" d="M40.49,25.37c.48.38,1.05.68,1.44,1.13.62.72,1.17,2.43,2.4,1.35.83-.72,1.2-2.18.49-3.03-.39-.47-1.05-.72-1.47-1.17-.29-.31-.45-.7-.6-1.08-.16-.4-.32-.8-.48-1.2-.09-.22-.18-.45-.34-.64-.06-.08-.14-.15-.22-.21-.3-.22-.8-.26-1.05,0-.34.35.05.84.14,1.3,0,.04.01.08.02.12.05.75-.97,1.26-1.11,2-.1.55.31,1.07.79,1.44Z"/>
        <path class="cls-16" d="M42.13,23.75s.08.06.13.07c.12,0,.16-.13.17-.23,0-.55-.15-1.09-.44-1.58-.11-.18-.23-.35-.3-.55-.06-.19-.05-.42.09-.58.05-.05.11-.09.14-.15-.06-.08-.14-.15-.22-.21-.3-.22-.8-.26-1.05,0-.34.35.05.84.14,1.3.12.16.27.3.44.41.1.06.2.11.28.18.42.34.22.99.62,1.35Z"/>
        <g>
          <path class="cls-9" d="M41.39,21.4c-.04,1.31.85,2.63,1.41,3.82.3.63.57,1.29.7,1.96.15.78.05,1.46-.18,2.22-.07.21.31.37.43.15.71-1.25.21-2.82-.36-4.04-.32-.68-.7-1.33-1.03-2.01-.34-.7-.54-1.4-.75-2.13-.03-.1-.21-.08-.22.02h0Z"/>
          <path class="cls-9" d="M41.24,23.48c.2.45.4.9.64,1.34.17.32.33.77.74.92.08.03.14-.04.09-.1-.61-.63-.95-1.47-1.33-2.22-.03-.06-.16-.02-.13.05h0Z"/>
          <path class="cls-9" d="M41.36,24.71c.16.42.4.81.75,1.14.21.2.46.37.7.55.18.13.31.27.53.35.04.01.08-.03.07-.06-.12-.35-.62-.56-.92-.8-.43-.34-.76-.76-.97-1.22-.04-.09-.2-.05-.17.04h0Z"/>
          <path class="cls-9" d="M43.44,24.65c.38.61.5,1.2.67,1.86.02.08.16.06.17-.02.04-.66-.3-1.35-.72-1.9-.05-.06-.16,0-.12.06h0Z"/>
          <path class="cls-9" d="M42.43,23.29c.28.5.36,1.01.45,1.55,0,.02.05.02.06,0,.11-.56-.09-1.11-.39-1.61-.04-.06-.15,0-.11.06h0Z"/>
        </g>
      </g>
      <g>
        <path class="cls-27" d="M37.07,28.26c.48.38,1.05.68,1.44,1.13.62.72,1.17,2.43,2.4,1.35.83-.72,1.2-2.18.49-3.03-.39-.47-1.05-.72-1.47-1.17-.29-.31-.45-.7-.6-1.08-.16-.4-.32-.8-.48-1.2-.09-.22-.18-.45-.34-.64-.06-.08-.14-.15-.22-.21-.3-.22-.8-.26-1.05,0-.34.35.05.84.14,1.3,0,.04.01.08.02.12.05.75-.97,1.26-1.11,2-.1.55.31,1.07.79,1.44Z"/>
        <path class="cls-16" d="M38.71,26.64s.08.06.13.07c.12,0,.16-.13.17-.23,0-.55-.15-1.09-.44-1.58-.11-.18-.23-.35-.3-.55-.06-.19-.05-.42.09-.58.05-.05.11-.09.14-.15-.06-.08-.14-.15-.22-.21-.3-.22-.8-.26-1.05,0-.34.35.05.84.14,1.3.12.16.27.3.44.41.1.06.2.11.28.18.42.34.22.99.62,1.35Z"/>
        <g>
          <path class="cls-9" d="M37.96,24.29c-.04,1.31.85,2.63,1.41,3.82.3.63.57,1.29.7,1.96.15.78.05,1.46-.18,2.22-.07.21.31.37.43.15.71-1.25.21-2.82-.36-4.04-.32-.68-.7-1.33-1.03-2.01-.34-.7-.54-1.4-.75-2.13-.03-.1-.21-.08-.22.02h0Z"/>
          <path class="cls-9" d="M37.82,26.36c.2.45.4.9.64,1.34.17.32.33.77.74.92.08.03.14-.04.09-.1-.61-.63-.95-1.47-1.33-2.22-.03-.06-.16-.02-.13.05h0Z"/>
          <path class="cls-9" d="M37.94,27.59c.16.42.4.81.75,1.14.21.2.46.37.7.55.18.13.31.27.53.35.04.01.08-.03.07-.06-.12-.35-.62-.56-.92-.8-.43-.34-.76-.76-.97-1.22-.04-.09-.2-.05-.17.04h0Z"/>
          <path class="cls-9" d="M40.01,27.54c.38.61.5,1.2.67,1.86.02.08.16.06.17-.02.04-.66-.3-1.35-.72-1.9-.05-.06-.16,0-.12.06h0Z"/>
          <path class="cls-9" d="M39,26.17c.28.5.36,1.01.45,1.55,0,.02.05.02.06,0,.11-.56-.09-1.11-.39-1.61-.04-.06-.15,0-.11.06h0Z"/>
        </g>
      </g>
      <g>
        <path class="cls-7" d="M62.88,31.92c-.54,1.09-1.77,1.82-3,2.39-.05.02-.09.04-.14.06-2.35,1.06-5.35,1.76-7.56.51-1.66-.94-2.17-1.94-3.49-3-.96-.77-1.58-1.72-1.78-2.76-.1-.54-.09-1.11.05-1.69.12-.49.31-.97.55-1.42.71-1.34,1.85-2.53,2.98-3.68.01-.01.03-.03.04-.04,1.36-1.38,2.94-2.85,5.05-3.05.28-.03.57-.03.85.01.22.03.43.08.64.16.81.33,1.25,1.07,1.64,1.76.11.21.23.41.34.62.96,1.72,1.92,3.45,2.88,5.17.87,1.56,1.75,3.36.96,4.95Z"/>
        <path class="cls-26" d="M59.04,21.79c-.52.56-1.18,1.02-1.99,1.22-.39.1-.82.13-1.17.31-.65.32-.87,1.02-.95,1.66-.08.63-.1,1.31-.53,1.84-.44.52-1.5.72-1.91.19-.41-.52.1-1.27-.22-1.84-.97-1.75-3.16.75-4.75.86.71-1.36,1.88-2.56,3.02-3.72,1.36-1.38,2.94-2.85,5.05-3.05.5-.05,1.03-.01,1.48.18.81.33,1.25,1.07,1.64,1.76.11.21.23.41.34.62Z"/>
        <path class="cls-25" d="M59.88,34.3s-.09.04-.14.06c-2.35,1.06-5.35,1.76-7.56.51-1.66-.94-2.17-1.94-3.49-3-.96-.77-1.58-1.72-1.78-2.76.82,1,2.78,1,3.63,2.11.36.47.4,1.07.76,1.53.54.69,1.61.9,2.58,1,1.16.12,2.33.16,3.5.13.86-.02,1.88-.01,2.5.41Z"/>
        <g>
          <path class="cls-12" d="M57.43,21.13c.03.11.07.22.11.32.03.1.05.2.11.29.02.04.09.02.09-.02,0-.11-.05-.22-.09-.32-.04-.1-.08-.21-.15-.3-.02-.03-.07,0-.07.02h0Z"/>
          <path class="cls-12" d="M56.85,22.79c.06.13.1.26.13.39.03.13.02.27.06.4,0,.02.04.02.04,0,.08-.25-.06-.58-.17-.81-.01-.03-.07-.02-.06.01h0Z"/>
          <path class="cls-12" d="M58.96,24.55c0,.09.04.18.06.26.02.08.03.17.1.23.03.02.08.01.09-.02.02-.08-.02-.16-.05-.24-.03-.08-.05-.17-.11-.25-.02-.04-.09-.02-.09.02h0Z"/>
          <path class="cls-12" d="M57.2,25.81c.02.24.01.47,0,.71,0,.08.15.08.15,0,0-.24-.02-.48-.06-.72,0-.04-.09-.03-.08,0h0Z"/>
          <path class="cls-12" d="M55.5,24.23c-.03.2-.07.45,0,.64.02.05.12.06.13,0,.02-.1,0-.2,0-.3,0-.11,0-.22-.02-.33,0-.04-.09-.06-.09-.01h0Z"/>
          <path class="cls-12" d="M55.46,21.18c-.03.11-.07.23-.11.34-.04.1-.1.19-.11.3,0,.03.04.04.06.02.08-.07.1-.18.14-.27.04-.12.08-.24.11-.36.01-.05-.08-.07-.09-.02h0Z"/>
          <path class="cls-12" d="M55.2,20.14c-.09.07-.17.15-.23.23-.05.07-.15.16-.13.24,0,.02.04.04.06.03.09-.03.12-.12.17-.19.06-.09.14-.17.22-.25.05-.05-.03-.12-.08-.07h0Z"/>
          <path class="cls-12" d="M52.84,21.64c-.2.18-.39.39-.54.61-.04.06.07.11.11.06.17-.2.33-.41.5-.61.03-.04-.04-.08-.08-.05h0Z"/>
          <path class="cls-12" d="M53.87,22.55c-.1.21-.22.4-.35.6-.04.06.06.11.11.06.16-.18.27-.42.33-.64.01-.05-.07-.07-.09-.02h0Z"/>
          <path class="cls-12" d="M54.78,23.07c-.05.1-.09.19-.13.29-.04.09-.1.18-.08.28,0,.04.06.04.09.02.08-.06.09-.16.12-.24.04-.1.07-.2.1-.31.02-.05-.08-.09-.11-.04h0Z"/>
          <path class="cls-12" d="M52.11,23.8c-.09.14-.15.28-.22.43-.06.13-.18.29-.16.44,0,.04.06.07.1.04.12-.1.14-.25.2-.38.07-.16.15-.32.21-.48.02-.06-.09-.1-.13-.05h0Z"/>
          <path class="cls-12" d="M50.19,23.53c-.08.09-.16.17-.25.25-.08.07-.19.13-.25.21-.03.04.02.1.08.08.12-.03.21-.14.29-.21.09-.09.17-.18.24-.28.04-.06-.06-.11-.11-.06h0Z"/>
          <path class="cls-12" d="M53.74,25.01c-.11.17-.18.39-.23.58-.03.1.14.13.18.04.07-.18.15-.4.16-.59,0-.05-.08-.07-.11-.03h0Z"/>
          <path class="cls-12" d="M51.76,26.12c-.12.18-.17.41-.25.6-.03.09.13.13.16.04.07-.2.17-.41.19-.61,0-.05-.08-.06-.11-.02h0Z"/>
          <path class="cls-12" d="M49.97,26.36c-.1.17-.21.34-.29.51-.03.07.1.12.14.05.1-.17.17-.35.25-.53.02-.05-.07-.08-.1-.03h0Z"/>
          <path class="cls-12" d="M48.19,27.24c-.03.09-.04.18-.07.26-.03.09-.07.17-.1.26-.02.07.1.12.14.05.09-.16.14-.38.12-.56,0-.05-.08-.06-.1-.01h0Z"/>
          <path class="cls-12" d="M54.12,28.13c0,.23-.02.46-.02.69,0,.08.14.08.14,0,0-.23-.01-.46-.02-.69,0-.06-.11-.06-.11,0h0Z"/>
          <path class="cls-12" d="M56.55,28.2c.02.24.09.47.18.7.03.08.18.05.15-.04-.08-.22-.15-.45-.23-.67-.02-.04-.1-.04-.1.01h0Z"/>
          <path class="cls-12" d="M55.47,26.27v.24c0,.07-.02.14,0,.21.01.02.05.02.06,0,.03-.07.01-.14.01-.21,0-.08,0-.16,0-.24,0-.04-.08-.04-.08,0h0Z"/>
          <path class="cls-12" d="M59.26,26.84c.13.25.24.51.34.78.03.07.16.04.14-.03-.09-.28-.22-.54-.4-.79-.03-.04-.1,0-.08.04h0Z"/>
          <path class="cls-12" d="M59.03,29.16c.06.16.12.33.19.49.03.08.17.05.15-.04-.05-.17-.13-.34-.24-.49-.03-.04-.12-.02-.1.04h0Z"/>
          <path class="cls-12" d="M61.08,28.98c.09.24.13.49.15.74,0,.08.16.09.16,0,0-.27-.1-.53-.23-.77-.02-.04-.09-.01-.08.03h0Z"/>
          <path class="cls-12" d="M52.28,28.26c-.09.12-.12.27-.15.41-.02.13-.05.26-.02.39.01.06.14.06.15,0,.02-.13.01-.26.03-.39.02-.13.08-.25.08-.38,0-.05-.07-.06-.1-.02h0Z"/>
          <path class="cls-12" d="M50.53,28.52c-.09.22-.19.45-.23.68-.01.07.11.11.14.03.07-.22.12-.46.19-.68.02-.05-.07-.07-.09-.02h0Z"/>
          <path class="cls-12" d="M48.75,29.24c-.01.11-.03.23-.04.34,0,.1-.04.21,0,.31.01.03.08.05.1.01.05-.09.04-.19.04-.3,0-.12,0-.25,0-.37,0-.06-.11-.06-.12,0h0Z"/>
          <path class="cls-12" d="M53.86,30.71c.03.17.04.33,0,.5-.02.12-.09.23-.1.35,0,.04.06.06.09.03.23-.22.18-.65.11-.91-.02-.06-.12-.03-.11.02h0Z"/>
          <path class="cls-12" d="M55.81,30.5c.02.17.04.34.09.5.03.09.18.05.17-.04-.03-.16-.08-.32-.14-.48-.02-.05-.13-.05-.12.01h0Z"/>
          <path class="cls-12" d="M57.78,31.39c.03.16.05.31.06.47,0,.12-.02.25.02.37.01.04.08.04.1,0,.1-.25-.02-.61-.09-.86-.02-.05-.11-.03-.09.02h0Z"/>
          <path class="cls-12" d="M58.91,23.01c.02.09.05.17.07.26.02.08.03.16.08.23.01.02.04,0,.04,0,0-.08-.03-.16-.05-.23l-.08-.26s-.07-.02-.06.01h0Z"/>
          <path class="cls-12" d="M60.76,31.31c.03.15.06.3.1.45.03.12.03.24.12.34.02.03.08,0,.09-.02.04-.12-.02-.24-.06-.36-.04-.15-.08-.3-.12-.44-.02-.07-.14-.04-.13.03h0Z"/>
          <path class="cls-12" d="M55.07,32.88c-.02.15-.01.29-.04.44-.02.11-.08.22-.06.33,0,.05.09.06.12.03.1-.09.12-.24.13-.36.02-.15.02-.3-.02-.45-.02-.07-.13-.05-.14.02h0Z"/>
          <path class="cls-12" d="M51.73,30.26c-.07.2-.12.42-.08.63.01.08.15.05.15-.02.02-.2,0-.39.06-.58.02-.07-.1-.1-.12-.03h0Z"/>
          <path class="cls-12" d="M52.91,32.86c-.04.16-.1.35-.09.52,0,.08.14.1.16.02.04-.16.03-.36.03-.53,0-.05-.09-.06-.1-.01h0Z"/>
          <path class="cls-12" d="M50.22,30.76c0,.21-.07.38-.16.58-.03.07.1.11.14.05.14-.18.16-.43.12-.64-.01-.05-.11-.04-.11.01h0Z"/>
          <path class="cls-12" d="M59.35,32.22c0,.15,0,.31,0,.46,0,.14-.04.28,0,.41.01.04.08.04.1,0,.06-.12.04-.28.05-.41,0-.16,0-.31-.02-.46,0-.07-.13-.07-.13,0h0Z"/>
          <path class="cls-12" d="M51.19,32.19c-.11.2-.11.44-.08.65.01.09.19.09.17,0-.03-.21.01-.41.03-.62,0-.05-.09-.08-.12-.03h0Z"/>
          <path class="cls-12" d="M57.06,32.93c-.04.29-.03.64.03.92.01.07.14.05.15-.02.03-.29,0-.64-.06-.92-.01-.06-.11-.04-.11.01h0Z"/>
          <path class="cls-12" d="M49.01,25.27c-.07.11-.13.22-.21.32-.07.1-.17.2-.23.32-.02.04.04.1.08.05.18-.19.29-.45.4-.67.01-.03-.03-.05-.05-.03h0Z"/>
          <path class="cls-12" d="M60.51,26.26c.24.15.2.48.45.61.04.02.08-.03.05-.06-.1-.11-.16-.22-.23-.35-.06-.1-.12-.19-.24-.25-.03-.02-.06.03-.03.04h0Z"/>
          <path class="cls-12" d="M57.38,24.4c.06.14.11.28.15.42.04.13.04.26.1.38.01.02.06.02.07,0,.03-.13-.02-.27-.06-.4-.04-.15-.1-.29-.18-.43-.02-.04-.1-.01-.08.03h0Z"/>
        </g>
        <path class="cls-15" d="M53.22,20.52c.25-.18.54-.32.82-.46.31-.16.64-.31,1-.34.01.17-.15.3-.31.4-.46.28-1.01.46-1.46.75-.43.28-.76.65-1.1,1-.25.26-.75.83-1.18.84-.02-.18.34-.32.48-.43.22-.17.41-.37.59-.57.36-.41.69-.85,1.16-1.19Z"/>
      </g>
      <g>
        <path class="cls-27" d="M48.71,31.57c.24.51.6,1,.71,1.54.18.88-.21,2.62,1.46,2.1,1.12-.35,2.21-1.52,2.01-2.55-.11-.56-.57-1.04-.72-1.59-.1-.39-.04-.79.01-1.19.06-.42.12-.84.18-1.25.03-.23.07-.47.03-.7-.02-.09-.04-.19-.09-.28-.15-.3-.59-.53-.94-.39-.49.19-.39.77-.55,1.22-.01.04-.03.08-.05.12-.34.69-1.53.78-2.03,1.39-.37.45-.27,1.08-.03,1.59Z"/>
        <path class="cls-16" d="M51.03,30.72s.04.09.08.11c.1.05.21-.06.27-.15.29-.49.43-1.04.42-1.59,0-.2-.03-.4.02-.6.04-.2.17-.4.38-.48.07-.03.14-.04.2-.08-.02-.09-.04-.19-.09-.28-.15-.3-.59-.53-.94-.39-.49.19-.39.77-.55,1.22.03.19.09.37.19.53.05.09.12.17.16.27.19.46-.31.97-.15,1.45Z"/>
        <g>
          <path class="cls-9" d="M51.58,28.32c-.76,1.26-.6,2.89-.74,4.26-.07.65-.19,1.3-.43,1.92-.27.68-.69,1.18-1.23,1.72-.16.16.06.46.29.31,1.17-.75,1.57-2.18,1.73-3.35.1-.75.1-1.51.14-2.26.05-.87.23-1.68.45-2.53.03-.1-.14-.17-.2-.07h0Z"/>
          <path class="cls-9" d="M50.37,30.16c-.06.52-.11,1.05-.13,1.57,0,.33-.06.71.2.97.05.05.14,0,.12-.06-.23-.79-.1-1.67-.05-2.48,0-.08-.14-.08-.15,0h0Z"/>
          <path class="cls-9" d="M49.84,31.29c-.08.46-.06.91.1,1.35.07.2.18.4.28.6.11.22.17.44.35.62.02.02.08.01.09-.02.06-.35-.26-.73-.41-1.05-.21-.48-.29-.97-.24-1.48,0-.08-.16-.1-.17-.02h0Z"/>
          <path class="cls-9" d="M51.74,32c.03.68-.16,1.27-.36,1.92-.02.08.11.13.16.06.38-.59.43-1.32.34-1.97-.01-.07-.14-.08-.14,0h0Z"/>
          <path class="cls-9" d="M51.53,30.41c0,.56-.2,1.04-.4,1.56-.01.03.03.04.05.02.38-.46.49-1.03.48-1.58,0-.07-.13-.07-.13,0h0Z"/>
        </g>
      </g>
      <g>
        <path class="cls-7" d="M49.9,35.14c-.37,1.01-1.39,1.74-2.43,2.33-.04.02-.08.05-.12.07-1.98,1.1-4.58,1.94-6.67.99-1.57-.72-2.12-1.57-3.4-2.42-.93-.62-1.57-1.42-1.85-2.33-.14-.47-.19-.98-.12-1.5.06-.45.18-.88.34-1.3.49-1.24,1.4-2.38,2.28-3.48.01-.01.02-.03.03-.04,1.07-1.32,2.32-2.74,4.18-3.06.25-.04.5-.06.75-.05.2.01.39.04.58.1.75.24,1.22.86,1.63,1.45.12.17.24.35.37.52,1.02,1.46,2.05,2.93,3.08,4.39.93,1.33,1.89,2.86,1.34,4.33Z"/>
        <path class="cls-26" d="M45.48,26.42c-.41.54-.95.99-1.64,1.22-.34.11-.71.17-1.01.35-.55.33-.67.97-.68,1.54,0,.57.04,1.17-.29,1.67-.34.49-1.26.74-1.68.3-.42-.44-.04-1.14-.38-1.62-1.03-1.49-2.73.89-4.14,1.1.5-1.26,1.42-2.41,2.31-3.51,1.07-1.32,2.32-2.74,4.18-3.06.44-.08.91-.08,1.33.05.75.24,1.22.86,1.63,1.45.12.17.24.35.37.52Z"/>
        <path class="cls-25" d="M47.47,37.47s-.08.05-.12.07c-1.98,1.1-4.58,1.94-6.67.99-1.57-.72-2.12-1.57-3.4-2.42-.93-.62-1.57-1.42-1.85-2.33.83.83,2.57.69,3.43,1.62.36.39.46.92.83,1.31.55.58,1.52.69,2.39.71,1.04.02,2.08-.02,3.12-.13.76-.08,1.67-.14,2.26.18Z"/>
        <g>
          <path class="cls-12" d="M43.98,25.95c.03.09.08.18.13.28.04.08.06.18.12.25.02.03.08.02.08-.02,0-.09-.06-.17-.1-.25-.05-.1-.1-.19-.17-.28-.02-.02-.07-.01-.06.02h0Z"/>
          <path class="cls-12" d="M43.64,27.47c.07.12.12.23.16.36.03.11.04.23.09.33,0,.01.03.02.04,0,.05-.23-.11-.51-.24-.71-.02-.03-.06,0-.05.02h0Z"/>
          <path class="cls-12" d="M45.68,28.88c.01.08.05.16.08.24.03.07.04.15.11.19.02.02.06,0,.07-.02.02-.07-.03-.14-.07-.21-.04-.07-.06-.15-.12-.22-.02-.03-.09-.02-.08.02h0Z"/>
          <path class="cls-12" d="M44.25,30.13c.04.2.06.41.07.62,0,.07.14.07.13,0-.02-.22-.06-.42-.12-.63-.01-.04-.08-.02-.07.02h0Z"/>
          <path class="cls-12" d="M42.58,28.85c-.01.17-.02.4.06.56.02.05.11.05.11-.01,0-.09-.03-.18-.04-.27-.02-.1-.03-.2-.05-.29,0-.04-.08-.03-.08,0h0Z"/>
          <path class="cls-12" d="M42.25,26.13c-.02.1-.04.2-.06.31-.02.09-.07.18-.07.27,0,.03.04.03.06.01.07-.08.08-.19.1-.28.02-.1.04-.2.05-.3,0-.04-.08-.05-.08,0h0Z"/>
          <path class="cls-12" d="M41.91,25.22c-.07.07-.13.14-.19.22-.04.06-.12.15-.09.22,0,.02.04.03.06.02.08-.04.1-.13.13-.19.05-.08.1-.15.16-.22.03-.04-.04-.09-.08-.05h0Z"/>
          <path class="cls-12" d="M39.96,26.72c-.16.18-.3.37-.42.57-.03.06.06.11.1.05.13-.19.26-.39.38-.58.02-.04-.04-.08-.07-.04h0Z"/>
          <path class="cls-12" d="M40.97,27.46c-.07.19-.16.37-.25.56-.03.06.06.11.1.05.13-.18.2-.39.24-.6,0-.04-.07-.05-.08,0h0Z"/>
          <path class="cls-12" d="M41.83,27.86c-.03.09-.06.18-.09.28-.02.08-.07.15-.04.23,0,.03.06.04.08.02.06-.06.07-.14.09-.22.02-.09.04-.19.06-.28,0-.05-.08-.08-.1-.02h0Z"/>
          <path class="cls-12" d="M39.53,28.69c-.07.14-.11.28-.16.42-.04.12-.12.26-.09.39,0,.03.06.04.09.02.09-.09.11-.23.14-.34.05-.15.1-.29.14-.44.01-.05-.08-.1-.11-.04h0Z"/>
          <path class="cls-12" d="M37.8,28.59c-.06.08-.13.17-.2.24-.06.07-.15.13-.2.2-.03.05.03.09.08.07.09-.04.16-.13.22-.2.07-.08.14-.17.19-.27.03-.06-.06-.1-.1-.05h0Z"/>
          <path class="cls-12" d="M41.09,29.66c-.08.16-.12.36-.14.53-.01.08.14.09.16.02.05-.17.1-.37.09-.54,0-.05-.08-.06-.11-.01h0Z"/>
          <path class="cls-12" d="M39.45,30.77c-.09.17-.11.37-.16.55-.02.08.13.11.15.03.04-.18.11-.38.11-.56,0-.04-.07-.06-.09-.02h0Z"/>
          <path class="cls-12" d="M37.88,31.13c-.07.15-.15.31-.2.46-.03.07.1.1.13.03.07-.15.11-.32.16-.47.02-.05-.07-.07-.09-.02h0Z"/>
          <path class="cls-12" d="M36.39,32.02c-.02.08-.02.16-.03.24-.02.08-.04.16-.06.24-.02.07.1.1.13.03.06-.15.08-.35.05-.5,0-.04-.08-.04-.09,0h0Z"/>
          <path class="cls-12" d="M41.74,32.4c.02.2.03.41.05.61,0,.07.14.07.13,0-.02-.2-.05-.41-.08-.61,0-.05-.1-.05-.1,0h0Z"/>
          <path class="cls-12" d="M43.91,32.29c.04.21.13.41.23.61.03.06.16.02.13-.05-.09-.19-.18-.39-.27-.58-.02-.04-.1-.03-.09.02h0Z"/>
          <path class="cls-12" d="M42.76,30.65c0,.08.02.15.02.23,0,.06,0,.12.03.18,0,.02.04.01.05,0,.02-.06,0-.13,0-.19,0-.07-.02-.14-.03-.21,0-.04-.07-.04-.07,0h0Z"/>
          <path class="cls-12" d="M46.18,30.89c.14.22.27.44.38.67.03.06.15.04.12-.03-.11-.24-.25-.47-.43-.67-.03-.03-.1,0-.07.03h0Z"/>
          <path class="cls-12" d="M46.21,32.97c.07.14.14.29.22.43.03.06.15.02.13-.05-.06-.15-.15-.3-.26-.42-.04-.04-.11,0-.08.04h0Z"/>
          <path class="cls-12" d="M48.01,32.67c.11.21.16.43.21.65.01.06.15.05.14-.02-.03-.24-.14-.46-.28-.67-.03-.04-.08,0-.07.03h0Z"/>
          <path class="cls-12" d="M40.12,32.64c-.07.1-.08.22-.09.34-.01.12-.02.26.02.38.02.07.13.05.14-.02,0-.11-.01-.23,0-.34,0-.11.04-.23.03-.34,0-.04-.07-.06-.09-.02h0Z"/>
          <path class="cls-12" d="M38.59,33c-.06.2-.12.42-.14.63,0,.06.11.07.12.01.04-.21.06-.42.1-.62,0-.05-.07-.07-.08-.02h0Z"/>
          <path class="cls-12" d="M37.09,33.76c0,.11,0,.22,0,.33,0,.09,0,.18.04.26.02.04.08.02.09-.01.04-.08,0-.19,0-.27,0-.1-.02-.21-.03-.31,0-.05-.1-.06-.1,0h0Z"/>
          <path class="cls-12" d="M41.76,34.7c.04.13.06.27.06.4,0,.12-.06.24-.05.36,0,.04.06.05.09.02.17-.21.09-.58,0-.8-.02-.05-.11-.03-.1.02h0Z"/>
          <path class="cls-12" d="M43.48,34.39c.03.14.07.29.13.43.03.08.17.05.15-.03-.04-.14-.11-.29-.18-.43-.03-.05-.11-.01-.1.04h0Z"/>
          <path class="cls-12" d="M45.32,35.03c.04.12.07.24.09.37.02.12,0,.26.06.37.02.03.08.04.09,0,.04-.11,0-.23-.03-.34-.03-.14-.08-.28-.13-.41-.02-.04-.1-.03-.08.02h0Z"/>
          <path class="cls-12" d="M45.49,27.51c.03.08.06.16.1.24.03.06.04.13.09.19.01.01.04,0,.04-.01,0-.07-.04-.14-.07-.2l-.1-.22s-.07-.02-.06.01h0Z"/>
          <path class="cls-12" d="M47.95,34.75c.04.13.08.26.13.39.04.1.05.22.14.3.02.02.07.01.08-.02.02-.11-.04-.21-.08-.31-.05-.13-.1-.26-.15-.38-.03-.06-.13-.04-.11.03h0Z"/>
          <path class="cls-12" d="M43.06,36.55c0,.12.02.24,0,.36,0,.11-.05.22-.02.33.01.05.09.05.12.01.08-.09.07-.23.07-.34,0-.12-.01-.26-.06-.38-.02-.05-.12-.05-.12.01h0Z"/>
          <path class="cls-12" d="M39.83,34.46c-.04.18-.07.38-.02.56.02.06.14.05.14-.02,0-.18-.03-.35,0-.54,0-.05-.1-.07-.11-.01h0Z"/>
          <path class="cls-12" d="M41.14,36.69c-.02.15-.05.32-.02.47.01.08.13.05.14-.02.02-.14,0-.31-.03-.46,0-.05-.08-.05-.09,0h0Z"/>
          <path class="cls-12" d="M38.54,35.01c.02.19-.02.34-.08.52-.02.06.09.11.13.05.1-.17.1-.39.05-.58-.01-.04-.1-.04-.1.01h0Z"/>
          <path class="cls-12" d="M46.79,35.66c.02.14.03.27.04.41,0,.12,0,.25.04.36.02.03.07.04.09,0,.05-.12.01-.27,0-.39-.01-.13-.03-.26-.06-.4-.01-.05-.12-.04-.11.01h0Z"/>
          <path class="cls-12" d="M39.54,36.22c-.08.18-.05.4,0,.59.02.08.17.05.15-.03-.04-.18-.03-.36-.04-.54,0-.06-.09-.06-.11-.01h0Z"/>
          <path class="cls-12" d="M44.83,36.45c0,.14.03.29.05.43.02.13.03.26.07.38.02.06.13.05.13-.01,0-.13-.03-.26-.05-.39-.02-.14-.04-.29-.09-.43-.02-.05-.1-.04-.1.01h0Z"/>
          <path class="cls-12" d="M36.91,30.22c-.05.11-.11.23-.17.34-.05.09-.12.17-.15.27-.02.04.06.07.09.03.14-.18.21-.42.29-.62.01-.03-.04-.04-.05-.01h0Z"/>
          <path class="cls-12" d="M47.23,30.28c.23.11.22.41.46.51.04.02.08-.02.05-.05-.1-.09-.17-.18-.24-.29-.06-.09-.13-.16-.24-.21-.03-.01-.06.02-.03.04h0Z"/>
          <path class="cls-12" d="M44.27,28.86c.07.12.13.25.18.38.04.1.05.22.12.31.02.03.06.01.06-.01.02-.12-.05-.25-.1-.37-.05-.12-.11-.23-.19-.34-.03-.04-.09,0-.07.03h0Z"/>
        </g>
        <path class="cls-15" d="M40.18,25.7c.21-.18.45-.32.69-.47.26-.16.54-.32.86-.37.03.15-.11.28-.24.38-.38.28-.85.48-1.22.77-.35.28-.61.63-.88.97-.2.25-.58.79-.97.83-.03-.16.27-.3.38-.41.18-.17.33-.36.46-.55.28-.39.53-.81.91-1.14Z"/>
      </g>
      <g>
        <path class="cls-20" d="M55.48,35.32c-.15.38-.35.76-.65,1.07-.06.07-.13.13-.21.19-.86.71-2.19.76-3.39.77-.61,0-1.27,0-1.73-.35-.81-.61-.82-1.71-.39-2.67.35-.79,1-1.48,1.76-1.75.12-.04.24-.08.37-.1,1.38-.22,3.11.17,3.92,1.04.43.47.6,1.07.31,1.8Z"/>
        <path class="cls-19" d="M54.83,36.39c-.06.07-.13.13-.21.19-.86.71-2.19.76-3.39.77-.61,0-1.27,0-1.73-.35-.81-.61-.82-1.71-.39-2.67.09.16.22.31.42.45.46.31,1.08.42,1.66.37.37-.03.75-.12,1.11-.03.46.11.77.47,1.19.66.45.21,1.06.24,1.33.61,0,0,0,0,0,.01Z"/>
      </g>
      <g>
        <path class="cls-20" d="M49.98,37.84c-.15.38-.35.76-.65,1.07-.06.07-.13.13-.21.19-.86.71-2.19.76-3.39.77-.61,0-1.27,0-1.73-.35-.81-.61-.82-1.71-.39-2.67.35-.79,1-1.48,1.76-1.75.12-.04.24-.08.37-.1,1.38-.22,3.11.17,3.92,1.04.43.47.6,1.07.31,1.8Z"/>
        <path class="cls-19" d="M49.33,38.91c-.06.07-.13.13-.21.19-.86.71-2.19.76-3.39.77-.61,0-1.27,0-1.73-.35-.81-.61-.82-1.71-.39-2.67.09.16.22.31.42.45.46.31,1.08.42,1.66.37.37-.03.75-.12,1.11-.03.46.11.77.47,1.19.66.45.21,1.06.24,1.33.61,0,0,0,0,0,.01Z"/>
      </g>
      <g>
        <path class="cls-20" d="M66.69,33.58c-.15.38-.35.76-.65,1.07-.06.07-.13.13-.21.19-.86.71-2.19.76-3.39.77-.61,0-1.27,0-1.73-.35-.81-.61-.82-1.71-.39-2.67.35-.79,1-1.48,1.76-1.75.12-.04.24-.08.37-.1,1.38-.22,3.11.17,3.92,1.04.43.47.6,1.07.31,1.8Z"/>
        <path class="cls-19" d="M66.04,34.65c-.06.07-.13.13-.21.19-.86.71-2.19.76-3.39.77-.61,0-1.27,0-1.73-.35-.81-.61-.82-1.71-.39-2.67.09.16.22.31.42.45.46.31,1.08.42,1.66.37.37-.03.75-.12,1.11-.03.46.11.77.47,1.19.66.45.21,1.06.24,1.33.61,0,0,0,0,0,.01Z"/>
      </g>
      <g>
        <path class="cls-20" d="M61.66,35.17c-.15.38-.35.76-.65,1.07-.06.07-.13.13-.21.19-.86.71-2.19.76-3.39.77-.61,0-1.27,0-1.73-.35-.81-.61-.82-1.71-.39-2.67.35-.79,1-1.48,1.76-1.75.12-.04.24-.08.37-.1,1.38-.22,3.11.17,3.92,1.04.43.47.6,1.07.31,1.8Z"/>
        <path class="cls-19" d="M61.01,36.24c-.06.07-.13.13-.21.19-.86.71-2.19.76-3.39.77-.61,0-1.27,0-1.73-.35-.81-.61-.82-1.71-.39-2.67.09.16.22.31.42.45.46.31,1.08.42,1.66.37.37-.03.75-.12,1.11-.03.46.11.77.47,1.19.66.45.21,1.06.24,1.33.61,0,0,0,0,0,.01Z"/>
      </g>
      <rect class="cls-10" x="55.36" y="12.55" width=".63" height="24.57"/>
      <g>
        <path class="cls-7" d="M71.5,39.01c-.09.27-.24.52-.42.74-.22.26-.49.48-.77.67-1.08.7-2.42.97-3.73.96-1.31,0-2.61-.26-3.89-.51-.44-.09-.9-.18-1.28-.41-.25-.15-.46-.35-.69-.51-.46-.31-1.03-.48-1.45-.82-.06-.05-.12-.11-.18-.17-.76-.83-.31-2.17.45-2.97.88-.93,2.12-1.52,3.43-1.62.51-.04,1.03-.01,1.52-.13,1.64-.41,2.69-1.16,4.27-.18,1.32.81,2.59,2.27,2.82,3.78.06.4.06.82-.06,1.2Z"/>
        <path class="cls-3" d="M70.9,38.03c-.03.1-.1.18-.2.25h0c-.08.06-.19.11-.29.14-.17.05-.35.06-.52.04-.32-.03-.63-.17-.85-.39-.14-.14-.23-.3-.33-.47-.06-.1-.12-.21-.19-.31-.18-.3-.36-.61-.45-.94-.14-.54.14-1.17.62-1.35.13-.05.28-.06.44-.03.1.02.2.05.31.11.9.46,1.25,1.73,1.43,2.57.03.13.05.26.01.38Z"/>
        <path class="cls-7" d="M61.11,37.16c.4,0,.4-.53,0-.53s-.4.53,0,.53h0Z"/>
        <path class="cls-2" d="M61.35,36.23s0-.01-.01-.02c-.11-.17-.43-.17-.54,0,0,0,0,.01-.01.02-.12.18.03.42.28.42s.4-.23.28-.42h0Z"/>
        <path class="cls-2" d="M60.19,37.85c.29,0,.29-.38,0-.38s-.29.38,0,.38h0Z"/>
        <path class="cls-2" d="M61.68,38.39s0-.01-.01-.02c-.14-.19-.46-.19-.6,0,0,0,0,.01-.01.02-.15.2.04.46.31.46s.46-.26.31-.46h0Z"/>
        <path class="cls-2" d="M63.64,36.37c.3,0,.3-.4,0-.4s-.3.4,0,.4h0Z"/>
        <path class="cls-2" d="M64.34,39.42c.3,0,.3-.4,0-.4s-.3.4,0,.4h0Z"/>
        <path class="cls-2" d="M62.71,37.66s0,0-.01,0c.02,0,.05.02.07.03,0,0-.01,0-.02,0,.02.01.04.03.06.04,0,0,0,0,0,0,.02.02.03.04.05.05-.02-.02-.05-.06-.06-.07-.05-.04-.09-.05-.15-.07l.08.03s0,0,0,0c-.2-.1-.49.03-.48.23,0,.05.01.11.05.16.05.08.15.12.25.14.12.01.22-.02.31-.08.17-.12.08-.39-.13-.42h0Z"/>
        <path class="cls-2" d="M65.17,35.03c.35,0,.35-.45,0-.45s-.35.45,0,.45h0Z"/>
        <path class="cls-2" d="M62.49,35.26s-.02,0-.03,0c-.18-.05-.37.08-.37.24s.19.28.37.24c0,0,.02,0,.03,0,.11-.03.21-.12.21-.23,0-.11-.08-.2-.21-.23h0Z"/>
        <path class="cls-2" d="M64.59,37.72s0-.01-.01-.02c-.07-.12-.32-.12-.39,0,0,0,0,.01-.01.02-.04.07-.05.14,0,.2.04.06.12.1.21.1s.16-.04.21-.1c.05-.07.04-.14,0-.2h0Z"/>
        <path class="cls-2" d="M66.21,36.38c.38,0,.38-.5,0-.5s-.38.5,0,.5h0Z"/>
        <path class="cls-2" d="M66.94,37.48s-.01-.02-.02-.04c-.05-.09-.19-.15-.3-.15-.09,0-.18.03-.25.09-.15.13-.13.37.07.46.01,0,.03.01.04.02.13.06.3.05.4-.04.04-.04.07-.08.09-.12.03-.08,0-.15-.03-.22h0Z"/>
        <path class="cls-2" d="M67.7,39.4c.39,0,.39-.5,0-.5s-.39.5,0,.5h0Z"/>
        <path class="cls-2" d="M65.91,39.04c.26,0,.26-.35,0-.35s-.26.35,0,.35h0Z"/>
        <path class="cls-2" d="M66.21,40.74c.15,0,.28-.11.28-.23,0-.13-.12-.23-.28-.23-.15,0-.28.11-.28.23,0,.13.12.23.28.23h0Z"/>
        <path class="cls-2" d="M61.66,39.75s0,0,0,0c-.05.05-.05.16,0,.21,0,0,0,0,0,0,.04.04.07.07.13.09.06.02.12.03.18.01.11-.03.21-.12.2-.22,0-.09-.07-.17-.17-.21-.06-.02-.12-.03-.18-.01-.07.02-.12.06-.16.11h0Z"/>
        <path class="cls-2" d="M61.81,37.55c.26,0,.26-.35,0-.35s-.26.35,0,.35h0Z"/>
        <path class="cls-2" d="M64.86,36.16c.35,0,.35-.46,0-.46s-.35.46,0,.46h0Z"/>
        <path class="cls-2" d="M67.22,34.72c.36,0,.36-.47,0-.47s-.36.47,0,.47h0Z"/>
        <path class="cls-2" d="M67.52,36.87c.14,0,.27-.1.26-.22,0-.12-.11-.22-.26-.22-.14,0-.27.1-.26.22,0,.12.11.22.26.22h0Z"/>
        <path class="cls-2" d="M68.66,39.09c.28,0,.28-.37,0-.37s-.28.37,0,.37h0Z"/>
        <path class="cls-2" d="M70.27,39.49c.4,0,.4-.53,0-.53s-.4.53,0,.53h0Z"/>
        <path class="cls-2" d="M68.54,40.39h.02c.49.15.5-.64,0-.49h-.02c-.28.09-.28.41,0,.49h0Z"/>
        <path class="cls-2" d="M63.1,40.03s0,0,0,0c.05-.01.1-.02.14-.03,0,0,0,0,0,0,.05.01.1.02.15.03,0,0,0,0,0,0,.02.01.04.03.06.04-.02-.01-.05-.03-.07-.04-.12-.06-.26-.04-.37.04,0,0,0,0,0,0,.04-.02.09-.04.13-.06,0,0,0,0,0,0-.06.02-.11.04-.15.09-.04.05-.06.09-.06.15,0,.02,0,.06.01.07.02.08.09.14.17.17.1.03.18.02.27-.01.1-.04.15-.14.15-.22,0-.1-.06-.16-.14-.21-.08-.05-.2-.04-.28,0h0Z"/>
        <path class="cls-2" d="M63.61,36.94s-.01-.02-.02-.04c-.04-.07-.15-.12-.24-.12-.07,0-.14.02-.2.07-.12.1-.1.3.06.37.01,0,.03.01.04.02.1.05.24.04.32-.03.03-.03.05-.06.07-.1.02-.06,0-.12-.03-.17h0Z"/>
        <path class="cls-2" d="M64.95,37.25c.29,0,.29-.38,0-.38s-.29.38,0,.38h0Z"/>
        <path class="cls-2" d="M63.94,35.3c.32,0,.32-.42,0-.42s-.32.42,0,.42h0Z"/>
        <path class="cls-2" d="M62.11,36.79c.28,0,.28-.36,0-.36s-.28.36,0,.36h0Z"/>
        <path class="cls-2" d="M59.9,37.05s0-.01.01-.02c.05-.08.05-.16,0-.24-.05-.07-.14-.12-.24-.12s-.19.05-.24.12c-.05.08-.05.16,0,.24,0,0,0,.01.01.02.09.15.38.15.47,0h0Z"/>
        <path class="cls-2" d="M60.98,35.44c.35,0,.35-.45,0-.45s-.35.45,0,.45h0Z"/>
        <path class="cls-2" d="M67.57,35.3c.32,0,.33-.43,0-.43s-.33.43,0,.43h0Z"/>
        <path class="cls-2" d="M68.75,34.62c.33,0,.33-.43,0-.43s-.33.43,0,.43h0Z"/>
        <path class="cls-2" d="M67.74,38.17c.36,0,.36-.47,0-.47s-.36.47,0,.47h0Z"/>
        <path class="cls-2" d="M64.9,38.61c.35,0,.35-.46,0-.46s-.35.46,0,.46h0Z"/>
        <path class="cls-2" d="M62.37,38.99c.32,0,.32-.42,0-.42s-.32.42,0,.42h0Z"/>
        <path class="cls-17" d="M66.3,35.37c.31,0,.31-.4,0-.4s-.31.4,0,.4h0Z"/>
        <path class="cls-17" d="M67.09,35.92c.22,0,.22-.29,0-.29s-.22.29,0,.29h0Z"/>
        <path class="cls-17" d="M62.48,37.04c.15,0,.3-.11.29-.25,0-.13-.13-.25-.29-.25-.15,0-.3.11-.29.25,0,.13.13.25.29.25h0Z"/>
        <path class="cls-17" d="M63.33,35.05c.31,0,.31-.41,0-.41s-.31.41,0,.41h0Z"/>
        <path class="cls-17" d="M65.6,37.54c.31,0,.31-.4,0-.4s-.31.4,0,.4h0Z"/>
        <path class="cls-17" d="M64.21,37.01c.29,0,.29-.38,0-.38s-.29.38,0,.38h0Z"/>
        <path class="cls-17" d="M59.97,38.61c.35,0,.35-.45,0-.45s-.35.45,0,.45h0Z"/>
        <path class="cls-17" d="M60.45,36.96c.28,0,.28-.36,0-.36s-.28.36,0,.36h0Z"/>
        <path class="cls-17" d="M63.29,39.02c.23,0,.23-.3,0-.3s-.23.3,0,.3h0Z"/>
        <path class="cls-17" d="M65.25,39.97c.28,0,.28-.37,0-.37s-.28.37,0,.37h0Z"/>
        <path class="cls-17" d="M64.12,40.07s0,0,0,0,0,0,0,0h0Z"/>
        <path class="cls-17" d="M67.44,40.02c.24,0,.24-.31,0-.31s-.24.31,0,.31h0Z"/>
        <path class="cls-17" d="M66.74,39.06c.24,0,.24-.32,0-.32s-.24.32,0,.32h0Z"/>
        <path class="cls-17" d="M68.09,37.42c.31,0,.31-.4,0-.4s-.31.4,0,.4h0Z"/>
        <path class="cls-11" d="M70.71,38.28h0c-.08.06-.19.11-.29.14-.17.05-.35.06-.52.04-.32-.03-.63-.17-.85-.39-.14-.14-.23-.3-.33-.47-.06-.1-.12-.21-.19-.31-.18-.3-.36-.61-.45-.94-.14-.54.14-1.17.62-1.35.26.06.56.19.78.45.52.6.96,1.12,1.05,1.85.05.41.18.73.17.98Z"/>
        <path class="cls-24" d="M71.08,39.75c-.22.26-.49.48-.77.67-1.08.7-2.42.97-3.73.96-1.31,0-2.61-.26-3.89-.51-.44-.09-.9-.18-1.28-.41-.25-.15-.46-.35-.69-.51-.46-.31-1.03-.48-1.45-.82.57-.7,1.91.92,2.43,1.22.4.23.88.33,1.35.41,2.47.43,5.18.5,7.34-.69.22-.12.46-.26.71-.31Z"/>
        <path class="cls-13" d="M66.11,34.07c.21,0,.45.03.57.2-.26.11-.56.05-.84.05-.32,0-.64.09-.91.25-.22.13-.45.34-.71.29,0-.5,1.48-.77,1.9-.78Z"/>
      </g>
      <g>
        <path class="cls-7" d="M61.21,41.15c-.1.28-.27.53-.47.76-.24.26-.54.49-.87.68-1.21.73-2.72.99-4.19.99-1.47,0-2.93-.27-4.37-.53-.5-.09-1-.18-1.43-.42-.28-.15-.51-.36-.78-.53-.52-.32-1.16-.49-1.63-.85-.07-.05-.14-.11-.2-.17-.85-.86-.35-2.23.51-3.06.98-.95,2.38-1.56,3.84-1.67.57-.04,1.15-.01,1.71-.14,1.84-.42,3.02-1.19,4.8-.19,1.48.84,2.91,2.33,3.16,3.89.07.41.07.84-.07,1.24Z"/>
        <path class="cls-3" d="M60.54,40.15c-.04.11-.12.19-.22.26h0c-.09.06-.21.11-.32.14-.19.05-.39.06-.59.05-.36-.03-.71-.17-.95-.4-.15-.14-.26-.31-.37-.48-.07-.11-.14-.22-.21-.32-.2-.31-.4-.63-.5-.97-.15-.55.15-1.2.7-1.39.15-.05.32-.07.5-.03.11.02.23.06.34.11,1.01.47,1.41,1.78,1.61,2.65.03.13.06.27.01.39Z"/>
        <path class="cls-7" d="M49.55,39.26c.43,0,.43-.57,0-.57s-.43.57,0,.57h0Z"/>
        <path class="cls-2" d="M49.8,38.29s0-.01-.01-.02c-.13-.18-.45-.18-.58,0,0,0,0,.01-.01.02-.14.2.04.45.31.45s.44-.25.31-.45h0Z"/>
        <path class="cls-2" d="M48.52,39.97c.31,0,.31-.41,0-.41s-.31.41,0,.41h0Z"/>
        <path class="cls-2" d="M50.18,40.5l-.02-.02c-.07-.09-.18-.16-.32-.16s-.25.06-.32.16l-.02.02c-.08.1-.07.24,0,.33.07.1.2.16.34.16s.27-.06.34-.16c.07-.1.08-.24,0-.33h0Z"/>
        <path class="cls-2" d="M52.39,38.44c.33,0,.33-.43,0-.43s-.33.43,0,.43h0Z"/>
        <path class="cls-2" d="M53.17,41.59c.33,0,.33-.43,0-.43s-.33.43,0,.43h0Z"/>
        <path class="cls-2" d="M51.35,39.75s-.01,0-.02,0c.03,0,.05.02.08.03,0,0,0,0,0,0l.07.04s-.01,0-.02-.01c.02.02.04.04.05.06-.07-.1-.19-.16-.33-.16-.11,0-.24.05-.29.14-.04.07-.07.16-.03.24.04.1.13.19.25.21.07.01.14.01.21,0,.07-.02.12-.05.18-.09.09-.06.11-.18.08-.26-.03-.09-.12-.17-.22-.19h0Z"/>
        <path class="cls-2" d="M54.1,37.07c.37,0,.37-.49,0-.49s-.37.49,0,.49h0Z"/>
        <path class="cls-2" d="M51.1,37.28s-.02,0-.03,0c-.2-.05-.4.09-.4.25s.2.3.4.25c.01,0,.02,0,.03,0,.12-.03.23-.13.22-.25,0-.11-.09-.21-.22-.25h0Z"/>
        <path class="cls-2" d="M53.44,39.82v-.02c-.09-.13-.35-.13-.43,0v.02c-.05.07-.06.15-.01.22.05.07.13.11.22.11s.18-.04.22-.11c.05-.07.04-.15,0-.22h0Z"/>
        <path class="cls-2" d="M55.28,38.46c.41,0,.41-.53,0-.53s-.41.53,0,.53h0Z"/>
        <path class="cls-2" d="M56.08,39.57s-.01-.03-.02-.04c-.05-.09-.2-.16-.32-.16-.1,0-.19.03-.27.09-.07.06-.11.14-.11.22,0,.1.07.23.19.27.02,0,.03.01.05.02.07.03.15.05.23.04.08,0,.15-.03.21-.08.04-.04.07-.08.09-.13.03-.08,0-.16-.04-.23h0Z"/>
        <path class="cls-2" d="M56.94,41.56c.41,0,.41-.54,0-.54s-.41.54,0,.54h0Z"/>
        <path class="cls-2" d="M54.94,41.19c.28,0,.28-.37,0-.37s-.28.37,0,.37h0Z"/>
        <path class="cls-2" d="M55.28,42.95c.16,0,.31-.12.3-.25,0-.14-.13-.25-.3-.25-.16,0-.31.12-.3.25,0,.14.13.25.3.25h0Z"/>
        <path class="cls-2" d="M50.22,41.86s0,.01-.01.02c-.04.05-.08.1-.08.16,0,.06.03.11.08.16,0,0,0,.01.01.02.03.03.09.05.13.06.06.02.13,0,.19-.01.1-.04.19-.13.18-.23,0-.09-.06-.17-.15-.21-.1-.05-.27-.04-.36.04h0Z"/>
        <path class="cls-2" d="M50.33,39.66c.28,0,.28-.37,0-.37s-.28.37,0,.37h0Z"/>
        <path class="cls-2" d="M53.76,38.23c.38,0,.38-.5,0-.5s-.38.5,0,.5h0Z"/>
        <path class="cls-2" d="M56.41,36.75c.38,0,.38-.5,0-.5s-.38.5,0,.5h0Z"/>
        <path class="cls-2" d="M56.75,38.96c.15,0,.29-.11.28-.24,0-.13-.12-.24-.28-.24-.15,0-.29.11-.28.24,0,.13.12.24.28.24h0Z"/>
        <path class="cls-2" d="M58.02,41.24c.3,0,.3-.4,0-.4s-.3.4,0,.4h0Z"/>
        <path class="cls-2" d="M59.84,41.66c.43,0,.43-.57,0-.57s-.43.57,0,.57h0Z"/>
        <path class="cls-2" d="M57.89,42.59s.02,0,.03,0c.53.14.53-.68,0-.54,0,0-.02,0-.03,0-.31.08-.31.44,0,.52h0Z"/>
        <path class="cls-2" d="M51.79,42.19s0,0,0,0c.05-.01.1-.02.15-.04,0,0,0,0,0,0,.05.01.1.02.16.04,0,0,0,0,0,0,.02.01.04.03.06.04-.02-.01-.05-.04-.07-.05-.14-.06-.28-.04-.39.04,0,0,0,0,0,0,.02-.01.04-.03.06-.04,0,0,0,0,0,0-.1.04-.15.14-.15.23,0,.02,0,.06.01.08.02.06.08.13.15.16.07.03.17.05.25.03.08-.03.16-.06.2-.13.03-.04.05-.09.04-.14,0-.02,0-.05-.01-.08-.02-.07-.08-.11-.14-.16-.08-.05-.22-.04-.3,0h0Z"/>
        <path class="cls-2" d="M52.34,39.02s-.01-.03-.02-.04c-.09-.15-.34-.16-.47-.05s-.12.33.06.4c.02,0,.03.01.05.02.11.05.26.04.35-.04.09-.08.1-.19.04-.29h0Z"/>
        <path class="cls-2" d="M53.86,39.35c.31,0,.31-.41,0-.41s-.31.41,0,.41h0Z"/>
        <path class="cls-2" d="M52.73,37.34c.34,0,.34-.45,0-.45s-.34.45,0,.45h0Z"/>
        <path class="cls-2" d="M50.67,38.88c.3,0,.3-.39,0-.39s-.3.39,0,.39h0Z"/>
        <path class="cls-2" d="M48.18,39.14s0-.01.01-.02c.05-.08.06-.18,0-.26-.05-.08-.16-.13-.26-.13s-.21.05-.26.13c-.06.08-.05.18,0,.26,0,0,0,.01.01.02.1.16.4.16.5,0h0Z"/>
        <path class="cls-2" d="M49.4,37.48c.37,0,.37-.49,0-.49s-.37.49,0,.49h0Z"/>
        <path class="cls-2" d="M56.8,37.34c.35,0,.35-.46,0-.46s-.35.46,0,.46h0Z"/>
        <path class="cls-2" d="M58.12,36.64c.35,0,.36-.47,0-.47s-.36.47,0,.47h0Z"/>
        <path class="cls-2" d="M56.99,40.3c.38,0,.38-.5,0-.5s-.38.5,0,.5h0Z"/>
        <path class="cls-2" d="M53.81,40.75c.38,0,.38-.5,0-.5s-.38.5,0,.5h0Z"/>
        <path class="cls-2" d="M50.97,41.14c.34,0,.34-.45,0-.45s-.34.45,0,.45h0Z"/>
        <path class="cls-17" d="M55.38,37.41c.33,0,.33-.43,0-.43s-.33.43,0,.43h0Z"/>
        <path class="cls-17" d="M56.26,37.97c.24,0,.24-.31,0-.31s-.24.31,0,.31h0Z"/>
        <path class="cls-17" d="M51.09,39.14c.17,0,.32-.12.32-.27,0-.14-.14-.27-.32-.27-.17,0-.32.12-.32.27,0,.14.14.27.32.27h0Z"/>
        <path class="cls-17" d="M52.04,37.09c.34,0,.34-.44,0-.44s-.34.44,0,.44h0Z"/>
        <path class="cls-17" d="M54.59,39.65c.33,0,.33-.43,0-.43s-.33.43,0,.43h0Z"/>
        <path class="cls-17" d="M53.02,39.1c.31,0,.31-.41,0-.41s-.31.41,0,.41h0Z"/>
        <path class="cls-17" d="M48.27,40.75c.37,0,.37-.49,0-.49s-.37.49,0,.49h0Z"/>
        <path class="cls-17" d="M48.81,39.05c.3,0,.3-.39,0-.39s-.3.39,0,.39h0Z"/>
        <path class="cls-17" d="M52,41.16c.25,0,.25-.33,0-.33s-.25.33,0,.33h0Z"/>
        <path class="cls-17" d="M54.2,42.15c.3,0,.3-.4,0-.4s-.3.4,0,.4h0Z"/>
        <path class="cls-17" d="M52.93,42.25s0,0,0,0,0,0,0,0h0Z"/>
        <path class="cls-17" d="M56.65,42.2c.25,0,.25-.33,0-.33s-.25.33,0,.33h0Z"/>
        <path class="cls-17" d="M55.87,41.21c.26,0,.26-.34,0-.34s-.26.34,0,.34h0Z"/>
        <path class="cls-17" d="M57.39,39.52c.33,0,.33-.43,0-.43s-.33.43,0,.43h0Z"/>
        <path class="cls-11" d="M60.32,40.4h0c-.09.06-.21.11-.32.14-.19.05-.39.06-.59.05-.36-.03-.71-.17-.95-.4-.15-.14-.26-.31-.37-.48-.07-.11-.14-.22-.21-.32-.2-.31-.4-.63-.5-.97-.15-.55.15-1.2.7-1.39.3.06.63.2.87.46.59.62,1.08,1.16,1.18,1.9.06.42.21.75.19,1.01Z"/>
        <path class="cls-24" d="M60.74,41.91c-.24.26-.54.49-.87.68-1.21.73-2.72.99-4.19.99-1.47,0-2.93-.27-4.37-.53-.5-.09-1-.18-1.43-.42-.28-.15-.51-.36-.78-.53-.52-.32-1.16-.49-1.63-.85.64-.72,2.14.95,2.73,1.26.45.24.99.34,1.52.42,2.77.44,5.81.51,8.23-.71.25-.13.52-.27.8-.32Z"/>
        <path class="cls-13" d="M55.16,36.07c.24,0,.51.04.64.21-.29.12-.63.05-.95.05-.36,0-.72.09-1.02.25-.25.13-.5.35-.8.3,0-.51,1.66-.8,2.14-.81Z"/>
      </g>
      <g>
        <path class="cls-5" d="M72.19,43.33c-.09.25-.24.48-.42.69-.22.24-.49.45-.77.62-1.08.66-2.42.9-3.73.9-1.31,0-2.61-.24-3.9-.48-.44-.08-.9-.17-1.28-.38-.25-.14-.46-.33-.69-.48-.46-.29-1.03-.44-1.45-.77-.06-.05-.12-.1-.18-.16-.76-.78-.31-2.02.45-2.77.88-.86,2.12-1.41,3.43-1.51.51-.04,1.03,0,1.52-.12,1.64-.38,2.69-1.08,4.27-.17,1.32.76,2.59,2.11,2.82,3.52.06.37.06.76-.06,1.12Z"/>
        <path class="cls-2" d="M71.59,42.42c-.03.1-.1.17-.2.23h0c-.08.06-.19.1-.29.13-.17.05-.35.06-.52.04-.32-.03-.63-.16-.85-.36-.14-.13-.23-.28-.33-.44-.06-.1-.12-.2-.19-.29-.18-.28-.36-.57-.45-.88-.14-.5.14-1.09.62-1.26.13-.05.28-.06.44-.03.1.02.2.05.31.1.9.43,1.25,1.61,1.43,2.4.03.12.05.24.01.36Z"/>
        <path class="cls-7" d="M61.79,41.61c.39,0,.39-.51,0-.51s-.39.51,0,.51h0Z"/>
        <path class="cls-2" d="M62.02,40.74s0-.01-.01-.02c-.11-.17-.41-.17-.52,0,0,0,0,.01-.01.02-.12.18.03.4.27.4s.4-.23.27-.4h0Z"/>
        <path class="cls-2" d="M60.87,42.26c.28,0,.28-.37,0-.37s-.28.37,0,.37h0Z"/>
        <path class="cls-2" d="M62.35,42.75s0-.01-.01-.02c-.14-.18-.44-.18-.58,0,0,0,0,.01-.01.02-.15.19.05.45.3.45s.45-.25.3-.45h0Z"/>
        <path class="cls-2" d="M64.32,40.88c.29,0,.29-.38,0-.38s-.29.38,0,.38h0Z"/>
        <path class="cls-2" d="M65.02,43.72c.29,0,.29-.38,0-.38s-.29.38,0,.38h0Z"/>
        <path class="cls-2" d="M63.39,42.06s0,0-.01,0c.02,0,.05.02.07.03,0,0-.01,0-.02,0,.02.01.04.03.06.04,0,0,0,0,0,0,.02.02.03.04.05.05-.02-.02-.04-.05-.06-.07-.04-.04-.09-.05-.15-.07.02,0,.05.02.07.03,0,0,0,0,0,0-.09-.05-.21-.05-.31,0-.09.04-.16.14-.15.22,0,.05.01.1.05.15.05.07.14.12.24.13.12.01.21-.02.3-.08.08-.05.1-.16.07-.24-.03-.08-.11-.15-.2-.17h0Z"/>
        <path class="cls-2" d="M65.85,39.63c.33,0,.34-.44,0-.44s-.34.44,0,.44h0Z"/>
        <path class="cls-2" d="M63.17,39.83s-.02,0-.03,0c-.18-.04-.36.08-.36.23s.18.27.36.23c0,0,.02,0,.03,0,.11-.03.21-.12.2-.22,0-.1-.08-.19-.2-.22h0Z"/>
        <path class="cls-2" d="M65.26,42.12s0-.01-.01-.02c-.07-.12-.31-.12-.38,0,0,0,0,.01-.01.02-.04.06-.04.13,0,.2.04.06.12.1.2.1s.16-.04.2-.1c.04-.06.04-.13,0-.2h0Z"/>
        <path class="cls-2" d="M66.9,40.89c.37,0,.37-.48,0-.48s-.37.48,0,.48h0Z"/>
        <path class="cls-2" d="M67.61,41.9s-.01-.02-.02-.03c-.05-.09-.18-.15-.29-.14-.09,0-.17.03-.24.08-.15.12-.13.37.07.45.01,0,.03.01.04.02.12.05.29.05.39-.04.04-.03.07-.08.08-.12.03-.07,0-.14-.03-.21h0Z"/>
        <path class="cls-2" d="M68.38,43.7c.37,0,.37-.49,0-.49s-.37.49,0,.49h0Z"/>
        <path class="cls-2" d="M66.59,43.36c.25,0,.26-.33,0-.33s-.26.33,0,.33h0Z"/>
        <path class="cls-2" d="M66.9,44.96c.14,0,.27-.1.27-.23,0-.12-.12-.23-.27-.23-.14,0-.27.1-.27.23,0,.12.12.23.27.23h0Z"/>
        <path class="cls-2" d="M62.39,43.97s0,0-.01.01c-.09.09-.09.2,0,.29,0,0,0,0,.01.01.07.07.2.08.29.05.09-.03.17-.12.16-.2,0-.08-.05-.15-.13-.19-.09-.05-.25-.04-.32.03h0Z"/>
        <path class="cls-2" d="M62.49,41.98c.25,0,.26-.33,0-.33s-.26.33,0,.33h0Z"/>
        <path class="cls-2" d="M65.55,40.68c.34,0,.34-.45,0-.45s-.34.45,0,.45h0Z"/>
        <path class="cls-2" d="M67.9,39.34c.35,0,.35-.45,0-.45s-.35.45,0,.45h0Z"/>
        <path class="cls-2" d="M68.21,41.35c.13,0,.26-.1.25-.21,0-.12-.11-.21-.25-.21-.13,0-.26.1-.25.21,0,.12.11.21.25.21h0Z"/>
        <path class="cls-2" d="M69.35,43.41c.27,0,.27-.36,0-.36s-.27.36,0,.36h0Z"/>
        <path class="cls-2" d="M70.96,43.79c.39,0,.39-.51,0-.51s-.39.51,0,.51h0Z"/>
        <path class="cls-2" d="M69.22,44.63s.02,0,.02,0c.48.13.48-.62,0-.48,0,0-.02,0-.02,0-.27.08-.27.39,0,.47h0Z"/>
        <path class="cls-2" d="M63.79,44.27s0,0,0,0c.05-.01.09-.02.14-.03,0,0,0,0,0,0,.05.01.09.02.14.03.02.01.03.02.05.03-.06-.06-.19-.09-.28-.06-.02,0-.06.02-.08.03-.08.04-.14.12-.14.21,0,.06.03.14.09.18.08.05.15.08.24.07.09,0,.17-.05.21-.12.03-.05.05-.1.04-.16,0-.05-.03-.11-.08-.14-.05-.03-.09-.06-.15-.06-.06,0-.12,0-.17.03h0Z"/>
        <path class="cls-2" d="M64.28,41.4s-.01-.02-.02-.03c-.08-.14-.31-.14-.43-.05s-.1.29.05.36c.01,0,.03.01.04.02.1.04.23.04.31-.03.08-.08.09-.17.04-.26h0Z"/>
        <path class="cls-2" d="M65.63,41.69c.28,0,.28-.37,0-.37s-.28.37,0,.37h0Z"/>
        <path class="cls-2" d="M64.63,39.88c.31,0,.31-.4,0-.4s-.31.4,0,.4h0Z"/>
        <path class="cls-2" d="M62.79,41.27c.27,0,.27-.35,0-.35s-.27.35,0,.35h0Z"/>
        <path class="cls-2" d="M60.57,41.51s0-.01.01-.02c.05-.07.05-.16,0-.23-.05-.07-.14-.11-.24-.11s-.19.04-.24.11c-.05.07-.05.16,0,.23,0,0,0,.01.01.02.09.14.36.14.45,0h0Z"/>
        <path class="cls-2" d="M61.66,40.01c.33,0,.34-.44,0-.44s-.34.44,0,.44h0Z"/>
        <path class="cls-2" d="M68.25,39.88c.31,0,.31-.41,0-.41s-.31.41,0,.41h0Z"/>
        <path class="cls-2" d="M69.43,39.25c.32,0,.32-.42,0-.42s-.32.42,0,.42h0Z"/>
        <path class="cls-2" d="M68.43,42.56c.35,0,.35-.45,0-.45s-.35.45,0,.45h0Z"/>
        <path class="cls-2" d="M65.59,42.97c.34,0,.34-.45,0-.45s-.34.45,0,.45h0Z"/>
        <path class="cls-2" d="M63.06,43.32c.31,0,.31-.4,0-.4s-.31.4,0,.4h0Z"/>
        <path class="cls-17" d="M66.99,39.94c.3,0,.3-.39,0-.39s-.3.39,0,.39h0Z"/>
        <path class="cls-17" d="M67.77,40.45c.21,0,.21-.28,0-.28s-.21.28,0,.28h0Z"/>
        <path class="cls-17" d="M63.17,41.51c.15,0,.29-.11.28-.24,0-.13-.13-.24-.28-.24-.15,0-.29.11-.28.24,0,.13.13.24.28.24h0Z"/>
        <path class="cls-17" d="M64.02,39.65c.3,0,.3-.4,0-.4s-.3.4,0,.4h0Z"/>
        <path class="cls-17" d="M66.29,41.97c.3,0,.3-.39,0-.39s-.3.39,0,.39h0Z"/>
        <path class="cls-17" d="M64.89,41.47c.28,0,.28-.37,0-.37s-.28.37,0,.37h0Z"/>
        <path class="cls-17" d="M60.65,42.96c.33,0,.34-.44,0-.44s-.34.44,0,.44h0Z"/>
        <path class="cls-17" d="M61.13,41.42c.27,0,.27-.35,0-.35s-.27.35,0,.35h0Z"/>
        <path class="cls-17" d="M63.97,43.34c.22,0,.22-.29,0-.29s-.22.29,0,.29h0Z"/>
        <path class="cls-17" d="M65.94,44.23c.27,0,.27-.36,0-.36s-.27.36,0,.36h0Z"/>
        <path class="cls-17" d="M64.8,44.32s0,0,0,0,0,0,0,0h0Z"/>
        <path class="cls-17" d="M68.12,44.28c.23,0,.23-.3,0-.3s-.23.3,0,.3h0Z"/>
        <path class="cls-17" d="M67.42,43.39c.23,0,.23-.31,0-.31s-.23.31,0,.31h0Z"/>
        <path class="cls-17" d="M68.78,41.85c.3,0,.3-.39,0-.39s-.3.39,0,.39h0Z"/>
        <path class="cls-4" d="M71.39,42.65h0c-.08.06-.19.1-.29.13-.17.05-.35.06-.52.04-.32-.03-.63-.16-.85-.36-.14-.13-.23-.28-.33-.44-.06-.1-.12-.2-.19-.29-.18-.28-.36-.57-.45-.88-.14-.5.14-1.09.62-1.26.26.05.56.18.78.42.52.56.96,1.05,1.05,1.72.05.38.18.68.17.92Z"/>
        <path class="cls-4" d="M71.76,44.02c-.22.24-.49.45-.77.62-1.08.66-2.42.9-3.73.9-1.31,0-2.61-.24-3.9-.48-.44-.08-.9-.17-1.28-.38-.25-.14-.46-.33-.69-.48-.46-.29-1.03-.44-1.45-.77.57-.65,1.91.86,2.43,1.14.4.22.88.31,1.35.38,2.47.4,5.18.46,7.34-.64.22-.12.46-.25.71-.29Z"/>
        <path class="cls-13" d="M66.8,38.73c.21,0,.46.03.57.19-.26.11-.56.04-.85.04-.32,0-.64.08-.91.23-.22.12-.45.32-.71.27,0-.46,1.48-.72,1.9-.73Z"/>
      </g>
      <ellipse class="cls-10" cx="55.72" cy="7.43" rx="8.64" ry="7.43"/>
      <path class="cls-7" d="M51.51,7.1c-.14-.44-.24-.9-.14-1.34.11-.45.46-.88,1.01-1.08,1.02-.36,2.18.19,2.98.78.5.36.96.75,1.38,1.16.42-.62.93-1.21,1.51-1.75.39-.37.95-.75,1.57-.65.7.12.95.76.96,1.28.05,2.26-1.73,4.31-3.44,6.19-2.01,2.21-5.44-3.39-5.83-4.6Z"/>
    </g>
  </g>
</svg>