<?xml version="1.0" encoding="UTF-8"?>
<svg id="Layer_2" data-name="Layer 2" xmlns="http://www.w3.org/2000/svg" viewBox="0 0 8.16 11.11">
  <defs>
    <style>
      .cls-1 {
        fill: #524c2f;
        fill-rule: evenodd;
      }
    </style>
  </defs>
  <g id="Layer_1-2" data-name="Layer 1">
    <path class="cls-1" d="M1.41,4.24l.07.06.07.06.03.03s.02.03.02.05h0s-.04.2-.04.2l-.04.19-.04.19-.04.19-.04.19-.04.19-.04.19-.04.19-.04.19-.04.19-.04.19-.04.19-.04.19-.04.19-.04.19-.04.19-.04.19-.04.19-.04.19-.04.19-.04.19-.04.19-.04.19-.04.19-.04.19-.04.19-.04.19-.04.19-.04.19-.04.19-.03.15h0s0,.04,0,.04v.04s0,.06.01.09c.01.03.03.06.05.08.02.02.04.04.06.07.02.02.05.04.07.05.02.02.05.03.08.05.03.01.05.03.08.04l.09.04.09.03.09.03.09.03.1.02.1.02.1.02.1.02h0s.1.02.1.02l.1.02h.1s.11.03.11.03h.11s.11.02.11.02h.11s.11.02.11.02h.11s.11.02.11.02h.11s.11.01.11.01h.11s.11.01.11.01h.11s.11,0,.11,0h.11s.11,0,.11,0h.12s.12,0,.12,0h.12s.02,0,.02,0h.1s.12,0,.12,0h.12s.12,0,.12,0h.12s.12,0,.12,0h.12s.12-.01.12-.01h.12s.12-.01.12-.01h.12s.12-.02.12-.02h.13s.13-.02.13-.02h.13s.13-.03.13-.03l.13-.02.13-.02.12-.02h.01s.14-.03.14-.03l.14-.03c.05-.01.1-.03.15-.04.06-.02.11-.03.16-.05.06-.02.12-.05.18-.07.22-.1.34-.23.34-.37v-.03s0-.03-.01-.04h0s-.01-.07-.01-.07l-.02-.11-.02-.08s0-.02,0-.04c0-.01.02-.02.03-.02l.12-.03c.05-.01.1-.03.15-.04.06-.02.12-.04.17-.06.08-.03.15-.07.2-.11.12-.07.19-.16.25-.25.02-.03.03-.07.05-.1.02-.06.03-.12.04-.18,0-.04,0-.09,0-.14,0-.04,0-.08-.02-.12,0-.04-.02-.07-.02-.11l-.03-.11v-.03s-.03-.07-.03-.07l-.03-.11-.03-.11-.03-.11-.03-.11-.03-.11-.03-.11-.03-.11-.03-.11-.03-.11-.03-.11-.03-.11-.03-.11-.03-.11-.03-.11-.03-.11-.03-.11v-.04s-.03-.07-.03-.07l-.03-.11-.03-.11-.03-.11-.03-.11-.03-.11-.03-.11-.03-.11-.03-.11-.03-.11-.03-.11-.03-.11-.03-.11-.03-.11v-.06s-.03-.05-.03-.05l-.03-.1-.03-.1s-.02-.07-.04-.1c-.01-.03-.03-.06-.04-.09-.02-.03-.03-.06-.05-.08-.02-.03-.04-.05-.06-.07h0s-.04-.05-.06-.06c-.02-.02-.05-.04-.08-.05-.03-.01-.06-.03-.09-.04-.03,0-.07-.02-.1-.02-.04,0-.08,0-.12,0-.04,0-.07,0-.11.01h-.02s-.14.03-.14.03l-.14.03-.12.03s-.01,0-.02,0c-.02,0-.04-.02-.04-.04v-.04s-.03-.11-.03-.11h0s0-.04,0-.05c.2-.25.63-.82.89-1.17l.22-.29s.02-.04.03-.06h0s.03-.09.03-.13h0s0-.08-.03-.11c-.01-.03-.03-.05-.05-.08-.02-.02-.04-.04-.07-.06-.02-.02-.05-.03-.07-.05-.02-.02-.05-.03-.08-.04-.03-.01-.05-.03-.08-.04l-.09-.04-.09-.03-.09-.03-.1-.03-.1-.02-.1-.02-.1-.02-.09-.03v-.06s.42-.59.42-.59l.42-.59s.02-.04.03-.06h0s.02-.04.02-.06c0-.02,0-.04,0-.06,0-.03,0-.05-.01-.08,0-.03-.03-.06-.05-.08-.02-.02-.04-.04-.06-.07-.02-.02-.05-.04-.07-.05-.02-.02-.05-.03-.08-.05-.03-.01-.05-.03-.08-.04l-.09-.04-.09-.03-.09-.03-.1-.03-.1-.02-.1-.02-.1-.02h0s-.1-.02-.1-.02l-.1-.02h-.1s-.11-.03-.11-.03h-.11s-.11-.02-.11-.02h-.11s-.11-.02-.11-.02h-.11s-.11-.02-.11-.02h-.11s-.11-.01-.11-.01h-.11s-.11,0-.11,0h-.11s-.11,0-.11,0h-.12s-.12,0-.12,0h-.12s0,0,0,0h-.12s-.12,0-.12,0h-.12s-.12,0-.12,0h-.12s-.12,0-.12,0h-.12s-.12.01-.12.01h-.12s-.12.02-.12.02h-.13s-.13.02-.13.02h-.13s-.13.03-.13.03l-.13.02-.13.02-.12.02c-.63.11-1.02.3-1.02.55,0,.04,0,.08.03.11h0s.02.05.03.06l.21.3.05.08.05.08.05.08.05.08.05.08.05.08.05.08.05.08.05.08.05.08.05.08.03.05s.01.03,0,.04h0s-.01.02-.02.03h-.01s-.13.03-.13.03l-.14.03-.14.03c-.05.01-.1.03-.15.04l-.1.03s-.04.02-.06.03h0s-.04.03-.04.03l-.3.22-.3.22-.09.07h0s-.03.03-.05.04c-.03.03-.04.07-.04.11,0,.04,0,.08.02.11.01.02.03.04.05.06h.01s.07.07.07.07l.07.06.07.06.07.06.07.06.07.06.07.06.07.06.07.06.07.06.07.06.07.06.07.06.07.06.07.06.07.06.07.06.07.06.07.06h0ZM3.07,6.46c-.1.16-.2.32-.28.48-.05.1-.1.2-.13.3-.03.07-.05.15-.06.21-.01.06-.02.11-.02.16h0s0,.09,0,.13c0,.04.01.08.02.12,0,.04.02.07.03.11.01.03.02.07.03.1.01.03.03.06.04.09.01.03.03.06.05.08.02.03.03.05.05.08.02.02.04.05.06.07.02.02.04.05.06.07h0s.06.06.06.06c.02.02.05.04.07.06.02.02.05.04.07.05.03.02.05.03.08.05.03.01.05.03.08.04.03.01.06.02.09.03.03.01.06.02.09.03.03,0,.07.02.1.02.03,0,.07.01.11.01.03,0,.06,0,.1,0h.02s.08,0,.12,0c.05,0,.09-.01.14-.02.05-.01.11-.03.16-.05.07-.03.14-.06.2-.1.08-.05.15-.11.21-.17.12-.12.21-.25.27-.41.03-.07.05-.14.06-.21.01-.05.02-.11.02-.16v-.06s0-.05,0-.08c0-.04-.01-.08-.02-.12,0-.03-.02-.07-.03-.11-.01-.03-.02-.07-.03-.1l-.04-.09-.04-.09-.04-.09-.05-.09-.05-.08-.05-.08-.05-.08-.05-.08-.05-.08-.05-.08-.05-.08-.05-.08-.05-.08-.05-.08-.05-.08-.03-.04-.03-.04-.04-.05-.02-.02s-.04-.04-.07-.06c-.01-.01-.03-.02-.05-.03h0l-.03-.02s-.06-.02-.1-.02h-.03s-.06,0-.09,0c-.03,0-.05.02-.08.03-.05.03-.09.06-.13.11l-.06.09c-.11.15-.23.33-.35.51h0ZM3.19,7.02c.11-.2.25-.41.38-.6l.16-.23s.02-.02.04-.02h0s.02,0,.03.02l.03.05.05.08.05.08.05.08.05.08.05.08.05.08.05.08.05.08.05.08.05.08.05.08.04.09.04.09s.03.06.04.1c.01.04.02.07.03.1.01.04.02.08.02.12v.03s0,.08,0,.12c-.01.08-.04.15-.07.22-.04.08-.09.16-.16.22-.03.03-.06.06-.1.08-.06.05-.13.08-.21.11-.05.02-.1.03-.15.04-.04,0-.08,0-.12,0h0s-.07,0-.11,0c-.03,0-.07-.01-.1-.02-.03,0-.06-.02-.09-.03-.03-.01-.06-.03-.08-.04-.03-.01-.05-.03-.08-.05-.02-.02-.05-.04-.07-.06l-.03-.03-.03-.03s-.04-.05-.06-.07c-.02-.03-.03-.05-.05-.08-.02-.03-.03-.06-.04-.09-.01-.03-.02-.07-.03-.1,0-.04-.02-.08-.02-.12,0-.03,0-.05,0-.08,0-.02,0-.04,0-.06,0-.06.03-.13.06-.21.04-.1.09-.22.16-.33h0ZM1.82,5.3l.04-.19.04-.19.04-.19.04-.19.04-.18h0c0-.05,0-.09-.02-.13-.01-.03-.03-.05-.06-.07h0s-.07-.06-.07-.06l-.07-.06-.07-.06-.07-.06-.07-.06-.07-.06-.07-.06-.07-.06-.07-.06-.07-.06-.07-.06-.07-.06-.07-.06-.07-.06-.07-.06-.05-.04s-.01-.02-.02-.03c0,0,0-.02,0-.03,0-.02.02-.03.04-.03h.12s.09,0,.09,0c0,0,0,0,.01,0h0s.1.03.1.03l.1.02.1.02.1.02.1.02.1.02h.1s.11.03.11.03h.11s.11.02.11.02h.09s.01.01.01.01h.11s.11.02.11.02h.03s.03.01.04.02v.02s.07.08.07.08l.05.08.05.08.05.08.05.08.05.08.05.08.05.08.05.08.05.08.05.08.05.08.05.08.05.08.05.08.05.08.05.08.05.08.05.08.05.07.07.05s.04.01.07.01h0s0,0,0,0h0s0,0,0,0h.02s.11-.06.11-.06l.4-.56.7-.98h0s.02-.02.03-.02h.1s.13-.02.13-.02h.13s.13-.03.13-.03l.13-.02.13-.02.13-.02.11-.02h.03s.13-.03.13-.03h0s.03,0,.04.02c.01.02,0,.04,0,.05l-.15.2c-.22.29-.44.57-.52.67-.04.04-.05.1-.05.15v.02s.02.1.02.1l.02.11.02.11.02.11.02.11.02.11.02.11.02.11.02.11.02.11.02.11.02.11.02.11.02.11.02.11.02.11.02.11.02.11.02.11.02.11.02.11.02.11.02.11.02.11.02.11.02.11.02.11.02.11.02.11.02.11.02.11.02.11.02.11.02.11.02.11.02.11.02.11.02.11.02.11.02.11.02.11.02.11.02.11.02.11.02.11.02.11.02.11.02.11.02.11v.03s0,.03,0,.05c-.01.01-.03.02-.05,0h0s-.09-.03-.09-.03l-.1-.03-.1-.02-.1-.02-.1-.02h-.05s-.05-.02-.05-.02l-.1-.02-.1-.02h-.11s-.11-.03-.11-.03h-.11s-.11-.02-.11-.02h-.11s-.11-.02-.11-.02h-.11s-.11-.02-.11-.02h-.11s-.11-.01-.11-.01h-.11s-.11-.01-.11-.01h-.11s-.11,0-.11,0h-.11s-.11,0-.11,0h-.12s-.12,0-.12,0h-.07s-.04,0-.04,0h-.12s-.12,0-.12,0h-.12s-.12,0-.12,0h-.12s-.12,0-.12,0h-.12s-.12.01-.12.01h-.12s-.12.02-.12.02h-.12s-.13.02-.13.02h-.13s-.13.02-.13.02h-.13s-.13.03-.13.03l-.13.02-.13.02h-.05s-.08.02-.08.02l-.14.03c-.05.01-.1.02-.15.03-.05.01-.1.03-.15.04h-.02s-.03,0-.05,0c-.01,0-.02-.02-.02-.04h0s.04-.19.04-.19l.04-.19.04-.19.04-.19.04-.19.04-.19.04-.19.04-.19.04-.19.04-.19.04-.19.04-.19.04-.19.04-.19.04-.19.04-.19.04-.19.04-.19.04-.19.04-.19.04-.19.04-.19.04-.19.04-.19h0ZM4.1,9.99h.11s.11,0,.11,0h.11s.11,0,.11,0h.11s.11.01.11.01h.11s.11.01.11.01h.11s.11.02.11.02h.11s.11.02.11.02h.11s.11.02.11.02h.11s.1.03.1.03l.1.02h.07s.03.02.03.02l.1.02.1.02.1.02.1.02.1.02.1.02s.07.02.09.03c.02,0,.03.01.04.02.01,0,.02.02.02.03h0s-.07.04-.16.07c-.04.01-.09.02-.15.04l-.14.03-.14.03-.14.02h-.06s-.08.02-.08.02l-.13.02-.13.02-.13.02h-.13s-.13.03-.13.03h-.13s-.13.02-.13.02h-.12s-.12.02-.12.02h-.12s-.12.01-.12.01h-.12s-.12,0-.12,0h-.12s-.12,0-.12,0h-.12s-.12,0-.12,0h-.08s-.04,0-.04,0h-.12s-.12,0-.12,0h-.12s-.11,0-.11,0h-.11s-.11,0-.11,0h-.11s-.11-.01-.11-.01h-.11s-.11-.01-.11-.01h-.11s-.11-.02-.11-.02h-.11s-.11-.02-.11-.02h-.11s-.11-.02-.11-.02h-.11s-.1-.03-.1-.03l-.1-.02-.1-.02h-.02s-.08-.02-.08-.02l-.1-.02-.1-.02-.1-.02-.1-.02-.1-.02-.09-.03s-.07-.02-.09-.03c-.01,0-.02-.01-.02-.02h0s.01-.03.02-.03c.01,0,.03-.02.06-.02.04-.01.09-.03.15-.04l.14-.03.14-.03.14-.03.13-.02h0s.13-.02.13-.02l.13-.02.13-.02h.13s.13-.03.13-.03h.13s.13-.02.13-.02h.12s.12-.02.12-.02h.12s.12-.01.12-.01h.12s.12,0,.12,0h.12s.12,0,.12,0h.12s.12,0,.12,0h.12s.02,0,.02,0h.1s.12,0,.12,0h.12ZM3.19,3.66l-.05-.08-.05-.07h0s0-.04,0-.05c0-.02.03-.03.04-.02h.01s.11,0,.11,0h.11s.11,0,.11,0h.12s.12,0,.12,0h.07s.05,0,.05,0h.12s.12,0,.12,0h.12s.12,0,.12,0h.12s0,0,0,0c.02,0,.03,0,.04.02,0,.02,0,.03,0,.05l-.04.05-.62.87s-.02.02-.04.02-.03,0-.04-.02v-.02s-.07-.08-.07-.08l-.05-.08-.05-.08-.05-.08-.05-.08-.05-.08-.05-.08-.05-.08-.05-.08-.05-.08h0ZM6.18,4.97l.14-.03.14-.03h.07s.05-.02.07-.02c.04,0,.08,0,.1.02,0,0,.02.01.03.02.01.01.02.03.04.05.02.02.03.05.04.09.01.03.02.06.04.1l.03.1.03.1h0s.03.12.03.12l.03.11.03.11.03.11.03.11.03.11.03.11.03.11.03.11.03.11.03.11.03.11.03.11.03.11h0s.03.11.03.11l.03.11.03.11.03.11.03.11.03.11.03.11.03.11.03.11.03.11.03.11.03.11.03.11.03.11.03.11.03.11.03.11v.02s.03.09.03.09c0,.04.02.07.03.11,0,.04.01.08.02.12,0,.07,0,.13-.03.17h0s-.04.06-.07.09c-.05.04-.12.08-.22.12-.05.02-.1.04-.16.05-.04.01-.09.02-.15.04h-.04s-.05,0-.05-.02h0s-.02-.11-.02-.11l-.02-.11-.02-.11-.02-.11-.02-.11-.02-.11-.02-.11-.02-.11-.02-.11-.02-.11-.02-.11-.02-.11-.02-.11-.02-.11-.02-.11-.02-.11-.02-.11-.02-.11-.02-.11-.02-.11-.02-.11-.02-.11-.02-.11-.02-.11-.02-.11-.02-.11-.02-.11-.02-.11-.02-.11-.02-.11-.02-.11-.02-.11-.02-.11-.02-.11-.02-.11-.02-.11-.02-.11-.02-.11-.02-.11-.02-.11v-.04s0-.05.03-.06h.06ZM2.54,2.75l-.05-.08-.05-.08-.05-.08-.02-.03s-.01-.03,0-.05c0-.02.02-.03.04-.03h.08s.12-.02.12-.02h.12s.12-.02.12-.02h.12s.12-.01.12-.01h.12s.12,0,.12,0h.12s.12,0,.12,0h.12s.1,0,.1,0h.14s.12,0,.12,0h.12s.11,0,.11,0h.11s.11,0,.11,0h.11s.11.01.11.01h.11s.11.01.11.01h.11s.11.02.11.02h0s.03.01.04.03,0,.03,0,.05l-.06.09-.3.42s-.02.02-.04.02h-.03s-.12,0-.12,0h-.12s-.12.01-.12.01h-.12s-.12,0-.12,0h-.12s-.12,0-.12,0h-.12s-.03,0-.03,0h-.09s-.12,0-.12,0h-.12s-.11,0-.11,0h-.11s-.11,0-.11,0h-.11s-.11,0-.11,0h-.11s-.02,0-.02,0c-.01,0-.03,0-.04-.02l-.02-.03-.05-.08-.05-.08-.05-.08h0ZM3.18,1.98h-.12s-.12,0-.12,0h-.12s-.12.01-.12.01h-.12s-.12.02-.12.02h-.13s-.13.02-.13.02h-.11s0,.01,0,.01c0,0,0,0,0,0-.02,0-.03,0-.04-.02l-.03-.04-.05-.08-.05-.08-.05-.08-.05-.08-.05-.08-.05-.08-.05-.08-.05-.08-.05-.08v-.02s-.02-.04-.01-.05c.01-.02.03-.02.05-.02h.03s.09.02.09.02h0s.1.02.1.02l.1.02h.1s.11.03.11.03h.11s.11.02.11.02h.11s.11.02.11.02h.11s.11.02.11.02h.11s.11.01.11.01h.11s.11,0,.11,0h.11s.11,0,.11,0h.12s.12,0,.12,0h.11s0,0,0,0h.12s.12,0,.12,0h.12s.12,0,.12,0h.12s.12,0,.12,0h.12s.12-.01.12-.01h.12s.12-.02.12-.02h.13s.13-.02.13-.02h.13s.13-.03.13-.03l.13-.02.13-.02.11-.02h.02s.1-.02.1-.02c0,0,.02,0,.03,0,0,0,.02,0,.02.02.01.02.01.04,0,.05l-.21.3-.31.44s-.03.02-.04.02h-.02s-.11-.01-.11-.01h-.11s-.11-.02-.11-.02h-.11s-.11-.02-.11-.02h-.11s-.11-.01-.11-.01h-.11s-.11-.01-.11-.01h-.11s-.11,0-.11,0h-.11s-.12,0-.12,0h-.12s-.11,0-.11,0h-.12s-.12,0-.12,0h-.12s-.12,0-.12,0h-.12ZM2.12,2.97h-.1s-.11-.02-.11-.02h-.1s-.1-.03-.1-.03l-.1-.02-.1-.02-.1-.02-.1-.02-.1-.02h-.04s-.04-.02-.06-.02h-.03s0,0,0,0h-.08s-.02,0-.02,0c-.02,0-.04-.01-.05-.03,0,0,0-.02,0-.03,0,0,0-.02.02-.02h0s.09-.07.09-.07h.01s.1-.04.1-.04c.05-.01.1-.03.15-.04l.14-.03.14-.03.14-.02.13-.02h0s.03,0,.05.02l.02.03.05.08.05.08.05.08.05.08.04.06s0,.01,0,.02c0,.01,0,.02,0,.03,0,.02-.03.02-.04.02h0ZM3.41,1h-.11s-.11,0-.11,0h-.11s-.11,0-.11,0h-.11s-.11-.01-.11-.01h-.11s-.11-.02-.11-.02h-.11s-.11-.02-.11-.02h-.11s-.11-.02-.11-.02h-.11s-.1-.03-.1-.03l-.1-.02h-.03s-.07-.02-.07-.02l-.1-.02-.1-.02-.1-.02-.1-.02c-.07-.02-.12-.03-.16-.04-.01,0-.02,0-.02-.02l-.02-.02s.16-.05.34-.09l.14-.03.14-.02h.06s.08-.02.08-.02l.13-.02.13-.02.13-.02h.13s.13-.03.13-.03h.13s.12-.02.12-.02h.12s.12-.01.12-.01h.12s.12-.01.12-.01h.12s.12,0,.12,0h.12s.12,0,.12,0h.09s.02,0,.02,0h.12s.12,0,.12,0h.11s.11,0,.11,0h.11s.11,0,.11,0h.11s.11.01.11.01h.11s.11.01.11.01h.11s.11.02.11.02h.11s.11.02.11.02h.11s.11.03.11.03l.1.02.1.02h.02s.08.02.08.02l.1.02.1.02.1.02.1.02.1.02s.07.02.09.03h0s-.02.03-.02.03c0,0-.01.01-.02.02h0s-.08.02-.15.04l-.14.03-.14.03-.14.02h-.07s-.07.02-.07.02l-.13.02-.13.02-.13.02h-.13s-.13.03-.13.03h-.13s-.12.02-.12.02h-.12s-.12.01-.12.01h-.12s-.12.01-.12.01h-.12s-.12,0-.12,0h-.12s-.12,0-.12,0h-.1s-.02,0-.02,0h-.12s-.12,0-.12,0h-.11ZM5.39,2.9l.28-.4h.12s.1,0,.1,0l.1.02.1.02.1.02.1.02.1.02.1.02.1.02s.07.02.09.03c.02,0,.03.01.04.02l-.03.04s-.01.01-.02.02l-.06.02s-.09.02-.15.04l-.14.03-.14.03-.14.02h-.07s-.06.02-.06.02l-.13.02-.13.02-.13.02h-.08s-.03,0-.04,0v-.06h0Z"/>
  </g>
</svg>