<?xml version="1.0" encoding="UTF-8"?>
<svg id="Layer_2" data-name="Layer 2" xmlns="http://www.w3.org/2000/svg" xmlns:xlink="http://www.w3.org/1999/xlink" viewBox="0 0 62.56 80.52">
  <defs>
    <style>
      .cls-1 {
        fill: none;
      }

      .cls-2 {
        fill: #c98e58;
      }

      .cls-3 {
        fill: #d5d3d2;
      }

      .cls-4 {
        fill: #e4e3e3;
      }

      .cls-5 {
        fill: #f7f6f4;
      }

      .cls-6 {
        fill: #f9f7f5;
      }

      .cls-7 {
        fill: #e4c7ad;
      }

      .cls-8 {
        clip-path: url(#clippath-1);
      }

      .cls-9 {
        clip-path: url(#clippath-3);
      }

      .cls-10 {
        clip-path: url(#clippath-2);
      }

      .cls-11 {
        fill: #fbfaf9;
      }

      .cls-12 {
        fill: #f2f0ee;
      }

      .cls-13 {
        fill: #ddb896;
      }

      .cls-14 {
        fill: #daad8a;
      }

      .cls-15 {
        fill: #d5a67d;
      }

      .cls-16 {
        clip-path: url(#clippath);
      }
    </style>
    <clipPath id="clippath">
      <rect class="cls-1" y="1.26" width="62.18" height="79.25"/>
    </clipPath>
    <clipPath id="clippath-1">
      <rect class="cls-1" y="1.26" width="62.18" height="77.77"/>
    </clipPath>
    <clipPath id="clippath-2">
      <rect class="cls-1" width="62.56" height="19.24"/>
    </clipPath>
    <clipPath id="clippath-3">
      <rect class="cls-1" x="24.39" y="67.07" width=".91" height="13.37"/>
    </clipPath>
  </defs>
  <g id="Layer_1-2" data-name="Layer 1">
    <g>
      <g class="cls-16">
        <path class="cls-3" d="M61.83,14.63l-1.36,8.51-6.57,41.15-.77,4.81-.19,1.19-9.83,8.57-18.07,1.35-12.65-4.18-.65-1.75-3.28-8.73-.27-1.72L2.09,24.7.68,15.64c-.09-.59-.68-5.43-.68-6.02,0-2.3,1.23-.32,2.54-2.24C5.1,3.62,20.06,2.43,29.41,2.04c9.35-.4,23.51,2.24,28.53,3.56,5.8,1.53,3.88,9.03,3.88,9.03"/>
      </g>
      <g class="cls-8">
        <path class="cls-12" d="M61.83,14.63l-1.36,8.51-6.57,41.15-.77,4.81-9.52,7.97-18.82,1.35-13.06-4.15-3.28-8.73-.27-1.72L2.09,24.7.68,15.64c-.09-.59-.68-5.43-.68-6.02,0-2.3,1.23-.32,2.54-2.24C5.1,3.62,20.06,2.43,29.41,2.04c9.35-.4,23.51,2.24,28.53,3.56,5.8,1.53,3.88,9.03,3.88,9.03"/>
      </g>
      <path class="cls-15" d="M2.05,11.78l1.96,10.88,22.69,8.42,27.32-5.87,4.66-5.02,1.18-7.42-57.82-1"/>
      <path class="cls-2" d="M58.68,20.19l-6.17,41.15c-4.33,2.51-12.54,6.3-22.51,6.3-9.02,0-15.93-3.27-20.42-6.76L3.87,21.76c5.65,2.32,14.93,5.16,26.13,4.9,13.4-.31,22.51-2.84,28.68-6.47"/>
      <g class="cls-10">
        <path class="cls-12" d="M62.56,10.38c0,5.31-15.68,8.85-31.74,8.85S0,14.93,0,9.62,14.75,0,30.82,0s31.74,5.07,31.74,10.38"/>
      </g>
      <path class="cls-14" d="M59.87,10.31c0,4.85-14.33,8.09-29.01,8.09S2.69,14.47,2.69,9.62,16.18.83,30.86.83s29.01,4.63,29.01,9.49"/>
      <path class="cls-12" d="M36.51,6.08s2.1-1.49,4.13-.71-3.24,1.59-4.13,1.79-1.56.3-1.56.3c0,0-1.31-2.78,1.56-1.38"/>
      <path class="cls-12" d="M34.12,8.23s6.11-1.63,7.42-1.37c1.32.26.54,1.65-3.71,1.84s-5.75,1.12-5.75,1.12c0,0,0-1.01-1.49-1.52-1.49-.5-1.55-2.17,1.08-2.03,2.63.15,2.45,1.95,2.45,1.95"/>
      <path class="cls-12" d="M31.26,10.45s3.83-1.07,7.06-.99c3.22.09,4.63-1.31,6.96-.78,2.34.53-2.2,2.2-5.61,2.4s-9.41.01-10.13.61c0,0-.01-.85-5.29-1.3-5.28-.46-2.84-3.51-.41-3.5,2.43,0,.93.51,2.33,1.15,1.4.63,5.09,2.41,5.09,2.41"/>
      <path class="cls-12" d="M41.72,12.16s-11.32.12-12.71.48c0,0-5.54-1.47-8.43-1.74-2.89-.27-6.14-1.43-3.85-3.49,0,0-2.05-.31-2.6,1.4-.54,1.71,3.19,3.12,7.4,3.5s5.96.49,5.96,1.32c0,0,6.04-.76,8.32-.6,2.28.16,5.9-.86,5.9-.86"/>
      <path class="cls-12" d="M45.22,5.86s6.6-.62,10.45,2.26c3.85,2.89-5.24,5.29-5.24,5.29,0,0-11.91,1.05-16.14,1.23-4.22.18-6.75.04-7.49.62,0,0-.22-.96-4.52-.46s-15.64-2.21-15.71-5.05c-.06-2.7,4.07-4.79,13.07-5.32,9-.53,12.61-.95,15.8.7,0,0-1.45-.03-1.91.72-.46.75.02-1.17-3.53-1.28-3.55-.12-17.16,1.22-19.3,2.82-1.4,1.06-1.67,2.36,1.7,3.7,3.37,1.33,9.52,2.83,14.31,2.95,4.79.12,14.2.18,17.4-.36,3.2-.54,10.83-1.89,10.54-3.78-.29-1.89-.77-3.17-9.43-4.03"/>
      <path class="cls-12" d="M31.57,5.78s-6.96-1.04-11.08.94c-4.13,1.98-1.32,3.55.85,3.98,0,0-2.67-.95-2.26-2.19.41-1.24,3.45-2.18,5.89-2.25,2.44-.07,2.23.54,1.72,1.16-.52.62,2.35,1.19,2.35,1.19,0,0-1.77-.43-1.13-1.17.64-.74.16-1.41,3.66-1.67"/>
      <path class="cls-12" d="M42.65,11.13s5.58-.65,5.96-2.33c.37-1.68-3.13-2.47-3.13-2.47,0,0,3.26-.16,4.07,1.39.81,1.54-.83,3.47-5.15,3.84s-7.05.33-7.05.33l5.3-.75"/>
      <path class="cls-12" d="M11.68,62.93c-.13,0-.23-.1-.24-.23l-.19-7.27c-.08-2.94-1.12-5.24-3.11-6.83-1.48-1.18-2.94-1.5-2.96-1.51-.13-.03-.21-.15-.18-.28.03-.13.16-.21.28-.18.07.01,6.25,1.42,6.44,8.79l.19,7.27c0,.13-.1.24-.23.24h0"/>
      <path class="cls-12" d="M24.72,68.28h0c-.13,0-.23-.11-.23-.24.11-6.11-.27-11.61-.31-12.21-1.55-2.72-3.45-4.29-5.67-4.66-3.7-.62-7.06,2.31-7.09,2.34-.1.09-.25.08-.34-.02-.08-.1-.08-.25.02-.34.14-.13,3.56-3.11,7.48-2.45,2.38.4,4.41,2.06,6.04,4.94.02.03.03.07.03.1,0,.06.43,5.84.32,12.31,0,.13-.11.23-.24.23"/>
      <path class="cls-12" d="M42.64,66.02c-.13,0-.23-.1-.24-.23l-.25-9.83c-3.33-3.27-7.28-4.27-11.76-2.99-3.38.97-5.81,2.96-5.83,2.98-.1.08-.25.07-.34-.03-.08-.1-.07-.25.03-.34.1-.08,2.51-2.06,5.99-3.06,3.22-.93,7.97-1.13,12.31,3.18.04.04.07.1.07.16l.26,9.92c0,.13-.1.24-.23.24h0"/>
      <path class="cls-6" d="M19.04,74.24s12.95,2.41,24.48-1.53l-24.48,1.53"/>
      <path class="cls-12" d="M53.35,61.4h-.04c-.13-.03-.22-.15-.19-.28.5-2.88.58-7.06.46-8.37-.16-1.7-1.12-2.47-3.03-2.4-6.13.2-7.87,5.36-7.94,5.57-.04.13-.18.19-.3.15s-.19-.18-.15-.3c.02-.06,1.91-5.69,8.38-5.91,2.15-.07,3.34.88,3.52,2.83.12,1.33.04,5.57-.46,8.49-.02.12-.12.2-.23.2"/>
      <g class="cls-9">
        <path class="cls-3" d="M25.03,80.45c-.13,0-.23-.1-.24-.23l-.32-12.73c0-.13.1-.24.23-.25h0c.13,0,.23.1.24.23l.32,12.73c0,.13-.1.24-.23.24h0"/>
      </g>
      <path class="cls-3" d="M43.11,79.1c-.13,0-.23-.1-.23-.23l-.47-13.08c0-.13.1-.24.23-.25.13,0,.24.1.25.23l.47,13.08c0,.13-.1.24-.23.25h0"/>
      <path class="cls-3" d="M52.1,70.33h0c-.13,0-.23-.12-.23-.25l.4-8.74c0-.13.12-.23.25-.23.13,0,.23.12.23.25l-.41,8.74c0,.13-.11.23-.24.23"/>
      <path class="cls-3" d="M12.38,76.27c-.13,0-.23-.1-.24-.23l-.7-13.33c0-.13.09-.24.23-.25.13,0,.24.09.25.23l.7,13.33c0,.13-.09.24-.23.25h-.01"/>
      <path class="cls-3" d="M16.12,73.75s-.05,0-.07,0c-.17-.05-1.63-.54-1.7-1.38-.04-.45.3-.87,1.02-1.25h.03c.12-.06,12.56-4.39,32.76-1.98.48.06.76.23.84.53.18.77-1.39,1.92-1.88,2.25-.11.08-.26.05-.33-.06s-.05-.26.06-.33c.87-.6,1.76-1.44,1.68-1.74-.02-.06-.13-.14-.43-.17-19.77-2.36-32.01,1.76-32.53,1.94-.51.27-.77.55-.75.78.04.42.94.84,1.37.97.13.04.19.18.15.3-.03.1-.13.17-.23.17"/>
      <path class="cls-5" d="M20.56,77.08l-6.25-1.99-.92-11.69c1.91,1.08,4.09,2.04,6.53,2.78l.22,3.7c-3.05.61-4.71,1.19-4.75,1.21h-.03c-.72.4-1.06.82-1.02,1.27.08.85,1.54,1.33,1.7,1.38.03,0,.05,0,.07,0,.1,0,.19-.07.23-.17.04-.13-.03-.26-.15-.3-.43-.13-1.34-.55-1.37-.97-.02-.23.24-.5.75-.78.18-.06,1.77-.6,4.6-1.17l.22,3.8-1.35.08s.49.09,1.37.21l.16,2.63"/>
      <path class="cls-7" d="M17.56,25.71c-2.64-.46-5.07-1.06-7.26-1.7l-.59-7.5c1.62.48,3.39.91,5.29,1.27l2.13.51.43,7.41"/>
      <path class="cls-13" d="M19.92,66.19c-2.43-.74-4.61-1.7-6.53-2.78l-.85-10.74c1.11-.7,2.91-1.59,4.89-1.59.35,0,.7.03,1.06.09.19.03.37.07.56.12l.87,14.9M12.51,52.13l-2.21-28.11c2.19.64,4.62,1.24,7.26,1.7l1.46,25.07c-.15-.04-.3-.07-.45-.09-.39-.07-.77-.1-1.15-.1-1.98,0-3.75.82-4.91,1.53"/>
      <path class="cls-5" d="M15,17.79c-1.89-.37-3.67-.8-5.29-1.27l5.29,1.27"/>
      <path class="cls-5" d="M12.55,52.67l-.04-.54c1.16-.71,2.93-1.53,4.91-1.53.38,0,.76.03,1.15.1.15.03.3.05.45.09l.03.5c-.18-.05-.37-.09-.56-.12-.36-.06-.71-.09-1.06-.09-1.99,0-3.78.89-4.89,1.59"/>
      <path class="cls-11" d="M20.41,74.45c-.87-.12-1.37-.21-1.37-.21l1.35-.08.02.29"/>
      <path class="cls-4" d="M16.12,73.75s-.05,0-.07,0c-.17-.05-1.63-.54-1.7-1.38-.04-.45.3-.87,1.02-1.25h.03s1.7-.61,4.75-1.22l.03.48c-2.83.58-4.43,1.11-4.6,1.17-.51.27-.77.55-.75.78.04.42.94.84,1.37.97.13.04.19.18.15.3-.03.1-.13.17-.23.17"/>
    </g>
  </g>
</svg>