<?xml version="1.0" encoding="UTF-8"?>
<svg id="Layer_2" data-name="Layer 2" xmlns="http://www.w3.org/2000/svg" viewBox="0 0 65.24 78.36">
  <defs>
    <style>
      .cls-1 {
        fill: #93ab5a;
      }

      .cls-2 {
        fill: #40620f;
      }

      .cls-3 {
        fill: #a2d160;
      }

      .cls-4 {
        fill: #538717;
      }

      .cls-5 {
        fill: #d7e2ad;
      }

      .cls-6 {
        fill: #b9d180;
      }

      .cls-7 {
        fill: #cecdcc;
      }

      .cls-8 {
        fill: #6c9923;
      }

      .cls-9 {
        fill: #eef0e1;
      }

      .cls-10 {
        fill: #8fc13e;
      }
    </style>
  </defs>
  <g id="Layer_1-2" data-name="Layer 1">
    <g>
      <g>
        <path class="cls-2" d="M3.27,26.93s0,0,0,0c0,0,0,0,0,0,0,0,0,0,0,0Z"/>
        <path class="cls-2" d="M34.64,75.27s0,0-.01,0c0,0,0,0,.01,0Z"/>
        <path class="cls-2" d="M59.04,8.83s0,0,0,0c0,0,0,0,.01,0,0,0-.02-.01-.02-.02Z"/>
        <path class="cls-2" d="M59.01,8.81s.02.01.02.02c0,0,0,0,0,0,0,0-.02-.01-.03-.02Z"/>
        <path class="cls-2" d="M7.7,7.94s-.02,0-.03.01c0,0,.02,0,.03-.01Z"/>
        <path class="cls-2" d="M57.89,7.43s.02,0,.03.01c0,0-.02,0-.03-.01Z"/>
        <path class="cls-2" d="M7.38,7.42s-.01,0-.02,0c0,0,.01,0,.02,0Z"/>
        <path class="cls-2" d="M34.19,3.51s0,0,0,0c0,0,0,0,0,0,0,0,0,0-.01,0Z"/>
        <path class="cls-2" d="M31.03,3.51s0,0,0,0c0,0,0,0-.01,0,0,0,0,0,0,0Z"/>
        <path class="cls-2" d="M32.86,3.42h.01s0,0,0,0c0,0-.01,0-.02,0Z"/>
        <path class="cls-2" d="M32.36,3.42s0,0,.01,0c0,0-.01,0-.02,0,0,0,0,0,0,0Z"/>
        <path class="cls-2" d="M54.65,70.35c.31.02.63.04.94.05-.4.25-.81.47-1.22.69-.57.3-1.14.58-1.72.85-.57.27-1.14.55-1.72.81-.29.13-.57.26-.86.38-.3.12-.6.23-.91.34-.3.1-.59.2-.89.29-.3.09-.61.17-.91.25-.61.15-1.22.31-1.84.43-.62.12-1.23.24-1.86.32-.6.08-1.2.15-1.8.22-.61.08-1.22.15-1.83.24-.61.08-1.23.18-1.84.26-.59.08-1.17.17-1.76.24-.58.07-1.16.12-1.73.16,0,0-.02,0-.02,0,0,0-.01,0-.01,0-.34.02-.68.04-1.03.04-.19,0-.38,0-.58-.02-.15,0-.3-.02-.44-.04-.15.02-.29.03-.44.04-.53.03-1.07.01-1.6-.02,0,0-.01,0-.02,0,0,0-.02,0-.02,0-.58-.04-1.16-.09-1.74-.16-.59-.07-1.17-.16-1.76-.24-.61-.09-1.23-.18-1.84-.26-.61-.08-1.22-.16-1.83-.24-.6-.07-1.2-.14-1.8-.22-.62-.08-1.24-.2-1.86-.32-.62-.12-1.23-.27-1.84-.43-.3-.08-.61-.15-.91-.25-.3-.09-.6-.19-.89-.29-.31-.1-.61-.21-.91-.34-.29-.12-.58-.25-.86-.38-.58-.26-1.15-.53-1.72-.81-.58-.28-1.15-.56-1.72-.85-.55-.29-1.1-.59-1.61-.94-.24-.17-.47-.36-.68-.57-.1-.1-.18-.21-.21-.34-1.62-1.73-2.34-4-2.7-6.34.02-.05.03-.1.05-.14,0,0,0-.01,0-.02,0-.02.01-.03.02-.05,0-.02.01-.04.02-.06,0,0,0-.01,0-.02,0,0,0,0,0-.01.07-.21.16-.42.25-.62.06-.12.13-.24.2-.36.07-.1.14-.19.21-.28.05-.05.1-.1.16-.15.03-.02.06-.05.09-.07.06-.04.11-.07.17-.1.05-.02.1-.05.15-.07.04-.01.09-.02.13-.03.04,0,.09-.01.13-.02.06,0,.12,0,.18,0,.06,0,.12.01.19.02.06.01.12.03.18.05.06.02.11.04.17.07.06.03.11.06.16.09.06.04.12.09.18.13.09.08.17.17.26.25.11.13.22.27.32.41.1.16.2.33.29.49.2.41.37.83.53,1.25.18.44.35.89.55,1.32.29.62.61,1.22.94,1.82.16.28.31.56.47.85.16.3.32.6.49.89.17.29.35.58.54.85.19.27.38.53.6.77.21.24.43.47.67.69.26.24.54.47.85.65.3.17.62.3.94.4.32.09.65.17.98.19.15,0,.31,0,.46-.02.17-.03.34-.09.5-.16.29-.14.56-.33.83-.51,0,0,0,0,0,0,.22-.15.44-.3.66-.45.13-.09.27-.18.41-.25.09-.05.19-.08.29-.12.06-.02.13-.04.19-.05.07-.01.13-.02.2-.03.11,0,.22,0,.33,0,.09,0,.19.02.28.04.17.04.34.09.51.15.2.07.4.16.59.25.47.25.9.56,1.35.85.47.29.95.56,1.44.81.03.01.06.03.08.04-.01,0-.02-.01-.03-.02.12.06.25.12.38.18.62.28,1.27.5,1.94.63.67.12,1.35.2,2.03.22.14,0,.28,0,.41,0,.16,0,.33,0,.49,0,.44.03.88.03,1.32.04.4.01.79.02,1.19.02.1,0,.2,0,.3,0,.47,0,.95-.03,1.42-.04.46-.01.92,0,1.39,0,.24,0,.48,0,.72,0,.27-.02.53-.04.79-.07.48-.06.96-.15,1.43-.25.51-.1,1.01-.2,1.51-.31.22-.05.44-.1.66-.15.21-.05.43-.1.64-.15-.03,0-.06.02-.09.02.16.02.33.02.49.02.03,0,.05,0,.08,0,.28,0,.56-.03.83-.07.28-.04.56-.1.83-.18.27-.08.53-.17.8-.28.61-.24,1.19-.53,1.78-.82.58-.29,1.16-.58,1.77-.8.29-.1.58-.19.87-.25.03,0,.06-.01.09-.02.02,0,.05,0,.07-.01-.01,0-.03,0-.04,0,.36-.07.71-.11,1.07-.14.04,0,.08,0,.11,0,.56-.03,1.13-.03,1.69-.02.56.02,1.11.04,1.67.07.39.03.79.06,1.18.09Z"/>
        <path class="cls-9" d="M29.93,24.04s0,0,0,0c0,0,0,0,0,0,0,0,0,0,0,0Z"/>
        <path class="cls-9" d="M35.31,24.04s0,0,0,0c0,0,0,0,0,0,0,0,0,0,0,0Z"/>
        <path class="cls-9" d="M41.29,23.14s-.01,0-.02,0c0,0,.01,0,.02,0Z"/>
        <path class="cls-9" d="M63.12,14.43s0,.04,0,.06c0,0,0,0,0,0-.44.85-1.1,1.59-1.81,2.23-.49.45-1.02.85-1.57,1.23-.56.38-1.15.73-1.75,1.04-1.17.61-2.4,1.11-3.64,1.56-1.26.46-2.52.92-3.82,1.27-.63.17-1.27.31-1.9.45-.65.14-1.31.29-1.96.42-1.29.26-2.58.51-3.86.77-.53.11-1.06.23-1.6.33-.53.1-1.05.2-1.58.3-.65.12-1.3.24-1.95.33-.65.09-1.31.16-1.96.21-.32.03-.64.05-.97.06-.3.01-.59.02-.89.02-.17,0-.34,0-.52,0-.14,0-.28,0-.42,0,.14,0,.28,0,.42,0-.02,0-.04,0-.06,0h0c-.21,0-.43,0-.64,0h0c-.22,0-.43,0-.65,0h0s-.04,0-.06,0c-.17,0-.34,0-.52,0-.3,0-.59-.01-.89-.02-.32-.01-.64-.03-.97-.06-.65-.06-1.31-.13-1.96-.21-.65-.09-1.3-.2-1.95-.33-.53-.1-1.06-.2-1.58-.3-.53-.1-1.06-.22-1.6-.33-1.29-.26-2.58-.51-3.86-.77-.66-.13-1.31-.28-1.96-.42-.64-.14-1.27-.28-1.9-.45-1.3-.35-2.56-.81-3.82-1.27-1.24-.45-2.47-.95-3.64-1.56-.6-.31-1.19-.66-1.75-1.04-.55-.38-1.08-.78-1.57-1.23-.7-.63-1.36-1.37-1.8-2.21,0,0,0,0,0,0,0-.03,0-.06,0-.08,0-.12,0-.25-.01-.37,0-.19,0-.37.01-.55.01-.11.03-.22.07-.32,0-.12.01-.25.02-.37,0,0,0,0,0-.01,0,0,0-.01,0-.02,0,0,0,0,0,0,0,0,0-.02,0-.02,0,0,0,0,0,0,0-.11.02-.23.03-.34,0-.06,0-.12.02-.17,0-.07,0-.14.03-.21.03-.11.09-.22.19-.29.05-.04.13-.07.19-.04,0,0,0,0,.01,0,.08-.17.17-.33.26-.49.08-.13.16-.25.24-.38,0-.02.01-.03.02-.04.04-.09.11-.16.18-.23.02-.02.04-.04.06-.07.01-.02.02-.03.04-.04.2-.25.42-.48.65-.71.26-.27.54-.51.83-.74.27-.22.56-.43.84-.62,0,0,0,0,0,0h0s.02-.01.03-.02c0,0,0,0,.01,0,.49-.33.99-.64,1.5-.9,0,0,.01,0,.02-.01,0,0,.01,0,.02,0,.27-.14.55-.27.82-.4.28-.13.56-.24.85-.35.29-.11.57-.21.86-.31.28-.09.56-.17.83-.26.57-.17,1.13-.32,1.71-.47.62-.16,1.24-.26,1.87-.38.18-.03.36-.07.53-.1.28-.07.55-.14.83-.2.62-.15,1.25-.3,1.88-.43.65-.14,1.3-.27,1.96-.38.65-.11,1.31-.21,1.96-.32.66-.11,1.33-.22,1.99-.34.33-.06.66-.12.99-.18.32-.06.64-.12.96-.17.33-.05.66-.09,1-.13.31-.04.62-.08.93-.11.32-.04.65-.06.97-.09.34-.03.67-.06,1.01-.07.31-.02.63-.01.94-.02.32,0,.63,0,.94,0,.31.01.61.03.92.05.16,0,.31.02.47.03.16,0,.31-.02.47-.03.31-.02.61-.04.92-.05.31-.01.63-.01.94,0,.31,0,.63,0,.94.02.34.02.67.04,1.01.07.32.03.65.05.97.09.31.03.62.07.93.11.33.04.67.08,1,.13.32.05.64.11.96.17.33.06.66.12.99.18.66.12,1.32.23,1.99.34.65.11,1.31.21,1.96.32.66.11,1.31.24,1.96.38.63.13,1.25.28,1.88.43.28.07.55.13.83.2.18.03.36.06.53.1.62.12,1.25.22,1.87.38.57.15,1.14.3,1.71.47.28.08.56.16.83.26.29.1.58.2.86.31.29.11.57.22.85.35.28.13.55.26.82.4,0,0,.01,0,.02,0h.01s0,0,0,.01c.52.26,1.02.57,1.5.9,0,0,0,0,.01,0,.01,0,.02.01.03.02h0c.29.2.57.41.85.63.29.23.57.48.83.74.22.23.44.46.65.71.01.01.02.03.04.04.02.02.04.04.06.07.07.07.14.14.18.23,0,.01.01.03.02.04.09.12.17.25.24.38.1.16.19.32.26.49,0,0,0,0,.01,0,.06-.03.14,0,.19.04.1.07.16.17.19.29.02.07.02.14.03.21,0,.06.01.12.02.17,0,.11.02.23.03.34,0,0,0,.01,0,.02,0,0,0,.01,0,.02,0,0,0,.01,0,.02,0,.12.02.25.02.37.09.15.07.34.07.5,0,.2,0,.4,0,.59,0,.05,0,.1,0,.16Z"/>
        <path class="cls-3" d="M16.17,70.44s0,0,0,0c0,0,0,0,0,0,0,0,0,0,0,0Z"/>
        <path class="cls-3" d="M13.77,67.85s0,.01.01.02c0,0,0-.01-.01-.02Z"/>
        <path class="cls-3" d="M12.17,60.96s0,0,0,0c0,0,0,.01,0,.02,0,0,0-.01,0-.02Z"/>
        <path class="cls-3" d="M16.93,58.52s0,.02,0,.02c0,0,0,0,0,.01,0-.01,0-.02-.01-.04Z"/>
        <path class="cls-3" d="M17.49,58.3s0,0,0,0c0,0,0,.01,0,.02,0,0,0,0,0-.01Z"/>
        <path class="cls-3" d="M17.47,58.23s0,0,0,0c0,0,0,.02,0,.03,0,0,0-.01,0-.02Z"/>
        <path class="cls-3" d="M17.46,58.21s0,0,0,.01c0,0,0,0,0-.01Z"/>
        <path class="cls-3" d="M9.76,25.8s0,0,0,0c0,0,0,0,0,0,0,0,0,0,0,0,0,0,0,0,0,0Z"/>
        <path class="cls-3" d="M29.84,73.62s.03,0,.04,0c-.01,0-.03,0-.04,0Z"/>
        <path class="cls-3" d="M46.57,68.94s0-.01.01-.02c0,.01-.01.02-.02.03,0,0,0-.01.01-.02Z"/>
        <path class="cls-3" d="M46.04,68.64s-.01.02-.02.03c0,0,.01-.02.02-.03Z"/>
        <path class="cls-3" d="M23.57,60.96s0,.02,0,.03c0,0,0-.02,0-.03Z"/>
        <path class="cls-3" d="M23.58,60.79s0,.01,0,.02c0,0,0-.01,0-.02Z"/>
        <path class="cls-3" d="M28.15,37.88s0,.02,0,.02c0,0,0-.02,0-.02Z"/>
        <path class="cls-3" d="M52.62,60.46s0,0,0,0c0,0,0,0,0,0,0,0,0,0,0,0Z"/>
        <path class="cls-3" d="M53.04,52.06s0,.01,0,.02c0,0,0,0,0,0,0,0,0-.01,0-.02Z"/>
        <path class="cls-3" d="M53.06,49.72s0,0,0,.01c0,0,0,0,0-.01Z"/>
        <path class="cls-3" d="M53.66,49.68s0,0,0,.01c0,0,0,0,0-.01Z"/>
        <path class="cls-3" d="M53.66,49.64s0,0,0,0c0,0,0,0,0,0,0,0,0,0,0,0Z"/>
        <path class="cls-3" d="M49.01,58.5c0,.5,0,1-.02,1.5-.02.5-.06,1-.1,1.49-.04.5-.09,1.01-.16,1.51-.07.5-.16,1-.26,1.5-.04.19-.09.39-.14.58-.02.08-.05.16-.07.24-.03.09-.05.18-.08.27-.06.18-.12.37-.19.55-.08.2-.16.41-.25.61-.09.2-.18.39-.27.59-.09.19-.19.38-.3.57-.1.18-.2.36-.3.54-.04.08-.09.15-.14.22-.01.02-.03.04-.04.07-.02.04-.05.08-.07.12-.01.02-.02.04-.04.06,0,0,0,0,0,0,0,0,0,.01-.01.02,0,0,0,.01-.01.02-.02.02-.03.04-.05.07-.07.1-.14.2-.21.3,0-.01.01-.02.02-.03-.06.08-.12.17-.18.25-.07.1-.14.2-.22.3-.09.11-.19.23-.28.34-.08.1-.17.19-.26.28-.07.08-.14.15-.22.22-.09.09-.18.18-.28.26-.1.08-.19.17-.29.24-.11.09-.23.18-.35.26-.1.07-.21.14-.31.21-.1.07-.21.12-.31.19-.02.01-.04.02-.06.04-.08.04-.16.09-.24.13-.11.06-.23.12-.34.17-.23.1-.45.2-.69.28-.25.09-.5.17-.76.24-.03,0-.06.02-.09.02-.21.06-.43.1-.64.15-.22.05-.44.1-.66.15-.5.11-1.01.21-1.51.31-.47.09-.95.19-1.43.25-.26.03-.53.05-.79.07-.24.02-.48.01-.72,0-.46,0-.92-.02-1.39,0-.47.01-.95.04-1.42.04-.1,0-.2,0-.3,0-.4,0-.79,0-1.19-.02-.44-.01-.88-.02-1.32-.04-.04,0-.07,0-.11,0-.03,0-.07,0-.1,0-.26-.02-.51-.06-.76-.1-.22-.04-.44-.1-.65-.18-.05-.02-.09-.04-.14-.05,0,0,0,0,0,0-.05-.02-.09-.04-.14-.06-.05-.02-.09-.04-.14-.06-.05-.02-.09-.04-.14-.06-.04-.02-.08-.04-.12-.06-.04-.02-.07-.04-.11-.05-.02,0-.04-.02-.06-.03-.08-.04-.17-.08-.25-.13-.08-.04-.16-.08-.24-.13-.43-.23-.84-.5-1.24-.77-.41-.28-.81-.56-1.2-.87-.2-.16-.39-.32-.58-.49-.19-.18-.36-.36-.53-.56-.08-.09-.14-.18-.21-.27-.07-.09-.14-.19-.2-.3-.06-.11-.12-.22-.17-.34-.06-.12-.09-.25-.13-.37-.04-.11-.06-.23-.09-.35-.03-.13-.05-.25-.07-.38-.04-.23-.07-.47-.08-.71-.04-.48-.05-.97-.05-1.45,0-.42,0-.84.03-1.26.03-.43.06-.86.11-1.28.09-.8.2-1.6.26-2.4,0,0,0,0,0,0,0-.01,0-.02,0-.03,0,0,0,0,0,0,0-.05,0-.09,0-.13,0,0,0,0,0,0,0,0,0,0,0-.01,0,0,0,0,0,0,0,0,0-.02,0-.03,0,0,0,0,0,0,.08-1.18.05-2.37-.02-3.56-.05-.75-.12-1.49-.21-2.23-.09-.77-.23-1.54-.38-2.31-.1-.48-.22-.97-.34-1.45-.12-.46-.24-.92-.37-1.38-.14-.51-.27-1.01-.39-1.53-.11-.47-.21-.94-.28-1.41-.04-.25-.07-.5-.09-.75-.02-.26-.04-.52-.05-.79-.01-.25,0-.5,0-.75,0-.25.02-.5.04-.75.04-.49.12-.97.23-1.45.11-.48.27-.95.46-1.41.09-.23.2-.45.31-.67.12-.23.25-.46.39-.69.13-.22.28-.42.43-.62.06-.09.14-.17.21-.26.04-.05.09-.1.13-.14.04-.05.08-.09.13-.14.09-.09.17-.17.27-.25.1-.09.21-.17.32-.26.19-.14.39-.27.59-.39.09-.06.19-.11.29-.16.03-.01.06-.03.09-.04.18-.13.37-.24.56-.35.18-.1.36-.2.55-.28.18-.08.36-.13.55-.17.09-.02.19-.03.29-.03.12,0,.24,0,.35.04.06.02.13.07.18.13.04,0,.08.02.11.04.12.05.23.12.32.22.1.11.18.24.25.36.1.18.18.37.25.57,0,0,0,0,0,0,0,0,0,.02,0,.02,0,.02.01.04.02.06,0,.02.01.05.02.07,0,0,0,.02,0,.03,0,.01,0,.02,0,.03,0,.02,0,.03.01.05,0,.02.01.04.02.06,0,.03.01.05.02.08,0,.03.01.05.02.08,0,.02,0,.03.01.05,0,0,0,0,0,0,0,.02,0,.03.01.05,0,.02.01.05.02.07,0,.02,0,.05.01.07,0,.01,0,.03,0,.04,0,.01,0,.03,0,.04,0,.01,0,.03,0,.04,0,0,0,.01,0,.02,0,.01,0,.02,0,.04,0,.05.02.1.02.15,0,.01,0,.02,0,.04,0,.02,0,.04,0,.06,0,.01,0,.03,0,.04,0,.03,0,.05,0,.08,0,.03,0,.05,0,.08,0,.01,0,.02,0,.04,0,.01,0,.03,0,.04,0,.04,0,.09.01.13,0,.03,0,.05,0,.08,0,.02,0,.05,0,.07,0,0,0,0,0,0,0,.02,0,.05,0,.07,0,0,0,0,0,0,0,.05,0,.1,0,.15,0,.03,0,.07,0,.1,0,.03,0,.05,0,.08,0,.02,0,.03,0,.05,0,.06,0,.12,0,.18,0,0,0,.01,0,.02,0,.05,0,.11,0,.16,0,.03,0,.05,0,.08.03.96.01,1.93-.08,2.89-.18,1.97-.52,3.92-.69,5.89-.02.27-.04.54-.06.81-.03.45-.05.91-.06,1.36-.01.45,0,.9.03,1.35.03.38.06.75.11,1.13.05.38.11.75.18,1.13.05.22.09.43.15.65.06.22.12.44.19.66.06.17.12.34.19.5.03.07.06.15.09.22.04.09.09.18.13.26.07.12.13.24.21.35.08.12.17.24.27.35.07.07.13.14.21.21.07.06.14.11.21.17.07.05.14.09.22.13.05.02.11.05.16.07.06.02.12.04.18.05.04,0,.08.01.12.02.06,0,.12,0,.18,0,.04,0,.07,0,.1-.02.04,0,.08-.02.11-.03.05-.02.1-.04.15-.06.05-.03.09-.05.14-.08.04-.03.09-.07.13-.1.06-.05.11-.1.16-.16.06-.07.11-.13.16-.21.06-.09.11-.18.16-.28.04-.09.08-.18.11-.27,0,0,0,0,0,0,.05-.14.08-.27.11-.41.01-.08.03-.16.04-.23.01-.08.02-.17.03-.26.02-.26.02-.51.02-.77,0-.23-.02-.47-.03-.7-.04-.51-.09-1.01-.15-1.51-.05-.48-.1-.95-.14-1.43-.08-1-.12-2.01-.07-3.01.02-.54.06-1.08.09-1.61h0s0,0,0,0c0,0,0,0,0,0,0,0,0,0,0-.01.07-1.01.18-2.02.3-3.03.12-1.01.3-2.01.5-3,.2-.99.45-1.97.72-2.95.14-.5.29-1,.44-1.5.05-.18.11-.35.16-.53.02-.06.04-.11.05-.17.07-.24.15-.47.24-.71.04-.11.08-.22.12-.33.05-.13.09-.26.14-.39.03-.08.06-.15.08-.23.05-.14.11-.28.16-.42.03-.08.06-.15.09-.23,0,0,0-.01,0-.02.02-.04.04-.09.05-.13.01-.03.03-.07.04-.1.04-.09.08-.18.11-.27.02-.06.05-.12.07-.18,0,0,0-.01,0-.02.08-.18.15-.35.23-.53.22-.49.45-.97.69-1.45.12-.23.24-.47.36-.7.12-.22.24-.44.36-.65.05-.1.12-.19.17-.28.06-.09.12-.19.18-.28.08-.12.17-.24.25-.36.08-.12.17-.22.25-.34.06-.08.13-.16.2-.24.08-.09.15-.18.23-.27.09-.09.17-.19.26-.27.1-.1.2-.19.31-.29.1-.09.21-.18.32-.26.1-.08.21-.15.31-.22.21-.15.43-.26.65-.38.22-.11.44-.19.67-.28.27-.1.56-.15.84-.18.33-.03.65,0,.97.09.02,0,.05.01.07.02,0,0,0,0,0,0,.02,0,.05.01.07.02.02,0,.04.01.06.02.03.01.06.02.09.04.02,0,.03.01.05.02,0,0,0,0,0,0,.02,0,.04.02.06.02.02,0,.04.02.06.03.01,0,.03.01.04.02h.02s.02.02.03.03c.01,0,.03.02.04.02,0,0,0,0,.01,0,0,0,.01,0,.02.01.02,0,.03.02.05.03,0,0,.02,0,.02.01,0,0,.02.01.03.02.01,0,.02.01.03.02,0,0,.02.01.03.02.01,0,.02.02.04.02,0,0,0,0,.01,0,.01,0,.02.01.03.02.02.01.04.03.06.04.03.03.07.05.1.08.01,0,.02.02.04.03,0,0,0,0,0,0,.3.25.55.55.76.87.27.41.51.85.72,1.3.11.23.21.47.3.71.09.24.17.48.24.72.03.1.06.21.08.31.03.12.06.24.08.36.05.24.09.48.12.72.14,1,.2,2,.29,3,.08.98.2,1.95.35,2.92.07.44.14.88.21,1.32.08.45.16.89.25,1.34.05.24.1.48.15.72.06.26.12.52.19.78.12.5.26,1,.4,1.5.25.94.52,1.88.76,2.82.07.26.13.53.19.79.06.25.11.49.16.74.1.49.17.99.24,1.49.13.99.18,1.99.24,2.98.06,1.02.07,2.03.07,3.05,0,1,.02,2.01.03,3.01Z"/>
        <path class="cls-3" d="M19.45,67.02c0,.23,0,.46,0,.69-.02.25-.03.5-.06.75-.06.48-.15.96-.29,1.43-.05.17-.11.34-.17.51,0,0,0,0,0,.01,0,.02-.02.04-.02.06,0,.02-.02.05-.03.07,0,.01,0,.02-.01.03,0,.02-.02.04-.03.06,0,0,0,.01,0,.02,0,.02-.02.04-.03.06-.01.03-.03.05-.04.08-.01.02-.03.05-.04.07-.01.03-.03.05-.04.08-.01.02-.03.05-.04.07-.02.02-.03.05-.05.07-.02.02-.03.05-.05.07-.16.22-.33.41-.57.54-.11.06-.23.09-.35.09-.07,0-.15-.01-.22-.04-.02,0-.04-.02-.06-.03-.02,0-.05,0-.07,0-.02,0-.05,0-.07,0-.07,0-.13,0-.19-.02-.1-.02-.2-.05-.3-.09-.02,0-.05-.02-.07-.03-.02-.01-.04-.02-.07-.03-.01,0-.03-.01-.04-.02,0,0-.01,0-.02,0-.01,0-.02-.01-.04-.02,0,0-.01,0-.02-.01,0,0-.02-.01-.03-.02-.02,0-.03-.02-.05-.03-.02-.01-.04-.02-.05-.04-.04-.03-.09-.06-.13-.1-.23-.19-.43-.42-.62-.65-.26-.32-.51-.65-.74-1-.19-.29-.37-.58-.54-.88-.18-.31-.36-.62-.52-.94,0,0,0,0,0-.01,0-.02-.02-.03-.03-.05,0,0,0,.01,0,.02-.44-.87-.76-1.78-1.07-2.7-.15-.45-.29-.89-.42-1.34-.14-.45-.27-.91-.39-1.37-.09-.34-.17-.68-.24-1.03,0,0,0-.01,0-.02-.2-.96-.37-1.92-.49-2.88-.12-.97-.18-1.94-.25-2.91-.07-.97-.13-1.95-.24-2.92-.05-.5-.12-.99-.2-1.49-.07-.47-.15-.94-.24-1.41-.02-.09-.03-.17-.05-.26-.1-.49-.21-.97-.33-1.46-.11-.48-.24-.95-.36-1.43-.25-.96-.5-1.91-.75-2.87-.25-.96-.49-1.92-.71-2.88-.11-.5-.22-1-.31-1.5-.09-.46-.17-.93-.24-1.4-.13-.99-.22-1.98-.29-2.97-.07-.99-.14-1.99-.08-2.98.02-.4.05-.79.1-1.19.05-.42.1-.83.17-1.25.07-.41.15-.82.24-1.23.04-.17.08-.34.13-.51.03-.09.05-.19.08-.28.04-.11.08-.22.12-.34.04-.11.09-.22.13-.33.02-.04.04-.09.06-.13.03-.07.06-.14.09-.2.07-.13.14-.26.22-.38.16-.26.35-.49.58-.68.17-.14.4-.26.62-.28.11-.01.21-.02.32,0,.15.01.28.08.41.15.12.07.23.17.33.26.06.06.11.12.16.18.08.09.15.18.22.28.15.2.28.4.4.62.12.21.23.43.33.65.22.44.41.9.6,1.36.18.44.35.89.51,1.34.17.48.32.97.46,1.45.07.24.14.49.2.73.06.22.11.44.16.66.11.51.21,1.03.3,1.54.16.95.28,1.92.31,2.89.03,1,0,2-.03,3.01-.03.95-.06,1.9-.08,2.85-.01.48-.01.97,0,1.45,0,.25.01.5.02.75,0,.22.02.43.04.65.05.62.12,1.23.22,1.84.1.65.22,1.29.35,1.93.1.44.19.89.3,1.33.11.44.22.87.34,1.3.24.86.5,1.7.79,2.54.37,1.04.75,2.08,1.11,3.12,0,0,0,0,0,0,.02.05.03.09.05.14,0,0,0,.01,0,.02,0,.02.01.03.02.05,0,0,0,0,0,0,0,0,0,0,0,.01.01.03.02.06.03.1.33.94.64,1.89.92,2.85.28.94.52,1.89.71,2.85.09.47.15.94.2,1.41.05.5.08,1,.09,1.5Z"/>
        <path class="cls-3" d="M5.9,51.48c0,.34-.01.68-.04,1.01,0,.01,0,.03,0,.04-.02.31-.07.62-.13.93-.06.32-.14.64-.22.95-.17.63-.36,1.24-.55,1.86t0,0s0-.04,0-.06c-.01-.13-.03-.26-.04-.4-.04-.38-.07-.76-.11-1.14,0,0,0,0,0,0-.23-2.53-.45-5.06-.69-7.59-.05-.55-.09-1.11-.14-1.66,0,0,0,0,0,0-.02-.19-.03-.38-.05-.57-.01-.19-.03-.37-.04-.56-.04-.46-.07-.91-.11-1.37,0,0,0,0,0,0,0,0,0,0,0,0,.18.61.41,1.22.61,1.82.21.62.4,1.24.6,1.86.1.3.19.61.28.91.09.32.17.65.24.98.07.32.14.65.19.98.06.32.11.64.14.96.03.34.05.68.05,1.03Z"/>
        <path class="cls-3" d="M61.5,42.38h0c-.02.21-.04.42-.06.63-.01.11-.02.21-.03.32-.01.11-.02.21-.03.32-.01.13-.02.25-.03.38-.01.13-.02.25-.03.38-.02.31-.05.63-.07.94-.04.58-.08,1.17-.13,1.75-.09,1.13-.19,2.26-.31,3.39-.05.53-.11,1.06-.17,1.59-.06.57-.11,1.14-.15,1.71-.03.5-.06.99-.1,1.49-.04.49-.08.98-.14,1.47-.06.51-.12,1.02-.19,1.53-.06.51-.11,1.01-.16,1.52-.09.96-.15,1.92-.29,2.87-.12.79-.29,1.56-.5,2.33-.1.36-.2.72-.33,1.07-.15.42-.32.83-.52,1.22-.05.09-.09.18-.14.27,0,.02-.02.04-.03.05-.02.03-.03.05-.05.08-.01.02-.02.04-.04.06-.01.02-.03.05-.04.07-.02.04-.04.07-.07.11-.03.04-.05.09-.08.13,0,.01-.02.03-.03.04-.02.04-.05.07-.07.1,0,0-.01.01-.02.02h0c-.07,0-.15,0-.22,0-.39,0-.77-.05-1.16-.12-.39-.07-.78-.15-1.15-.28-.37-.13-.72-.29-1.06-.47-.15-.09-.3-.18-.45-.28-.17-.11-.32-.24-.47-.38-.16-.15-.31-.3-.42-.48-.11-.17-.2-.35-.28-.54-.08-.18-.13-.37-.19-.55-.12-.38-.2-.78-.25-1.17-.03-.2-.04-.39-.05-.59-.02-.21-.02-.42-.03-.63-.03-.81-.01-1.61.04-2.42.03-.4.06-.81.1-1.21.03-.39.07-.79.12-1.18.05-.43.11-.86.18-1.29.07-.41.14-.81.21-1.21.14-.8.25-1.6.33-2.41.03-.3.05-.6.08-.9,0,0,0,0,0,0,0,0,0,0,0,0,0,0,0-.01,0-.02,0,0,0,0,0-.01,0,0,0,0,0,0,.05-.77.07-1.55.02-2.32,0,0,0,0,0,0,0,0,0-.02,0-.02,0-.02,0-.05,0-.07,0-.04,0-.08,0-.12,0-.04,0-.08,0-.11,0,0,0,0,0,0,0-.01,0-.02,0-.04,0,0,0,.01,0,.02,0,0,0-.02,0-.02,0,0,0-.01,0-.02-.14-1.63-.35-3.25-.58-4.87-.12-.84-.24-1.68-.28-2.52-.04-.83,0-1.66.06-2.48.03-.4.07-.8.12-1.2.05-.43.12-.85.19-1.28.13-.81.34-1.61.58-2.39.12-.4.25-.8.38-1.19.13-.39.27-.78.43-1.15.08-.2.17-.39.27-.59.09-.18.19-.36.3-.53.23-.38.52-.72.86-1,.18-.15.38-.28.59-.38.24-.11.48-.19.74-.24.26-.05.54-.04.8,0,.26.05.51.15.73.3.3.21.54.5.73.81.22.36.41.73.59,1.1.18.37.32.76.46,1.15.13.36.24.74.34,1.11.11.4.22.81.31,1.22.04.2.08.4.12.6.04.23.08.46.12.69.12.79.19,1.58.25,2.38.07.85.14,1.69.23,2.53.04.32.08.64.13.96Z"/>
        <path class="cls-4" d="M13.12,68.92s0,0,0,0c0,0,0,0,0,0Z"/>
        <path class="cls-4" d="M5.73,62.69s0-.01,0-.02c0,.01,0,.03-.01.04,0,0,0-.01,0-.02Z"/>
        <path class="cls-4" d="M48.82,70.38s-.01,0-.02,0c0,0,.01,0,.02,0Z"/>
        <path class="cls-4" d="M48.91,70.36s-.01,0-.02,0c0,0,.01,0,.02,0Z"/>
        <path class="cls-4" d="M48.69,69.78s-.01,0-.02,0c0,0,.01,0,.02,0Z"/>
        <path class="cls-4" d="M49.97,69.61s-.02,0-.03,0c.01,0,.02,0,.03,0Z"/>
        <path class="cls-4" d="M19.45,67.71c.01-.23.02-.46,0-.69-.02-.5-.04-1-.09-1.5-.05-.47-.11-.95-.2-1.41-.19-.96-.43-1.91-.71-2.85-.28-.96-.59-1.9-.92-2.85-.01-.03-.02-.06-.03-.1,0,0,0,0,0-.01,0,0,0,0,0,0,0-.02-.01-.03-.02-.05,0,0,0-.01,0-.02-.02-.05-.03-.09-.05-.14,0,0,0,0,0,0-.36-1.04-.74-2.08-1.11-3.12-.29-.84-.55-1.69-.79-2.54-.12-.43-.24-.86-.34-1.3-.11-.44-.21-.89-.3-1.33-.13-.64-.25-1.28-.35-1.93-.1-.61-.16-1.22-.22-1.84-.01-.22-.03-.43-.04-.65,0-.25-.02-.5-.02-.75,0-.48,0-.97,0-1.45.02-.95.05-1.9.08-2.85.03-1,.05-2,.03-3.01-.02-.97-.15-1.93-.31-2.89-.09-.52-.19-1.03-.3-1.54-.05-.22-.1-.44-.16-.66-.06-.25-.13-.49-.2-.73-.15-.49-.3-.97-.46-1.45-.16-.45-.33-.9-.51-1.34-.19-.46-.38-.91-.6-1.36-.11-.22-.21-.44-.33-.65-.12-.22-.26-.42-.4-.62-.07-.1-.15-.19-.22-.28-.05-.06-.1-.12-.16-.18-.1-.1-.2-.2-.33-.26-.13-.07-.26-.13-.41-.15-.11-.01-.21,0-.32,0-.22.03-.45.14-.62.28-.23.19-.42.42-.58.68-.08.13-.15.26-.22.38-.03.06-.06.13-.09.2-.02.04-.04.09-.06.13-.04.11-.09.22-.13.33-.04.11-.08.22-.12.34-.03.09-.06.19-.08.28-.05.17-.09.34-.13.51-.09.41-.17.82-.24,1.23-.07.41-.12.83-.17,1.25-.05.4-.08.79-.1,1.19-.05.99.01,1.99.08,2.98.07.99.16,1.98.29,2.97.06.47.15.93.24,1.4.1.5.2,1,.31,1.5.22.96.46,1.92.71,2.88.25.96.5,1.91.75,2.87.12.48.25.95.36,1.43.12.48.22.97.33,1.46.02.09.03.17.05.26.09.47.17.94.24,1.41.07.49.14.99.2,1.49.11.97.17,1.94.24,2.92.07.97.13,1.94.25,2.91.12.97.29,1.93.49,2.88,0,0,0,.01,0,.02.07.34.15.69.24,1.03.12.46.25.91.39,1.37.14.45.27.9.42,1.34.3.92.63,1.83,1.07,2.7,0,0,0-.01,0-.02,0,.02.02.03.03.05,0,0,0,0,0,.01.16.32.34.63.52.94.17.3.35.59.54.88.23.35.47.68.74,1,.19.23.39.46.62.65.04.03.09.07.13.1.02.01.03.02.05.04.02.01.03.02.05.03,0,0,.02.01.03.02,0,0,.01,0,.02.01.01,0,.02.01.04.02,0,0,.01,0,.02,0,.01,0,.03.01.04.02.02.01.04.02.07.03.02.01.04.02.07.03.1.04.2.07.3.09.06.01.13.02.19.02.02,0,.05,0,.07,0,.02,0,.05,0,.07,0,.02.01.04.02.06.03.07.03.14.04.22.04.12,0,.25-.04.35-.09.24-.13.41-.33.57-.54.02-.02.03-.05.05-.07.02-.02.03-.05.05-.07.02-.02.03-.05.04-.07.02-.03.03-.05.04-.08.01-.02.03-.05.04-.07.01-.03.03-.05.04-.08.01-.02.02-.04.03-.06,0,0,0-.01,0-.02,0-.02.02-.04.03-.06,0-.01,0-.02.01-.03,0-.02.02-.05.03-.07,0-.02.02-.04.02-.06,0,0,0,0,0-.01.06-.17.12-.34.17-.51.14-.47.23-.95.29-1.43.03-.25.05-.5.06-.75ZM20.91,60.19c.24-.25.3-.61.25-.94-.02-.15-.06-.31-.09-.46-.04-.15-.07-.3-.11-.45-.08-.31-.18-.61-.3-.9-.12-.3-.25-.6-.43-.87-.08-.12-.16-.23-.26-.34-.15-.16-.34-.32-.56-.39-.03-.14-.15-.25-.3-.25-.29,0-.56.15-.73.38-.2.28-.28.64-.27.98,0,.3.09.59.21.87.11.28.24.55.38.82.14.27.29.54.45.79.09.14.19.27.3.4.16.19.36.37.59.46.12.05.25.08.37.08.04,0,.08,0,.12,0,.14-.02.28-.09.38-.19ZM33.65,36.57s.01-.02.02-.03c-.06.17-.11.35-.16.53-.15.5-.3,1-.44,1.5-.26.98-.51,1.96-.72,2.95-.2.99-.38,1.99-.5,3-.12,1.01-.24,2.02-.3,3.03,0,0,0,0,0,.01-.04.54-.07,1.07-.09,1.61-.05,1,0,2.01.07,3.01.03.48.09.95.14,1.43.05.5.11,1.01.15,1.51.01.23.03.47.03.7,0,.26,0,.51-.02.77,0,.08-.01.17-.03.26-.01.08-.03.16-.04.23-.03.14-.07.28-.11.41,0,0,0,0,0,0-.03.09-.07.18-.11.27-.05.09-.1.19-.16.28-.05.07-.1.14-.16.21-.05.06-.11.11-.16.16-.04.04-.09.07-.13.1-.04.03-.09.05-.14.08-.05.02-.1.04-.15.06-.04.01-.07.02-.11.03-.03,0-.07.01-.1.02-.06,0-.12,0-.18,0-.04,0-.08,0-.12-.02-.06-.01-.12-.03-.18-.05-.05-.02-.11-.05-.16-.07-.07-.04-.15-.08-.22-.13-.07-.05-.14-.11-.21-.17-.07-.07-.14-.14-.21-.21-.1-.11-.18-.23-.27-.35-.07-.12-.14-.23-.21-.35-.04-.09-.09-.18-.13-.26-.03-.07-.06-.14-.09-.22-.07-.16-.13-.33-.19-.5-.07-.22-.13-.44-.19-.66-.06-.21-.1-.43-.15-.65-.07-.37-.14-.75-.18-1.13-.05-.37-.08-.75-.11-1.13-.02-.45-.04-.9-.03-1.35.01-.46.03-.91.06-1.36.02-.27.04-.54.06-.81.17-1.97.51-3.92.69-5.89.09-.96.11-1.93.08-2.89,0-.03,0-.05,0-.08,0-.05,0-.11,0-.16,0,0,0-.01,0-.02,0-.06,0-.12,0-.18,0-.02,0-.03,0-.05,0-.03,0-.05,0-.08,0-.03,0-.07,0-.1,0-.05,0-.1,0-.15,0,0,0,0,0,0,0-.02,0-.05,0-.07,0,0,0,0,0,0,0-.02,0-.05,0-.07,0-.03,0-.05,0-.08,0-.04,0-.09-.01-.13,0-.01,0-.03,0-.04,0-.01,0-.02,0-.04,0-.03,0-.05,0-.08,0-.03,0-.05,0-.08,0-.01,0-.03,0-.04,0-.02,0-.04,0-.06,0-.01,0-.02,0-.04,0-.05-.01-.1-.02-.15,0-.01,0-.02,0-.04,0,0,0-.01,0-.02,0-.01,0-.03,0-.04,0-.01,0-.03,0-.04,0-.01,0-.03,0-.04,0-.02,0-.05-.01-.07,0-.02,0-.05-.02-.07,0-.02,0-.03-.01-.05,0,0,0,0,0,0,0-.02,0-.03-.01-.05,0-.03-.01-.05-.02-.08,0-.03-.01-.05-.02-.08,0-.02-.01-.04-.02-.06,0-.02,0-.03-.01-.05,0-.01,0-.02,0-.03,0,0,0-.02,0-.03,0-.02-.01-.05-.02-.07,0-.02-.01-.04-.02-.06,0,0,0-.02,0-.02,0,0,0,0,0,0-.07-.19-.15-.38-.25-.57-.07-.13-.15-.26-.25-.36-.09-.09-.2-.17-.32-.22-.04-.02-.07-.03-.11-.04-.05-.06-.13-.1-.18-.13-.11-.05-.23-.05-.35-.04-.1,0-.19.01-.29.03-.19.04-.38.09-.55.17-.19.08-.37.18-.55.28-.19.11-.38.23-.56.35-.03.01-.06.03-.09.04-.1.05-.2.1-.29.16-.2.12-.4.25-.59.39-.11.08-.21.17-.32.26-.09.08-.18.17-.27.25-.04.04-.08.09-.13.14-.04.05-.09.09-.13.14-.07.09-.14.17-.21.26-.15.2-.3.41-.43.62-.14.23-.27.45-.39.69-.11.22-.22.44-.31.67-.19.46-.35.93-.46,1.41-.11.48-.19.96-.23,1.45-.02.25-.04.5-.04.75,0,.25,0,.5,0,.75.01.26.03.52.05.79.02.25.06.5.09.75.07.47.17.95.28,1.41.12.51.25,1.02.39,1.53.12.46.25.92.37,1.38.12.48.23.96.34,1.45.15.77.28,1.53.38,2.31.09.74.16,1.49.21,2.23.07,1.18.1,2.37.02,3.56,0,0,0,0,0,0,0,0,0,.02,0,.03,0,0,0,0,0,0,0,0,0,0,0,.01,0,0,0,0,0,0,0,.04,0,.09,0,.13,0,0,0,0,0,0,0,.01,0,.02,0,.03,0,0,0,0,0,0-.06.8-.18,1.6-.26,2.4-.05.43-.08.85-.11,1.28-.03.42-.03.84-.03,1.26,0,.49.01.97.05,1.45.02.24.05.47.08.71.02.13.04.25.07.38.03.12.05.24.09.35.04.12.08.26.13.37.05.11.11.23.17.34.06.1.13.2.2.3.07.09.13.18.21.27.17.19.34.38.53.56.19.17.38.33.58.49.39.31.79.59,1.2.87.4.28.81.54,1.24.77.08.04.16.09.24.13.08.04.17.09.25.13.02,0,.04.02.06.03.04.02.07.04.11.05.04.02.08.04.12.06.05.02.09.04.14.06.05.02.09.04.14.06.05.02.09.04.14.06,0,0,0,0,0,0,.05.02.09.04.14.05.21.08.43.14.65.18.25.05.5.09.76.1.03,0,.07,0,.1,0,.04,0,.07,0,.11,0-.16,0-.33,0-.49,0-.14,0-.28,0-.41,0-.68-.02-1.36-.1-2.03-.22-.67-.12-1.32-.34-1.94-.63-.13-.06-.25-.12-.38-.18.01,0,.02.01.03.02-.03-.01-.06-.03-.08-.04-.49-.25-.97-.52-1.44-.81-.45-.28-.88-.6-1.35-.85-.19-.09-.39-.18-.59-.25-.17-.06-.34-.11-.51-.15-.09-.02-.19-.03-.28-.04-.11,0-.22,0-.33,0-.07,0-.13.02-.2.03-.07.02-.13.03-.19.05-.1.04-.19.07-.29.12-.14.08-.27.16-.41.25-.22.15-.44.3-.66.45,0,0,0,0,0,0-.27.18-.54.37-.83.51-.16.08-.32.13-.5.16-.15.03-.31.03-.46.02-.33-.01-.66-.09-.98-.19-.33-.1-.65-.22-.94-.4-.31-.18-.58-.41-.85-.65-.24-.22-.46-.45-.67-.69-.22-.25-.41-.51-.6-.77-.19-.28-.37-.56-.54-.85-.17-.29-.33-.59-.49-.89-.15-.28-.31-.56-.47-.85-.33-.6-.66-1.2-.94-1.82-.2-.43-.38-.88-.55-1.32-.17-.42-.34-.84-.53-1.25-.09-.17-.18-.33-.29-.49-.1-.14-.21-.28-.32-.41-.08-.09-.17-.17-.26-.25-.06-.05-.12-.09-.18-.13-.05-.03-.11-.06-.16-.09-.06-.03-.11-.05-.17-.07-.06-.02-.12-.03-.18-.05-.06,0-.12-.02-.19-.02-.06,0-.12,0-.18,0-.04,0-.09,0-.13.02-.04,0-.09.02-.13.03-.05.02-.1.04-.15.07-.06.03-.11.07-.17.1-.03.02-.06.05-.09.07-.05.05-.1.1-.16.15-.08.09-.14.18-.21.28-.07.12-.14.24-.2.36-.09.2-.18.41-.25.62,0,0,0,0,0,.01,0,0,0,.01,0,.02,0,.02-.01.04-.02.06,0,.02-.01.03-.02.05,0,0,0,.01,0,.02-.02.05-.03.1-.05.14-.02-.1-.03-.21-.05-.31-.02-.1-.03-.21-.04-.31-.02-.16-.04-.31-.06-.47,0-.05-.01-.1-.02-.16-.07-.63-.12-1.25-.17-1.87-.03-.26-.06-.53-.09-.79-.01-.11-.02-.22-.04-.32,0-.07-.01-.13-.02-.2-.02-.15-.03-.29-.05-.44-.02-.16-.03-.32-.05-.48-.01-.11-.02-.22-.03-.33-.03-.31-.06-.62-.09-.94.19-.62.38-1.24.55-1.86.08-.31.16-.63.22-.95.05-.31.11-.62.13-.93,0-.01,0-.03,0-.04.02-.34.04-.67.04-1.01,0-.34-.02-.68-.05-1.03-.03-.32-.08-.64-.14-.96-.06-.33-.12-.65-.19-.98-.07-.33-.15-.65-.24-.98-.08-.31-.18-.61-.28-.91-.2-.62-.39-1.24-.6-1.86-.2-.61-.43-1.21-.61-1.82,0,0,0,0,0,0-.08-1.12-.17-2.24-.25-3.35.14.34.27.68.39,1.03.07.2.13.39.2.59,0,.02.01.04.02.06,0,0,0,.01,0,.02,0,.01,0,.02.01.04,0,0,0,0,0,.01,0,.03.02.05.03.08.09.26.18.51.28.77.14.36.29.71.45,1.06.08.17.15.34.24.5.12.24.29.5.54.63.09.05.19.07.29.07.09,0,.19-.03.26-.09.07-.05.13-.11.17-.18.04-.07.08-.15.1-.24.06-.24.07-.5.07-.75,0-.38-.01-.76-.04-1.13-.03-.37-.07-.74-.13-1.11-.06-.39-.12-.79-.19-1.18-.13-.77-.23-1.55-.34-2.32-.1-.74-.21-1.48-.31-2.22-.1-.77-.19-1.54-.24-2.32-.03-.43-.04-.85-.05-1.28,0-.4.02-.79.04-1.19.02-.27.05-.54.08-.8.03-.25.08-.5.13-.74.06-.26.12-.51.2-.76.07-.24.15-.47.23-.71.14-.38.28-.76.46-1.13.1-.19.2-.37.32-.55.09-.12.18-.24.28-.36.11-.12.22-.23.34-.33.12-.1.24-.19.36-.28.16-.11.33-.2.5-.29.17-.08.35-.16.53-.22.14-.04.28-.08.42-.11.16-.03.31-.05.47-.06.16,0,.31,0,.47,0,.17.01.33.03.5.06.09.02.18.04.28.07.09.03.19.06.28.09.14.05.28.1.41.16.13.06.27.12.4.19.15.08.29.15.43.24.14.09.28.17.42.26.23.16.45.32.66.5.06.06.13.12.2.17.12.11.23.22.34.34.11.11.21.23.31.34.11.13.22.26.32.4.1.13.19.26.29.39.15.23.3.46.44.7.14.23.27.47.39.71.12.24.24.49.34.74.11.25.2.51.29.76.06.2.13.4.18.6.05.19.1.39.14.59.05.25.09.49.13.74.04.24.06.48.08.72.02.32.03.65.03.97,0,.34-.02.68-.04,1.02-.03.35-.06.69-.09,1.04-.03.33-.07.66-.11.99-.08.65-.16,1.31-.23,1.96-.09.8-.17,1.6-.24,2.4-.07.77-.11,1.54-.15,2.31-.02.4-.04.8-.06,1.2-.02.36-.03.73-.02,1.09.01.4.04.8.09,1.21.04.36.09.73.17,1.09.04.2.08.4.13.59.09.37.2.74.32,1.11.12.36.25.73.39,1.09.06.17.12.34.2.51.12.28.26.56.51.76.11.09.25.13.39.13.04,0,.08,0,.12-.01.17-.03.32-.14.43-.27.14-.17.24-.38.3-.6.02-.08.05-.15.07-.23.04-.2.08-.4.11-.6.02-.19.04-.39.05-.59.02-.38.02-.76,0-1.14-.03-.79-.07-1.57-.1-2.35-.02-.39-.03-.79-.05-1.18-.02-.37-.03-.75-.04-1.12,0-.39-.02-.78,0-1.17,0-.39.02-.77.04-1.16,0-.11.01-.22.02-.32,0,0,0-.01,0-.02,0,0,0,0,0,0,.02-.26.04-.52.07-.77.03-.28.08-.55.12-.83.05-.25.11-.51.18-.75.07-.25.15-.5.23-.74.08-.22.16-.43.25-.64.09-.21.19-.42.29-.63.06-.11.12-.23.19-.34.07-.12.14-.23.21-.34.13-.19.26-.37.4-.55.14-.17.28-.34.42-.51.13-.14.25-.28.39-.42.12-.12.25-.24.38-.36.16-.14.33-.27.51-.39,0,0,0,0,0,0,0,0,.01,0,.02-.01,0,0,0,0,0,0,.01,0,.03-.02.04-.03.03-.02.06-.04.08-.06,0,0,0,0,0,0,.24-.16.49-.3.75-.44.26-.12.52-.23.79-.33.13-.04.27-.09.41-.12.14-.04.29-.07.43-.1.23-.04.47-.07.7-.09.15,0,.29-.01.44-.02.15,0,.3,0,.45.01.15.01.29.02.43.04.14.02.29.05.43.07.15.03.3.07.45.11.14.04.28.08.42.13.15.06.29.12.43.18.08.04.15.08.23.13.07.05.13.1.2.15.06.06.12.11.17.17.06.07.11.14.16.22.05.08.1.17.14.25.04.09.08.18.12.28.07.2.12.4.17.61.08.4.14.81.23,1.21.05.21.1.41.17.6.07.19.17.39.3.55.12.15.25.28.41.39.1.07.22.14.35.16.09.01.2.02.29-.01.08-.03.16-.06.24-.1.16-.09.3-.21.45-.32.13-.11.25-.22.35-.34.12-.14.22-.3.31-.45.09-.16.19-.32.28-.48Z"/>
        <path class="cls-4" d="M62.73,27.66c0,.06,0,.12-.01.18,0,0,0,.02,0,.03,0,0,0,.02,0,.03,0,.01,0,.02,0,.03h0c0,.14-.02.28-.03.43-.02.29-.04.58-.07.87-.1,1.13-.23,2.26-.35,3.39-.06.57-.12,1.14-.18,1.71-.06.58-.11,1.17-.15,1.76-.09,1.37-.13,2.74-.23,4.11-.05.59-.1,1.17-.15,1.76-.01.14-.03.29-.04.43-.05-.32-.09-.64-.13-.96-.1-.84-.17-1.69-.23-2.53-.06-.79-.13-1.59-.25-2.38-.04-.23-.08-.46-.12-.69-.04-.2-.08-.4-.12-.6-.09-.41-.2-.82-.31-1.22-.1-.37-.21-.74-.34-1.11-.14-.39-.28-.78-.46-1.15-.18-.38-.37-.75-.59-1.1-.19-.31-.43-.59-.73-.81-.21-.15-.47-.26-.73-.3-.26-.05-.54-.06-.8,0-.26.05-.5.12-.74.24-.21.1-.41.23-.59.38-.34.29-.63.62-.86,1-.11.17-.21.35-.3.53-.09.2-.18.39-.27.59-.16.38-.3.77-.43,1.15-.14.39-.26.79-.38,1.19-.24.78-.45,1.58-.58,2.39-.07.43-.13.85-.19,1.28-.05.4-.09.8-.12,1.2-.07.83-.1,1.65-.06,2.48.04.85.16,1.68.28,2.52.23,1.62.43,3.24.58,4.87,0,0,0,.01,0,.02,0,0,0,.02,0,.02,0,0,0-.01,0-.02,0,.01,0,.02,0,.04,0,0,0,0,0,0,0,.04,0,.08,0,.11,0,.04,0,.08,0,.12,0,.02,0,.05,0,.07,0,0,0,.02,0,.02,0,0,0,0,0,0,.05.77.03,1.55-.02,2.32,0,0,0,0,0,0,0,0,0,0,0,.01,0,0,0,.01,0,.02,0,0,0,0,0,0,0,0,0,0,0,0-.02.3-.05.6-.08.9-.08.81-.19,1.61-.33,2.41-.07.4-.15.81-.21,1.21-.07.43-.13.86-.18,1.29-.05.39-.08.78-.12,1.18-.04.4-.07.81-.1,1.21-.06.81-.07,1.61-.04,2.42,0,.21.02.42.03.63.01.2.03.39.05.59.06.4.13.79.25,1.17.06.18.12.37.19.55.08.19.17.37.28.54.12.18.27.33.42.48.15.14.3.27.47.38.15.1.3.19.45.28.34.19.7.35,1.06.47.37.13.76.22,1.15.28.38.06.77.12,1.16.12.07,0,.14,0,.22,0-.01.01-.02.03-.03.04-.09.11-.18.22-.28.33-.18.2-.35.41-.53.6-.01.16-.11.28-.22.39-.06.06-.12.12-.19.18h0s-.09.08-.14.12c-.03.02-.06.05-.09.07-.03.02-.06.05-.09.07-.03.02-.06.04-.09.06,0,0,0,0,0,0-.03.02-.06.04-.09.06-.13.09-.26.17-.39.26-.31,0-.63-.03-.94-.05-.39-.03-.79-.06-1.18-.09-.56-.04-1.11-.06-1.67-.07-.56-.02-1.13-.01-1.69.02-.04,0-.08,0-.11,0-.36.03-.72.07-1.07.14.01,0,.03,0,.04,0-.02,0-.05,0-.07.01-.03,0-.06.01-.09.02-.3.06-.59.15-.87.25-.61.22-1.19.51-1.77.8-.59.29-1.17.58-1.78.82-.26.1-.53.19-.8.28-.27.08-.55.14-.83.18-.27.04-.55.07-.83.07-.03,0-.05,0-.08,0-.16,0-.33,0-.49-.02.03,0,.06-.02.09-.02.03,0,.06-.02.09-.02.26-.07.51-.15.76-.24.23-.08.46-.18.69-.28.12-.05.23-.11.34-.17.08-.04.16-.08.24-.13.02-.01.04-.02.06-.04.1-.06.21-.12.31-.19.1-.07.21-.14.31-.21.12-.08.23-.17.35-.26.1-.08.19-.16.29-.24.1-.08.19-.17.28-.26.08-.07.15-.14.22-.22.09-.09.18-.19.26-.28.09-.12.19-.23.28-.34.08-.1.15-.2.22-.3.06-.08.12-.16.18-.25,0,.01-.01.02-.02.03.07-.1.14-.2.21-.3.02-.02.03-.04.05-.07,0,0,0-.01.01-.02,0,0,0-.01.01-.02,0,0,0,0,0,0,.01-.02.03-.04.04-.06.02-.04.05-.08.07-.12.01-.02.03-.04.04-.07.05-.07.09-.15.14-.22.1-.18.21-.35.3-.54.1-.19.2-.38.3-.57.09-.2.18-.39.27-.59.09-.2.17-.4.25-.61.07-.18.13-.37.19-.55.03-.09.05-.18.08-.27.02-.08.05-.16.07-.24.05-.19.1-.39.14-.58.1-.5.2-.99.26-1.5.06-.5.12-1,.16-1.51.04-.5.08-1,.1-1.49.02-.5.03-1,.02-1.5,0-1-.02-2.01-.03-3.01,0-1.02,0-2.04-.07-3.05-.06-1-.11-1.99-.24-2.98-.06-.5-.13-1-.24-1.49-.05-.25-.1-.5-.16-.74-.06-.26-.13-.53-.19-.79-.24-.94-.51-1.88-.76-2.82-.14-.5-.27-1-.4-1.5-.06-.26-.13-.52-.19-.78-.05-.24-.1-.48-.15-.72-.09-.45-.17-.89-.25-1.34-.08-.44-.14-.88-.21-1.32-.15-.97-.27-1.94-.35-2.92-.08-1-.15-2.01-.29-3-.03-.24-.08-.48-.12-.72-.02-.12-.05-.24-.08-.36-.03-.1-.05-.21-.08-.31-.07-.24-.15-.48-.24-.72-.09-.24-.2-.48-.3-.71-.21-.45-.45-.88-.72-1.3-.21-.32-.46-.62-.76-.87.01,0,.02,0,.03,0,.17.04.33.08.49.14.15.06.31.12.46.19-.01,0-.02-.01-.04-.02.11.06.22.11.33.17.1.06.2.12.3.19.15.11.29.22.43.34.1.09.19.18.28.28.12.14.23.28.34.43.05.08.11.16.16.24.05.08.09.17.14.25.06.12.12.24.17.36.05.13.1.26.15.39.09.28.18.57.25.86.07.3.14.59.21.89,0,.04.02.07.02.11,0,.03.01.06.02.09.11.54.2,1.08.3,1.62.11.54.23,1.09.36,1.63.15.64.3,1.28.47,1.92.17.63.34,1.25.47,1.89.07.35.14.71.21,1.06,0,.03.01.05.02.08,0,.01,0,.02,0,.04.07.35.15.71.23,1.06.04.17.08.34.12.51.05.21.11.42.24.59.1.13.25.2.4.2.03,0,.07,0,.1,0,.15-.03.27-.12.36-.23.13-.15.23-.33.3-.52.12-.3.21-.62.26-.94.1-.65.08-1.3.03-1.95h0s0-.02,0-.02c0-.02,0-.04,0-.06,0,0,0-.02,0-.03h0s0-.01,0-.02h0s0-.03,0-.04c0,0,0,0,0-.01,0,0,0,0,0,0,0,0,0,0,0,0h0c0-.08-.01-.16-.02-.24,0-.07,0-.14-.01-.21,0,0,0-.01,0-.02v-.02c0-.07-.01-.14-.02-.22,0-.1-.01-.2-.02-.3,0,0,0,.02,0,.02-.05-.78-.07-1.56-.03-2.34.02-.28.05-.57.09-.85.04-.3.09-.59.15-.89,0,.01,0,.03,0,.04.02-.1.04-.21.06-.31.09-.44.21-.87.35-1.3.06-.16.12-.32.18-.48.07-.16.15-.33.22-.49.04-.08.08-.15.12-.23.25-.48.53-.94.83-1.4.21-.3.42-.59.65-.87.16-.18.33-.35.51-.51.21-.18.42-.35.65-.51.13-.08.26-.16.39-.23.19-.09.38-.17.58-.25.1-.03.2-.06.31-.09.09-.02.19-.03.28-.04.13,0,.25,0,.38,0,.17.02.33.04.5.07.43.09.85.22,1.26.37.25.09.51.19.76.28.27.1.54.19.83.25.29.06.59.09.88.08.17,0,.34-.02.52-.03.07,0,.14-.02.2-.03.07-.01.15-.02.22-.03-.01,0-.03,0-.04,0,.22-.04.43-.09.64-.14.17-.04.34-.09.51-.15Z"/>
        <path class="cls-10" d="M18.54,41.84s0,0,0,.01c0,0,0,0,0-.01Z"/>
        <path class="cls-10" d="M19.16,41.52s0,0,0,0c0,0,0,.02,0,.03,0,0,0-.01,0-.02Z"/>
        <path class="cls-10" d="M4.15,41.24s0,0,0,.01c0,0,0,0,0-.01Z"/>
        <path class="cls-10" d="M4.14,41.21s0,.01,0,.02c0,0,0-.01,0-.02Z"/>
        <path class="cls-10" d="M50.81,38.9s0-.01,0-.02c0,0,0,.02,0,.02,0,0,0,0,0,0Z"/>
        <path class="cls-10" d="M50.21,38.88s0,0,0,.01c0,0,0,0,0-.01Z"/>
        <path class="cls-10" d="M50.81,38.8s0,0,0-.01c0,0,0,.02,0,.03,0,0,0-.01,0-.02Z"/>
        <path class="cls-10" d="M50.8,38.73s0,.02,0,.03c0,0,0-.02,0-.03Z"/>
        <path class="cls-10" d="M50.77,38.24s0,0,0-.01c0,0,0,.02,0,.02,0,0,0,0,0-.01Z"/>
        <path class="cls-10" d="M50.13,37.74h0s0,0,0,0c0,0,0,0,0,0Z"/>
        <path class="cls-10" d="M50.35,33.53s0,.02,0,.03c0-.01,0-.02,0-.03Z"/>
        <path class="cls-10" d="M46.92,31.97s0,0,0,.02c0,0,0,0,0-.02Z"/>
        <path class="cls-10" d="M47.5,31.78s0,.02,0,.03c0-.01,0-.02,0-.03Z"/>
        <path class="cls-10" d="M20.22,56.57s.01.02.02.03c0,0-.01-.02-.02-.03Z"/>
        <path class="cls-10" d="M3.76,38.88s0,0,0-.01c0,0,0,.02,0,.03,0,0,0-.01,0-.02Z"/>
        <path class="cls-10" d="M3.76,38.86s0,0,0,0c0,0,0,0,0,0Z"/>
        <path class="cls-8" d="M63.12,14.6c0,.05,0,.11,0,.16,0,.72-.02,1.43-.03,2.15-.02,1.17-.05,2.33-.08,3.5-.02.62-.03,1.23-.05,1.85-.01.58-.02,1.15-.04,1.73-.03,1.01-.09,2.01-.16,3.02h0c0,.12-.02.24-.02.36,0,.1-.01.2-.02.29h0c-.17.05-.34.1-.51.15-.21.05-.43.1-.64.14.01,0,.03,0,.04,0-.07.01-.15.02-.22.03-.07,0-.14.02-.2.03-.17.02-.34.03-.52.03-.29,0-.59-.02-.88-.08-.28-.06-.55-.16-.83-.25-.25-.09-.51-.19-.76-.28-.41-.14-.83-.27-1.26-.37-.17-.03-.33-.05-.5-.07-.13,0-.25,0-.38,0-.1.01-.19.02-.28.04-.1.03-.21.05-.31.09-.2.07-.39.16-.58.25-.13.07-.26.15-.39.23-.23.16-.44.33-.65.51-.18.16-.34.33-.51.51-.24.28-.45.57-.65.87-.3.45-.58.91-.83,1.4-.04.08-.08.15-.12.23-.08.16-.15.33-.22.49-.07.16-.13.32-.18.48-.14.43-.26.86-.35,1.3-.02.1-.04.21-.06.31,0-.01,0-.03,0-.04-.05.3-.1.59-.15.89-.04.28-.07.56-.09.85-.04.78-.02,1.56.03,2.34,0,0,0-.02,0-.02,0,.1.01.2.02.3,0,.07,0,.14.01.22v.02s0,.01,0,.02c0,.07,0,.14.01.21,0,.08.01.16.02.24h0s0,0,0,0c0,0,0,0,0,0,0,0,0,0,0,.01h0s0,.03,0,.05h0s0,0,0,.01h0s0,.02,0,.03c0,.02,0,.04,0,.06,0,0,0,.01,0,.02h0c.04.65.07,1.31-.03,1.96-.05.32-.14.64-.26.94-.07.18-.17.37-.3.52-.1.11-.22.2-.36.23-.03,0-.07,0-.1,0-.16,0-.3-.07-.4-.2-.13-.17-.19-.39-.24-.59-.04-.17-.09-.34-.12-.51-.08-.35-.16-.7-.23-1.06,0-.01,0-.02,0-.04,0-.03-.01-.05-.02-.08-.07-.35-.14-.7-.21-1.06-.14-.63-.31-1.26-.47-1.89-.17-.64-.32-1.28-.47-1.92-.13-.54-.25-1.08-.36-1.63-.1-.54-.19-1.08-.3-1.62,0-.03-.01-.06-.02-.09,0-.04-.02-.07-.02-.11-.07-.3-.13-.6-.21-.89-.07-.29-.16-.57-.25-.86-.05-.13-.1-.26-.15-.39-.05-.12-.11-.24-.17-.36-.05-.09-.09-.17-.14-.25-.05-.08-.1-.16-.16-.24-.11-.15-.22-.29-.34-.43-.09-.1-.18-.19-.28-.28-.14-.12-.28-.23-.43-.34-.1-.07-.2-.13-.3-.19-.11-.06-.22-.12-.33-.17.01,0,.02.01.04.02-.15-.07-.3-.13-.46-.19-.16-.05-.32-.1-.49-.14-.01,0-.02,0-.03,0,0,0,0,0,0,0-.01,0-.02-.02-.04-.03-.03-.03-.07-.05-.1-.08-.02-.01-.04-.03-.06-.04-.01,0-.02-.02-.03-.02,0,0,0,0-.01,0-.01,0-.02-.02-.04-.02,0,0-.02-.01-.03-.02-.01,0-.02-.01-.03-.02,0,0-.02-.01-.03-.02,0,0-.02,0-.02-.01-.02,0-.03-.02-.05-.03,0,0-.01,0-.02-.01,0,0,0,0-.01,0-.01,0-.03-.02-.04-.02,0,0-.02,0-.03-.01h-.02s-.03-.03-.04-.03c-.02,0-.04-.02-.06-.03-.02,0-.04-.02-.06-.02,0,0,0,0,0,0-.02,0-.03-.01-.05-.02-.03-.01-.06-.02-.09-.04-.02,0-.04-.02-.06-.02-.02,0-.05-.02-.07-.02,0,0,0,0,0,0,0,0,0,0-.01,0-.02,0-.04-.01-.06-.02-.32-.08-.64-.12-.97-.09-.28.03-.57.08-.84.18-.23.08-.46.16-.67.28-.22.12-.45.23-.65.38-.1.07-.21.14-.31.22-.11.09-.22.17-.32.26-.1.1-.2.19-.31.29-.09.09-.17.18-.26.27-.08.09-.16.18-.23.27-.07.08-.14.16-.2.24-.08.11-.17.22-.25.34-.08.12-.17.24-.25.36-.06.09-.12.19-.18.28-.06.09-.12.18-.17.28-.12.22-.25.43-.36.65-.12.23-.24.46-.36.7-.24.48-.47.96-.69,1.45-.08.18-.16.35-.23.53,0,0,0,.01,0,.02-.02.06-.05.12-.07.18-.04.09-.08.18-.11.27-.01.03-.03.07-.04.1-.02.04-.04.09-.05.13,0,0,0,.01,0,.02-.03.08-.06.15-.09.23-.06.14-.11.28-.16.42-.03.08-.06.15-.08.23-.05.13-.09.26-.14.39-.04.11-.08.22-.12.33-.08.23-.16.47-.24.71-.02.06-.04.11-.05.17,0,0-.01.02-.02.03-.09.16-.18.32-.28.48-.09.16-.19.31-.31.45-.11.13-.23.24-.35.34-.14.12-.29.23-.45.32-.08.04-.15.07-.24.1-.09.03-.19.03-.29.01-.13-.02-.24-.09-.35-.16-.16-.11-.29-.24-.41-.39-.13-.16-.22-.35-.3-.55-.08-.2-.13-.4-.17-.6-.09-.4-.15-.81-.23-1.21-.05-.21-.1-.41-.17-.61-.04-.09-.07-.19-.12-.28-.04-.09-.09-.17-.14-.25-.05-.07-.1-.15-.16-.22-.06-.06-.11-.12-.17-.17-.07-.05-.13-.1-.2-.15-.07-.04-.15-.09-.23-.13-.14-.07-.29-.12-.43-.18-.14-.05-.28-.09-.42-.13-.15-.04-.3-.07-.45-.11-.14-.03-.29-.05-.43-.07-.14-.02-.29-.03-.43-.04-.15,0-.3-.02-.45-.01-.15,0-.29,0-.44.02-.24.02-.47.05-.7.09-.14.03-.29.06-.43.1-.14.03-.27.08-.41.12-.27.1-.53.21-.79.33-.26.13-.51.27-.75.44,0,0,0,0,0,0-.03.02-.06.04-.08.06-.01,0-.03.02-.04.03,0,0,0,0,0,0,0,0-.01,0-.02.01,0,0,0,0,0,0-.17.13-.34.26-.51.39-.13.12-.26.24-.38.36-.13.14-.26.28-.39.42-.14.17-.28.34-.42.51-.14.18-.27.36-.4.55-.07.11-.14.23-.21.34-.06.11-.13.23-.19.34-.1.21-.2.42-.29.63-.09.21-.17.43-.25.64-.08.25-.16.49-.23.74-.07.25-.13.5-.18.75-.05.28-.09.55-.12.83-.03.26-.06.52-.07.77,0,0,0,0,0,0,0,0,0,.01,0,.02,0,.11-.01.22-.02.32-.02.39-.03.77-.04,1.16,0,.39,0,.78,0,1.17,0,.37.02.75.04,1.12.02.39.03.79.05,1.18.03.78.07,1.57.1,2.35.01.38.01.76,0,1.14,0,.2-.03.39-.05.59-.02.2-.06.4-.11.6-.02.08-.04.15-.07.23-.06.21-.16.42-.3.6-.11.13-.26.24-.43.27-.04,0-.08.01-.12.01-.14,0-.28-.05-.39-.13-.25-.2-.39-.47-.51-.76-.07-.17-.13-.34-.2-.51-.13-.36-.27-.72-.39-1.09-.12-.37-.23-.73-.32-1.11-.05-.2-.09-.39-.13-.59-.07-.36-.13-.72-.17-1.09-.04-.4-.07-.8-.09-1.21-.01-.37,0-.73.02-1.09.02-.4.04-.8.06-1.2.04-.77.09-1.54.15-2.31.07-.8.16-1.6.24-2.4.07-.65.15-1.31.23-1.96.04-.33.08-.66.11-.99.03-.35.06-.69.09-1.04.02-.34.03-.68.04-1.02,0-.32,0-.65-.03-.97-.02-.24-.05-.48-.08-.72-.04-.25-.08-.49-.13-.74-.05-.2-.09-.39-.14-.59-.05-.2-.12-.4-.18-.6-.09-.26-.19-.51-.29-.76-.11-.25-.22-.5-.34-.74-.13-.24-.25-.48-.39-.71-.14-.24-.29-.47-.44-.7-.09-.13-.19-.26-.29-.39-.1-.14-.21-.27-.32-.4-.1-.12-.21-.23-.31-.34-.11-.12-.23-.23-.34-.34-.06-.06-.13-.12-.2-.17-.21-.18-.44-.34-.66-.5-.14-.09-.28-.18-.42-.26-.14-.09-.29-.16-.43-.24-.13-.06-.26-.13-.4-.19-.13-.06-.27-.11-.41-.16-.09-.03-.19-.06-.28-.09-.09-.02-.18-.05-.28-.07-.17-.03-.33-.05-.5-.06-.16,0-.31,0-.47,0-.16.01-.31.04-.47.06-.14.03-.28.07-.42.11-.18.07-.36.14-.53.22-.17.09-.34.19-.5.29-.12.09-.24.18-.36.28-.12.11-.23.22-.34.33-.1.12-.19.24-.28.36-.12.18-.22.36-.32.55-.17.37-.32.74-.46,1.13-.08.23-.16.47-.23.71-.07.25-.14.51-.2.76-.05.25-.1.49-.13.74-.04.27-.06.54-.08.8-.02.4-.05.79-.04,1.19,0,.43.02.86.05,1.28.06.78.14,1.55.24,2.32.1.74.21,1.48.31,2.22.11.77.21,1.55.34,2.32.06.39.13.79.19,1.18.05.37.09.74.13,1.11.03.38.05.76.04,1.13,0,.25-.01.5-.07.75-.02.08-.06.16-.1.24-.04.08-.1.13-.17.18-.07.06-.17.08-.26.09-.1,0-.21-.02-.29-.07-.25-.13-.41-.39-.54-.63-.08-.16-.16-.33-.24-.5-.16-.35-.31-.71-.45-1.06-.1-.25-.19-.51-.28-.77,0-.03-.02-.05-.03-.08,0,0,0,0,0-.01,0-.01,0-.02-.01-.04,0,0,0-.01,0-.02,0-.02-.01-.04-.02-.06-.07-.2-.13-.39-.2-.59-.12-.35-.25-.69-.39-1.03-.01-.14-.02-.29-.03-.43,0-.08-.01-.15-.02-.23,0-.03,0-.05,0-.08-.02-.24-.04-.49-.06-.73-.01-.18-.03-.35-.04-.53,0-.01,0-.03,0-.04-.01-.17-.03-.34-.04-.52-.01-.15-.02-.29-.03-.44-.06-.75-.12-1.49-.18-2.24,0-.12-.02-.23-.03-.35,0-.11-.02-.22-.03-.32-.02-.17-.03-.34-.05-.51,0-.03,0-.07,0-.1-.02-.17-.03-.34-.05-.51-.02-.22-.04-.43-.06-.65-.01-.16-.03-.31-.05-.47-.02-.17-.03-.35-.05-.52-.01-.14-.03-.29-.04-.43-.01-.13-.03-.26-.04-.39-.03-.3-.06-.6-.1-.9-.4-4.81-.42-9.64-.51-14.46,0-.02,0-.04,0-.06,0-.02,0-.04,0-.06,0-.02,0-.04,0-.06,0-.02,0-.04,0-.06.44.84,1.1,1.58,1.8,2.21.49.45,1.02.85,1.57,1.23.56.38,1.15.73,1.75,1.04,1.17.61,2.4,1.11,3.64,1.56,1.26.46,2.52.92,3.82,1.27.63.17,1.27.31,1.9.45.65.14,1.31.29,1.96.42,1.29.26,2.58.51,3.86.77.53.11,1.06.23,1.6.33.53.1,1.05.2,1.58.3.65.12,1.3.24,1.95.33.65.09,1.31.16,1.96.21.32.03.64.05.97.06.3.01.59.02.89.02.17,0,.34,0,.52,0,.02,0,.04,0,.06,0h0c.22,0,.43,0,.65,0h0c.21,0,.43,0,.64,0h0s.04,0,.06,0c.17,0,.34,0,.52,0,.3,0,.59-.01.89-.02.32-.01.64-.03.97-.06.65-.06,1.31-.13,1.96-.21.65-.09,1.3-.2,1.95-.33.53-.1,1.06-.2,1.58-.3.53-.1,1.06-.22,1.6-.33,1.29-.26,2.58-.51,3.86-.77.66-.13,1.31-.28,1.96-.42.64-.14,1.27-.28,1.9-.45,1.3-.35,2.56-.81,3.82-1.27,1.24-.45,2.47-.95,3.64-1.56.6-.31,1.19-.66,1.75-1.04.55-.38,1.08-.78,1.57-1.23.7-.64,1.37-1.38,1.81-2.23,0,.04,0,.08,0,.11Z"/>
        <path class="cls-8" d="M21.16,59.24c.04.34-.01.69-.25.94-.1.1-.24.17-.38.19-.04,0-.08,0-.12,0-.13,0-.25-.03-.37-.08-.23-.09-.43-.27-.59-.46-.11-.13-.21-.26-.3-.4-.17-.25-.32-.52-.45-.79-.14-.27-.27-.54-.38-.82-.11-.28-.2-.57-.21-.87,0-.34.07-.71.27-.98.17-.23.44-.37.73-.38.15,0,.27.11.3.25.22.07.41.23.56.39.1.1.18.22.26.34.18.27.31.57.43.87.12.29.22.59.3.9.04.15.08.3.11.45.04.15.07.3.09.46Z"/>
      </g>
      <g>
        <path class="cls-5" d="M23.56,18.86c-.15-.06-.19-.24-.08-.36.18-.24.57-.21.82-.28.78-.16,1.6-.36,2.2-.92.2-.18.4-.37.45-.65.1-.38.69-.22.59.16-.44,1.42-2.65,2.15-3.99,2.03Z"/>
        <path class="cls-5" d="M29.38,15.82c-.26.01-.58-.29-.28-.49.22-.17.53-.13.78-.2,1.2-.27,2.43-.72,3.26-1.68.24-.2.39-.79.79-.59.44.37-.28.86-.49,1.17-1.05,1.09-2.59,1.6-4.06,1.79Z"/>
        <path class="cls-5" d="M31.97,16.68c-.49-.49,1.21-.7,1.48-.96.37-.34.91.07.49.43-.58.23-1.35.84-1.97.54Z"/>
        <path class="cls-5" d="M46.3,16.63c-1.8-.01-7.2-.61-8.37-1.8-.1-.23.14-.36.34-.32,2.93,1.12,6.1,1.61,9.23,1.49,1.9-.18,6.81-.72,5.63-3.6-.16-.36.41-.6.56-.24,1.51,3.85-4.85,4.47-7.39,4.48Z"/>
        <path class="cls-5" d="M54.85,14.92c-.41-.75,2.34-1.17,1-2.82-.29-.37-.73-.52-1.11-.75-.25-.21-.17-.5.18-.5,1.62.33,2.68,2.38,1.13,3.52-.34.2-.79.91-1.19.55Z"/>
        <path class="cls-5" d="M10.12,16.6c-1.39-.72-1.19-2.38-.02-3.21.35-.19.99-1,1.35-.55.17.3-.19.47-.39.59-.41.29-.89.6-1.14,1.04-.46.71,0,1.29.6,1.7.3.3-.11.55-.4.42Z"/>
        <path class="cls-5" d="M5.33,13.62c-.96-1.67,1.07-3.48,2.48-4.14.4-.11,1.53-.93,1.76-.43.06.15,0,.34-.16.4-1.72.64-4.1,1.83-3.66,4.01,0,.24-.26.3-.42.15Z"/>
        <path class="cls-5" d="M12.12,8.29c-.06-.01-.14-.03-.18-.09-.11-.67.99-.72,1.44-.9.42-.04,2.34-.79,2.36-.18.15.49-1.57.51-1.96.71-.57.08-1.1.43-1.66.47Z"/>
        <path class="cls-5" d="M60.09,13.01c-.51-.23.07-.95-.03-1.37-.32-1.58-1.63-1.14-1.75-1.8.48-.7,1.89.43,2.1,1,.15.33.31.69.24,1.06-.11.36-.03,1.17-.56,1.11Z"/>
        <path class="cls-5" d="M36.27,20.57c-.48-.02-.97,0-1.44-.09-.31-.11-.35-.44,0-.54,1.57,0,3.15.03,4.71-.21.62-.08,1.25-.16,1.87-.25.29-.02.78-.25.87.17.12.56-1.76.48-2.17.62-1.27.16-2.55.3-3.83.3Z"/>
        <path class="cls-5" d="M31.52,4.95c-.9-.59,1.21-.69,1.52-.78.48-.09,4.46-.48,4.31.19,0,.56-1.26.17-1.66.26-1.41-.14-2.8.33-4.18.34Z"/>
        <path class="cls-5" d="M41.74,5.39c-.8-.15-1.59-.29-2.4-.38-.24-.01-.65-.06-.65-.37.21-.61,2.54.12,3.12.15.39.05.31.66-.08.6Z"/>
        <path class="cls-1" d="M25.86,13.63c.1.1.11.22.06.33,0,.01-.01.03-.02.04,0,0,0,0,0,.01-.01.02-.02.03-.04.04,0,0,0,0-.01.01-.04.03-.08.06-.12.07,0,0-.01,0-.02,0,0,0-.01,0-.02,0h0s-.01,0-.02,0c-.08,0-.16-.02-.23-.09-.03-.03-.07-.07-.1-.1h0c-1.37-1.31-2.96-2.35-4.67-3.15-.06-.03-.12-.06-.16-.1-.02-.01-.03-.03-.04-.04,0,0-.01-.02-.02-.03,0,0,0,0,0-.01,0,0,0-.01-.01-.02,0-.01-.01-.03-.02-.04,0,0,0-.01,0-.02,0-.02-.01-.04-.01-.06,0,0,0-.02,0-.02,0-.15.13-.27.34-.25,0,0,.01,0,.02,0,0,0,.01,0,.02,0,0,0,.02,0,.03,0,.01,0,.02,0,.03,0,.03,0,.07.02.1.03,1.82.85,3.51,1.97,4.94,3.37Z"/>
        <path class="cls-6" d="M18.88,9.97c-.15.11-.3.23-.44.35,0,0-.01,0-.02.01h0c-.3.26-.59.52-.87.8-.27.27-.54.54-.76.85-.1.14-.2.29-.29.44-.08.13-.15.27-.22.41-.15.29-.27.59-.38.9-.11.31-.2.63-.28.95-.07.31-.14.62-.21.93-.07.32-.13.64-.19.96-.04.2-.08.39-.11.59-1.42-.53-3.96-1.56-2.66-2.83,1.21-1.42,2.88-2.46,4.44-3.48.68-.49,1.33-.78,1.99-.88Z"/>
        <path class="cls-6" d="M29.64,13.89c-.05.02-.1.04-.16.05-.08.03-.16.05-.24.08-.02,0-.05.02-.07.02-.02,0-.05.02-.07.02-.02,0-.04.01-.07.02-.04.01-.09.03-.13.04-.01,0-.03,0-.04.01-.02,0-.05.01-.07.02-.11.03-.23.06-.34.09-.03,0-.07.02-.1.02-.22.05-.43.09-.65.13-.02,0-.03,0-.05,0-.03,0-.05,0-.08.01-.03,0-.06,0-.09.01-.06,0-.11.02-.17.02-.03,0-.05,0-.08,0-.02,0-.04,0-.06,0-.03,0-.06,0-.09,0-.03,0-.06,0-.09,0-.09,0-.18.01-.27.02-.03,0-.06,0-.08,0-.03,0-.06,0-.09,0-.03,0-.07,0-.1,0-.03,0-.05,0-.08,0-.09-.12-.18-.23-.27-.35-.04-.05-.08-.1-.12-.15-.02-.02-.04-.05-.06-.07.05-.1.04-.22-.06-.33-1.44-1.4-3.13-2.52-4.94-3.37-.04-.01-.07-.02-.1-.03,0-.02-.02-.03-.03-.05.03.01.06.02.09.03.23-.3.47-.58.62-.82.81-1,1.67-2.08,2.9-2.56.03-.01.07-.02.1-.04.03,0,.05-.02.08-.03.02,0,.05-.01.07-.02.06-.02.12-.03.17-.05.03,0,.07-.02.1-.03s.07-.02.1-.02c.03,0,.06-.01.09-.02.02,0,.04,0,.07-.01.01,0,.02,0,.03,0,.03,0,.05,0,.08-.01.03,0,.05,0,.08-.01,0,0,.01,0,.02,0,.02,0,.05,0,.07,0,.03,0,.06,0,.09,0,.06,0,.12-.01.18-.01.03,0,.06,0,.08,0,0,0,0,0,0,0-.15.06-.3.12-.45.19-.39.18-.77.41-1.07.71-.29.3-.53.67-.62,1.08-.05.2-.07.4-.05.61.02.19.06.37.12.55.17.47.48.87.85,1.2.25.22.5.43.77.62.27.19.54.38.81.56.56.37,1.12.71,1.7,1.03.56.31,1.14.58,1.74.79,0,0,.01,0,.02,0Z"/>
        <path class="cls-6" d="M42.08,13.77c.08.05.15.1.23.14-3.73-.5-8.15-1.71-7.68-4.5.3-1.72,1.84-2.12,3.56-2.11-.01.01-.03.03-.04.04-.09.1-.18.21-.26.32-.1.15-.19.31-.24.48-.12.41-.1.85.01,1.26.12.43.32.84.59,1.2.15.2.31.38.48.56.05.06.11.11.17.17.06.05.11.11.17.16,0,0,0,0,0,0,.23.2.46.4.7.59.25.2.49.39.74.58.26.2.52.39.79.58.26.18.53.35.79.52Z"/>
        <path class="cls-5" d="M39.03,11.47s.02.01.02.02c0,0-.02-.01-.02-.02Z"/>
        <path class="cls-5" d="M51.45,12.54c.07,1.87-3.68,1.7-4.97,1.71-.58-.01-1.47-.05-2.5-.15,0,0,0,0,0,0-.01,0-.02,0-.03,0-.39-.04-.79-.08-1.21-.13-.04,0-.07,0-.11-.01,0,0-.02,0-.03,0-.06,0-.12-.02-.19-.02-.04,0-.07,0-.11-.01-.08-.05-.16-.09-.23-.14-.27-.17-.54-.34-.79-.52-.27-.19-.53-.38-.79-.58-.25-.19-.5-.39-.74-.58-.24-.19-.47-.39-.7-.59,0,0,0,0,0,0-.06-.05-.12-.11-.17-.16-.06-.05-.12-.11-.17-.17-.17-.18-.33-.36-.48-.56-.27-.36-.47-.76-.59-1.2-.11-.41-.13-.85-.01-1.26.05-.17.14-.33.24-.48.08-.12.17-.22.26-.32.01-.01.03-.03.04-.04h0s.07,0,.11,0c.1,0,.21,0,.32,0,.08,0,.17,0,.25.01.08,0,.15,0,.23.02,1.19.09,2.38.3,3.22.35,2.61.4,5.28,1.02,7.49,2.53.83.51,1.48,1.35,1.65,2.32Z"/>
        <path class="cls-5" d="M31.67,8.6c2.26,1.1,1.84,3.29-.17,4.4-.32.2-.66.38-1,.54-.06.03-.11.05-.17.08-.03.01-.05.02-.08.04-.03.01-.05.02-.08.03-.03.01-.05.02-.08.03-.03.01-.05.02-.08.03-.03.01-.05.02-.08.03-.03.01-.05.02-.08.03-.06.02-.11.04-.17.06,0,0-.02,0-.03.01,0,0-.01,0-.02,0-.6-.21-1.18-.48-1.74-.79-.58-.32-1.15-.67-1.7-1.03-.28-.18-.55-.37-.81-.56-.27-.19-.52-.4-.77-.62-.37-.33-.68-.73-.85-1.2-.06-.18-.1-.36-.12-.55-.02-.21,0-.41.05-.61.09-.41.33-.78.62-1.08.3-.31.68-.53,1.07-.71.15-.07.3-.13.45-.19,0,0,0,0,0,0,0,0,.02,0,.03,0,.02,0,.03,0,.05,0,.02,0,.04,0,.06,0,.06,0,.13,0,.19,0,.01,0,.03,0,.04,0,.02,0,.03,0,.05,0,.02,0,.05,0,.07,0,.03,0,.05,0,.08,0,.03,0,.05,0,.08,0,.02,0,.05,0,.07,0,.02,0,.05,0,.07,0,.02,0,.03,0,.05,0,.04,0,.07,0,.11.01.06,0,.12.02.19.03.03,0,.05,0,.08.01.03,0,.05,0,.08.01.02,0,.04,0,.07.01.06.01.12.02.18.04,1.51.34,2.98,1.18,4.29,1.92Z"/>
        <path class="cls-5" d="M26.43,15.59c0,.06.01.12,0,.18-.84,1.67-5.11,2.34-6.86,2.27-1.29-.05-2.59-.24-3.82-.64-.02,0-.03-.01-.05-.02-.01,0-.03-.01-.04-.02-.01,0-.03,0-.04-.01-.11-.04-.25-.09-.4-.15-.02,0-.04-.02-.06-.02-.01,0-.03-.01-.04-.02.03-.2.07-.39.11-.59.06-.32.13-.64.19-.96.06-.31.13-.62.21-.93.08-.32.17-.64.28-.95.1-.31.23-.61.38-.9.07-.14.14-.28.22-.41.09-.15.19-.29.29-.44.22-.31.49-.58.76-.85.28-.28.57-.54.87-.8h0s.01,0,.02-.01c.14-.12.29-.24.44-.35h0s.05,0,.08-.01c.02,0,.04,0,.06,0,.02,0,.03,0,.05,0,.02,0,.04,0,.06,0,.02,0,.04,0,.07,0,0,0,0,0,.01,0,.02,0,.04,0,.06,0,.02,0,.03,0,.05,0,.02,0,.04,0,.06,0,.02,0,.05,0,.07,0,.03,0,.06,0,.09,0,.03,0,.05,0,.08,0,0,0,.02,0,.02,0,.04,0,.09,0,.13,0,.04,0,.08,0,.12.01.06,0,.13.02.19.03.07.01.13.03.2.04.02,0,.04.01.07.02.03,0,.06.02.09.02s.06.02.09.03c.06.02.12.04.17.06,0,0,0,0,0,0,.03.01.06.02.09.03,0,.02.02.03.03.05-.01,0-.02,0-.03,0,0,0-.02,0-.03,0,0,0-.01,0-.02,0,0,0-.01,0-.02,0-.21-.01-.34.11-.34.25,0,0,0,.01,0,.02,0,.02,0,.04.01.06,0,0,0,.01,0,.02,0,.01.01.03.02.04,0,0,0,.01.01.02,0,0,0,0,0,.01,0,0,.01.02.02.03.01.01.03.03.04.04.04.04.09.07.16.1,1.71.79,3.3,1.84,4.67,3.15h0s.07.06.1.1c.07.07.15.1.23.09,0,0,.01,0,.02,0h0s.01,0,.02,0c0,0,.01,0,.02,0,.05-.01.09-.04.12-.07,0,0,0,0,.01-.01.01-.01.03-.03.04-.04,0,0,0,0,0-.01,0-.01.01-.02.02-.04.02.02.04.05.06.07.04.05.08.1.12.15.09.11.18.23.27.35-.01,0-.02,0-.03,0,0,0-.01,0-.02,0-.02,0-.04,0-.06,0-.01,0-.02,0-.03,0h0s-.07,0-.1,0c-.09,0-.18,0-.27,0,.05.06.1.12.15.18,0,.01.02.02.03.03.01.02.02.03.04.05.01.02.03.04.04.06,0,0,0,0,0,.01,0,0,.01.02.02.03,0,.01.02.03.03.04,0,.01.01.02.02.03.03.05.06.11.09.16,0,0,0,.02.01.03.02.05.05.1.07.15,0,.01,0,.03.01.04,0,.02.01.03.02.05,0,.02.01.04.02.05,0,.03.01.05.02.08,0,.01,0,.02,0,.03,0,.01,0,.03,0,.04Z"/>
      </g>
      <g>
        <path class="cls-7" d="M32.62,22.36c-.2,0-.41,0-.61-.01-.54-.02-1.08-.05-1.62-.06-1.14-.03-2.28-.07-3.41-.15-.65-.04-1.29-.09-1.94-.15-.66-.06-1.33-.15-1.99-.24-1.28-.19-2.57-.37-3.84-.58-.69-.12-1.37-.25-2.05-.4-.64-.14-1.27-.31-1.9-.48-1.3-.35-2.6-.75-3.86-1.21-.63-.23-1.26-.49-1.87-.77-.61-.29-1.22-.6-1.81-.92-.59-.32-1.17-.65-1.74-1-.57-.35-1.12-.72-1.63-1.16-.25-.22-.5-.45-.72-.7-.23-.25-.44-.51-.63-.8-.09-.14-.18-.28-.26-.43-.08-.15-.15-.31-.2-.47-.11-.31-.18-.65-.18-.98,0-.2.01-.41.07-.6.03-.12.11-.22.21-.28.06-.04.15-.07.22-.03.06.03.09.09.12.15.05.11.05.23.03.32-.02.1-.03.19-.04.29,0,.08,0,.17,0,.25,0,.12.03.23.05.34.03.11.06.21.09.32.04.11.09.22.14.33.09.17.18.33.28.48.14.19.28.37.43.55.22.25.45.48.7.71.15.13.3.25.46.37.16.13.33.24.5.36,1.11.74,2.29,1.39,3.48,2,.52.26,1.04.5,1.58.72.57.23,1.14.44,1.68.63.62.21,1.24.41,1.87.6.65.19,1.31.37,1.97.54.57.15,1.14.28,1.72.4,1.28.25,2.57.45,3.86.64.66.1,1.31.2,1.97.28.65.09,1.31.15,1.96.21.42.04.84.07,1.25.09,0,0,0,0,0,0,.01,0,.02,0,.03,0,.03,0,.06,0,.07,0,1.17.08,2.34.11,3.51.15.22,0,.44.02.66.03.06-.04.13-.05.21-.05.3.03.6.06.9.08.09,0,.18,0,.26,0,.09,0,.18,0,.26,0,.3-.02.6-.05.9-.08.07,0,.15.01.21.05.22,0,.44-.02.66-.03,1.17-.04,2.34-.07,3.5-.15.03,0,.06,0,.08,0,.01,0,.02,0,.03,0,0,0,0,0,0,0,.42-.03.84-.06,1.26-.09.65-.06,1.31-.12,1.96-.21.66-.09,1.31-.19,1.97-.28,1.29-.19,2.58-.39,3.86-.64.58-.12,1.15-.25,1.72-.4.66-.17,1.32-.35,1.97-.54.63-.18,1.25-.38,1.84-.58.58-.2,1.15-.41,1.72-.64.54-.22,1.06-.46,1.58-.72,1.19-.61,2.37-1.25,3.48-2,.17-.12.34-.24.5-.36.16-.12.31-.25.46-.37.25-.22.48-.46.7-.71.15-.18.29-.36.43-.55.1-.16.2-.32.28-.48.05-.11.1-.22.14-.33.03-.1.06-.21.09-.32.02-.11.04-.23.05-.34,0-.08,0-.17,0-.25,0-.1-.02-.2-.03-.27-.02-.11-.02-.23.03-.34.03-.06.06-.12.12-.15.07-.04.16,0,.22.03.1.07.18.16.21.28.05.19.06.4.07.6,0,.33-.07.67-.18.98-.06.16-.13.32-.2.47-.08.15-.16.29-.26.43-.19.28-.41.54-.63.8-.22.25-.47.48-.72.7-.5.43-1.06.81-1.63,1.16-.57.35-1.15.68-1.74,1-.6.32-1.2.64-1.81.92-.61.28-1.24.54-1.87.77-1.27.47-2.56.86-3.86,1.21-.63.17-1.26.34-1.9.48-.68.15-1.36.28-2.05.4-1.28.22-2.56.4-3.84.58-.66.1-1.32.18-1.99.24-.64.06-1.29.11-1.94.15-1.14.08-2.27.12-3.41.15-.54.01-1.08.04-1.62.06-.18,0-.36.01-.54.01-.02,0-.05,0-.07,0Z"/>
        <path class="cls-7" d="M38.3,22.13s-.03,0-.04,0c.01,0,.03,0,.04,0Z"/>
        <path class="cls-7" d="M26.94,22.13s.03,0,.04,0c-.01,0-.03,0-.04,0Z"/>
        <path class="cls-7" d="M38.17,21.54s0,0-.01,0c0,0,0,0,.01,0Z"/>
        <path class="cls-7" d="M27.06,21.54s0,0,.01,0c0,0,0,0-.01,0Z"/>
        <path class="cls-7" d="M38.26,21.53s0,0,0,0c0,0-.02,0-.03,0,.01,0,.02,0,.03,0Z"/>
        <path class="cls-7" d="M26.98,21.53s0,0,0,0c.01,0,.02,0,.03,0,0,0-.02,0-.03,0Z"/>
        <path class="cls-7" d="M62.37,11.66c-.06-.07-.11-.15-.14-.24-.01-.05-.03-.1-.05-.15-.03-.07-.05-.13-.08-.2-.06-.11-.12-.21-.16-.29-.14-.21-.3-.4-.46-.59-.23-.25-.48-.49-.73-.72-.41-.35-.84-.67-1.29-.97-.29-.19-.58-.38-.88-.55-.31-.17-.62-.34-.93-.5-.39-.19-.79-.37-1.19-.53-.39-.16-.78-.3-1.18-.44-1.03-.35-2.07-.64-3.12-.92-.64-.17-1.28-.33-1.93-.48-.62-.15-1.24-.27-1.85-.4-.02,0-.03,0-.05-.01,0,0-.01,0-.02,0-.03,0-.07-.01-.09-.02-.07-.01-.15-.03-.22-.05,0,0,0,0,0,0,0,0-.02,0-.03,0h0c-.63-.13-1.26-.25-1.89-.38-.62-.12-1.24-.25-1.87-.35-1.28-.23-2.57-.43-3.86-.6-.63-.09-1.27-.16-1.9-.24-.31-.04-.62-.07-.93-.1-.31-.03-.63-.05-.93-.07-.03,0-.07,0-.09,0-.01,0-.03,0-.03,0-.01,0-.03,0-.04,0h0,0c-.3-.02-.6-.04-.89-.06-.58-.03-1.16-.04-1.75-.05-.27,0-.54,0-.82,0,0,0-.02,0-.03,0-.02,0-.04,0-.06,0-.09,0-.17,0-.26,0-.09,0-.17,0-.26,0-.02,0-.04,0-.06,0,0,0-.02,0-.03,0-.27,0-.54,0-.82,0-.58,0-1.16.02-1.75.05-.3.02-.6.04-.89.06h0,0s-.03,0-.03,0c-.01,0-.03,0-.03,0-.03,0-.07,0-.1,0-.31.02-.63.04-.94.07-.31.03-.62.06-.93.1-.63.08-1.27.16-1.9.24-1.29.17-2.58.37-3.86.6-.62.11-1.24.23-1.87.35-.63.12-1.26.25-1.89.37,0,0,0,0,0,0,0,0-.02,0-.03,0,0,0,0,0,0,0-.07.02-.15.03-.21.04-.03,0-.07.01-.1.02,0,0-.01,0-.02,0-.02,0-.03,0-.05.01-.62.13-1.24.26-1.86.4-.64.15-1.29.32-1.93.48-1.05.28-2.09.57-3.12.92-.39.14-.79.28-1.18.44-.4.16-.8.34-1.19.53-.31.16-.62.33-.93.5-.3.17-.59.36-.88.55-.44.3-.88.62-1.29.97-.26.23-.5.47-.73.72-.17.19-.32.39-.44.56-.07.1-.13.21-.19.32-.03.07-.06.13-.08.2-.02.05-.03.1-.05.15-.03.09-.07.17-.14.24-.06.06-.14.14-.24.11-.11-.02-.18-.15-.21-.24-.05-.18.01-.36.08-.53.11-.3.29-.57.48-.83.4-.52.88-.98,1.38-1.4.25-.2.51-.39.77-.58.28-.19.56-.38.85-.56.27-.17.55-.33.84-.48.29-.16.59-.31.89-.45.59-.27,1.2-.51,1.81-.72.63-.22,1.26-.42,1.89-.61.63-.18,1.26-.35,1.9-.51.61-.16,1.22-.31,1.84-.45.52-.12,1.05-.23,1.57-.33.02,0,.04,0,.06-.01,0,0,.02,0,.03,0,.1-.02.21-.04.3-.06.63-.13,1.26-.25,1.89-.38.64-.12,1.28-.25,1.92-.37.64-.11,1.28-.22,1.92-.32.63-.1,1.27-.19,1.91-.28.63-.08,1.26-.16,1.88-.24.31-.04.62-.08.93-.1.32-.03.64-.05.96-.07.02,0,.04,0,.06,0,.05,0,.1,0,.15,0,.04,0,.08,0,.12,0,.08,0,.16-.01.24-.02.15,0,.29-.02.44-.03.57-.03,1.15-.05,1.73-.06.31,0,.61,0,.92,0,.14,0,.29,0,.43,0,.14,0,.29,0,.43,0,.31,0,.62,0,.92,0,.58,0,1.15.02,1.73.06.15,0,.29.02.44.03.08,0,.16.01.24.02.04,0,.08,0,.12,0,.05,0,.1,0,.15,0,.02,0,.04,0,.07,0,.32.02.64.04.96.07.31.03.62.06.93.1.63.08,1.26.16,1.88.24.64.08,1.27.18,1.91.28.64.1,1.28.2,1.92.32.64.12,1.28.24,1.92.37.63.12,1.26.25,1.89.37.1.02.21.04.31.06,0,0,.02,0,.03,0,.02,0,.04,0,.04,0,.53.11,1.05.22,1.58.34.62.14,1.23.29,1.84.45.63.17,1.27.33,1.9.51.64.18,1.27.39,1.89.61.61.22,1.22.45,1.81.72.3.14.59.29.89.45.28.15.57.31.84.48.29.18.57.37.85.56.26.18.52.37.77.58.5.42.98.87,1.38,1.4.19.26.37.53.48.83.06.17.13.35.08.53-.03.1-.1.22-.21.24-.01,0-.02,0-.03,0-.08,0-.15-.06-.2-.12Z"/>
        <path class="cls-7" d="M48.19,4.63s.02,0,.03,0c-.01,0-.02,0-.03,0Z"/>
        <path class="cls-7" d="M17.05,4.63s-.02,0-.03,0c.01,0,.02,0,.03,0Z"/>
        <path class="cls-7" d="M47.97,4.59s0,0,0,0c0,0,.02,0,.03,0,0,0,0,0,0,0-.01,0-.02,0-.04,0Z"/>
        <path class="cls-7" d="M17.23,4.59s.02,0,.03,0c0,0,0,0,0,0-.01,0-.02,0-.04,0,0,0,0,0,0,0Z"/>
        <path class="cls-7" d="M64.45,11.94c-.06-.05-.12-.13-.15-.2-.03-.09-.04-.18-.05-.28,0-.07-.02-.14-.03-.2-.04-.18-.09-.36-.15-.53-.07-.21-.16-.41-.25-.59v-.02s-.02-.02-.03-.03c0,0,0,0-.01-.02-.12-.23-.26-.46-.41-.68-.15-.22-.31-.43-.48-.64-.26-.29-.54-.56-.82-.81-.04-.04-.08-.07-.09-.08-.38-.34-.79-.64-1.21-.93-.36-.24-.73-.47-1.11-.69-.37-.21-.75-.41-1.12-.6-.52-.26-1.05-.5-1.6-.72-.55-.22-1.11-.43-1.67-.63-.31-.11-.62-.21-.92-.31-.31-.1-.63-.21-.94-.3-.33-.1-.66-.19-.99-.27-.62-.16-1.25-.3-1.87-.43-1.19-.24-2.38-.46-3.56-.69-.65-.13-1.3-.26-1.95-.37-.66-.12-1.32-.22-1.98-.33-1.32-.22-2.64-.43-3.97-.57-1.28-.13-2.57-.26-3.86-.35-.46-.03-.92-.04-1.37-.05-.23,0-.46-.01-.69-.01-.17,0-.34,0-.52,0-.01,0-.02,0-.04,0-.01,0-.02,0-.04,0-.17,0-.34,0-.52,0-.23,0-.46,0-.69.01-.46.01-.92.02-1.37.05-1.29.09-2.57.22-3.86.35-1.33.14-2.65.35-3.97.57-.66.11-1.32.21-1.98.33-.65.11-1.3.25-1.95.37-1.19.23-2.38.45-3.55.69-.63.13-1.26.27-1.89.43-.33.09-.66.18-.99.27-.32.09-.63.2-.94.3-.31.1-.62.2-.92.31-.56.2-1.12.41-1.67.63-.54.22-1.07.46-1.6.72-.38.19-.76.39-1.12.6-.38.22-.74.44-1.11.69-.42.29-.83.59-1.18.9-.04.04-.08.07-.12.1-.29.26-.56.53-.82.82-.17.2-.33.42-.48.64-.15.22-.28.44-.4.66,0,.01-.01.02-.02.03,0,0,0,0,0,0v.02s-.02.02-.02.03c-.1.19-.18.4-.25.6-.06.17-.11.35-.15.53-.01.07-.03.14-.03.2-.01.09-.02.19-.05.28-.03.08-.08.15-.15.2-.05.04-.1.07-.17.05-.07-.02-.12-.07-.16-.13-.06-.09-.1-.2-.09-.31,0-.1.02-.2.04-.3.02-.1.04-.21.07-.31.05-.2.12-.39.19-.58.07-.18.15-.36.22-.51.01-.02.02-.04.03-.06.11-.22.24-.44.38-.65.15-.22.3-.44.46-.65.32-.41.71-.76,1.09-1.1,0,0,0,0,.01,0,0,0,.01-.01.01-.01.51-.45,1.06-.84,1.63-1.2.57-.36,1.16-.69,1.76-1,.6-.31,1.22-.59,1.85-.84.64-.26,1.29-.5,1.95-.72.64-.22,1.28-.43,1.92-.61.64-.18,1.28-.34,1.93-.48,1.31-.29,2.64-.52,3.96-.78.66-.13,1.31-.26,1.97-.38.66-.12,1.32-.22,1.98-.33,1.32-.22,2.63-.44,3.96-.58.65-.07,1.29-.14,1.94-.2.66-.06,1.31-.12,1.97-.17.52-.04,1.04-.05,1.56-.07.25,0,.49-.01.74-.02.21,0,.43,0,.64,0,0,0,0,0,0,0,0,0,0,0,0,0,.21,0,.43,0,.64,0,.25,0,.49,0,.74.02.52.01,1.04.03,1.56.07.66.05,1.32.1,1.97.17.65.06,1.3.13,1.94.2,1.32.15,2.64.37,3.96.58.66.11,1.32.21,1.98.33.66.12,1.31.25,1.97.38,1.32.26,2.64.49,3.96.78.65.14,1.29.3,1.93.48.65.18,1.29.39,1.92.61.66.22,1.3.47,1.95.72.63.25,1.24.53,1.85.84.6.31,1.19.63,1.76,1,.57.36,1.12.76,1.63,1.2,0,0,.01.01.02.02h0c.39.35.78.7,1.1,1.11.16.21.32.42.46.65.14.21.27.42.38.64l.02.04c.09.17.16.35.23.53.07.19.14.39.19.58.02.1.05.21.07.31.02.1.04.2.04.3,0,.11-.03.22-.09.31-.04.05-.1.11-.16.13-.01,0-.02,0-.03,0-.05,0-.09-.03-.13-.06Z"/>
        <path class="cls-7" d="M63.82,10.13s0,.02.01.03c0,0,0-.02-.01-.03Z"/>
        <path class="cls-7" d="M1.41,10.13s0,.02-.01.03c0,0,0-.02.01-.03Z"/>
        <path class="cls-7" d="M64.31,9.76s.01.02.02.03c0-.01-.01-.02-.02-.03Z"/>
        <path class="cls-7" d="M.92,9.76s-.01.02-.02.03c0-.01.01-.02.02-.03Z"/>
        <path class="cls-7" d="M50.51,2.98s.02,0,.02,0c0,0-.02,0-.02,0Z"/>
        <path class="cls-7" d="M14.73,2.98s-.02,0-.02,0c0,0,.02,0,.02,0Z"/>
        <path class="cls-7" d="M60.04,69.72c-.15-.09-.19-.27-.11-.42.03-.06.06-.11.09-.17.2-.39.36-.81.5-1.22.08-.24.15-.48.21-.72.08-.29.15-.58.2-.83.32-1.61.56-3.23.76-4.85.16-1.24.29-2.48.43-3.73.14-1.23.29-2.45.43-3.68.15-1.27.3-2.54.44-3.81.13-1.21.22-2.42.3-3.62,0,0,0,0,0-.01,0,0,0-.02,0-.02,0-.15.02-.29.03-.42.07-1.08.14-2.16.2-3.25.07-1.25.14-2.5.2-3.76.06-1.23.11-2.46.17-3.7.06-1.24.12-2.48.2-3.72.08-1.26.18-2.51.27-3.76.08-1.16.15-2.32.18-3.48.02-.59.04-1.19.04-1.78,0-.62,0-1.23.01-1.85,0-1.24.01-2.47.02-3.71,0-.63,0-1.26,0-1.89,0-.57-.03-1.14-.07-1.7-.05-.68-.1-1.36-.23-2.04-.02-.08-.04-.17-.06-.25-.03-.11-.03-.21,0-.32.02-.08.08-.19.16-.22.05-.02.1,0,.14.01.09.03.16.11.21.19.06.11.08.22.11.34.03.12.05.25.07.37.09.53.13,1.06.18,1.59.08,1.07.1,2.14.1,3.21,0,1.24-.02,2.48-.02,3.72,0,1.26,0,2.53-.04,3.79-.03,1.21-.1,2.41-.17,3.62-.08,1.24-.18,2.49-.27,3.72,0,0,0,.02,0,.02,0,0,0,.01,0,.01-.16,2.47-.25,4.94-.37,7.41-.12,2.47-.26,4.94-.43,7.4,0,0,0,0,0,0-.05.72-.1,1.45-.15,2.17-.1,1.23-.23,2.45-.37,3.68-.14,1.26-.3,2.51-.44,3.77-.14,1.21-.28,2.41-.42,3.62-.14,1.24-.29,2.48-.46,3.72-.08.59-.17,1.19-.27,1.78-.09.56-.2,1.12-.31,1.67-.06.29-.14.58-.21.86-.06.23-.13.47-.21.69-.17.49-.37.97-.62,1.43-.05.1-.16.15-.26.15-.05,0-.11-.01-.15-.04Z"/>
        <path class="cls-7" d="M4.78,69.61c-.25-.45-.44-.94-.62-1.43-.08-.23-.15-.46-.21-.69-.08-.29-.15-.57-.21-.86-.12-.55-.22-1.11-.31-1.67-.1-.59-.19-1.18-.27-1.78-.17-1.24-.32-2.48-.46-3.72-.14-1.21-.28-2.41-.42-3.62-.15-1.26-.3-2.51-.44-3.77-.14-1.22-.27-2.45-.37-3.68-.06-.72-.11-1.45-.15-2.17,0,0,0,0,0,0-.17-2.47-.31-4.93-.43-7.4-.12-2.47-.21-4.94-.37-7.4,0,0,0-.01,0-.02v-.02c-.09-1.24-.19-2.49-.27-3.73-.08-1.2-.14-2.41-.17-3.62-.03-1.26-.04-2.53-.04-3.79,0-1.24-.02-2.48-.02-3.72,0-1.07.01-2.14.1-3.21.04-.53.09-1.07.18-1.59.02-.13.05-.25.07-.37.02-.12.05-.24.11-.34.05-.08.12-.15.21-.19.05-.02.09-.03.14-.01.09.03.14.14.16.22.03.11.03.21,0,.32-.02.08-.04.17-.06.25-.13.67-.18,1.35-.23,2.04-.04.57-.06,1.14-.07,1.7,0,.63,0,1.26,0,1.89,0,1.24.02,2.47.02,3.71,0,.62,0,1.23.01,1.85,0,.59.02,1.19.04,1.78.04,1.16.11,2.32.18,3.48.09,1.26.19,2.51.27,3.77.08,1.24.14,2.48.2,3.72.06,1.23.11,2.47.17,3.7.06,1.25.13,2.51.2,3.76.06,1.08.14,2.16.2,3.22,0,.15.02.29.03.44,0,0,0,.02,0,.03,0,0,0,0,0,.01.08,1.21.17,2.42.3,3.63.13,1.27.29,2.54.44,3.81.14,1.22.29,2.45.43,3.68.14,1.24.28,2.49.43,3.73.2,1.62.44,3.24.75,4.81.06.29.13.58.21.87.06.24.13.48.21.72.15.41.31.83.5,1.22.03.06.06.11.09.17.08.15.04.33-.11.42-.05.03-.1.04-.15.04-.11,0-.21-.05-.26-.15Z"/>
        <path class="cls-7" d="M63.29,46.64s0,.02,0,.02c0,0,0,0,0,.01,0-.01,0-.02,0-.04Z"/>
        <path class="cls-7" d="M1.94,46.67s0-.02,0-.02c0,.01,0,.02,0,.04,0,0,0,0,0-.01Z"/>
        <path class="cls-7" d="M64.73,31.41s0-.01,0-.02c0,0,0,.02,0,.03,0,0,0,0,0-.01Z"/>
        <path class="cls-7" d="M.5,31.39s0,.01,0,.02c0,0,0,0,0,.01,0,0,0-.02,0-.03Z"/>
        <path class="cls-7" d="M32.62,78.36s0,0,0,0c-.56,0-1.11,0-1.67,0-.53,0-1.05-.02-1.58-.05-.37-.02-.75-.04-1.12-.06-.39-.02-.78-.03-1.17-.06-.3-.02-.6-.04-.91-.08-.3-.03-.61-.08-.91-.12-.65-.09-1.3-.18-1.94-.28-1.04-.15-2.08-.3-3.1-.51-.05,0-.09-.02-.1-.02-1.26-.26-2.52-.58-3.75-.97-.5-.16-.99-.33-1.48-.5-.61-.21-1.22-.44-1.82-.68-.6-.23-1.18-.49-1.76-.75-.39-.18-.77-.37-1.16-.55-.38-.18-.76-.37-1.12-.55l-.03-.02s-.05-.02-.05-.03c0,0-.02,0-.02-.01,0,0,0,0-.04-.02-.57-.29-1.13-.59-1.66-.94-.53-.35-1.02-.77-1.45-1.24-.25-.27-.47-.56-.69-.86-.05-.06-.09-.13-.14-.19-.06-.08-.13-.17-.17-.26-.04-.09-.05-.2-.02-.3.02-.07.05-.14.13-.17.07-.02.16,0,.22.03.12.05.2.15.25.22.24.36.5.7.78,1.03.22.24.46.47.7.69.21.18.42.34.64.5.54.35,1.09.66,1.63.94l.05.03s.04.02.07.03c.02.01.04.02.05.02,0,0,.01,0,.02,0,1.17.58,2.35,1.16,3.56,1.66.74.31,1.5.59,2.26.85.07.02.14.05.2.07.61.21,1.22.41,1.84.6.63.19,1.26.35,1.9.51.36.09.72.17,1.05.24.05.01.1.02.12.02.04,0,.09.02.11.02,1.25.25,2.52.43,3.79.61.97.14,1.94.29,2.92.36.04,0,.08,0,.1,0,.6.04,1.21.06,1.81.09.53.03,1.06.06,1.6.06.69,0,1.37,0,2.06.01,0,0,0,0,0,0,0,0,0,0,0,0,.69,0,1.37,0,2.06-.01.53,0,1.06-.04,1.6-.06.6-.03,1.21-.05,1.79-.09.04,0,.08,0,.12,0,.98-.07,1.95-.22,2.92-.36,1.27-.18,2.53-.36,3.76-.6.04,0,.09-.02.09-.02.05-.01.1-.02.13-.03.36-.07.72-.15,1.08-.24.64-.15,1.27-.32,1.9-.51.62-.19,1.23-.39,1.84-.6.07-.02.14-.05.2-.07.76-.27,1.51-.55,2.26-.85,1.21-.5,2.39-1.08,3.56-1.66h0s.04-.02.06-.03c.02-.01.04-.02.08-.04.57-.29,1.13-.6,1.67-.95.22-.16.43-.32.64-.5.25-.22.48-.45.7-.69.28-.33.54-.67.76-1,.07-.11.15-.2.27-.25.06-.03.15-.05.22-.03.07.02.11.1.13.17.03.1.01.21-.02.3-.04.1-.11.18-.17.26-.05.06-.09.13-.14.19-.21.3-.44.59-.69.86-.43.47-.92.89-1.45,1.24-.53.35-1.09.66-1.63.92-.03.01-.05.03-.06.03,0,0,0,0-.01,0,0,0-.02,0-.04.02-.02.01-.04.02-.05.03-.37.19-.75.37-1.13.56-.38.19-.77.37-1.16.55-.58.27-1.17.52-1.76.75-.6.23-1.21.46-1.82.68-.49.17-.99.34-1.48.5-1.23.39-2.48.71-3.71.96-.05,0-.09.02-.13.03-1.03.21-2.07.36-3.1.51-.65.09-1.3.19-1.94.28-.3.04-.61.08-.91.12-.3.03-.6.06-.9.07-.39.03-.78.04-1.17.06-.37.02-.75.04-1.12.06-.53.03-1.05.04-1.58.05-.56,0-1.11,0-1.67,0h0s0,0,0,0Z"/>
        <path class="cls-7" d="M38.16,78.19s-.02,0-.03,0c.01,0,.02,0,.03,0Z"/>
        <path class="cls-7" d="M27.08,78.19s.02,0,.03,0c-.01,0-.02,0-.03,0Z"/>
        <path class="cls-7" d="M38.11,77.59s-.01,0-.02,0c0,0,.01,0,.02,0Z"/>
        <path class="cls-7" d="M27.12,77.59s.01,0,.02,0c0,0-.01,0-.02,0Z"/>
        <path class="cls-7" d="M55.94,72.64s0,0,0,0c0,0,0,0,0,0,0,0,0,0,0,0Z"/>
        <path class="cls-7" d="M9.3,72.64s0,0,0,0c0,0,0,0,0,0,0,0,0,0,0,0Z"/>
      </g>
    </g>
  </g>
</svg>