<?xml version="1.0" encoding="UTF-8"?>
<svg id="Layer_2" data-name="Layer 2" xmlns="http://www.w3.org/2000/svg" viewBox="0 0 86.13 41.08">
  <defs>
    <style>
      .cls-1 {
        opacity: .31;
      }

      .cls-1, .cls-2, .cls-3, .cls-4, .cls-5, .cls-6, .cls-7, .cls-8, .cls-9 {
        fill-rule: evenodd;
      }

      .cls-2 {
        fill: #c66b5e;
      }

      .cls-3 {
        fill: #924234;
      }

      .cls-4 {
        fill: #a84a3c;
      }

      .cls-5 {
        fill: #6d3126;
      }

      .cls-6 {
        fill: #57271f;
      }

      .cls-7 {
        fill: #331713;
      }

      .cls-8 {
        fill: #451e19;
      }

      .cls-9 {
        fill: #7f392d;
      }
    </style>
  </defs>
  <g id="Layer_1-2" data-name="Layer 1">
    <g>
      <g>
        <path class="cls-9" d="M85.51,30.17c-.02-.16,0-.31.03-.46.1-.44.45-.88.52-1.23.07-.36-.14-.63-.3-.94-.16-.32-.28-.68-.29-1.09-.01-.41.08-.86.05-1.45-.03-.59-.19-1.31-.03-1.85.16-.54.64-.9.65-1.25.01-.35-.45-.68-.64-1.05-.19-.36-.13-.75-.02-1.16.1-.41.24-.85.22-1.18-.02-.33-.21-.55-.29-.89-.08-.34-.06-.81-.18-1.18-.13-.37-.4-.64-.5-.98-.1-.34-.03-.76.11-1.13.15-.37.38-.71.49-1.23.11-.52.11-1.21.11-1.71,0-.5,0-.79-.49-1-.49-.2-1.48-.3-2.05-.48-.57-.17-.73-.42-1.53-.59-.79-.17-2.21-.28-3.28-.47-1.07-.19-1.78-.48-2.44-.81-.67-.34-1.28-.72-2.19-1.07-.91-.34-2.1-.64-3.02-.79-.32-.05-.6-.09-.88-.1-.03-.01-.09-.02-.18-.03-.26-.04-.79-.11-1.53-.16-.74-.05-1.71-.07-2.52-.19-.81-.12-1.46-.34-2.4-.64-.93-.3-2.15-.67-3.2-.89-1.05-.21-1.93-.26-2.88-.35-.94-.08-1.95-.19-2.6-.32-.65-.13-.95-.29-1.2-.43-.22-.12-.4-.22-.54-.3h0s0,0,0,0h0s0,0,0,0c-.39-.22-.76-.43-1.11-.59-.61-.28-1.14-.43-1.95-.52-.81-.09-1.92-.13-2.78-.26-.86-.14-1.48-.37-2.09-.61-.61-.24-1.2-.48-1.83-.63-.63-.14-1.3-.18-1.82-.13-.53.05-.92.19-1.42.22-.5.03-1.12-.06-1.83.14-.71.2-1.51.69-2.42.96-.23.07-.47.13-.72.17-.01,0-.03,0-.06,0-.06.01-.16.03-.35.07-.4.07-.79.14-1.13.23-.68.14-1.59.34-2.34.57-.94.29-1.67.64-2.31.79-.33.08-.63.11-.89.12-.11,0-.23-.01-.34-.02-.81-.03-1.62.03-2.14.16-.53.12-.78.3-1.27.36-.49.05-1.23-.03-1.95.03-.72.06-1.43.25-2.11.62-.68.37-1.32.91-2.13,1.21-.81.3-1.8.35-2.69.42-.89.07-1.7.16-2.55.33-.85.17-1.74.41-2.69.56-.95.15-1.96.2-2.98.52-1.02.32-2.05.92-3.08,1.36-1.03.44-2.06.72-2.55,1.36-.48.64-.41,1.63-.45,2.34-.03.7-.17,1.11-.09,1.46.09.35.4.65.56.96.17.31.19.62.11.98-.08.36-.26.75-.36,1.07-.09.32-.09.57-.02.81.07.25.21.5.11.72-.09.22-.41.4-.53.53-.11.13-.02.22.09.89.11.68.25,1.94.28,2.86.02.92-.07,1.49-.25,2-.18.52-.46.98-.39,1.58.03.24.11.49.22.75.03.11.07.25.12.51.08.44.2,1.2.13,1.75-.01.1-.03.19-.05.28.01.17.09.34.35.55.42.34,1.32.78,2.23,1.06.91.28,1.83.41,2.72.74.89.32,1.77.84,3.12,1.21,1.35.37,3.19.61,4.84.89,1.65.28,3.12.62,4.06,1,.94.37,1.35.79,2.06,1.05.71.26,1.72.36,2.64.56.92.19,1.74.48,2.71.68.96.21,2.06.34,3.37.63,1.31.3,2.82.76,4.08,1.03,1.26.27,2.27.35,3.16.59.89.25,1.67.66,2.43.87.76.21,1.49.21,2.11.3.62.09,1.12.27,2.09.22.38-.02.82-.08,1.31-.14.01,0,.02,0,.04,0,.12-.02.35-.05.96-.18.62-.13,1.62-.35,2.44-.67.82-.31,1.46-.71,2.24-.98.78-.26,1.7-.39,2.5-.58.8-.19,1.49-.43,2.38-.58.89-.15,1.97-.2,2.72-.26.75-.06,1.17-.11,1.38-.14.04,0,.07,0,.09-.01.73-.11,1.55-.26,2.28-.46,1.37-.38,2.45-.93,3.84-1.43,1.4-.5,3.12-.96,4.45-1.21,1.33-.26,2.27-.32,3.17-.46.89-.14,1.74-.34,2.73-.63.98-.28,2.1-.65,2.87-.9.12-.04.23-.08.34-.11.15-.07.32-.14.5-.2.87-.3,2.11-.48,3.1-.65.99-.17,1.72-.32,2.32-.48.6-.16,1.06-.32,1.28-.54.09-.09.15-.19.17-.28Z"/>
        <path class="cls-5" d="M.5,12.41s0,.09,0,.14c-.02.45-.09.78-.11,1.05.07.03.13.06.21.1.38.17.84.37.97.72.12.35-.1.86.12,1.24.21.38.86.62,1.31.9.45.28.7.61,1.1.81.4.2.96.27,1.45.13.49-.13.92-.47,1.36-.7.44-.23.89-.34,1.01-.83.11-.49-.11-1.35-.85-1.86-.74-.51-2-.67-3.43-.98-1.1-.24-2.3-.57-3.11-.71H.5ZM.84,18.32c0,.08,0,.15-.03.22-.09.22-.41.4-.53.53-.11.13-.02.22.09.89v.05c.7.2,1.14.34,1.6.37.55.03,1.12-.1,1.72-.16.6-.06,1.22-.06,1.47-.35.25-.28.14-.85-.22-1.1-.36-.25-.95-.17-1.36-.24-.41-.07-.64-.29-.95-.42-.31-.13-.7-.17-1.02-.08-.27.07-.49.24-.77.28h0ZM.62,22.1c.02.25.03.5.04.73.02.92-.07,1.49-.25,2-.18.52-.46.98-.39,1.58.03.24.11.49.22.75.03.11.07.25.12.51.03.15.06.34.09.55.31,0,.59-.03.81-.06.6-.09.69-.3.97-.55.29-.25.77-.55,1.02-.94.25-.39.28-.87.47-1.32.19-.45.56-.88.64-1.28.08-.4-.13-.78-.6-.97-.47-.19-1.2-.21-2.02-.49-.38-.13-.77-.32-1.12-.51h0ZM.5,29.14c0,.09,0,.18-.02.27-.01.1-.03.19-.05.28.01.17.09.34.35.55.31.25.87.55,1.51.8.05-.06.11-.12.17-.16.21-.14.5-.17.73-.36.23-.18.39-.52.2-.71-.19-.19-.73-.25-1.12-.37-.4-.12-.65-.32-1.08-.35-.2-.01-.45,0-.69.05H.5ZM3.44,31.42c.15-.12.28-.24.38-.37.4-.5.34-1.07.54-1.51.2-.45.67-.78,1.55-.76.88.02,2.18.41,3.29.52,1.12.11,2.05-.04,2.66.37.61.41.88,1.38,1.4,2.02.52.64,1.29.95,1.75,1.25.47.3.64.59.73.89.09.3.12.6.33.81-.72-.18-1.53-.34-2.4-.49-1.65-.28-3.49-.52-4.84-.89-1.35-.37-2.22-.89-3.12-1.21-.75-.27-1.52-.41-2.29-.61h0ZM19.2,35.89c.19.11.39.21.62.29.71.26,1.72.36,2.64.56.92.19,1.74.48,2.71.68.2.04.41.08.62.12.14-.05.27-.1.38-.16.47-.23.72-.48,1.2-.7.48-.21,1.19-.38,1.22-.7.02-.32-.64-.78-1.28-1.01-.64-.23-1.26-.21-1.88-.31-.62-.1-1.24-.3-1.82-.3s-1.14.21-1.8.37c-.67.16-1.44.28-1.97.56-.3.16-.52.37-.62.6h0ZM32.65,39.1c1.24.26,2.24.34,3.13.59.89.25,1.67.66,2.43.87.76.21,1.49.21,2.11.3.62.09,1.12.27,2.09.22.38-.02.82-.08,1.31-.14.01,0,.02,0,.04,0,.12-.02.35-.05.96-.18.07-.02.15-.03.23-.05.21-.76.17-1.63.01-2.3-.26-1.1-.86-1.63-1.36-1.92-.5-.28-.89-.32-1.63-.25-.73.07-1.81.25-2.95.24-1.14,0-2.36-.2-3.56-.02-1.2.18-2.4.74-2.87,1.24-.48.5-.23.96-.05,1.26.03.06.07.11.1.16h0ZM30.96,34.96c.28-.17.57-.24.85-.29.28-.05.54-.07.83.03.28.1.58.33.66.52.08.19-.06.36-.15.53-.09.18-.14.37-.44.46-.3.09-.85.07-1.23.07s-.58.02-.77-.08c-.19-.1-.36-.32-.32-.56.04-.24.29-.51.57-.68h0ZM31.92,20.35c.08-.12.25-.24.55-.3.3-.05.74-.04,1.02-.06.29-.02.42-.08.59-.11.16-.03.35-.04.46.08.1.12.12.37.21.57.09.19.24.32.07.41-.17.09-.67.13-1.01.21-.34.08-.52.19-.72.25-.2.05-.42.05-.54,0-.11-.06-.11-.18-.21-.3-.1-.12-.29-.24-.39-.37-.1-.12-.11-.24-.03-.36h0ZM35.41,27.32c-.32.04-.58.13-.71.29-.13.16-.11.4,0,.56.11.16.33.23.44.34.1.12.09.28.25.36.15.08.48.09.66-.01.18-.1.23-.32.46-.48.23-.17.64-.29.79-.49.15-.2.03-.47-.14-.58-.18-.11-.42-.07-.73-.05-.31.02-.69.02-1.01.06h0ZM7.3,12.09c.09-.27.43-.34.84-.35.41,0,.88.05,1.55.07.67.02,1.54,0,1.87.12.33.13.13.42.07.67-.05.25.05.45.09.62.03.17,0,.31-.08.41-.08.1-.21.16-.43.17-.22.02-.54,0-.88.04-.33.05-.68.18-.93.15-.26-.03-.43-.22-.72-.36-.29-.15-.71-.25-1-.53-.29-.28-.46-.75-.38-1.02h0ZM36.62,20.19c-.02.31.06.61.35.78.29.17.78.22,1.35.37.57.16,1.21.42,1.67.47.46.05.75-.13,1.08-.22.33-.09.71-.09.88-.26.17-.17.12-.51-.09-.87-.21-.36-.57-.73-1.08-.9-.51-.17-1.17-.12-1.61-.17-.44-.05-.67-.2-1.02-.25-.35-.05-.82.01-1.11.21-.29.19-.41.52-.42.84h0ZM16.24,17.65c-.03-.18.18-.32.52-.35.33-.03.78.05,1.23.08.45.04.91.03,1.19.12.28.09.37.29.23.42-.14.13-.5.19-.84.28-.33.08-.63.19-.87.26-.24.07-.41.12-.54.08-.13-.04-.22-.15-.41-.32-.19-.17-.48-.4-.51-.58h0ZM6.11,23.57c.11-.12.49-.23.99-.21.5.02,1.12.17,1.3.27.18.11-.09.17-.28.27-.19.1-.32.23-.53.29s-.51.07-.68.04c-.17-.04-.2-.12-.28-.18-.07-.06-.19-.09-.33-.17-.14-.08-.3-.2-.19-.32h0ZM20.23,22.63c.15-.18.32-.44.64-.55.32-.11.8-.06,1.23-.01.42.05.79.1.99.28.2.18.24.49.37.72.14.23.38.37.19.47-.19.1-.81.16-1.26.23s-.72.15-1.23.16c-.51,0-1.26-.05-1.69-.19-.44-.14-.56-.36-.46-.49.1-.13.44-.18.68-.25.24-.07.39-.18.54-.36h0ZM13.23,27.97c0,.21.18.26.38.38s.45.3.72.4c.27.11.57.14.86.08.29-.06.58-.21.79-.42.21-.21.33-.49.21-.67-.13-.17-.5-.25-.73-.37-.22-.13-.29-.32-.58-.39-.29-.07-.81-.03-1.15.18-.34.21-.5.58-.49.8h0ZM38.75,32.59c-.79.14-1.8.25-2.33.5-.53.25-.57.64-.28.75.3.11.94-.06,1.44.03.5.09.87.44,1.46.62.58.18,1.39.19,1.81-.06.42-.25.47-.77.38-1.2-.09-.43-.32-.76-.72-.85-.4-.09-.97.06-1.77.2h0ZM25.87,26.15c.21-.2.87-.55,1.35-.69.48-.14.78-.08.88.1.1.18.01.48,0,.69-.01.21.06.34-.25.36-.31.02-1-.07-1.47-.14-.47-.07-.72-.12-.52-.32h0ZM17.39,31.89c.07-.28.57-.56,1.1-.5s1.08.45,1.67.66c.6.21,1.24.25,1.22.4-.02.15-.71.41-1.38.48-.67.07-1.31-.05-1.81-.25-.5-.21-.87-.5-.8-.79h0ZM38.08,28.06c.34-.21.62-.39,1.14-.54.52-.16,1.29-.29,2.07-.25.78.04,1.57.25,1.82.55.25.3-.05.71-.13,1.33-.08.63.06,1.48-.29,1.95-.34.47-1.17.54-1.87.33-.7-.21-1.27-.72-1.83-.96-.56-.25-1.11-.23-1.46-.48-.34-.25-.48-.75-.34-1.12.14-.37.55-.6.89-.81h0ZM21.36,18.64c.41-.21,1.03-.33,1.42-.14.39.19.55.68,1.02.98.47.3,1.25.42,1.57.59.32.17.18.39-.24.48-.42.1-1.14.07-1.71.14-.57.07-1.01.24-1.66.2-.65-.04-1.53-.28-1.77-.56-.24-.27.15-.57.45-.87.3-.3.5-.61.92-.83h0ZM17.31,24.36c.24-.12.91-.36,1.66-.29.76.06,1.61.43,2.45.61.85.18,1.7.18,2.25.3.55.12.8.37.55.58-.25.21-1.01.37-1.59.67-.58.3-1,.72-1.55.94-.55.22-1.24.23-1.65.13-.41-.1-.55-.32-.91-.61-.36-.29-.93-.65-1.15-1.03-.22-.37-.08-.76-.1-.96-.02-.2-.21-.21.03-.34h0ZM7.26,25.03c.24-.29.84-.48,1.47-.49.63,0,1.3.17,1.82.19.53.01.92-.14,1.31-.21.39-.06.78-.04.97.27.19.31.19.9-.14,1.27-.33.37-1,.51-1.44.72-.45.21-.68.5-1.15.61-.47.12-1.18.06-1.51-.08-.33-.15-.29-.39-.45-.61-.16-.22-.53-.41-.77-.7-.24-.29-.36-.68-.11-.97h0ZM11.02,15.55c-.36.17-.65.46-.73.76-.08.3.06.61.33.65.28.05.69-.17,1.12-.31.44-.14.89-.19,1.12-.41.23-.22.23-.61.08-.8-.15-.19-.45-.19-.8-.16-.36.03-.77.1-1.12.27h0ZM17.73,14.79c0,.69.5,1.47,1.8,1.99,1.3.52,3.38.79,4.77,1.18,1.39.38,2.08.87,2.68,1.25.61.38,1.14.65,1.82.61.69-.04,1.54-.39,2.66-.56,1.12-.17,2.52-.17,3.22-.43.7-.26.7-.78.64-1.56-.06-.79-.17-1.85-1.2-2.47-1.03-.62-2.98-.8-5.08-1.05-2.1-.25-4.35-.58-6.09-.73-1.74-.16-2.98-.14-3.85.17-.87.31-1.38.92-1.38,1.61h0ZM16.77,29.58c.57-.31,2-.75,3.39-.81,1.4-.06,2.78.25,3.88.26,1.1.01,1.93-.27,3-.5,1.08-.23,2.41-.39,3.55-.43,1.15-.03,2.11.07,2.28.36.17.29-.45.77-.61,1.23-.16.47.14.92.6,1.46.46.54,1.08,1.18,1.12,1.76.05.59-.48,1.13-.97,1.25-.49.12-.95-.17-1.82-.39-.87-.22-2.16-.36-3.2-.54-1.04-.18-1.85-.4-2.52-.81-.68-.41-1.23-1-2.11-1.31-.88-.31-2.1-.34-3.26-.43-1.16-.1-2.26-.26-2.95-.44-.69-.17-.96-.36-.39-.67h0ZM24.98,22.29c.78-.17,2.02-.43,3.25-.47,1.23-.05,2.44.12,3.43.13.99,0,1.74-.15,2.47-.09.72.06,1.41.33,1.87.74.46.41.69.97,1.2,1.29.52.32,1.32.39,1.77.63.45.24.54.64.33.86-.21.22-.71.26-1.1.37-.39.12-.67.31-1.11.43-.45.12-1.07.17-1.72-.01-.65-.19-1.34-.61-1.96-.87-.62-.26-1.17-.35-1.65-.58-.48-.23-.89-.59-1.47-.83-.57-.25-1.31-.37-2.06-.31-.76.06-1.54.32-2.04.28-.5-.04-.73-.37-1.12-.63-.39-.26-.94-.44-1.05-.57s.21-.21.99-.37h0ZM5.95,21.85c0,.48.55.62.99.67.44.05.76.01,1.14.1.38.09.81.31,1.31.39.49.08,1.04.01,1.7-.16.65-.17,1.41-.44,2.4-.48.99-.05,2.2.14,3.25,0,1.04-.13,1.92-.57,2.13-1.05.22-.48-.22-1-.8-1.25-.58-.25-1.32-.24-1.89-.52-.57-.28-.99-.85-1.57-1.13-.58-.28-1.34-.28-2.06-.05-.72.23-1.41.7-2.32.96-.91.26-2.03.33-2.87.77-.84.44-1.39,1.25-1.39,1.73Z"/>
        <path class="cls-6" d="M85.51,30.17c-.02-.16,0-.31.03-.46.1-.44.45-.88.52-1.23.07-.36-.14-.63-.3-.94-.16-.32-.28-.68-.29-1.09-.01-.41.08-.86.05-1.45-.03-.59-.19-1.31-.03-1.85.16-.54.64-.9.65-1.25.01-.35-.45-.68-.64-1.05-.19-.36-.13-.75-.02-1.16.1-.41.24-.85.22-1.18-.02-.33-.21-.55-.29-.89-.08-.34-.06-.81-.18-1.18-.13-.37-.4-.64-.5-.98-.1-.34-.03-.76.11-1.13.15-.37.38-.71.49-1.23.11-.52.11-1.21.11-1.71,0-.5,0-.79-.49-1-.49-.2-1.48-.3-2.05-.48-.57-.17-.73-.42-1.53-.59-.79-.17-2.21-.28-3.28-.47-1.07-.19-1.78-.48-2.44-.81-.67-.34-1.28-.72-2.19-1.07-.91-.34-2.1-.64-3.02-.79-.32-.05-.6-.09-.88-.1-.02,0-.05-.01-.09-.02-.2.06-.39.11-.58.17-4.08,1.21-6.58,2.69-9.53,3.77-2.95,1.07-6.34,1.75-9.19,2.57-2.84.83-5.14,1.81-6.61,2.38-1.47.57-2.11.72-2.43,1.63-.32.91-.3,2.57-.07,3.86.23,1.29.68,2.22.72,3.25.04,1.03-.33,2.17-.51,3.43-.18,1.27-.18,2.66.14,3.95.32,1.29.96,2.48,1.1,3.39.14.9-.23,1.53-.28,2.17-.05.65.23,1.32.22,2.08,0,.71-.26,1.5-.33,2.38.09,0,.18,0,.28,0,.38-.02.82-.08,1.31-.14.01,0,.02,0,.04,0,.12-.02.35-.05.96-.18.62-.13,1.62-.35,2.44-.67.82-.31,1.46-.71,2.24-.98.78-.26,1.7-.39,2.5-.58.8-.19,1.49-.43,2.38-.58.89-.15,1.97-.2,2.72-.26.75-.06,1.17-.11,1.38-.14.04,0,.07,0,.09-.01.73-.11,1.55-.26,2.28-.46,1.37-.38,2.45-.93,3.84-1.43,1.4-.5,3.12-.96,4.45-1.21,1.33-.26,2.27-.32,3.17-.46.89-.14,1.74-.34,2.73-.63.98-.28,2.1-.65,2.87-.9.12-.04.23-.08.34-.11.15-.07.32-.14.5-.2.87-.3,2.11-.48,3.1-.65.99-.17,1.72-.32,2.32-.48.6-.16,1.06-.32,1.28-.54.09-.09.15-.19.17-.28Z"/>
        <path class="cls-8" d="M86.03,28.55c-.21-.17-.37-.33-.47-.48-.26-.37-.11-.59.06-.83.04.1.08.2.13.29.16.32.37.59.3.94,0,.02-.01.05-.02.07h0ZM85.49,24.73c-.05-.49-.14-1.04-.04-1.48-.44.2-.89.36-.87.65.02.27.46.65.91.83h0ZM85.39,20.58c-.06-.29,0-.59.07-.9.1-.41.24-.85.22-1.18-.02-.33-.21-.55-.29-.89-.05-.23-.06-.52-.1-.8-.14-.14-.27-.29-.37-.44-.44-.65-.4-1.35-.59-1.63-.19-.27-.61-.11-1.31.11-.7.22-1.69.5-2.13.74-.44.24-.35.45-.38.75-.03.3-.2.69-.09,1.1.11.41.5.83.72,1.28.22.45.26.92.54,1.29.27.37.78.64,1.36.68.58.04,1.23-.15,2.19-.12.05,0,.11,0,.16,0h0ZM85.33,13.01c.1-.51.1-1.16.1-1.64,0-.5,0-.79-.49-1-.45-.18-1.3-.28-1.88-.43-.28.11-.35.25-.24.51.11.28.44.71.56,1.13.13.42.06.83.35,1.08.29.25.94.33,1.51.34.03,0,.06,0,.09,0h0ZM44.18,14.69c-.22.09-.42.17-.61.24-1.47.57-2.11.72-2.43,1.63-.18.51-.25,1.25-.24,2.03.96-.27,2.09-.44,2.93-.9.9-.49,1.46-1.3,1.44-1.87-.02-.57-.62-.9-1.04-1.12l-.05-.02h0ZM41.11,20.65c.1.5.23.94.35,1.36.02.02.05.04.07.06.45.35.94.58,1.37.55.43-.03.8-.32,1.37-.66.58-.33,1.36-.71,1.6-1.08.24-.36-.05-.72-.4-.73-.36-.01-.77.31-1.29.37-.52.06-1.14-.15-1.81-.14-.47,0-.95.1-1.26.28h0ZM41.17,28.07c-.06.99,0,2.02.24,2.99.32,1.29.96,2.48,1.1,3.39.03.17.03.32.03.47.55-.1,1.01-.23,1.36-.39.6-.26.85-.59,1.32-.85.47-.26,1.16-.45,1.5-.69.34-.24.34-.52.03-.9-.31-.38-.93-.86-1.3-1.45-.37-.59-.48-1.31-.83-1.68-.35-.38-.93-.42-1.61-.52-.59-.09-1.26-.22-1.85-.36h0ZM42.41,35.75c-.07.3-.16.58-.18.87-.05.65.23,1.32.22,2.08,0,.71-.26,1.5-.33,2.38.09,0,.18,0,.28,0,.38-.02.82-.08,1.31-.14.01,0,.02,0,.04,0,.12-.02.35-.05.96-.18.5-.11,1.26-.27,1.97-.5-.01-.14-.04-.26-.09-.36-.1-.22-.3-.29-.61-.47-.32-.18-.75-.48-.81-.82-.06-.34.26-.73.01-1.2-.25-.47-1.08-1.03-1.81-1.34-.35-.15-.67-.24-.97-.29h0ZM56.7,37.69c.1,0,.2-.01.3-.02.75-.06,1.17-.11,1.38-.14.04,0,.07,0,.09-.01.73-.11,1.55-.26,2.28-.46.14-.04.27-.08.41-.12-.1-.01-.19-.03-.29-.04-.87-.14-1.63-.44-2.23-.49-.61-.05-1.07.16-1.4.51-.21.22-.37.5-.54.78h0ZM63.19,36.16c.45-.18.9-.37,1.4-.55,1.4-.5,3.12-.96,4.45-1.21,1.33-.26,2.27-.32,3.17-.46.89-.14,1.74-.34,2.73-.63.98-.28,2.1-.65,2.87-.9.12-.04.23-.08.34-.11.06-.03.11-.05.17-.07-.08-.15-.2-.3-.34-.45-.6-.6-1.7-1.14-3.29-1.25-1.58-.1-3.64.23-5.18.27-1.54.05-2.57-.2-3.43-.36-.86-.17-1.55-.26-2.12-.04-.57.22-1.01.76-1.84,1.22-.83.46-2.06.84-2.45,1.26-.39.42.06.87.78,1.54.65.6,1.53,1.38,2.74,1.73h0ZM48.5,33.92c.26-.34.79-.41,1.23-.26.44.15.78.52,1.26.83.48.3,1.1.54,1.96.65.86.12,1.96.12,2.49.37.53.25.48.76-.19,1.1-.68.34-1.98.52-2.83.74-.85.22-1.24.48-1.65.62-.41.14-.85.17-1.4-.1-.55-.26-1.22-.82-1.42-1.27-.21-.45.05-.8.17-1.27.13-.47.13-1.07.39-1.4h0ZM51.37,30.26c-.23-.21-.69-.37-1.05-.37-.37,0-.64.14-1.01.31-.37.17-.82.38-1,.55-.18.17-.08.31.14.48.23.17.58.37.79.45.21.08.28.05.58-.13.3-.17.82-.48,1.16-.59.33-.12.48-.05.55-.15.07-.09.07-.34-.15-.55h0ZM49.05,17.76c.1-.22.09-.52-.08-.75-.17-.22-.51-.37-.76-.4-.25-.04-.42.04-.75.14-.33.1-.83.24-1.01.39-.19.16-.06.34.01.52.07.18.09.36.33.51.24.15.69.26,1.02.27.33.01.54-.08.74-.2.2-.12.4-.26.5-.48h0ZM60.78,30.8c.03.13,0,.28-.22.41-.22.13-.61.23-.85.33-.23.1-.3.19-.42.26-.11.07-.27.13-.47.06-.19-.08-.43-.29-.67-.44-.24-.14-.49-.22-.41-.34.08-.12.48-.3.7-.46.23-.16.29-.31.42-.41.13-.1.33-.16.48-.14.15.02.25.13.44.21.19.08.47.13.66.21.19.08.3.18.33.31h0ZM51.72,25.65c.24-.12.4-.27.37-.45-.03-.18-.24-.38-.48-.49-.23-.1-.49-.11-.68-.18-.19-.07-.32-.22-.53-.25-.21-.03-.49.05-.57.19-.07.14.07.34.02.55-.06.21-.31.43-.27.64.04.21.37.42.63.47.25.05.42-.06.68-.16.25-.1.58-.21.83-.33h0ZM56.8,32.22c-.25-.28-.58-.52-.98-.59-.4-.07-.87.02-1.5.04-.63.02-1.42-.04-1.86.05-.45.09-.55.32-.76.49-.22.17-.55.27-.55.46,0,.19.33.48.82.74.49.26,1.13.49,1.72.49.59,0,1.12-.21,1.56-.29.43-.07.76,0,1.11-.06.34-.06.71-.24.79-.48.09-.25-.09-.57-.35-.85h0ZM76.81,28.87c.19.15.11.33-.15.44-.27.12-.72.17-1.15.26-.43.09-.82.22-1.14.22-.32,0-.57-.15-.56-.3,0-.15.27-.31.49-.47.22-.16.39-.34.53-.47.14-.13.25-.22.4-.22.15,0,.33.07.64.17.31.1.76.22.94.37h0ZM80.59,20.93c0,.13-.23.33-.68.45-.45.12-1.12.16-1.37.11-.25-.04-.07-.17.01-.31.09-.14.09-.29.21-.4.13-.12.38-.2.56-.22.18-.01.28.05.4.08.12.03.24.03.43.06.19.03.43.09.44.23h0ZM69.05,25.61c.02.2.1.47-.09.65-.19.18-.65.27-1.06.35-.41.07-.78.13-1.11.03-.33-.1-.63-.37-.94-.53-.31-.16-.65-.22-.57-.36.08-.14.57-.36.9-.54.33-.18.51-.32.94-.47.44-.15,1.14-.3,1.64-.3s.8.16.82.3c.02.14-.23.27-.38.41-.15.13-.19.26-.17.46h0ZM81.21,14.19c-.26.19-.68.47-1.08.56-.4.09-.79,0-1.24,0-.45,0-.97.1-1.3-.02-.33-.12-.48-.46-.44-.68.04-.22.28-.33.34-.51.06-.18-.05-.42-.06-.59-.01-.16.07-.24.44-.25.37-.01,1.04.04,1.76.08.72.04,1.49.08,1.85.26.35.17.29.48.2.68-.09.2-.2.28-.46.47h0ZM70.56,19.02c.19.18.37.56.26.83-.12.28-.53.46-.84.47-.32.02-.54-.13-.85-.18-.31-.05-.7-.01-.96-.13-.26-.12-.39-.4-.39-.64,0-.24.12-.45.33-.58s.49-.18.82-.16c.33.02.69.11.97.16.28.05.48.04.66.23h0ZM61.08,24.08c0,.23-.29.72-.59.97-.3.26-.62.28-.86.15-.25-.13-.42-.42-.59-.6-.17-.19-.34-.28-.09-.39.25-.1.93-.21,1.41-.28.47-.07.74-.09.73.14h0ZM63.56,16.74c.18.27-.02.64-.53.74-.51.09-1.33-.1-2.03-.12-.71-.02-1.3.12-1.41-.02-.11-.14.27-.55.79-.79.52-.24,1.18-.32,1.8-.27.62.04,1.2.2,1.38.47h0ZM57.26,15.45c-.44.32-.75.65-1.26.81-.51.16-1.23.15-1.86.23-.62.08-1.16.26-1.91.24-.76-.02-1.74-.25-1.99-.53s.22-.62.46-.94c.24-.32.24-.61.45-.94.22-.33.65-.68,1.51-.94.86-.26,2.14-.42,3.17-.45,1.03-.03,1.82.08,2.29.36.46.28.6.74.38,1.13-.22.39-.8.7-1.25,1.02h0ZM48.76,25.73c.12-.27.28-.59.09-.95-.2-.36-.75-.76-1.26-.88-.51-.12-.98.04-1.69-.02-.7-.06-1.64-.35-2.43-.34-.8,0-1.45.3-1.35.8.1.5.95,1.21,1.42,1.78.47.57.55,1,1.03,1.2.48.2,1.35.16,2.06-.01s1.27-.5,1.6-.78c.32-.28.41-.51.53-.79h0ZM71.49,29.41c-.18.3-.62.57-1.12.51-.5-.06-1.07-.44-1.74-.58-.67-.14-1.45-.03-1.88-.08-.43-.06-.49-.29-.21-.49.29-.2.93-.37,1.37-.59.44-.22.68-.48,1.28-.63.61-.14,1.58-.17,2.02,0,.44.17.36.54.36.89,0,.35.09.67-.09.97h0ZM70.11,23.3c.1-.17-.07-.13-.26-.3-.19-.17-.41-.55-.92-.81-.51-.27-1.33-.43-1.89-.59-.56-.16-.87-.31-1.32-.29-.45.02-1.04.22-1.33.56-.29.34-.29.83-.54,1.25-.26.42-.77.77-.82,1.02-.04.25.39.4.98.35.59-.04,1.33-.27,2.23-.35.9-.07,1.95.01,2.67-.14.72-.15,1.1-.54,1.2-.71h0ZM78.31,19.96c-.04-.32-.47-.63-.93-.82-.46-.19-.95-.26-1.28-.41-.33-.15-.5-.38-.92-.41-.42-.04-1.08.11-1.4.34-.31.23-.27.54-.47.85-.21.31-.67.61-.64,1.03.03.41.54.93.98,1.15.44.22.8.13,1.09-.03.29-.16.49-.41.97-.54.47-.13,1.21-.16,1.76-.33.55-.18.9-.51.86-.83h0ZM83.19,29.29c.16-.25.18-.58,0-.86-.19-.28-.57-.52-.85-.48-.28.04-.45.34-.72.58-.26.24-.62.41-.63.66-.01.25.32.59.62.72.3.13.56.05.84-.08.28-.13.59-.29.75-.54h0ZM76.62,11.97c.18-.62.16-1.23-.46-1.55-.63-.32-1.87-.34-3.97-.03-2.11.32-5.08.97-7.26,1.42-2.18.45-3.57.69-4.09,1-.52.31-.17.7.24.88.41.18.87.16,1.25.28.38.12.66.39,1,.62.34.24.74.44,1.4.57.67.13,1.6.2,2.61.62,1.01.42,2.08,1.19,2.96,1.38.88.19,1.56-.2,2.64-.41,1.07-.21,2.54-.22,3.33-.44.79-.22.91-.64.7-1.09-.21-.45-.75-.92-.83-1.47-.08-.55.3-1.18.48-1.79h0ZM66.09,18.59c-.23.43-1.1,1.2-2.27,1.64-1.17.44-2.64.54-3.61.83-.97.29-1.45.76-2.2,1.26-.75.49-1.77,1-2.74,1.34-.98.34-1.91.51-2.31.31-.4-.21-.27-.79-.53-1.25-.26-.45-.91-.76-1.78-1.11-.87-.35-1.95-.73-2.5-1.24-.55-.5-.55-1.12-.23-1.36.33-.24.98-.11,1.93-.15.95-.05,2.2-.27,3.27-.4,1.07-.13,1.96-.15,2.9.02.94.17,1.93.54,2.97.57,1.04.03,2.12-.28,3.22-.51,1.1-.23,2.2-.39,2.96-.42.75-.04,1.15.05.91.48h0ZM65.18,27.21c-.54.36-1.4.92-2.43,1.3-1.03.37-2.24.56-3.11.82-.87.26-1.4.61-2.08.75-.68.15-1.52.1-2.27-.14-.76-.24-1.44-.66-2.16-.8-.72-.14-1.49.02-2.09-.07s-1.02-.41-1.03-.66c0-.25.4-.42.64-.63.24-.21.31-.45.6-.68.29-.23.78-.44,1.52-.46.73-.01,1.7.17,2.47.23.76.06,1.32-.01,1.94.05.62.07,1.29.27,2,.33.71.06,1.47-.03,2.07-.29.61-.26,1.07-.7,1.54-.81.47-.1.96.13,1.53.25.56.12,1.2.13,1.41.21.21.08,0,.24-.54.6h0ZM82.21,22.39c-.41-.42-1.02-.39-1.44-.32-.43.07-.67.2-1.08.22-.41.02-.98-.05-1.48.02-.5.07-.92.27-1.35.6-.43.33-.86.77-1.68,1.08-.82.31-2.04.48-2.84.88-.8.4-1.19,1.02-.96,1.5.22.48,1.05.81,1.78.87.73.06,1.36-.15,2.1-.06.74.09,1.59.47,2.35.56.76.09,1.42-.12,1.85-.52.43-.4.63-1,1.2-1.48.56-.48,1.49-.84,1.85-1.46.35-.61.13-1.48-.28-1.89Z"/>
        <path class="cls-3" d="M85.23,10.56c-.07-.07-.16-.12-.29-.17-.49-.2-1.48-.3-2.05-.48-.57-.17-.73-.42-1.53-.59-.79-.17-2.21-.28-3.28-.47-1.07-.19-1.78-.48-2.44-.81-.67-.34-1.28-.72-2.19-1.07-.91-.34-2.1-.64-3.02-.79-.32-.05-.6-.09-.88-.1-.03-.01-.09-.02-.18-.03-.26-.04-.79-.11-1.53-.16-.74-.05-1.71-.07-2.52-.19-.81-.12-1.46-.34-2.4-.64-.93-.3-2.15-.67-3.2-.89-1.05-.21-1.93-.26-2.88-.35-.94-.08-1.95-.19-2.6-.32-.65-.13-.95-.29-1.2-.43-.22-.12-.4-.22-.54-.3h0s0,0,0,0h0s0,0,0,0c-.39-.22-.76-.43-1.11-.59-.61-.28-1.14-.43-1.95-.52-.81-.09-1.92-.13-2.78-.26-.86-.14-1.48-.37-2.09-.61-.61-.24-1.2-.48-1.83-.63-.63-.14-1.3-.18-1.82-.13-.53.05-.92.19-1.42.22-.5.03-1.12-.06-1.83.14-.71.2-1.51.69-2.42.96-.23.07-.47.13-.72.17-.01,0-.03,0-.06,0-.06.01-.16.03-.35.07-.4.07-.79.14-1.13.23-.68.14-1.59.34-2.34.57-.94.29-1.67.64-2.31.79-.33.08-.63.11-.89.12-.11,0-.23-.01-.34-.02-.81-.03-1.62.03-2.14.16-.53.12-.78.3-1.27.36-.49.05-1.23-.03-1.95.03-.72.06-1.43.25-2.11.62-.68.37-1.32.91-2.13,1.21-.81.3-1.8.35-2.69.42-.89.07-1.7.16-2.55.33-.85.17-1.74.41-2.69.56-.95.15-1.96.2-2.98.52-1.02.32-2.05.92-3.08,1.36-1.02.43-2.04.72-2.53,1.34.51.12.92.21,1.49.49.63.31,1.46.86,2.42,1.19.96.34,2.06.47,3.26.79,1.19.32,2.48.84,3.76,1.19,1.28.35,2.57.53,3.69.81,1.12.28,2.09.67,3.69.93,1.61.26,3.85.39,5.46.69,1.61.3,2.57.76,3.35,1.2.78.44,1.38.85,2.39,1.12,1.01.27,2.43.4,3.76.56,1.33.16,2.57.34,3.44.48.87.14,1.38.25,1.88.44.5.19,1.01.48,1.33.59.32.12.46.06.99-.13.53-.19,1.44-.53,2.8-.71,1.35-.18,3.14-.21,4.54-.43,1.4-.22,2.41-.63,3.23-.94.83-.31,1.47-.52,2.36-.66.89-.14,2.04-.22,2.98-.45.94-.23,1.67-.62,2.82-.85,1.15-.23,2.71-.31,3.97-.44,1.26-.13,2.22-.31,3.26-.45,1.03-.14,2.13-.25,3.23-.7,1.1-.45,2.2-1.25,3.14-1.74.94-.49,1.72-.67,2.82-.81,1.1-.14,2.52-.25,3.55-.49,1.03-.25,1.67-.63,2.94-.96.51-.13,1.12-.25,1.72-.35Z"/>
        <path class="cls-4" d="M82.16,9.59c-.2-.1-.43-.2-.8-.28-.79-.17-2.21-.28-3.28-.47-1.07-.19-1.78-.48-2.44-.81-.67-.34-1.28-.72-2.19-1.07-.91-.34-2.1-.64-3.02-.79-.32-.05-.6-.09-.88-.1-.04-.01-.09-.02-.18-.03-.26-.04-.79-.11-1.53-.16-.74-.05-1.71-.07-2.52-.19-.81-.12-1.46-.34-2.4-.64-.93-.3-2.15-.67-3.2-.89-.94-.19-1.75-.25-2.59-.32-.55.32-.96.72-1.07,1.17-.22.88.66,1.97,2.44,2.67,1.79.7,4.49,1.01,5.74,1.78,1.26.77,1.08,2,1.46,2.73.38.72,1.33.94,2.75.85,1.42-.09,3.33-.48,4.39-1.04s1.27-1.29,2-1.73c.73-.45,1.97-.61,3.34-.64,1.37-.03,2.87.06,3.98-.04h0ZM28.16,3.22c-.26.05-.51.08-.72.08-.11,0-.23-.01-.34-.02-.81-.03-1.62.03-2.14.16-.53.12-.78.3-1.27.36-.49.05-1.23-.03-1.95.03-.72.06-1.43.25-2.11.62-.24.13-.48.29-.73.45-.04.19-.09.38-.21.59-.32.6-1.12,1.31-.95,1.88.17.57,1.32,1,2.73,1.29,1.4.29,3.06.45,4.44.41,1.38-.04,2.47-.26,3.62-.72,1.15-.46,2.35-1.16,3.85-1.55,1.5-.39,3.28-.46,4.78-.69,1.5-.24,2.7-.64,2.22-1.11-.48-.47-2.65-1.02-4.47-1.23-1.81-.21-3.27-.09-4.56-.19-.8-.06-1.53-.22-2.18-.36h0ZM13.6,14.25c.69.14,1.36.26,1.98.42,1.12.28,2.09.67,3.69.93,1.61.26,3.85.39,5.46.69,1.61.3,2.57.76,3.35,1.2.78.44,1.38.85,2.39,1.12.4.11.86.19,1.36.27.01-.84-.47-2.02-1.46-2.77-1.2-.9-3.13-1.19-5.13-1.58-2-.39-4.06-.87-6.67-.83-1.62.03-3.46.25-4.97.55h0ZM44.54,6.89c.53-.15,1.21-.17,1.87.04.66.21,1.31.66,2.17.93.86.27,1.92.37,2.43.57.51.2.47.5,0,.63-.47.13-1.38.08-2.41.24-1.04.16-2.2.52-2.96.65-.76.13-1.11.04-1.38-.27-.27-.31-.46-.83-.62-1.21-.15-.39-.27-.64-.14-.91.14-.26.52-.54,1.05-.68h0ZM32.52,12.04c.44-.5,2.95-1,4.92-.87,1.97.12,3.39.86,5.08,1.3,1.69.44,3.64.58,4.7,1.05,1.06.46,1.22,1.24.06,1.8-1.16.56-3.65.9-5.86,1.18-2.21.29-4.15.52-5.11.02-.96-.5-.95-1.73-1.77-2.6-.82-.87-2.46-1.38-2.02-1.89Z"/>
        <path class="cls-2" d="M83.13,11.01c-.88.27-1.61.65-2.53.89-1.15.28-2.34.37-3.55.54-1.2.18-1.78.34-2.7.82-1.08.61-1.91,1.25-3.12,1.79-1.18.47-1.98.56-3.33.76-1.12.17-2.13.35-3.27.48-1.3.14-2.63.21-3.89.45-1.07.24-1.77.59-2.78.86-1.05.25-1.97.31-3.04.48-.9.16-1.43.34-2.21.63-1.2.46-1.96.75-3.38.99-1.55.23-3.03.25-4.56.44-.78.11-1.4.25-2.09.48-.18.06-.35.12-.53.19-.24.09-.45.17-.72.22-.17.03-.3.03-.48,0-.15-.02-.26-.05-.39-.1-.47-.18-.87-.41-1.34-.6-.56-.21-1.08-.29-1.72-.4-1.13-.18-2.25-.34-3.4-.48-1.32-.16-2.64-.27-3.87-.59-1.14-.33-1.64-.69-2.51-1.19-1.02-.58-1.76-.87-3.14-1.16-1.78-.32-3.62-.43-5.42-.72-1.56-.28-2.33-.59-3.72-.97-1.22-.31-2.44-.52-3.67-.85-1.28-.35-2.44-.87-3.72-1.23-1.09-.3-2.21-.48-3.23-.83-.87-.34-1.44-.7-2.16-1.12.76.39,1.35.73,2.24,1.04,1.03.32,2.19.47,3.29.74,1.31.35,2.49.79,3.8,1.14,1.24.31,2.48.49,3.72.78,1.35.34,2.18.64,3.67.89,1.84.26,3.66.35,5.49.65,1.54.3,2.4.62,3.56,1.25.76.43,1.27.78,2.26,1.06,1.13.28,2.45.39,3.65.52,1.18.14,2.33.29,3.48.48.78.13,1.35.23,2.04.48.47.19.88.42,1.32.59h0c.11-.03.3-.1.37-.13,0,0,.53-.19.57-.2.81-.27,1.49-.42,2.4-.55,1.52-.19,3.02-.2,4.52-.42,1.29-.22,1.99-.49,3.09-.89.89-.33,1.49-.52,2.52-.69,1-.15,1.96-.21,2.92-.43,1.04-.27,1.7-.6,2.86-.84,1.34-.24,2.67-.3,4.05-.42,1.12-.11,2.14-.28,3.24-.42,1.25-.16,2.03-.22,3.14-.64,1.2-.5,2.08-1.14,3.17-1.7,1.01-.49,1.65-.65,2.94-.81,1.2-.13,2.4-.2,3.56-.44.93-.22,1.68-.55,2.59-.81Z"/>
      </g>
      <path class="cls-1" d="M63.15,5.43c.72.1,1.72.21,2.21.26l.5.05-1.14.21c-1.14.21-3.43.63-5.67,1.11-2.24.48-4.45,1.02-6.82,1.61-2.37.59-4.91,1.24-7.04,1.73-2.13.49-3.86.82-5.49,1.09-1.63.27-3.16.49-5.25.81-2.08.32-4.72.75-6.84,1.13-2.12.38-3.73.71-5.01,1.03-1.29.32-2.26.62-2.78.84-.52.22-.59.36-.48,1.11.11.75.4,2.1.69,3.85.28,1.75.56,3.89.58,5.37.02,1.48-.21,2.3-.95,2.78-.74.48-1.99.63-3.09.56-1.09-.07-2.02-.35-2.23-.54-.17-.16.14-.26.58-.46-.97,0-2.18-.27-3.09-.86-.94-.61-1.56-1.55-2.03-3.32-.46-1.76-.77-4.35-.45-6.53.32-2.18,1.27-3.95,3.01-5.18,1.74-1.23,4.26-1.91,8.65-2.75,4.39-.84,10.65-1.84,16.5-2.84,5.85-1,11.3-2,14.46-2.57,3.16-.56,4.05-.68,4.86-.63.81.05,1.54.29,1.95.43.41.14.49.2.61.25.11.05.26.09.33.11l.07.02-.09.02c-.09.02-.28.05-.64.12-.35.06-.87.16-1.27.23-.4.08-.68.13-1.21.24-.53.11-1.3.27-1.94.41-.64.14-1.15.26-1.47.34-.32.08-.45.11-.52.13q-.07.02-.62.08c-.55.06-1.66.19-2.79.35-1.13.16-2.28.34-4.38.67-2.1.33-5.14.8-7.72,1.26-2.58.46-4.68.89-6.55,1.31-1.87.42-3.51.83-5.48,1.19-1.97.36-4.27.67-6.07,1.04-1.8.37-3.11.79-4.06,1.2-.96.41-1.57.82-1.94,1.04-.37.22-.49.24-.59.47-.11.23-.2.65-.23,2.08-.03,1.43,0,3.85.27,5.58.27,1.73.8,2.75,1.49,3.42.69.67,1.54.97,2.16,1.24.08.03.15.07.22.1.13-.37.21-.86.22-1.51.02-1.93-.63-5.28,0-7.55.63-2.27,2.53-3.45,4.01-4.35s2.53-1.53,5.87-2.03c3.35-.5,8.99-.89,14.94-1.79,5.95-.9,12.22-2.32,15.63-3.11,3.41-.79,3.97-.95,4.46-.98.5-.04.94.05,1.66.15h0ZM51.69,2.23c-.21-.15-.51-.36-1.32-.59-.8-.23-2.11-.48-4.66-.28-2.56.2-6.37.86-10.81,1.75-4.44.89-9.52,2.03-13.36,2.76-3.85.73-6.47,1.06-7.96,1.3-1.49.25-1.85.41-1.88.62-.03.21.28.48.76.7.49.22,1.15.4,3.07.18,1.92-.22,5.1-.84,8.01-1.44,2.92-.6,5.58-1.19,8.26-1.75,2.68-.57,5.39-1.11,8.02-1.54,2.63-.42,5.2-.72,6.84-.91,1.64-.18,2.35-.25,2.86-.26.51,0,.83.06.99.09l.16.03h.04s.13-.02.41-.07c.28-.04.75-.11.99-.14l.24-.03-.03-.02s-.1-.06-.2-.12c-.1-.06-.22-.16-.43-.31h0ZM82.14,9.65c-.21-.07-.37-.12-.58-.2-.21-.07-.47-.16-.79-.23-.32-.07-.68-.12-2.1.22-1.41.34-3.87,1.07-10.97,2.57-7.11,1.5-18.86,3.78-25.04,4.97-6.18,1.18-6.79,1.27-7.22,1.89s-.67,1.79-.95,4.07c-.28,2.28-.6,5.66-1.03,7.53-.43,1.87-.96,2.22-1.23,2.39q-.27.17,0,.15c.26-.03.78-.08,1.49-.18.71-.1,1.62-.25,2.26-.5.64-.25,1-.59,1.33-1.16s.64-1.37.71-2.13c.07-.77-.1-1.5-.28-2.58-.18-1.08-.37-2.5-.4-3.55-.03-1.05.11-1.72.36-2.17.24-.45.59-.69,1-.87.4-.18.86-.31,1.79-.54s2.35-.57,4.7-1.06c2.36-.49,5.66-1.13,9.05-1.88,3.39-.75,6.87-1.61,9.25-2.18,2.39-.57,3.68-.87,5.63-1.25,1.95-.39,4.55-.87,6.7-1.36,2.15-.49,3.86-.99,4.81-1.25.95-.27,1.14-.31,1.4-.33.26-.02.58-.02.85-.01.27.01.48.03.59.05h.11s0,.01-.03,0c-.03,0-.1-.02-.22-.05-.11-.03-.27-.06-.48-.13-.21-.06-.48-.15-.69-.22h0ZM73.11,7.19c-.51-.22-.82-.45-1.11-.52-.29-.06-.57.05-1.25.2s-1.75.34-3.78.74c-2.02.4-4.99,1-11.21,2.23-6.22,1.23-15.68,3.09-21,4.22-5.33,1.13-6.52,1.53-7.21,1.98-.69.45-.89.95-1.1,2.14-.21,1.19-.42,3.06-.57,4.95-.15,1.89-.23,3.81.33,5.16.56,1.35,1.75,2.13,2.63,2.59.89.45,1.47.58,2.09.57.62,0,1.27-.15,1.29-.22.01-.07-.61-.07-1.3-.43-.69-.37-1.44-1.1-1.9-2.36-.46-1.26-.64-3.06-.68-4.66-.04-1.6.05-3.01.18-3.94.12-.93.28-1.38.88-1.83.6-.45,1.63-.88,4.04-1.49,2.4-.6,6.17-1.37,9.8-2.1,3.63-.73,7.11-1.44,9.91-2.06,2.81-.63,4.94-1.17,7.81-1.77,2.86-.6,6.45-1.25,9.03-1.68,2.58-.43,4.13-.65,4.91-.75q.78-.11.67-.15c-.11-.04-.32-.12-.78-.26-.46-.14-1.17-.34-1.68-.55Z"/>
      <path class="cls-7" d="M44.64,2.66c-5.4.8-9.38,1.45-14.68,2.75-4.5,1.1-6.38,1.38-10.88,2.15-2.06.35-2.52.48-4.5.91-1.03.23-2.2-.05-2.61-.63-.41-.58.09-1.24,1.12-1.47,2.15-.47,2.6-.6,4.88-.98,4.35-.74,6.02-.97,10.38-2.04,5.79-1.42,10.1-2.11,16.17-3,.15-.02.3-.03.45-.04.44-.04,1.02-.08,1.7-.07.89.02,1.93.12,2.72.32.79.2,1.32.48,1.72.77.41.29.69.59.84.8.15.21.18.33.19.39v.06s.01,0-.17-.05c-.18-.05-.54-.15-.99-.23-.45-.08-1-.14-1.96-.09-.96.05-2.32.21-3.14.31-.82.1-1.08.14-1.22.16h-.02ZM54.18,2.45c-.18,0-.36,0-.53.04l-.88.13h0s0,0,0,0h0s0,0,0,0h0s0,0,0,0h0s0,0,0,0h0s0,0,0,0h0s-1.2.18-1.2.18c-7.69,1.13-15.52,2.01-22.84,3.81-3.64.89-5.16,1.17-8.98,1.77-3.78.6-9.11,1.74-11.45,3.59-1.38,1.09-.95,4.19-.94,5.49.03,3-.62,8.96,4.19,10.9,5.23,2.11,8.09.26,8.12-2.96.02-2.62-1.91-7.84-1.11-10.21h0c1.66-1.11,7.08-2.11,9.57-2.44,8.33-1.11,13.83-1.73,21.72-3.9,4.17-1.15,6.09-1.66,10.21-2.41h0s0,0,0,0h0s0,0,0,0h0s0,0,0,0h0s0,0,0,0h0s0,0,0,0h0s0,0,0,0h0s0,0,0,0h0s0,0,0,0h0s0,0,0,0c.05,0,.13-.02.22-.04.12-.02.27-.05.8-.14.53-.09,1.44-.24,2.11-.35.68-.11,1.12-.16,1.48-.19.35-.02.62-.02.87,0,.25.02.49.04.67.05.17.02.28.02.33.03q.05,0-.07-.12c-.12-.12-.37-.37-.75-.65-.39-.27-.92-.57-1.54-.77-.63-.2-1.36-.3-1.92-.33-.56-.04-.95-.02-1.43.04-.24.03-.51.07-.75.11-.09,0-.18.02-.27.04h-.23c-.23.03-.69.06-1.21.12-.52.06-1.09.16-1.85.26-.76.1-1.69.2-2.27.27-.51.06-.74.09-.85.11h0s0,0,0,0h0s0,0,0,0h0s0,0,0,0h0s0,0,0,0h0s0,0,0,0c-4.14.6-8.25,1.17-12.39,1.76-5.51.79-8.52,1.61-13.58,2.77-5.47,1.25-11.7,1.36-15.91,3.93-.35.98-.12,5.78-.07,6.89.09,1.77-.26,6.11,3.82,6.73,1.41-1.88-2.12-10.02-.42-12.6,1.26-1.91,9.27-3.38,12.38-3.8,7.99-1.07,13.29-1.64,20.86-3.73,4.48-1.23,6.6-1.79,11.2-2.62h0s0,0,0,0h0s0,0,0,0h0s0,0,0,0h0s0,0,0,0h0s0,0,0,0h0s0,0,0,0h0c.19-.03.37-.07.57-.1l-.09-.15c-.09-.15-.27-.44-.56-.7-.29-.26-.71-.49-1.27-.64-.57-.16-1.29-.24-2.07-.25-.55,0-1.13.04-1.61.09h0ZM71.97,5.48c-.16,0-.33.02-.49.05-.29.05-.58.1-.87.15h0s0,0,0,0c-.06,0-.11.02-.15.03-.14.02-.26.04-.32.05h-.01c-1.23.21-2.45.4-3.7.59-5.17.81-6.95,1.29-11.64,2.51-6.05,1.57-26.94,4.46-29.82,7-2.08,1.84-1.88,9.56-1.34,11.84.6,2.53,2.96,5.5,8.35,5.36,5.29-.14,4.47-3.51,4.21-5.56-.12-.98-.09-7.11.25-7.91.33-.77,7.1-1.69,8.45-1.92,6.06-1.05,9.96-2.21,15.69-3.46,6.06-1.32,11.98-2.53,18.03-3.89h0s0,0,0,0h0s0,0,0,0h0s0,0,0,0h0s0,0,0,0h0s0,0,0,0h0s0,0,0,0h0s0,0,0,0h0s0,0,0,0h0s0,0,0,0h0s0,0,0,0h0s0,0,0,0h0s0,0,0,0h0s0,0,0,0h0s.01,0,.01,0h0s0,0,0,0h0s.38-.09.38-.09c.34-.08.92-.21,1.41-.31.49-.11.89-.19,1.24-.19.36,0,.68.08.88.14.21.06.31.09.45.12.14.03.32.07.47.1.14.03.25.05.3.06h.05s0,.01-.05-.13c-.05-.14-.14-.42-.3-.66-.17-.24-.41-.45-.79-.66-.37-.21-.88-.43-1.55-.57-.67-.14-1.52-.21-2.36-.15-.17.01-.35.03-.51.05-.22,0-.45.03-.67.08-.35.08-.69.16-1.04.23v-.23c-.02-.24-.04-.71-.18-1.06-.14-.36-.39-.6-.73-.84-.33-.24-.74-.49-1.26-.63-.52-.14-1.14-.17-1.75-.14-.26.01-.52.04-.77.07h0ZM76.43,8.37s-.04,0-.1-.03c-.08-.03-.23-.1-.39-.17-.16-.07-.32-.16-.54-.24s-.5-.17-.75-.23c-.25-.06-.47-.1-.79-.09-.32,0-.74.04-1.11.09-.25.03-.48.07-.65.1-5.34.92-8.96,1.3-14.28,2.76-7.53,2.06-16.42,3.16-24.29,4.94-5.55,1.26-5.6,1.16-5.99,4.29-.27,2.16-1.63,11.16,4.26,11.02,1.17-.03.44-2.7.39-3.12-.15-1.23-.13-7.53.36-8.66,1-2.3,7.62-2.9,11.17-3.52,5.93-1.02,9.8-2.18,15.42-3.4,5.52-1.2,10.93-2.31,16.43-3.53h.03s.58-.13.58-.13h.02s.02,0,.02,0h.02s.21-.05.21-.05Z"/>
      <path class="cls-9" d="M43.8,12.19c-2.36.51-4.72,1.01-7.07,1.53-2.3.52-4.58,1.06-6.81,1.67-.7.19-1.35.38-1.96.66-.14.07-.27.13-.39.21-.3.19-.49.35-.68.58-.79,1.02-.9,2.24-.98,3.34-.13,1.96-.05,3.93-.03,5.88-.27-1.96-.53-3.92-.54-5.89.04-1.17.11-2.4.94-3.49.23-.27.44-.46.8-.68.15-.09.29-.16.46-.24.66-.29,1.35-.49,2.1-.7,2.26-.6,4.59-1.1,6.94-1.58,2.41-.48,4.79-.89,7.23-1.29h0ZM27.34,31.1c.86.45,1.58.83,2.72,1.04.6.09,1.09.11,1.7.03.66-.1,1.08-.26,1.52-.56.51-.38.73-.76.93-1.22.24-.62.33-1.2.37-1.84.09-1.53-.06-3.04-.11-4.56-.02-.73.01-1.43.07-2.16.02-.25.04-.49.06-.74.05-.67.02-1.37.47-2,.24-.3.51-.47.97-.67.68-.28,1.4-.44,2.18-.61,2.5-.49,5.1-.83,7.63-1.31,2.17-.43,3.8-.87,5.8-1.48-2.03.52-3.76.93-5.9,1.3-2.56.42-5.19.72-7.72,1.18-.86.17-1.61.34-2.36.63-.56.24-.89.45-1.2.81-.51.69-.5,1.39-.55,2.13-.02.25-.04.49-.07.74-.06.74-.08,1.44-.06,2.18.07,1.52.26,3.03.25,4.55-.02.62-.07,1.19-.26,1.8-.15.42-.34.79-.78,1.15-.37.27-.74.42-1.32.53-.56.09-1.01.09-1.58.01-1.12-.18-1.88-.53-2.76-.94h0ZM10.48,26.78c.33.28.56.44,1.03.66.72.31,1.38.5,2.29.6.5.04.89.04,1.38-.04.52-.09.84-.22,1.2-.44.45-.32.66-.65.85-1.04.14-.31.21-.61.27-.93.05-.29.08-.58.09-.87.04-1.85-.27-3.75-.46-5.6.56,1.85,1.09,3.72,1.13,5.6,0,.31-.03.6-.08.91-.06.34-.15.65-.31.99-.23.45-.49.81-1.04,1.17-.46.27-.88.42-1.52.51-.57.07-1.02.06-1.59-.01-.94-.14-1.64-.37-2.33-.75-.44-.25-.63-.43-.9-.74h0ZM38.57,5.77c-1.5.21-2.74.41-4.18.73-1.93.44-3.74.95-5.71,1.37-2.4.48-4.89.83-7.34,1.24-.48.08-.97.16-1.45.25-2.29.41-4.55.85-6.65,1.51-.99.33-1.72.63-2.45,1.13-.64.47-.93.87-1.19,1.44-.45,1.26-.32,2.52-.2,3.8.04-1.25.03-2.52.59-3.74.27-.53.57-.89,1.19-1.31.71-.46,1.41-.72,2.35-1.02,2.09-.62,4.33-1.04,6.56-1.44.48-.09.96-.17,1.44-.25,2.46-.42,4.94-.79,7.33-1.32,1.99-.46,3.72-.99,5.63-1.51,1.38-.36,2.64-.61,4.07-.88h0ZM75.85,7.55c-.09-.21-.16-.36-.38-.54-.14-.1-.26-.16-.45-.22-.27-.08-.51-.11-.8-.14-1.05-.05-2.03.05-3.05.19-.28.04-.57.09-.85.14-1.11.2-2.21.42-3.34.59-1.17.18-2.08.26-3.28.32,1.05-.2,2.08-.38,3.12-.59,1.1-.24,2.16-.48,3.29-.68.3-.05.59-.1.89-.14,1.09-.14,2.19-.22,3.3-.07.35.05.61.11.9.23.21.09.34.18.45.31.18.21.19.37.2.6h0ZM45.36,8.87c1.18-.16,2.17-.36,3.29-.64,1.83-.45,3.62-.98,5.42-1.47.3-.08.6-.16.9-.24,1.18-.31,2.35-.6,3.55-.88,1.16-.26,2.37-.54,3.6-.67.96-.06,1.49,0,2.4.14-.89-.22-1.43-.32-2.42-.3-1.3.04-2.56.28-3.78.53-1.27.25-2.42.52-3.63.84-.31.08-.61.17-.91.25-1.79.51-3.53,1.07-5.29,1.62-1.05.31-2.04.57-3.12.83h0ZM49.78,1.39c-1.58-.1-2.47-.1-4.07.03-2.7.28-5.31.7-7.91,1.19-.43.08-.86.17-1.29.26-2.21.47-4.38.99-6.59,1.45-2.08.44-4.03.77-6.17,1.09,2.01-.45,4-.88,5.98-1.36,2.19-.54,4.3-1.08,6.54-1.55.43-.09.87-.18,1.3-.26,2.63-.48,5.32-.88,8.08-1.03,1.65-.08,2.54-.06,4.12.17Z"/>
    </g>
  </g>
</svg>