<?xml version="1.0" encoding="UTF-8"?>
<svg id="Layer_2" data-name="Layer 2" xmlns="http://www.w3.org/2000/svg" viewBox="0 0 40.25 74.54">
  <defs>
    <style>
      .cls-1 {
        fill: #b4814d;
      }

      .cls-2 {
        fill: #fff;
      }

      .cls-3 {
        fill: #f9f9f9;
      }

      .cls-4 {
        fill: #f2f0ee;
      }

      .cls-5 {
        fill: #f8f8f8;
      }

      .cls-6 {
        fill: #b07c48;
      }

      .cls-7 {
        fill: #bb8a55;
      }
    </style>
  </defs>
  <g id="Layer_1-2" data-name="Layer 1">
    <g>
      <path class="cls-4" d="M32.72,68.24s-4.8,4.17-12.66,4.24c-.26,0-.51,0-.51,0,0,0-.25,0-.5-.01-7.47-.26-12.19-4.51-12.19-4.51-5.92-5.32-5.27-13.69-5.19-14.59.58-6.19.11-10.23.2-27.75,0-.73,0-1.47.01-2.25v-.38s36.32.27,36.32.27l-.22,30.31c.08.85.75,9.46-5.26,14.68Z"/>
      <path class="cls-4" d="M15.53,74.23c-1.49-.22-2.89-.54-4.18-.98-2.33-.78-4.34-1.93-5.96-3.4C1.76,66.58-.05,61.66,0,55.22L.43,8.53h.19s38.63.31,38.63.31v.19s1,47.81,1,47.81h0c-.01,1.69-.17,3.29-.47,4.74-.29,1.4-.72,2.7-1.28,3.87-1.05,2.19-2.58,4.02-4.57,5.41-1.79,1.26-3.98,2.21-6.52,2.82-2.23.54-4.8.83-7.63.86-.18,0-.37,0-.55,0-.18,0-.36,0-.54-.02-1.09-.05-2.15-.14-3.16-.29M.81,8.92l-.43,46.31c-.11,14.99,9.9,18.56,18.32,18.91.18,0,.35.01.53.01.18,0,.36,0,.54,0,5.96-.08,10.65-1.29,13.94-3.61,4.04-2.85,6.11-7.46,6.15-13.7l-.99-47.62L.81,8.92"/>
      <path class="cls-7" d="M39.17,9.32c-.04,4.89-8.49,9.53-19.23,9.46C9.19,18.7.5,13.77.53,8.88.57,3.99,9.3.09,20.05.17c10.74.08,19.16,4.27,19.12,9.16"/>
      <path class="cls-7" d="M38.61,10.39l-.4,12.52c-.04.1-.09.21-.14.33-.16.35-.39.79-.69,1.27,0,0-.88,1.39-2.25,2.54-1.13.95-6.31,3.82-15.81,3.12-4.46-.33-11.99-.88-16.75-6.37-.29-.34-.52-.63-.67-.83h0s-.02-.89-.02-.89l-.74-11.11,37.47-.59"/>
      <path class="cls-4" d="M14.42,18.53c-.75-.11-1.48-.24-2.2-.39-2.31-.49-4.39-1.18-6.17-2.05-1.79-.88-3.19-1.89-4.17-3.03-1.03-1.19-1.54-2.44-1.53-3.74,0-1.3.54-2.55,1.59-3.72,1-1.12,2.42-2.11,4.22-2.96,1.79-.85,3.88-1.51,6.2-1.96C14.74.21,17.29-.02,19.91,0c2.62.02,5.16.28,7.55.79,2.31.49,4.39,1.18,6.17,2.05,1.79.88,3.19,1.89,4.17,3.03,1.03,1.19,1.54,2.44,1.53,3.74,0,1.3-.54,2.55-1.59,3.72-1,1.12-2.42,2.11-4.22,2.96-1.79.85-3.88,1.51-6.2,1.96-2.4.47-4.94.7-7.56.68-1.83-.01-3.62-.15-5.35-.4ZM25.24.74c-1.71-.25-3.5-.38-5.33-.4-5.14-.04-9.97.89-13.61,2.61C2.69,4.65.7,6.91.68,9.33c-.02,2.41,1.94,4.71,5.52,6.46,2.33,1.14,5.15,1.96,8.24,2.41,1.71.25,3.5.38,5.33.4,5.14.04,9.97-.89,13.61-2.61,3.6-1.7,5.59-3.96,5.61-6.38.02-2.41-1.94-4.71-5.52-6.46-2.33-1.14-5.15-1.96-8.24-2.41Z"/>
      <path class="cls-2" d="M38.21,21.98c-.25-.16-.52-.24-.68-.15-.32.2-.06,1.02-.16,1.41-.02.08-.06.15-.13.18-.15.08-.32-.09-.55-.19-.04-.02-.09-.03-.13-.05,0,0-.24-.06-.53.04-1.33.48-2.59,1.94-2.59,1.94-1.67,1.95-2.51,2.92-3.21,2.81-.82-.14-.95-1.45-1.77-1.47-.43-.01-.58.35-1.33.99-.66.57-2.13,1.84-3.43,1.57-.41-.08-.33-.22-1.41-.62-.74-.27-1.22-.37-1.42-.41-.3-.07-.66-.12-1.14-.13-2.53-.08-3.38,1-4.75.28-.97-.51-.73-1.16-1.68-1.56-1.58-.68-2.79.87-4.06.2-.94-.5-.53-1.48-1.72-2.34-.93-.68-1.39-.22-2.55-.89-.33-.19-.58-.39-.79-.6-.72-.7-.91-1.4-1.47-1.38-.28,0-.58.19-.84.47l.02.89h0s0,.38,0,.38c0,.77-.01,1.52-.01,2.25.75.81,2.24,1.92,5.17,3.43,3.71,1.91,6.88,3,9.05,3.67,5.01,1.56,7.52,2.33,9.66,1.99,1.82-.3,4.07-1.82,8.57-4.86,1.46-.99,2.98-2.09,3.86-3.63l.03-4.22Z"/>
      <path class="cls-1" d="M18.01,7.73c-.06.22-.18.42-.37.58l-1.97,1.73c-.26.23-.62.34-.96.29-.02,0-.04,0-.05,0l-7.9-1.51c-.48-.09-.82-.45-.93-.86-.18.64.21,1.36.93,1.49l6.98,1.33,1.84-.03s.06-.05.09-.07l1.97-1.73c.36-.32.48-.8.36-1.22"/>
      <path class="cls-1" d="M15.58,10.75l-1.84.03.92.18s.04,0,.05,0c.31.04.62-.03.87-.21"/>
      <path class="cls-1" d="M28.73,13.67c.06.13.09.28.09.43v.73c0,.6-.5,1.08-1.1,1.07l-9.16-.07c-.05,0-.11,0-.16-.01-.22-.03-.41-.13-.56-.26.11.4.44.73.88.8.05,0,.1.01.15.01l9.16.07c.6,0,1.09-.5,1.09-1.12v-.77c0-.35-.14-.68-.4-.89"/>
      <path class="cls-6" d="M34.27,8.8c.06.26.04.53-.08.78l-.44.89h.49s.18-.38.18-.38c.21-.43.14-.93-.15-1.29M23.13,5.03c-.55.62-.4,1.65.38,2.06l6.56,3.43h.93s-7.33-3.8-7.33-3.8c-.65-.34-.85-1.11-.55-1.7"/>
      <path class="cls-6" d="M34.23,10.46h-.49s-.06.13-.06.13c-.22.45-.71.69-1.18.62-.12-.02-.24-.06-.36-.12l-1.13-.58h-.93s2.21,1.17,2.21,1.17c.12.06.25.1.37.12.49.07.99-.18,1.23-.66l.34-.69"/>
      <path class="cls-2" d="M15.67,10.05l1.97-1.73c.6-.53.53-1.48-.14-1.91l-6.18-3.97c-.5-.32-1.15-.23-1.54.22l-3.69,4.19c-.61.7-.24,1.79.67,1.97l7.9,1.51c.36.07.74-.03,1.01-.28"/>
      <path class="cls-3" d="M11.37,3.68c-.5-.07-1.03.04-1.45.34-.17.11-.31.26-.44.41-.66.81-1.33,1.67-1.97,2.49-.06.08-.16.22-.23.29.08-.06.2-.19.27-.26.74-.75,1.45-1.54,2.15-2.34.11-.13.24-.25.39-.34.35-.23.79-.33,1.21-.26.14.02.28.06.42.12.19.08.44.25.62.36.61.39,1.29.81,1.9,1.19.85.52,1.71,1.03,2.58,1.51-.8-.6-1.61-1.17-2.43-1.74-.7-.48-1.46-.99-2.17-1.45-.25-.17-.54-.28-.84-.33"/>
      <path class="cls-2" d="M23.58,4.54l1.8-1.15c.94-.6,2.15-.52,3.01.2l5.5,4.62c.4.34.52.91.29,1.38l-.5,1.01c-.28.57-.98.8-1.54.51l-8.46-4.37c-.87-.45-.92-1.67-.1-2.19"/>
      <path class="cls-5" d="M27.08,3.88c-.26-.04-.52-.03-.77.04-.1.03-.21.06-.3.1-.69.32-1.38.66-2.06,1,.68-.24,1.37-.5,2.05-.77.06-.02.12-.04.18-.06.25-.07.51-.09.77-.05.32.05.63.18.88.38,1.35,1.1,2.75,2.19,4.15,3.23.06.04.13.1.19.15.05.05.12.11.17.16.42.44.68,1.03.72,1.64.02.26,0,.52-.06.78.02-.06.04-.13.06-.19,0-.02,0-.03.01-.05v-.05s.03-.1.03-.1c0-.02,0-.03,0-.05v-.05s.02-.1.02-.1c0-.04.01-.16.01-.2.02-.65-.21-1.3-.64-1.8-.05-.06-.12-.13-.18-.19-.06-.05-.13-.12-.19-.17-1.37-1.13-2.79-2.26-4.21-3.33-.26-.18-.55-.29-.86-.33"/>
      <path class="cls-2" d="M18.56,15.85l9.16.07c.6,0,1.09-.48,1.09-1.07v-.73c0-.44-.26-.84-.67-1.01l-4.06-1.65c-1.77-.72-3.8-.24-5.06,1.19l-1.25,1.42c-.62.7-.13,1.79.8,1.8"/>
      <path class="cls-5" d="M22.94,12.25c-.08-.01-.17-.02-.24-.03-.69-.05-1.39.12-1.98.5-.09.06-.18.12-.26.18-.67.54-1.32,1.1-1.96,1.69.73-.46,1.42-.97,2.12-1.47.04-.02.08-.06.12-.08.28-.18.6-.31.93-.4.4-.1.82-.12,1.23-.06.09.01.18.03.27.05,1.4.33,2.81.65,4.24.87-1.39-.47-2.81-.87-4.24-1.22-.07-.02-.15-.03-.23-.04"/>
      <path class="cls-7" d="M2.82,22.83c0,.17-.14.31-.31.31-.17,0-.31-.14-.31-.31,0-.17.14-.31.31-.31s.31.14.31.31Z"/>
      <path class="cls-7" d="M7.68,25.02c-.05.1-.35.04-.66-.13-.31-.17-.53-.38-.48-.48.05-.1.35-.04.66.13.31.17.53.38.48.48Z"/>
      <path class="cls-7" d="M11.56,27.31c0,.09-.08.17-.17.17-.09,0-.17-.08-.17-.17s.08-.17.17-.17c.09,0,.17.08.17.17Z"/>
      <path class="cls-7" d="M12.51,26.98c0,.06-.05.11-.11.11-.06,0-.11-.05-.11-.11,0-.06.05-.11.11-.11.06,0,.11.05.11.11Z"/>
      <path class="cls-7" d="M13.24,27.68c0,.11-.09.2-.2.2-.11,0-.2-.09-.2-.2,0-.11.09-.2.2-.2.11,0,.2.09.2.2Z"/>
      <path class="cls-7" d="M34.51,25.59c-1.03.75-1.75,1.51-1.6,1.72.15.2,1.1-.24,2.13-.99,1.03-.75,1.75-1.51,1.6-1.72-.15-.2-1.1.24-2.13.99Z"/>
      <path class="cls-7" d="M28.69,27.43c0,.09-.08.17-.17.17-.09,0-.17-.08-.17-.17,0-.09.08-.17.17-.17.09,0,.17.08.17.17Z"/>
      <path class="cls-7" d="M29.59,28.51c0,.12-.1.22-.23.22-.12,0-.22-.1-.22-.23,0-.12.1-.22.23-.22.12,0,.22.1.22.23Z"/>
      <path class="cls-7" d="M27.39,28.69c0,.11-.09.2-.2.2-.11,0-.2-.09-.2-.2,0-.11.09-.2.2-.2.11,0,.2.09.2.2Z"/>
      <path class="cls-7" d="M28.68,29.51c0,.09-.08.17-.17.17-.09,0-.17-.08-.17-.17,0-.09.08-.17.17-.17.09,0,.17.08.17.17Z"/>
      <path class="cls-7" d="M32.12,28.27c0,.08-.06.14-.14.14-.08,0-.14-.06-.14-.14,0-.08.06-.14.14-.14.08,0,.14.06.14.14Z"/>
    </g>
  </g>
</svg>