<?xml version="1.0" encoding="UTF-8"?>
<svg id="Layer_2" data-name="Layer 2" xmlns="http://www.w3.org/2000/svg" xmlns:xlink="http://www.w3.org/1999/xlink" viewBox="0 0 84.84 72.05">
  <defs>
    <style>
      .cls-1 {
        fill: none;
      }

      .cls-2 {
        fill: #ebb888;
      }

      .cls-3 {
        fill: #422d23;
      }

      .cls-4 {
        fill: #e2ad7d;
      }

      .cls-5 {
        fill: #a66427;
      }

      .cls-6 {
        fill: #f0eeec;
      }

      .cls-7 {
        fill: #f7f5f3;
      }

      .cls-8 {
        fill: #2a180e;
      }

      .cls-9 {
        fill: #d5c4b7;
      }

      .cls-10 {
        fill: #d7a476;
      }

      .cls-11 {
        clip-path: url(#clippath);
      }
    </style>
    <clipPath id="clippath">
      <rect class="cls-1" width="84.84" height="72.05"/>
    </clipPath>
  </defs>
  <g id="Layer_1-2" data-name="Layer 1">
    <g>
      <g class="cls-11">
        <path class="cls-6" d="M73.86,35.94c-3.18,4.26-9.11,6.92-12.67,8.2,2.28-8.85,3.82-19.59,2.74-31.06,10.85-.76,13.98,2.57,14.51,7.15.56,4.75.14,9.37-4.59,15.7ZM78.44,11.48c-5.52-3.52-11.84-2.65-14.93-1.9-.27-1.92-.61-3.85-1.04-5.8C62.48,3.77,53.72.28,29.74.01,11.46-.19,4.58,2.34.69,3.77c0,0-4.71,42.46,10.43,63.42,0,0,18.42,10.93,41.12,0,0,0,3.93-6.73,7.3-17.34,16.7-6.08,22.83-14.89,24.32-19.76,1.53-4.99,2.22-13.75-5.42-18.62"/>
      </g>
      <path class="cls-7" d="M58.89,16.55s-.1-8.44-.66-12.09l-5.61,1.63,1.24,9.84,5.03.61"/>
      <path class="cls-8" d="M4.84,19.35S.96,60.09,29.9,61.42c27.35,1.25,28.39-26.75,28.92-42.07,0,0-18.21,6.63-53.98,0"/>
      <path class="cls-3" d="M58.82,19.35c-.53,15.32-1.57,43.32-28.92,42.07-.21-.01-.42-.02-.63-.04C3.38,59.65,4.42,25.79,4.78,20.14c.03-.52.06-.8.06-.8,10.79,2,19.99,2.79,27.57,2.92h.03c10.14.18,17.38-.83,21.68-1.71,3.14-.64,4.71-1.21,4.71-1.21"/>
      <path class="cls-8" d="M54.16,19.35c-.01.4-.03.8-.04,1.21-.52,14.71-2.06,39.29-24.84,40.82C3.38,59.65,4.42,25.79,4.78,20.14c11.05,1.78,20.26,2.26,27.63,2.13h.03c14.43-.27,21.72-2.92,21.72-2.92"/>
      <path class="cls-10" d="M58.89,16.55l-.18,7.33c-30.19,5.86-54.05-.12-54.05-.12v-7.09c24.77-4.01,50.06-.69,53.87-.16,0,0,.2.03.2.03.3.04.16.02.16.02"/>
      <path class="cls-4" d="M58.89,16.55l-.18,7.33c-1.6.31-3.18.59-4.74.83-.12.02-.23.04-.34.05-7.51,1.17-14.54,1.63-20.8,1.69-.87,0-1.73,0-2.57,0-12.71-.11-21.83-1.86-24.67-2.47-.61-.13-.93-.21-.93-.21v-7.09c.3-.05.59-.09.87-.13,8.27-1.28,16.58-1.76,24.09-1.81,1.07,0,2.11,0,3.15,0,8.82.08,16.31.7,21,1.2.12.01.23.03.34.04,2.16.23,3.68.43,4.42.54l.2.03c.08.01.13.02.16.02"/>
      <path class="cls-10" d="M54.11,15.97l-.14,8.74v.05c-7.64,1.18-14.79,1.64-21.14,1.69-.87,0-1.73,0-2.57,0-12.71-.13-21.83-1.86-24.67-2.47-.61-.13-.93-.21-.93-.21v-7.09c.3-.05.59-.09.87-.13,8.27-1.27,16.57-1.75,24.09-1.81,1.07,0,2.11,0,3.15,0,8.82.08,16.31.7,21,1.2.12.01.23.03.34.04"/>
      <path class="cls-4" d="M58.89,16.55c-23.01,4.39-54.22.12-54.22.12,24.76-4.01,50.41-.64,54.22-.12"/>
      <path class="cls-4" d="M58.89,16.55c-1.58.3-3.19.56-4.83.78-.05-.53-.12-.99-.2-1.39,2.49.27,4.24.5,5.03.61"/>
      <path class="cls-9" d="M36.52,7.57c-4.35,0-8.56-.18-12.28-.43C12.32,6.33,2.72,4.67,2.62,4.66c-.22-.04-.36-.25-.32-.46.04-.22.24-.36.46-.32.09.01,9.66,1.66,21.54,2.47,10.95.74,26.15.9,36.43-2.55.21-.07.43.04.51.25.07.21-.04.43-.25.51-6.89,2.31-15.94,3.02-24.47,3.02"/>
      <path class="cls-9" d="M33.27,69.34c-2.89,0-5.59-.28-7.92-.65-7.32-1.17-12.66-3.54-12.71-3.56-.2-.09-.29-.33-.2-.53.09-.2.33-.29.53-.2.05.02,5.31,2.35,12.53,3.5,6.63,1.06,16.33,1.32,24.84-3.49.19-.11.43-.04.54.15.11.19.04.43-.15.54-5.72,3.23-11.94,4.23-17.46,4.23"/>
      <path class="cls-9" d="M6.49,48.59c-.14,0-.27-.07-.35-.2-2.47-4.33-3.63-15.26-3.68-15.73-.02-.22.14-.41.35-.44s.41.14.44.35c.01.11,1.2,11.23,3.58,15.42.11.19.04.43-.15.54-.06.04-.13.05-.2.05"/>
      <path class="cls-9" d="M78.64,34.33c-.08,0-.15-.02-.22-.06-.19-.12-.23-.37-.11-.55,5.97-9,2.02-15.38,1.98-15.44-.12-.18-.07-.43.12-.55.19-.12.43-.06.55.12.05.07,1.11,1.75,1.39,4.62.26,2.62-.12,6.78-3.38,11.69-.07.12-.2.18-.33.18"/>
      <path class="cls-9" d="M60.94,47.23c-.19,0-.35-.13-.39-.32-.04-.22.1-.42.32-.47.03,0,2.92-.59,6.35-2.78.19-.12.43-.06.55.12.12.18.06.43-.12.55-3.56,2.28-6.5,2.87-6.62,2.89-.03,0-.05,0-.08,0"/>
      <path class="cls-2" d="M58.89,16.55c-1.58.3-3.19.56-4.83.78-.05-.53-.12-.99-.2-1.39,2.49.27,4.24.5,5.03.61"/>
      <path class="cls-5" d="M38.38,23.45c.02.25-.32.47-.76.49-.44.03-.81-.15-.82-.4-.02-.25.32-.47.76-.5s.81.15.82.41"/>
      <path class="cls-5" d="M40.41,22.43c.01.18-.27.35-.63.37s-.67-.11-.68-.3c-.01-.18.27-.35.63-.37.36-.02.67.11.68.3"/>
      <path class="cls-5" d="M33.72,23.71c.02.25-.26.47-.62.49-.36.02-.67-.16-.69-.41-.02-.25.26-.47.62-.49s.67.16.69.41"/>
      <path class="cls-5" d="M35.36,22.53c.01.17-.18.32-.42.33s-.45-.11-.47-.28c-.01-.17.18-.32.42-.33s.46.11.47.28"/>
      <path class="cls-5" d="M33.17,22.1c0,.12-.24.23-.56.25s-.58-.06-.59-.19c-.01-.12.24-.23.56-.25.32-.02.58.06.59.19"/>
      <path class="cls-5" d="M37.93,20.41c.01.12-.24.23-.55.25-.32.02-.58-.07-.59-.19,0-.12.24-.23.56-.25s.58.06.59.19"/>
      <path class="cls-5" d="M40.52,20.95c.01.16-.19.29-.46.31-.26.01-.49-.1-.5-.26-.01-.15.19-.29.46-.31.26-.02.49.1.5.26"/>
      <path class="cls-5" d="M35.15,21.17c.01.2-.2.38-.47.4-.27.02-.51-.13-.53-.34-.01-.2.2-.38.47-.4.27-.02.51.14.53.34"/>
      <path class="cls-5" d="M36.96,21.88c.01.11-.11.21-.27.22s-.29-.07-.31-.18c0-.11.12-.21.28-.22.16,0,.29.07.3.18"/>
      <path class="cls-5" d="M31,22.85c0,.11-.12.21-.28.22-.16.01-.29-.07-.31-.18,0-.11.12-.21.28-.22.16,0,.29.07.31.18"/>
      <path class="cls-5" d="M32.32,20.64c0,.11-.12.21-.28.22-.16.01-.29-.07-.31-.18,0-.11.12-.21.28-.22.16,0,.29.07.31.18"/>
      <path class="cls-5" d="M54.21,22.64c.02.25-.32.47-.76.5-.43.02-.81-.16-.82-.41-.02-.25.32-.47.76-.5.44-.02.81.16.83.41"/>
      <path class="cls-5" d="M56.6,21c.01.18-.27.35-.63.37-.36.02-.67-.11-.68-.3-.01-.18.27-.35.63-.37s.67.11.68.3"/>
      <path class="cls-5" d="M46.69,23.24c.02.25-.26.47-.62.49s-.67-.16-.69-.41c-.02-.25.26-.47.62-.49.36-.02.67.16.69.41"/>
      <path class="cls-5" d="M50.03,23.1c.01.17-.18.32-.42.33-.24.01-.45-.11-.47-.28-.01-.17.18-.32.42-.33s.46.11.47.28"/>
      <path class="cls-5" d="M46.03,20.41c.01.12-.24.23-.56.25-.32.02-.58-.07-.59-.19,0-.12.24-.23.56-.25s.58.06.59.19"/>
      <path class="cls-5" d="M42.42,23.52c0,.12-.24.23-.56.25-.32.02-.58-.07-.59-.19-.01-.12.24-.23.56-.25.32-.02.58.06.59.19"/>
      <path class="cls-5" d="M55.6,19.01c.01.16-.19.3-.46.31-.27.02-.49-.1-.5-.26s.19-.3.46-.31c.27-.01.49.1.5.26"/>
      <path class="cls-5" d="M49.39,20.52c.02.2-.19.38-.47.4-.27.02-.51-.14-.53-.34-.01-.2.2-.38.47-.4.28-.02.51.13.53.34"/>
      <path class="cls-5" d="M52.2,20.67c.01.11-.12.21-.27.21-.16.01-.3-.07-.31-.18-.01-.11.12-.21.27-.21.16-.01.3.07.31.18"/>
      <path class="cls-5" d="M44.06,21.93c0,.11-.12.21-.27.21-.16.01-.3-.07-.31-.18-.01-.11.11-.21.27-.21.16-.01.3.07.31.18"/>
      <path class="cls-5" d="M42.59,20.22c0,.11-.12.21-.28.22s-.29-.07-.31-.18c0-.11.12-.21.27-.22.16,0,.3.07.31.18"/>
      <path class="cls-5" d="M21.82,23.56c0,.25-.35.45-.79.45-.44,0-.79-.21-.8-.46,0-.25.35-.45.79-.45s.8.21.8.46"/>
      <path class="cls-5" d="M16.54,23.36c0,.25-.29.45-.65.45-.36,0-.66-.21-.66-.46,0-.25.29-.45.65-.45.36,0,.66.21.66.46"/>
      <path class="cls-5" d="M18.61,23.41c0,.17-.2.31-.44.3-.25,0-.45-.14-.45-.31,0-.17.2-.31.44-.31.25,0,.45.14.45.31"/>
      <path class="cls-5" d="M15.63,21.8c0,.12-.26.22-.58.22-.32,0-.58-.11-.58-.23s.26-.22.57-.21c.32,0,.58.11.58.22"/>
      <path class="cls-5" d="M19.19,20.11c0,.12-.26.22-.57.21-.32,0-.58-.1-.58-.22,0-.12.25-.22.57-.21.32,0,.58.1.58.22"/>
      <path class="cls-5" d="M19.44,21.46c0,.2-.22.37-.49.36-.28,0-.5-.17-.5-.37,0-.2.22-.36.49-.36.28,0,.5.17.5.37"/>
      <path class="cls-5" d="M21.31,21.51c0,.11-.13.2-.29.2-.16,0-.29-.09-.29-.2,0-.11.13-.2.29-.2.16,0,.29.09.29.2"/>
      <path class="cls-5" d="M13.31,23.36c0,.11-.13.2-.29.2-.16,0-.29-.09-.29-.2,0-.11.13-.2.29-.2s.29.09.29.2"/>
      <path class="cls-5" d="M16.17,20.59c0,.11-.13.2-.29.2-.16,0-.29-.09-.29-.2,0-.11.13-.2.29-.2.16,0,.29.09.29.2"/>
      <path class="cls-5" d="M11.91,21.98c-.02.25-.39.42-.83.39-.43-.03-.78-.26-.75-.51.02-.25.39-.42.83-.39.43.04.78.27.75.52"/>
      <path class="cls-5" d="M13.38,21.26c-.01.19-.32.31-.68.28s-.65-.2-.63-.39c.01-.19.32-.31.68-.28s.64.2.63.39"/>
      <path class="cls-5" d="M7.71,21.65c-.02.25-.33.43-.69.4s-.64-.25-.62-.5c.02-.25.33-.43.69-.4s.64.25.62.5"/>
      <path class="cls-5" d="M9.47,21.02c-.01.17-.22.29-.47.27-.25-.02-.43-.17-.42-.34.01-.17.22-.29.47-.27.25.02.43.17.42.34"/>
      <path class="cls-5" d="M7.51,20.09c-.01.12-.27.2-.59.17-.32-.02-.57-.14-.56-.26.01-.12.27-.2.59-.18.32.03.56.14.56.27"/>
      <path class="cls-5" d="M12.31,19.6c0,.12-.27.2-.59.17s-.56-.14-.55-.26c0-.12.27-.2.59-.18s.56.14.55.27"/>
      <path class="cls-5" d="M14.4,20.25c-.03.15-.27.24-.53.2-.26-.05-.45-.21-.42-.36.04-.16.27-.25.53-.2.26.05.45.21.41.36"/>
      <path class="cls-5" d="M9.46,19.65c-.01.2-.25.35-.53.33-.28-.02-.49-.2-.47-.41s.25-.35.53-.33c.27.02.48.2.47.4"/>
      <path class="cls-5" d="M11.16,20.6c-.01.11-.15.19-.31.18-.16-.01-.28-.11-.27-.22,0-.11.14-.19.31-.18.16.01.28.11.27.22"/>
      <path class="cls-5" d="M9.3,22.7c0,.11-.14.19-.31.18s-.28-.11-.27-.22c.01-.11.15-.19.31-.18.16.01.28.12.27.22"/>
      <path class="cls-5" d="M6.75,18.74c-.01.11-.15.19-.31.18-.16-.01-.28-.11-.27-.22,0-.11.14-.19.31-.18.16.01.28.11.27.22"/>
      <path class="cls-5" d="M28.39,22.63c0,.25-.35.45-.79.45s-.8-.2-.8-.45.36-.45.8-.45.79.2.79.45"/>
      <path class="cls-5" d="M29.79,21.8c0,.19-.29.34-.66.34s-.66-.15-.66-.34.29-.34.66-.34.66.15.66.34"/>
      <path class="cls-5" d="M24.17,22.63c0,.25-.29.45-.66.45s-.66-.2-.66-.45.29-.45.66-.45.66.2.66.45"/>
      <path class="cls-5" d="M25.88,21.87c0,.17-.2.31-.45.31s-.45-.14-.45-.31.2-.31.45-.31.45.14.45.31"/>
      <path class="cls-5" d="M23.84,21.09c0,.12-.26.22-.58.22s-.58-.1-.58-.22.26-.22.58-.22.58.1.58.22"/>
      <path class="cls-5" d="M28.6,20.23c0,.12-.26.22-.58.22s-.58-.1-.58-.22.26-.22.58-.22.58.1.58.22"/>
      <path class="cls-5" d="M30.73,20.7c-.02.16-.25.26-.51.24s-.46-.17-.44-.33c.02-.15.25-.26.51-.23.26.02.46.17.44.33"/>
      <path class="cls-5" d="M25.76,20.5c0,.2-.22.37-.5.37s-.5-.16-.5-.37.22-.37.5-.37.5.16.5.37"/>
      <path class="cls-5" d="M27.52,21.31c0,.11-.13.2-.29.2s-.29-.09-.29-.2.13-.2.29-.2.29.09.29.2"/>
      <path class="cls-5" d="M25.84,23.55c0,.11-.13.2-.29.2s-.29-.09-.29-.2.13-.2.29-.2.29.09.29.2"/>
      <path class="cls-5" d="M22.99,19.8c0,.11-.13.2-.29.2s-.29-.09-.29-.2.13-.2.29-.2.29.09.29.2"/>
    </g>
  </g>
</svg>