<?xml version="1.0" encoding="UTF-8"?>
<svg id="Layer_2" data-name="Layer 2" xmlns="http://www.w3.org/2000/svg" xmlns:xlink="http://www.w3.org/1999/xlink" viewBox="0 0 84.84 61.26">
  <defs>
    <style>
      .cls-1 {
        fill: none;
      }

      .cls-2 {
        fill: #d9a676;
      }

      .cls-3 {
        fill: #422d23;
      }

      .cls-4 {
        fill: #e4af7e;
      }

      .cls-5 {
        fill: #d7c6b9;
      }

      .cls-6 {
        fill: #f5bc86;
      }

      .cls-7 {
        fill: #f2f0ee;
      }

      .cls-8 {
        fill: #a86427;
      }

      .cls-9 {
        fill: #2a180e;
      }

      .cls-10 {
        clip-path: url(#clippath);
      }
    </style>
    <clipPath id="clippath">
      <rect class="cls-1" x="0" y="0" width="84.84" height="61.26"/>
    </clipPath>
  </defs>
  <g id="Layer_1-2" data-name="Layer 1">
    <g>
      <g class="cls-10">
        <path class="cls-7" d="M75.78,28.91c-2.37,1.3-5.89,2.82-9.02,4.08-1.13.45-2.2.88-3.16,1.24,1.36-3.86,2.5-8.23,3.28-13.13.8-.45,1.6-.8,2.43-1.06,1.61-.51,3.29-.68,5.11-.63,5.19.12,6.56,6.64,1.36,9.51ZM84.56,20.51c-1.35-7.62-8.72-8.42-14.44-7.83-.83.09-1.62.2-2.36.33.1-1.67.17-3.38.19-5.15.02-1.38,0-2.79-.04-4.24,0,0-.05-1.46-4.32-1.72C60.64,1.71,48.78-.04,34.59,0,20.88.04,5.9,1.95,3.9,2.18c0,0-2.55-.07-3.4,1.44,0,0-.2,1.16-.35,3.19C-.46,15.32-.16,39.12,19.58,57.61c1.06,1,2.35,1.72,3.76,2.12,4.15,1.19,13.54,3.05,23.31-.74,0,0,7-4.59,12.98-15.72.77-.38,1.63-.8,2.53-1.24,4.18-2.05,9.32-4.58,11.71-5.78,4.39-2.22,12.58-5.15,10.7-15.75"/>
      </g>
      <path class="cls-3" d="M64.79,14.84h0c-.03.35-.06.72-.1,1.1-.2,2.19-.48,4.84-.71,6.23-.7,4.45-1.74,8.4-2.97,11.89-.48,1.43-3.21,7.71-3.61,8.2-3.29,6.11-6.92,10.05-9.26,12.2-1.55,1.42-3.42,2.45-5.45,3-4.12,1.11-8.05,1.23-11.33.95-2.88-.25-5.26-.8-6.82-1.25-1.27-.36-2.44-1.02-3.4-1.93C7.18,42.16,3.96,26.14,3.48,16.09c-.01-.35-.02-.72-.03-1.09-.03-2.3.14-5.01.26-6.65.02-.25.03-.48.05-.68,2.04-.34,3.83.51,6.03.69,3.56.77,6.04.99,13.35,1.11.64,0,1.3.02,2.01.03,7.22.09,18.98-.75,27-1.41,0,0,2.66-.06,6.05-.22,1.87-.09,3.97-.21,5.96-.37-.02,1.6.8,3.5.64,7.34"/>
      <path class="cls-9" d="M58.82,14.84h0c-.03.35-.06.72-.1,1.1-.2,2.19-.48,4.84-.71,6.23-.7,4.45-1.74,8.4-2.97,11.89-.48,1.43-3.21,7.71-3.61,8.2-3.29,6.11-6.92,10.05-9.26,12.2-1.55,1.42-3.42,2.45-5.45,3-1.84.5-3.64.8-5.36.95-2.88-.25-5.26-.8-6.82-1.25-1.27-.36-2.44-1.02-3.4-1.93C7.18,42.16,3.96,26.14,3.48,16.09c-.01-.35-.02-.72-.03-1.09-.03-2.3.14-5.01.26-6.65.03,0,.07,0,.1,0,3.87.84,6.46,1.03,15.36,1.14,1.2.01,2.53,0,3.95-.03,7.09-.16,16.36-.83,23.04-1.38,0,0,6.43-.15,12.01-.59h0c0,.12,0,.24,0,.37.09,1.53.78,3.42.62,6.97"/>
      <path class="cls-4" d="M64.79,12.88s-.06.01-.1.02c-1.75.31-3.74.65-5.97.99-6.62,1.01-15.35,2-26.02,2.12-13.38.15-26.18-1.92-29.22-2.95,0,0-.02,0-.03-.01-.02-1.55.05-3.27.14-4.74.05-.85.1-1.61.14-2.2,3.43,1.06,15.93,3.02,28.98,2.87,13.91-.16,24.5-1.79,31.45-3.01.09,1.82.72,5.52.63,6.91"/>
      <path class="cls-2" d="M58.77,13.88s-.03,0-.05,0c-6.62,1.01-15.35,2-26.02,2.12-13.38.15-26.18-1.92-29.22-2.95,0,0-.02,0-.03-.01-.02-1.55-.09-5.2,0-6.66,5.69.9,14.41,3.69,23.24,3.59,13.91-.15,24.5-1.79,31.46-3.01.04.9.62,6.92.62,6.92"/>
      <path class="cls-6" d="M64.03,6.26c0,1.93-13.5,3.49-30.15,3.49S3.73,8.19,3.73,6.26s13.5-3.49,30.15-3.49,30.15,1.56,30.15,3.49"/>
      <path class="cls-7" d="M29.96,10.83c-11.01,0-19.13-.99-24.18-2.95C1.29,6.15.76,4.16.7,3.78l2.07-.33s0-.03-.01-.07c.02.06,2.19,5.89,31.11,5.32,25-.49,28.07-2.25,32.14-5.86.43-.38,1.09-.35,1.48.08.39.43.35,1.09-.08,1.47-4.89,4.34-8.8,5.91-33.49,6.39-1.35.03-2.67.04-3.95.04"/>
      <path class="cls-8" d="M56.78,5.47c-.02-.3.28-.57.67-.6s.73.18.76.48c.02.3-.27.57-.67.6s-.73-.18-.76-.48"/>
      <path class="cls-8" d="M35.86,7.2c-.02-.29.27-.56.65-.59.38-.03.72.18.74.47s-.27.56-.65.59c-.38.03-.72-.18-.74-.47"/>
      <path class="cls-8" d="M52.57,6.82c-.04-.19.23-.41.62-.5.39-.09.73,0,.78.18.04.19-.24.41-.62.5-.39.09-.73,0-.78-.18"/>
      <path class="cls-8" d="M30.34,7.44c0-.19.31-.34.7-.34s.7.15.7.34-.31.34-.7.34-.7-.15-.7-.34"/>
      <path class="cls-8" d="M54.5,5.26c-.01-.16.14-.31.33-.33.2-.01.37.1.38.27.02.17-.13.31-.33.33s-.37-.1-.38-.27"/>
      <path class="cls-8" d="M33.36,7.24c-.01-.16.13-.3.32-.32.19-.02.36.1.37.26s-.13.3-.32.32-.36-.1-.37-.26"/>
      <path class="cls-8" d="M26.73,7.51c-.01-.16.13-.3.32-.32.19-.02.36.1.37.26.01.16-.13.3-.32.32s-.36-.1-.37-.26"/>
      <path class="cls-8" d="M28.74,6.63c-.01-.16.13-.3.32-.32.19-.01.36.1.37.26.01.16-.13.31-.32.32-.19.02-.36-.1-.37-.26"/>
      <path class="cls-8" d="M31.26,6.49c0-.07.09-.13.21-.13s.2.06.2.13-.09.13-.2.13c-.12,0-.21-.06-.21-.13"/>
      <path class="cls-8" d="M44.59,4.42c0-.19.31-.34.7-.34s.7.15.7.34-.31.34-.7.34-.7-.15-.7-.34"/>
      <path class="cls-8" d="M23.19,4.87c-.02-.16.13-.3.32-.32.19-.02.36.1.37.26s-.13.3-.32.32c-.19.02-.36-.1-.37-.26"/>
      <path class="cls-8" d="M42.07,4.23c-.01-.16.13-.3.32-.32.19-.02.36.1.37.26s-.13.3-.32.32c-.19.02-.36-.1-.37-.26"/>
      <path class="cls-8" d="M47.37,4.42c0-.07.09-.13.21-.13s.2.06.2.13-.09.13-.2.13-.21-.06-.21-.13"/>
      <path class="cls-8" d="M55.71,6.67c-.01-.11.09-.21.23-.22s.25.07.26.18c0,.11-.09.22-.23.23-.13.01-.25-.07-.26-.19"/>
      <path class="cls-8" d="M50.4,7.11c0-.11.09-.21.23-.22.13-.01.25.07.26.18,0,.11-.09.22-.23.23s-.25-.07-.26-.19"/>
      <path class="cls-8" d="M52.47,5.25c-.01-.11.09-.22.23-.23s.25.07.26.19c0,.11-.09.22-.23.23s-.25-.07-.26-.19"/>
      <path class="cls-8" d="M59.84,5.44c-.01-.13.1-.24.25-.25.15-.01.28.08.29.2.01.13-.1.24-.25.25-.15.01-.28-.08-.29-.2"/>
      <path class="cls-8" d="M11.39,5.74c0,.31-.33.56-.74.56s-.74-.25-.74-.56.33-.56.74-.56.74.25.74.56"/>
      <path class="cls-8" d="M15.69,4.69c.03.2-.28.4-.68.46-.41.06-.75-.06-.78-.25s.28-.4.68-.46c.41-.06.75.06.78.25"/>
      <path class="cls-8" d="M13.11,6.63c0,.17-.16.31-.37.31s-.37-.14-.37-.31.17-.31.37-.31.37.14.37.31"/>
      <path class="cls-8" d="M12.88,4.63c0,.12-.11.21-.25.21s-.25-.1-.25-.21.11-.21.25-.21.25.1.25.21"/>
      <path class="cls-8" d="M18.27,4.42c0,.12-.11.21-.25.21s-.25-.1-.25-.21.11-.21.25-.21.25.09.25.21"/>
      <path class="cls-8" d="M17,5.84c0,.12-.11.21-.25.21s-.25-.09-.25-.21.11-.21.25-.21.25.09.25.21"/>
      <path class="cls-8" d="M8.31,5.43c0,.17-.17.31-.37.31s-.37-.14-.37-.31.16-.31.37-.31.37.14.37.31"/>
      <path class="cls-5" d="M81.85,23.71c-.17,0-.31-.14-.31-.3-.03-2.34-.71-4.15-2.01-5.37-1.94-1.82-4.65-1.72-4.68-1.71-.17,0-.31-.12-.32-.29s.12-.31.29-.32c.12,0,2.99-.12,5.13,1.87,1.43,1.34,2.17,3.3,2.21,5.82,0,.17-.14.31-.3.31h0"/>
      <path class="cls-5" d="M4.93,6.7c-.05,0-.1-.01-.15-.04-1.51-.86-2.14-1.57-1.99-2.25.23-1.03,2.27-1.24,2.68-1.27.17-.01.32.11.33.28s-.11.32-.28.33c-.8.06-2.03.36-2.12.79-.03.13,0,.62,1.69,1.58.15.08.2.27.12.42-.06.1-.16.15-.27.15"/>
      <path class="cls-5" d="M35.13,60.36c-5.96,0-11.21-1.25-11.29-1.27-.17-.04-.27-.2-.23-.37.04-.17.21-.27.37-.22.13.03,12.75,3.04,20.93-.36.15-.06.34,0,.4.17s0,.34-.17.4c-3.03,1.26-6.64,1.66-10.03,1.66"/>
    </g>
  </g>
</svg>