<?xml version="1.0" encoding="UTF-8"?>
<svg id="Layer_2" data-name="Layer 2" xmlns="http://www.w3.org/2000/svg" viewBox="0 0 84.55 78.85">
  <defs>
    <style>
      .cls-1 {
        fill: #dc812b;
      }

      .cls-2 {
        fill: #f29e68;
      }

      .cls-3 {
        fill: #db792b;
      }

      .cls-4 {
        fill: #db722b;
      }

      .cls-5 {
        fill: #da692b;
      }

      .cls-6 {
        fill: #dc822b;
      }

      .cls-7 {
        fill: #cf6629;
      }

      .cls-8 {
        fill: #dc7c2b;
      }

      .cls-9 {
        fill: #db772b;
      }

      .cls-10 {
        fill: #db702b;
      }

      .cls-11 {
        fill: #dd8b2b;
      }

      .cls-12 {
        fill: #d35d2a;
      }
    </style>
  </defs>
  <g id="Layer_1-2" data-name="Layer 1">
    <g>
      <path class="cls-9" d="M84.51,52.26c-.04-.55-.06-1.45-.06-2.59,0-.12,0-.23,0-.35,0-.4,0-.82,0-1.27,0-.25,0-.51,0-.77,0-.7,0-1.45-.01-2.21,0-.05,0-.09,0-.14v-.1c0-.18,0-.36,0-.54,0-.21,0-.42,0-.63,0-.09,0-.18,0-.27,0-.32-.01-.65-.02-.97,0-.09,0-.17,0-.26,0-.11,0-.22-.01-.33,0-.19-.01-.38-.02-.58,0-.23-.02-.45-.03-.68-.01-.34-.03-.68-.05-1.01,0-.03,0-.06,0-.08,0-.08,0-.15-.01-.23,0-.03,0-.06,0-.09,0-.15-.02-.29-.03-.44,0,0,0,0,0-.01,0,0,0,0,0-.01-.02-.23-.03-.46-.05-.68,0-.02,0-.05,0-.07,0-.05,0-.1-.01-.14,0-.03,0-.07,0-.1-.02-.22-.04-.43-.06-.63,0-.04,0-.09-.01-.13,0-.08-.02-.16-.03-.24,0-.06-.01-.11-.02-.17,0-.05-.01-.09-.02-.13-.06-.45-.12-.87-.19-1.26,0-.05-.02-.09-.03-.14,0-.03,0-.05-.01-.08,0-.04-.01-.07-.02-.11,0,0,0-.01,0-.02-.01-.06-.02-.12-.04-.18-.15-.65-.32-1.16-.54-1.49-.02-.03-.04-.06-.06-.09-.02-.02-.04-.04-.06-.06-.04-.05-.09-.09-.15-.14,0,0,0,0,0,0,0,0,0,0,0,0h0c-1.63-1.32-9.46-3.16-17.06-4.49.1-.84.12-1.75.05-2.75-.05-.66-.06-1.84-.07-3.3,0-.24,0-.49,0-.75-.01-4.46-.03-10.96-.81-13.92,0,0,0,0,0,0-.06-.21-.12-.41-.18-.58,0,0,0,0,0,0-.03-.09-.07-.17-.1-.24,0,0,0,0,0,0-.03-.07-.07-.14-.11-.21,0,0,0,0,0-.01-.02-.03-.03-.06-.05-.08-.02-.03-.04-.06-.06-.09-.05-.07-.12-.13-.2-.2C61.18,3.69,35.43-.75,31.93.11c-2.5.61-4.97,1.74-7.22,3.14-3.62,2.24-6.69,5.17-8.47,7.74-.21.3-.39.6-.56.91-.06.1-.11.22-.16.33-.02.04-.03.08-.05.11-.03.08-.07.17-.1.25-.02.05-.03.09-.05.14-.03.09-.06.18-.08.27-.01.04-.03.09-.04.13-.03.11-.06.23-.09.35,0,.03-.01.05-.02.07-.03.15-.06.31-.09.47,0,.01,0,.02,0,.04-.03.15-.05.3-.07.46,0,.03,0,.06-.01.09-.02.15-.04.29-.05.45,0,.02,0,.05,0,.07-.11,1.12-.14,2.39-.11,3.73,0,0,0,0,0,0,.01.64.04,1.31.08,1.98h0c.29,5.14,1.1,10.87.87,13.85-.06.73.34,1.39,1.04,1.97-6.94,1.29-13.62,2.94-15.12,4.14-.09.07-.15.14-.2.2-.02.03-.04.06-.06.09-.02.02-.03.05-.05.07,0,0,0,.02-.01.02-.03.06-.07.13-.1.2,0,0,0,.01,0,.02-.03.07-.06.14-.09.22,0,0,0,.02-.01.03-.03.08-.06.17-.09.26,0,0,0,.02,0,.02-.03.09-.05.18-.08.27,0,.01,0,.02,0,.03-.03.1-.05.21-.08.32,0,0,0,.02,0,.03-.02.1-.05.21-.07.33,0,.01,0,.02,0,.04-.02.12-.05.24-.07.37,0,0,0,.02,0,.02-.02.12-.04.25-.06.38,0,0,0,.02,0,.03-.02.14-.04.28-.06.43,0,0,0,0,0,.01-.02.15-.04.29-.05.45,0,0,0,0,0,0-.37,3.27-.38,7.91-.39,11.37v.06c0,.21,0,.42,0,.63,0,1.55-.02,2.8-.07,3.48-.53,7.04,3.49,9.45,9.98,13.89,2.27,1.56,3.53,3.1,5.06,3.99.74.43,1.53.7,2.54.75.06,0,.13,0,.19,0h0c.07,0,.14,0,.21,0,.98,0,2.1-.12,3.42-.36,2.25-.43,4.47-.96,6.68-1.5,2.63-.63,5.25-1.27,7.91-1.73,3.22-.56,14.48-2.27,14.19-5.97-.04-.48-.05-1.04-.04-1.66.99.2,1.97.41,2.95.63,1.1.26,2.2.52,3.3.79,2.22.54,4.43,1.07,6.68,1.5,1.32.25,2.43.37,3.42.36.07,0,.14,0,.21,0,.06,0,.13,0,.19,0h0c1-.05,1.8-.32,2.54-.75,1.53-.88,2.78-2.43,5.06-3.99,6.48-4.45,10.51-6.86,9.98-13.89Z"/>
      <g>
        <path class="cls-5" d="M84.42,44.94v-.1c0-.18,0-.36,0-.54,0,.26,0,.52,0,.78,0-.05,0-.09,0-.14Z"/>
        <path class="cls-5" d="M84.44,49.32c0-.4,0-.82,0-1.27,0-.25,0-.51,0-.77,0,.86,0,1.67,0,2.39,0-.12,0-.23,0-.35Z"/>
        <path class="cls-5" d="M83.18,33.15c.23.36.42.93.58,1.66-.01-.06-.02-.12-.04-.18-.15-.65-.32-1.16-.54-1.49-.02-.03-.04-.06-.06-.09-.02-.02-.04-.04-.06-.06.02.02.04.04.05.06.02.03.04.06.06.09Z"/>
        <path class="cls-5" d="M83.78,34.94s-.01-.07-.02-.11c.01.06.02.12.04.19,0-.03,0-.05-.01-.08Z"/>
        <path class="cls-5" d="M84.16,37.96s0-.1-.01-.14c0,.07.01.14.02.21,0-.02,0-.05,0-.07Z"/>
        <path class="cls-5" d="M84.07,36.95c0-.08-.02-.16-.03-.24,0-.06-.01-.11-.02-.17.02.17.04.35.06.53,0-.04,0-.09-.01-.13Z"/>
        <path class="cls-5" d="M84.32,40.59c0,.22.02.45.03.68,0-.23-.02-.45-.03-.68Z"/>
        <path class="cls-5" d="M84.37,42.17c0-.11,0-.22-.01-.33,0,.19.01.39.02.58,0-.09,0-.17,0-.26Z"/>
        <path class="cls-5" d="M83.82,35.15c.07.39.13.81.19,1.26-.06-.45-.12-.87-.19-1.26Z"/>
        <path class="cls-5" d="M84.25,39.26s0-.06,0-.09c0,.1.01.21.02.32,0-.08,0-.15-.01-.23Z"/>
        <path class="cls-5" d="M84.22,38.73s0,0,0-.01c0,0,0,.01,0,.02,0,0,0,0,0-.01Z"/>
        <path class="cls-5" d="M81.1,33.81c-.57.3-1.27.67-2.07,1.09-.8.42-1.7.9-2.67,1.43-.97.53-2.02,1.11-3.1,1.74-.5.29-1,.6-1.5.92l11.15-6.13s-.16.09-.47.25c-.31.16-.76.4-1.34.7Z"/>
        <path class="cls-1" d="M84.51,52.26c-.04-.55-.06-1.45-.06-2.59,0-.72,0-1.52,0-2.39,0-.7,0-1.45-.01-2.21,0-.26,0-.52,0-.78,0-.21,0-.42,0-.63,0-.09,0-.18,0-.27,0-.32-.01-.65-.02-.97,0-.2-.01-.39-.02-.58,0-.19-.01-.38-.02-.58,0-.23-.02-.45-.03-.68-.01-.34-.03-.68-.05-1.01,0-.03,0-.06,0-.08,0-.11-.01-.21-.02-.32,0-.15-.02-.29-.03-.44,0,0,0-.02,0-.02-.02-.23-.03-.46-.05-.68,0-.07-.01-.14-.02-.21,0-.03,0-.07,0-.1-.02-.22-.04-.43-.06-.63-.02-.18-.04-.36-.06-.53,0-.05-.01-.09-.02-.13-.06-.45-.12-.87-.19-1.26,0-.05-.02-.09-.03-.14-.01-.06-.02-.12-.04-.19,0,0,0-.01,0-.02-.15-.73-.34-1.31-.58-1.66-.02-.03-.04-.06-.06-.09-.02-.02-.04-.04-.05-.06-.04-.05-.09-.09-.15-.14,0,0,0,0,0,0,0,0,0,0,0,0h0l-11.15,6.13c-.59.37-1.19.77-1.76,1.19-.53.39-1.05.8-1.48,1.24-.12.12-.23.24-.33.37l-.12.98h-.05c-.01,1.34-.02,2.74-.02,4.13-.01,1.48-.01,2.96-.04,4.41,0,.73-.02,1.45-.04,2.17-.02.71-.03,1.42-.05,2.11-.07,2.78-.19,5.37-.32,7.59-.07,1.11-.14,2.13-.21,3.03-.07.9-.14,1.69-.2,2.34-.06.65-.12,1.16-.16,1.51-.03.29-.06.47-.06.52v.3c1-.05,1.8-.32,2.54-.75,1.53-.88,2.78-2.43,5.06-3.99,6.48-4.45,10.51-6.86,9.98-13.89ZM70.39,47.14c-.1-.81-.24-1.75-.12-2.6.2-1.43,1.69-2.73,2.96-3.31.52-.23,1.59-.77,1.95,0,.38.82-1.01,1.43-1.43,1.86-.97,1-1.33,2.61-1.1,3.94.15.89.19,1.46-.59,1.93-1.65.98-1.53-.6-1.68-1.82ZM75.51,63.92c-1.89,1.29-2.93,2.58-4.2,3.31,8.57-9.86,10.8-24.14,11.38-30.72,1.38,2.12.92,13.41,1.1,15.87.44,5.84-2.9,7.84-8.28,11.54Z"/>
        <path class="cls-10" d="M66.93,70.6s-.03-.18-.07-.53c-.04-.35-.12-.85-.18-1.5-.07-.65-.16-1.43-.24-2.34-.08-.9-.17-1.92-.25-3.03-.17-2.22-.31-4.81-.41-7.59-.03-.69-.05-1.4-.07-2.12-.02-.71-.04-1.44-.05-2.17-.03-1.46-.03-2.94-.04-4.43.01-1.49.02-2.96.09-4.45,0-.01,0-.03,0-.04l-11.28-1.77c-.08.07-.16.14-.25.2l4.78.9-1.38,6.27-1.53,6.98h0s-2.65,12.05-2.65,12.05c.55.25,1.1.5,1.67.74-.58-.14-1.16-.28-1.74-.42h0s-.2.91-.2.91c1.1.26,2.2.52,3.3.79,2.22.54,4.43,1.07,6.68,1.5,1.32.25,2.43.37,3.42.36.07,0,.14,0,.21,0,.06,0,.13,0,.19,0h0v-.3s0,.01,0,.01Z"/>
        <path class="cls-6" d="M53.33,67.35c.58.14,1.16.28,1.74.42-.57-.24-1.13-.49-1.67-.74h0s-.07.32-.07.32Z"/>
        <path class="cls-2" d="M80.92,33.37c-.63.18-1.39.4-2.25.68-.87.28-1.84.62-2.88,1.02-1.05.4-2.18.86-3.35,1.41-1.17.55-2.4,1.17-3.63,1.95-.62.39-1.23.83-1.83,1.38-.15.14-.29.28-.43.43l-10.41-.87c-.07.05-.13.09-.2.14-.55.38-1.04.75-1.49,1.12l11.28,1.77s0,.03,0,.04c-.07,1.49-.08,2.97-.09,4.45,0,1.49,0,2.97.04,4.43,0,.73.03,1.45.05,2.17.02.71.04,1.42.07,2.12.1,2.78.25,5.37.41,7.59.08,1.11.17,2.13.25,3.03.08.9.17,1.69.24,2.34.07.65.14,1.16.18,1.5.05.35.07.53.07.53,0,0,0,0,0-.01,0-.05.03-.22.06-.52.04-.35.1-.86.16-1.51.06-.65.14-1.44.2-2.34.07-.9.14-1.92.21-3.03.13-2.22.25-4.82.32-7.59.02-.69.03-1.4.05-2.11.02-.71.03-1.44.04-2.17.02-1.46.03-2.94.04-4.41,0-1.39,0-2.79.02-4.14h.05s.12-.97.12-.97c.1-.12.21-.24.33-.37.43-.44.95-.85,1.48-1.24.58-.42,1.17-.82,1.76-1.19.5-.32,1.01-.62,1.5-.92,1.08-.64,2.12-1.21,3.1-1.74.97-.53,1.87-1,2.67-1.43.8-.42,1.5-.79,2.07-1.09.58-.3,1.03-.54,1.34-.7.31-.16.47-.25.47-.25h0,0s-.18.04-.52.12c-.34.09-.84.21-1.47.39Z"/>
        <path class="cls-11" d="M82.69,36.52c-.58,6.58-2.81,20.85-11.38,30.72,1.27-.73,2.31-2.01,4.2-3.31,5.38-3.69,8.73-5.69,8.28-11.54-.19-2.46.27-13.75-1.1-15.87Z"/>
        <path class="cls-12" d="M57.65,38.32c1.14.13,2.26.25,3.48.04,2.02-.35,3.84.53,5.93.37,2.56-.19,3.31-2.06,5.06-3.58.69-.6,1.98-.79,2.36-1.6.49-1.06-.67-1.58-1.46-2.02-1.49-.83-3.58-1.35-5.34-1.45-.72-.04-1.44-.07-2.16-.09-1.03,3.45-3.86,5.57-7.86,8.32Z"/>
        <path class="cls-11" d="M72.66,47.03c-.23-1.33.13-2.94,1.1-3.94.42-.43,1.81-1.04,1.43-1.86-.36-.77-1.43-.23-1.95,0-1.28.57-2.77,1.88-2.96,3.31-.12.85.01,1.79.12,2.6.15,1.22.03,2.79,1.68,1.82.78-.46.74-1.04.59-1.93Z"/>
        <path class="cls-7" d="M53.33,67.35l.07-.32h0s2.65-12.06,2.65-12.06h0s1.53-6.98,1.53-6.98l1.38-6.27-4.78-.9c-1.28,1.07-2.23,2.03-3.32,2.66-.65.38-1.36.64-2.21.72.39.47.74.93,1.05,1.37.21.3.39.6.56.91.06.1.11.22.16.33.02.04.03.07.05.11.03.08.07.17.1.25.02.04.03.09.04.13.03.09.06.18.08.27.01.04.03.09.04.13.03.12.06.24.09.36,0,.02.01.04.02.06.03.15.06.31.09.47,0,0,0,.02,0,.02.03.15.05.31.07.47,0,.03,0,.05.01.08.02.15.04.3.05.46,0,.02,0,.04,0,.06.11,1.12.14,2.39.11,3.74h0c-.01.64-.04,1.31-.08,1.98h0c-.24,4.3-.85,9.03-.91,12.2.99.2,1.97.41,2.95.63l.2-.91h0Z"/>
        <path class="cls-5" d="M11.29,46.02c-1.08-.64-2.13-1.21-3.1-1.74-.97-.53-1.87-1-2.67-1.43-.8-.42-1.5-.79-2.07-1.09-.58-.3-1.03-.54-1.34-.7-.31-.16-.47-.25-.47-.25l11.15,6.13c-.5-.32-1.01-.62-1.51-.92Z"/>
        <path class="cls-5" d="M3.63,41.31c.63.18,1.39.4,2.25.68.87.28,1.83.62,2.88,1.02,1.05.4,2.18.86,3.35,1.41,1.17.55,2.4,1.17,3.63,1.95.62.39,1.23.83,1.83,1.38.15.14.29.28.43.43l13.84-1.16c7.03-1.04,13.38-1.34,17.06-1.42l.18-.02h-.08s.05.01.07.01c.21,0,.41,0,.6-.01-.31-.45-.66-.91-1.05-1.37.85-.09,1.56-.34,2.21-.72,1.09-.63,2.04-1.59,3.32-2.66.08-.07.16-.13.25-.2.45-.37.94-.74,1.49-1.12.07-.05.13-.09.2-.14l10.41.87c.14-.15.29-.3.43-.43.6-.55,1.21-.99,1.83-1.38,1.23-.79,2.46-1.4,3.63-1.95,1.18-.54,2.3-1,3.35-1.41,1.05-.4,2.02-.73,2.88-1.02.86-.28,1.63-.5,2.25-.68.63-.18,1.13-.3,1.47-.39.34-.08.52-.12.52-.12-1.63-1.32-9.46-3.16-17.06-4.49.1-.84.12-1.75.05-2.75-.05-.66-.06-1.84-.07-3.3,0-.24,0-.49,0-.75-.01-4.46-.03-10.96-.81-13.92,0,0,0,0,0,0-.06-.21-.12-.41-.18-.58,0,0,0,0,0,0-.03-.09-.07-.17-.1-.24,0,0,0,0,0,0-.03-.07-.07-.14-.11-.21,0,0,0,0,0-.01-.02-.03-.03-.06-.05-.08-.02-.03-.04-.06-.06-.09-.05-.07-.12-.13-.2-.2l-11.15,6.13c-.59.38-1.19.77-1.76,1.19-.53.39-1.05.8-1.48,1.24-.12.12-.23.24-.33.37l-.12.98h-.05c-.01,1.34-.02,2.74-.02,4.13-.01,1.48-.01,2.96-.04,4.41,0,.73-.02,1.45-.04,2.17-.02.71-.03,1.42-.05,2.11-.07,2.78-.19,5.37-.32,7.59-.07,1.11-.14,2.13-.21,3.03-.07.9-.14,1.69-.2,2.34-.06.65-.12,1.16-.16,1.51-.04.35-.06.53-.06.53v.29c-.06,0-.13,0-.19,0-.07,0-.14,0-.21,0-.54,0-1.12-.03-1.76-.11.02.03.05.06.07.09-1.24.04-7.53,1.14-9.77,1.06,1.16-.8,1.91-1.72,2.39-2.66-.34-.08-.68-.16-1.02-.25-.5-.12-.99-.24-1.49-.36-.15.08-.34.15-.56.2l-.12.12c-1.3,2.18-3.67,3.72-6.18,3.71-2.13,0-3.94.61-6.04.24-2.02-.35-3.84.53-5.93.37-2.56-.19-3.31-2.06-5.06-3.58-.69-.6-1.98-.79-2.36-1.6-.49-1.06.67-1.58,1.46-2.02,1.49-.83,3.58-1.35,5.34-1.45.7-.04,1.4-.07,2.11-.09-.89-.39-1.66-.81-2.23-1.29-6.94,1.29-13.62,2.94-15.12,4.14,0,0,.18.04.52.12.34.09.84.21,1.47.39ZM67.67,30.09c1.75.1,3.84.62,5.34,1.45.79.44,1.95.96,1.46,2.02-.37.81-1.66.99-2.36,1.6-1.75,1.52-2.5,3.39-5.06,3.58-2.09.15-3.9-.72-5.93-.37-1.22.21-2.34.09-3.48-.04,4-2.75,6.83-4.87,7.86-8.32.72.02,1.45.05,2.16.09ZM65.18,25.73c.44,5.84-2.9,7.84-8.28,11.54-1.89,1.3-2.93,2.58-4.2,3.31,8.57-9.86,10.8-24.14,11.38-30.72,1.38,2.12.92,13.41,1.1,15.87ZM51.66,17.89c.2-1.42,1.69-2.73,2.96-3.31.52-.23,1.59-.77,1.95,0,.38.82-1.01,1.43-1.43,1.86-.97,1-1.33,2.61-1.1,3.94.15.89.19,1.46-.59,1.93-1.66.98-1.53-.6-1.68-1.82-.1-.81-.24-1.75-.12-2.6Z"/>
        <path class="cls-5" d="M.12,56.09c0,.21,0,.42,0,.63,0-.22,0-.46,0-.69v.06Z"/>
        <path class="cls-5" d="M51.17,53.45h0c.03-1.35,0-2.61-.11-3.74.11,1.12.14,2.39.11,3.74Z"/>
        <path class="cls-12" d="M38.84,42.64c-.48.93-1.23,1.86-2.39,2.66,2.24.08,8.53-1.02,9.77-1.06-.02-.03-.05-.06-.07-.09-.52-.06-1.06-.15-1.66-.26-1.9-.36-3.78-.8-5.66-1.25Z"/>
        <path class="cls-1" d="M17.81,78.84h0c-.06,0-.13,0-.19,0,.06,0,.13,0,.19,0Z"/>
        <path class="cls-1" d="M17.56,78.01c-.03-.35-.1-.86-.16-1.51-.06-.65-.14-1.44-.2-2.34-.07-.9-.14-1.92-.21-3.03-.13-2.22-.25-4.81-.32-7.59-.02-.69-.03-1.4-.05-2.11-.02-.71-.03-1.44-.04-2.16-.02-1.46-.03-2.94-.04-4.41,0-1.39,0-2.79-.02-4.14h-.05s-.12-.97-.12-.97c-.1-.12-.21-.24-.33-.37-.43-.44-.95-.85-1.48-1.24-.58-.42-1.17-.81-1.76-1.19l-11.15-6.13c-.09.07-.15.14-.2.2-.02.03-.04.06-.06.09-.02.02-.03.05-.05.07,0,0,0,.02-.01.02-.03.06-.07.13-.1.2,0,0,0,.01,0,.02-.03.07-.06.14-.09.22,0,0,0,.02-.01.03-.03.08-.06.17-.09.26,0,0,0,.02,0,.02-.03.09-.05.18-.08.27,0,.01,0,.02,0,.03-.03.1-.05.21-.08.32,0,0,0,.02,0,.03-.02.1-.05.21-.07.33,0,.01,0,.02,0,.04-.02.12-.05.24-.07.37,0,0,0,.02,0,.02-.02.12-.04.25-.06.38,0,0,0,.02,0,.03-.02.14-.04.28-.06.43,0,0,0,0,0,.01-.02.15-.04.29-.05.45,0,0,0,0,0,0-.37,3.27-.38,7.91-.39,11.37,0,.24,0,.47,0,.69,0,1.55-.02,2.8-.07,3.48-.53,7.04,3.49,9.45,9.98,13.89,2.27,1.56,3.53,3.1,5.06,3.99.74.43,1.53.7,2.54.75v-.29s-.02-.19-.06-.53ZM9.05,71.87c-5.38-3.69-8.73-5.69-8.28-11.54.19-2.46-.27-13.75,1.1-15.87.58,6.58,2.81,20.85,11.38,30.72-1.27-.73-2.31-2.01-4.2-3.31ZM14.17,55.09c-.15,1.21-.03,2.79-1.68,1.82-.78-.46-.74-1.04-.59-1.93.23-1.33-.13-2.94-1.1-3.94-.42-.43-1.81-1.04-1.43-1.86.36-.78,1.43-.23,1.95,0,1.28.57,2.77,1.88,2.96,3.31.12.85-.01,1.79-.12,2.6Z"/>
        <path class="cls-10" d="M51.09,55.43c.04-.67.06-1.33.08-1.98.03-1.35,0-2.61-.11-3.74,0-.02,0-.04,0-.06-.02-.16-.03-.31-.05-.46,0-.03,0-.05-.01-.08-.02-.16-.05-.32-.07-.47,0,0,0-.02,0-.02-.03-.16-.06-.32-.09-.47,0-.02-.01-.04-.02-.06-.03-.12-.06-.24-.09-.36-.01-.04-.02-.09-.04-.13-.03-.09-.05-.18-.08-.27-.01-.04-.03-.09-.04-.13-.03-.09-.06-.17-.1-.25-.02-.04-.03-.08-.05-.11-.05-.12-.1-.23-.16-.33-.16-.31-.35-.61-.56-.91-.19,0-.39,0-.6.01-.02,0-.05,0-.07,0l-30.18,4.74s0,.03,0,.04c.07,1.49.08,2.97.09,4.45,0,1.49,0,2.97-.04,4.43,0,.73-.03,1.45-.05,2.17-.02.72-.04,1.42-.07,2.12-.1,2.78-.25,5.37-.41,7.59-.08,1.11-.17,2.13-.25,3.03-.08.9-.17,1.69-.24,2.34-.07.65-.14,1.16-.18,1.5-.05.35-.07.53-.07.53v.29c.06,0,.13,0,.19,0,.07,0,.14,0,.21,0,.98,0,2.1-.12,3.42-.36,2.25-.43,4.47-.96,6.68-1.5,2.63-.63,5.25-1.27,7.91-1.73,3.22-.56,14.48-2.27,14.19-5.97-.04-.48-.05-1.04-.04-1.66.06-3.17.67-7.89.91-12.19h0ZM48.97,68.92c.25,3.27-9.68,4.77-12.51,5.27-2.35.41-4.65.97-6.97,1.53,12.05-5.01,17.69-13.31,20.25-19.01-.25,4.53-.97,9.59-.77,12.21Z"/>
        <path class="cls-6" d="M29.48,75.71c2.32-.56,4.63-1.12,6.97-1.53,2.84-.49,12.77-2,12.51-5.27-.21-2.63.52-7.68.77-12.21-2.56,5.69-8.2,14-20.25,19.01Z"/>
        <path class="cls-10" d="M48.93,45.6c-3.68.08-10.03.38-17.06,1.42l17.06-1.42Z"/>
        <path class="cls-2" d="M3.46,41.75c.57.3,1.27.67,2.07,1.09.8.42,1.7.9,2.67,1.43.97.53,2.01,1.11,3.1,1.74.5.29,1,.6,1.51.92.59.38,1.18.77,1.76,1.19.53.39,1.05.8,1.48,1.24.12.12.23.24.33.37l.12.98h.05c.01,1.34.02,2.74.02,4.13.01,1.48.01,2.96.04,4.41,0,.73.02,1.45.04,2.16.02.71.03,1.42.05,2.11.07,2.78.19,5.37.32,7.59.07,1.11.14,2.13.21,3.03.07.9.14,1.69.2,2.34.06.65.12,1.16.16,1.51.04.35.06.53.06.53,0,0,.03-.18.07-.53.04-.35.12-.86.18-1.5.07-.65.16-1.43.24-2.34.09-.9.17-1.92.25-3.03.17-2.22.31-4.81.41-7.59.03-.69.05-1.4.07-2.12.02-.71.04-1.44.05-2.17.03-1.46.03-2.94.04-4.43-.01-1.49-.02-2.96-.09-4.45,0-.01,0-.03,0-.04l30.18-4.74h.08s-.18,0-.18,0l-17.06,1.42-13.84,1.16c-.14-.15-.29-.3-.43-.43-.6-.55-1.21-.99-1.83-1.38-1.23-.79-2.46-1.4-3.63-1.95-1.18-.54-2.3-1-3.35-1.41-1.05-.4-2.02-.73-2.88-1.02-.86-.28-1.63-.5-2.25-.68-.63-.18-1.13-.3-1.47-.39-.34-.08-.52-.12-.52-.12,0,0,.16.09.47.25.31.16.76.4,1.34.7Z"/>
        <path class="cls-11" d="M.76,60.33c-.44,5.84,2.9,7.84,8.28,11.54,1.89,1.3,2.93,2.58,4.2,3.31C4.68,65.31,2.45,51.04,1.87,44.46c-1.38,2.12-.92,13.41-1.1,15.87Z"/>
        <path class="cls-12" d="M18.99,37.95c-.71.02-1.41.05-2.11.09-1.75.1-3.84.62-5.34,1.45-.79.44-1.95.96-1.46,2.02.37.81,1.66,1,2.36,1.6,1.75,1.52,2.49,3.39,5.06,3.58,2.09.15,3.9-.72,5.93-.37,2.1.36,3.91-.25,6.04-.24,2.51.01,4.88-1.52,6.18-3.71l.12-.12c.22-.05.41-.12.56-.2-2.13-.51-4.26-1-6.41-1.38-2.06-.36-7.42-1.19-10.93-2.71Z"/>
        <path class="cls-11" d="M11.32,49.18c-.52-.23-1.59-.77-1.95,0-.38.82,1.01,1.43,1.43,1.86.97,1,1.33,2.61,1.1,3.94-.15.89-.19,1.46.59,1.93,1.65.98,1.53-.6,1.68-1.82.1-.81.23-1.75.12-2.6-.2-1.42-1.69-2.73-2.96-3.31Z"/>
        <path class="cls-3" d="M62.49,7.16c-.57.3-1.27.67-2.07,1.09-.8.42-1.7.9-2.67,1.43-.97.53-2.02,1.11-3.1,1.74-.5.29-1,.6-1.5.92l11.15-6.13s-.16.09-.47.25c-.31.16-.76.4-1.34.7Z"/>
        <path class="cls-3" d="M14.88,15.12c-.11,1.12-.14,2.39-.11,3.73,0,0,0,0,0,0-.03-1.34,0-2.61.11-3.73Z"/>
        <path class="cls-3" d="M16.91,11h-.08s.18,0,.18,0c3.68.08,10.03.38,17.07,1.42l13.85,1.16c.14-.15.29-.3.43-.43.6-.55,1.21-.99,1.83-1.38,1.23-.79,2.46-1.4,3.63-1.95,1.18-.54,2.3-1,3.35-1.41,1.05-.4,2.02-.73,2.89-1.02.86-.28,1.63-.5,2.25-.68.63-.18,1.13-.3,1.47-.39.34-.08.52-.12.52-.12C61.18,3.69,35.43-.75,31.93.11c-2.5.61-4.97,1.74-7.22,3.14-3.62,2.24-6.69,5.17-8.47,7.74.19,0,.39,0,.6.01.02,0,.05,0,.07,0ZM30.42,3.91c.93-1.02,2.59-1.83,3.96-1.95,2.44-.22,5.04,1.11,7.51,1.24,2.38.12,4.81.11,7.19.24,1.76.1,3.84.62,5.34,1.45.79.44,1.95.96,1.46,2.02-.37.81-1.66,1-2.36,1.6-1.75,1.52-2.5,3.39-5.06,3.58-2.09.15-3.9-.72-5.93-.37-2.1.36-3.91-.25-6.04-.24-2.51.01-4.88-1.52-6.18-3.7l-.12-.12c-2.29-.54-.58-2.83.24-3.73ZM26.44,3.56c-.24,1.62-.24,4.87,3.05,7.13-2.24.09-8.53-1.02-9.77-1.06,1.46-2.03,3.88-4.31,6.72-6.08Z"/>
        <path class="cls-6" d="M29.49,10.7c-3.29-2.26-3.29-5.51-3.05-7.13-2.84,1.76-5.26,4.04-6.72,6.08,1.24.04,7.53,1.14,9.77,1.06Z"/>
        <path class="cls-1" d="M29.92,40.66c2.16.38,4.29.87,6.41,1.38.5.12.99.24,1.49.36.34.08.68.16,1.02.25,1.88.45,3.76.89,5.66,1.25.59.11,1.14.2,1.66.26.63.07,1.22.11,1.76.11-.46-.62-.88-1.22-1.69-1.69-.93-.54-2.03-1.06-2.35-2.19-.28-1,.03-1.89-.64-2.82-.66-.91-1.62-1-2.44-1.51-.97-.61-.73-1.54-.73-2.59,0-.92.2-2.15-.16-2.96-.37-.84-1.41-1.71-2.22-2.08-.89-.41-1.83,0-2.44-.89-.6-.87-.26-2.06-.77-2.97-1.13-1.98-3.65-2.73-5.77-2.59-2.13.13-4.95.72-4.94-2.22,0-1.16.12-2.08-.87-2.84-.96-.75-1.85-.32-2.96-.49-2.53-.4-2.42-3.12-3.09-5.06l-.25.25c.1-.24.17-.44.26-.59-.21,0-.41,0-.6-.01-.21.3-.39.6-.56.91-.06.1-.11.22-.16.33-.02.04-.03.08-.05.11-.03.08-.07.17-.1.25-.02.05-.03.09-.05.14-.03.09-.06.18-.08.27-.01.04-.03.09-.04.13-.03.11-.06.23-.09.35,0,.03-.01.05-.02.07-.03.15-.06.31-.09.47,0,.01,0,.02,0,.04-.03.15-.05.3-.07.46,0,.03,0,.06-.01.09-.02.15-.04.29-.05.45,0,.02,0,.05,0,.07-.11,1.12-.14,2.39-.11,3.73.01.64.04,1.31.08,1.98h0c.29,5.14,1.1,10.87.87,13.85-.06.73.34,1.39,1.04,1.97.57.48,1.34.91,2.23,1.29,3.51,1.52,8.87,2.35,10.93,2.71ZM16.98,34.32c.21-2.63-.52-7.68-.77-12.21,2.56,5.69,8.2,14,20.25,19.01-2.32-.56-4.63-1.12-6.97-1.53-2.84-.49-12.77-2-12.51-5.27Z"/>
        <path class="cls-11" d="M36.46,41.12c-12.05-5.01-17.69-13.31-20.25-19.01.25,4.53.97,9.58.77,12.21-.26,3.27,9.68,4.77,12.51,5.27,2.35.41,4.65.97,6.97,1.53Z"/>
        <path class="cls-8" d="M17.01,11l17.07,1.42c-7.03-1.04-13.39-1.34-17.07-1.42Z"/>
        <path class="cls-8" d="M48.07,41.91c-.07-.65-.16-1.43-.24-2.34-.08-.9-.17-1.92-.25-3.03-.17-2.22-.31-4.81-.41-7.59-.03-.7-.05-1.4-.07-2.12-.02-.71-.04-1.44-.05-2.17-.03-1.46-.03-2.94-.03-4.43.01-1.49.02-2.96.09-4.45,0-.01,0-.03,0-.04l-30.18-4.74s-.05,0-.07,0c-.09.15-.16.35-.26.59l.25-.25c.67,1.94.55,4.67,3.09,5.06,1.11.18,2-.26,2.96.49.99.76.87,1.68.87,2.84-.01,2.95,2.81,2.36,4.94,2.22,2.13-.14,4.65.61,5.77,2.59.52.9.18,2.1.77,2.97.61.89,1.55.48,2.44.89.81.37,1.85,1.24,2.22,2.08.35.81.16,2.04.16,2.96,0,1.05-.24,1.98.73,2.59.82.51,1.79.6,2.44,1.51.67.92.36,1.81.64,2.82.32,1.14,1.43,1.66,2.35,2.19.82.47,1.24,1.07,1.69,1.69.07,0,.14,0,.21,0,.06,0,.13,0,.19,0v-.29s-.03-.18-.07-.53c-.04-.35-.12-.86-.18-1.5Z"/>
        <path class="cls-2" d="M62.31,6.72c-.63.18-1.39.4-2.25.68-.87.28-1.84.62-2.89,1.02-1.05.4-2.18.86-3.35,1.41-1.18.55-2.4,1.17-3.63,1.95-.62.39-1.23.83-1.83,1.38-.15.13-.29.28-.43.43l-13.85-1.16-17.07-1.42h-.18s.08,0,.08,0l30.18,4.74s0,.03,0,.04c-.07,1.49-.07,2.97-.09,4.45,0,1.48,0,2.97.03,4.43,0,.73.03,1.45.05,2.17.02.72.04,1.42.07,2.12.1,2.78.25,5.37.41,7.59.08,1.11.17,2.13.25,3.03.08.9.17,1.69.24,2.34.07.65.14,1.16.18,1.5.05.35.07.53.07.53,0,0,.02-.19.06-.53.03-.35.1-.86.16-1.51.06-.65.14-1.44.2-2.34.07-.9.14-1.92.21-3.03.13-2.22.25-4.81.32-7.59.02-.69.03-1.4.05-2.11.02-.71.03-1.44.04-2.17.02-1.46.03-2.94.04-4.41,0-1.39,0-2.79.02-4.14h.05s.12-.97.12-.97c.1-.12.21-.25.33-.37.43-.44.95-.85,1.48-1.24.58-.42,1.17-.81,1.76-1.19.5-.32,1.01-.62,1.5-.92,1.08-.64,2.13-1.21,3.1-1.74.97-.53,1.87-1,2.67-1.43.8-.42,1.5-.79,2.07-1.09.58-.3,1.03-.54,1.34-.7.31-.16.47-.25.47-.25,0,0-.18.04-.52.12-.34.09-.84.21-1.47.39Z"/>
        <path class="cls-12" d="M56.9,37.27c5.38-3.69,8.73-5.69,8.28-11.54-.19-2.46.27-13.75-1.1-15.87-.58,6.58-2.81,20.85-11.38,30.72,1.27-.73,2.31-2.01,4.2-3.31Z"/>
        <path class="cls-9" d="M30.17,7.64l.12.12c1.3,2.18,3.67,3.72,6.18,3.7,2.13,0,3.94.61,6.04.24,2.02-.35,3.84.53,5.93.37,2.56-.19,3.31-2.06,5.06-3.58.69-.6,1.98-.78,2.36-1.6.49-1.06-.67-1.58-1.46-2.02-1.49-.83-3.58-1.35-5.34-1.45-2.37-.14-4.81-.12-7.19-.24-2.47-.13-5.07-1.45-7.51-1.24-1.37.12-3.03.93-3.96,1.95-.82.91-2.54,3.2-.24,3.73Z"/>
        <path class="cls-4" d="M53.46,22.31c.78-.46.74-1.04.59-1.93-.23-1.33.13-2.94,1.1-3.94.42-.43,1.81-1.04,1.43-1.86-.36-.77-1.43-.23-1.95,0-1.28.57-2.77,1.88-2.96,3.31-.12.85.02,1.79.12,2.6.15,1.21.03,2.79,1.68,1.82Z"/>
      </g>
    </g>
  </g>
</svg>