<?xml version="1.0" encoding="UTF-8"?>
<svg id="Layer_2" data-name="Layer 2" xmlns="http://www.w3.org/2000/svg" viewBox="0 0 9.65 10.91">
  <defs>
    <style>
      .cls-1 {
        fill: #524c2f;
      }
    </style>
  </defs>
  <g id="Layer_1-2" data-name="Layer 1">
    <path class="cls-1" d="M6.66,5.19s0-.02,0-.03c0,0,0,0,0,0l-.24-.87s-.05-.08-.1-.08c-.05,0-.09.02-.12.06l-1.45,2.5s0,0,0,0c-.06.11-.16.19-.3.2-.14.01-.26-.05-.33-.16h0s-1.82-2.73-1.82-2.73c-.02-.03-.05-.05-.08-.05-.04,0-.07,0-.09.03,0,0-.01.01-.02.02l-.46.39s-.04.06-.04.09c0,.04.02.07.05.09.16.12.29.3.33.57.1.58-.75,3.11-1.04,3.96-.01.04,0,.09.03.12l.82.86s.05.04.08.04h4.89s.05,0,.07-.03l.92-.76s.05-.08.04-.12l-1.13-4.08s0,0,0,0h0ZM7.36,4.56c.48-.14,1.17-.27,1.59.04.18.13.36.43.49.81.13.38.22.87.2,1.35-.02.51-.15,1.03-.48,1.45-.17.22-.39.42-.67.58-.05.03-.07.08-.06.13l.12.42s0,0,0,0c.05.14,0,.3-.11.4l-1.28,1.06s0,0,0,0c-.06.06-.15.09-.24.09H1.66c-.1,0-.19-.04-.26-.11l-1.16-1.22h0c-.09-.1-.13-.24-.08-.37,0,0,1.19-3.36,1.1-3.88-.04-.22-.41-.19-.51-.18,0,0,0,0,0,0-.13.03-.26-.02-.35-.12-.13-.15-.11-.38.05-.51l.64-.53s.05-.08.03-.13c-.02-.05-.06-.08-.11-.08H.36c-.2,0-.36-.16-.36-.36s.16-.36.36-.36h1.03s.08-.02.1-.06c.02-.04.02-.08,0-.12L.48,1.35c-.11-.17-.07-.39.1-.51.06-.04.14-.06.21-.06,0,0,0,0,0,0l2.63-.13s.06-.02.08-.04c.02-.02.03-.05.03-.09v-.13c-.03-.2.12-.38.32-.39.02,0,.05,0,.07,0,0,0,0,0,0,0l4.01.16c.2,0,.36.18.35.38,0,.06-.02.12-.05.17h0s-1.25,2.17-1.25,2.17c-.02.04-.02.08,0,.12.02.04.06.06.1.06h.88c.2,0,.36.16.36.36s-.16.36-.36.36h-.8s-.07.02-.09.05-.03.07-.02.1l.15.55s.03.06.06.07c.03.02.06.02.09,0h0ZM8.36,8.02c.09-.07.16-.15.23-.23.22-.3.32-.67.33-1.04.01-.39-.06-.78-.16-1.09-.08-.24-.18-.41-.25-.47-.2-.15-.64-.04-.97.07-.06.02-.09.08-.07.14l.71,2.56s.04.07.08.08c.04.01.08,0,.11-.02h0ZM3.9,4.77l-.07-.88c0-.06-.06-.11-.12-.11h-.51s-.08.02-.1.06c-.02.04-.02.08,0,.12l.59.88s.08.06.14.05c.05-.02.08-.07.08-.12h0ZM3.74,2.92l-.12-1.44c0-.06-.06-.11-.12-.11l-1.85.09s-.08.03-.1.06c-.02.04-.02.08,0,.12l.9,1.34s.06.05.1.05h1.07s.06-.01.09-.04c.02-.02.03-.06.03-.09h0ZM4.3.88l.18,2.07c0,.06.06.11.12.11h1.4s.08-.02.1-.06l1.13-1.96s.02-.08,0-.11c-.02-.04-.06-.06-.1-.06l-2.7-.11s-.07.01-.09.04c-.02.03-.03.06-.03.09h0ZM4.56,3.9l.1,1.14c0,.05.04.09.09.1.05.01.1-.01.13-.06l.66-1.14s.02-.08,0-.12c-.02-.04-.06-.06-.1-.06h-.76s-.06.01-.09.04c-.02.02-.03.06-.03.09h0Z"/>
  </g>
</svg>