<?xml version="1.0" encoding="UTF-8"?>
<svg id="Layer_2" data-name="Layer 2" xmlns="http://www.w3.org/2000/svg" viewBox="0 0 90.89 81.12">
  <defs>
    <style>
      .cls-1 {
        fill: #ffc96b;
      }

      .cls-2 {
        fill: #8c4e16;
      }

      .cls-3 {
        fill: #f7ead9;
      }

      .cls-4 {
        fill: #f0d9c2;
      }

      .cls-5 {
        fill: #ffd591;
      }

      .cls-6 {
        fill: #b0691a;
      }

      .cls-7 {
        fill: #753f0e;
      }

      .cls-8 {
        fill: #ed9b3b;
      }

      .cls-9 {
        fill: #f8b76a;
      }

      .cls-10 {
        fill: #d99950;
      }

      .cls-11 {
        fill: #b7711e;
      }
    </style>
  </defs>
  <g id="Layer_1-2" data-name="Layer 1">
    <g>
      <path class="cls-1" d="M9,58.64c-.07-.05-.14-.1-.21-.16.05.06.12.12.21.16ZM90.12,78.23c0,1.2.18,3.23-1.63,2.83-2.41-.14-4.83-.38-7.17-.97-2.12-.73-4.11-1.82-6.2-2.64-1.91-.84-4.01-1.09-5.98-1.75-4.03-1.61-8.1-3.06-12.32-4.1-2.43-.63-4.94-.7-7.4-1.13-1.71-.32-3.37-.89-5.1-1.14-3.19-.39-6.31-1.14-9.43-1.89-2.7-.43-5.32-1.19-7.91-2.04-2.38-.69-4.79-1.31-7.04-2.37-3.19-1.34-6.76-1.87-9.75-3.62-1.11-.09-2.05-.41-2.24-1.48-.29-.68-.39-2.19-.5-2.45-.02-.27-.05-.54-.07-.82-.67-2.05-.88-4.31-1.25-6.38-.39-2.87-.94-5.71-1.19-8.6-.05-.58-.12-1.15-.2-1.72,0-.04-.02-.08-.02-.12-.36-1.43-.8-2.84-.82-4.33-.6-7.58-1.32-4.17,4.22-6.04,2.99-1.03,5.95-2.16,8.9-3.3,2.72-1.19,5.4-2.48,8.27-3.27,3.54-1.04,7.12-1.97,10.66-3.02,3.54-1.25,7.15-2.21,10.82-2.97,3.06-.89,6.18-1.33,9.37-1.16,2.15-.08,3.34-.06,4.99,1.55.91.82,1.85,1.62,2.54,2.63,1.04,1.33,1.71,2.92,2.84,4.19,4.05,5.21,7.91,10.56,12.06,15.69,2.23,2.82,4.56,5.6,6.29,8.77.81,1.62,1.38,3.36,2.31,4.92.65,1.26,1.8,2.2,2.4,3.48.15,1.57-.24,3.18-.1,4.78.21,4,.31,8.01.54,12.01.11,2.15.08,4.3.1,6.45Z"/>
      <path class="cls-8" d="M90.11,76.62c0,.09,0,.19,0,.28-.17.05-.33.09-.5.12-.13.02-.25.04-.38.04,0,0-.01,0-.02,0-.13,0-.25-.03-.36-.09-.09-.04-.17-.1-.22-.19-.12-.03-.23-.05-.35-.08-.16-.04-.32-.08-.47-.13-.17-.05-.34-.1-.51-.17-.17-.06-.34-.13-.5-.21-.16-.08-.32-.16-.49-.24-.22-.11-.44-.21-.66-.31-.21-.09-.42-.16-.64-.24-.92-.3-1.85-.52-2.8-.72,0,0,0,0,0,0-.59-.11-1.19-.22-1.78-.33-.59-.11-1.18-.24-1.76-.39-.56-.15-1.12-.34-1.68-.51-.59-.18-1.18-.34-1.78-.48-.39-.08-.78-.14-1.17-.21-.41-.06-.82-.15-1.22-.24-.38-.09-.76-.2-1.14-.31-.4-.11-.8-.21-1.21-.32-.41-.11-.81-.22-1.22-.34-.4-.12-.79-.24-1.19-.37-.78-.24-1.56-.47-2.33-.73-.79-.26-1.58-.5-2.37-.76-.4-.13-.79-.26-1.18-.4-.37-.13-.74-.28-1.11-.41-.24-.08-.49-.16-.73-.23-.29-.08-.57-.16-.86-.23-.54-.14-1.07-.28-1.6-.46-.51-.18-1.02-.37-1.52-.57-.53-.21-1.06-.43-1.6-.62-.25-.09-.5-.17-.75-.25-.27-.08-.54-.16-.81-.25-.16-.05-.32-.1-.49-.16-.03,0-.06-.02-.09-.03-.06-.01-.12-.04-.17-.06-.03-.01-.07-.02-.1-.04-.02,0-.03,0-.04-.02-.09-.03-.17-.06-.26-.09-.28-.1-.56-.21-.84-.32-.27-.1-.55-.2-.82-.3-.37-.12-.74-.23-1.11-.33-.39-.1-.78-.2-1.17-.29-.78-.18-1.56-.35-2.34-.51-.48-.1-.97-.19-1.45-.28-.52-.09-1.04-.17-1.56-.26-.49-.08-.98-.18-1.47-.29-.51-.11-1.01-.23-1.52-.34-.8-.16-1.62-.3-2.41-.49-.81-.2-1.61-.45-2.41-.7-.81-.25-1.62-.48-2.44-.72-.79-.23-1.58-.49-2.36-.74-.82-.27-1.64-.53-2.47-.79-.78-.24-1.57-.47-2.34-.72-.8-.26-1.59-.52-2.39-.76-.43-.12-.86-.25-1.28-.39-.38-.12-.76-.25-1.14-.39-.27-.1-.54-.19-.81-.29-.52-.18-1.05-.35-1.57-.54-.47-.17-.94-.35-1.41-.52-.31-.11-.63-.2-.95-.27-.34-.08-.68-.16-1.02-.23-.3-.06-.6-.13-.9-.19-.15-.03-.29-.07-.44-.12-.14-.05-.27-.13-.39-.23-.21-.17-.34-.4-.45-.64-.08-.17-.16-.35-.23-.52-.15-.37-.29-.75-.4-1.14-.11-.37-.2-.74-.31-1.1-.06-.2-.12-.41-.18-.61-.06-.19-.12-.38-.17-.57-.22-.79-.42-1.58-.63-2.38-.08-.29-.15-.59-.23-.88-.09-.33-.19-.65-.26-.99-.04-.17-.08-.34-.11-.51-.03-.17-.06-.35-.09-.52-.05-.35-.07-.7-.09-1.04-.02-.28-.05-.55-.09-.83-.04-.27-.09-.55-.14-.82-.1-.52-.14-1.05-.16-1.58-.02-.58-.03-1.17-.02-1.76.01-.53.08-1.06.12-1.59.03-.43.03-.86.04-1.29,0-.43.03-.85.04-1.28.01-.44,0-.87,0-1.31,0-.42,0-.84-.02-1.25,0-.02,0-.03,0-.05,0-.02,0-.04,0-.06,0-.03,0-.07-.01-.1,0-.06-.01-.11-.02-.17,0-.02,0-.04,0-.07,0-.03,0-.06-.01-.09,0-.04-.01-.07-.02-.11,0-.02,0-.03,0-.05.1.04.19.09.29.13.27.12.54.23.81.34.3.11.59.22.89.33.33.12.65.23.98.34.3.1.61.19.91.28.6.18,1.19.38,1.77.63.55.24,1.09.5,1.64.75.21.09.41.18.63.26.25.09.51.18.77.25.53.15,1.05.3,1.57.47.5.17.99.37,1.48.55.53.19,1.07.37,1.61.54.47.15.94.3,1.42.44.43.12.85.24,1.28.34.23.06.46.1.69.14.23.04.46.08.69.12.66.1,1.33.18,1.98.31.33.07.66.15.98.24.29.08.59.17.88.26.6.17,1.21.33,1.8.55.31.11.61.23.92.34.31.11.61.21.93.31.52.15,1.04.29,1.57.42.56.14,1.12.29,1.7.39.2.03.41.06.61.09.26.04.51.09.76.15.49.12.97.3,1.44.48.94.35,1.89.68,2.85.97.42.12.84.23,1.26.35.42.12.85.23,1.28.33.47.11.93.22,1.4.33.46.11.92.24,1.38.36.45.12.89.24,1.34.36.45.12.9.22,1.36.33.45.11.9.23,1.35.35.43.12.85.24,1.28.35.42.11.84.21,1.26.31.44.11.87.24,1.3.38.86.27,1.69.59,2.54.89.4.14.8.28,1.2.42.43.15.86.32,1.28.5.39.17.77.34,1.15.51.39.16.78.33,1.16.49.33.14.66.29.99.42.34.13.69.24,1.03.34.38.11.76.22,1.13.35.37.12.73.26,1.09.41.36.15.71.3,1.07.43.39.15.79.28,1.19.41.37.12.74.24,1.1.37.36.13.71.28,1.06.43.35.15.68.32,1.02.49.39.19.79.38,1.19.56.4.18.81.36,1.21.54.39.17.77.36,1.16.53,0,0-.02,0-.02-.01.01,0,.02,0,.03.01t0,0c.64.28,1.28.55,1.93.78.67.24,1.36.44,2.03.66.33.11.65.22.98.34.34.13.67.27,1,.4.33.13.65.26.99.38.31.11.63.21.95.31.38.11.76.2,1.13.31.34.1.67.21,1,.31.32.09.64.18.96.29.34.11.67.24,1.01.36.12.04.23.08.35.12,0,.01,0,.03,0,.04-.01.18-.02.35-.03.53-.02.45-.02.89.02,1.34.21,4,.31,8.01.54,12.01.08,1.61.09,3.22.09,4.84Z"/>
      <path class="cls-6" d="M89.62,55.77s0,.08,0,.12c0,.01,0,.02,0,.03,0,.03,0,.06,0,.09,0,.02,0,.04,0,.06,0,.03,0,.07,0,.1,0,.04,0,.09,0,.13,0,.04,0,.09,0,.13,0,.04,0,.08,0,.12,0,.14-.02.28-.03.43,0,.07-.01.14-.02.2,0,.06,0,.12-.01.18,0,.04,0,.08,0,.13-.01.14-.02.27-.03.41,0-.01,0-.03,0-.04-.12-.04-.24-.08-.35-.12-.34-.12-.67-.25-1.01-.36-.32-.1-.64-.19-.96-.29-.34-.1-.67-.21-1-.31-.38-.11-.75-.2-1.13-.31-.32-.09-.63-.2-.95-.31-.33-.12-.66-.25-.99-.38-.33-.14-.67-.28-1-.4-.32-.12-.65-.23-.98-.34-.68-.22-1.36-.42-2.03-.66-.65-.23-1.29-.5-1.93-.78t0,0s-.02,0-.03-.01c0,0,.02,0,.02.01-.39-.18-.77-.36-1.16-.53-.4-.18-.81-.36-1.21-.54-.4-.18-.8-.37-1.19-.56-.34-.17-.68-.34-1.02-.49-.35-.15-.7-.3-1.06-.43-.36-.13-.73-.26-1.1-.37-.4-.13-.8-.26-1.19-.41-.36-.13-.71-.29-1.07-.43-.36-.15-.72-.29-1.09-.41-.38-.12-.75-.24-1.13-.35-.35-.1-.7-.2-1.03-.34-.33-.13-.66-.28-.99-.42-.39-.17-.78-.33-1.16-.49-.39-.16-.77-.34-1.15-.51-.42-.18-.85-.35-1.28-.5-.4-.14-.8-.28-1.2-.42-.84-.3-1.68-.62-2.54-.89-.43-.14-.86-.26-1.3-.38-.42-.11-.84-.21-1.26-.31-.43-.11-.85-.23-1.28-.35-.45-.12-.9-.24-1.35-.35-.45-.11-.91-.22-1.36-.33-.45-.11-.89-.23-1.34-.36-.46-.12-.92-.25-1.38-.36-.47-.11-.93-.22-1.4-.33-.43-.1-.85-.21-1.28-.33-.42-.12-.84-.23-1.26-.35-.96-.28-1.91-.62-2.85-.97-.47-.18-.95-.36-1.44-.48-.25-.06-.5-.11-.76-.15-.2-.03-.41-.06-.61-.09-.57-.1-1.13-.25-1.7-.39-.52-.13-1.05-.27-1.57-.42-.31-.09-.62-.19-.93-.31-.31-.11-.61-.23-.92-.34-.59-.21-1.2-.37-1.8-.55-.29-.09-.59-.18-.88-.26-.32-.09-.65-.17-.98-.24-.65-.14-1.32-.21-1.98-.31-.23-.04-.46-.07-.69-.12-.23-.04-.47-.08-.69-.14-.43-.11-.86-.22-1.28-.34-.47-.14-.95-.29-1.42-.44-.54-.18-1.08-.35-1.61-.54-.5-.18-.98-.38-1.48-.55-.52-.18-1.04-.32-1.57-.47-.26-.08-.52-.16-.77-.25-.21-.08-.42-.17-.63-.26-.55-.25-1.09-.51-1.64-.75-.57-.25-1.17-.45-1.77-.63-.3-.09-.61-.18-.91-.28-.33-.11-.66-.22-.98-.34-.3-.11-.6-.21-.89-.33-.27-.11-.54-.22-.81-.34-.1-.04-.19-.09-.29-.13,0,0,0-.02,0-.02,0-.02,0-.04-.01-.05,0-.03-.01-.05-.02-.08-.04-.18-.09-.34-.14-.52-.04-.14-.07-.27-.11-.41-.06-.2-.1-.41-.14-.61-.08-.39-.12-.8-.15-1.2-.02-.19-.03-.38-.03-.57,0-.1,0-.19,0-.29,0-.23.04-.45.09-.68,0,0,0,0,0,0,.06-.02.11-.04.17-.06.08-.03.15-.05.23-.08,2.56-.9,5.09-1.88,7.62-2.85,2.72-1.19,5.4-2.48,8.27-3.27,3.54-1.04,7.12-1.97,10.66-3.02,3.54-1.25,7.15-2.21,10.82-2.97,3.06-.89,6.18-1.33,9.37-1.16,2.15-.08,3.34-.06,4.99,1.55.91.82,1.85,1.62,2.54,2.63,1.04,1.33,1.71,2.92,2.84,4.19,4.05,5.21,7.91,10.56,12.06,15.69,2.23,2.82,4.56,5.6,6.29,8.77.81,1.62,1.38,3.36,2.31,4.92.65,1.26,1.8,2.2,2.4,3.48.02.26.03.52.03.78Z"/>
      <path class="cls-11" d="M84.58,62.99c.81.32,1.11,1.26,1.19,2.06-.06.97-1.45,1.23-2.2.91-1.02-.32-1.39-1.84-.37-2.4.41-.28.84-.81,1.38-.57Z"/>
      <path class="cls-11" d="M81.17,66.06c.43.87.31,1.51-.11,1.92-.02.02-.04.04-.06.05s-.04.03-.06.05c-.16.13-.35.22-.57.3-.03,0-.06.02-.09.03-.15.04-.31.08-.48.09.17-.08.32-.17.46-.29.14-.12.27-.26.36-.43.09-.17.15-.35.16-.55,0-.18-.02-.36-.07-.53-.02-.08-.04-.16-.07-.24-.02-.07-.04-.14-.07-.21-.1-.24-.22-.47-.38-.68-.21-.27-.47-.49-.77-.66-.26-.14-.53-.27-.8-.38-.04-.02-.08-.03-.12-.05.18-.16.39-.29.63-.33.99.05,1.59,1.15,2.04,1.91Z"/>
      <path class="cls-11" d="M83.44,58.68c.74.36,1.55.94,1.79,1.76-.12,1.37-1.61,2.18-2.91,2.2.22-.16.42-.35.47-.63.03-.15.03-.3.02-.45,0-.01,0-.03,0-.04,0-.01,0-.02,0-.04-.02-.21-.08-.42-.17-.62-.07-.14-.15-.28-.26-.39-.1-.1-.22-.18-.36-.24-.24-.11-.48-.21-.74-.29-.12-.04-.25-.08-.38-.11-.13-.03-.27-.07-.41-.08-.12-.01-.24-.02-.36-.03-.13-.01-.25-.03-.38-.05-.06-.01-.13-.03-.19-.05-.04-.02-.08-.03-.12-.05-.04-.02-.08-.04-.12-.07-.05-.04-.1-.07-.14-.11-.27-.24-.5-.51-.74-.78-.12-.13-.23-.27-.35-.4-.06-.07-.12-.13-.18-.2,0,0,0-.01-.01-.02,0,0,0,0,0,0-.03-.04-.07-.08-.1-.12-.06-.06-.11-.12-.17-.19-.2-.22-.42-.44-.64-.64-.11-.1-.22-.2-.33-.29-.19-.15-.37-.32-.59-.42-.18-.09-.38-.14-.59-.12-.18.02-.35.07-.51.15-.07.03-.14.07-.2.11.12-.11.23-.18.33-.22.25-.07.5-.1.76-.1,1.1,0,2.22.56,3.14,1.09.11.1.29.21.43.34.76.34,1.55.63,2.35.86.55.11,1.14.01,1.67.22Z"/>
      <path class="cls-11" d="M69.33,58.45c-.04-.05-.08-.1-.13-.15-.07-.07-.13-.14-.2-.21-.09-.08-.18-.15-.27-.22-.24-.17-.53-.31-.83-.27-.16.02-.31.07-.46.12-.24.07-.49.14-.74.19-.18.04-.37.07-.55.11-.16.04-.33.09-.49.12-.07.01-.14.02-.2.03-.04,0-.08,0-.12,0-.07,0-.14-.02-.21-.03-.13-.03-.26-.07-.39-.1-.14-.03-.28-.04-.42-.01-.09.02-.18.05-.27.08-.14.05-.28.09-.42.14-.13.04-.27.07-.4.1,0,0,0,0,0,0-.15.03-.29.06-.44.11-.14.05-.28.12-.4.21-.11.09-.21.19-.3.31-.11.16-.19.33-.26.51-.06.17-.11.34-.13.52-.03.2-.04.41-.01.61.01.09.02.18.04.27.05.34.14.69.33.98.12.18.26.35.42.51.16.15.32.29.48.43-.83-.31-1.47-.99-2.09-1.6-.44-.3-.87-.75-.71-1.32.2-.74.82-1.27,1.11-1.98.29-1.37,1.41-1.9,2.69-2.11.16-.06.31-.09.46-.09.02,0,.05,0,.07,0,.03,0,.07,0,.1.01.03,0,.07.01.1.02.03,0,.07.02.1.03.02,0,.04.01.07.02.03.01.06.02.1.04.06.03.13.06.19.09.01,0,.02.01.03.02.02.01.04.02.06.04.03.02.06.04.09.06.01,0,.02.01.03.02.01,0,.02.01.03.02.01,0,.02.01.03.02.06.04.12.08.18.13.02.01.04.03.06.04.02.01.04.03.06.04.04.03.08.06.12.09.03.02.06.04.09.06.02.01.04.03.06.04.14.1.29.19.44.26.77.69,1.89.28,2.63.95.2.24.28.49.29.75Z"/>
      <path class="cls-11" d="M68.32,65.71c.07,0,.14,0,.21,0-.16.28-.29.58-.39.89-.12.41-.2.83-.21,1.26,0,.4.04.81.18,1.19.03.08.06.15.1.22-.19-.09-.38-.17-.58-.26-.1-.05-.19-.1-.28-.15-.04-.02-.07-.05-.11-.07-.02-.02-.05-.03-.07-.05-.06-.04-.11-.08-.16-.12-.03-.02-.06-.05-.09-.07,0,0-.02-.02-.03-.03-.02-.02-.04-.03-.05-.05-.57-.57-.62-1.23-.34-1.77.01-.02.03-.05.04-.07.02-.04.04-.07.07-.1.02-.03.05-.07.08-.1.02-.02.04-.04.06-.06.02-.02.04-.04.06-.06.36-.36.89-.59,1.5-.59Z"/>
      <path class="cls-11" d="M58.73,57.71c1.29.74-.32,2.21-1.32,1.66-.45-.3-.34-.99-.19-1.43.36-.43,1.03-.55,1.51-.23Z"/>
      <path class="cls-11" d="M56.19,56.81s.02.01.03.02c-.08,0-.16.01-.23.01-.05,0-.09,0-.13,0-.64-.12-1.48-.11-1.89-.7-.32-.55-.31-1.35.25-1.73.22-.74.73-1.17,1.33-1.35-.2.23-.35.49-.43.78-.1.34-.12.7-.07,1.05.04.27.08.54.17.8.07.19.17.37.31.53.07.08.15.16.22.23.1.1.21.19.32.28.04.03.08.06.12.09Z"/>
      <path class="cls-11" d="M53.19,60.19c.47.61.5,1.51.39,2.25-.14.56-.53.84-1.01.98.17-.1.34-.21.48-.36.13-.14.25-.29.32-.47.06-.15.09-.33.05-.49-.02-.1-.06-.19-.12-.27-.03-.04-.06-.08-.09-.12-.04-.05-.09-.11-.13-.16-.19-.23-.41-.43-.63-.64-.21-.2-.43-.39-.66-.56-.25-.19-.51-.36-.78-.53-.31-.2-.68-.35-1.06-.33-.25.01-.49.08-.73.14-.14.04-.29.08-.43.12-.14.03-.28.07-.43.1-.18.03-.37.07-.55.08-.08,0-.16,0-.24,0-.06,0-.12-.01-.18-.02-.05-.01-.1-.02-.14-.04-.04-.02-.09-.03-.13-.06-.03-.02-.06-.03-.09-.05-.03-.02-.06-.04-.08-.06-.01-.01-.02-.02-.04-.04-.02-.03-.04-.05-.06-.08,0,0,0,0,0-.01.04-.04.08-.07.13-.11.13-.31,1.35-.89,1.99-.89.24,0,.4.08.39.29.64.14,1.18.54,1.82.66.7.09,1.45.17,2,.66Z"/>
      <path class="cls-11" d="M49.97,52.53c1.4.77,2.09,3.11.02,3.47-.9.2-1.85.81-2.77.37-1.46-.85-1.06-2.01.1-2.9.34-.98,1.76-1.34,2.65-.94Z"/>
      <path class="cls-11" d="M43.4,48.5c-.12-.03-.25-.05-.38-.06-.34-.03-.68-.02-1.02,0-.3,0-.61.02-.91.04-.16.01-.33.03-.49.04-.16.02-.33.04-.49.05-.04,0-.08,0-.12,0,1-.7,2.37-.72,3.42-.06Z"/>
      <path class="cls-11" d="M47.25,50.2c.91.65,1.43,2.23-.16,2.35-.69.05-1.4.17-2.1.17-.08,0-.16,0-.24,0,.05-.03.1-.06.15-.09.31-.2.54-.54.67-.88.07-.19.1-.39.09-.59-.01-.17-.05-.34-.11-.5-.06-.16-.13-.3-.21-.44-.07-.13-.16-.25-.24-.37-.09-.13-.18-.25-.27-.37-.19-.24-.41-.46-.66-.63,1.04.42,2.08.84,3.08,1.34Z"/>
      <path class="cls-11" d="M34.79,55.25c.91,2.12-1.83,2.51-3.33,2.51h-.02c-.88-.03-1.61-.56-2.35-.98-.6-.26-1.27-.33-1.84-.66-1.25-.72-2.38-2.92-.71-3.81.09-.26.19-.47.29-.66,0,0,0,.01,0,.02-.06.17-.11.35-.14.53-.04.19-.06.37-.08.56-.03.25-.03.51.02.76.07.36.27.71.56.94.25.2.55.33.86.43.14.04.28.09.42.13.14.04.28.08.42.12.22.07.45.14.68.16.03,0,.07,0,.1,0,.27,0,.54-.07.8-.13.14-.03.27-.06.41-.1.19-.04.38-.07.57-.09.11,0,.22,0,.33,0,.12,0,.23.02.35.04.13.02.27.04.4.03.13-.02.25-.05.36-.11.26-.14.46-.36.61-.61.02-.03.04-.06.06-.09.49.26.94.55,1.24,1.01Z"/>
      <path class="cls-11" d="M28.67,45.3c.29.32.51.69.7,1.09-.27-.11-.54-.2-.83-.26-.2-.04-.41-.07-.62-.05-.09,0-.17.03-.26.05-.08.02-.17.04-.25.07-.36.13-.67.37-.89.68-.22.31-.38.67-.45,1.05-.04.25-.05.5-.02.75,0,.07.01.14.02.21-1.27-.61-1.61-1.96-.11-3.01.1-.41.32-.71.59-.91.08-.06.16-.1.25-.14h0s.07-.03.11-.04c.15-.05.3-.07.46-.07.45,0,.92.2,1.29.58Z"/>
      <path class="cls-11" d="M24.08,48.73c1.21.92.72,2.59-.32,3.44-.06.04-.11.09-.17.12.04-.14.07-.29.08-.44,0-.17,0-.35-.03-.52-.01-.11-.03-.22-.05-.32-.03-.16-.08-.31-.17-.45-.1-.14-.22-.26-.35-.37-.13-.1-.26-.2-.39-.3-.11-.08-.23-.16-.34-.24-.13-.08-.25-.17-.38-.24-.27-.15-.54-.3-.84-.38-.3-.08-.6-.13-.9-.15-.29-.02-.58-.04-.87-.04-.11,0-.21,0-.32.03,0,0,0,0,0,0,.1-.22.22-.43.38-.58.02-.02.05-.04.07-.07.21-.18.48-.28.83-.28.05,0,.1,0,.15,0,1.23.18,2.6-.03,3.62.8Z"/>
      <path class="cls-11" d="M22.08,45.68c2.06-.6,2.22,2.24-.08,2-1.27.04-.88-1.89.08-2Z"/>
      <path class="cls-11" d="M14.97,53.71c.1.07.19.14.29.21-.22.07-.43.11-.59.1-.04,0-.07,0-.11,0-.07,0-.15,0-.22-.02-.01,0-.03,0-.04,0-.04,0-.08-.02-.12-.03-.03-.01-.07-.02-.1-.03-.02,0-.03-.01-.05-.02-.02,0-.03-.01-.05-.02-.03-.02-.06-.03-.09-.05-.05-.03-.09-.06-.13-.09-.01-.01-.03-.02-.04-.03-.04-.03-.08-.07-.13-.11h0s-.03-.03-.04-.04c-.01-.01-.03-.03-.04-.04-.01-.02-.03-.03-.04-.05-.06-.06-.11-.13-.16-.21-.03-.04-.05-.07-.08-.11-.01-.02-.02-.04-.04-.06h0c-.09-.14-.16-.3-.23-.46-.02-.04-.03-.08-.05-.12-.02-.04-.03-.08-.04-.13-.03-.09-.05-.17-.08-.26-.01-.04-.02-.09-.03-.13h0c-.1-.44-.13-.91-.09-1.33,0,0,0,0,0,0h0s0-.05,0-.08h0s0-.05.01-.08c0-.03,0-.05.01-.07,0-.03,0-.05.02-.08.02-.1.05-.2.08-.29.02-.05.04-.1.06-.15,0-.02.02-.04.03-.06,0,0,0-.01,0-.02.01-.03.03-.06.04-.09,0-.01.01-.02.02-.03.01-.02.02-.04.04-.06.02-.04.05-.08.08-.11.01-.02.03-.04.04-.05.01-.02.03-.03.04-.05,0,0,.02-.02.02-.02.03-.03.06-.06.1-.09.03-.02.05-.04.08-.06.04-.02.07-.05.11-.07.02-.01.04-.02.06-.03.05-.02.11-.04.16-.06.07-.01.15-.02.22-.02.21,0,.41.04.61.11-.09.1-.18.21-.27.31-.09.1-.17.22-.24.33-.08.12-.17.24-.24.37-.08.14-.16.28-.23.43-.11.24-.18.49-.2.75-.02.37.05.76.24,1.08.17.28.4.5.66.7.23.18.48.34.72.51Z"/>
      <path class="cls-11" d="M13.57,40.18c1.33-1.12,3.42,3.38-.12,3.3-1.4-.4-1.8-3.55.12-3.3Z"/>
      <path class="cls-5" d="M82.25,61.57s0,0,0,.01h0s0,0,0-.01Z"/>
      <path class="cls-5" d="M82.81,61.56s0,0,0,0c0,0,0,.02,0,.02,0,0,0-.01,0-.02Z"/>
      <path class="cls-5" d="M82.8,61.54s0,0,0,.01c0,0,0,0,0-.01Z"/>
      <path class="cls-5" d="M82.8,61.53s0,.01,0,.02c0,0,0-.01,0-.02Z"/>
      <path class="cls-5" d="M82.8,61.52s0,0,0,0c0,0,0,0,0,0,0,0,0,0,0,0Z"/>
      <path class="cls-5" d="M82.8,61.51s0,.01,0,.02c0,0,0-.01,0-.02Z"/>
      <path class="cls-5" d="M82.8,61.49s0-.01,0-.02c0,0,0,.02,0,.03,0,0,0,0,0,0Z"/>
      <path class="cls-5" d="M82.8,61.46s0,0,0,0c0,0,0,0,0,0Z"/>
      <path class="cls-5" d="M16.59,52.74c.02.36-.32.69-.75.93-.02.01-.05.03-.07.04-.02.01-.05.02-.07.04-.02.01-.04.02-.06.03,0,0,0,0-.01,0-.02.01-.04.02-.07.03h0c-.07.03-.15.06-.22.09-.02,0-.05.02-.07.02-.1-.07-.19-.14-.29-.21-.24-.17-.49-.33-.72-.51-.26-.2-.49-.42-.66-.7-.19-.32-.26-.71-.24-1.08.01-.26.09-.51.2-.75.07-.15.15-.29.23-.43.07-.13.16-.25.24-.37.08-.11.16-.23.24-.33.09-.11.18-.21.27-.31,0,0,0,0,0,0,.02,0,.04.02.06.02.01,0,.03.01.04.02.08.03.16.07.23.11.01,0,.03.02.04.02,0,0,.02,0,.02.01.02,0,.03.02.05.03.01,0,.02.01.04.02,0,0,.02.01.03.02.31.19.59.44.84.68.43.77.64,1.69.71,2.57Z"/>
      <path class="cls-5" d="M23.64,51.32c.02.17.04.35.03.52,0,.15-.03.3-.08.44h0s-.02.01-.03.02c-.02.02-.05.03-.07.05-.02.01-.03.02-.05.03-.02.01-.03.02-.05.03-.02,0-.03.02-.05.03-.02,0-.03.02-.05.03-.01,0-.03.01-.04.02,0,0,0,0,0,0-.02,0-.04.02-.05.02-.03.01-.06.03-.09.04-.01,0-.02,0-.03.01,0,0,0,0,0,0-.01,0-.02,0-.03.01,0,0-.02,0-.03.01-.02,0-.04.02-.07.02-.01,0-.02,0-.03.01,0,0,0,0-.01,0,0,0-.01,0-.02,0-.01,0-.02,0-.03,0-.02,0-.03.01-.05.02,0,0,0,0,0,0-.02,0-.03,0-.05.01h0c-.5.14-1.05.18-1.57.18-.03,0-.05,0-.08,0-1.31-.02-2.89-.9-2.45-2.41.02-.13.05-.27.08-.42,0-.05.02-.11.03-.16,0-.02,0-.04.01-.07,0-.01,0-.03,0-.04,0-.02,0-.05.01-.07,0-.03.01-.05.02-.08,0-.02,0-.04.01-.05,0,0,0-.02,0-.03,0,0,0-.02,0-.03,0,0,0,0,0,0,0-.03.02-.06.02-.09,0,0,0,0,0-.01,0,0,0-.02,0-.03,0,0,0-.02,0-.03,0-.02.01-.05.02-.07,0-.01,0-.02,0-.03,0-.01,0-.03.01-.04,0,0,0,0,0-.01.01-.03.02-.07.03-.1,0-.02.01-.03.02-.05.01-.03.02-.07.04-.1,0-.02.01-.03.02-.05,0-.01.01-.03.02-.04h0c.1-.02.21-.03.32-.03.29,0,.58.02.87.04.31.02.61.07.9.15.3.09.57.23.84.38.13.07.26.16.38.24.12.08.23.16.34.24.13.1.26.19.39.3.13.11.25.23.35.37.09.14.14.29.17.45.02.11.04.22.05.32Z"/>
      <path class="cls-5" d="M29.68,47.15c.03.08.06.15.08.23-.1,1.11-1.66,1.77-2.72,1.77-.06,0-.12,0-.18,0-.07-.01-.14-.03-.21-.05-.03,0-.05-.01-.08-.02-.03,0-.05-.01-.08-.02-.03,0-.05-.02-.07-.02-.02,0-.04-.02-.07-.02-.05-.02-.1-.04-.15-.06-.02,0-.05-.02-.07-.03-.02,0-.04-.02-.06-.03,0,0,0,0,0,0,0-.07-.01-.14-.02-.21-.02-.25-.02-.5.02-.75.07-.38.23-.74.45-1.05.22-.31.53-.55.89-.68.08-.03.16-.05.25-.07.08-.02.17-.04.26-.05.21-.02.42.02.62.05.28.06.56.15.83.26h0s0,.02.01.03c.01.02.02.05.03.07.02.05.04.09.06.14.02.05.04.09.06.14s.04.09.06.14c.03.08.06.17.1.25Z"/>
      <path class="cls-5" d="M33.54,54.25s-.04.06-.06.09c-.15.25-.36.47-.61.61-.11.06-.24.09-.36.11-.13.02-.27,0-.4-.03-.12-.02-.23-.03-.35-.04-.11,0-.22,0-.33,0-.19.02-.38.05-.57.09-.14.03-.27.06-.41.1-.26.06-.53.13-.8.13-.03,0-.07,0-.1,0-.23-.02-.46-.09-.68-.16-.14-.04-.28-.08-.42-.12-.14-.04-.28-.08-.42-.13-.31-.1-.6-.23-.86-.43-.29-.23-.49-.58-.56-.94-.05-.25-.05-.51-.02-.76.02-.19.05-.37.08-.56.04-.18.09-.36.14-.53,0,0,0-.01,0-.02,0-.01.02-.03.02-.04,0-.01.02-.03.02-.04,0-.01.02-.03.02-.04,0-.01.02-.03.03-.04.01-.02.03-.05.04-.07,0-.01.02-.03.03-.04,0-.01.02-.02.03-.03.02-.02.03-.04.05-.07,0-.01.02-.02.03-.03.08-.1.17-.18.26-.24,0,0,.01,0,.02-.01.04-.03.08-.06.13-.08,0,0,.02,0,.03-.01h.03s.02-.02.03-.03c0,0,.02,0,.03-.01.02,0,.03-.01.05-.02,0,0,0,0,0,0,0,0,.02,0,.02,0h0c.12-.04.25-.06.38-.06.05,0,.1,0,.16,0,.02,0,.04,0,.06,0,.02,0,.04,0,.06.01.02,0,.04,0,.06.01.04.01.09.02.13.03.08.02.15.05.23.08.01,0,.02,0,.03.01.04.02.09.04.13.06.01,0,.02.01.03.02.07.03.13.07.2.11.67.39,1.37,1.03,2.02,1.58.09.07.17.15.26.22.08.07.17.14.25.2.04.03.08.06.12.1.04.03.08.06.12.09.1.07.19.14.29.2.25.18.53.33.82.48.16.08.33.17.49.25Z"/>
      <path class="cls-5" d="M45.65,51.16c.01.2-.02.4-.09.59-.13.35-.35.68-.67.88-.05.03-.1.06-.15.09,0,0-.01,0-.02,0-.02,0-.04,0-.06,0-.02,0-.04,0-.05,0-.02,0-.03,0-.05,0-.01,0-.02,0-.03,0-.02,0-.03,0-.05,0-.02,0-.04,0-.07,0-.03,0-.06,0-.09-.01-.02,0-.04,0-.07-.01-.02,0-.04,0-.06-.01-.06-.01-.11-.02-.17-.03-.02,0-.03,0-.05-.01,0,0-.01,0-.02,0-.01,0-.03,0-.04-.01-.01,0-.02,0-.03,0-.01,0-.03,0-.04-.01-.05-.01-.09-.03-.14-.04-.02,0-.03-.02-.05-.03-.02,0-.03-.02-.05-.02,0,0-.01,0-.02,0,0,0-.01,0-.02,0,0,0,0,0,0,0,0,0,0,0-.01,0,0,0-.02,0-.02-.01,0,0,0,0,0,0-.01,0-.03-.01-.04-.02-.03-.01-.06-.03-.09-.04-.03-.01-.06-.02-.09-.03-.05-.02-.09-.03-.14-.04-.02,0-.03,0-.05-.01-.03,0-.06-.01-.1-.02-.02,0-.03,0-.05,0-.05,0-.1-.02-.15-.02-.02,0-.03,0-.05,0-.07,0-.13-.01-.2-.02h0c-.09,0-.19-.01-.28-.01h0s-.04,0-.07,0c-.02,0-.03,0-.05,0-.13,0-.25,0-.38,0-.08,0-.15,0-.23,0-.2,0-.41.02-.61.02-.69,0-1.35-.09-1.86-.61,0,0-.02-.02-.03-.03-.03-.04-.07-.07-.1-.11-1.03-1.23-.58-1.55.46-2.42.04-.04.08-.09.12-.13.02-.02.04-.05.07-.07.02-.02.03-.03.05-.04.02-.02.03-.03.05-.05.01-.01.02-.02.03-.03.02-.02.04-.03.05-.04.01-.01.03-.02.04-.03.02-.01.03-.02.05-.04.01-.01.03-.02.04-.03.02-.01.04-.03.06-.04.04,0,.08,0,.12,0,.16-.01.33-.04.49-.05.16-.02.33-.03.49-.04.3-.02.6-.03.91-.04.34,0,.68-.02,1.02,0,.13.01.26.03.38.06,0,0,0,0,0,0,.03.02.05.03.08.05.03.02.05.04.08.05.2.08.41.17.61.25.25.17.47.39.66.63.09.12.18.24.27.37.08.12.16.24.24.37.08.14.16.29.21.44.06.16.1.33.11.5Z"/>
      <path class="cls-5" d="M53.41,62.09c.04.16.01.34-.05.49-.07.18-.18.33-.32.47-.14.14-.3.26-.48.36-.04.01-.07.02-.11.03-.02,0-.04,0-.06.01-.02,0-.04,0-.05.01-.03,0-.06.01-.09.02-.06,0-.13.02-.19.02-.01,0-.02,0-.03,0-.05,0-.11,0-.16.01,0,0-.01,0-.02,0-.05,0-.11,0-.16,0-.01,0-.03,0-.04,0-.01,0-.03,0-.04,0-.37,0-.73-.04-1.04-.07-.05,0-.1-.02-.14-.03-.03,0-.06-.01-.1-.02-.03,0-.06-.01-.1-.02-.02,0-.04,0-.06-.01-.9-.17-1.82-.34-2.57-.9-.89-.63-1.61-1.59-1.11-2.48h0s0-.01,0-.02c0-.01.01-.02.02-.04.01-.02.03-.05.05-.07,0-.01.02-.03.03-.04,0-.01.02-.02.03-.04.01-.02.03-.04.04-.05,0,0,.01-.02.02-.03.02-.03.05-.05.08-.08,0,0,.02-.02.03-.03.02-.02.04-.04.06-.05,0,0,0,0,0,.01.02.03.04.05.06.08.01.01.02.02.04.04.03.02.05.04.08.06.03.02.06.03.09.05.04.02.09.04.13.06.05.02.1.03.14.04.06.01.12.02.18.02.08,0,.16,0,.24,0,.19-.02.37-.05.55-.08.14-.03.28-.06.43-.1.14-.03.29-.08.43-.12.24-.07.48-.13.73-.14.38-.02.75.13,1.06.33.27.17.53.34.78.53.23.17.45.36.66.56.22.2.43.41.63.64.04.05.09.1.13.16.03.04.06.08.09.12.05.09.09.17.12.27Z"/>
      <path class="cls-5" d="M59.42,54.12c.89,1.3-1.25,2.34-2.71,2.63h0s-.03,0-.05,0c-.02,0-.05,0-.07.01-.02,0-.04,0-.07.01-.07.01-.14.02-.2.03-.02,0-.04,0-.06,0-.02,0-.04,0-.05,0,0,0,0,0,0,0,0,0-.02-.01-.03-.02-.04-.03-.08-.06-.12-.09-.11-.08-.22-.18-.32-.28-.08-.08-.16-.15-.22-.23-.13-.16-.23-.33-.31-.53-.1-.26-.14-.53-.17-.8-.05-.35-.03-.71.07-1.05.08-.29.24-.56.43-.78h0s0,0,0,0c.05-.02.11-.03.16-.04.01,0,.02,0,.03,0,0,0,0,0,.01,0,.01,0,.02,0,.04,0,.01,0,.03,0,.04,0,.01,0,.03,0,.04,0,.02,0,.04,0,.05,0,.02,0,.04,0,.06,0,.02,0,.04,0,.05,0,.01,0,.03,0,.04,0,.03,0,.06,0,.09,0,.02,0,.05,0,.07,0,.02,0,.04,0,.06,0,.02,0,.05,0,.07,0,.01,0,.03,0,.04,0,.12,0,.25.02.37.04.02,0,.03,0,.05,0,0,0,0,0,0,0,.02,0,.04,0,.05,0h.01s.03,0,.04.01c.04,0,.07.02.11.02.02,0,.04,0,.05.01.02,0,.03,0,.05.01h0s.06.02.09.03c.05.02.11.03.16.05.04.01.07.03.11.04.07.03.14.06.21.09.05.02.1.05.15.08.05.03.1.05.15.08.51.12,1.06.27,1.39.69Z"/>
      <path class="cls-5" d="M69.33,58.45s0,.06,0,.1c0,.01,0,.03,0,.04,0,.01,0,.02,0,.03,0,.06-.01.12-.02.18,0,.03-.01.06-.02.09,0,.02,0,.04-.01.06,0,.02,0,.03-.01.05-.01.05-.03.1-.05.15,0,0,0,0,0,0,0,.02-.01.03-.02.04,0,.02-.01.03-.02.05,0,.02-.01.03-.02.05,0,0,0,0,0,0-.26.62-.73,1.23-.96,1.76-.41.83-1.37,1.04-2.17,1.3-.67.21-1.35.52-2.05.58h0s0,0-.01,0h0s-.05,0-.07,0c-.02,0-.04,0-.07,0-.03,0-.05,0-.08,0-.02,0-.03,0-.05,0-.03,0-.07,0-.1,0-.08,0-.17-.01-.25-.03-.09-.02-.17-.04-.25-.07,0,0-.02,0-.02,0-.03,0-.06-.02-.09-.03-.17-.14-.33-.28-.48-.43-.16-.15-.3-.32-.42-.51-.19-.29-.28-.64-.33-.98-.01-.09-.03-.18-.04-.27-.02-.2-.02-.41.01-.61.03-.18.07-.35.13-.52.07-.18.15-.36.26-.51.08-.12.18-.22.3-.31.12-.09.26-.16.4-.21.14-.05.29-.08.44-.11,0,0,0,0,0,0,.14-.03.27-.06.4-.1.14-.04.28-.09.42-.14.09-.03.18-.06.27-.08.14-.03.28-.02.42.01.13.03.26.07.39.1.07.01.14.02.21.03.04,0,.08,0,.12,0,.07,0,.14-.02.2-.03.17-.04.33-.08.49-.12.18-.05.37-.08.55-.11.25-.05.49-.12.74-.19.15-.04.31-.1.46-.12.3-.03.59.11.83.27.1.07.19.14.27.22.07.07.14.14.2.21.04.05.09.1.13.15Z"/>
      <path class="cls-5" d="M82.81,61.56c0,.15,0,.3-.02.45-.05.27-.25.47-.47.63-.01,0-.02,0-.03,0-.02,0-.04,0-.06,0-.06,0-.11,0-.17,0-.02,0-.04,0-.06,0-.04,0-.07,0-.11-.01-.02,0-.04,0-.05,0-.03,0-.05,0-.08,0-.04,0-.08,0-.11,0-.01,0-.03,0-.04,0-.05,0-.1,0-.16-.01,0,0-.01,0-.02,0-1.53-.13-2.99-.44-4.3-1.3-1.02-.3-2.04-.68-2.79-1.48-.29-.36-.59-.8-.67-1.27-.03-.19-.02-.38.03-.56.08-.09.28-.32.51-.54,0,0,0-.02,0-.03,0-.01,0-.02,0-.03,0,0,0-.02,0-.03,0-.01,0-.03.01-.04,0,0,0-.02,0-.03,0,0,0-.01,0-.02,0-.01,0-.03.01-.04,0,0,0-.02,0-.02,0-.01,0-.02.01-.03,0,0,0-.02.01-.02.02-.05.05-.1.07-.14,0-.02.02-.03.03-.04,0-.01.02-.03.02-.04,0,0,.01-.02.02-.03,0,0,0,0,0,0,0-.01.01-.02.02-.03.04-.06.09-.12.14-.18.02-.02.03-.04.05-.05,0,0,.01-.02.02-.02.02-.02.03-.04.05-.05.02-.02.03-.03.05-.05.07-.04.13-.08.2-.11.16-.08.33-.14.51-.15.21-.02.41.03.59.12.22.11.41.27.59.42.11.09.22.19.33.29.22.2.44.42.64.64.06.06.11.12.17.19.03.04.07.08.1.12,0,0,0,0,0,0,0,0,0,.01.01.02.06.07.12.13.18.2.12.13.23.27.35.4.24.27.47.54.74.78.05.04.09.08.14.11.04.02.08.05.12.07.04.02.08.04.12.05.06.02.13.04.19.05.13.02.25.04.38.05.12,0,.24.02.36.03.14.01.27.05.41.08.13.03.25.07.38.11.25.08.5.18.74.29.13.06.25.14.36.24.11.11.19.25.26.39.09.19.16.4.17.62,0,.01,0,.02,0,.04,0,.01,0,.03,0,.04Z"/>
      <path class="cls-5" d="M80.71,66.7c.05.17.08.35.07.53,0,.19-.07.37-.16.55-.08.16-.22.31-.36.43-.14.12-.29.22-.46.29-.03,0-.05,0-.08,0,0,0-.01,0-.02,0-.03,0-.05,0-.08,0,0,0,0,0,0,0-.03,0-.06,0-.09,0h0s-.06,0-.1,0c-.2,0-.41-.02-.62-.05-.01,0-.02-.01-.03-.02-.01,0-.02-.01-.03-.02-.1-.05-.19-.11-.28-.17-.76-.54-1.25-1.58-.83-2.46.15-.27.31-.59.5-.87,0,0,0,0,0-.01.01-.02.02-.03.03-.05.03-.04.06-.08.09-.12.02-.02.03-.04.05-.06.01-.02.03-.03.04-.05.03-.03.06-.07.09-.1,0,0,.01-.01.02-.02.01-.01.03-.03.04-.04.04.02.08.03.12.05.27.12.54.24.8.38.3.16.56.39.77.66.16.21.27.44.38.68.03.07.05.14.07.21.03.08.05.16.07.24Z"/>
      <path class="cls-5" d="M73.75,67.79c1.24.63,1.36,1.28.94,1.77-.02.02-.04.04-.06.06h0s-.04.04-.06.06c-.03.03-.06.06-.1.08-.02.02-.05.04-.07.05-.09.06-.18.12-.29.17-.04.02-.09.04-.14.07-.45.2-1.02.32-1.56.32-.03,0-.07,0-.1,0-1.03-.04-2.01-.29-2.97-.63,0,0-.01,0-.02,0-.09-.03-.17-.06-.26-.1,0,0-.01,0-.02,0l-.12-.05s-.01,0-.02,0c-.04-.02-.08-.03-.13-.05-.09-.04-.19-.08-.28-.12-.03-.01-.06-.03-.09-.04-.06-.03-.13-.06-.19-.08-.04-.07-.07-.15-.1-.22-.14-.38-.19-.79-.18-1.19,0-.43.08-.85.21-1.26.09-.31.22-.61.39-.89.04,0,.08,0,.12.01.01,0,.02,0,.03,0,.01,0,.03,0,.04,0,.04,0,.09.02.13.03.01,0,.02,0,.04,0,.05.01.09.02.14.04.02,0,.05.01.07.02.26.08.53.21.81.39.58.32,1.11.77,1.74.98.69.23,1.46.16,2.08.57Z"/>
      <path class="cls-5" d="M30.97,43.86c.11.5-.17.99-1.04.99-.1,0-.21,0-.33-.02-.6-.14-1.62-.73-1.11-1.44.11-.15.26-.39.46-.39.03,0,.07,0,.1.02.03-.01.06-.03.08-.04.07-.03.14-.05.21-.07.03,0,.05-.01.08-.02.14-.03.27-.03.4-.02,0,0,.02,0,.03,0,0,0,.01,0,.02,0,0,0,.01,0,.02,0,0,0,.01,0,.02,0,.12.02.24.06.34.11,0,0,.02,0,.03.01.02.01.04.02.06.03,0,0,.02,0,.02.01.02.01.05.03.07.04,0,0,.02.01.02.02,0,0,.01.01.02.02.07.05.13.11.19.17,0,.01.02.02.03.03.03.03.06.07.08.11,0,0,0,.01.01.02,0,0,.01.02.02.03,0,0,0,.01.01.02,0,0,0,.01.01.02,0,.01.02.03.03.04,0,.01.02.03.02.04,0,0,0,.02.01.02,0,0,0,.02.01.02,0,.02.01.03.02.05,0,.01.01.03.02.04,0,0,0,.02,0,.03,0,0,0,.01,0,.02,0,0,0,.02,0,.02,0,0,0,.02,0,.02,0,0,0,.02,0,.02Z"/>
      <path class="cls-5" d="M85.93,71.35c.39.61.38,1.49-.03,2.02-.03.03-.05.07-.08.1-.21.22-.49.35-.85.35-.19,0-.39-.04-.62-.12-.1-.02-.18-.05-.27-.09-.04-.02-.08-.04-.12-.06-.04-.02-.07-.04-.11-.06-.03-.02-.07-.05-.1-.07-.05-.04-.09-.07-.13-.12-.85-.86-.14-2.61,1.24-2.61.04,0,.08,0,.11,0,.3.06.54.2.73.38,0,0,.02.02.02.02.02.02.03.03.05.05.05.06.1.12.14.19Z"/>
      <path class="cls-2" d="M67.84,40.3s0,0,0,0c0,0,0,0,0,0Z"/>
      <path class="cls-2" d="M67.85,40.31s.02.02.04.03c-.01-.01-.03-.02-.04-.03Z"/>
      <path class="cls-2" d="M67.84,40.31s0,0,0,0c0,0,0,0,0,0,0,0,0,0,0,0Z"/>
      <path class="cls-2" d="M67.84,40.31s0,0,0,0c0,0,0,0,0,0Z"/>
      <path class="cls-2" d="M67.84,40.31s0,0,0,0c0,0,0,0,0,0Z"/>
      <path class="cls-2" d="M54.23,31.87h0s0,0,.01,0c0,0,0,0-.01,0Z"/>
      <path class="cls-2" d="M42.37,24.37c2.19,1.41,1.13,2.66.29,4.5-.65,1.78-4.14,3.83-5.79,4.84-1.78,1.38-3.77,2.43-5.84,3.31-.57.77-1.23,1.51-1.98,2.11,0-.29-.04-.58-.08-.86-.02-.15-.05-.29-.07-.44-.03-.14-.05-.28-.08-.42-.03-.13-.06-.26-.1-.39-.05-.15-.1-.29-.16-.43-.06-.14-.13-.28-.21-.42-.08-.14-.16-.26-.25-.39-.08-.11-.17-.22-.26-.32-.1-.11-.21-.21-.33-.3-.13-.1-.27-.18-.41-.26-.13-.07-.27-.13-.41-.18-.28-.1-.57-.15-.87-.19-.28-.03-.56-.06-.84-.08-.28-.03-.57-.04-.85-.06-.21-.02-.42-.04-.63-.08-.11-.02-.21-.05-.32-.08-.09-.03-.18-.07-.28-.11-.11-.06-.22-.12-.32-.18-.08-.05-.15-.11-.22-.17-.06-.06-.12-.12-.18-.18-.04-.05-.08-.11-.12-.16-.13-.21-.25-.43-.37-.65-.12-.21-.27-.42-.43-.61-.1-.12-.21-.24-.32-.35-.11-.1-.22-.19-.35-.26-.24-.14-.5-.26-.78-.3-.29-.04-.59,0-.88.03-.28.04-.56.07-.85.09-.24.01-.49.02-.73,0-.13-.01-.25-.03-.38-.05-.19-.04-.37-.1-.55-.16-.2-.07-.39-.14-.58-.23-.12-.06-.24-.13-.36-.2-.1-.06-.2-.13-.3-.19-.15-.1-.29-.21-.43-.32-.14-.11-.28-.22-.44-.3-.09-.05-.18-.09-.28-.13-.08-.03-.16-.06-.25-.09-.11-.03-.21-.06-.32-.08,1.69-1.11,3.42-2.19,5.23-3.09,2.54-.95,5.14-1.75,7.74-2.53,1.72-.67,3.38-1.5,5.16-2.05,1.25-.36,2.89-1.53,4.03-.4.83,1.34,1.79,1.46,3.25,1.54,1.2.27,2.44.63,3.5,1.27Z"/>
      <path class="cls-2" d="M78.59,42.66c-.21-.01-.41-.03-.62-.05-.22-.02-.45-.04-.67-.08-.21-.04-.42-.1-.63-.16-.31-.11-.6-.25-.9-.4-.33-.17-.66-.35-.98-.52h0s-.02-.01-.03-.02c0,0,0,0,0,0,0,0-.02,0-.03-.01-.28-.15-.57-.31-.85-.46h0s0,0,0,0c0,0,0,0,0,0,0,0,0,0,0,0,0,0,0,0,0,0,0,0-.01,0-.02,0,0,0,0,0,0,0,0,0,0,0,0,0h0s0,0,0,0h0s0,0,0,0c0,0-.02,0-.03-.01-.17-.09-.35-.18-.52-.28-.23-.14-.46-.29-.68-.44-.23-.15-.46-.31-.69-.48-.45-.33-.91-.64-1.36-.98,0,0,0,0-.01,0,0,0,0,0,0,0-.02-.02-.05-.03-.07-.05,0,0,0,0,0,0-.02-.02-.05-.04-.07-.06,0,0,0,0,0,0,0,0,0,0-.01-.01,0,0,0,0,0,0,0,0,0,0,0,0,0,0,0,0,0,0,0,0,0,0,0,0,0,0-.01,0-.02-.01,0,0,0,0,0,0,0,0,0,0,0,0-.55-.42-1.11-.82-1.69-1.2,0,0,0,0,0,0,0,0,0,0,0,0-.34-.23-.7-.43-1.05-.65-.19-.12-.38-.25-.57-.37-.03-.08-.09-.16-.18-.2-.41-.23-.81-.47-1.21-.71-.19-.12-.39-.23-.58-.36-.21-.14-.41-.28-.61-.42-.04-.03-.09-.06-.13-.09-.03-.02-.06-.04-.09-.06-.31-.22-.62-.44-.93-.65-.37-.25-.74-.5-1.11-.74-.37-.24-.75-.49-1.13-.73-.4-.26-.79-.52-1.17-.8-.37-.27-.73-.55-1.09-.83-.35-.26-.7-.53-1.04-.81-.23-.19-.44-.39-.65-.61-.12-.13-.24-.27-.36-.42-.09-.13-.17-.26-.25-.4-.08-.16-.16-.33-.23-.5-.06-.18-.12-.36-.17-.54,0-.04-.01-.07-.02-.11,0-.03,0-.05,0-.08,0-.04.01-.07.02-.11.02-.07.05-.14.07-.21,0,0,0,0,0,0,0,0,0-.02,0-.03,0-.02.01-.03.02-.05.06-.14.13-.29.19-.43.06-.12.11-.25.18-.36.02-.03.04-.06.06-.09.09-.03.18-.05.27-.06.97-.91,2.23-.98,3.48-1.15.63-.18,1.27-.3,1.92-.36.22-.26.75-.32.97-.6,1.35-1.31,2.33-1.16,3.99-.62,1.06.32,1.98.92,2.93,1.46.74.45,1.33,1.1,1.99,1.65.54.56,1.17,1.03,1.7,1.61,1.28,1.5,2.58,2.98,3.83,4.5,1.05,1.15,2.08,2.34,2.71,3.78.51,1.07,1.07,2.12,1.27,3.3.12.57.27,1.28.06,1.82-.03.03-.06.07-.09.1-.07.06-.15.12-.22.18-.29.2-.6.38-.91.55-.09.04-.18.09-.27.12-.2.07-.41.12-.62.17-.2.04-.4.07-.61.09-.16.01-.33.03-.49.03h-.03Z"/>
      <path class="cls-2" d="M73.86,40.94s0,0,0,0c0,0,0,0,0,0Z"/>
      <path class="cls-2" d="M56.24,27.04s-.01.03-.02.05c0-.02.01-.03.02-.05Z"/>
      <path class="cls-2" d="M73.88,40.96s0,0,0,0c0,0,0,0,0,0,0,0,0,0,0,0Z"/>
      <path class="cls-2" d="M73.87,40.95s0,0,0,0c0,0,0,0,0,0Z"/>
      <path class="cls-2" d="M73.86,40.94s0,0,0,0c0,0,0,0,0,0Z"/>
      <path class="cls-2" d="M73.86,40.94s0,0,0,0t0,0Z"/>
      <path class="cls-2" d="M70.41,38.63s0,0,0,0c0,0,0,0,0,0Z"/>
      <path class="cls-2" d="M70.41,38.63s0,0,0,0c0,0,0,0,0,0Z"/>
      <path class="cls-2" d="M68.71,37.41s0,0,0,0c0,0,0,0,0,0Z"/>
      <path class="cls-2" d="M68.71,37.41h0s0,0,0,0c0,0,0,0,0,0Z"/>
      <path class="cls-2" d="M68.71,37.41s0,0,0,0c0,0,0,0,0,0Z"/>
      <path class="cls-2" d="M73.84,40.94s0,0,.01,0c0,0,0,0,0,0,0,0,0,0,0,0,0,0,0,0,0,0,0,0,0,0,0,0-.01,0-.02-.01-.03-.02Z"/>
      <path class="cls-2" d="M73.85,40.94s0,0,0,0t0,0s0,0,0,0Z"/>
      <path class="cls-2" d="M73.85,40.94s0,0,0,0c0,0,0,0,0,0Z"/>
      <path class="cls-2" d="M70.57,38.75s0,0,.01,0c0,0,0,0-.01,0Z"/>
      <path class="cls-2" d="M56.34,28.11s0,.01,0,.02c0,0,0-.01,0-.02Z"/>
      <path class="cls-5" d="M87.47,57.48h0s-.03,0-.05,0c0,0-.02,0-.02,0-.07.01-.14.03-.21.04,0,0,0,0,0,0-.03,0-.07.01-.1.02-.01,0-.02,0-.03,0-.05,0-.09.01-.14.02h0c-.22.03-.45.04-.67.04-.36,0-.73-.04-1.09-.11-2.26-.26-4.16-1.56-6.29-2.23-.88-.26-1.58-.79-2.38-1.21-1.37-.53-2.75-1.04-4.02-1.79-.7-.36-1.02-1.05-1.34-1.72-.01-.03-.03-.06-.04-.09-.02-.04-.04-.08-.06-.12,0-.02-.02-.03-.02-.05,0,0,0,0,0,0,0-.02-.01-.03-.02-.04-.02-.04-.03-.08-.05-.12,0-.02-.01-.03-.02-.05,0-.02-.01-.03-.01-.05,0-.02,0-.03-.01-.05,0-.02,0-.03-.01-.05,0-.01,0-.03,0-.04,0-.02,0-.04-.01-.05,0-.02,0-.03,0-.05,0-.01,0-.02,0-.04,0-.01,0-.03,0-.04,0,0,0,0,0,0,0,0,0,0,0,0h0c.12-.26.28-.5.44-.74.11-.16.23-.3.37-.43.28-.25.62-.4.98-.48.17-.04.34-.05.52-.05.19,0,.37.05.54.12.21.08.4.21.58.34.23.18.46.36.68.55.23.19.46.39.69.59.16.14.31.28.47.41.09.08.18.15.27.23.1.08.21.16.31.24.13.09.26.17.39.25.14.09.29.17.43.26.28.17.56.35.85.51.47.23.95.45,1.43.64,0,0,.01,0,.02,0,.01,0,.02,0,.04.01.03,0,.06.02.09.03,0,0,.01,0,.02,0,0,0,.01,0,.02,0,0,0,0,0,0,0,0,0,0,0,.01,0,.03,0,.05.02.08.02.07.02.15.05.22.07.14.04.27.08.41.12.22.07.43.15.65.23.2.08.39.17.59.27.19.09.37.19.56.27.2.09.4.17.6.24.13.04.27.09.4.13.14.04.29.09.42.14.14.06.28.11.41.18.13.07.27.14.4.23.25.16.5.33.74.51.24.18.45.37.66.58.21.2.42.42.61.65.18.22.35.46.48.71.13.26.21.54.24.83,0,.04,0,.08,0,.12Z"/>
      <path class="cls-5" d="M62.2,49.46h0s-.01,0-.02,0c-.04,0-.09.01-.13.02-.04,0-.09.01-.13.02-.05,0-.11.02-.16.03-.03,0-.07.01-.1.02-1.27.22-2.53.54-3.82.54-.1,0-.19,0-.29,0-2.59-.26-5.19-.63-7.69-1.37-2.33-.48-4.66-.95-6.92-1.71-1.89-.96-6.46-2.42-7.01-4.48-.44-.61-.72-1.23-.83-1.84,0-.03-.01-.06-.02-.09,0-.03-.01-.06-.01-.09,0-.03,0-.05-.01-.08,0-.01,0-.02,0-.03,0-.02,0-.03,0-.05,0-.02,0-.03,0-.05,0-.01,0-.02,0-.03,0-.02,0-.03,0-.05,0-.02,0-.05,0-.07,0-.03,0-.05,0-.08h0s0-.06,0-.09h0s0-.06,0-.09c0,0,0-.01,0-.02,0-.03,0-.06,0-.09,0,0,0,0,0,0,0-.03,0-.06,0-.09,0,0,0,0,0,0,0-.01,0-.02,0-.03,0-.02,0-.04,0-.07,0,0,0-.01,0-.02,0-.03,0-.06.01-.08,0,0,0-.01,0-.02,0-.03,0-.06.01-.09t0,0s.01-.06.02-.1c0,0,0,0,0,0,0-.03.01-.07.02-.1,0-.03.01-.06.02-.09,0,0,0-.02,0-.02.01-.06.03-.12.05-.18,0,0,0-.01,0-.02.02-.06.04-.12.06-.18.01-.03.02-.06.04-.1.02-.06.05-.12.08-.18,0,0,0,0,0,0,.09-.12.19-.24.3-.34.27-.26.63-.42.99-.52.08-.02.17-.04.25-.06.11-.02.22-.04.33-.04.43,0,.8.24,1.15.46.24.15.49.29.73.45.17.11.33.22.49.34.09.06.17.12.26.17.09.06.18.11.27.16.18.08.35.16.54.23.26.09.53.18.79.27.27.09.54.17.81.25.28.09.56.18.83.28.27.09.55.18.81.3.27.12.52.27.79.41.04.02.08.04.12.06.25.12.51.23.77.35.26.12.52.25.79.36.54.22,1.1.4,1.64.63.28.12.56.24.83.38.25.13.49.29.74.44.26.16.52.32.79.46.26.14.52.27.78.41.37.2.73.42,1.11.61.22.11.45.21.68.3.1.03.2.06.31.09.09.02.18.04.28.06.57.11,1.15.21,1.72.28.28.03.56.06.84.09.29.04.59.08.87.14.29.06.57.13.85.22.28.09.55.2.81.32.15.07.29.13.44.21.13.07.25.14.38.22.12.08.24.16.35.25.12.09.23.19.34.28.12.1.23.21.34.31.11.1.22.2.33.29.22.2.45.39.64.62.1.12.19.23.28.36s.16.25.23.39c.07.13.14.27.18.42.02.07.04.13.05.2Z"/>
      <path class="cls-5" d="M29.06,39.13h0s-.09.07-.14.11c0,0-.02.01-.02.02-.03.02-.06.04-.09.06-.03.02-.06.04-.08.06,0,0,0,0-.01.01-.03.02-.05.04-.08.06-.03.02-.06.04-.09.06,0,0-.01.01-.02.02s-.01.01-.02.02h0c-.95.64-2.03,1.06-3.22,1.06-.17,0-.34,0-.52-.03-.66-.09-1.14-.61-1.72-.89-.71-.36-1.54-.3-2.29-.52-1.57-.49-3.19-.78-4.77-1.23-.84-.3-1.56-.87-2.45-1.04-2.03-.21-2.63-1.23-3.09-3.11-.02-1.52,1.2-2.67,2.27-3.62.03-.02.05-.05.08-.07.02-.02.03-.03.05-.05.06-.04.12-.08.18-.12.15-.1.3-.2.45-.3.11.02.22.05.32.08.08.02.17.05.25.09.1.04.19.09.28.13.16.08.3.2.44.3.14.11.28.22.43.32.1.07.2.13.3.19.12.07.24.14.36.2.19.08.38.16.58.23.18.06.36.12.55.16.13.02.25.04.38.05.25.01.49,0,.73,0,.28-.02.57-.05.85-.09.29-.04.59-.08.88-.03.28.04.54.16.78.3.12.07.24.16.35.26.12.11.22.23.32.35.16.19.3.39.43.61.13.22.24.44.37.65.04.05.08.11.12.16.06.06.12.12.18.18.07.06.15.12.22.17.11.07.21.13.32.18.09.04.18.07.28.11.11.03.21.06.32.08.21.04.42.06.63.08.28.02.57.03.85.06.28.03.56.05.84.08.3.04.59.08.87.19.14.05.28.11.41.18.14.08.28.17.41.26.12.09.23.19.33.3.09.1.18.21.26.32.09.13.18.26.25.39.08.14.15.27.21.42.06.14.11.29.16.43.04.13.07.26.1.39.03.14.06.28.08.42.03.14.05.29.07.44.04.29.07.57.08.86Z"/>
      <path class="cls-7" d="M70.28,44.05s0,.04-.01.05c0,.05-.01.1-.02.15-.28.19-.65.27-.8.59-.29.98.56,2.44-.64,3.02-1.3.46-2.76.25-4.05.75-.72.6-1.64.75-2.55.84-.01-.07-.03-.13-.05-.2-.05-.14-.11-.28-.18-.42-.07-.13-.15-.26-.23-.39s-.18-.24-.28-.36c-.19-.22-.42-.42-.64-.62-.11-.1-.22-.19-.33-.29-.11-.1-.22-.21-.34-.31-.11-.1-.23-.19-.34-.28-.11-.09-.23-.18-.35-.25-.12-.08-.25-.15-.38-.22-.14-.07-.29-.14-.44-.21-.27-.12-.53-.23-.81-.32-.28-.09-.56-.16-.85-.22-.29-.06-.58-.1-.87-.14-.28-.04-.56-.06-.84-.09-.58-.07-1.15-.17-1.72-.28-.09-.02-.19-.04-.28-.06-.1-.03-.21-.06-.31-.09-.23-.09-.46-.19-.68-.3-.37-.19-.74-.41-1.11-.61-.26-.14-.52-.27-.78-.41-.27-.14-.53-.3-.79-.46-.24-.15-.48-.3-.74-.44-.27-.14-.55-.27-.83-.38-.54-.23-1.1-.41-1.64-.63-.27-.11-.53-.24-.79-.36-.25-.12-.52-.22-.77-.35-.04-.02-.08-.04-.12-.06-.26-.13-.52-.29-.79-.41-.26-.12-.54-.21-.81-.3-.28-.09-.55-.19-.83-.28-.27-.08-.54-.16-.81-.25-.26-.09-.53-.18-.79-.27-.18-.07-.36-.14-.54-.23-.09-.05-.18-.1-.27-.16-.09-.06-.18-.12-.26-.17-.16-.11-.33-.23-.49-.34-.24-.16-.49-.3-.73-.45-.35-.22-.72-.47-1.15-.46-.11,0-.22.02-.33.04-.08.01-.17.03-.25.06-.36.1-.72.26-.99.52-.11.11-.21.22-.3.34.42-.93,1.21-1.75,2.26-2.36,1.31-.85,2.91-1.04,4.36-1.4.07-.05.1-.14.12-.21.05-1.42,1.32-1.93,2.39-2.53.82-.28,1.56-.86,2.45-.91.53.05,1.01-.12,1.48-.3.23,0,.47.01.7.02.15,0,.3.02.46.03.29.03.58.06.87.09.12.07.26.09.39.11.29.05.58.1.86.16.33.08.65.19.97.29.32.11.64.21.97.31.15.05.3.1.45.15.03.01.06.03.09.04.01,0,.02,0,.04.01.4.16.79.33,1.17.52.38.18.76.37,1.13.56.27.15.54.3.81.46.28.16.55.31.83.47.82.47,1.62.98,2.42,1.5.79.51,1.58,1.02,2.35,1.55.46.33.9.67,1.36.99.48.33.99.63,1.48.95.53.35,1.04.72,1.56,1.08.13.09.27.19.4.28.03.03.06.06.1.09,0,0,0,0,0,0,0,0,0,0,0,0,.26.23.5.47.74.72,0,0,0,0,0,0,0,0,0,0,0,0,0,0,0,0,0,0,0,0,0,0,0,0,0,0,0,0,0,0,0,0,0,0,0,0h0c.05.06.1.11.15.17.02.02.04.04.05.06.11.13.22.26.32.4.14.2.28.4.41.61.15.24.3.49.43.74.02.04.04.08.06.12.02.05.04.1.05.15.04.16.09.31.13.47.02.08.04.17.06.25Z"/>
      <path class="cls-7" d="M90.19,52.91c.62,1.23,1.34,2.9-.31,3.68-.76.4-1.57.72-2.41.89,0-.04,0-.08,0-.12-.03-.29-.11-.57-.24-.83-.13-.25-.29-.5-.48-.71-.19-.23-.39-.44-.61-.65-.21-.2-.43-.4-.66-.58-.24-.18-.49-.35-.74-.51-.13-.08-.26-.15-.4-.23-.13-.07-.27-.12-.41-.18-.14-.06-.28-.1-.42-.14-.13-.04-.27-.09-.4-.13-.2-.07-.4-.15-.6-.24-.19-.08-.37-.18-.56-.27-.19-.09-.39-.19-.59-.27-.21-.08-.43-.16-.65-.23-.14-.04-.27-.08-.41-.12-.07-.02-.15-.05-.22-.07-.03,0-.05-.02-.08-.02,0,0,0,0-.01,0,0,0,0,0,0,0,0,0-.01,0-.02,0,0,0-.01,0-.02,0-.03-.01-.06-.02-.09-.03-.01,0-.02,0-.04-.01,0,0-.01,0-.02,0-.49-.19-.96-.41-1.43-.64-.29-.15-.57-.34-.85-.51-.14-.09-.29-.17-.43-.26-.13-.08-.26-.16-.39-.25-.11-.08-.21-.16-.31-.24-.09-.07-.18-.15-.27-.23-.16-.14-.31-.28-.47-.41-.23-.2-.46-.39-.69-.59-.22-.19-.45-.37-.68-.55-.18-.13-.37-.26-.58-.34-.17-.07-.36-.11-.54-.12-.17,0-.35,0-.52.05-.36.08-.71.23-.98.48-.14.13-.26.28-.37.43-.16.23-.32.48-.44.74-.17-2.07,3.47-3.74,5.1-4.23,1.62-.41,3.1-1.34,4.82-1.22.99-.05,2.04-.33,2.96.22.6.42,1.21.83,1.75,1.33.47.48.69,1.13,1.13,1.63.72.72,1.55,1.32,1.94,2.3.59,1.05,1.28,2.05,1.66,3.2Z"/>
      <path class="cls-7" d="M65.28,18.07c.14.43.11.96-.14,1.34-.13.13-.32.38-.53.61-.38.67-.84,1.27-1.58,1.6-1.47.97-2.8,1.9-4.62,2.03-.97.22-1.89.71-2.91.66-.59-.04-1.17.03-1.75.11-.59.07-1.19.15-1.79.1-1.49-.13-2.89.51-4.35.56-1.62-.14-3.4-.55-4.69-1.58-1.15.02-2.31-.74-2.76-1.8-.05-.87,1.27-1.39,1.89-1.81,2.04-1.09,3.96-2.45,6.08-3.39,2.69-.9,5.49-1.34,8.31-1.57,1.24-.04,2.45-.47,3.69-.44.24-.22.63-.44,1.21-.59,1.8-.41,3.29,2.81,3.94,4.17Z"/>
      <path class="cls-3" d="M63.47,10.28c.78,2.25-1.42,5.61-3.7,6.05-.13,1.02-.98,1.64-1.97,1.74-1.39.27-2.8.09-4.07-.5-1.21.79-2.66,1.43-4.13,1.36-.16.14-.33.26-.51.37-1.08.39-2.53.71-3.57.07-.55,2.07-3.77,3.3-5.61,2.24-.81,0-1.57.8-2.47.6-.22-.03-.68-.09-1.1-.21-.04.03-.08.06-.11.09-1.13,1.06-2.76,1.16-4.01.25.18,1.51-1.28,2.33-2.4,3-1.2.8-2.83,1.14-3.95,0-.59.85-1.66,1.62-2.73,1.51-.42-.06-.84-.18-1.24-.34-1.17,1.73-2.89,2.53-5.06,2.37-.67,2.49-3.53,4.05-5.9,2.79-.78.8-1.97,1.44-3.12,1.16-.35-.11-.68-.31-.98-.51-1.54.16-2.9-.6-4.11-1.46-3.92-2.54-3.37-7.32-.05-10.13,2.49-2.7,4.74-.64,6.7-3.51.88-1.41,1.77-2.93,1.89-4.62,0-.31-.14-.76.18-.94.14-.05.31,0,.36.15.11.66-.12,1.44.37,2,.97,1.38,2.64,1.61,4.19,1.82,1.08.25,2.23.54,3.24,1.06.23-1.2.85-2.32,1.84-3.08,4.04-1.89,5.18-9.22,6.02-7.64.56,3.46,2.43,3.04,4.93,4.43.5.25.96.54,1.39.88.11-.26.26-.54.47-.82.82-1.52,2.58-2.13,3.51-3.55,1.05-1.66,1.8-3.52,2.59-5.3.3-.38.58.09.68.38.39.73.83,1.45,1.33,2.11,1.18,1.49,2.77,2.58,4.25,3.75,1.07-1.71,3.44-3.29,4.33-4.59.41-.62.67-1.33.83-2.05.14-.38.09-.92.43-1.18.61-.37.66,2.22,2.3,3.56,2.12,2.37,7.88,3.84,8.95,6.69Z"/>
      <path class="cls-4" d="M21.97,26.42c-.55-.36.84-1.39.91-1.93.97-2.51-.26-5.7-2.55-7.06-.24-.18-.59-.25-.75-.52-.19-.38.37-.4.58-.22,2.92,1.43,4.54,5.44,3.03,8.4-.2.4-.54.7-.78,1.07-.07.18-.24.36-.44.25Z"/>
      <path class="cls-4" d="M18.31,21.63c-.15-1.19-1.27-1.93-2.26-2.42-.64-.23-1.33-.28-1.96-.56-1.04-.42-1.67-1.45-2.18-2.4-.09-.24-.25-.5-.15-.76.12-.33.44-.14.51.12,1.52,3.97,3.72,1.81,6.04,4.61.23.29.87,1.47.33,1.63-.15.03-.29-.07-.32-.22Z"/>
      <path class="cls-4" d="M17.1,28.58c-.37-.34.35-.83.43-1.21.38-.91.52-1.87.42-2.84-.13-.96.61-.66.57.13.07,1.35-.21,2.76-1.04,3.85-.09.12-.26.15-.38.07Z"/>
      <path class="cls-4" d="M11.67,28.57c-.54-.18.14-1.34.39-1.61.43-.41.63-.96.8-1.51.26-1.6-.29-3.32-1.22-4.62-.21-.17-.35-.79.09-.66,1.39,1.21,2.24,4.33,1.45,6.04-.17.62-.7,1-.98,1.54-.16.27-.09.87-.52.82Z"/>
      <path class="cls-4" d="M11.36,31.25c-.45-.1-.17-.72-.15-1.03.03-.21.2-.5.45-.43.25.19.08.51.05.75-.06.25.04.73-.35.71Z"/>
      <path class="cls-4" d="M5.56,32.06c-2.12-.51-2.95-3.12-2.24-5.01.36-.98,1.49-1.34,2.3-1.88.33-.16.57.37.22.51-.66.46-1.59.74-1.97,1.49-.45,1.09-.25,2.49.41,3.46.4.59,1.14.74,1.69,1.08.25.26-.19.46-.41.37Z"/>
      <path class="cls-4" d="M6.99,23.89c-.36-.23.19-.59.3-.83.35-.6.67-1.22.88-1.88.08-.35.62-.23.54.12-.21.58-.98,2.79-1.72,2.59Z"/>
      <path class="cls-4" d="M32.29,21.77c-.61-.35.54-2.05.51-2.69.12-1.1-.13-2.58-.92-3.4-.55-.64-1.49-.6-2.15-1.08-.32-.16-.06-.66.26-.49,1.34.7,2.35.62,3,2.28.41,1.28.62,2.68.02,3.93-.23.36-.26,1.42-.72,1.45Z"/>
      <path class="cls-4" d="M27.78,12.23c-1.03-.35-1.19-1.65-1.25-2.59-.05-.72.29-1.38.6-2.02.16-.32.66-.06.49.26-.65,1.09-.8,2.69.08,3.7.17.17.52.13.6.4-.02.23-.32.33-.52.26Z"/>
      <path class="cls-4" d="M25.89,24.45c-.57-.5.05-1.76.33-2.32.63-1,.79-2.03.25-3.11-.12-.34.41-.51.52-.17.32.76.54,1.61.23,2.41-.27.83-.87,1.54-.99,2.43-.04.24.07.9-.35.76Z"/>
      <path class="cls-4" d="M25.51,17.4c-.86-.68-1.2-1.78-1.07-2.85.03-.26-.05-.72.33-.71.47.11.14.77.21,1.11-.05.62.15,1.2.55,1.67.12.18.34.3.4.52.11.29-.2.39-.41.25Z"/>
      <path class="cls-4" d="M36.05,21.94c-.19-.34.26-.46.46-.62.39-.34.73-.69.96-1.15.55-1.6.38-3.42-.17-5-.48-1.29-1.55-2.18-2.79-2.7-1.21-.54-.73-1.86-.11-.75,1.99,1.14,3.04,1.68,3.68,4.09.37,1.89.62,4.31-.98,5.71-.27.21-.73.76-1.06.41Z"/>
      <path class="cls-4" d="M45.25,19.04c-.64-.5-.68-1.51-.53-2.25.15-1.01.75-1.9.7-2.94.04-1.4-1.11-2.39-1.83-3.47-.2-.29.27-.6.46-.3,1.24,1.6,2.43,2.96,1.74,5.12-.36,1.02-.9,2.22-.35,3.26.19.21.22.76-.19.59Z"/>
      <path class="cls-4" d="M42.38,9.39c-1.44-.37-2.62-1.85-2.38-3.37.1-.32.02-1.02.49-.99.14.03.25.18.21.33-.6,1.51.37,3.15,1.9,3.53.4.21.18.59-.22.5Z"/>
      <path class="cls-4" d="M39.36,19.51c-.2-.81.38-1.56.77-2.23,1.49-2.51,1.26-3.7-.65-5.81-.19-.4-.71-.78-.59-1.25.06-.16.25-.12.36-.03.51.59.84,1.34,1.43,1.87,1.66,1.86.89,4.1-.35,5.94-.21.44-.57.91-.43,1.41.07.35-.48.46-.54.1Z"/>
      <path class="cls-4" d="M49.33,19.29c-.31-.38.38-.7.45-1.08.79-2.08,1.14-4.37.33-6.5-.51-1.41-2.12-1.83-3.03-2.9-.2-.24-.53-.39-.61-.7-.07-.46.52-.24.67,0,1.2,1.38,3.31,2.01,3.68,4,.39,1.6.45,3.31-.08,4.89-.18.5-.67,2.69-1.41,2.29Z"/>
      <path class="cls-4" d="M59.36,15.73c-.73-.69-.04-1.85.2-2.64.27-1.04-.09-2.15-.71-2.98-.53-.55-1.3-.81-1.84-1.37-.26-.24.11-.65.37-.41.58.59,1.45.84,1.95,1.51,1.25,1.77.93,2.96.28,4.85-.1.3.31,1.14-.26,1.04Z"/>
      <path class="cls-4" d="M55.45,7.87c-.55-.15-1.16-.13-1.67-.42-.95-.64-1.69-1.79-1.38-2.96.09-.38.67-.19.53.18-.26,1.13.73,2.42,1.88,2.53.34.07.73.06,1.01.27.31.25-.11.52-.38.41Z"/>
      <path class="cls-4" d="M52.48,3.49c-.3-.2-.11-.59-.13-.87.02-.66-.06-1.31-.24-1.94-.06-.23.24-.42.43-.28.31.34.71,3.21-.05,3.09Z"/>
      <path class="cls-4" d="M54.43,15.41c-.14-.05-.22-.21-.16-.35.55-1.06-.06-2.34-.63-3.27-.93-1.03-2.35-1.92-2.34-3.48-.11-.69.59-1.27.58-.34-.27,1.73,1.57,2.52,2.38,3.75.56,1.07,1.13,2.37.53,3.53-.05.14-.22.22-.35.16Z"/>
      <path class="cls-4" d="M53.8,17.53c-.14-.05-.22-.21-.16-.35.15-.26.13-.72.48-.8.48.08.11,1.33-.31,1.15Z"/>
      <path class="cls-4" d="M39.71,21.99c-.3-.24-.72-1.2-.18-1.36.36.11.27.58.45.84.32.24.11.72-.27.52Z"/>
      <path d="M63.05,45.71c-1.94-.65-3.37-2.24-5.27-2.99-.95-.43-1.81-1.03-2.8-1.38-.98-.38-1.96-.76-2.93-1.16-.5-.17-1-.33-1.44-.63-.68-.48-1.44-.85-2.1-1.36-1.3-1.03-2.61-2.15-4.27-2.52-.79-.19-1.61-.18-2.42-.09-.66.03-1.32-.02-1.98.08-.62,0-.61-.59.06-.56.5-.07,1-.08,1.51-.06.76-.03,1.51-.14,2.26-.02,2.04.2,3.67,1.51,5.2,2.76.81.56,1.65,1.07,2.49,1.58.5.21,1.03.36,1.52.59,1.54.6,3.1,1.16,4.53,2,1.25.58,2.47,1.2,3.55,2.06.73.48,1.44.93,2.27,1.2.33.12.14.65-.2.52Z"/>
      <path d="M66.75,43.88c-.88-.57-1.7-1.26-2.62-1.76-.39-.15-.79-.29-1.17-.47-1.52-.64-3.2-.82-4.67-1.58-.66-.28-1.29-.61-1.9-.97-.51-.26-1.05-.47-1.51-.82-.88-.74-1.76-1.49-2.68-2.19-2.36-1.98-5.77-1.21-8.34-2.71-.24-.19-.73-.39-.59-.76.31-.24.61.14.87.29,1.6.95,3.54.88,5.29,1.35,2.06.3,3.59,1.77,5.14,3.03.58.6,1.33.97,2.07,1.32.89.53,1.83.97,2.79,1.36,1.68.53,3.4.95,5,1.69.93.51,1.75,1.2,2.64,1.78.29.2-.03.66-.33.45Z"/>
      <path d="M69.98,44.77c-.41-.07-.15-.53-.23-.8-.66-1.64-2.63-3.19-4.26-3.81-1.48-.66-2.85-1.53-4.37-2.11-1.4-.55-2.86-.98-4.2-1.7-1.12-.34-2.12-.94-3.13-1.51-.37-.21-.71-.46-1.05-.7-.15-.1-.31-.2-.36-.39-.09-.25.21-.33.4-.24.37.21.7.51,1.07.73.98.53,1.89,1.18,2.97,1.48,1.63.81,3.37,1.38,5.07,2.04,1.02.46,1.99,1.02,3,1.5.71.41,1.53.6,2.2,1.08,1.14.83,2.32,1.72,2.97,3.01.24.31.46,1.4-.1,1.42Z"/>
      <path d="M55.35,45c-.73-.46-1.46-.96-2.25-1.3-.61-.1-1.22-.18-1.77-.48-.93-.34-1.85-.73-2.61-1.38-.38-.32-.93-.46-1.21-.87-.2-.48.4-.4.62-.16.59.34,1.13.75,1.69,1.14.59.35,1.25.56,1.88.83.58.33,1.28.23,1.87.51.6.32,1.19.66,1.76,1.03.14.12.37.17.43.36.07.22-.2.44-.4.32Z"/>
      <path d="M62.07,49.34c-.32-.91-.86-1.75-1.71-2.24-.69-.63-1.37-1.08-2.3-1.26-.39-.05-.64-.58-.09-.58.92.17,1.8.53,2.47,1.19.43.35.93.63,1.27,1.08.22.26,1.24,1.8.72,1.95-.14.06-.3,0-.36-.15Z"/>
      <path d="M79.94,42.15c-.35-.99-.64-1.29-1.35-2.02-.65-.76-1.44-1.48-2.19-2.1-2.24-1.81-4.63-3.44-7.01-5.07-1.15-1.05-2.41-1.98-3.41-3.17-.68-.83-1.36-1.65-2.16-2.37-.81-.81-1.66-1.65-2.77-2-.42-.18-.92-.12-1.32-.31-.12-.07-.15-.23-.03-.32.37-.32,1.12.02,1.55.11,1.12.36,2.01,1.17,2.83,1.99,1.3,1.14,2.24,2.61,3.51,3.77.69.54,1.33,1.14,1.98,1.72,1.36.96,2.73,1.88,4.07,2.86,1.94,1.38,3.89,2.8,5.46,4.6.4.46.92.86,1.11,1.47.08.21.16.41.25.61.14.32-.36.55-.51.22Z"/>
      <path d="M80.95,39.12c-.34-.34-.51-.8-.79-1.18-1.69-1.81-3.77-3.19-5.73-4.68-1.18-.84-2.14-1.95-2.98-3.12-1.5-2.37-2.23-3.82-4.92-5.01-.42-.2-.88-.28-1.3-.45-.4-.19-.79-.41-1.22-.54-.22-.05-.51-.34-.31-.55.3-.14.6.1.89.17.86.48,1.84.65,2.7,1.14,2.32,1.03,3.42,3.04,4.71,5.08.98,1.38,2.19,2.51,3.58,3.46,1.35,1.07,2.82,2.01,4.06,3.23.35.35.73.67,1.04,1.05.24.36.41.76.71,1.07.22.27-.21.63-.43.34Z"/>
      <path d="M68.99,35.89c-1.1-.85-1.99-1.93-3.09-2.77-1.26-.51-2.31-1.15-3.16-2.25-.22-.17-.28-.73.13-.59.5.32.79.88,1.26,1.24.59.52,1.33.77,2.02,1.11.88.6,1.55,1.45,2.37,2.13.26.23.52.46.79.68.06.05.1.11.11.18.04.23-.25.41-.44.26Z"/>
      <path d="M77.26,41.53c-.69-.4-1.37-.83-2.13-1.09-.56-.11-1.11-.31-1.57-.65-.52-.39-.96-.9-1.38-1.4-.21-.23-.44-.44-.67-.65-.19-.18-.48-.29-.56-.56-.09-.4.47-.28.63-.09.94.66,1.51,1.71,2.46,2.35.64.42,1.44.44,2.11.82.47.23.92.51,1.37.77.13.08.18.24.11.37-.07.13-.25.19-.37.11Z"/>
      <path d="M77.2,32.56c-.38-.33-.72-.71-1.13-1-.57-.26-1.16-.49-1.58-.98-.52-.5-.82-1.17-1.28-1.72-.27-.38-.92-.7-.95-1.18.08-.42.57-.04.71.15.89.72,1.3,1.84,2.16,2.59.44.42,1.11.47,1.55.9.32.26.6.56.91.83.11.1.11.28,0,.39-.11.11-.28.11-.39,0Z"/>
      <path d="M77.49,50.99c-.55-.18-.43-.74.17-.53.59.02,1.11-.34,1.59-.64,1.18-.9,2.2-2,3.39-2.89.76-.47,1.6-.73,2.47-.88.91-.1.9.64.39.6-.37-.14-.73.06-1.09.13-.78.17-1.51.56-2.09,1.1-1.24.98-3.18,3.34-4.83,3.11Z"/>
      <path d="M81.59,52.85c-.22-.7,1.31-1.05,1.71-1.46.85-.69,1.44-1.62,2.21-2.38.33-.41.53-.91.93-1.26.11-.1.3-.07.39.05.22.34-.32.59-.44.88-.32.6-.82,1.05-1.26,1.56-.37.45-.74.92-1.18,1.31-.42.43-.96.67-1.48.96-.28.12-.58.59-.89.35Z"/>
      <path d="M86.1,55.21c-.09-.52.78-.69,1.07-1.03.59-.45,1.68-1.72,1.8-2.44.02-.15.18-.25.32-.23.44.13.14.73,0,1-.59.87-1.19,1.76-2.1,2.34-.31.15-.82.71-1.09.36Z"/>
      <path d="M74.62,49.03c-.6-.29.09-1.02.35-1.34.82-.82,2.02-1.22,3.11-1.52.7-.19,1.45-.29,2.07-.69.33-.17,1.23-.82,1.44-.29.04.15-.06.29-.2.33-.65.14-1.13.64-1.76.82-.93.29-1.92.41-2.79.84-.77.33-1.56.74-1.91,1.55-.05.13-.15.31-.31.32Z"/>
      <path d="M22.73,34.14c-.53-.42.76-1.49,1.02-1.87.65-.57,1.31-1.16,2.07-1.58,1.58-.77,3.21-1.43,4.75-2.28,1.01-.81,2.08-1.55,3.07-2.38,1.43-1.16,2.85-2.82,4.84-2.75.35.01.34.56-.02.55-.59-.08-1.12.2-1.65.41-1.13.58-1.99,1.56-2.98,2.34-.79.71-1.73,1.23-2.51,1.96-1.4.97-3.03,1.58-4.57,2.3-1,.41-1.84,1.11-2.63,1.83-.31.35-.61.71-.9,1.08-.12.19-.25.45-.5.4Z"/>
      <path d="M17.02,31.68c-.52-.62,1.03-1.73,1.44-2.15,1.08-1.01,2.49-1.52,3.88-1.95,1.45-.33,2.94-.71,4.16-1.59.17-.15.47-.23.57.03.1.4-.54.52-.78.74-1.93,1.22-4.35,1.21-6.33,2.33-.86.56-1.67,1.23-2.32,2.02-.17.21-.28.65-.62.56Z"/>
      <path d="M32.19,23.73c-.26-.02-.19-.34-.05-.46.12-.11.28-.16.42-.23.31-.09.96-.56,1.14-.09.07.32-.31.36-.53.43-.34.08-.62.38-.98.35Z"/>
      <path d="M30.24,33.47c-.58-.43,1.9-2.39,2.32-2.62.9-.67,1.95-1.02,2.97-1.44,1.17-.57,2.15-1.46,3.12-2.31.57-.5,3.78-3.75,4.26-2.43,0,.23-.24.29-.43.27-.57.01-.98.51-1.45.79-1,.79-1.88,1.69-2.85,2.51-.64.57-1.35,1.08-2.09,1.51-.87.46-1.85.67-2.68,1.21-.76.46-1.49.97-2.08,1.62-.34.26-.61.97-1.09.89Z"/>
      <path d="M45.3,22.11c-.17-.46.47-.64.76-.84.51-.28,1.03-.56,1.57-.77,1.76-.6,3.6-.93,5.47-.96,1.29-.03,2.52-.47,3.73-.85.31-.17.58.32.26.49-.15.07-.3.14-.45.18-.84.14-1.63.52-2.47.64-1.29.13-2.59.11-3.87.34-1.23.29-2.49.56-3.59,1.2-.36.1-1.13.84-1.41.56Z"/>
      <path d="M58.53,18.36c-.35-.28.26-.58.5-.67.25-.1.46-.28.68-.42.75-.42,1.42-.97,2.24-1.25.38-.14,1.74-.66,1.53.16-.07.12-.23.16-.35.1-.77.09-1.49.42-2.13.85-.65.29-1.82,1.39-2.47,1.22Z"/>
      <path d="M46.72,25.39c-.4-.16-2.4-.29-2.1-.87.2-.21.53-.04.75,0,.83.16,1.64.47,2.49.27,1.35-.02,2.63-.67,3.98-.56.28.07.77-.13.84.26-.03.57-.96.19-1.33.27-1.55.17-3.06.75-4.63.62Z"/>
      <path d="M55.65,24.5c-.47-.04-.45-.46,0-.55,1.02-.14,1.99-.29,2.98-.53,1.81-.8,3.91-1.15,5.3-2.67.07-.13.13-.27.21-.4.19-.3.66,0,.47.3-.29.71-.98,1.12-1.58,1.54-.95.58-2.01,1-3.08,1.29-1.34.65-2.82.85-4.29,1.03Z"/>
      <path d="M28.35,39.68c-.28-.03-.18-.37-.02-.49.12-.1.26-.16.39-.23.53-.23,1.03-.51,1.42-.95.52-.68,1.04-1.37,1.75-1.86.79-.4,1.6-.75,2.37-1.21.31-.17.58.32.26.49-.83.54-1.82.82-2.61,1.41-.76.61-1.18,1.53-1.97,2.1-.34.26-.76.39-1.13.61-.13.09-.28.16-.45.14Z"/>
      <path d="M36.36,34.45c-.42-.03-.29-.42,0-.54.57-.32,1.13-.64,1.68-.98,1.11-.56,2.11-1.31,3.06-2.1.79-.65,1.16-1.57,1.61-2.45.11-.21.46-.15.5.08.02.09,0,.17-.05.24-.29.49-.47,1.05-.78,1.53-.67.85-1.51,1.56-2.41,2.15-.67.52-1.45.86-2.16,1.32-.49.22-.93.66-1.46.74Z"/>
      <path d="M63.25,34.41c-.75-.7-1.74-.99-2.59-1.53-.71-.48-1.35-1.05-2.06-1.52-1.47-1.11-2.75-1.87-2.63-3.93.02-.41.41-.56.54-.1.06.71,0,1.48.56,2.02.99,1.07,2.28,1.8,3.4,2.72.76.66,1.77.88,2.56,1.48.2.14.39.28.58.43.27.22-.08.66-.35.42Z"/>
      <path d="M69.09,38.13c-.78-.32-1.34-.99-2.04-1.45-.28-.28-1.15-.43-1.01-.93.55-.42,2.28,1.3,2.8,1.64.15.1.31.17.47.25.33.15.09.65-.23.5Z"/>
      <path d="M78.19,43.15c-.4-.04-1.82-.23-1.77-.75.33-.4.86.09,1.26.13.49.11.99.09,1.48.08.65-.03,1.28-.3,1.86-.58.26-.19.52-.78.9-.55.31.32-.21.59-.39.81-.89.76-2.2.94-3.34.87Z"/>
      <path d="M60.05,50.09c-.82-.71,1.6-.46,1.9-.57.87-.2,1.71-.51,2.46-1,.88-.54,1.56-.58,2.57-.58.83-.26,2.16-.34,2.37-1.37.13-.29-.14-.88.33-.91.47.09.23.79.19,1.12-.3,1.49-2.87,1.74-4.11,1.75-1.03.32-1.89,1.07-2.95,1.32-.53.19-1.08.29-1.64.24-.36,0-.76.14-1.1-.01Z"/>
      <path d="M86.02,57.81c-.23.02-.61-.28-.33-.47.9-.2,1.91-.05,2.82-.31.6-.05,1.26-1.23,1.63-.85.25.3-.18.51-.37.7-.96,1-2.48.86-3.76.93Z"/>
      <path d="M27.06,26.27c-.35-.05-1.24-.24-.94-.73.28-.14.54.11.82.15.67.12,1.33.04,1.97-.12.61-.19,1.13-.57,1.63-.95.23-.15.48-.6.77-.32.27.41-.42.69-.66.93-1.01.83-2.31,1.18-3.6,1.04Z"/>
      <path d="M42.49,22.64c-.38-.11-1.76-.04-1.71-.57.49-.57,1.69.47,2.56-.28.61-.39,1.27-.78,1.65-1.43.24-.28.22-1.1.69-1.02.44.21-.03.76-.11,1.08-.43.96-2.03,2.18-3.08,2.22Z"/>
      <path d="M47.41,20.18c-.28-.02-.78-.15-.67-.52.25-.28,1.11.17,1.68-.1.85-.16,1.33-1.18,1.66-.87.33.38-.35.74-.61.96-.6.42-1.33.62-2.06.52Z"/>
      <path d="M50.44,19.16c-.14-.01-.29-.02-.42-.05-.31-.08-.42-.48-.03-.53.72.08,1.44-.01,2.09-.36.38-.17.66-.37.97-.62.12-.09.3-.05.39.06.38.67-2.44,1.69-2.99,1.5Z"/>
      <path d="M12.99,32.4c-.49,0-2.26-.27-1.83-1.03.2-.08.39.07.55.17.89.43,1.99.41,2.83-.14.44-.29.87-.61,1.19-1.04.32-.4,1.26-2.33,1.86-1.9.27.39-.38.63-.56.91-.84,1.49-2.15,3.08-4.03,3.02Z"/>
      <path d="M21.75,26.98c-.21-.12-.14-.37,0-.52.32-.53.69-1.04.93-1.62.59-1.68.64-3.65-.14-5.28-.62-.98-1.57-1.75-2.49-2.44-.19-.13-.47-.23-.5-.49.06-.25.41-.24.58-.11,1.5,1.04,3.12,2.37,3.4,4.29.28,1.8.13,3.74-.9,5.28-.24.28-.44,1.08-.88.89Z"/>
      <path d="M36.27,22.22c-.36-.35.77-.98.88-1.47.42-.62.5-1.36.65-2.07.26-1.25.14-2.52-.5-3.64-.63-1.49-2.39-1.76-3.15-3.13-.6-.66.04-1.06.47-.3,1.32,1.89,2.58,1.21,3.62,4.2.57,1.7.1,4.37-.98,5.79-.27.22-.59.9-.99.62Z"/>
      <path d="M49.72,19.17c-.2-.21.01-.42.18-.56.2-.28.44-.53.59-.84.69-1.79.56-3.87.2-5.72-.28-.77-.95-1.26-1.66-1.61-.61-.47-1.23-.96-1.76-1.52-.21-.3-.48-.59-.58-.95-.06-.46.46-.32.59-.02.46.83,1.27,1.38,1.98,1.98.77.39,1.5.91,1.86,1.72.57,1.85.71,5.4-.54,6.97-.22.23-.5.83-.87.54Z"/>
      <path d="M5.34,32.86c-.61-.13-1.27-.28-1.7-.77-.18-.16-.5-.44-.28-.68.34-.14.58.23.81.42.48.39,1.16.47,1.76.55.55.04,1.12-.17,1.53-.54.25-.25.65.14.39.39-.66.62-1.63.83-2.5.62Z"/>
      <path d="M8.12,33.22c-.4-.1-1.34-.25-1.2-.82.36-.32,1.21.63,2.23.21.38-.16.77-.32,1.12-.53.33-.15.94-1,1.27-.63.24.42-.44.61-.66.86-.78.57-1.77,1.08-2.76.91Z"/>
      <path d="M10.96,31.84c-.05-.16,0-.33.08-.47.11-.25.12-.52.17-.78.15-.33-.14-1.08.38-1.07.51.13.1,1.26.08,1.65-.03.31-.34,1.05-.71.68Z"/>
      <path d="M44.39,47.79c-.81-.33-1.61-.69-2.42-1.02-.9-.28-1.85-.47-2.66-.97-.88-.55-1.96-.98-2.46-1.94-1.24-1.67-2.86-3.03-1.81-5.28.27-.71.77-.16.46.35-.77,1.61.46,2.92,1.42,4.1.29.33.49.72.75,1.07.7.56,1.51.98,2.28,1.44,1.57.53,3.14,1.05,4.65,1.75.33.13.11.65-.22.51Z"/>
      <path d="M54.9,50.43c-2.41-.96-5.13-.85-7.49-1.91-.74-1.09,1.7.13,2.06.12,1.55.21,3.08.6,4.61.92.62.13,1.16.56,1.8.36.09-.02.19-.04.27.02.59.66-.9.65-1.25.5Z"/>
      <path d="M14.44,37.49c-1.32-.29-3.2-.41-3.76-1.86-.21-.72-.56-1.44-.37-2.21.11-.39.48-.39.53.03-.06.49-.02.97.19,1.43.19,1.57,1.92,1.68,3.15,2.02.83.22.63-.41,1.09-.3.55.44-.39.97-.84.88Z"/>
      <path d="M21.16,39.3c-1.07-.34-2.2-.25-3.31-.36-.84-.19-1.64-.54-2.39-.95-.25-.14-.58-.21-.72-.47-.21-.77.8-.08,1.08.04.63.35,1.31.61,2,.82.76.13,1.54.05,2.3.15.55-.01,1.09.43,1.63.14.14-.06.3,0,.36.15.13.48-.63.53-.95.5Z"/>
      <path d="M77.24,54.94c-1.13-.23-1.9-1.29-2.99-1.67-.92-.17-1.85-.31-2.61-.92-1.09-.83-1.52-2.31-.7-3.48.28-.34.55.12.39.4-1.02,1.83,1.07,3.35,2.77,3.39,1.02.24,1.83.98,2.68,1.54.23.23.8.08.77.5-.02.14-.17.26-.31.24Z"/>
      <path class="cls-9" d="M33.62,39.76c-.68-.26-1.42-.32-2.09-.63-.29-.08-.64.06-.88-.17-.21-.2.13-.43.32-.42.64-.07,1.18.26,1.77.42.39.09,1.23.07,1.21.6-.04.14-.2.24-.34.19Z"/>
      <path class="cls-9" d="M70.19,50.64c-1.05-.53-2.33-.32-3.3-1.08-.24-.16-.76-.08-.8-.45.51-.69,1.39.31,1.99.43.79.24,1.66.18,2.39.62.31.18.03.66-.28.48Z"/>
      <path class="cls-9" d="M65.89,49.41c-.56-.15-.23-.75.44-.52.57.27-.09.61-.44.52Z"/>
      <path class="cls-9" d="M34.36,39.99c-.34.06-1.09-.51-.46-.65.22,0,.47.08.66.18.17.16.04.49-.2.47Z"/>
      <path class="cls-10" d="M66.68,46.46c-.08-2.14-2.74-2.01-4.06-3.04-.42-.35-1.12-.41-1.4-.89-.11-.31.33-.33.51-.21.81.34,1.5.92,2.31,1.25,1.3.29,2.68.93,3.12,2.28.06.28.21.85-.21.89-.14,0-.29-.13-.28-.28Z"/>
      <path class="cls-10" d="M62.37,47.53c-.61-.29-.31-.82-1.39-1.15-.6-.25-1.08-.67-1.56-1.09-.65-.31-1.33-.54-1.97-.87-.6-.34-1.27-.42-1.94-.54-.34-.13-1.17-.45-.86-.91.3-.26.54.22.82.31,1.26.19,2.39.69,3.54,1.23.86.22,1.39,1.05,2.19,1.36.49.21,1.01.44,1.24.95.14.2.25.62-.06.7Z"/>
      <path class="cls-10" d="M85.21,53.01c-.84-.35.71-.74.9-1.03,1.13-.73,1.55-2.91,2.01-2.63.43.27-.13.81-.22,1.15-.54,1.08-1.43,2.31-2.69,2.51Z"/>
      <path class="cls-10" d="M80.43,51.25c-.49-.58,1.33-1.26,1.73-1.52.52-.11.47.54.01.6-.46.17-1.33,1.01-1.74.93Z"/>
      <path class="cls-10" d="M83.64,48.97c-.77-.19.7-1.07.86-1.38.27-.22.4-.91.84-.73.59.28-1.31,2.18-1.69,2.11Z"/>
      <path class="cls-10" d="M74.8,38.93c-.43-.3-.61-.88-1-1.25-1.23-1.21-2.93-1.72-4.1-3-.16-.22-.57-.54-.27-.8.12-.09.3-.07.39.05.41.62,1.05,1.03,1.62,1.48.86.53,1.77.98,2.53,1.66.26.23,1.83,1.98.84,1.86Z"/>
      <path class="cls-10" d="M66.24,31.74c-.48-.38-1.04-.63-1.52-1.01-.68-.59-1.14-1.38-1.69-2.08-.21-.42-1.42-1.22-1.02-1.64.5-.38,2.24,2.55,2.71,2.96.51.59,1.27.87,1.87,1.35.4.34.05.71-.36.42Z"/>
      <path class="cls-10" d="M25.53,34.13c-.58-.61.58-1.63.99-2.08.67-.5,1.44-.89,2.19-1.27,1.16-.3,2.2-.91,3.06-1.75.28-.22.63.22.34.44-.93.91-2.07,1.54-3.32,1.87-.78.5-1.71.81-2.31,1.55-.4.28-.55,1.3-.95,1.24Z"/>
      <path class="cls-10" d="M33.73,28.06c-.15-.52.88-.83,1.17-1.2.85-.44,1.66-.92,2.5-1.39.31-.18.59.3.28.48-.66.31-1.23.77-1.89,1.07-.7.12-1.37,1.35-2.06,1.04Z"/>
      <path class="cls-10" d="M21.5,31.34c-.37-.83,1.84-1.54,2.42-1.84.34-.1.77-.73,1.09-.33.17.66-1.5,1.01-1.95,1.31-.49.12-1.19,1.03-1.56.86Z"/>
      <path class="cls-10" d="M56.28,21.5c-.22-.07-.16-.32,0-.42.49-.25,1.1-.08,1.61-.29,1.34-.61,2.54-1.5,3.87-2.12.26-.14.59-.63.88-.31.27.74-1.84,1.24-2.29,1.71-1.23.77-2.57,1.63-4.07,1.44Z"/>
      <path class="cls-10" d="M63.99,17.81c-.65-.07.21-1,.45-.45.11.28-.22.45-.45.45Z"/>
    </g>
  </g>
</svg>