<?xml version="1.0" encoding="UTF-8"?>
<svg id="Layer_2" data-name="Layer 2" xmlns="http://www.w3.org/2000/svg" viewBox="0 0 73.85 72.18">
  <defs>
    <style>
      .cls-1 {
        fill: #d59353;
      }

      .cls-2 {
        fill: #ba7036;
      }
    </style>
  </defs>
  <g id="Layer_1-2" data-name="Layer 1">
    <g>
      <path class="cls-2" d="M28.12,9.63c1.69,1.11,2.67,3.15,4.63,3.89,1.3.56,2.73.35,4.1.37.01-.22.03-.44.05-.65-.34-.21-.67-.42-1.01-.64.72-1.22,2.14-1.69,3.43-2.03,1.23-.23,2.5-.11,3.73-.38.16-.15.23-.38.34-.57-.76-.67-1.83-.52-2.7-.95.47-.35.96-.7,1.51-.92.54-.22,1.14-.24,1.69-.43.41-.27.6-.79,1.03-1.04.47-.11.93.07,1.29.37.82.67,1.54,1.49,2.47,2.01.48.29,1.06.21,1.59.23-.04-1.69-1-3.3-2.47-4.13-1.27-.69-2.78-1.16-4.23-.8-1.14.28-2.25.67-3.29,1.2-1.02.53-2.15.85-3.3.89-.82-.04-1.64-.19-2.44-.36-1.32-.28-2.43-1.09-3.66-1.59-1.29-.37-2.9-.1-3.68,1.1-.25.85.66,1.53.51,2.39-.05.48-.54.77-.96.9-.66.22-1.52.04-1.98.69,1.12.09,2.36-.24,3.35.43Z"/>
      <path class="cls-1" d="M14.42,7.95c-.48.04-1.02-.02-1.44.27-.92.6-1.78,1.37-2.22,2.4,1.15-.44,2.37-.84,3.32-1.66.31-.24.27-.66.34-1.01Z"/>
      <path class="cls-2" d="M11.55,19.9c.05,1.11,0,2.23.01,3.34.98.63,2.46.57,3.23-.36.77-.99.81-2.33,1.48-3.37.48-.9,1.29-1.58,2.2-2.02-.2-.39-.38-.8-.36-1.24-.15-1.47,1.06-2.56,2.04-3.47,1.09-.83,2.14-1.86,2.49-3.24.12-.45-.18-.84-.35-1.23-1.18.05-2.02,1-3.13,1.26-.69.17-1.42.19-2.04.55-1.63.84-2.6,2.45-3.87,3.7-1.28,1.34-2.54,2.91-2.71,4.82-.03.63.58.94,1.03,1.24Z"/>
      <path class="cls-2" d="M47.77,9.23c.57,1.29,1.43,2.5,2.65,3.23,1.14.68,2.49,1.1,3.82.83,0-.11-.01-.34-.02-.46-.34-.28-.66-.61-1.07-.78-1.05-.26-2.27.27-3.2-.45-.95-.57-1.47-1.58-2.18-2.39Z"/>
      <path class="cls-2" d="M9.44,29.65c1.21-1.38,2.06-3.07,2.53-4.84-.52.02-1.1-.06-1.51.34-1.57,1.27-2.88,3.18-2.72,5.28.67.03,1.29-.25,1.7-.77Z"/>
      <path class="cls-2" d="M52.96,32.11c-.74.92-.9,2.12-1.46,3.13-.68,1.25-1.48,2.47-2.63,3.33-1.42,1.21-3.29,1.77-5.14,1.69-1.08.03-2.41-.17-3.22.71-.43.73-.02,1.59.13,2.35.18,1.41-.02,2.83-.14,4.24.32.11.64.33,1,.27,1.08-.19,2.16-.39,3.19-.78-.01-.23-.02-.46-.03-.7-.42-.44-.94-.83-1.21-1.39-.12-.52.18-1.03.42-1.47.54-.95,1.66-1.3,2.64-1.63,1.48-.42,2.93-1.07,4.5-1.07,1-.07,1.92.4,2.9.44.72-.03,1.42-.26,2.12-.39,1.9-.31,3.79-.86,5.49-1.79.03-.61-.09-1.27-.64-1.62-.72-.67-1.74-.28-2.59-.53-.4-.3-.67-.74-1.07-1.04-.31-.11-.64-.08-.96-.11,0-.33,0-.65,0-.98-.27.17-.53.35-.79.53-.24-.03-.47-.07-.7-.12-.52-.97-.53-2.16-1.21-3.06-.22,0-.43,0-.64,0Z"/>
      <path class="cls-2" d="M18.07,46.15c-.92,0-1.56-.78-2.22-1.32,0,.69.36,1.28.56,1.92.12,1.39-.19,2.81.18,4.17.17.63.38,1.34.99,1.68,1.07.59,2.35.59,3.53.45.82-.28,1.13-1.21,1.34-1.97.31-1.34.55-2.71,1.02-4.01.26-.79,1-1.25,1.43-1.93.18-.4-.25-.72-.62-.7-.77.02-1.49.32-2.24.48-1.36.31-2.59,1.06-3.98,1.23Z"/>
      <path class="cls-2" d="M30.22,51.31c-1.57-.43-3.17.29-4.75.04-.3-.25-.46-.63-.66-.96-.4.63-.83,1.25-1.11,1.94-.23.48.01,1.01.22,1.45.59,1.02,1.51,1.95,2.68,2.25.91.15,1.5-.82,2.37-.87.56-.04,1.21-.09,1.64.34.42.28.77.81,1.34.74.73-.07,1.42-.58,1.76-1.22.24-1.09.03-2.29-.76-3.11-.96.07-1.83-.34-2.72-.6Z"/>
      <path class="cls-2" d="M1.22,38.1c.52,1.63.22,3.36.18,5.03-.1,3.1-.01,6.4,1.6,9.16,1.53,2.64,4.21,4.25,6.38,6.3,1.06.93,1.68,2.23,2.6,3.28,1.14,1.31,2.49,2.41,3.91,3.4,1.1.76,2.19,1.58,3.46,2.07.76.3,1.57.44,2.36.64,1.37.33,2.47,1.31,3.83,1.7,1.28.46,2.66.28,3.99.41,1.89.16,3.84.29,5.57,1.12.81.38,1.64.79,2.54.89,2.7.33,5.42-.31,7.93-1.29,2.23-.83,4.45-1.7,6.74-2.38,1.48-.48,2.97-.96,4.51-1.26.66-.15,1.4-.24,1.9-.74.5-.56.7-1.33,1.21-1.89.45-.49,1.05-.82,1.56-1.24.75-.62,1.26-1.49,1.6-2.4.24-.63.49-1.29,1.02-1.74.7-.59,1.56-.97,2.26-1.56,1.08-.9,1.99-2.01,2.65-3.25.71-1.22,1.12-2.61,1.96-3.76.58-.8,1.21-1.63,1.41-2.62.28-1.2-.19-2.41-.05-3.62.08-.95.57-1.8.81-2.71.42-1.56.52-3.19.31-4.79-.25-1.95-.08-3.92.26-5.84.35-2.21.12-4.6-1.09-6.53-.77-1.39-1.92-2.54-2.63-3.96-.71-1.5-1.07-3.17-2.04-4.54-.5-.72-1.23-1.22-1.94-1.7-.68-.47-1.24-1.08-1.79-1.69-.86-.99-1.75-1.95-2.69-2.85-.92-.85-1.91-1.7-3.13-2.07-.77-.25-1.62-.19-2.34-.59-.54-.3-1.05-.67-1.49-1.11-1-.99-1.32-2.45-2.32-3.44-.78-.89-1.97-1.35-3.14-1.35-1.32-.06-2.5.71-3.81.71-1.3.09-2.53-.37-3.71-.83-1.42-.55-2.95-.64-4.44-.9-.66-.1-1.35-.24-2.02-.1-1.04.28-1.92,1.04-3.02,1.11-1.59.2-3.1-.61-4.69-.39-1.93.26-3.75.99-5.61,1.52-.9.26-1.82.43-2.68.83-1.14.52-2.13,1.32-3.15,2.05-1.24.87-2.29,1.99-3.58,2.81-1.67,1.11-2.64,2.92-4.04,4.3-1.44,1.57-3.32,2.83-4.13,4.88-.61,1.23.18,2.53.26,3.79.12.93-.57,1.66-1.02,2.4-.64.92-1.09,1.98-1.11,3.11-.02,1.36-.74,2.54-1.18,3.78C.58,31.87-.06,33.56,0,35.33c.05,1.06.75,1.88,1.22,2.77ZM3.47,51.28c-.52-.87-.83-1.87-.84-2.89.8,1.02,1.31,2.25,1.58,3.52-.27-.18-.57-.34-.74-.63ZM61.31,54.62c-1,.82-2.31,1.11-3.38,1.81-.64.44-1.4.88-1.65,1.67-.1.73.56,1.42.24,2.15-.28.98-1.34,1.66-2.34,1.41-.73-.19-1.04-1.02-1.07-1.7-.04-1.24.71-2.31,1.43-3.25.65-.9,1.44-1.71,2.41-2.27.69-.42,1.52-.45,2.29-.63,1.17-.27,2.23-.86,3.26-1.45-.26.81-.49,1.7-1.18,2.26ZM12.98,8.22c.42-.3.96-.23,1.44-.27-.07.35-.03.77-.34,1.01-.95.82-2.17,1.22-3.32,1.66.44-1.02,1.31-1.79,2.22-2.4ZM5.22,21.28c-.1-.94-.6-1.82-.53-2.78-.02-.69.33-1.32.74-1.86.56-.72,1.12-1.48,1.93-1.92.27.8-.3,1.49-.59,2.18-.85,1.83-.54,4-1.52,5.79-.15.01-.45.05-.6.06.25-.46.63-.91.56-1.47ZM2.84,29.48c1.37-1.81,3.6-2.62,5.13-4.24.75-.79,1.27-1.89,1.11-3-.2-.96-.94-1.72-1.1-2.7-.19-1.12-.06-2.31.5-3.31.94-1.93,2.8-3.13,4.24-4.65.89-.84,1.49-2,2.59-2.61,1.06-.6,2.17-1.14,3.09-1.95.93-.82,1.87-1.63,2.94-2.26,1.14-.67,2.27-1.41,3.55-1.81,1.54-.49,3.18-.88,4.8-.6,1.19.16,2.28.74,3.49.76,1.41.04,2.74-.6,4.15-.57,2.08,0,4.14.31,6.2.57,1.11.12,2.25.23,3.36-.03.82-.17,1.6-.54,2.44-.62.5.18.84.63,1.15,1.04.87,1.26,1.45,2.72,2.49,3.86.77.86,1.85,1.41,2.52,2.37.74,1.02,1.23,2.32,2.4,2.93,1.53.7,3.39.47,4.78,1.49.43.29.59.8.69,1.28-.28.1-.56.2-.84.31.08.5.35.93.75,1.24.53.39.63,1.06.77,1.65-.28.3-.61.57-.8.94,0,.87.9,1.51.72,2.41-.29,1.19-1.51,1.8-2.06,2.85-.37.69-.16,1.49.07,2.19.41,1.3,1.26,2.44,1.45,3.8.21,1.1.1,2.34.8,3.28.59.83,2.06.64,2.33,1.74.12,1.18.09,2.49-.56,3.52-.87.89-2.34.45-3.27,1.26-.41.4-.53.99-.67,1.53-.38,1.87-.27,3.79-.34,5.68-.03,1.03-.32,2.09-.96,2.91-.7.85-1.82,1.2-2.88,1.36-1.81.25-3.66.16-5.46-.12-1.72-.29-3.5.15-4.96,1.09-.77.52-1.71.67-2.49,1.15-.69.85-.76,2.13-1.76,2.76-1.22.69-2.71.62-4.06.46-.72-.06-1.54-.2-2.16.26-.66.45-.99,1.3-1.75,1.6-.71-.08-1.18-.7-1.79-1.02-.83-.51-1.89-.31-2.71.12-.9.48-1.74,1.07-2.53,1.72.92-.23,1.91-.75,2.85-.38.73.62.79,1.71,1.43,2.41.6.67,1.55.83,2.41.91.87.08,1.73-.12,2.6-.1.27-.01.54.15.58.44-.13.85-.88,1.47-1.66,1.71-1.34.46-2.76.08-4.14.16-1.26.02-2.53.38-3.79.18-.86-.23-1.31-1.12-1.55-1.91-.29-.83-.09-1.71-.07-2.57-1.1.11-1.87,1.02-2.9,1.31-.75.03-1.41-.38-2.1-.6-1.26-.45-2.68-.74-3.6-1.79-.74-.88.08-2.14-.53-3.07-.61-1.11-1.79-1.74-2.97-2.05-1.13-.34-2.44-.68-3.11-1.74-.69-1.23-.13-2.64.3-3.86.24-.75.6-1.53.47-2.34-.42-1.38-1.92-2.05-2.45-3.37-.48-1.55-.11-3.3.9-4.57.97-1.44,2.55-2.23,3.99-3.12.52-.29.83-.8,1.08-1.32-.37-.7-.91-1.3-1.21-2.03-.27-.94.24-1.89.1-2.83-.12-.42-.47-.72-.73-1.05-.83.39-1.69.83-2.24,1.6-.76,1.09-1.19,2.36-1.91,3.47-.51.83-1.57,1.09-2.48,1.04-.73-.07-1.45-.18-2.18-.18-.05.64-.14,1.31.09,1.93.39,1.1,1.26,1.96,1.66,3.06.15.36.03.75-.01,1.11-1.5-.31-2.8-1.41-3.4-2.81-.36-.82-.47-1.75-.96-2.51-.39-.58-.94-1.1-1.01-1.84-.16-1.4.34-2.83,1.18-3.94Z"/>
      <path class="cls-1" d="M2.67,35.26c.49.76.6,1.69.96,2.51.6,1.4,1.9,2.5,3.4,2.81.04-.37.16-.76.01-1.11-.4-1.1-1.27-1.95-1.66-3.06-.22-.62-.14-1.29-.09-1.93.73,0,1.46.1,2.18.18.92.06,1.97-.21,2.48-1.04.72-1.11,1.15-2.39,1.91-3.47.55-.77,1.41-1.21,2.24-1.6.26.33.61.63.73,1.05.14.95-.36,1.89-.1,2.83.29.73.83,1.34,1.21,2.03-.25.52-.56,1.03-1.08,1.32-1.43.89-3.02,1.67-3.99,3.12-1.01,1.27-1.38,3.01-.9,4.57.53,1.32,2.03,1.99,2.45,3.37.13.81-.23,1.59-.47,2.34-.43,1.21-.99,2.63-.3,3.86.67,1.07,1.98,1.41,3.11,1.74,1.18.31,2.37.94,2.97,2.05.61.93-.21,2.19.53,3.07.92,1.05,2.34,1.34,3.6,1.79.69.22,1.35.63,2.1.6,1.03-.29,1.79-1.19,2.9-1.31-.02.85-.22,1.74.07,2.57.23.79.68,1.68,1.55,1.91,1.26.21,2.53-.15,3.79-.18,1.38-.08,2.8.31,4.14-.16.79-.24,1.53-.86,1.66-1.71-.03-.29-.3-.45-.58-.44-.87-.02-1.73.18-2.6.1-.85-.07-1.81-.24-2.41-.91-.65-.7-.7-1.79-1.43-2.41-.95-.37-1.94.15-2.85.38.79-.65,1.63-1.23,2.53-1.72.82-.43,1.88-.63,2.71-.12.61.32,1.09.93,1.79,1.02.76-.3,1.09-1.15,1.75-1.6.62-.46,1.44-.32,2.16-.26,1.35.16,2.84.23,4.06-.46.99-.62,1.07-1.91,1.76-2.76.78-.48,1.72-.63,2.49-1.15,1.45-.94,3.24-1.38,4.96-1.09,1.8.29,3.65.37,5.46.12,1.06-.16,2.17-.51,2.88-1.36.64-.83.93-1.88.96-2.91.07-1.9-.04-3.81.34-5.68.14-.54.26-1.13.67-1.53.92-.81,2.4-.37,3.27-1.26.65-1.03.68-2.35.56-3.52-.27-1.1-1.74-.91-2.33-1.74-.7-.95-.59-2.19-.8-3.28-.19-1.37-1.04-2.51-1.45-3.8-.23-.7-.44-1.5-.07-2.19.55-1.05,1.76-1.65,2.06-2.85.18-.9-.72-1.54-.72-2.41.19-.37.52-.65.8-.94-.14-.59-.24-1.26-.77-1.65-.41-.31-.67-.74-.75-1.24.28-.1.56-.21.84-.31-.1-.48-.26-.99-.69-1.28-1.4-1.02-3.26-.79-4.78-1.49-1.17-.61-1.66-1.92-2.4-2.93-.67-.97-1.75-1.51-2.52-2.37-1.04-1.14-1.62-2.6-2.49-3.86-.31-.41-.65-.87-1.15-1.04-.84.08-1.62.46-2.44.62-1.1.26-2.24.15-3.36.03-2.06-.26-4.12-.57-6.2-.57-1.41-.03-2.74.61-4.15.57-1.21-.02-2.31-.6-3.49-.76-1.62-.28-3.26.11-4.8.6-1.28.4-2.41,1.14-3.55,1.81-1.07.63-2.01,1.45-2.94,2.26-.92.81-2.03,1.35-3.09,1.95-1.1.6-1.7,1.76-2.59,2.61-1.44,1.52-3.29,2.72-4.24,4.65-.56,1-.69,2.19-.5,3.31.17.97.9,1.73,1.1,2.7.16,1.11-.36,2.21-1.11,3-1.53,1.63-3.76,2.44-5.13,4.24-.84,1.11-1.34,2.55-1.18,3.94.07.73.63,1.26,1.01,1.84ZM33.71,55.01c-.34.65-1.02,1.15-1.76,1.22-.57.07-.92-.46-1.34-.74-.43-.43-1.08-.38-1.64-.34-.87.06-1.46,1.03-2.37.87-1.17-.31-2.08-1.23-2.68-2.25-.21-.44-.45-.97-.22-1.45.28-.7.71-1.31,1.11-1.94.2.33.36.71.66.96,1.59.25,3.18-.47,4.75-.04.89.26,1.77.67,2.72.6.79.82.99,2.02.76,3.11ZM55.51,35.29c.26-.18.52-.35.79-.53,0,.33,0,.65,0,.98.32.03.65,0,.96.11.4.3.67.74,1.07,1.04.84.24,1.87-.14,2.59.53.55.36.67,1.01.64,1.62-1.7.93-3.59,1.48-5.49,1.79-.71.13-1.4.37-2.12.39-.98-.05-1.91-.51-2.9-.44-1.57,0-3.02.65-4.5,1.07-.98.32-2.1.67-2.64,1.63-.25.44-.54.95-.42,1.47.27.56.79.95,1.21,1.39.01.23.02.46.03.7-1.02.39-2.11.59-3.19.78-.36.07-.68-.15-1-.27.12-1.41.32-2.83.14-4.24-.15-.75-.56-1.62-.13-2.35.81-.87,2.14-.68,3.22-.71,1.85.09,3.73-.48,5.14-1.69,1.15-.86,1.95-2.09,2.63-3.33.56-1.01.71-2.22,1.46-3.13.21,0,.43,0,.64,0,.68.9.7,2.08,1.21,3.06.23.05.46.09.7.12ZM53.14,12.07c.42.16.74.49,1.07.78,0,.11.01.34.02.46-1.32.27-2.68-.16-3.82-.83-1.22-.74-2.08-1.94-2.65-3.23.71.81,1.22,1.82,2.18,2.39.93.72,2.15.19,3.2.45ZM26.75,8.51c.42-.13.91-.41.96-.9.15-.85-.76-1.53-.51-2.39.77-1.2,2.38-1.47,3.68-1.1,1.23.5,2.35,1.3,3.66,1.59.81.16,1.62.32,2.44.36,1.15-.04,2.28-.36,3.3-.89,1.04-.54,2.15-.93,3.29-1.2,1.44-.37,2.95.11,4.23.8,1.47.83,2.43,2.44,2.47,4.13-.53-.03-1.12.06-1.59-.23-.94-.52-1.65-1.34-2.47-2.01-.35-.3-.82-.49-1.29-.37-.43.25-.62.76-1.03,1.04-.55.19-1.14.21-1.69.43-.55.22-1.04.57-1.51.92.87.43,1.94.28,2.7.95-.11.19-.17.42-.34.57-1.22.27-2.5.16-3.73.38-1.29.34-2.71.82-3.43,2.03.33.21.67.42,1.01.64-.02.22-.03.43-.05.65-1.37-.02-2.81.19-4.1-.37-1.96-.74-2.94-2.78-4.63-3.89-1-.67-2.24-.33-3.35-.43.45-.65,1.31-.47,1.98-.69ZM24.9,45.14c-.42.68-1.17,1.14-1.43,1.93-.47,1.3-.71,2.67-1.02,4.01-.21.76-.52,1.69-1.34,1.97-1.18.14-2.46.14-3.53-.45-.61-.34-.83-1.05-.99-1.68-.37-1.36-.06-2.79-.18-4.17-.19-.64-.55-1.23-.56-1.92.66.54,1.3,1.32,2.22,1.32,1.39-.17,2.62-.92,3.98-1.23.74-.16,1.47-.46,2.24-.48.36-.02.8.31.62.7ZM10.52,18.66c.17-1.92,1.43-3.48,2.71-4.82,1.27-1.25,2.25-2.86,3.87-3.7.62-.37,1.36-.39,2.04-.55,1.11-.26,1.96-1.21,3.13-1.26.17.39.48.78.35,1.23-.35,1.38-1.39,2.41-2.49,3.24-.98.91-2.19,2-2.04,3.47-.02.45.16.86.36,1.24-.91.44-1.72,1.12-2.2,2.02-.67,1.04-.71,2.38-1.48,3.37-.77.93-2.25.99-3.23.36-.02-1.12.04-2.23-.01-3.34-.44-.31-1.06-.61-1.03-1.24ZM10.46,25.15c.41-.39,1-.32,1.51-.34-.47,1.77-1.32,3.47-2.53,4.84-.42.52-1.04.8-1.7.77-.16-2.1,1.16-4.01,2.72-5.28Z"/>
      <g>
        <path class="cls-2" d="M1.22,38.1c.52,1.63.22,3.36.18,5.03-.1,3.1-.01,6.4,1.6,9.16,1.53,2.64,4.21,4.25,6.38,6.3,1.06.93,1.68,2.23,2.6,3.28,1.14,1.31,2.49,2.41,3.91,3.4,1.1.76,2.19,1.58,3.46,2.07.76.3,1.57.44,2.36.64,1.37.33,2.47,1.31,3.83,1.7,1.28.46,2.66.28,3.99.41,1.89.16,3.84.29,5.57,1.12.81.38,1.64.79,2.54.89,2.7.33,5.42-.31,7.93-1.29,2.23-.83,4.45-1.7,6.74-2.38,1.48-.48,2.97-.96,4.51-1.26.66-.15,1.4-.24,1.9-.74.5-.56.7-1.33,1.21-1.89.45-.49,1.05-.82,1.56-1.24.75-.62,1.26-1.49,1.6-2.4.24-.63.49-1.29,1.02-1.74.7-.59,1.56-.97,2.26-1.56,1.08-.9,1.99-2.01,2.65-3.25.71-1.22,1.12-2.61,1.96-3.76.58-.8,1.21-1.63,1.41-2.62.28-1.2-.19-2.41-.05-3.62.08-.95.57-1.8.81-2.71.42-1.56.52-3.19.31-4.79-.25-1.95-.08-3.92.26-5.84.35-2.21.12-4.6-1.09-6.53-.77-1.39-1.92-2.54-2.63-3.96-.71-1.5-1.07-3.17-2.04-4.54-.5-.72-1.23-1.22-1.94-1.7-.68-.47-1.24-1.08-1.79-1.69-.86-.99-1.75-1.95-2.69-2.85-.92-.85-1.91-1.7-3.13-2.07-.77-.25-1.62-.19-2.34-.59-.54-.3-1.05-.67-1.49-1.11-1-.99-1.32-2.45-2.32-3.44-.78-.89-1.97-1.35-3.14-1.35-1.32-.06-2.5.71-3.81.71-1.3.09-2.53-.37-3.71-.83-1.42-.55-2.95-.64-4.44-.9-.66-.1-1.35-.24-2.02-.1-1.04.28-1.92,1.04-3.02,1.11-1.59.2-3.1-.61-4.69-.39-1.93.26-3.75.99-5.61,1.52-.9.26-1.82.43-2.68.83-1.14.52-2.13,1.32-3.15,2.05-1.24.87-2.29,1.99-3.58,2.81-1.67,1.11-2.64,2.92-4.04,4.3-1.44,1.57-3.32,2.83-4.13,4.88-.61,1.23.18,2.53.26,3.79.12.93-.57,1.66-1.02,2.4-.64.92-1.09,1.98-1.11,3.11-.02,1.36-.74,2.54-1.18,3.78C.58,31.87-.06,33.56,0,35.33c.05,1.06.75,1.88,1.22,2.77ZM3.47,51.28c-.52-.87-.83-1.87-.84-2.89.8,1.02,1.31,2.25,1.58,3.52-.27-.18-.57-.34-.74-.63ZM61.31,54.62c-1,.82-2.31,1.11-3.38,1.81-.64.44-1.4.88-1.65,1.67-.1.73.56,1.42.24,2.15-.28.98-1.34,1.66-2.34,1.41-.73-.19-1.04-1.02-1.07-1.7-.04-1.24.71-2.31,1.43-3.25.65-.9,1.44-1.71,2.41-2.27.69-.42,1.52-.45,2.29-.63,1.17-.27,2.23-.86,3.26-1.45-.26.81-.49,1.7-1.18,2.26ZM12.98,8.22c.42-.3.96-.23,1.44-.27-.07.35-.03.77-.34,1.01-.95.82-2.17,1.22-3.32,1.66.44-1.02,1.31-1.79,2.22-2.4ZM5.22,21.28c-.1-.94-.6-1.82-.53-2.78-.02-.69.33-1.32.74-1.86.56-.72,1.12-1.48,1.93-1.92.27.8-.3,1.49-.59,2.18-.85,1.83-.54,4-1.52,5.79-.15.01-.45.05-.6.06.25-.46.63-.91.56-1.47ZM2.84,29.48c1.37-1.81,3.6-2.62,5.13-4.24.75-.79,1.27-1.89,1.11-3-.2-.96-.94-1.72-1.1-2.7-.19-1.12-.06-2.31.5-3.31.94-1.93,2.8-3.13,4.24-4.65.89-.84,1.49-2,2.59-2.61,1.06-.6,2.17-1.14,3.09-1.95.93-.82,1.87-1.63,2.94-2.26,1.14-.67,2.27-1.41,3.55-1.81,1.54-.49,3.18-.88,4.8-.6,1.19.16,2.28.74,3.49.76,1.41.04,2.74-.6,4.15-.57,2.08,0,4.14.31,6.2.57,1.11.12,2.25.23,3.36-.03.82-.17,1.6-.54,2.44-.62.5.18.84.63,1.15,1.04.87,1.26,1.45,2.72,2.49,3.86.77.86,1.85,1.41,2.52,2.37.74,1.02,1.23,2.32,2.4,2.93,1.53.7,3.39.47,4.78,1.49.43.29.59.8.69,1.28-.28.1-.56.2-.84.31.08.5.35.93.75,1.24.53.39.63,1.06.77,1.65-.28.3-.61.57-.8.94,0,.87.9,1.51.72,2.41-.29,1.19-1.51,1.8-2.06,2.85-.37.69-.16,1.49.07,2.19.41,1.3,1.26,2.44,1.45,3.8.21,1.1.1,2.34.8,3.28.59.83,2.06.64,2.33,1.74.12,1.18.09,2.49-.56,3.52-.87.89-2.34.45-3.27,1.26-.41.4-.53.99-.67,1.53-.38,1.87-.27,3.79-.34,5.68-.03,1.03-.32,2.09-.96,2.91-.7.85-1.82,1.2-2.88,1.36-1.81.25-3.66.16-5.46-.12-1.72-.29-3.5.15-4.96,1.09-.77.52-1.71.67-2.49,1.15-.69.85-.76,2.13-1.76,2.76-1.22.69-2.71.62-4.06.46-.72-.06-1.54-.2-2.16.26-.66.45-.99,1.3-1.75,1.6-.71-.08-1.18-.7-1.79-1.02-.83-.51-1.89-.31-2.71.12-.9.48-1.74,1.07-2.53,1.72.92-.23,1.91-.75,2.85-.38.73.62.79,1.71,1.43,2.41.6.67,1.55.83,2.41.91.87.08,1.73-.12,2.6-.1.27-.01.54.15.58.44-.13.85-.88,1.47-1.66,1.71-1.34.46-2.76.08-4.14.16-1.26.02-2.53.38-3.79.18-.86-.23-1.31-1.12-1.55-1.91-.29-.83-.09-1.71-.07-2.57-1.1.11-1.87,1.02-2.9,1.31-.75.03-1.41-.38-2.1-.6-1.26-.45-2.68-.74-3.6-1.79-.74-.88.08-2.14-.53-3.07-.61-1.11-1.79-1.74-2.97-2.05-1.13-.34-2.44-.68-3.11-1.74-.69-1.23-.13-2.64.3-3.86.24-.75.6-1.53.47-2.34-.42-1.38-1.92-2.05-2.45-3.37-.48-1.55-.11-3.3.9-4.57.97-1.44,2.55-2.23,3.99-3.12.52-.29.83-.8,1.08-1.32-.37-.7-.91-1.3-1.21-2.03-.27-.94.24-1.89.1-2.83-.12-.42-.47-.72-.73-1.05-.83.39-1.69.83-2.24,1.6-.76,1.09-1.19,2.36-1.91,3.47-.51.83-1.57,1.09-2.48,1.04-.73-.07-1.45-.18-2.18-.18-.05.64-.14,1.31.09,1.93.39,1.1,1.26,1.96,1.66,3.06.15.36.03.75-.01,1.11-1.5-.31-2.8-1.41-3.4-2.81-.36-.82-.47-1.75-.96-2.51-.39-.58-.94-1.1-1.01-1.84-.16-1.4.34-2.83,1.18-3.94Z"/>
        <path class="cls-1" d="M2.67,35.26c.49.76.6,1.69.96,2.51.6,1.4,1.9,2.5,3.4,2.81.04-.37.16-.76.01-1.11-.4-1.1-1.27-1.95-1.66-3.06-.22-.62-.14-1.29-.09-1.93.73,0,1.46.1,2.18.18.92.06,1.97-.21,2.48-1.04.72-1.11,1.15-2.39,1.91-3.47.55-.77,1.41-1.21,2.24-1.6.26.33.61.63.73,1.05.14.95-.36,1.89-.1,2.83.29.73.83,1.34,1.21,2.03-.25.52-.56,1.03-1.08,1.32-1.43.89-3.02,1.67-3.99,3.12-1.01,1.27-1.38,3.01-.9,4.57.53,1.32,2.03,1.99,2.45,3.37.13.81-.23,1.59-.47,2.34-.43,1.21-.99,2.63-.3,3.86.67,1.07,1.98,1.41,3.11,1.74,1.18.31,2.37.94,2.97,2.05.61.93-.21,2.19.53,3.07.92,1.05,2.34,1.34,3.6,1.79.69.22,1.35.63,2.1.6,1.03-.29,1.79-1.19,2.9-1.31-.02.85-.22,1.74.07,2.57.23.79.68,1.68,1.55,1.91,1.26.21,2.53-.15,3.79-.18,1.38-.08,2.8.31,4.14-.16.79-.24,1.53-.86,1.66-1.71-.03-.29-.3-.45-.58-.44-.87-.02-1.73.18-2.6.1-.85-.07-1.81-.24-2.41-.91-.65-.7-.7-1.79-1.43-2.41-.95-.37-1.94.15-2.85.38.79-.65,1.63-1.23,2.53-1.72.82-.43,1.88-.63,2.71-.12.61.32,1.09.93,1.79,1.02.76-.3,1.09-1.15,1.75-1.6.62-.46,1.44-.32,2.16-.26,1.35.16,2.84.23,4.06-.46.99-.62,1.07-1.91,1.76-2.76.78-.48,1.72-.63,2.49-1.15,1.45-.94,3.24-1.38,4.96-1.09,1.8.29,3.65.37,5.46.12,1.06-.16,2.17-.51,2.88-1.36.64-.83.93-1.88.96-2.91.07-1.9-.04-3.81.34-5.68.14-.54.26-1.13.67-1.53.92-.81,2.4-.37,3.27-1.26.65-1.03.68-2.35.56-3.52-.27-1.1-1.74-.91-2.33-1.74-.7-.95-.59-2.19-.8-3.28-.19-1.37-1.04-2.51-1.45-3.8-.23-.7-.44-1.5-.07-2.19.55-1.05,1.76-1.65,2.06-2.85.18-.9-.72-1.54-.72-2.41.19-.37.52-.65.8-.94-.14-.59-.24-1.26-.77-1.65-.41-.31-.67-.74-.75-1.24.28-.1.56-.21.84-.31-.1-.48-.26-.99-.69-1.28-1.4-1.02-3.26-.79-4.78-1.49-1.17-.61-1.66-1.92-2.4-2.93-.67-.97-1.75-1.51-2.52-2.37-1.04-1.14-1.62-2.6-2.49-3.86-.31-.41-.65-.87-1.15-1.04-.84.08-1.62.46-2.44.62-1.1.26-2.24.15-3.36.03-2.06-.26-4.12-.57-6.2-.57-1.41-.03-2.74.61-4.15.57-1.21-.02-2.31-.6-3.49-.76-1.62-.28-3.26.11-4.8.6-1.28.4-2.41,1.14-3.55,1.81-1.07.63-2.01,1.45-2.94,2.26-.92.81-2.03,1.35-3.09,1.95-1.1.6-1.7,1.76-2.59,2.61-1.44,1.52-3.29,2.72-4.24,4.65-.56,1-.69,2.19-.5,3.31.17.97.9,1.73,1.1,2.7.16,1.11-.36,2.21-1.11,3-1.53,1.63-3.76,2.44-5.13,4.24-.84,1.11-1.34,2.55-1.18,3.94.07.73.63,1.26,1.01,1.84ZM33.71,55.01c-.34.65-1.02,1.15-1.76,1.22-.57.07-.92-.46-1.34-.74-.43-.43-1.08-.38-1.64-.34-.87.06-1.46,1.03-2.37.87-1.17-.31-2.08-1.23-2.68-2.25-.21-.44-.45-.97-.22-1.45.28-.7.71-1.31,1.11-1.94.2.33.36.71.66.96,1.59.25,3.18-.47,4.75-.04.89.26,1.77.67,2.72.6.79.82.99,2.02.76,3.11ZM55.51,35.29c.26-.18.52-.35.79-.53,0,.33,0,.65,0,.98.32.03.65,0,.96.11.4.3.67.74,1.07,1.04.84.24,1.87-.14,2.59.53.55.36.67,1.01.64,1.62-1.7.93-3.59,1.48-5.49,1.79-.71.13-1.4.37-2.12.39-.98-.05-1.91-.51-2.9-.44-1.57,0-3.02.65-4.5,1.07-.98.32-2.1.67-2.64,1.63-.25.44-.54.95-.42,1.47.27.56.79.95,1.21,1.39.01.23.02.46.03.7-1.02.39-2.11.59-3.19.78-.36.07-.68-.15-1-.27.12-1.41.32-2.83.14-4.24-.15-.75-.56-1.62-.13-2.35.81-.87,2.14-.68,3.22-.71,1.85.09,3.73-.48,5.14-1.69,1.15-.86,1.95-2.09,2.63-3.33.56-1.01.71-2.22,1.46-3.13.21,0,.43,0,.64,0,.68.9.7,2.08,1.21,3.06.23.05.46.09.7.12ZM53.14,12.07c.42.16.74.49,1.07.78,0,.11.01.34.02.46-1.32.27-2.68-.16-3.82-.83-1.22-.74-2.08-1.94-2.65-3.23.71.81,1.22,1.82,2.18,2.39.93.72,2.15.19,3.2.45ZM26.75,8.51c.42-.13.91-.41.96-.9.15-.85-.76-1.53-.51-2.39.77-1.2,2.38-1.47,3.68-1.1,1.23.5,2.35,1.3,3.66,1.59.81.16,1.62.32,2.44.36,1.15-.04,2.28-.36,3.3-.89,1.04-.54,2.15-.93,3.29-1.2,1.44-.37,2.95.11,4.23.8,1.47.83,2.43,2.44,2.47,4.13-.53-.03-1.12.06-1.59-.23-.94-.52-1.65-1.34-2.47-2.01-.35-.3-.82-.49-1.29-.37-.43.25-.62.76-1.03,1.04-.55.19-1.14.21-1.69.43-.55.22-1.04.57-1.51.92.87.43,1.94.28,2.7.95-.11.19-.17.42-.34.57-1.22.27-2.5.16-3.73.38-1.29.34-2.71.82-3.43,2.03.33.21.67.42,1.01.64-.02.22-.03.43-.05.65-1.37-.02-2.81.19-4.1-.37-1.96-.74-2.94-2.78-4.63-3.89-1-.67-2.24-.33-3.35-.43.45-.65,1.31-.47,1.98-.69ZM24.9,45.14c-.42.68-1.17,1.14-1.43,1.93-.47,1.3-.71,2.67-1.02,4.01-.21.76-.52,1.69-1.34,1.97-1.18.14-2.46.14-3.53-.45-.61-.34-.83-1.05-.99-1.68-.37-1.36-.06-2.79-.18-4.17-.19-.64-.55-1.23-.56-1.92.66.54,1.3,1.32,2.22,1.32,1.39-.17,2.62-.92,3.98-1.23.74-.16,1.47-.46,2.24-.48.36-.02.8.31.62.7ZM10.52,18.66c.17-1.92,1.43-3.48,2.71-4.82,1.27-1.25,2.25-2.86,3.87-3.7.62-.37,1.36-.39,2.04-.55,1.11-.26,1.96-1.21,3.13-1.26.17.39.48.78.35,1.23-.35,1.38-1.39,2.41-2.49,3.24-.98.91-2.19,2-2.04,3.47-.02.45.16.86.36,1.24-.91.44-1.72,1.12-2.2,2.02-.67,1.04-.71,2.38-1.48,3.37-.77.93-2.25.99-3.23.36-.02-1.12.04-2.23-.01-3.34-.44-.31-1.06-.61-1.03-1.24ZM10.46,25.15c.41-.39,1-.32,1.51-.34-.47,1.77-1.32,3.47-2.53,4.84-.42.52-1.04.8-1.7.77-.16-2.1,1.16-4.01,2.72-5.28Z"/>
      </g>
      <path class="cls-1" d="M5.26,22.69c.97-1.79.67-3.95,1.52-5.79.29-.69.86-1.38.59-2.18-.81.45-1.38,1.2-1.93,1.92-.41.54-.76,1.16-.74,1.86-.07.97.43,1.84.53,2.78.07.55-.32,1.01-.56,1.47.15-.02.45-.05.6-.06Z"/>
      <path class="cls-1" d="M3.47,51.28c.17.29.47.45.74.63-.27-1.26-.78-2.5-1.58-3.52.01,1.02.32,2.02.84,2.89Z"/>
      <path class="cls-1" d="M56.94,54.44c-.96.57-1.76,1.37-2.41,2.27-.72.94-1.48,2-1.43,3.25.03.68.34,1.51,1.07,1.7,1.01.25,2.07-.43,2.34-1.41.32-.73-.34-1.42-.24-2.15.25-.79,1.01-1.23,1.65-1.67,1.07-.71,2.38-.99,3.38-1.81.69-.56.92-1.46,1.18-2.26-1.03.59-2.09,1.19-3.26,1.45-.77.18-1.6.22-2.29.63Z"/>
    </g>
  </g>
</svg>