<?xml version="1.0" encoding="UTF-8"?>
<svg id="Layer_2" data-name="Layer 2" xmlns="http://www.w3.org/2000/svg" viewBox="0 0 66.55 79.94">
  <defs>
    <style>
      .cls-1 {
        fill: #592712;
      }

      .cls-2 {
        fill: #7a381c;
      }

      .cls-3 {
        fill: #e8c6a5;
      }

      .cls-4 {
        fill: #ede0d3;
      }

      .cls-5 {
        fill: #cecdcc;
      }

      .cls-6 {
        fill: #4d2305;
      }

      .cls-7 {
        fill: #f0d6bd;
      }

      .cls-8 {
        fill: #d17d3d;
      }

      .cls-9 {
        fill: #f2ebe1;
      }

      .cls-10 {
        fill: #8fc13e;
      }
    </style>
  </defs>
  <g id="Layer_1-2" data-name="Layer 1">
    <g>
      <g>
        <path class="cls-6" d="M3.34,27.48s0,0,0,0c0,0,0,0,0,0,0,0,0,0,0,0Z"/>
        <path class="cls-6" d="M35.34,76.8s0,0-.01,0c0,0,0,0,.01,0Z"/>
        <path class="cls-6" d="M60.24,9.01s0,0,0,0c0,0,0,0,.01.01,0,0-.02-.01-.02-.02Z"/>
        <path class="cls-6" d="M60.2,8.98s.02.01.02.02c0,0,0,0,0,0,0,0-.02-.01-.03-.02Z"/>
        <path class="cls-6" d="M7.85,8.1s-.02,0-.03.01c0,0,.02,0,.03-.01Z"/>
        <path class="cls-6" d="M59.06,7.58s.02,0,.03.01c0,0-.02,0-.03-.01Z"/>
        <path class="cls-6" d="M7.53,7.57s-.01,0-.02,0c0,0,.01,0,.02,0Z"/>
        <path class="cls-6" d="M34.89,3.58s0,0,0,0c0,0,0,0,0,0,0,0,0,0-.01,0Z"/>
        <path class="cls-6" d="M31.66,3.58s0,0,0,0c0,0,0,0-.01,0,0,0,0,0,0,0Z"/>
        <path class="cls-6" d="M33.53,3.48s0,0,.01,0c0,0,0,0,0,0,0,0-.01,0-.02,0Z"/>
        <path class="cls-6" d="M33.01,3.49s0,0,.01,0c0,0-.01,0-.02,0,0,0,0,0,0,0Z"/>
        <path class="cls-6" d="M55.76,71.78c.32.02.64.05.96.05-.4.25-.83.48-1.25.7-.58.3-1.16.59-1.75.87-.58.28-1.16.56-1.75.82-.29.13-.58.27-.88.39-.31.13-.62.24-.93.34-.3.1-.61.2-.91.3-.31.09-.62.17-.93.25-.62.15-1.24.31-1.87.44-.63.12-1.26.25-1.89.33-.61.08-1.23.15-1.84.23-.62.08-1.25.16-1.87.24-.63.09-1.25.18-1.88.27-.6.08-1.19.17-1.79.25-.59.07-1.18.12-1.77.16,0,0-.02,0-.02,0,0,0-.01,0-.01,0-.35.02-.7.04-1.05.04-.2,0-.39,0-.59-.02-.15,0-.3-.02-.45-.04-.15.02-.3.03-.45.04-.54.03-1.09.01-1.63-.02,0,0-.01,0-.02,0,0,0-.02,0-.02,0-.59-.04-1.18-.09-1.77-.16-.6-.07-1.2-.16-1.79-.25-.63-.09-1.25-.18-1.88-.27-.62-.09-1.24-.17-1.87-.24-.61-.08-1.23-.15-1.84-.23-.64-.08-1.26-.2-1.89-.33-.63-.12-1.25-.28-1.87-.44-.31-.08-.62-.16-.93-.25-.31-.09-.61-.19-.91-.3-.31-.1-.62-.22-.93-.34-.3-.12-.59-.26-.88-.39-.59-.27-1.17-.54-1.75-.82-.59-.28-1.17-.57-1.75-.87-.56-.3-1.12-.6-1.64-.96-.25-.18-.48-.37-.7-.59-.1-.1-.19-.21-.21-.34-1.66-1.76-2.38-4.08-2.76-6.46.02-.05.03-.1.05-.15,0,0,0-.01,0-.02,0-.02.01-.03.02-.05,0-.02.01-.04.02-.06,0,0,0-.01,0-.02,0,0,0,0,0-.01.08-.22.16-.43.26-.64.06-.13.13-.25.21-.37.07-.1.14-.19.22-.28.05-.05.1-.1.16-.15.03-.02.06-.05.09-.07.06-.04.11-.07.17-.11.05-.02.1-.05.16-.07.04-.01.09-.03.13-.04.04,0,.09-.01.13-.02.06,0,.12,0,.19,0,.06,0,.13.01.19.03.06.01.12.03.18.05.06.02.12.05.17.07.06.03.11.06.17.1.06.04.12.09.18.14.09.08.18.17.26.26.12.14.23.28.33.42.11.16.2.33.29.5.2.42.38.84.55,1.27.18.45.36.91.56,1.35.29.63.62,1.24.96,1.85.16.29.32.57.48.86.17.3.33.61.5.91.17.3.36.59.55.87.19.27.39.54.61.79.22.24.44.48.68.7.27.24.55.48.86.66.3.18.63.31.96.4.32.09.66.18,1,.19.15,0,.31,0,.47-.02.18-.03.34-.09.51-.16.3-.14.57-.33.85-.52,0,0,0,0,0,0,.22-.15.45-.31.67-.46.14-.09.27-.18.41-.26.1-.05.19-.09.29-.12.07-.02.13-.04.2-.05.07-.01.13-.02.2-.03.11,0,.23,0,.34,0,.1,0,.19.02.29.04.18.04.35.09.52.15.2.07.4.16.6.26.48.25.92.57,1.38.86.48.3.97.57,1.47.83.03.01.06.03.09.04-.01,0-.02-.01-.04-.02.13.06.26.13.39.19.63.29,1.29.51,1.98.64.68.13,1.38.21,2.07.23.14,0,.28,0,.42,0,.17,0,.33,0,.5-.01.45.03.9.03,1.34.04.4.01.81.02,1.21.02.1,0,.2,0,.3,0,.48,0,.96-.03,1.45-.04.47-.01.94,0,1.41.01.24,0,.49,0,.73,0,.27-.02.54-.04.81-.07.49-.06.98-.16,1.46-.25.52-.1,1.03-.21,1.54-.32.23-.05.45-.1.67-.15.22-.05.44-.1.66-.16-.03,0-.06.02-.09.02.17.02.33.02.5.02.03,0,.05,0,.08,0,.28,0,.57-.03.85-.07.29-.04.57-.1.85-.19.27-.08.54-.18.81-.28.62-.24,1.22-.54,1.81-.84.59-.29,1.18-.59,1.8-.81.29-.1.59-.19.89-.25.03,0,.06-.01.09-.02.02,0,.05,0,.07-.01-.01,0-.03,0-.04,0,.36-.07.73-.11,1.1-.14.04,0,.08,0,.12,0,.57-.03,1.15-.03,1.72-.02.57.02,1.14.04,1.7.08.4.03.8.06,1.21.09Z"/>
        <path class="cls-3" d="M30.53,24.53s0,0,0,0c0,0,0,0,0,0,0,0,0,0,0,0Z"/>
        <path class="cls-3" d="M36.02,24.53s0,0,0,0c0,0,0,0,0,0,0,0,0,0,0,0Z"/>
        <path class="cls-3" d="M42.12,23.61s-.01,0-.02,0c0,0,.01,0,.02,0Z"/>
        <path class="cls-3" d="M64.4,14.72s0,.04,0,.07c0,0,0,0,0,0-.45.87-1.13,1.62-1.84,2.27-.5.46-1.04.87-1.6,1.26-.57.39-1.17.74-1.79,1.06-1.2.62-2.45,1.13-3.71,1.59-1.29.47-2.58.94-3.9,1.29-.64.17-1.29.31-1.94.45-.67.15-1.33.29-2,.43-1.31.26-2.63.52-3.94.78-.54.11-1.08.23-1.63.34-.54.11-1.08.21-1.61.31-.66.12-1.33.24-1.99.33-.66.09-1.33.16-2,.22-.33.03-.66.05-.99.06-.3.01-.61.02-.91.02-.18,0-.35,0-.53,0-.14,0-.28,0-.43,0,.14,0,.28,0,.43,0-.02,0-.04,0-.06,0h0c-.22,0-.44,0-.65,0h0c-.22,0-.44,0-.66,0h0s-.04,0-.06,0c-.18,0-.35,0-.53,0-.3,0-.61-.01-.91-.02-.33-.01-.66-.03-.99-.06-.67-.06-1.34-.13-2-.22-.67-.09-1.33-.21-1.99-.33-.54-.1-1.08-.2-1.61-.31-.54-.11-1.09-.23-1.63-.34-1.31-.26-2.63-.52-3.94-.78-.67-.13-1.33-.28-2-.43-.65-.14-1.3-.28-1.94-.45-1.32-.35-2.61-.82-3.9-1.29-1.27-.46-2.52-.97-3.71-1.59-.62-.32-1.22-.67-1.79-1.06-.56-.38-1.1-.8-1.6-1.26-.71-.65-1.39-1.39-1.84-2.25,0,0,0,0,0,0,0-.03,0-.06,0-.09,0-.13,0-.25-.01-.38,0-.19,0-.38.01-.57.01-.11.03-.22.07-.33,0-.13.01-.25.02-.38,0,0,0,0,0-.01,0,0,0-.01,0-.02,0,0,0,0,0,0,0,0,0-.02,0-.02,0,0,0,0,0,0,0-.12.02-.23.03-.35,0-.06.01-.12.02-.18,0-.07,0-.15.03-.22.03-.11.09-.22.19-.29.05-.04.13-.07.19-.04,0,0,0,0,.01,0,.08-.17.17-.34.27-.5.08-.13.16-.26.25-.38,0-.02.01-.03.02-.04.04-.09.11-.16.18-.24.02-.02.04-.05.06-.07.01-.02.02-.03.04-.05.21-.25.43-.49.66-.72.27-.27.55-.52.85-.76.28-.22.57-.44.86-.64,0,0,0,0,0,0h0s.02-.01.03-.02c0,0,0,0,.01,0,.5-.34,1.01-.65,1.53-.92,0,0,.01,0,.02-.01,0,0,.01,0,.02,0,.28-.14.56-.28.84-.41.28-.13.57-.25.87-.36.29-.11.58-.22.88-.32.28-.09.57-.18.85-.26.58-.17,1.16-.33,1.74-.48.63-.16,1.27-.27,1.91-.39.18-.03.36-.07.55-.1.28-.07.56-.14.85-.21.64-.15,1.27-.31,1.92-.44.66-.14,1.33-.27,2-.38.67-.11,1.34-.22,2-.32.68-.11,1.35-.23,2.03-.35.34-.06.68-.12,1.01-.18.33-.06.65-.12.98-.17.34-.05.68-.09,1.02-.14.32-.04.63-.08.95-.12.33-.04.66-.06.99-.09.34-.03.68-.06,1.03-.08.32-.02.64-.01.96-.02.32,0,.64,0,.96,0,.31.01.63.03.94.05.16,0,.32.02.48.03.16,0,.32-.02.48-.03.31-.02.63-.04.94-.05.32-.01.64-.01.96,0,.32,0,.64,0,.96.02.34.02.69.05,1.03.08.33.03.66.06.99.09.32.03.64.07.95.12.34.04.68.08,1.02.14.33.05.65.11.98.17.34.06.68.12,1.01.18.67.12,1.35.24,2.03.35.67.11,1.34.21,2,.32.67.11,1.34.24,2,.38.64.13,1.28.29,1.92.44.28.07.56.14.85.21.18.03.36.07.55.1.64.12,1.28.23,1.91.39.58.15,1.16.31,1.74.48.28.08.57.17.85.26.3.1.59.21.88.32.29.11.58.23.87.36.28.13.56.27.84.41,0,0,.01,0,.02,0h.01s0,0,0,.01c.53.27,1.04.58,1.53.92,0,0,0,0,.01,0,.01,0,.02.01.03.02h0c.3.2.59.42.86.64.3.24.58.49.85.76.23.23.45.47.66.72.01.01.02.03.04.05.02.02.04.04.06.07.07.07.14.15.18.24,0,.01.01.03.02.04.09.13.17.25.25.38.1.16.19.33.27.5,0,0,0,0,.01,0,.07-.03.14,0,.19.04.1.07.16.18.19.29.02.07.02.15.03.22,0,.06.01.12.02.18,0,.12.02.23.03.35,0,0,0,.01,0,.02,0,0,0,.01,0,.02,0,0,0,.01,0,.02,0,.13.02.25.02.38.09.15.07.35.07.51,0,.2,0,.4,0,.61,0,.05,0,.11,0,.16Z"/>
        <path class="cls-8" d="M16.49,71.86s0,0,0,0c0,0,0,0,0,0,0,0,0,0,0,0Z"/>
        <path class="cls-8" d="M14.05,69.23s0,.01.01.02c0,0,0-.01-.01-.02Z"/>
        <path class="cls-8" d="M12.42,62.19s0,0,0,0c0,0,0,.01,0,.02,0,0,0-.01,0-.02Z"/>
        <path class="cls-8" d="M17.27,59.71s0,.02,0,.02c0,0,0,0,0,.01,0-.01,0-.03-.01-.04Z"/>
        <path class="cls-8" d="M17.85,59.48s0,0,0,0c0,0,0,.01,0,.02,0,0,0,0,0-.01Z"/>
        <path class="cls-8" d="M17.82,59.4s0,0,0-.01c0,0,0,.02,0,.03,0,0,0-.01,0-.02Z"/>
        <path class="cls-8" d="M17.82,59.38s0,0,0,.01c0,0,0,0,0-.01Z"/>
        <path class="cls-8" d="M9.96,26.32s0,0,0,0c0,0,0,0,0,0,0,0,0,0,0,0,0,0,0,0,0,0Z"/>
        <path class="cls-8" d="M30.44,75.11s.03,0,.04,0c-.01,0-.03,0-.04,0Z"/>
        <path class="cls-8" d="M47.52,70.34s0-.01.01-.02c0,.01-.01.02-.02.03,0,0,0-.01.01-.02Z"/>
        <path class="cls-8" d="M46.98,70.03s-.01.02-.02.03c0,0,.01-.02.02-.03Z"/>
        <path class="cls-8" d="M24.05,62.19s0,.02,0,.03c0,0,0-.02,0-.03Z"/>
        <path class="cls-8" d="M24.06,62.02s0,.01,0,.02c0,0,0-.01,0-.02Z"/>
        <path class="cls-8" d="M28.72,38.65s0,.02,0,.02c0,0,0-.02,0-.02Z"/>
        <path class="cls-8" d="M53.68,61.68s0,0,0,0c0,0,0,0,0,0,0,0,0,0,0,0Z"/>
        <path class="cls-8" d="M54.11,53.12s0,.01,0,.02c0,0,0,0,0,0,0,0,0-.01,0-.02Z"/>
        <path class="cls-8" d="M54.13,50.73s0,0,0,.01c0,0,0,0,0-.01Z"/>
        <path class="cls-8" d="M54.75,50.68s0,.01,0,.02c0,0,0-.01,0-.02Z"/>
        <path class="cls-8" d="M54.75,50.64s0,0,0,0c0,0,0,0,0,0,0,0,0,0,0,0Z"/>
        <path class="cls-8" d="M50.01,59.68c0,.51,0,1.02-.02,1.53-.02.51-.06,1.02-.1,1.52-.04.51-.1,1.03-.16,1.54-.07.51-.16,1.02-.27,1.53-.04.2-.09.4-.14.59-.02.08-.05.17-.07.25-.03.09-.05.19-.08.28-.06.19-.12.38-.19.57-.08.21-.16.42-.25.62-.09.2-.18.4-.28.6-.1.2-.2.39-.3.59-.1.19-.2.37-.31.55-.04.08-.09.15-.14.23-.01.02-.03.05-.04.07-.03.04-.05.08-.08.12-.01.02-.03.04-.04.06,0,0,0,0,0,0,0,0,0,.01-.01.02,0,0,0,.01-.01.02-.02.02-.03.05-.05.07-.07.1-.14.21-.21.31,0-.01.01-.02.02-.03-.06.09-.12.17-.18.25-.08.1-.15.21-.23.3-.1.12-.19.23-.29.35-.08.1-.18.19-.27.29-.07.08-.15.15-.22.23-.09.09-.18.18-.28.26-.1.08-.19.17-.3.25-.12.09-.23.18-.35.26-.1.07-.21.14-.32.21-.1.07-.21.13-.32.19-.02.01-.04.02-.06.04-.08.05-.17.09-.25.13-.11.06-.23.12-.35.17-.23.1-.46.2-.7.29-.26.09-.51.17-.77.24-.03,0-.06.02-.09.03-.22.06-.44.11-.66.16-.22.05-.45.1-.67.15-.51.11-1.03.22-1.54.32-.48.1-.97.19-1.46.25-.27.03-.54.05-.81.07-.24.02-.49.01-.73,0-.47,0-.94-.02-1.41-.01-.48.01-.96.04-1.45.04-.1,0-.2,0-.3,0-.4,0-.81,0-1.21-.02-.45-.01-.9-.02-1.34-.04-.04,0-.07,0-.11,0-.03,0-.07,0-.1,0-.26-.02-.52-.06-.78-.11-.22-.04-.45-.1-.66-.18-.05-.02-.09-.04-.14-.05,0,0,0,0,0,0-.05-.02-.09-.04-.14-.06-.05-.02-.09-.04-.14-.06-.05-.02-.09-.04-.14-.06-.04-.02-.09-.04-.13-.06-.04-.02-.08-.04-.11-.05-.02,0-.04-.02-.06-.03-.09-.04-.17-.09-.26-.13-.08-.04-.17-.09-.25-.13-.44-.24-.86-.51-1.27-.79-.42-.29-.83-.57-1.23-.89-.2-.16-.4-.32-.59-.5-.19-.18-.37-.37-.54-.57-.08-.09-.15-.18-.21-.27-.07-.1-.14-.2-.2-.3-.06-.11-.12-.23-.18-.34-.06-.12-.1-.25-.14-.38-.04-.12-.06-.24-.09-.36-.03-.13-.05-.26-.07-.39-.04-.24-.07-.48-.09-.72-.04-.49-.05-.99-.05-1.48,0-.43,0-.86.03-1.29.03-.44.06-.87.11-1.31.09-.82.2-1.63.27-2.45,0,0,0,0,0,0,0-.01,0-.02,0-.03,0,0,0,0,0,0,0-.05,0-.09,0-.14,0,0,0,0,0,0,0,0,0,0,0-.01,0,0,0,0,0,0,0,0,0-.02,0-.03,0,0,0,0,0,0,.08-1.21.05-2.42-.02-3.63-.05-.76-.12-1.52-.22-2.28-.1-.79-.23-1.57-.39-2.36-.11-.49-.22-.98-.34-1.47-.12-.47-.25-.94-.37-1.41-.14-.52-.27-1.03-.39-1.56-.11-.48-.21-.96-.28-1.44-.04-.25-.08-.51-.1-.76-.02-.27-.04-.53-.06-.8-.01-.25,0-.51,0-.76,0-.26.02-.51.04-.77.04-.5.12-.99.23-1.48.11-.49.27-.97.47-1.44.1-.23.2-.46.32-.68.12-.24.26-.47.4-.7.13-.22.29-.43.44-.64.07-.09.14-.18.21-.26.04-.05.09-.1.13-.15.04-.05.08-.09.13-.14.09-.09.18-.18.27-.26.11-.09.21-.18.33-.26.19-.15.4-.27.6-.4.1-.06.2-.11.3-.16.03-.01.06-.03.09-.04.19-.13.38-.25.57-.36.18-.11.37-.2.56-.29.18-.08.37-.13.56-.17.1-.02.2-.03.3-.03.12,0,.24,0,.36.04.06.02.13.07.19.13.04.01.08.02.11.04.12.05.23.13.32.22.1.11.18.24.26.37.1.18.18.38.25.58,0,0,0,0,0,0,0,0,0,.02,0,.02,0,.02.01.04.02.07,0,.02.01.05.02.07,0,0,0,.02,0,.03,0,.01,0,.02,0,.03,0,.02,0,.03.01.05,0,.02.01.04.02.06,0,.03.01.05.02.08,0,.03.01.05.02.08,0,.02,0,.04.01.05,0,0,0,0,0,0,0,.02,0,.03.01.05,0,.02.01.05.02.07,0,.02,0,.05.01.07,0,.01,0,.03,0,.04,0,.01,0,.03,0,.04,0,.01,0,.03,0,.04,0,0,0,.01,0,.02,0,.01,0,.03,0,.04,0,.05.02.1.02.15,0,.01,0,.02,0,.04,0,.02,0,.04,0,.06,0,.01,0,.03,0,.04,0,.03,0,.05,0,.08,0,.03,0,.05,0,.08,0,.01,0,.02,0,.04,0,.01,0,.03,0,.04,0,.04,0,.09.01.13,0,.03,0,.06,0,.08,0,.03,0,.05,0,.08,0,0,0,0,0,0,0,.03,0,.05,0,.08,0,0,0,0,0,0,0,.05,0,.1,0,.15,0,.03,0,.07,0,.1,0,.03,0,.05,0,.08,0,.02,0,.03,0,.05,0,.06,0,.12,0,.19,0,0,0,.01,0,.02,0,.06,0,.11,0,.17,0,.03,0,.06,0,.08.03.98.01,1.97-.08,2.95-.19,2.01-.53,4-.71,6.01-.02.28-.05.55-.07.83-.03.46-.05.93-.06,1.39-.01.46,0,.92.03,1.38.03.38.06.77.11,1.15.05.39.12.77.19,1.15.05.22.1.44.15.66.06.23.12.45.19.68.06.17.12.34.19.51.03.07.06.15.09.22.04.09.09.18.13.27.07.12.14.24.21.36.09.12.18.24.27.36.07.07.14.14.21.21.07.06.14.12.21.17.07.05.14.09.22.13.05.03.11.05.17.07.06.02.12.04.18.05.04,0,.08.01.12.02.06,0,.12,0,.18,0,.04,0,.07,0,.11-.02.04,0,.08-.02.11-.03.05-.02.1-.04.15-.06.05-.03.09-.05.14-.08.05-.03.09-.07.13-.1.06-.05.11-.11.16-.16.06-.07.11-.14.16-.21.06-.09.11-.18.16-.28.04-.09.08-.18.12-.28,0,0,0,0,0,0,.05-.14.08-.28.12-.42.01-.08.03-.16.04-.24.01-.09.02-.17.03-.26.02-.26.02-.52.02-.78,0-.24-.02-.48-.03-.72-.04-.52-.1-1.03-.15-1.54-.05-.48-.11-.97-.14-1.46-.08-1.02-.12-2.05-.08-3.07.02-.55.06-1.1.09-1.65h0s0,0,0,0c0,0,0,0,0,0,0,0,0,0,0-.01.07-1.03.18-2.07.31-3.1.13-1.03.31-2.05.51-3.06.21-1.01.46-2.01.73-3.01.14-.51.29-1.02.44-1.53.05-.18.11-.36.17-.54.02-.06.04-.11.05-.17.08-.24.16-.48.24-.72.04-.11.08-.22.12-.33.05-.13.09-.27.14-.4.03-.08.06-.16.09-.23.05-.14.11-.28.16-.42.03-.08.06-.15.09-.23,0,0,0-.01,0-.02.02-.04.04-.09.05-.13.01-.03.03-.07.04-.1.04-.09.08-.19.12-.28.03-.06.05-.12.08-.18,0,0,0-.01,0-.02.08-.18.16-.36.24-.54.22-.5.46-.99.71-1.48.12-.24.24-.48.37-.71.12-.23.25-.45.37-.67.06-.1.12-.19.18-.29.06-.1.12-.19.19-.29.08-.12.17-.25.25-.37.08-.12.17-.23.26-.34.06-.08.13-.17.2-.25.08-.09.15-.19.24-.27.09-.09.17-.19.26-.28.1-.1.21-.19.31-.29.1-.1.22-.18.33-.27.1-.08.21-.15.32-.23.21-.15.44-.27.67-.39.22-.12.45-.2.69-.28.27-.1.57-.15.86-.18.33-.03.67,0,.99.09.02,0,.05.01.07.02,0,0,0,0,0,0,.02,0,.05.01.07.02.02,0,.04.01.06.02.03.01.06.02.1.04.02,0,.03.01.05.02,0,0,0,0,0,0,.02,0,.04.02.06.03.02,0,.04.02.06.03.01,0,.03.01.04.02,0,0,.02,0,.03.01,0,0,.02,0,.03.01.01,0,.03.02.04.02,0,0,0,0,.01,0,0,0,.01,0,.02.01.02,0,.03.02.05.03,0,0,.02,0,.02.01,0,0,.02.01.03.02.01,0,.02.01.03.02,0,0,.02.01.03.02.01,0,.02.02.04.02,0,0,0,0,.01,0,.01,0,.02.01.03.02.02.01.04.03.06.04.04.03.07.05.1.08.01.01.02.02.04.03,0,0,0,0,0,0,.3.26.56.56.78.89.28.42.52.87.73,1.32.11.24.21.48.31.72.09.24.17.49.25.74.03.1.06.21.08.32.03.12.06.24.08.36.05.24.09.49.13.74.14,1.02.21,2.04.29,3.06.08,1,.21,1.99.36,2.98.07.45.14.9.22,1.35.08.46.16.91.25,1.37.05.24.1.49.16.73.06.27.13.53.19.79.12.51.27,1.02.4,1.53.26.96.53,1.91.78,2.88.07.27.13.54.2.81.06.25.11.5.16.76.11.5.18,1.01.24,1.52.13,1.01.18,2.03.24,3.05.06,1.04.07,2.08.07,3.11,0,1.02.02,2.05.03,3.07Z"/>
        <path class="cls-8" d="M19.85,68.38c0,.23,0,.47,0,.7-.02.26-.03.51-.06.77-.06.49-.15.98-.29,1.46-.05.17-.11.35-.17.52,0,0,0,0,0,.01,0,.02-.02.04-.02.06,0,.02-.02.05-.03.07,0,.01,0,.02-.01.03,0,.02-.02.04-.03.06,0,0,0,.01,0,.02,0,.02-.02.04-.03.06-.01.03-.03.05-.04.08-.01.03-.03.05-.04.08-.01.03-.03.05-.05.08-.01.03-.03.05-.05.08-.02.03-.03.05-.05.08-.02.02-.03.05-.05.07-.16.22-.34.42-.58.55-.11.06-.24.1-.36.1-.08,0-.15-.01-.22-.04-.02,0-.04-.02-.06-.03-.02,0-.05,0-.07,0-.02,0-.05,0-.07,0-.07,0-.13,0-.2-.02-.1-.02-.21-.05-.3-.09-.02,0-.05-.02-.07-.03-.02-.01-.05-.02-.07-.03-.01,0-.03-.01-.04-.02,0,0-.01,0-.02-.01-.01,0-.03-.01-.04-.02,0,0-.01,0-.02-.01,0,0-.02-.01-.03-.02-.02-.01-.03-.02-.05-.03-.02-.01-.04-.02-.05-.04-.05-.03-.09-.07-.13-.1-.24-.2-.44-.43-.64-.66-.27-.32-.52-.67-.75-1.02-.19-.29-.37-.59-.55-.9-.18-.31-.37-.63-.53-.96,0,0,0,0,0-.01,0-.02-.02-.03-.03-.05,0,0,0,.01,0,.02-.44-.88-.78-1.81-1.09-2.75-.15-.46-.29-.91-.43-1.37-.14-.46-.27-.93-.39-1.4-.09-.35-.17-.7-.24-1.05,0,0,0-.01,0-.02-.2-.97-.38-1.95-.5-2.94-.12-.99-.18-1.98-.25-2.97-.07-.99-.13-1.99-.24-2.98-.06-.51-.13-1.01-.2-1.52-.07-.48-.15-.96-.25-1.44-.02-.09-.04-.18-.05-.27-.1-.5-.22-.99-.33-1.48-.12-.49-.24-.97-.37-1.46-.25-.98-.51-1.95-.76-2.93-.25-.98-.5-1.96-.72-2.94-.12-.51-.22-1.02-.32-1.53-.09-.47-.18-.95-.24-1.42-.14-1.01-.23-2.02-.3-3.03-.07-1.01-.14-2.03-.08-3.04.02-.41.05-.81.1-1.21.05-.42.1-.85.18-1.27.07-.42.15-.84.25-1.26.04-.17.08-.35.13-.52.03-.09.05-.19.09-.29.04-.11.08-.23.12-.34.04-.11.09-.22.13-.33.02-.05.04-.09.06-.14.03-.07.06-.14.1-.2.07-.13.14-.26.22-.39.16-.26.36-.5.59-.69.17-.14.4-.26.63-.29.11-.01.22-.02.33,0,.15.01.29.08.42.15.12.07.23.17.33.27.06.06.11.12.16.18.08.09.16.19.23.28.15.2.29.41.41.63.12.22.23.44.34.66.22.45.42.92.61,1.38.18.45.36.91.52,1.37.17.49.32.99.47,1.48.07.25.14.5.2.75.06.22.11.45.16.67.12.52.22,1.05.31,1.57.16.97.29,1.96.31,2.94.03,1.02,0,2.05-.03,3.07-.03.97-.06,1.94-.08,2.91-.01.49-.01.99,0,1.48,0,.26.01.51.02.77,0,.22.03.44.04.66.06.63.12,1.25.22,1.88.1.66.22,1.31.35,1.97.1.45.2.91.31,1.36.11.44.23.89.35,1.33.24.87.51,1.74.81,2.59.37,1.06.76,2.12,1.13,3.19,0,0,0,0,0,0,.02.05.03.1.05.14,0,0,0,.01,0,.02,0,.02.01.03.02.05,0,0,0,0,0,0,0,0,0,0,0,.01.01.03.02.07.03.1.34.96.65,1.93.94,2.9.28.96.53,1.93.72,2.91.09.48.15.96.2,1.44.06.51.08,1.02.09,1.53Z"/>
        <path class="cls-8" d="M6.02,52.52c0,.35-.01.69-.04,1.03,0,.01,0,.03,0,.04-.02.32-.08.64-.13.95-.06.33-.14.65-.23.97-.17.64-.37,1.27-.56,1.9t0,0s0-.04,0-.06c-.01-.13-.03-.27-.04-.4-.04-.39-.07-.77-.11-1.16,0,0,0,0,0,0-.24-2.58-.45-5.16-.7-7.74-.05-.56-.1-1.13-.14-1.69,0,0,0,0,0,0-.02-.19-.03-.39-.05-.58-.01-.19-.03-.38-.04-.57-.04-.46-.07-.93-.11-1.39,0,0,0,0,0,0,0,0,0,0,0,0,.19.63.41,1.24.62,1.86.21.63.41,1.26.61,1.9.1.31.19.62.28.93.09.33.17.66.25,1,.07.33.14.66.2,1,.06.32.11.65.14.98.03.35.05.7.05,1.05Z"/>
        <path class="cls-8" d="M62.74,43.24h0c-.02.22-.04.43-.07.65-.01.11-.02.22-.03.32-.01.11-.02.22-.03.32-.01.13-.02.26-.03.39-.01.13-.02.26-.03.39-.02.32-.05.64-.07.96-.04.59-.08,1.19-.13,1.78-.09,1.15-.2,2.31-.32,3.46-.06.54-.11,1.08-.17,1.62-.06.58-.11,1.16-.15,1.74-.03.51-.06,1.01-.1,1.52-.04.5-.09,1-.14,1.5-.06.52-.13,1.04-.19,1.56-.06.52-.11,1.03-.16,1.55-.09.98-.15,1.96-.29,2.93-.12.8-.3,1.59-.51,2.37-.1.37-.21.73-.33,1.09-.15.43-.33.84-.53,1.25-.05.09-.09.18-.14.28-.01.02-.02.04-.03.06-.02.03-.03.05-.05.08-.01.02-.02.04-.04.06-.01.02-.03.05-.04.07-.02.04-.04.07-.07.11-.03.04-.06.09-.08.13,0,.01-.02.03-.03.04-.02.04-.05.07-.08.11,0,0-.01.01-.02.02h0c-.07,0-.15,0-.22,0-.4,0-.79-.06-1.18-.12-.4-.07-.79-.16-1.17-.29-.37-.13-.74-.29-1.08-.48-.16-.09-.31-.18-.46-.28-.17-.11-.33-.25-.48-.39-.16-.15-.31-.31-.43-.49-.11-.18-.2-.36-.29-.55-.08-.18-.14-.37-.2-.56-.12-.39-.2-.79-.26-1.2-.03-.2-.04-.4-.05-.6-.02-.22-.02-.43-.03-.65-.03-.82-.01-1.65.04-2.47.03-.41.06-.83.1-1.24.04-.4.07-.8.12-1.2.06-.44.12-.88.19-1.32.07-.41.14-.83.22-1.24.15-.82.26-1.63.34-2.46.03-.31.06-.61.08-.92,0,0,0,0,0,0,0,0,0,0,0,0,0,0,0-.01,0-.02,0,0,0-.01,0-.01,0,0,0,0,0,0,.05-.79.07-1.58.02-2.37,0,0,0,0,0,0,0,0,0-.02,0-.02,0-.02,0-.05,0-.07,0-.04,0-.08,0-.12,0-.04,0-.08,0-.12,0,0,0,0,0,0,0-.01,0-.02,0-.04,0,0,0,.01,0,.02,0,0,0-.02,0-.03,0,0,0-.01,0-.02-.15-1.66-.36-3.32-.59-4.97-.12-.85-.24-1.71-.28-2.57-.04-.84,0-1.69.06-2.53.03-.41.07-.81.12-1.22.05-.44.12-.87.19-1.31.14-.83.35-1.64.59-2.44.12-.41.25-.81.39-1.22.14-.4.27-.79.44-1.18.09-.2.18-.4.27-.6.09-.19.2-.37.3-.55.24-.39.53-.73.88-1.02.18-.15.39-.28.6-.39.24-.12.49-.19.75-.24.27-.05.55-.04.82,0,.26.05.52.16.74.31.31.22.55.51.74.82.22.36.42.74.61,1.13.18.38.33.78.47,1.18.13.37.24.75.34,1.13.11.41.22.83.31,1.25.04.2.09.41.12.61.04.23.08.47.12.7.13.8.19,1.62.26,2.42.07.86.14,1.72.24,2.58.04.33.08.65.13.98Z"/>
        <path class="cls-1" d="M13.39,70.32s0,0,0,0c0,0,0,0,0,0Z"/>
        <path class="cls-1" d="M5.85,63.96s0-.01,0-.02c0,.01,0,.03-.01.04,0,0,0-.01,0-.02Z"/>
        <path class="cls-1" d="M49.8,71.8s-.01,0-.02,0c0,0,.01,0,.02,0Z"/>
        <path class="cls-1" d="M49.9,71.78s-.01,0-.02,0c0,0,.01,0,.02,0Z"/>
        <path class="cls-1" d="M49.68,71.2s-.02,0-.02,0c0,0,.01,0,.02,0Z"/>
        <path class="cls-1" d="M50.98,71.02s-.02,0-.04,0c.01,0,.02,0,.04,0Z"/>
        <path class="cls-1" d="M19.84,69.08c.01-.23.02-.47,0-.7-.02-.51-.04-1.02-.09-1.53-.05-.48-.11-.97-.2-1.44-.19-.98-.44-1.95-.72-2.91-.29-.98-.6-1.94-.94-2.9-.01-.03-.02-.07-.03-.1,0,0,0,0,0-.01,0,0,0,0,0,0,0-.02-.01-.03-.02-.05,0,0,0-.01,0-.02-.02-.05-.03-.1-.05-.14,0,0,0,0,0,0-.37-1.06-.76-2.12-1.13-3.19-.29-.86-.57-1.72-.81-2.59-.12-.44-.24-.88-.35-1.33-.11-.45-.21-.9-.31-1.36-.13-.65-.25-1.31-.35-1.97-.1-.62-.17-1.25-.22-1.88-.01-.22-.03-.44-.04-.66,0-.26-.02-.51-.02-.77,0-.49,0-.99,0-1.48.02-.97.05-1.94.08-2.91.03-1.02.05-2.05.03-3.07-.03-.99-.15-1.97-.31-2.94-.09-.53-.19-1.05-.31-1.57-.05-.22-.1-.45-.16-.67-.07-.25-.13-.5-.2-.75-.15-.5-.3-.99-.47-1.48-.16-.46-.33-.92-.52-1.37-.19-.47-.39-.93-.61-1.38-.11-.22-.22-.45-.34-.66-.12-.22-.26-.43-.41-.63-.07-.1-.15-.19-.23-.28-.05-.06-.1-.12-.16-.18-.1-.1-.21-.2-.33-.27-.13-.07-.27-.13-.42-.15-.11-.01-.22-.01-.33,0-.23.03-.46.15-.63.29-.24.2-.43.43-.59.69-.08.13-.15.26-.22.39-.04.07-.06.14-.1.2-.02.04-.04.09-.06.14-.04.11-.09.22-.13.33-.04.11-.08.23-.12.34-.03.09-.06.19-.09.29-.05.17-.1.34-.13.52-.09.42-.17.84-.25,1.26-.07.42-.13.85-.18,1.27-.05.4-.08.81-.1,1.21-.05,1.01.01,2.03.08,3.04.07,1.01.16,2.02.3,3.03.06.48.15.95.24,1.42.1.51.2,1.02.32,1.53.23.98.47,1.96.72,2.94.25.98.51,1.95.76,2.93.12.49.25.97.37,1.46.12.49.23.99.33,1.48.02.09.04.18.05.27.09.48.18.96.25,1.44.07.5.14,1.01.2,1.52.11.99.17,1.98.24,2.98.07.99.13,1.98.25,2.97.12.99.3,1.97.5,2.94,0,0,0,.01,0,.02.07.35.15.7.24,1.05.12.47.26.93.39,1.4.14.46.28.92.43,1.37.31.94.65,1.87,1.09,2.75,0,0,0-.01,0-.02,0,.02.02.03.03.05,0,0,0,0,0,.01.16.33.34.64.53.96.18.3.36.6.55.9.23.35.48.7.75,1.02.2.23.4.46.64.66.04.04.09.07.13.1.02.01.04.02.05.04.02.01.03.02.05.03,0,0,.02.01.03.02,0,0,.01,0,.02.01.01,0,.03.01.04.02,0,0,.01,0,.02.01.01,0,.03.01.04.02.02.01.04.02.07.03.02.01.05.02.07.03.1.04.2.07.3.09.07.01.13.02.2.02.02,0,.05,0,.07,0,.03,0,.05,0,.07,0,.02.01.04.03.06.03.07.03.14.04.22.04.13,0,.25-.04.36-.1.24-.13.42-.33.58-.55.02-.02.03-.05.05-.07.02-.02.03-.05.05-.08.02-.02.03-.05.05-.08.02-.03.03-.05.05-.08.01-.03.03-.05.04-.08.01-.03.03-.05.04-.08.01-.02.02-.04.03-.06,0,0,0-.01,0-.02,0-.02.02-.04.03-.06,0-.01,0-.02.01-.03,0-.02.02-.05.03-.07,0-.02.02-.04.02-.06,0,0,0,0,0-.01.06-.17.12-.34.17-.52.14-.48.23-.97.29-1.46.03-.26.05-.51.06-.77ZM21.33,61.4c.25-.26.3-.62.26-.96-.02-.16-.06-.31-.1-.47-.04-.15-.08-.3-.12-.46-.08-.31-.19-.62-.31-.92-.12-.3-.26-.61-.44-.88-.08-.12-.16-.24-.26-.34-.16-.17-.35-.32-.57-.4-.03-.14-.15-.26-.3-.25-.29,0-.57.15-.74.39-.21.28-.29.66-.28,1,0,.31.1.6.21.89.11.29.25.56.38.84.14.28.29.55.46.81.09.14.2.28.31.41.16.19.36.38.6.47.12.05.25.08.38.08.04,0,.08,0,.13,0,.14-.02.29-.09.39-.2ZM34.33,37.3s.01-.02.02-.03c-.06.18-.11.36-.17.54-.15.51-.3,1.02-.44,1.53-.27,1-.52,2-.73,3.01-.21,1.01-.39,2.03-.51,3.06-.13,1.03-.24,2.06-.31,3.1,0,0,0,0,0,.01-.04.55-.07,1.1-.09,1.65-.05,1.02,0,2.05.08,3.07.04.49.09.97.14,1.46.06.51.11,1.03.15,1.54.01.24.03.48.03.72,0,.26,0,.52-.02.78,0,.09-.01.17-.03.26-.01.08-.03.16-.04.24-.03.14-.07.28-.12.42,0,0,0,0,0,0-.04.09-.07.18-.12.28-.05.1-.1.19-.16.28-.05.07-.11.14-.16.21-.05.06-.11.11-.16.16-.04.04-.09.07-.13.1-.05.03-.09.06-.14.08-.05.02-.1.04-.15.06-.04.01-.08.02-.11.03-.04,0-.07.01-.11.02-.06,0-.12,0-.18,0-.04,0-.08-.01-.12-.02-.06-.01-.12-.03-.18-.05-.06-.02-.11-.05-.17-.07-.08-.04-.15-.08-.22-.13-.07-.05-.14-.11-.21-.17-.07-.07-.14-.14-.21-.21-.1-.11-.19-.23-.27-.36-.08-.12-.15-.24-.21-.36-.04-.09-.09-.18-.13-.27-.04-.07-.06-.15-.09-.22-.07-.17-.13-.34-.19-.51-.07-.22-.13-.45-.19-.68-.06-.22-.1-.44-.15-.66-.07-.38-.14-.76-.19-1.15-.05-.38-.08-.76-.11-1.15-.02-.46-.04-.92-.03-1.38.01-.46.03-.93.06-1.39.02-.28.04-.55.07-.83.17-2.01.52-4,.71-6.01.09-.98.11-1.97.08-2.95,0-.03,0-.06,0-.08,0-.06,0-.11,0-.17,0,0,0-.01,0-.02,0-.06,0-.12,0-.19,0-.02,0-.03,0-.05,0-.03,0-.05,0-.08,0-.03,0-.07,0-.1,0-.05,0-.1,0-.15,0,0,0,0,0,0,0-.03,0-.05,0-.08,0,0,0,0,0,0,0-.03,0-.05,0-.08,0-.03,0-.06,0-.08,0-.05,0-.09-.01-.13,0-.01,0-.03,0-.04,0-.01,0-.02,0-.04,0-.03,0-.05,0-.08,0-.03,0-.05,0-.08,0-.01,0-.03,0-.04,0-.02,0-.04,0-.06,0-.01,0-.02,0-.04,0-.05-.01-.1-.02-.15,0-.01,0-.03,0-.04,0,0,0-.01,0-.02,0-.01,0-.03,0-.04,0-.01,0-.03,0-.04,0-.01,0-.03,0-.04,0-.02,0-.05-.01-.07,0-.02-.01-.05-.02-.07,0-.02,0-.03-.01-.05,0,0,0,0,0,0,0-.02,0-.04-.01-.05,0-.03-.01-.05-.02-.08,0-.03-.01-.05-.02-.08,0-.02-.01-.04-.02-.06,0-.02,0-.03-.01-.05,0-.01,0-.02,0-.03,0,0,0-.02,0-.03,0-.02-.01-.05-.02-.07,0-.02-.01-.04-.02-.07,0,0,0-.02,0-.02,0,0,0,0,0,0-.07-.2-.15-.39-.25-.58-.07-.13-.15-.26-.26-.37-.09-.1-.2-.17-.32-.22-.04-.02-.08-.03-.11-.04-.05-.06-.13-.11-.19-.13-.11-.05-.24-.05-.36-.04-.1,0-.2.01-.3.03-.19.04-.38.09-.56.17-.19.08-.38.18-.56.29-.19.11-.39.23-.57.36-.03.01-.06.03-.09.04-.1.05-.2.1-.3.16-.21.13-.41.25-.6.4-.11.08-.22.17-.33.26-.1.08-.18.17-.27.26-.05.04-.09.09-.13.14-.04.05-.09.1-.13.15-.07.09-.15.17-.21.26-.15.21-.3.42-.44.64-.14.23-.27.46-.4.7-.11.22-.22.45-.32.68-.19.47-.35.95-.47,1.44-.11.49-.2.98-.23,1.48-.02.26-.04.51-.04.77,0,.25,0,.51,0,.76.01.27.03.54.06.8.02.25.06.51.1.76.07.48.17.97.28,1.44.12.52.26,1.04.39,1.56.13.47.26.94.37,1.41.12.49.24.98.34,1.47.16.78.29,1.57.39,2.36.09.76.16,1.52.22,2.28.07,1.21.1,2.42.02,3.63,0,0,0,0,0,0,0,0,0,.02,0,.03,0,0,0,0,0,0,0,0,0,0,0,.01,0,0,0,0,0,0,0,.05,0,.09,0,.14,0,0,0,0,0,0,0,.01,0,.02,0,.03,0,0,0,0,0,0-.06.82-.18,1.63-.27,2.45-.05.44-.09.87-.11,1.31-.03.43-.03.86-.03,1.29,0,.5.01.99.05,1.48.02.24.05.48.09.72.02.13.04.26.07.39.03.12.05.24.09.36.04.13.08.26.14.38.06.12.11.23.18.34.06.1.13.2.2.3.07.09.14.19.21.27.17.2.35.39.54.57.19.18.39.34.59.5.4.31.81.6,1.23.89.41.28.83.55,1.27.79.08.04.16.09.25.13.09.04.17.09.26.13.02,0,.04.02.06.03.04.02.08.04.11.05.04.02.08.04.13.06.05.02.09.04.14.06.05.02.09.04.14.06.05.02.09.04.14.06,0,0,0,0,0,0,.05.02.09.04.14.05.21.08.44.14.66.18.26.05.51.09.78.11.03,0,.07,0,.1,0,.04,0,.07,0,.11,0-.17,0-.33.01-.5.01-.14,0-.28,0-.42,0-.69-.02-1.39-.1-2.07-.23-.68-.13-1.35-.35-1.98-.64-.13-.06-.26-.12-.39-.19.01,0,.02.01.04.02-.03-.01-.06-.03-.09-.04-.5-.25-.99-.53-1.47-.83-.46-.29-.9-.61-1.38-.86-.2-.1-.4-.18-.6-.26-.17-.06-.34-.11-.52-.15-.1-.02-.19-.03-.29-.04-.11,0-.23,0-.34,0-.07,0-.13.02-.2.03-.07.02-.13.03-.2.05-.1.04-.2.08-.29.12-.14.08-.28.17-.41.26-.22.15-.45.31-.67.46,0,0,0,0,0,0-.27.18-.55.38-.85.52-.16.08-.33.13-.51.16-.15.03-.31.03-.47.02-.34-.01-.67-.1-1-.19-.34-.1-.66-.23-.96-.4-.31-.18-.6-.42-.86-.66-.24-.22-.47-.46-.68-.7-.22-.25-.42-.52-.61-.79-.2-.28-.38-.57-.55-.87-.17-.3-.33-.6-.5-.91-.16-.29-.32-.58-.48-.86-.34-.61-.67-1.22-.96-1.85-.2-.44-.38-.9-.56-1.35-.17-.43-.34-.86-.55-1.27-.09-.17-.19-.34-.29-.5-.1-.15-.21-.28-.33-.42-.08-.09-.17-.18-.26-.26-.06-.05-.12-.09-.18-.14-.06-.03-.11-.07-.17-.1-.06-.03-.12-.05-.17-.07-.06-.02-.12-.03-.18-.05-.06-.01-.13-.02-.19-.03-.06,0-.12,0-.19,0-.04,0-.09,0-.13.02-.04.01-.09.02-.13.04-.05.02-.1.04-.16.07-.06.03-.12.07-.17.11-.03.02-.06.05-.09.07-.05.05-.11.1-.16.15-.08.09-.15.19-.22.28-.07.12-.14.24-.21.37-.1.21-.18.42-.26.64,0,0,0,0,0,.01,0,0,0,.01,0,.02,0,.02-.01.04-.02.06,0,.02-.01.03-.02.05,0,0,0,.01,0,.02-.02.05-.03.1-.05.15-.02-.11-.03-.21-.05-.32-.02-.11-.03-.21-.04-.32-.02-.16-.04-.32-.06-.48,0-.05-.01-.11-.02-.16-.07-.64-.12-1.28-.17-1.91-.03-.27-.06-.54-.09-.81-.01-.11-.02-.22-.04-.33,0-.07-.01-.13-.02-.2-.02-.15-.03-.3-.05-.45-.02-.16-.03-.33-.05-.49-.01-.11-.02-.23-.03-.34-.03-.32-.06-.64-.1-.96.2-.63.39-1.26.56-1.9.09-.32.17-.65.23-.97.06-.31.11-.63.13-.95,0-.01,0-.03,0-.04.02-.34.04-.69.04-1.03,0-.35-.03-.7-.05-1.05-.03-.33-.08-.66-.14-.98-.06-.33-.12-.67-.2-1-.08-.33-.16-.67-.25-1-.09-.31-.18-.62-.28-.93-.2-.63-.4-1.27-.61-1.9-.21-.62-.44-1.23-.62-1.86,0,0,0,0,0,0-.09-1.14-.17-2.28-.26-3.42.15.34.28.69.4,1.05.07.2.14.4.21.6,0,.02.01.04.02.06,0,0,0,.01,0,.02,0,.01,0,.03.01.04,0,0,0,0,0,.01,0,.03.02.05.03.08.09.26.19.52.29.78.14.37.3.73.46,1.09.08.17.16.34.24.51.13.25.29.51.55.64.09.05.2.08.3.07.09,0,.19-.03.27-.09.07-.05.13-.11.17-.19.04-.08.08-.16.1-.24.06-.25.07-.51.07-.76,0-.38-.01-.77-.04-1.16-.03-.38-.07-.76-.13-1.13-.06-.4-.13-.8-.19-1.21-.13-.79-.24-1.58-.35-2.37-.1-.76-.22-1.51-.32-2.27-.1-.79-.19-1.57-.25-2.36-.03-.44-.04-.87-.05-1.31,0-.4.02-.81.04-1.21.02-.27.05-.55.09-.82.03-.25.08-.51.13-.76.06-.26.13-.52.2-.78.07-.24.15-.48.23-.72.14-.39.29-.77.47-1.15.1-.19.21-.38.33-.56.09-.13.19-.25.29-.37.11-.12.22-.23.34-.34.12-.1.24-.2.37-.29.17-.11.33-.21.51-.3.18-.08.35-.16.54-.23.14-.04.29-.08.43-.12.16-.03.32-.05.48-.06.16,0,.32,0,.47,0,.17.01.34.03.51.06.09.02.19.04.28.07.1.03.19.06.29.09.14.05.28.1.42.16.14.06.27.13.41.19.15.08.3.16.44.25.14.09.28.18.42.27.23.16.46.33.68.51.07.06.13.12.2.18.12.11.24.23.35.34.11.11.22.23.32.35.11.13.22.27.33.41.1.13.2.26.29.4.16.23.31.47.45.71.14.24.27.48.4.73.12.25.24.5.35.76.11.26.2.52.3.78.07.2.13.4.19.61.05.2.1.4.15.6.05.25.1.5.13.75.04.25.06.49.08.74.02.33.04.66.03.99,0,.35-.02.7-.04,1.04-.03.35-.06.71-.09,1.06-.03.34-.07.67-.11,1.01-.08.67-.16,1.33-.24,2-.09.82-.18,1.63-.25,2.45-.07.78-.12,1.57-.16,2.36-.02.41-.04.82-.06,1.22-.02.37-.03.74-.02,1.12.01.41.04.82.09,1.23.04.37.1.74.17,1.11.04.2.08.4.13.6.1.38.21.76.33,1.13.12.37.26.74.4,1.11.06.17.13.35.2.52.12.29.26.57.52.77.11.09.25.14.4.14.04,0,.08,0,.12-.01.17-.03.33-.14.44-.28.14-.18.24-.39.31-.61.02-.08.05-.16.07-.24.04-.2.08-.4.11-.61.02-.2.04-.4.05-.6.02-.39.02-.78,0-1.17-.03-.8-.07-1.6-.1-2.4-.02-.4-.03-.8-.05-1.21-.02-.38-.03-.76-.04-1.14,0-.4-.02-.79-.01-1.19,0-.4.02-.79.04-1.19,0-.11.01-.22.02-.33,0,0,0-.01,0-.02,0,0,0,0,0,0,.02-.26.04-.53.08-.79.03-.28.08-.56.13-.84.05-.26.11-.52.19-.77.07-.25.15-.51.24-.76.08-.22.16-.44.25-.66.09-.22.19-.43.29-.64.06-.12.12-.23.19-.35.07-.12.14-.23.22-.35.13-.19.26-.38.41-.56.14-.18.28-.35.43-.52.13-.14.26-.29.39-.43.13-.13.26-.25.39-.37.17-.14.34-.27.52-.4,0,0,0,0,0,0,0,0,.01,0,.02-.01,0,0,0,0,0,0,.01,0,.03-.02.04-.03.03-.02.06-.04.08-.06,0,0,0,0,0,0,.24-.17.5-.31.77-.44.26-.13.53-.24.81-.34.14-.04.27-.09.41-.13.15-.04.29-.07.44-.1.24-.04.48-.07.72-.1.15,0,.3-.01.45-.02.15,0,.31,0,.46.01.15.01.3.02.44.05.15.02.29.05.44.07.15.03.31.07.46.11.15.04.29.09.43.13.15.06.29.12.44.18.08.04.15.08.23.13.07.05.14.1.2.15.06.06.12.11.18.17.06.07.11.15.16.22.05.09.1.17.14.26.04.09.08.19.12.28.07.2.12.41.17.62.08.41.14.83.23,1.24.05.21.1.42.18.62.08.2.17.39.3.56.12.15.26.29.41.4.11.07.22.15.35.17.1.01.2.02.29-.01.08-.03.16-.06.24-.1.16-.09.31-.21.46-.33.13-.11.25-.22.36-.35.12-.14.22-.3.32-.46.1-.16.19-.33.28-.49Z"/>
        <path class="cls-1" d="M64,28.22c0,.06,0,.12-.01.18,0,0,0,.02,0,.03,0,0,0,.02,0,.03,0,.01,0,.02,0,.04h0c0,.15-.02.29-.03.43-.02.29-.04.59-.07.88-.1,1.16-.23,2.31-.35,3.46-.06.58-.12,1.17-.19,1.75-.06.6-.12,1.19-.16,1.79-.09,1.4-.13,2.8-.24,4.2-.05.6-.1,1.2-.16,1.79-.01.15-.03.29-.04.44-.05-.32-.1-.65-.13-.98-.1-.86-.17-1.72-.24-2.58-.06-.81-.13-1.62-.26-2.42-.04-.24-.08-.47-.12-.7-.04-.2-.08-.41-.12-.61-.09-.42-.2-.83-.31-1.25-.1-.38-.21-.76-.34-1.13-.14-.4-.28-.8-.47-1.18-.19-.38-.38-.76-.61-1.13-.2-.32-.43-.61-.74-.82-.22-.15-.48-.26-.74-.31-.27-.05-.55-.06-.82,0-.26.05-.51.13-.75.24-.21.1-.42.24-.6.39-.35.29-.64.63-.88,1.02-.11.18-.21.36-.3.55-.09.2-.19.4-.27.6-.16.39-.3.78-.44,1.18-.14.4-.27.81-.39,1.22-.24.8-.46,1.61-.59,2.44-.07.43-.13.87-.19,1.31-.05.41-.09.81-.12,1.22-.07.84-.1,1.69-.06,2.53.04.86.16,1.72.28,2.57.23,1.65.44,3.31.59,4.97,0,0,0,.01,0,.02,0,0,0,.02,0,.03,0,0,0-.01,0-.02,0,.01,0,.02,0,.04,0,0,0,0,0,0,0,.04,0,.08,0,.12,0,.04,0,.08,0,.12,0,.02,0,.05,0,.07,0,0,0,.02,0,.02,0,0,0,0,0,0,.05.79.03,1.58-.02,2.37,0,0,0,0,0,0,0,0,0,.01,0,.01,0,0,0,.01,0,.02,0,0,0,0,0,0,0,0,0,0,0,0-.02.31-.05.61-.08.92-.08.82-.19,1.64-.34,2.46-.07.41-.15.82-.22,1.24-.07.44-.13.88-.19,1.32-.05.4-.08.8-.12,1.2-.04.41-.07.83-.1,1.24-.06.82-.07,1.64-.04,2.47,0,.22.02.43.03.65.01.2.03.4.05.6.06.41.13.81.26,1.2.06.19.12.38.2.56.08.19.17.37.29.55.12.18.27.34.43.49.15.14.31.27.48.39.15.1.3.19.46.28.35.19.71.35,1.08.48.38.13.77.22,1.17.29.39.07.78.12,1.18.12.07,0,.15,0,.22,0-.01.01-.02.03-.03.04-.09.11-.19.22-.28.33-.18.21-.36.41-.54.62-.01.16-.11.29-.22.4-.06.06-.13.12-.19.18h0s-.09.08-.14.12c-.03.02-.06.05-.09.07-.03.02-.06.05-.09.07-.03.02-.06.04-.09.07,0,0,0,0,0,0-.03.02-.06.04-.09.07-.13.09-.26.18-.39.26-.32,0-.64-.03-.96-.05-.4-.03-.81-.06-1.21-.09-.57-.04-1.14-.06-1.7-.08-.57-.02-1.15-.01-1.72.02-.04,0-.08,0-.12,0-.37.03-.73.07-1.1.14.01,0,.03,0,.04,0-.02,0-.05,0-.07.01-.03,0-.06.01-.09.02-.3.06-.6.15-.89.25-.62.22-1.21.52-1.8.81-.6.29-1.19.59-1.81.84-.27.1-.54.2-.81.28-.28.09-.56.14-.85.19-.28.04-.56.07-.85.07-.03,0-.05,0-.08,0-.17,0-.33,0-.5-.02.03,0,.06-.02.09-.02.03,0,.06-.02.09-.03.26-.07.52-.15.77-.24.24-.08.47-.19.7-.29.12-.05.24-.11.35-.17.08-.04.17-.09.25-.13.02-.01.04-.02.06-.04.11-.06.22-.12.32-.19.1-.07.21-.14.32-.21.12-.08.24-.18.35-.26.1-.08.2-.17.3-.25.1-.08.19-.17.28-.26.08-.07.15-.15.22-.23.09-.1.18-.19.27-.29.1-.12.19-.23.29-.35.08-.1.15-.2.23-.3.06-.08.12-.17.18-.25,0,.01-.01.02-.02.03.07-.1.14-.21.21-.31.02-.02.03-.05.05-.07,0,0,0-.01.01-.02,0,0,0-.01.01-.02,0,0,0,0,0,0,.01-.02.03-.04.04-.06.03-.04.05-.08.08-.12.01-.02.03-.05.04-.07.05-.08.1-.15.14-.23.1-.18.21-.36.31-.55.1-.19.2-.39.3-.59.1-.2.19-.4.28-.6.09-.2.17-.41.25-.62.07-.19.13-.38.19-.57.03-.09.05-.19.08-.28.02-.08.05-.16.07-.25.05-.2.1-.39.14-.59.11-.51.2-1.01.27-1.53.07-.51.12-1.02.16-1.54.04-.51.08-1.02.1-1.52.02-.51.03-1.02.02-1.53,0-1.02-.03-2.05-.03-3.07,0-1.04,0-2.08-.07-3.11-.06-1.02-.12-2.03-.24-3.05-.07-.51-.14-1.02-.24-1.52-.05-.25-.11-.51-.16-.76-.06-.27-.13-.54-.2-.81-.24-.96-.52-1.92-.78-2.88-.14-.51-.28-1.02-.4-1.53-.06-.26-.13-.53-.19-.79-.05-.24-.11-.49-.16-.73-.09-.45-.17-.91-.25-1.37-.08-.45-.15-.9-.22-1.35-.15-.99-.28-1.98-.36-2.98-.09-1.02-.15-2.05-.29-3.06-.03-.25-.08-.49-.13-.74-.02-.12-.05-.24-.08-.36-.03-.11-.05-.21-.08-.32-.08-.25-.15-.49-.25-.74-.1-.25-.2-.49-.31-.72-.21-.46-.46-.9-.73-1.32-.21-.33-.47-.64-.78-.89.01,0,.02,0,.03,0,.17.04.34.08.5.14.16.06.31.13.47.2-.01,0-.02-.01-.04-.02.11.06.23.11.34.18.1.06.21.13.31.19.15.11.3.23.44.35.1.09.19.19.29.28.12.14.24.28.35.44.05.08.11.16.16.25.05.08.1.17.14.26.06.12.12.24.17.37.05.13.1.27.15.4.1.29.19.58.26.88.08.3.15.61.21.91,0,.04.02.08.02.11,0,.03.01.06.02.09.11.55.2,1.1.31,1.65.11.56.24,1.11.37,1.66.15.65.31,1.31.48,1.95.17.64.34,1.28.48,1.93.07.36.14.72.21,1.08,0,.03.01.06.02.08,0,.01,0,.03,0,.04.07.36.15.72.23,1.08.04.17.08.35.13.52.05.21.11.43.25.6.1.13.25.2.41.2.03,0,.07,0,.1-.01.15-.03.27-.12.37-.24.13-.15.24-.34.31-.53.12-.31.21-.63.27-.96.1-.66.08-1.33.03-1.99h0s0-.02,0-.02c0-.02,0-.04,0-.06,0,0,0-.02,0-.03h0s0-.01,0-.02h0s0-.03,0-.04c0,0,0,0,0-.01,0,0,0,0,0,0,0,0,0,0,0,0h0c0-.08-.01-.16-.02-.24,0-.07-.01-.15-.01-.22,0,0,0-.01,0-.02,0,0,0-.01,0-.02,0-.07,0-.15-.01-.22,0-.1-.01-.2-.02-.3,0,0,0,.02,0,.02-.05-.79-.07-1.59-.03-2.39.02-.29.05-.58.09-.86.04-.3.09-.61.15-.91,0,.01,0,.03,0,.04.02-.11.04-.21.06-.32.09-.45.22-.89.36-1.33.06-.16.12-.33.19-.49.07-.17.15-.33.23-.5.04-.08.08-.16.12-.24.25-.49.54-.96.84-1.43.21-.31.43-.6.67-.89.17-.18.34-.36.52-.52.21-.18.43-.36.66-.52.13-.08.26-.16.4-.23.19-.09.39-.18.59-.25.1-.03.21-.06.32-.09.1-.02.19-.03.29-.04.13,0,.26,0,.39,0,.17.02.34.04.51.07.44.09.86.23,1.29.37.26.09.52.19.78.28.28.1.55.2.84.26.29.06.6.09.9.08.18,0,.35-.02.53-.03.07,0,.14-.02.21-.03.07-.01.15-.02.22-.04-.01,0-.03,0-.04,0,.22-.04.44-.09.65-.14.18-.05.35-.1.52-.15Z"/>
        <path class="cls-10" d="M18.91,42.69s0,0,0,.01c0,0,0,0,0-.01Z"/>
        <path class="cls-10" d="M19.55,42.36s0,0,0,0c0,0,0,.02,0,.03,0,0,0-.01,0-.02Z"/>
        <path class="cls-10" d="M4.23,42.07s0,0,0,.01c0,0,0,0,0-.01Z"/>
        <path class="cls-10" d="M4.22,42.05s0,.01,0,.02c0,0,0-.01,0-.02Z"/>
        <path class="cls-10" d="M51.84,39.69s0-.01,0-.02c0,0,0,.02,0,.02,0,0,0,0,0,0Z"/>
        <path class="cls-10" d="M51.22,39.66s0,0,0,.01c0,0,0,0,0-.01Z"/>
        <path class="cls-10" d="M51.84,39.58s0,0,0-.01c0,0,0,.02,0,.03,0,0,0-.01,0-.02Z"/>
        <path class="cls-10" d="M51.83,39.51s0,.02,0,.03c0,0,0-.02,0-.03Z"/>
        <path class="cls-10" d="M51.8,39.01s0,0,0-.01c0,0,0,.02,0,.02,0,0,0,0,0-.01Z"/>
        <path class="cls-10" d="M51.14,38.5h0s0,0,0,0c0,0,0,0,0,0Z"/>
        <path class="cls-10" d="M51.37,34.21s0,.02,0,.03c0-.01,0-.02,0-.03Z"/>
        <path class="cls-10" d="M47.87,32.62s0,.01,0,.02c0,0,0-.01,0-.02Z"/>
        <path class="cls-10" d="M48.46,32.42s0,.02,0,.03c0-.01,0-.02,0-.03Z"/>
        <path class="cls-10" d="M20.63,57.72s.01.02.02.03c0,0-.01-.02-.02-.03Z"/>
        <path class="cls-10" d="M3.83,39.67s0,0,0-.01c0,0,0,.02,0,.03,0,0,0-.01,0-.02Z"/>
        <path class="cls-10" d="M3.83,39.65s0,0,0,0c0,0,0,0,0,0Z"/>
        <path class="cls-2" d="M64.4,14.9c0,.05,0,.11,0,.16,0,.73-.02,1.46-.03,2.19-.02,1.19-.05,2.38-.08,3.57-.02.63-.03,1.26-.05,1.89-.01.59-.02,1.18-.04,1.77-.03,1.03-.09,2.05-.16,3.08h0c0,.12-.02.24-.02.37,0,.1-.01.2-.02.3h0c-.17.05-.35.1-.52.15-.22.06-.43.1-.65.14.01,0,.03,0,.04,0-.07.01-.15.02-.22.04-.07.01-.14.02-.21.03-.18.02-.35.03-.53.03-.3,0-.61-.02-.9-.08-.29-.06-.57-.16-.84-.26-.26-.09-.52-.19-.78-.28-.42-.15-.85-.28-1.29-.37-.17-.03-.34-.05-.51-.07-.13,0-.26,0-.39,0-.1.01-.19.02-.29.04-.11.03-.21.06-.32.09-.2.07-.4.16-.59.25-.14.07-.27.15-.4.23-.23.16-.45.33-.66.52-.18.17-.35.34-.52.52-.24.28-.46.58-.67.89-.3.46-.59.93-.84,1.43-.04.08-.08.16-.12.24-.08.17-.15.33-.23.5-.07.16-.13.33-.19.49-.14.44-.27.88-.36,1.33-.02.11-.04.21-.06.32,0-.01,0-.03,0-.04-.06.3-.11.6-.15.91-.04.29-.07.58-.09.86-.04.8-.02,1.59.03,2.39,0,0,0-.02,0-.02,0,.1.01.2.02.3,0,.07.01.15.01.22,0,0,0,.01,0,.02,0,0,0,.01,0,.02,0,.07.01.15.01.22,0,.08.01.17.02.25h0s0,0,0,0c0,0,0,0,0,0,0,0,0,0,0,.01h0s0,.03,0,.05h0s0,0,0,.01h0s0,.02,0,.03c0,.02,0,.04,0,.06,0,0,0,.01,0,.02h0c.04.67.07,1.33-.03,1.99-.05.33-.14.65-.27.96-.07.19-.18.38-.31.53-.1.11-.22.21-.37.24-.03,0-.07.01-.1.01-.16,0-.31-.07-.41-.2-.14-.17-.19-.39-.25-.6-.04-.17-.09-.35-.13-.52-.08-.36-.16-.72-.23-1.08,0-.01,0-.02,0-.04,0-.03-.01-.05-.02-.08-.07-.36-.14-.72-.21-1.08-.14-.65-.31-1.29-.48-1.93-.17-.65-.33-1.3-.48-1.95-.13-.55-.26-1.1-.37-1.66-.11-.55-.19-1.1-.31-1.65,0-.03-.01-.06-.02-.09,0-.04-.02-.08-.02-.11-.07-.31-.14-.61-.21-.91-.07-.3-.16-.59-.26-.88-.05-.13-.1-.27-.15-.4-.05-.12-.11-.24-.17-.37-.05-.09-.09-.17-.14-.26-.05-.08-.1-.17-.16-.25-.11-.15-.23-.29-.35-.44-.09-.1-.19-.19-.29-.28-.14-.12-.29-.24-.44-.35-.1-.07-.2-.13-.31-.19-.11-.06-.22-.12-.34-.18.01,0,.02.01.04.02-.15-.07-.31-.14-.47-.2-.17-.06-.33-.1-.5-.14-.01,0-.02,0-.03,0,0,0,0,0,0,0-.01-.01-.02-.02-.04-.03-.03-.03-.07-.05-.1-.08-.02-.01-.04-.03-.06-.04-.01,0-.02-.02-.03-.02,0,0,0,0-.01,0-.01,0-.02-.02-.04-.02,0,0-.02-.01-.03-.02-.01,0-.02-.01-.03-.02,0,0-.02-.01-.03-.02,0,0-.02,0-.02-.01-.02,0-.03-.02-.05-.03,0,0-.01,0-.02-.01,0,0,0,0-.01,0-.01,0-.03-.02-.04-.02,0,0-.02,0-.03-.01,0,0-.02,0-.03-.01-.01,0-.03-.01-.04-.02-.02-.01-.04-.02-.06-.03-.02,0-.04-.02-.06-.03,0,0,0,0,0,0-.02,0-.03-.01-.05-.02-.03-.01-.06-.03-.1-.04-.02,0-.04-.02-.06-.02-.02,0-.05-.02-.07-.02,0,0,0,0,0,0,0,0,0,0-.01,0-.02,0-.04-.01-.06-.02-.32-.09-.66-.12-.99-.09-.29.03-.58.08-.86.18-.23.08-.47.17-.69.28-.23.12-.46.24-.67.39-.11.07-.22.15-.32.23-.11.09-.22.17-.33.27-.1.1-.21.19-.31.29-.09.09-.18.19-.26.28-.08.09-.16.18-.24.27-.07.08-.14.16-.2.25-.09.11-.18.23-.26.34-.08.12-.17.25-.25.37-.06.09-.12.19-.19.29-.06.09-.12.19-.18.29-.12.22-.25.44-.37.67-.12.24-.25.47-.37.71-.24.49-.48.98-.71,1.48-.08.18-.16.36-.24.54,0,0,0,.01,0,.02-.03.06-.05.12-.08.18-.04.09-.08.19-.12.28-.01.03-.03.07-.04.1-.02.04-.04.09-.05.13,0,0,0,.01,0,.02-.03.08-.06.15-.09.23-.06.14-.11.28-.16.42-.03.08-.06.16-.09.23-.05.13-.1.27-.14.4-.04.11-.08.22-.12.33-.08.24-.17.48-.24.72-.02.06-.04.11-.05.17,0,0-.01.02-.02.03-.09.17-.19.33-.28.49-.1.16-.2.32-.32.46-.11.13-.23.24-.36.35-.14.12-.29.24-.46.33-.08.04-.16.07-.24.1-.09.03-.2.03-.29.01-.13-.02-.25-.09-.35-.17-.16-.11-.29-.25-.41-.4-.13-.16-.23-.36-.3-.56-.08-.2-.13-.41-.18-.62-.09-.41-.15-.83-.23-1.24-.05-.21-.1-.41-.17-.62-.04-.1-.08-.19-.12-.28-.05-.09-.09-.17-.14-.26-.05-.08-.1-.15-.16-.22-.06-.06-.12-.12-.18-.17-.07-.05-.13-.1-.2-.15-.08-.05-.15-.09-.23-.13-.15-.07-.29-.13-.44-.18-.14-.05-.29-.09-.43-.13-.15-.04-.3-.08-.46-.11-.15-.03-.29-.05-.44-.07-.15-.02-.3-.03-.44-.05-.15,0-.31-.02-.46-.01-.15,0-.3,0-.45.02-.24.02-.48.06-.72.1-.15.03-.29.06-.44.1-.14.04-.28.08-.41.13-.27.1-.54.21-.81.34-.26.14-.52.28-.77.44,0,0,0,0,0,0-.03.02-.06.04-.08.06-.01,0-.03.02-.04.03,0,0,0,0,0,0,0,0-.01,0-.02.01,0,0,0,0,0,0-.18.13-.35.26-.52.4-.13.12-.26.24-.39.37-.14.14-.27.28-.39.43-.15.17-.29.34-.43.52-.14.18-.28.37-.41.56-.07.12-.15.23-.22.35-.07.11-.13.23-.19.35-.1.21-.2.42-.29.64-.09.22-.17.44-.25.66-.09.25-.17.5-.24.76-.07.25-.13.51-.19.77-.05.28-.09.56-.13.84-.03.26-.06.53-.08.79,0,0,0,0,0,0,0,0,0,.01,0,.02,0,.11-.01.22-.02.33-.02.39-.04.79-.04,1.19,0,.4,0,.79.01,1.19,0,.38.02.76.04,1.14.02.4.03.8.05,1.21.03.8.07,1.6.1,2.4.01.39.01.78,0,1.17,0,.2-.03.4-.05.6-.02.21-.06.41-.11.61-.02.08-.04.16-.07.24-.06.22-.16.43-.31.61-.11.14-.27.24-.44.28-.04,0-.08.01-.12.01-.14,0-.28-.05-.4-.14-.25-.2-.39-.48-.52-.77-.07-.17-.14-.34-.2-.52-.14-.37-.27-.74-.4-1.11-.12-.37-.23-.75-.33-1.13-.05-.2-.09-.4-.13-.6-.08-.37-.13-.74-.17-1.11-.04-.41-.08-.82-.09-1.23-.01-.37,0-.74.02-1.12.02-.41.04-.82.06-1.22.04-.79.09-1.57.16-2.36.07-.82.16-1.63.25-2.45.07-.67.16-1.33.24-2,.04-.34.08-.67.11-1.01.03-.35.06-.71.09-1.06.02-.35.03-.7.04-1.04,0-.33,0-.66-.03-.99-.02-.25-.05-.49-.08-.74-.04-.25-.08-.5-.13-.75-.05-.2-.1-.4-.15-.6-.05-.21-.12-.41-.19-.61-.09-.26-.19-.52-.3-.78-.11-.26-.23-.51-.35-.76-.13-.25-.26-.49-.4-.73-.14-.24-.3-.48-.45-.71-.1-.13-.19-.27-.29-.4-.11-.14-.22-.27-.33-.41-.11-.12-.21-.24-.32-.35-.11-.12-.23-.23-.35-.34-.07-.06-.13-.12-.2-.18-.21-.19-.45-.35-.68-.51-.14-.09-.28-.18-.42-.27-.14-.09-.29-.17-.44-.25-.13-.07-.27-.13-.41-.19-.14-.06-.28-.11-.42-.16-.1-.03-.19-.06-.29-.09-.09-.03-.19-.05-.28-.07-.17-.03-.34-.05-.51-.06-.16,0-.32,0-.47,0-.16.01-.32.04-.48.06-.15.03-.29.07-.43.12-.18.07-.36.14-.54.23-.18.09-.34.19-.51.3-.13.09-.25.19-.37.29-.12.11-.23.22-.34.34-.1.12-.2.24-.29.37-.12.18-.23.37-.33.56-.18.37-.33.76-.47,1.15-.08.24-.16.48-.23.72-.07.26-.14.52-.2.78-.05.25-.1.5-.13.76-.04.27-.06.55-.09.82-.03.4-.05.81-.04,1.21,0,.44.02.87.05,1.31.06.79.14,1.58.25,2.36.1.76.21,1.51.32,2.27.11.79.22,1.58.35,2.37.07.4.13.8.19,1.21.06.38.1.75.13,1.13.03.38.05.77.04,1.16,0,.26-.01.51-.07.76-.02.08-.06.17-.1.24-.04.08-.11.13-.17.19-.08.06-.17.08-.27.09-.1,0-.21-.02-.3-.07-.25-.13-.42-.4-.55-.64-.09-.17-.17-.34-.24-.51-.16-.36-.32-.72-.46-1.09-.1-.26-.2-.52-.29-.78,0-.03-.02-.05-.03-.08,0,0,0,0,0-.01,0-.01,0-.03-.01-.04,0,0,0-.01,0-.02,0-.02-.01-.04-.02-.06-.07-.2-.14-.4-.21-.6-.12-.35-.25-.7-.4-1.05-.01-.15-.02-.29-.03-.44,0-.08-.01-.15-.02-.23,0-.03,0-.05,0-.08-.02-.25-.04-.5-.06-.75-.01-.18-.03-.36-.04-.54,0-.01,0-.03,0-.04-.01-.18-.03-.35-.04-.53-.01-.15-.02-.3-.04-.45-.06-.76-.12-1.52-.19-2.28-.01-.12-.02-.24-.03-.36,0-.11-.02-.22-.03-.33-.02-.17-.03-.35-.05-.52,0-.03,0-.07,0-.1-.02-.17-.03-.34-.05-.52-.02-.22-.04-.44-.06-.66-.01-.16-.03-.32-.05-.47-.02-.18-.04-.35-.05-.53-.01-.15-.03-.29-.05-.44-.01-.13-.03-.26-.04-.39-.03-.31-.07-.61-.1-.92-.41-4.9-.43-9.83-.52-14.75,0-.02,0-.04,0-.06,0-.02,0-.04,0-.07,0-.02,0-.04,0-.07,0-.02,0-.04,0-.07.45.86,1.12,1.61,1.84,2.25.5.46,1.04.87,1.6,1.26.57.39,1.17.74,1.79,1.06,1.2.62,2.45,1.13,3.71,1.59,1.29.47,2.58.94,3.9,1.29.64.17,1.29.31,1.94.45.67.15,1.33.29,2,.43,1.31.26,2.63.52,3.94.78.54.11,1.08.23,1.63.34.54.11,1.08.21,1.61.31.66.12,1.33.24,1.99.33.66.09,1.33.16,2,.22.33.03.66.05.99.06.3.01.61.02.91.02.18,0,.35,0,.53,0,.02,0,.04,0,.06,0h0c.22,0,.44,0,.66,0h0c.22,0,.44,0,.65,0h0s.04,0,.06,0c.18,0,.35,0,.53,0,.3,0,.61-.01.91-.02.33-.01.66-.03.99-.06.67-.06,1.34-.13,2-.22.67-.09,1.33-.21,1.99-.33.54-.1,1.08-.2,1.61-.31.54-.11,1.09-.23,1.63-.34,1.31-.26,2.63-.52,3.94-.78.67-.13,1.33-.28,2-.43.65-.14,1.3-.28,1.94-.45,1.32-.35,2.61-.82,3.9-1.29,1.27-.46,2.52-.97,3.71-1.59.62-.32,1.22-.67,1.79-1.06.56-.38,1.1-.8,1.6-1.26.72-.65,1.39-1.4,1.84-2.27,0,.04,0,.08,0,.12Z"/>
        <path class="cls-2" d="M21.59,60.44c.04.35-.01.7-.26.96-.1.1-.25.18-.39.2-.04,0-.08,0-.13,0-.13,0-.26-.03-.38-.08-.24-.09-.44-.28-.6-.47-.11-.13-.21-.27-.31-.41-.17-.26-.32-.53-.46-.81-.14-.28-.27-.55-.38-.84-.11-.29-.2-.58-.21-.89,0-.34.07-.72.28-1,.17-.23.45-.38.74-.39.15,0,.28.11.3.25.22.07.41.23.57.4.1.11.18.22.26.34.18.27.32.58.44.88.12.3.22.61.31.92.04.15.08.3.12.46.04.15.08.31.1.47Z"/>
      </g>
      <g>
        <path class="cls-7" d="M24.03,19.24c-.15-.06-.2-.24-.08-.36.19-.24.58-.21.84-.28.8-.16,1.63-.37,2.24-.93.21-.18.4-.38.46-.66.1-.39.71-.22.6.16-.45,1.45-2.7,2.19-4.07,2.07Z"/>
        <path class="cls-7" d="M29.98,16.14c-.27.01-.59-.3-.28-.5.23-.17.54-.13.8-.2,1.23-.27,2.48-.73,3.32-1.71.25-.21.4-.8.8-.6.45.37-.29.87-.5,1.19-1.07,1.11-2.64,1.63-4.14,1.82Z"/>
        <path class="cls-7" d="M32.62,17.02c-.5-.5,1.23-.71,1.51-.98.38-.35.93.07.5.44-.59.24-1.38.85-2.01.55Z"/>
        <path class="cls-7" d="M47.24,16.97c-1.84-.01-7.34-.62-8.54-1.84-.11-.23.14-.36.34-.33,2.99,1.14,6.23,1.64,9.42,1.52,1.94-.19,6.95-.74,5.74-3.68-.16-.37.42-.61.57-.24,1.54,3.93-4.94,4.56-7.54,4.57Z"/>
        <path class="cls-7" d="M55.96,15.22c-.42-.77,2.39-1.19,1.02-2.88-.3-.38-.74-.53-1.13-.77-.26-.21-.17-.51.18-.51,1.65.33,2.73,2.43,1.15,3.59-.34.21-.8.93-1.22.56Z"/>
        <path class="cls-7" d="M10.32,16.93c-1.42-.73-1.21-2.43-.02-3.27.36-.19,1.01-1.02,1.38-.56.17.31-.19.48-.4.61-.42.3-.9.61-1.17,1.06-.47.72,0,1.32.61,1.74.31.31-.11.57-.41.42Z"/>
        <path class="cls-7" d="M5.43,13.9c-.98-1.7,1.1-3.55,2.53-4.22.41-.11,1.56-.95,1.8-.44.06.15,0,.34-.17.41-1.75.65-4.18,1.87-3.73,4.1,0,.24-.27.31-.43.15Z"/>
        <path class="cls-7" d="M12.36,8.46c-.06-.01-.15-.03-.18-.1-.12-.68,1.01-.73,1.47-.92.43-.04,2.39-.81,2.4-.19.15.5-1.61.52-2,.72-.58.08-1.12.44-1.69.48Z"/>
        <path class="cls-7" d="M61.31,13.27c-.52-.24.07-.97-.03-1.4-.32-1.61-1.66-1.16-1.79-1.84.49-.71,1.93.44,2.14,1.02.16.34.32.7.25,1.09-.11.36-.03,1.2-.58,1.14Z"/>
        <path class="cls-7" d="M37.01,20.99c-.49-.02-.99,0-1.47-.09-.32-.11-.35-.45,0-.55,1.6,0,3.21.03,4.81-.22.64-.08,1.27-.16,1.91-.26.3-.02.8-.26.89.18.12.57-1.79.49-2.21.63-1.3.16-2.6.31-3.91.3Z"/>
        <path class="cls-7" d="M32.16,5.05c-.92-.6,1.23-.71,1.55-.79.49-.09,4.55-.49,4.4.19,0,.57-1.28.17-1.69.26-1.44-.14-2.86.34-4.26.34Z"/>
        <path class="cls-7" d="M42.58,5.5c-.81-.15-1.62-.3-2.45-.39-.24-.01-.67-.06-.66-.38.21-.63,2.59.12,3.19.15.4.05.31.68-.08.61Z"/>
        <path class="cls-7" d="M26.38,13.9c.1.1.11.23.06.33,0,.01-.01.03-.02.04,0,0,0,0,0,.01-.01.02-.02.03-.04.05,0,0,0,0-.01.01-.04.03-.08.06-.13.08,0,0-.01,0-.02,0,0,0-.01,0-.02,0h0s-.01,0-.02,0c-.08,0-.16-.02-.23-.09-.03-.03-.07-.07-.1-.1h0c-1.4-1.34-3.02-2.4-4.76-3.21-.07-.03-.12-.07-.16-.1-.02-.01-.03-.03-.04-.04,0,0-.01-.02-.02-.03,0,0,0,0,0-.01,0,0,0-.01-.01-.02,0-.01-.01-.03-.02-.04,0,0,0-.01,0-.02,0-.02-.01-.04-.01-.06,0,0,0-.02,0-.02,0-.15.13-.27.35-.26,0,0,.01,0,.02,0,0,0,.01,0,.02,0,0,0,.02,0,.03,0,.01,0,.02,0,.03,0,.03,0,.07.02.1.03,1.86.86,3.58,2.01,5.04,3.44Z"/>
        <path class="cls-4" d="M19.27,10.17c-.15.11-.3.24-.45.36,0,0-.01,0-.02.01h0c-.3.27-.6.54-.88.82-.28.27-.55.55-.78.87-.1.15-.2.29-.29.45-.08.14-.16.28-.23.42-.15.29-.28.6-.38.92-.11.32-.21.64-.29.97-.08.32-.15.63-.21.95-.07.33-.13.65-.2.98-.04.2-.08.4-.11.6-1.45-.54-4.04-1.59-2.72-2.89,1.24-1.45,2.94-2.51,4.53-3.55.69-.5,1.36-.8,2.03-.9Z"/>
        <path class="cls-4" d="M30.24,14.17c-.05.02-.11.04-.16.06-.08.03-.16.05-.24.08-.02,0-.05.02-.07.02-.02,0-.05.02-.08.02-.02,0-.05.01-.07.02-.04.01-.09.03-.13.04-.01,0-.03,0-.04.01-.03,0-.05.01-.08.02-.12.03-.23.06-.35.09-.03,0-.07.02-.1.02-.22.05-.44.09-.67.13-.02,0-.03,0-.05,0-.03,0-.06,0-.08.01-.03,0-.06,0-.09.01-.06,0-.12.02-.17.02-.03,0-.05,0-.08,0-.02,0-.04,0-.06,0-.03,0-.06,0-.09,0-.03,0-.06,0-.09,0-.09,0-.18.01-.27.02-.03,0-.06,0-.09,0-.03,0-.06,0-.09,0-.04,0-.07,0-.11,0-.03,0-.05,0-.08,0-.09-.12-.18-.24-.27-.35-.04-.05-.08-.1-.12-.15-.02-.03-.04-.05-.06-.07.05-.1.04-.23-.06-.33-1.46-1.43-3.19-2.57-5.04-3.44-.04-.01-.07-.03-.1-.03,0-.02-.02-.03-.03-.05.03.01.06.02.09.03.24-.3.48-.59.64-.84.83-1.02,1.7-2.12,2.96-2.61.03-.01.07-.03.1-.04.03,0,.05-.02.08-.03.02,0,.05-.01.07-.02.06-.02.12-.04.18-.05.03,0,.07-.02.1-.03s.07-.02.1-.02c.03,0,.06-.01.09-.02.02,0,.05,0,.07-.01.01,0,.02,0,.04,0,.03,0,.05,0,.08-.01.03,0,.06,0,.08-.01,0,0,.01,0,.02,0,.03,0,.05,0,.08,0,.03,0,.06,0,.09-.01.06,0,.12-.01.18-.01.03,0,.06,0,.09,0,0,0,0,0,0,0-.15.06-.31.12-.46.19-.4.19-.78.42-1.09.73-.3.3-.54.68-.64,1.1-.05.21-.07.41-.05.62.02.19.06.38.12.56.17.48.49.89.87,1.22.25.22.51.44.79.64.27.2.55.39.83.57.57.37,1.14.73,1.74,1.05.57.31,1.16.59,1.78.81,0,0,.01,0,.02,0Z"/>
        <path class="cls-4" d="M42.93,14.05c.08.05.16.1.24.14-3.81-.51-8.32-1.74-7.84-4.59.31-1.75,1.88-2.17,3.63-2.16-.01.01-.03.03-.04.04-.1.11-.19.21-.27.33-.1.15-.19.32-.24.49-.12.42-.1.87.01,1.29.12.44.33.85.6,1.22.15.2.32.39.49.58.05.06.12.11.17.17.06.06.11.11.18.17,0,0,0,0,0,0,.23.21.47.41.71.61.25.2.5.4.76.59.27.2.54.4.81.59.26.19.54.36.81.53Z"/>
        <path class="cls-9" d="M39.82,11.7s.02.01.02.02c0,0-.02-.01-.02-.02Z"/>
        <path class="cls-9" d="M52.49,12.79c.08,1.91-3.76,1.73-5.07,1.74-.59-.01-1.5-.06-2.55-.15,0,0,0,0,0,0-.01,0-.02,0-.03,0-.39-.04-.81-.08-1.23-.13-.04,0-.07,0-.11-.01-.01,0-.02,0-.03,0-.06,0-.13-.02-.19-.02-.04,0-.07-.01-.11-.01-.08-.05-.16-.1-.24-.14-.27-.17-.55-.34-.81-.53-.27-.19-.54-.39-.81-.59-.26-.19-.51-.39-.76-.59-.24-.19-.48-.4-.71-.61,0,0,0,0,0,0-.06-.05-.12-.11-.18-.17-.06-.06-.12-.11-.17-.17-.17-.19-.34-.37-.49-.58-.27-.37-.48-.78-.6-1.22-.11-.42-.13-.87-.01-1.29.05-.18.14-.34.24-.49.08-.12.17-.22.27-.33.01-.01.03-.03.04-.04h0s.07,0,.11,0c.11,0,.21,0,.32,0,.09,0,.17,0,.26.01.08,0,.15.01.23.02,1.22.09,2.43.31,3.28.36,2.67.41,5.39,1.04,7.65,2.58.85.52,1.51,1.38,1.69,2.37Z"/>
        <path class="cls-9" d="M32.31,8.78c2.3,1.12,1.88,3.35-.18,4.49-.33.2-.67.38-1.02.55-.06.03-.11.05-.17.08-.03.01-.05.02-.08.04-.03.01-.05.02-.08.04-.03.01-.06.02-.08.04-.03.01-.06.02-.08.03-.03.01-.06.02-.08.03-.03.01-.06.02-.08.03-.06.02-.11.04-.17.06-.01,0-.02,0-.03.01,0,0-.01,0-.02,0-.61-.22-1.21-.49-1.78-.81-.59-.33-1.17-.68-1.74-1.05-.28-.18-.56-.37-.83-.57-.27-.2-.53-.41-.79-.64-.38-.34-.7-.74-.87-1.22-.07-.18-.11-.37-.12-.56-.02-.21,0-.42.05-.62.09-.42.34-.8.64-1.1.31-.31.7-.54,1.09-.73.15-.07.3-.13.46-.19,0,0,0,0,0,0,0,0,.02,0,.03,0,.02,0,.04,0,.05,0,.02,0,.04,0,.06,0,.07,0,.13,0,.2,0,.01,0,.03,0,.05,0,.02,0,.04,0,.05,0,.02,0,.05,0,.07,0,.03,0,.06,0,.08,0,.03,0,.06,0,.08,0,.02,0,.05,0,.07,0,.02,0,.05,0,.07,0,.02,0,.04,0,.05,0,.04,0,.07,0,.11.01.06,0,.13.02.19.03.03,0,.06,0,.08.01.03,0,.06,0,.08.01.02,0,.04,0,.07.01.06.01.12.02.18.04,1.55.34,3.04,1.2,4.38,1.95Z"/>
        <path class="cls-9" d="M26.96,15.91c0,.06.01.12,0,.18-.85,1.71-5.21,2.39-7,2.32-1.32-.05-2.64-.24-3.9-.65-.02,0-.03-.01-.05-.02-.01,0-.03-.01-.04-.02-.01,0-.03-.01-.04-.01-.11-.04-.25-.09-.4-.15-.02,0-.04-.02-.06-.02-.01,0-.03-.01-.04-.02.03-.2.07-.4.11-.6.06-.33.13-.65.2-.98.06-.32.14-.63.21-.95.08-.33.18-.65.29-.97.11-.31.23-.62.38-.92.07-.14.15-.28.23-.42.09-.15.19-.3.29-.45.22-.32.5-.6.78-.87.29-.28.58-.55.88-.82h0s.01-.01.02-.01c.14-.13.29-.25.45-.36h0s.05,0,.08-.01c.02,0,.04,0,.06,0,.02,0,.03,0,.05,0,.02,0,.04,0,.06,0,.02,0,.04,0,.07,0,0,0,0,0,.01,0,.02,0,.04,0,.06,0,.02,0,.03,0,.05,0,.02,0,.04,0,.06,0,.02,0,.05,0,.07,0,.03,0,.06,0,.09,0,.03,0,.05,0,.08,0,0,0,.02,0,.02,0,.05,0,.09,0,.14,0,.04,0,.08,0,.12.01.07,0,.13.02.2.03.07.01.14.03.2.04.02,0,.05.01.07.02.03,0,.06.02.09.02.03,0,.06.02.09.03.06.02.12.04.18.06,0,0,0,0,0,0,.03.01.06.02.09.03,0,.02.02.03.03.05-.01,0-.02,0-.03,0,0,0-.02,0-.03,0,0,0-.01,0-.02,0,0,0-.01,0-.02,0-.21-.01-.35.11-.35.26,0,0,0,.01,0,.02,0,.02,0,.04.01.06,0,0,0,.01,0,.02,0,.01.01.03.02.04,0,0,0,.01.01.02,0,0,0,0,0,.01,0,0,.01.02.02.03.01.01.03.03.04.04.04.04.1.07.16.1,1.75.81,3.36,1.87,4.76,3.21h0s.07.07.1.1c.07.07.15.1.23.09,0,0,.01,0,.02,0h0s.01,0,.02,0c0,0,.01,0,.02,0,.05-.01.09-.04.13-.08,0,0,0,0,.01-.01.01-.01.03-.03.04-.05,0,0,0,0,0-.01,0-.01.01-.02.02-.04.02.02.04.05.06.07.04.05.08.1.12.15.09.12.18.23.27.35-.01,0-.02,0-.03,0,0,0-.01,0-.02,0-.02,0-.04,0-.06,0-.01,0-.02,0-.04,0h0s-.07,0-.1,0c-.09,0-.18,0-.27,0,.05.06.1.12.15.18,0,.01.02.02.03.04.01.02.03.03.04.05.01.02.03.04.04.06,0,0,0,0,0,.01,0,0,.01.02.02.03,0,.01.02.03.03.04,0,.01.01.02.02.03.03.05.07.11.09.16,0,0,0,.02.01.03.03.05.05.1.07.16,0,.01,0,.03.01.04,0,.02.01.03.02.05,0,.02.01.04.02.06,0,.03.01.06.02.08,0,.01,0,.02,0,.03,0,.01,0,.03,0,.04Z"/>
      </g>
      <g>
        <path class="cls-5" d="M33.28,22.81c-.21,0-.42,0-.62-.01-.55-.02-1.1-.05-1.65-.06-1.16-.03-2.32-.07-3.48-.15-.66-.04-1.32-.09-1.98-.16-.68-.07-1.35-.15-2.03-.25-1.31-.19-2.62-.37-3.92-.6-.7-.12-1.4-.25-2.09-.4-.65-.14-1.3-.31-1.94-.49-1.33-.36-2.65-.76-3.94-1.24-.64-.24-1.28-.5-1.91-.78-.63-.29-1.24-.61-1.85-.94-.6-.32-1.19-.66-1.77-1.02-.58-.35-1.14-.74-1.66-1.18-.26-.22-.51-.46-.74-.71-.23-.26-.45-.52-.65-.81-.09-.14-.18-.29-.26-.44-.08-.16-.15-.31-.21-.48-.12-.32-.19-.66-.18-1,0-.2.01-.42.07-.61.03-.12.12-.22.22-.29.06-.04.16-.07.22-.03.06.03.09.1.12.15.05.11.05.23.04.32-.02.1-.03.2-.04.3,0,.09,0,.17,0,.26,0,.12.03.23.05.35.03.11.06.22.09.32.04.11.09.23.14.34.09.17.18.33.29.49.14.19.28.38.44.56.23.25.46.49.71.72.15.13.31.26.47.38.17.13.34.25.51.37,1.13.76,2.34,1.42,3.55,2.04.53.26,1.07.51,1.61.74.58.24,1.16.45,1.71.64.63.22,1.27.42,1.91.61.67.19,1.34.38,2.01.55.58.15,1.17.28,1.76.41,1.31.26,2.62.46,3.94.65.67.1,1.34.2,2.01.29.67.09,1.33.16,2,.22.43.04.85.07,1.28.1,0,0,0,0,0,0,.01,0,.02,0,.03,0,.03,0,.06,0,.07,0,1.19.08,2.39.11,3.58.15.22,0,.45.02.67.03.06-.04.13-.06.21-.05.31.03.61.06.92.08.09,0,.18,0,.27,0,.09,0,.18,0,.27,0,.31-.02.61-.05.92-.08.08,0,.15.01.21.05.22,0,.45-.02.67-.03,1.2-.04,2.39-.07,3.57-.15.03,0,.06,0,.08,0,.01,0,.02,0,.03,0,0,0,0,0,0,0,.43-.03.86-.06,1.28-.1.67-.06,1.34-.13,2-.22.67-.09,1.34-.19,2.01-.29,1.32-.19,2.63-.39,3.94-.65.59-.12,1.17-.26,1.76-.41.67-.17,1.35-.36,2.01-.55.64-.19,1.28-.39,1.87-.6.59-.2,1.17-.42,1.75-.66.55-.22,1.08-.47,1.61-.74,1.21-.62,2.42-1.28,3.55-2.04.17-.12.34-.24.51-.37.16-.12.31-.25.47-.38.25-.23.49-.47.71-.72.15-.18.3-.37.44-.56.1-.16.2-.32.29-.49.05-.11.1-.22.14-.34.03-.11.06-.21.09-.32.02-.12.04-.23.05-.35,0-.09,0-.17,0-.26,0-.1-.02-.2-.03-.27-.02-.12-.02-.24.03-.35.03-.06.06-.12.12-.15.07-.04.16,0,.22.03.1.07.18.17.22.29.05.2.06.41.07.61,0,.34-.07.68-.18,1-.06.16-.13.32-.21.48-.08.15-.17.29-.26.44-.19.29-.42.55-.65.81-.23.26-.48.49-.74.71-.51.44-1.08.83-1.66,1.18-.58.36-1.17.69-1.77,1.02-.61.33-1.22.65-1.85.94-.62.29-1.26.55-1.91.78-1.29.48-2.61.88-3.94,1.24-.64.17-1.29.34-1.94.49-.69.15-1.39.29-2.09.4-1.3.22-2.61.41-3.92.6-.67.1-1.35.18-2.03.25-.66.06-1.32.11-1.98.16-1.16.08-2.32.12-3.48.15-.55.01-1.1.04-1.65.06-.18,0-.37.01-.55.01-.02,0-.05,0-.07,0Z"/>
        <path class="cls-5" d="M39.07,22.58s-.03,0-.04,0c.01,0,.03,0,.04,0Z"/>
        <path class="cls-5" d="M27.48,22.58s.03,0,.04,0c-.01,0-.03,0-.04,0Z"/>
        <path class="cls-5" d="M38.95,21.97s-.01,0-.02,0c0,0,.01,0,.02,0Z"/>
        <path class="cls-5" d="M27.61,21.97s.01,0,.02,0c0,0-.01,0-.02,0Z"/>
        <path class="cls-5" d="M39.04,21.97s0,0,0,0c0,0-.02,0-.03,0,.01,0,.02,0,.03,0Z"/>
        <path class="cls-5" d="M27.52,21.97s0,0,0,0c.01,0,.02,0,.03,0,0,0-.02,0-.03,0Z"/>
        <path class="cls-5" d="M63.63,11.9c-.06-.07-.11-.15-.14-.24-.01-.05-.03-.1-.05-.16-.03-.07-.05-.14-.09-.21-.06-.11-.12-.22-.17-.29-.14-.21-.3-.41-.47-.61-.24-.26-.49-.5-.75-.74-.42-.36-.86-.68-1.31-.99-.29-.2-.59-.39-.89-.56-.31-.18-.63-.35-.95-.51-.4-.2-.8-.37-1.21-.54-.4-.16-.8-.3-1.2-.45-1.05-.36-2.11-.66-3.18-.94-.65-.17-1.31-.34-1.97-.49-.63-.15-1.26-.28-1.89-.41-.02,0-.04,0-.05-.01,0,0-.01,0-.02,0-.03,0-.07-.01-.09-.02-.08-.02-.15-.03-.23-.05,0,0,0,0,0,0,0,0-.02,0-.03,0h0c-.64-.13-1.29-.26-1.93-.38-.63-.12-1.27-.25-1.9-.36-1.31-.23-2.62-.43-3.94-.61-.65-.09-1.29-.17-1.94-.25-.32-.04-.63-.08-.95-.1-.32-.03-.64-.05-.95-.07-.04,0-.07,0-.09,0-.01,0-.03,0-.03,0-.01,0-.03,0-.04,0h0,0c-.3-.02-.61-.04-.91-.06-.59-.03-1.19-.04-1.78-.05-.28,0-.55,0-.83,0,0,0-.02,0-.03,0-.02,0-.04,0-.06,0-.09,0-.18,0-.27,0-.09,0-.18,0-.27,0-.02,0-.04,0-.06,0,0,0-.02,0-.03,0-.28,0-.55,0-.83,0-.59,0-1.19.02-1.78.05-.3.02-.61.04-.91.06h0,0s-.03,0-.03,0c-.01,0-.03,0-.03,0-.03,0-.07,0-.1,0-.32.02-.64.04-.96.07-.32.03-.64.06-.95.1-.65.08-1.29.16-1.94.25-1.32.18-2.63.38-3.94.61-.64.11-1.27.24-1.9.36-.64.13-1.29.25-1.93.38,0,0,0,0,0,0,0,0-.02,0-.03,0,0,0,0,0,0,0-.08.02-.15.03-.22.04-.03,0-.07.01-.1.02,0,0-.01,0-.02,0-.02,0-.03,0-.05.01-.63.13-1.27.26-1.89.41-.66.16-1.31.32-1.97.49-1.07.28-2.13.58-3.18.94-.4.14-.81.28-1.2.45-.41.17-.82.34-1.21.54-.32.16-.64.33-.95.51-.31.17-.6.37-.89.56-.45.31-.9.63-1.31.99-.26.23-.51.48-.75.74-.17.19-.33.39-.45.57-.07.11-.13.21-.19.32-.03.07-.06.14-.09.21-.02.05-.03.1-.05.16-.03.09-.08.17-.14.24-.06.06-.15.14-.24.12-.11-.02-.19-.15-.21-.25-.05-.18.01-.37.08-.54.12-.31.3-.59.49-.85.4-.53.89-1,1.41-1.42.25-.21.52-.4.79-.59.28-.2.57-.39.86-.57.28-.18.57-.34.86-.49.3-.16.6-.32.9-.46.6-.28,1.22-.52,1.85-.74.64-.23,1.28-.43,1.93-.62.64-.19,1.29-.36,1.94-.53.62-.16,1.25-.32,1.88-.46.54-.12,1.07-.23,1.6-.34.02,0,.04,0,.06-.01.01,0,.02,0,.03,0,.11-.02.21-.04.31-.06.64-.13,1.29-.26,1.93-.38.65-.13,1.31-.26,1.96-.37.65-.12,1.31-.22,1.96-.32.65-.1,1.3-.2,1.95-.28.64-.08,1.28-.17,1.92-.24.32-.04.63-.08.95-.1.32-.03.65-.05.97-.07.02,0,.05,0,.07,0,.05,0,.11-.01.16,0,.04,0,.08,0,.12,0,.08,0,.16-.01.25-.02.15,0,.3-.02.45-.03.59-.03,1.17-.05,1.76-.06.31,0,.63,0,.94,0,.15,0,.29,0,.44,0,.15,0,.29,0,.44,0,.31,0,.63,0,.94,0,.59,0,1.18.02,1.76.06.15,0,.3.02.45.03.08,0,.16.01.25.02.04,0,.08,0,.12,0,.05,0,.11,0,.16,0,.02,0,.05,0,.07,0,.32.02.65.05.97.07.32.03.63.07.95.1.64.08,1.28.16,1.92.24.65.09,1.3.18,1.95.28.65.1,1.31.21,1.96.32.66.12,1.31.25,1.96.37.64.13,1.29.25,1.93.38.11.02.21.04.32.06.01,0,.02,0,.03,0,.02,0,.04,0,.05,0,.54.11,1.07.22,1.61.34.63.14,1.25.3,1.88.46.65.17,1.29.34,1.94.53.65.19,1.29.39,1.93.62.63.22,1.25.46,1.85.74.31.14.61.3.9.46.29.16.58.32.86.49.29.18.58.38.86.57.27.19.53.38.79.59.51.42,1,.89,1.41,1.42.2.26.38.54.49.85.07.17.13.35.08.54-.03.1-.11.22-.21.25-.01,0-.02,0-.03,0-.08,0-.16-.06-.21-.12Z"/>
        <path class="cls-5" d="M49.16,4.73s.02,0,.03,0c-.01,0-.02,0-.03,0Z"/>
        <path class="cls-5" d="M17.39,4.73s-.02,0-.03,0c.01,0,.02,0,.03,0Z"/>
        <path class="cls-5" d="M48.94,4.68s0,0,0,0c0,0,.02,0,.03,0,0,0,0,0,0,0-.01,0-.02,0-.04,0Z"/>
        <path class="cls-5" d="M17.58,4.69s.02,0,.03,0c0,0,0,0,0,0-.01,0-.02,0-.04,0,0,0,0,0,0,0Z"/>
        <path class="cls-5" d="M65.76,12.18c-.07-.05-.12-.13-.15-.21-.03-.09-.04-.19-.05-.28,0-.07-.02-.14-.04-.21-.04-.18-.09-.36-.15-.54-.08-.21-.16-.42-.25-.61v-.02s-.02-.02-.03-.03c0,0,0,0-.01-.02-.13-.24-.27-.47-.42-.69-.15-.22-.31-.44-.49-.65-.27-.29-.55-.57-.84-.83-.04-.04-.08-.07-.09-.08-.39-.34-.81-.65-1.24-.95-.37-.25-.74-.48-1.13-.7-.38-.22-.76-.42-1.15-.61-.53-.27-1.07-.51-1.63-.73-.56-.22-1.13-.44-1.7-.64-.31-.11-.63-.21-.94-.31-.32-.1-.64-.21-.96-.3-.34-.1-.68-.19-1.01-.28-.64-.17-1.28-.31-1.91-.44-1.21-.25-2.42-.47-3.63-.71-.66-.13-1.32-.26-1.99-.38-.67-.12-1.35-.22-2.02-.33-1.35-.22-2.69-.44-4.05-.58-1.31-.14-2.62-.27-3.93-.36-.47-.03-.93-.04-1.4-.05-.23,0-.47-.01-.7-.01-.18,0-.35,0-.53,0-.01,0-.02,0-.04,0-.01,0-.03,0-.04,0-.18,0-.35,0-.53,0-.23,0-.47,0-.7.01-.47.01-.93.02-1.4.05-1.31.09-2.62.22-3.93.36-1.36.14-2.7.36-4.05.58-.67.11-1.35.21-2.02.33-.66.12-1.33.25-1.99.38-1.21.24-2.42.46-3.62.7-.64.13-1.29.27-1.92.44-.34.09-.68.18-1.01.28-.32.09-.64.2-.96.3-.31.1-.63.21-.94.31-.57.2-1.14.42-1.7.64-.55.22-1.1.47-1.63.73-.39.2-.77.4-1.15.61-.38.22-.76.45-1.13.7-.43.29-.85.6-1.21.92-.04.04-.08.07-.12.11-.29.27-.58.54-.84.83-.18.21-.33.43-.49.65-.15.23-.29.45-.41.68,0,.01-.01.02-.02.03,0,0,0,0,0,0v.02s-.02.02-.02.03c-.1.2-.18.41-.26.62-.06.18-.11.36-.15.54-.01.07-.03.14-.04.21-.01.1-.02.19-.05.28-.03.08-.08.16-.15.21-.05.04-.11.07-.17.05-.07-.02-.13-.07-.17-.13-.06-.09-.1-.2-.1-.31,0-.1.02-.21.04-.31.02-.11.04-.21.07-.32.05-.2.12-.4.19-.6.07-.18.15-.36.23-.52.01-.02.02-.04.03-.06.11-.23.25-.45.39-.66.15-.22.3-.45.47-.66.33-.41.72-.78,1.11-1.12,0,0,0,0,.01,0,0,0,.01-.01.01-.01.52-.45,1.08-.86,1.66-1.23.58-.37,1.18-.7,1.8-1.02.61-.32,1.24-.6,1.88-.86.66-.26,1.32-.51,1.99-.74.65-.22,1.3-.44,1.96-.62.65-.18,1.31-.35,1.97-.49,1.34-.29,2.69-.53,4.04-.79.67-.13,1.34-.26,2.01-.39.67-.13,1.35-.23,2.02-.34,1.34-.22,2.68-.44,4.04-.6.66-.07,1.32-.14,1.98-.2.67-.07,1.34-.12,2.01-.17.53-.04,1.06-.06,1.59-.07.25,0,.5-.01.75-.02.22,0,.44-.01.66,0,0,0,0,0,0,0,0,0,0,0,0,0,.22,0,.44,0,.66,0,.25,0,.5,0,.75.02.53.01,1.06.03,1.59.07.67.05,1.34.11,2.01.17.66.06,1.32.13,1.98.2,1.35.15,2.69.38,4.04.6.67.11,1.35.21,2.02.34.67.13,1.34.26,2.01.39,1.35.26,2.7.5,4.04.79.66.15,1.32.31,1.97.49.66.18,1.31.4,1.96.62.67.23,1.33.48,1.99.74.64.26,1.27.54,1.88.86.61.32,1.22.65,1.8,1.02.58.37,1.14.77,1.66,1.22,0,0,.01.01.02.02h0c.4.35.79.72,1.12,1.13.17.21.32.43.47.66.14.21.27.43.39.66l.02.04c.09.18.17.36.24.54.07.19.14.39.19.6.03.11.05.21.07.32.02.1.04.21.04.31,0,.11-.03.22-.1.31-.04.06-.1.11-.17.13-.01,0-.02,0-.03,0-.05,0-.1-.03-.14-.06Z"/>
        <path class="cls-5" d="M65.11,10.34s0,.02.01.03c0,0,0-.02-.01-.03Z"/>
        <path class="cls-5" d="M1.44,10.34s0,.02-.01.03c0,0,0-.02.01-.03Z"/>
        <path class="cls-5" d="M65.61,9.96s.01.02.02.03c0-.01-.01-.02-.02-.03Z"/>
        <path class="cls-5" d="M.94,9.96s-.01.02-.02.03c0-.01.01-.02.02-.03Z"/>
        <path class="cls-5" d="M51.53,3.04s.02,0,.02,0c0,0-.02,0-.02,0Z"/>
        <path class="cls-5" d="M15.03,3.04s-.02,0-.02,0c0,0,.02,0,.02,0Z"/>
        <path class="cls-5" d="M61.25,71.13c-.15-.09-.19-.28-.11-.42.03-.06.06-.12.09-.17.2-.4.36-.82.51-1.25.08-.24.15-.49.22-.73.08-.29.15-.59.2-.85.33-1.64.57-3.29.78-4.95.16-1.27.3-2.53.44-3.8.14-1.25.29-2.5.44-3.75.15-1.3.31-2.59.44-3.89.13-1.23.22-2.46.31-3.7,0,0,0,0,0-.01,0,0,0-.02,0-.02,0-.15.02-.3.03-.43.07-1.1.15-2.21.21-3.31.07-1.28.14-2.56.21-3.83.06-1.26.11-2.51.17-3.77.06-1.26.12-2.53.2-3.79.08-1.28.18-2.56.27-3.84.08-1.18.15-2.37.19-3.55.02-.6.04-1.21.04-1.81,0-.63,0-1.26.01-1.88,0-1.26.01-2.52.02-3.78,0-.64,0-1.29,0-1.93,0-.58-.03-1.16-.07-1.74-.05-.69-.1-1.39-.24-2.08-.02-.09-.04-.17-.06-.26-.03-.11-.03-.21,0-.32.02-.08.08-.19.17-.22.05-.02.1,0,.15.01.09.04.17.11.21.19.06.11.08.23.11.35.03.13.05.25.07.38.09.54.14,1.08.18,1.63.08,1.09.1,2.18.1,3.28,0,1.26-.02,2.53-.02,3.79,0,1.29,0,2.58-.04,3.87-.03,1.23-.1,2.46-.18,3.69-.08,1.27-.18,2.54-.27,3.8,0,0,0,.02,0,.02,0,0,0,.01,0,.01-.16,2.52-.26,5.04-.38,7.56-.12,2.52-.27,5.04-.44,7.55,0,0,0,0,0,0-.05.74-.1,1.47-.16,2.21-.1,1.25-.23,2.5-.38,3.75-.15,1.28-.3,2.56-.45,3.84-.14,1.23-.29,2.46-.42,3.69-.14,1.27-.3,2.53-.47,3.79-.08.61-.18,1.21-.28,1.82-.1.57-.2,1.14-.32,1.7-.06.3-.14.59-.22.88-.07.24-.14.47-.22.71-.18.5-.37.99-.63,1.45-.05.1-.16.15-.27.15-.05,0-.11-.01-.16-.04Z"/>
        <path class="cls-5" d="M4.88,71.02c-.25-.46-.45-.96-.63-1.45-.08-.23-.15-.47-.22-.71-.08-.29-.16-.59-.22-.88-.12-.56-.22-1.13-.32-1.7-.1-.6-.2-1.21-.28-1.82-.18-1.26-.33-2.53-.47-3.79-.14-1.23-.28-2.46-.42-3.69-.15-1.28-.3-2.56-.45-3.84-.14-1.25-.28-2.5-.38-3.75-.06-.74-.11-1.47-.16-2.21,0,0,0,0,0,0-.17-2.52-.31-5.03-.44-7.55-.12-2.52-.22-5.04-.38-7.55,0,0,0-.01,0-.02v-.02c-.09-1.27-.19-2.54-.27-3.81-.08-1.23-.14-2.46-.18-3.69-.03-1.29-.04-2.58-.04-3.87,0-1.26-.02-2.53-.02-3.79,0-1.09.01-2.19.1-3.28.04-.54.09-1.09.18-1.63.02-.13.05-.26.07-.38.03-.12.05-.24.11-.35.05-.08.13-.16.21-.19.05-.02.1-.03.15-.01.09.03.14.14.17.22.03.11.03.21,0,.32-.02.09-.04.17-.06.26-.13.68-.19,1.38-.24,2.08-.04.58-.06,1.16-.07,1.74,0,.64,0,1.29,0,1.93,0,1.26.02,2.52.02,3.78,0,.63,0,1.26.01,1.88,0,.6.02,1.21.04,1.81.04,1.19.11,2.37.19,3.55.09,1.28.19,2.56.27,3.84.08,1.26.14,2.53.2,3.79.06,1.26.11,2.51.17,3.77.07,1.28.14,2.56.21,3.83.06,1.1.14,2.21.21,3.29,0,.15.02.3.03.45,0,0,0,.02,0,.03,0,0,0,0,0,.01.08,1.23.18,2.47.31,3.7.14,1.3.29,2.59.44,3.89.15,1.25.3,2.5.44,3.75.15,1.27.28,2.54.44,3.8.21,1.66.45,3.31.77,4.91.06.3.13.59.21.89.07.25.13.49.22.73.15.42.31.85.51,1.25.03.06.06.12.09.17.08.15.04.34-.11.42-.05.03-.1.04-.16.04-.11,0-.21-.05-.27-.15Z"/>
        <path class="cls-5" d="M64.57,47.59s0,.02,0,.02c0,0,0,0,0,.01,0-.01,0-.02,0-.04Z"/>
        <path class="cls-5" d="M1.98,47.61s0-.02,0-.02c0,.01,0,.02,0,.04,0,0,0,0,0-.01Z"/>
        <path class="cls-5" d="M66.04,32.04s0-.01,0-.02c0,0,0,.02,0,.03,0,0,0,0,0-.01Z"/>
        <path class="cls-5" d="M.51,32.03s0,.01,0,.02c0,0,0,0,0,.01,0,0,0-.02,0-.03Z"/>
        <path class="cls-5" d="M33.28,79.94s0,0,0,0c-.57,0-1.14,0-1.7,0-.54,0-1.07-.02-1.61-.05-.38-.02-.76-.04-1.14-.06-.4-.02-.8-.03-1.19-.06-.31-.02-.62-.04-.92-.08-.31-.03-.62-.08-.93-.12-.66-.09-1.32-.19-1.98-.28-1.06-.15-2.12-.31-3.16-.52-.05,0-.09-.02-.1-.02-1.29-.26-2.57-.59-3.82-.99-.51-.16-1.01-.33-1.51-.51-.62-.22-1.24-.45-1.85-.69-.61-.24-1.21-.5-1.8-.77-.4-.18-.79-.37-1.18-.56-.39-.19-.77-.37-1.14-.56l-.03-.02s-.05-.02-.05-.03c0,0-.02,0-.02-.01,0,0,0,0-.04-.02-.58-.29-1.16-.6-1.7-.96-.54-.36-1.04-.79-1.48-1.27-.25-.28-.48-.57-.7-.88-.05-.07-.09-.13-.14-.2-.06-.09-.13-.17-.17-.27-.04-.09-.05-.21-.02-.31.02-.07.05-.15.13-.17.07-.02.16,0,.22.03.12.05.2.15.25.22.25.36.51.72.8,1.05.23.25.47.48.72.71.21.18.43.35.65.51.55.36,1.12.68,1.67.95l.05.03s.05.02.07.03c.02.01.04.02.05.03,0,0,.01,0,.02,0,1.2.59,2.4,1.19,3.63,1.7.76.31,1.53.6,2.3.87.07.02.14.05.21.07.62.22,1.25.42,1.88.61.64.2,1.29.36,1.94.52.37.09.73.17,1.07.24.05.01.11.02.12.02.04,0,.09.02.11.02,1.28.25,2.57.44,3.86.62.99.14,1.98.3,2.97.36.04,0,.08,0,.1,0,.62.04,1.23.06,1.85.09.54.03,1.08.06,1.63.07.7,0,1.4,0,2.1.01,0,0,0,0,0,0,0,0,0,0,0,0,.7,0,1.4,0,2.1-.01.54,0,1.09-.04,1.63-.07.62-.03,1.23-.05,1.83-.09.04,0,.08,0,.12,0,1-.07,1.99-.22,2.97-.36,1.29-.19,2.58-.37,3.84-.62.04,0,.09-.02.09-.02.05-.01.11-.02.13-.03.37-.08.74-.16,1.1-.25.65-.16,1.3-.32,1.94-.52.63-.19,1.26-.39,1.88-.61.07-.02.14-.05.21-.07.77-.27,1.54-.56,2.3-.87,1.24-.51,2.43-1.1,3.63-1.69h0s.04-.02.06-.03c.02-.01.05-.02.09-.04.58-.3,1.16-.61,1.7-.97.23-.16.44-.33.65-.51.25-.22.49-.46.72-.71.29-.33.55-.69.78-1.02.07-.11.15-.2.27-.26.07-.03.15-.05.22-.03.07.02.11.1.13.17.03.1.01.21-.02.31-.04.1-.11.18-.17.27-.05.07-.09.13-.14.2-.22.31-.45.6-.7.88-.44.48-.94.91-1.48,1.27-.54.36-1.12.67-1.66.94-.03.01-.05.03-.07.03,0,0,0,0-.01,0,0,0-.02,0-.04.02-.02.01-.05.02-.05.03-.38.19-.77.38-1.15.57-.39.19-.78.38-1.18.56-.59.27-1.19.53-1.8.77-.61.24-1.23.47-1.85.69-.5.18-1.01.35-1.51.51-1.25.4-2.53.73-3.78.98-.05,0-.09.02-.13.03-1.05.22-2.11.37-3.17.52-.66.1-1.32.19-1.98.28-.31.04-.62.09-.93.12-.31.03-.62.06-.92.08-.4.03-.8.04-1.2.06-.38.02-.76.04-1.14.06-.54.03-1.07.04-1.61.05-.57,0-1.14,0-1.7,0h0s0,0,0,0Z"/>
        <path class="cls-5" d="M38.93,79.77s-.02,0-.03,0c.01,0,.02,0,.03,0Z"/>
        <path class="cls-5" d="M27.63,79.77s.02,0,.03,0c-.01,0-.02,0-.03,0Z"/>
        <path class="cls-5" d="M38.89,79.15s-.01,0-.02,0c0,0,.01,0,.02,0Z"/>
        <path class="cls-5" d="M27.67,79.15s.01,0,.02,0c0,0-.01,0-.02,0Z"/>
        <path class="cls-5" d="M57.07,74.11s0,0,0,0c0,0,0,0,0,0,0,0,0,0,0,0Z"/>
        <path class="cls-5" d="M9.49,74.11s0,0,0,0c0,0,0,0,0,0,0,0,0,0,0,0Z"/>
      </g>
    </g>
  </g>
</svg>