<?xml version="1.0" encoding="UTF-8"?>
<svg id="Layer_2" data-name="Layer 2" xmlns="http://www.w3.org/2000/svg" viewBox="0 0 88.06 76.74">
  <defs>
    <style>
      .cls-1 {
        fill: #ffbaad;
      }

      .cls-1, .cls-2, .cls-3, .cls-4, .cls-5, .cls-6, .cls-7, .cls-8, .cls-9, .cls-10 {
        fill-rule: evenodd;
      }

      .cls-2 {
        fill: #ffcbc1;
      }

      .cls-3 {
        fill: #c66b5e;
      }

      .cls-4 {
        fill: #924234;
      }

      .cls-5 {
        fill: #a84a3c;
      }

      .cls-6 {
        fill: #6d3126;
      }

      .cls-7 {
        fill: #7a362c;
      }

      .cls-8 {
        fill: #57271f;
      }

      .cls-9 {
        fill: #451e19;
      }

      .cls-10 {
        fill: #7f392d;
      }
    </style>
  </defs>
  <g id="Layer_1-2" data-name="Layer 1">
    <g>
      <g>
        <g>
          <path class="cls-10" d="M78.92,30.32c-.57-.28-.99-.61-1.6-.9-.61-.29-1.41-.55-2.34-.76-.93-.21-1.97-.37-3.14-.85-1.17-.49-2.46-1.31-3.73-1.82-1.27-.51-2.52-.71-3.44-1.07-.92-.36-1.51-.88-2.21-1.31-.7-.44-1.52-.8-2.04-.92-.52-.13-.75-.02-1,.03-.25.05-.52.05-.85.18-.33.13-.72.38-1.55.71-.83.33-2.11.75-3.07,1.07-.96.32-1.61.55-2.11.9-.5.34-.86.8-1.94,1.26-1.08.46-2.87.92-3.95,1.28s-1.43.62-2.15,1.03c-.72.41-1.79.97-2.88,1.38-1.08.42-2.17.69-3.31,1.08-1.13.39-2.31.91-2.9,1.38-.59.47-.59.9-.52,1.31.07.41.22.8.34,1.23.12.43.22.9.22,1.56,0,.66-.12,1.51-.18,2.2-.06.7-.06,1.24,0,1.92.06.68.17,1.5.11,2.26-.07.76-.31,1.45-.44,2.12-.12.67-.12,1.31-.01,2,.11.69.33,1.44.33,2.16s-.22,1.43-.22,2.21.22,1.64.27,2.39c.05.75-.06,1.38-.07,1.83,0,.45.09.72.34.94.25.22.65.37,1.03.6.37.23.72.53,1.45.8.73.27,1.85.52,2.66.96.81.44,1.31,1.09,2.31,1.65,1,.56,2.49,1.03,3.62,1.36,1.13.33,1.89.52,2.81,1.06.93.55,2.02,1.45,2.91,1.96.9.51,1.6.62,2.26.7.66.07,1.28.1,2.05.37.77.27,1.71.77,2.43,1.2.72.43,1.24.79,1.66.89.42.1.73-.05,1.2-.13.47-.08,1.08-.08,1.58-.42.5-.34.87-1.02,1.74-1.55.87-.53,2.23-.92,3.19-1.28.96-.36,1.52-.69,2.58-1.05,1.05-.37,2.6-.77,3.59-1.23.99-.47,1.42-1,1.82-1.36.39-.37.75-.57,1.26-.67.5-.1,1.15-.1,1.69-.29.54-.19.97-.56,1.38-.83.41-.27.8-.42,1.36-.65.57-.23,1.31-.53,2.04-.74.72-.21,1.43-.32,1.88-.54.45-.22.65-.53,1.07-.69.42-.16,1.05-.16,1.36-.58.32-.42.32-1.27.2-1.99-.11-.72-.34-1.33-.34-1.99s.23-1.4.27-2.16c.04-.76-.1-1.55-.27-2.45-.17-.9-.35-1.92-.37-3.32-.01-1.4.14-3.18.25-4.48.11-1.3.17-2.12.08-2.74-.09-.62-.32-1.05-.32-1.53,0-.47.21-.99.2-1.33s-.24-.5-.7-.65c-.47-.16-1.17-.32-2.03-.6-.86-.28-1.88-.68-2.54-1.1-.66-.42-.96-.85-1.48-1.18-.52-.33-1.25-.56-1.82-.84Z"/>
          <path class="cls-6" d="M60.03,55.93c-.38.2-1.51.24-2.47.37-.95.13-1.72.36-2.4.09-.68-.27-1.27-1.04-1.47-1.55-.2-.51-.01-.76.1-1.11.12-.35.17-.81.37-1.09.2-.28.54-.38.86-.31.33.07.64.31,1.04.45.4.14.88.18,1.2.48.32.3.47.86.73,1.17.26.31.62.36.92.41.3.05.53.1.83.31.3.21.67.58.29.79h0ZM34.39,33.3c-.27.35-.26.68-.2,1,.07.38.2.74.31,1.13h.02c.29.22.58.35.81.49.23.14.41.31.66.31.25,0,.56-.15.92-.26.35-.11.74-.17.87-.39.13-.22,0-.58-.33-.94-.33-.36-.85-.7-1.48-.95-.54-.21-1.15-.36-1.58-.39h0ZM34.69,38.06c-.04.42-.09.85-.12,1.24-.06.7-.06,1.24,0,1.92.02.21.04.43.06.67.2-.03.4-.07.56-.16.32-.18.51-.55.79-.9.28-.36.64-.71.78-1.14.14-.43.05-.94-.24-1.26-.29-.32-.78-.44-1.43-.4-.13,0-.27.02-.41.04h0ZM34.59,44.06c-.1.54-.26,1.04-.35,1.53-.12.67-.12,1.31-.01,2,.11.69.33,1.44.33,2.16,0,.1,0,.2-.01.3.07-.04.13-.08.2-.12.61-.38,1.25-.95,1.72-1.49.47-.55.77-1.07,1.38-1.39.61-.32,1.53-.44,2.26-.92.73-.49,1.27-1.35,1.42-1.82.15-.48-.1-.57-.57-.53-.47.04-1.16.21-1.85.47-.69.26-1.37.6-2.02.57-.65-.03-1.27-.44-1.86-.63-.21-.07-.41-.11-.62-.12h0ZM34.4,51.09c-.04.29-.07.58-.07.88,0,.25.02.51.05.77.19.11.37.09.48.02.11-.07.16-.21.24-.34.07-.13.17-.24.2-.44.04-.2.01-.5-.19-.68-.17-.15-.47-.22-.71-.22h0ZM34.49,53.47c.08.01.15.03.22.04.48.06.83-.02,1.21.06.39.07.81.3,1.25.36.45.06.92-.03,1.3-.33.38-.29.67-.78.96-.9.3-.12.6.14.96.27.35.13.75.14.88.23.13.09,0,.26-.34.66-.34.4-.87,1.03-1.52,1.44-.65.42-1.4.62-1.95.91-.54.29-.87.67-1.3.84-.43.16-.95.11-1.42-.15-.03-.02-.06-.03-.09-.05-.09-.17-.13-.39-.13-.68,0-.45.12-1.08.07-1.83-.02-.28-.06-.58-.11-.89h0ZM36.37,58.04c.25.16.54.33.98.49.08.03.17.06.26.09.14-.09.33-.19.44-.3.14-.14.16-.31.14-.45-.02-.14-.09-.26-.21-.34-.12-.09-.29-.15-.41-.24-.12-.09-.18-.2-.28-.23-.09-.03-.22.04-.3.15-.08.11-.12.28-.26.46-.1.13-.26.26-.36.38h0ZM38.79,59c.43.14.85.3,1.22.5.81.44,1.31,1.09,2.31,1.65,1,.56,2.49,1.03,3.62,1.36l.22.06c.31-.1.61-.2.88-.3,1.04-.38,1.71-.77,2.02-1.33.31-.57.26-1.31-.11-1.98-.37-.67-1.07-1.27-2.06-1.39-.99-.12-2.28.25-3.24.31-.96.05-1.61-.22-2.14-.4-.54-.19-.97-.29-1.33-.04-.36.25-.63.84-1.15,1.35-.07.07-.15.14-.23.2h0ZM49.05,63.76c.86.55,1.81,1.32,2.61,1.77.79.45,1.42.59,2.01.67.09-.14.17-.28.27-.41.31-.42.7-.69.77-1,.08-.31-.15-.65-.56-.8-.41-.14-1-.09-1.43-.26-.44-.17-.72-.57-1.33-.75-.6-.17-1.52-.11-1.99.24-.18.14-.3.32-.36.53h0ZM56.41,66.76c.67.28,1.4.68,2,1.03.72.43,1.24.79,1.66.89.1.03.2.04.3.03-.05-.29-.14-.61-.31-.85-.29-.42-.81-.63-1.06-.94-.25-.31-.24-.71-.52-.93-.28-.22-.85-.27-1.31-.02-.32.17-.58.48-.75.79h0ZM50.36,57.93c-.2.17-.38.34-.44.61-.06.27-.01.63.15.78.16.15.43.09.79.1.36.01.79.09,1.03-.02.23-.11.26-.4.17-.65-.1-.25-.32-.45-.42-.63-.1-.19-.09-.36-.17-.47-.08-.11-.26-.15-.46-.1-.2.05-.42.2-.62.37h0ZM48.19,42.74c.08-.18.26-.4.48-.51.22-.1.46-.09.59.03.12.11.12.32.17.51.05.19.16.36.22.57.05.21.04.46-.06.57-.1.11-.3.09-.5.06-.2-.03-.42-.08-.53-.17-.11-.09-.11-.22-.16-.33-.04-.11-.13-.2-.18-.31-.06-.11-.1-.23-.02-.41h0ZM38.32,47.9c.21-.13.39-.17.56-.17.17,0,.34.03.38.13.04.1-.05.28-.06.52-.01.24.04.54-.04.7-.08.16-.29.17-.48.13-.18-.04-.33-.14-.53-.22-.19-.08-.43-.13-.53-.21-.1-.08-.05-.2.09-.37.14-.17.39-.39.6-.52h0ZM61.12,56.51c-.45.12-1.01.54-1.3.93-.29.39-.3.77-.37,1.08-.06.31-.18.55-.19.88-.01.33.07.75.27.98.2.23.5.28.8.44.29.16.58.42.98-.01.41-.43.94-1.57,1.12-2.36.18-.8,0-1.26-.25-1.57-.26-.32-.6-.49-1.05-.37h0ZM57.74,58.79c-.38-.04-1.05.35-1.41.69-.36.34-.4.62-.6.9-.2.28-.56.55-.67,1-.11.44.04,1.06.44,1.36.41.3,1.08.29,1.66.39.57.1,1.05.32,1.36.19.32-.12.47-.58.4-1-.07-.42-.37-.81-.52-1.23-.14-.42-.13-.88-.17-1.34-.04-.46-.12-.92-.5-.95h0ZM58.5,45.09c-.66-.1-.73.39-.65,1.1.08.72.31,1.66.4,2.43.09.76.05,1.33.27,1.82.22.49.71.89,1.25,1.01.54.12,1.13-.04,1.73-.25.6-.22,1.22-.49,1.36-.86.14-.37-.19-.85-.47-1.49-.28-.65-.51-1.46-1.25-2.22-.74-.75-1.99-1.44-2.65-1.54h0ZM51.97,35.29c.07.31.27.79.35,1.25.08.47.04.93.22,1.2s.59.37.95.37c.36,0,.67-.07.94-.17s.5-.21.59-.54c.09-.33.03-.88-.06-1.28-.09-.41-.2-.68-.45-.98-.25-.29-.64-.61-.9-.75-.26-.14-.39-.09-.63-.02-.24.07-.6.18-.81.31-.21.13-.27.28-.19.6h0ZM52.01,62.08c.09-.13.15-.52.02-.9-.13-.38-.46-.73-.74-.72-.28.02-.51.4-.48.61.02.2.29.22.48.33.18.11.28.32.4.49.11.17.24.32.34.19h0ZM56.1,58.42c.1.29-.05.46-.27.59-.22.13-.51.22-.88.4-.38.19-.84.48-1.09.45-.25-.03-.3-.37-.4-.63-.1-.25-.27-.42-.38-.57s-.17-.3-.18-.43c-.01-.12.03-.22.14-.3.11-.08.3-.16.46-.31.15-.15.27-.38.43-.43.16-.05.35.08.59.13.24.05.52.03.83.21.31.19.66.59.75.87h0ZM48.21,55.73c.12.17.07.36-.1.49-.17.13-.45.19-.72.29-.27.1-.51.25-.72.24-.2,0-.36-.17-.35-.34,0-.17.17-.34.31-.52.14-.18.24-.37.33-.52.09-.14.16-.24.25-.25.09,0,.2.08.4.19.2.11.47.24.59.41h0ZM50.57,46.91c0,.15-.14.37-.43.5-.28.13-.7.18-.86.13-.15-.05-.05-.19,0-.35.05-.15.05-.32.13-.45.08-.13.24-.23.35-.24.11-.01.18.06.25.09.07.03.15.03.27.06.12.03.27.1.27.25h0ZM43.35,52.11c-.01-.22.01-.37.1-.51.09-.15.25-.29.23-.45-.01-.16-.2-.34-.52-.34-.31,0-.75.17-1.03.33-.27.16-.38.32-.59.52-.21.2-.52.45-.57.6-.05.15.16.22.36.4.2.18.38.47.59.58.21.11.44.05.69-.03.26-.08.55-.18.66-.38.12-.2.07-.5.05-.72h0ZM50.96,39.43c-.16.21-.42.52-.68.62-.25.1-.49,0-.78,0-.28,0-.61.11-.81-.02-.21-.13-.3-.51-.27-.75.03-.25.17-.37.21-.57.04-.2-.03-.47-.04-.65,0-.18.04-.27.28-.28.23-.01.65.04,1.1.09.45.05.93.09,1.16.29.22.19.18.53.13.75-.05.22-.12.32-.29.52h0ZM44.3,44.79c.12.21.23.62.16.92-.07.31-.33.51-.53.53-.2.02-.34-.14-.53-.2-.19-.06-.44-.01-.6-.14-.16-.13-.24-.44-.25-.71,0-.27.07-.5.2-.65.13-.15.31-.2.51-.18.2.02.43.12.61.17.18.05.3.05.42.25h0ZM38.37,50.41c0,.26-.18.8-.37,1.08-.19.28-.38.31-.54.17-.15-.14-.26-.46-.37-.67-.11-.21-.22-.32-.06-.43.16-.11.58-.23.88-.31.3-.07.46-.1.46.16h0ZM39.92,42.25c.12.3-.01.71-.33.82-.32.1-.83-.11-1.27-.13-.44-.03-.81.13-.88-.02-.07-.15.17-.61.5-.88.33-.27.74-.35,1.13-.3.39.05.75.22.86.52h0ZM44.89,56.33c-.11.33-.39.63-.7.57-.31-.06-.67-.49-1.09-.64-.42-.15-.91-.03-1.18-.09-.27-.07-.31-.32-.13-.54.18-.22.58-.41.86-.66.28-.24.42-.54.8-.7.38-.16.99-.19,1.27,0,.28.19.22.6.22.98,0,.39.05.75-.06,1.08h0ZM44.02,49.54c-.07.19-.3.62-.75.79-.45.17-1.11.07-1.67.15-.56.08-1.03.34-1.39.39-.37.05-.64-.11-.61-.39.03-.28.35-.67.51-1.14.16-.47.16-1.01.34-1.39.18-.38.55-.6.83-.63.28-.02.48.15.83.32.35.17.86.35,1.18.65.32.3.45.72.57.9.12.19.23.14.16.34h0ZM49.15,45.84c-.02-.36-.3-.7-.58-.91-.29-.21-.59-.29-.8-.45-.21-.16-.31-.42-.58-.46-.26-.04-.68.12-.87.38-.19.26-.17.6-.3.94-.13.34-.42.68-.4,1.14.02.46.34,1.04.61,1.28.27.24.5.15.68-.03.18-.18.31-.45.6-.6.3-.15.76-.17,1.1-.37.34-.2.56-.57.54-.92h0ZM54.66,51.02c-.26.06-.55.31-.88.18-.33-.13-.7-.65-.71-1-.02-.35.32-.54.62-.78.29-.24.54-.54.85-.68.32-.13.71-.1,1.39-.13.67-.03,1.63-.12,1.84.03.22.15-.31.54-.5.87-.19.33-.06.6-.19.7-.13.1-.52.04-.72.14-.2.11-.22.38-.35.56-.13.18-.36.26-.6.23-.24-.03-.48-.18-.75-.12h0ZM52.2,56.19c.1-.28.11-.64,0-.96-.12-.31-.36-.57-.53-.53-.17.04-.28.38-.45.64-.17.26-.39.45-.4.74,0,.28.2.66.39.8.19.14.35.05.53-.09.18-.14.37-.33.47-.6h0ZM48.09,36.96c-.11.69-.35,1.38-.3,1.99.05.61.39,1.14.52,1.63.13.5.06.96-.44,1.21-.5.24-1.41.27-2.08.49-.67.23-1.1.66-1.65.45-.55-.21-1.22-1.07-1.85-1.53-.63-.46-1.22-.53-1.63-.68-.42-.15-.66-.38-.88-.64-.21-.26-.39-.56-.63-.69-.23-.14-.53-.11-.78-.31-.26-.2-.48-.63-.15-.97.32-.35,1.19-.62,2.56-1.11,1.36-.5,3.23-1.23,4.54-1.58,1.32-.35,2.09-.32,2.49.03.39.35.4,1.03.29,1.72h0ZM55.2,46.96c.33.15.19.17.13.17-.07,0-.07-.04.14.03.21.07.63.23.83.14.2-.09.2-.43.08-.84-.12-.41-.35-.89-.65-1.33-.3-.44-.65-.85-1.12-1.38-.47-.53-1.04-1.18-1.31-1.9-.27-.72-.25-1.5-.37-1.81-.12-.3-.38-.13-.82.12s-1.06.55-1.33.82c-.28.27-.22.5-.24.83-.02.33-.12.77-.05,1.22.07.45.32.92.45,1.42.14.5.17,1.02.34,1.44.17.41.49.71.85.76.36.05.77-.16,1.37-.14s1.39.3,1.71.44h0ZM51.59,48.53c-.26-.46-.64-.44-.9-.35-.27.08-.42.22-.68.24-.26.03-.61-.05-.92.02-.31.07-.58.3-.85.67-.27.36-.54.85-1.05,1.2-.52.34-1.28.54-1.78.98-.5.44-.74,1.13-.6,1.66.14.53.65.9,1.11.97s.85-.17,1.31-.07c.46.1,1,.52,1.47.62.47.1.89-.13,1.16-.58.27-.45.4-1.11.75-1.64.35-.53.93-.94,1.15-1.62.22-.68.08-1.64-.17-2.1Z"/>
          <path class="cls-8" d="M60.32,68.72c.3,0,.57-.1.94-.16.47-.08,1.08-.08,1.58-.42.5-.34.87-1.02,1.74-1.55.87-.53,2.23-.92,3.19-1.28.96-.36,1.52-.69,2.58-1.05,1.05-.37,2.6-.77,3.59-1.23.99-.47,1.42-1,1.82-1.36.39-.37.75-.57,1.26-.67.5-.1,1.15-.1,1.69-.29.54-.19.97-.56,1.38-.83.41-.27.8-.42,1.36-.65.57-.23,1.31-.53,2.04-.74.72-.21,1.43-.32,1.88-.54.45-.22.65-.53,1.07-.69.42-.16,1.05-.16,1.36-.58.32-.42.32-1.27.2-1.99-.11-.72-.34-1.33-.34-1.99s.23-1.4.27-2.16c.04-.76-.1-1.55-.27-2.45-.17-.9-.35-1.92-.37-3.32-.01-1.4.14-3.18.25-4.48.11-1.3.17-2.12.08-2.74-.09-.62-.32-1.05-.32-1.53,0-.47.21-.99.2-1.33s-.24-.5-.7-.65c-.47-.16-1.17-.32-2.03-.6-.86-.28-1.88-.68-2.54-1.1-.22-.14-.4-.28-.56-.42-2.17,1.14-4.91,2.16-7.79,3.25-4.02,1.51-8.32,3.11-10.55,4.22-2.22,1.1-2.37,1.71-2.55,2.27-.19.56-.42,1.08-.56,1.52-.14.44-.2.82-.23,1.69-.03.88-.03,2.25.13,3.39.16,1.13.47,2.02.53,3.17.06,1.15-.14,2.55-.33,3.83-.19,1.28-.36,2.43-.26,3.62.1,1.19.47,2.43.53,3.7.06,1.28-.2,2.6-.27,4.05-.04.71-.03,1.45.01,2.1Z"/>
          <path class="cls-9" d="M73.51,63.21s0-.04.01-.05c.17-.71.84-1.41,1.32-1.68.47-.27.75-.12,1.11-.06.03,0,.05,0,.08.01-.09.07-.18.14-.27.23-.39.37-.83.9-1.82,1.36-.13.06-.28.13-.43.19h0ZM61,68.61c.08-.02.17-.04.26-.05.47-.08,1.08-.08,1.58-.42.47-.32.82-.94,1.59-1.45-.03-.05-.06-.11-.1-.16-.31-.42-.88-.68-1.31-.74-.43-.06-.71.08-1.05.21-.34.12-.73.22-.89.63-.16.41-.08,1.12-.08,1.8,0,.06,0,.12,0,.19h0ZM67.13,65.54c.23-.08.44-.15.64-.23.82-.31,1.35-.59,2.15-.9-.09-.03-.18-.06-.27-.11-.31-.16-.63-.47-1.08-.51-.46-.04-1.05.19-1.28.64-.16.3-.16.71-.15,1.12h0ZM70.92,64.06c-.12-.18-.24-.41-.43-.68-.24-.34-.59-.76-.6-1.01,0-.25.33-.35.56-.49.24-.14.37-.33.51-.46.14-.13.28-.21.4-.24.12-.03.22,0,.32.1.1.1.2.28.37.41.17.13.42.21.49.36.07.15-.03.36-.04.6-.02.24.05.52-.09.86-.02.04-.03.07-.05.11-.48.16-.97.3-1.42.45h0ZM78.59,60.74s.07-.02.1-.03c.33-.12.63-.3.9-.49-.08-.03-.17-.04-.26-.02-.25.05-.56.29-.74.55h0ZM82.71,58.73c.25-.09.51-.17.77-.25.72-.21,1.43-.32,1.88-.54.45-.22.65-.53,1.07-.69.42-.16,1.05-.16,1.36-.58.05-.07.09-.15.13-.23-.21-.08-.4-.02-.65,0-.33.03-.78-.01-1.21.12-.44.14-.87.45-1.34.65-.47.21-.99.31-1.37.54-.38.23-.64.59-.63.95v.02h0ZM87.89,54.16c-.11-.51-.24-.97-.24-1.48,0-.67.23-1.4.27-2.16.04-.76-.1-1.55-.27-2.45-.12-.64-.25-1.35-.32-2.2-.1.17-.19.37-.24.62-.09.43-.07,1.02-.44,1.71-.37.69-1.12,1.48-1.25,2.06-.13.58.36.94.69,1.57.32.63.48,1.53.79,1.99.26.37.62.44,1,.35h0ZM87.36,42.51c.05-.79.12-1.58.17-2.24.07-.79.11-1.4.12-1.9-.28-.25-.58-.37-.86-.43-.38-.08-.7-.03-1.07-.13-.37-.1-.79-.34-1.08-.13-.29.2-.45.85-.4,1.32.04.47.29.77.44,1.14.15.37.2.82.42,1.11.22.29.61.42,1.01.65.4.22.79.53,1.24.61h0ZM85.74,33.72c-.3-.08-.63-.18-.98-.29-.86-.28-1.88-.68-2.54-1.1-.22-.14-.4-.28-.56-.42-.18.09-.36.19-.55.28.42.57.71,1.29,1.32,1.76.62.48,1.56.69,2.19.59.63-.1.93-.53,1.13-.83h0ZM79.21,33.06c-.73.31-1.49.62-2.28.93,0,.06,0,.13,0,.18.07.26.43.44.85.74.42.3.91.73,1.33.82.42.09.78-.15.77-.37-.02-.22-.41-.43-.52-.74-.11-.31.06-.73,0-1.14-.02-.15-.07-.29-.15-.42h0ZM75.89,34.4c-.66.25-1.34.51-2.03.76-.62.23-1.24.46-1.86.7-.03.04-.06.07-.08.11-.17.33-.06.86.2,1.28.26.41.67.71,1,.86.34.15.6.17.91.2.31.03.68.08,1.05-.1.38-.18.77-.59.86-.92.09-.34-.13-.6-.13-1.05,0-.44.23-1.07.15-1.56-.02-.1-.04-.2-.09-.28h0ZM67.64,37.53c-.61.24-1.2.48-1.75.7.29.17.6.12.99-.13.22-.14.47-.36.76-.57h0ZM63.17,39.45c-1.94.99-2.2,1.56-2.37,2.08.19.23.51.43.83.92.32.49.64,1.27,1.07,1.63.44.36,1,.31,1.22-.06.23-.37.13-1.05.18-1.6.05-.55.25-.97.54-1.32.29-.35.67-.62.79-.91.12-.29,0-.61-.4-.72-.39-.11-1.05-.01-1.58-.01-.1,0-.19,0-.29,0h0ZM59.97,44.93c0,.08,0,.17,0,.25.04.22.16.53.36.97.35.77.96,1.92,1.45,2.52.49.6.88.66,1.02.39.14-.27.03-.88.11-1.45.08-.56.34-1.08.34-1.46,0-.38-.27-.63-.69-.78-.41-.15-.97-.2-1.46-.31-.49-.12-.91-.3-1.07-.19-.02.02-.04.04-.05.07h0ZM60.64,52.04c-.02,1.01-.18,2.15-.34,3.2-.05.37-.11.72-.15,1.07.34-.15.65-.32.92-.36.6-.08,1.05.51,1.55,1.01.5.5,1.04.9,1.34.86.31-.04.38-.51-.03-1.19-.41-.68-1.29-1.58-1.83-2.49-.54-.91-.73-1.82-1.27-2.05-.06-.03-.13-.04-.2-.05h0ZM71.29,58.63c-.19-.17-.4-.33-.67-.35-.28-.02-.62.08-.75.26-.13.18-.03.44.01.8.04.35.03.8.17,1.01.14.22.44.2.67.07.23-.13.4-.38.57-.51.17-.13.34-.14.44-.24.09-.1.11-.28.03-.47-.08-.19-.26-.39-.46-.56h0ZM86,54.27c.18.05.44.2.57.4.13.2.15.45.06.58-.09.14-.3.16-.48.24-.18.08-.33.22-.53.3-.2.08-.44.11-.57.02-.13-.08-.13-.28-.13-.49,0-.21.02-.43.09-.55.07-.12.2-.14.3-.2.1-.06.18-.15.28-.23.1-.07.22-.13.4-.08h0ZM75.7,41.71c.08.24.07.64-.08.87-.15.23-.44.3-.64.29-.21,0-.33-.08-.47-.13-.13-.05-.28-.08-.37-.18-.09-.1-.13-.28-.05-.48.08-.21.27-.45.5-.58.22-.13.47-.15.68-.13.2.03.36.11.44.35h0ZM79.46,45.26c-.16-.19-.41-.4-.6-.52-.19-.12-.31-.14-.38-.04-.07.11-.08.35-.13.55-.05.2-.12.37-.14.55-.02.19.03.4.2.45.17.06.46-.05.7-.07.24-.02.43.04.53-.02.1-.05.1-.22.07-.39-.03-.17-.09-.34-.25-.53h0ZM65.91,58.46c.42.41.61,1.31.52,1.93-.08.62-.44.96-.54,1.42-.11.46.04,1.03-.05,1.46-.08.43-.39.7-.71.67-.32-.03-.64-.38-1.1-.62-.46-.24-1.04-.39-1.49-.76-.45-.37-.75-.96-.72-1.4.03-.43.4-.7.62-1,.22-.29.31-.61.58-.94.27-.33.73-.67,1.28-.88.55-.21,1.19-.29,1.61.12h0ZM67.42,60.86c.14.07.54.08.89-.11.35-.19.66-.57.6-.84-.06-.27-.47-.44-.67-.39-.2.05-.17.32-.25.52-.08.2-.27.33-.43.46-.16.14-.28.29-.14.36h0ZM69.31,40.66c.21-.17.34-.48.31-.71-.03-.23-.21-.38-.43-.58-.22-.2-.49-.45-.69-.53-.2-.08-.35,0-.51.17-.17.17-.35.42-.42.56-.07.14-.02.18.19.34.21.16.6.43.76.62.16.19.1.29.21.32.11.03.39,0,.59-.18h0ZM82.83,37.2c.25.02.58-.03.81-.17.23-.14.36-.38.37-.54.02-.16-.08-.25-.22-.44-.14-.19-.34-.47-.53-.56-.19-.09-.38.02-.57.09-.19.07-.39.11-.53.29-.14.17-.23.47-.21.68.02.21.14.32.29.43.15.11.33.21.58.23h0ZM69.58,46.57c-.14.04-.31.04-.47-.07-.16-.11-.31-.34-.44-.47-.13-.13-.23-.16-.32-.22-.09-.06-.17-.15-.1-.28.07-.13.28-.31.42-.48.14-.17.2-.34.34-.31.14.03.37.25.57.36.2.12.36.13.49.19.12.06.21.18.2.27-.01.1-.12.18-.19.31-.07.13-.1.31-.17.44-.07.13-.17.21-.31.26h0ZM74.4,40.13c.16.13.33.21.52.16.19-.05.4-.21.49-.37.09-.16.07-.32.14-.45.06-.13.21-.23.23-.37.02-.13-.1-.3-.26-.32-.16-.02-.37.1-.6.1-.24,0-.5-.12-.73-.06-.23.06-.43.3-.46.46-.03.16.1.25.24.39.14.14.28.33.44.46h0ZM67.65,44.34c-.28.2-.62.37-.9.35-.28-.01-.51-.21-.6-.41-.09-.2-.05-.42-.17-.67-.12-.26-.41-.55-.46-.92-.05-.37.15-.8.38-1.14.24-.34.52-.6.73-.63.21-.03.36.16.56.26.2.11.47.13.6.39.14.26.15.76.23,1.15.08.39.23.66.18.92-.04.26-.27.5-.56.7h0ZM73.16,56.18c-.15.14-.35.12-.5-.02-.15-.15-.25-.42-.39-.67-.14-.25-.32-.47-.34-.67-.02-.2.11-.38.28-.39.17-.02.36.12.56.23.2.11.4.19.56.25.15.07.26.12.28.21.02.09-.05.21-.13.42-.08.21-.17.5-.32.64h0ZM82.22,57.23c-.14.02-.38-.09-.56-.35-.17-.26-.28-.67-.25-.83.03-.16.18-.07.34-.04.16.03.32,0,.46.07.14.06.26.2.29.31.03.11-.03.18-.06.26-.02.08,0,.16-.02.28-.02.12-.06.28-.21.31h0ZM76.03,50.85c-.22.05-.51.14-.72.05-.22-.09-.36-.36-.48-.6-.12-.24-.21-.46-.13-.68.08-.22.34-.45.49-.67.15-.22.18-.44.34-.41.16.03.45.3.68.47.23.18.4.26.61.51.2.25.43.66.48.97.04.31-.1.52-.26.56-.16.04-.32-.1-.48-.17-.16-.07-.3-.07-.52-.03h0ZM83.4,50.72c-.19.15-.58.32-.89.29-.31-.03-.55-.25-.6-.45-.05-.19.09-.35.12-.55.03-.2-.05-.43.05-.61.11-.18.4-.3.67-.35.27-.04.51,0,.67.11.16.11.25.28.26.48,0,.21-.06.45-.08.63-.02.18,0,.3-.19.45h0ZM76.99,45.67c-.26.03-.82-.06-1.12-.21-.31-.14-.36-.34-.24-.51.12-.17.42-.33.61-.47.19-.14.28-.26.42-.12.13.14.32.54.43.83.12.28.17.44-.09.47h0ZM85.28,46.02c-.28.16-.71.09-.86-.21-.15-.3-.02-.84-.05-1.28-.04-.44-.25-.79-.11-.87.14-.09.63.08.94.36.32.28.46.68.47,1.07,0,.39-.11.77-.39.93h0ZM72.08,52.98c-.34-.06-.68-.29-.67-.61.02-.32.39-.73.48-1.17.09-.44-.1-.9-.08-1.18.03-.27.27-.35.52-.21.25.15.49.52.77.75.28.24.59.34.81.69.21.35.33.95.18,1.25-.15.3-.56.31-.94.37-.38.06-.73.16-1.08.1h0ZM78.67,51.13c.2.04.14-.06.31-.21.17-.15.56-.34.81-.7.25-.36.35-.89.47-1.26.12-.37.26-.59.2-.86-.07-.27-.34-.61-.74-.73-.4-.13-.94-.04-1.42-.13-.48-.09-.92-.35-1.2-.34-.28.01-.4.3-.3.66.1.36.42.78.59,1.32.16.54.17,1.21.4,1.63.23.42.69.59.89.63h0ZM83.08,55.67c-.35.08-.75-.09-.99-.4-.25-.31-.34-.76-.53-1.03-.19-.27-.47-.36-.68-.51-.21-.15-.33-.36-.13-.67.2-.31.72-.71,1.18-.79.45-.08.83.15,1.19.23.36.08.7,0,.98.16.28.16.51.54.5.81,0,.27-.24.41-.37.64-.13.23-.16.54-.33.86-.17.32-.46.63-.81.71h0ZM73.28,60.2c.29.06.65.02.95-.14.29-.16.51-.44.45-.61-.06-.17-.42-.22-.7-.35-.29-.13-.51-.32-.79-.28-.28.03-.62.3-.74.5-.11.2,0,.35.16.51.16.15.38.32.67.38h0ZM70.06,57.37c-.61.47-1.34.62-1.94.4-.6-.22-1.09-.83-1.61-1.8-.53-.97-1.09-2.31-1.67-3.52-.57-1.21-1.16-2.3-1-3.24.16-.93,1.05-1.7,1.72-2.26s1.13-.91,1.62-.73c.49.17,1.03.87,1.61,1.31.58.44,1.21.63,1.51.94.3.32.26.76.15,1.32-.11.56-.28,1.23-.09,2.18.19.95.74,2.17.77,3.16.03,1-.46,1.77-1.07,2.24h0ZM83.47,47.88c-.49-.08-1.42-.49-2.01-1.14-.59-.65-.84-1.55-1.24-2.1-.41-.56-.97-.77-1.58-1.16-.61-.38-1.26-.93-1.73-1.48-.46-.55-.74-1.1-.55-1.38.19-.28.85-.3,1.32-.53.47-.23.76-.69,1.06-1.28.3-.59.63-1.33,1.13-1.75.5-.42,1.18-.52,1.48-.36.3.16.21.59.34,1.17.14.58.5,1.32.74,1.96.24.64.35,1.19.25,1.8-.1.61-.42,1.29-.36,1.93.06.65.5,1.27.86,1.91.35.64.62,1.3.73,1.76.11.46.05.72-.44.64h0ZM73.93,48.71c.44.27.63.38.71.24.07-.14.02-.54.1-.91.08-.37.29-.71.13-.99-.16-.28-.68-.49-1.03-.82-.34-.33-.51-.78-.51-1.24,0-.45.16-.9.18-1.29.02-.39-.11-.73-.12-1.21,0-.48.11-1.11.02-1.56-.08-.45-.36-.72-.64-.86-.28-.14-.55-.15-.8-.26-.25-.12-.48-.34-.75-.29-.27.05-.59.36-.63.74-.04.38.2.83.11,1.3-.08.47-.49.96-.68,1.47-.19.51-.17,1.03.05,1.43.22.4.65.67,1.02,1.16.37.49.68,1.21,1.19,1.79.51.58,1.2,1.02,1.65,1.3h0ZM80.77,58.47c.42-.32.34-.69.22-.94-.12-.25-.28-.39-.34-.63-.06-.25-.04-.61-.15-.91-.12-.3-.39-.53-.78-.74-.4-.21-.92-.41-1.34-.86-.41-.46-.72-1.19-1.23-1.62-.51-.43-1.23-.57-1.73-.35-.5.21-.8.78-.8,1.24,0,.46.29.82.26,1.29-.03.47-.37,1.06-.4,1.54-.03.48.26.86.74,1.06.48.2,1.15.23,1.73.5.58.27,1.06.79,1.77.91.71.12,1.63-.16,2.05-.48Z"/>
          <path class="cls-4" d="M78.92,30.32c-.57-.28-.99-.61-1.6-.9-.61-.29-1.41-.55-2.34-.76-.93-.21-1.97-.37-3.14-.85-1.17-.49-2.46-1.31-3.73-1.82-1.27-.51-2.52-.71-3.44-1.07-.92-.36-1.51-.88-2.21-1.31-.7-.44-1.52-.8-2.04-.92-.52-.13-.75-.02-1,.03-.25.05-.52.05-.85.18-.33.13-.72.38-1.55.71-.83.33-2.11.75-3.07,1.07-.96.32-1.61.55-2.11.9-.5.34-.86.8-1.94,1.26-1.08.46-2.87.92-3.95,1.28s-1.43.62-2.15,1.03c-.72.41-1.79.97-2.88,1.38-1.08.42-2.17.69-3.31,1.08-1.13.39-2.31.91-2.9,1.38-.32.26-.47.51-.52.74.31.15.61.3.87.45.89.47,1.46.85,2.02,1.12.56.27,1.1.44,1.89.96.79.52,1.82,1.38,2.84,2.09,1.02.72,2.02,1.29,3.11,1.72,1.09.43,2.27.72,3.36.95,1.09.23,2.1.4,3.03.75.93.34,1.79.86,2.6,1.35.8.49,1.55.95,2.48,1.41.93.46,2.05.92,2.71,1.15.66.23.86.23,1.33.11.47-.11,1.22-.34,1.97-.67.75-.33,1.49-.76,2.05-1.03.56-.27.93-.39,1.74-.53.8-.14,2.04-.32,2.98-.6.95-.29,1.61-.69,2.38-1.18.77-.49,1.66-1.06,2.48-1.39.82-.33,1.56-.42,2.28-.6.72-.19,1.41-.47,2.24-.73.83-.26,1.81-.49,2.58-1.05s1.35-1.45,2.21-2.02,2.01-.83,3.11-1.08c.35-.08.7-.15,1.03-.23,0-.34-.24-.49-.7-.65-.47-.16-1.17-.32-2.03-.6-.86-.28-1.88-.68-2.54-1.1-.66-.42-.96-.85-1.48-1.18-.52-.33-1.25-.56-1.82-.84Z"/>
          <path class="cls-5" d="M69.69,26.73c-.52-.27-1.06-.54-1.58-.75-1.27-.51-2.52-.71-3.44-1.07-.92-.36-1.51-.88-2.21-1.31-.7-.44-1.52-.8-2.04-.92-.52-.13-.75-.02-1,.03-.25.05-.52.05-.85.18-.33.13-.72.38-1.55.71-.83.33-2.11.75-3.07,1.07-.96.32-1.61.55-2.11.9-.18.12-.33.26-.51.4.61.29,1.38.29,1.74.45.39.17.3.54.03.8-.27.26-.73.42-.96.63-.23.21-.23.46.15.75.38.3,1.13.64,1.97.98.84.34,1.78.68,2.62.25.84-.43,1.6-1.64,2.41-2.29s1.68-.74,2.67-.62c.99.13,2.11.47,3.05.48.94.01,1.69-.31,2.66-.47.66-.11,1.42-.14,2.04-.21h0ZM41.19,30.42c-.09.04-.18.07-.27.11-1.08.42-2.17.69-3.31,1.08-1.13.39-2.31.91-2.9,1.38-.32.26-.47.51-.52.74.31.15.61.3.87.45.89.47,1.46.85,2.02,1.12.56.27,1.1.44,1.89.96.27.18.57.4.89.64.19-.25.16-.51.29-.67.19-.26.77-.3,1.29-.43.52-.13,1-.33,1.52-.4.51-.07,1.05-.01,1.77.32.72.33,1.61.93,2.48,1.02.87.08,1.71-.35,2.92-.7,1.21-.35,2.79-.62,4.08-.82,1.29-.21,2.29-.35,2.59-.84.3-.49-.12-1.34-.91-1.69-.8-.35-1.99-.22-3.41-.47-1.43-.25-3.09-.89-4.82-1.05-1.72-.16-3.5.16-5.1-.23-.48-.12-.94-.3-1.37-.51h0ZM45.63,40.34c.88.29,1.79.51,2.65.69,1.09.23,2.09.4,3.03.75.93.34,1.79.86,2.6,1.35.8.49,1.55.95,2.48,1.41.93.46,2.05.92,2.71,1.15.11.04.2.07.29.09.03-.06.05-.12.06-.18.18-.76-.51-2.09-1.41-2.93-.9-.84-2.02-1.21-2.6-1.95-.58-.74-.61-1.85-1.53-2.39-.91-.55-2.71-.53-3.86-.5-1.15.03-1.66.08-2.03.41-.36.33-.58.94-1.09,1.33-.37.29-.91.46-1.32.77h0ZM87.32,34.3c-.12-.11-.29-.19-.53-.27-.47-.16-1.17-.32-2.03-.6-.86-.28-1.88-.68-2.54-1.1-.66-.42-.96-.85-1.48-1.18-.03-.02-.05-.03-.08-.05-.18.3-.18.72.04,1.03.27.39.86.63,1.24,1.02.38.39.54.92.92,1.27.38.34.99.49,1.57.42.58-.07,1.14-.37,1.75-.48.39-.07.79-.06,1.15-.06h0ZM62.5,33.2c.37-.6,1.69-.81,2.92-.72,1.23.09,2.37.48,3.21.01.83-.47,1.36-1.79,2.11-2.49.75-.7,1.73-.76,2.58-.37.84.4,1.55,1.27,2.42,2.15.87.88,1.89,1.77,1.93,2.51.04.74-.91,1.34-1.59,1.99-.68.65-1.09,1.35-2.01,1.61-.92.26-2.34.08-3.27-.28-.93-.36-1.36-.91-2.07-1.23-.71-.32-1.69-.41-2.57-.34-.88.07-1.65.3-2.11.29-.46-.01-.59-.26-.96-.89-.37-.63-.96-1.63-.59-2.24h0ZM63.04,39.75c.39-.36,1.45-.86,2.53-1,1.08-.13,2.19.1,2.42.54.23.44-.41,1.08-.73,1.63-.32.55-.31,1.01-.75,1.13s-1.34-.1-1.97-.41c-.63-.31-.99-.7-1.3-1.01-.32-.31-.59-.52-.2-.88h0ZM60.75,29.64c-.05-.43.3-.78.83-.83.52-.05,1.22.19,1.83.3.61.11,1.14.09,1.52.23.39.15.64.47.46.78-.18.31-.8.6-1.28.92-.48.31-.82.64-1.2.66-.38.02-.79-.28-1.22-.69-.43-.41-.89-.94-.94-1.37Z"/>
          <path class="cls-3" d="M86.24,34.95c-1.03.26-1.95.49-2.85,1.09-.86.64-1.35,1.42-2.17,2.07-.86.61-1.63.8-2.61,1.12-.75.25-1.48.55-2.24.77-.79.21-1.46.31-2.24.62-.87.38-1.63.89-2.42,1.4-.87.56-1.45.91-2.45,1.23-1.01.3-1.99.44-3.02.63-.67.13-1.03.21-1.64.51-.7.35-1.35.72-2.06,1.04-.57.27-1.28.5-1.89.66-.04.01-.09.02-.13.03-.65.15-.9.09-1.53-.13-.94-.33-1.86-.73-2.75-1.17-.88-.44-1.66-.92-2.5-1.43-.85-.52-1.6-.97-2.53-1.34-.99-.36-1.96-.54-2.98-.76-1.19-.27-2.25-.55-3.39-1-1.19-.5-2.08-1.04-3.13-1.8-.95-.7-1.84-1.47-2.8-2.15-.67-.44-1.17-.65-1.86-1-.59-.32-1.17-.69-1.75-1.03.6.31,1.18.64,1.8.94.73.32,1.21.49,1.93.92.98.62,1.92,1.37,2.88,2.04,1.04.7,1.93,1.19,3.1,1.65,1.12.41,2.16.66,3.33.89,1.06.21,2.05.37,3.08.73.99.37,1.76.82,2.66,1.36.82.49,1.6.95,2.46,1.38.87.42,1.77.8,2.68,1.12.5.17.63.22,1.14.1,0,0,.1-.03.12-.03.62-.17,1.19-.37,1.79-.62.7-.32,1.35-.68,2.04-1.02.68-.32,1.09-.42,1.83-.55,1-.17,1.97-.3,2.95-.58.93-.29,1.5-.62,2.32-1.12.84-.52,1.62-1.01,2.54-1.39.83-.31,1.49-.39,2.32-.58.76-.19,1.49-.47,2.24-.69.94-.27,1.72-.43,2.56-.98.84-.62,1.35-1.36,2.25-1.97.8-.53,1.99-.78,2.93-.96Z"/>
        </g>
        <path class="cls-7" d="M39.67,31.58c.31,0,.92.04,1.37.13.46.1.76.25.58.38-.18.13-.86.22-1.56.27-.7.05-1.42.04-1.79-.05-.36-.1-.36-.28-.18-.41.18-.13.55-.2.79-.22.23-.03.33-.01.39-.03.06-.02.08-.06.4-.06h0ZM68.52,30.26c.37-.04.98-.09,1.33-.07.35.02.45.1.35.19-.1.09-.41.19-.76.26-.36.07-.76.13-1,.14-.23.01-.29-.01-.36-.09-.07-.07-.15-.2-.11-.28s.18-.12.55-.16h0ZM60,29.16c.37-.03,1.07-.09,1.57-.03s.79.21.92.35c.13.13.08.24-.41.34-.5.1-1.45.18-1.93.24-.49.06-.51.09-.56.02-.05-.07-.12-.23-.2-.39-.08-.15-.16-.3-.13-.38.03-.08.17-.1.25-.11.09-.01.12-.02.49-.05h0ZM60.55,24.81c.51-.02,1.27-.08,1.85-.05.58.03.98.16,1.14.31.16.16.08.34-.58.46-.66.12-1.91.16-2.55.16-.65,0-.7-.05-.82-.2-.11-.15-.29-.39-.31-.53-.02-.13.12-.15.31-.15.2,0,.45,0,.95-.02h0ZM55.15,40.27c.48-.04,1.24-.11,1.87-.11.63,0,1.15.08,1.34.23.19.15.06.36-.46.52-.52.16-1.41.26-1.97.33-.56.06-.78.08-.96.06-.18-.03-.33-.1-.44-.24-.12-.13-.21-.33-.25-.46-.04-.13-.03-.21.07-.25.11-.04.32-.04.8-.08h0ZM81.89,34.22c.49-.08,1.38-.17,1.99-.22.61-.04.93-.03,1.13.04.21.07.29.19.19.29-.11.1-.42.19-.77.28-.35.09-.75.17-.97.19-.21.02-.24-.01-.58-.06-.34-.05-1-.12-1.34-.17-.33-.06-.34-.11-.3-.16.05-.05.15-.11.64-.19h0ZM68.62,40.06c.32-.05.87-.11,1.29-.1.43,0,.73.08.76.18.03.1-.21.22-.67.34-.46.12-1.14.24-1.48.29q-.34.06-.4-.08c-.06-.14-.17-.43-.17-.53,0-.11.08-.04.17-.02.09.01.17-.03.49-.08h0ZM59.21,35.21c.59,0,1.42,0,1.99.04.57.04.87.12.91.25.05.13-.17.31-.77.46-.6.15-1.59.27-2.2.32-.62.05-.87.02-1.01-.17-.15-.19-.19-.55-.03-.73.16-.18.52-.17,1.11-.17h0ZM45.98,33.67c.36-.05.87-.12,1.34-.11.48,0,.93.09.83.31-.11.23-.77.59-1.34.77-.57.18-1.03.16-1.34.06-.31-.11-.47-.31-.49-.48-.02-.17.08-.3.25-.38.16-.08.39-.12.75-.17Z"/>
        <g>
          <path class="cls-2" d="M58.21,25.11c.05-.31.48-.79.81-1.01.33-.22.56-.17.82-.14.25.03.52.05.75.13.23.08.41.22.54.35.13.13.22.25.23.47,0,.22-.06.54-.22.69-.16.15-.4.13-.71.18-.31.04-.68.15-.96.15s-.47-.1-.73-.23c-.26-.13-.58-.27-.52-.59h0ZM55.53,28.06c.12-.12.34-.22.56-.23.22-.02.43.04.62.12.18.07.33.16.33.25,0,.09-.16.17-.27.26-.11.09-.18.19-.35.24-.17.05-.44.06-.63.02-.19-.04-.3-.14-.35-.26-.04-.12-.02-.27.1-.39h0ZM52.88,40.48c0-.29.22-.67.58-.78.36-.11.85.06,1.29.15.43.09.81.11,1.06.24.26.13.39.39.31.51-.08.12-.38.12-.64.28-.26.16-.47.49-.81.56-.34.07-.82-.11-1.18-.3-.36-.19-.6-.38-.61-.66h0ZM58.57,29.22c.2-.27.51-.65.83-.66.33-.01.66.34.96.55.29.2.55.26.67.36.13.1.13.26-.09.4-.22.14-.65.26-.92.36-.27.1-.39.18-.59.16-.21-.02-.51-.13-.73-.24-.22-.11-.35-.23-.37-.36-.03-.13.05-.29.25-.56h0ZM36.93,32.01c.03-.25.16-.7.38-.99.22-.29.52-.43.85-.32.33.11.69.46,1.09.67.4.22.85.3,1.04.45.18.14.1.34-.24.44-.34.1-.93.11-1.34.16-.41.05-.65.14-.9.15-.25,0-.52-.08-.69-.16-.16-.08-.23-.14-.19-.4h0ZM56.94,35.89c-.04-.31.16-.85.39-1.12.23-.27.5-.27.78-.17.29.1.6.3.88.37.28.07.52.01.72.17.2.16.36.53.31.71-.05.18-.3.17-.54.21-.24.04-.48.14-.71.29-.23.15-.46.35-.66.36-.2.01-.38-.16-.61-.29-.23-.13-.52-.22-.56-.53h0ZM79.73,34.54c0-.29.4-.7.88-.84s1.04-.03,1.44.12c.39.14.62.31.9.42.28.11.63.15.8.25.16.1.15.26-.03.33-.18.07-.52.05-.88.12-.36.07-.75.23-1.15.29-.39.06-.79.03-1.18-.08-.39-.11-.77-.29-.77-.59h0ZM67.26,40.22c0-.17.16-.48.36-.63.2-.15.44-.15.65-.03.21.11.39.34.58.49.19.15.38.21.49.3.1.09.11.2.03.26-.09.05-.27.05-.47.13-.21.08-.44.24-.65.28-.21.04-.38-.03-.49-.14s-.13-.27-.23-.36c-.1-.09-.26-.11-.27-.28h0ZM43.36,34.38c0-.23.22-.64.46-.8.24-.16.51-.07.84-.1.33-.03.72-.18,1.1-.19.38-.01.74.11.88.27.14.16.05.37,0,.62-.05.24-.06.52-.17.68-.11.15-.33.19-.63.11-.3-.08-.69-.27-1.05-.33-.36-.06-.69,0-.96.02-.27,0-.48-.04-.47-.27h0ZM67.19,30.49c0-.17.03-.38.11-.55.08-.17.2-.29.4-.24.2.05.49.29.78.43.29.14.57.18.74.27.17.08.21.21.1.29-.11.08-.38.11-.68.21-.3.1-.64.26-.86.27-.23.01-.35-.12-.44-.25-.09-.13-.15-.26-.16-.43h0ZM49.35,29.44c.09-.19.26-.44.44-.59.18-.15.35-.2.5-.12.15.07.27.26.44.39.17.13.38.2.46.31.08.12.02.28-.17.46-.19.18-.51.38-.74.43-.23.05-.36-.03-.51-.1-.15-.07-.3-.11-.39-.17-.09-.05-.1-.12-.11-.21-.01-.09-.02-.22.07-.41Z"/>
          <path class="cls-1" d="M59.29,23.97c.2-.06.37-.03.55-.01.25.03.52.05.75.13.23.08.41.22.54.35.13.13.22.25.23.47,0,.22-.06.54-.22.69-.05.05-.11.08-.17.1h0c-.06-.21-.15-.51-.27-.77-.12-.26-.26-.48-.44-.63-.18-.15-.41-.21-.58-.26-.17-.04-.29-.06-.34-.06-.03,0-.04,0-.04-.01h0ZM38.46,30.91c.1.12.26.34.5.53.24.19.55.34.67.51.09.12.08.26.11.37.11-.02.21-.04.3-.06.34-.1.43-.3.24-.44-.18-.14-.63-.23-1.04-.45-.36-.19-.68-.49-.98-.63,0,0,0,0,.01,0,.02.01.07.04.18.16h0ZM50.42,28.83c.11.16.24.37.3.58.06.22.06.45.08.62,0,.01,0,.02,0,.04.08-.06.16-.12.22-.18.19-.18.25-.35.17-.46-.08-.12-.29-.18-.46-.31-.13-.1-.24-.24-.35-.33l.03.05h0ZM59.94,28.83c.09.11.32.35.44.57.13.22.16.42.17.6,0,.01,0,.02,0,.03.15-.05.29-.11.38-.17.22-.14.22-.29.09-.4-.13-.1-.38-.16-.67-.36-.18-.12-.38-.31-.58-.43.03.03.06.04.07.05.03.02,0,0,.09.1h0ZM68.01,29.85c.13.09.36.24.49.45.12.19.17.41.19.58.29-.09.54-.12.65-.2.11-.08.06-.21-.1-.29-.17-.08-.45-.13-.74-.27-.23-.11-.47-.29-.65-.38,0,0,0,0,0,0,.01,0,.04.02.17.11h0ZM81.45,33.71c.21.07.54.21.77.38.23.17.36.37.43.56.04.1.05.21.06.3.04,0,.08-.02.12-.03.36-.07.7-.05.88-.12.18-.07.2-.23.03-.33-.16-.1-.51-.14-.8-.25-.28-.11-.51-.27-.9-.42-.28-.1-.63-.19-.99-.18,0,0,.02,0,.03,0,.05,0,.15,0,.36.08h0ZM68.48,39.72c.08.09.18.22.24.37.06.14.07.3.07.47,0,.07,0,.14,0,.21.03-.02.07-.03.1-.04.21-.08.39-.07.47-.13.09-.05.07-.17-.03-.26-.1-.09-.3-.15-.49-.3-.18-.14-.36-.36-.56-.48,0,0,0,0,.02.01.03.02.09.06.17.15h0ZM54.25,39.76c.21.07.57.19.8.34.24.15.35.32.39.52.02.09.02.19.01.28.01,0,.02-.02.03-.02.26-.16.55-.16.64-.28.08-.12-.06-.37-.31-.51-.26-.13-.63-.15-1.06-.24-.27-.06-.56-.14-.83-.17,0,0,0,0,.01,0,.04,0,.11.02.32.08h0ZM58.25,34.7c.2.11.52.33.73.52.2.19.28.36.3.57.01.11.01.22.02.33.07-.02.13-.04.2-.05.24-.04.5-.03.54-.21.05-.18-.11-.55-.31-.71-.2-.16-.44-.1-.72-.17-.28-.07-.59-.27-.88-.37-.06-.02-.12-.04-.17-.05,0,0,.01,0,.02,0,.03,0,.09.02.29.14h0ZM45.43,33.39c.28,0,.6.07.8.27.2.2.28.53.3.85,0,.08,0,.17,0,.25.06-.16.08-.38.12-.57.05-.24.14-.45,0-.62-.14-.16-.5-.29-.88-.27-.23,0-.46.06-.68.11.1,0,.22-.02.34-.01Z"/>
        </g>
      </g>
      <g>
        <g>
          <path class="cls-10" d="M44.78,38.34c-.57-.28-.99-.61-1.6-.9-.61-.29-1.41-.55-2.34-.76-.93-.21-1.97-.37-3.14-.85-1.17-.49-2.46-1.31-3.73-1.82-1.27-.51-2.52-.71-3.44-1.07-.92-.36-1.51-.88-2.21-1.31-.7-.44-1.52-.8-2.04-.92-.52-.13-.75-.02-1,.03-.25.05-.52.05-.85.18-.33.13-.72.38-1.55.71-.83.33-2.11.75-3.07,1.07-.96.32-1.61.55-2.11.9-.5.34-.86.8-1.94,1.26-1.08.46-2.87.92-3.95,1.28s-1.43.62-2.15,1.03c-.72.41-1.79.97-2.88,1.38-1.08.42-2.17.69-3.31,1.08-1.13.39-2.31.91-2.9,1.38-.59.47-.59.9-.52,1.31.07.41.22.8.34,1.23.12.43.22.9.22,1.56,0,.66-.12,1.51-.18,2.2-.06.7-.06,1.24,0,1.92.06.68.17,1.5.11,2.26-.07.76-.31,1.45-.44,2.12-.12.67-.12,1.31-.01,2,.11.69.33,1.44.33,2.16s-.22,1.43-.22,2.21.22,1.64.27,2.39c.05.75-.06,1.38-.07,1.83,0,.45.09.72.34.94.25.22.65.37,1.03.6.37.23.72.53,1.45.8.73.27,1.85.52,2.66.96.81.44,1.31,1.09,2.31,1.65,1,.56,2.49,1.03,3.62,1.36,1.13.33,1.89.52,2.81,1.06.93.55,2.02,1.45,2.91,1.96.9.51,1.6.62,2.26.7.66.07,1.28.1,2.05.37.77.27,1.71.77,2.43,1.2.72.43,1.24.79,1.66.89.42.1.73-.05,1.2-.13.47-.08,1.08-.08,1.58-.42.5-.34.87-1.02,1.74-1.55.87-.53,2.23-.92,3.19-1.28.96-.36,1.52-.69,2.58-1.05,1.05-.37,2.6-.77,3.59-1.23.99-.47,1.42-1,1.82-1.36.39-.37.75-.57,1.26-.67.5-.1,1.15-.1,1.69-.29.54-.19.97-.56,1.38-.83.41-.27.8-.42,1.36-.65.57-.23,1.31-.53,2.04-.74.72-.21,1.43-.32,1.88-.54.45-.22.65-.53,1.07-.69.42-.16,1.05-.16,1.36-.58.32-.42.32-1.27.2-1.99-.11-.72-.34-1.33-.34-1.99s.23-1.4.27-2.16c.04-.76-.1-1.55-.27-2.45-.17-.9-.35-1.92-.37-3.32-.01-1.4.14-3.18.25-4.48.11-1.3.17-2.12.08-2.74-.09-.62-.32-1.05-.32-1.53,0-.47.21-.99.2-1.33s-.24-.5-.7-.65c-.47-.16-1.17-.32-2.03-.6-.86-.28-1.88-.68-2.54-1.1-.66-.42-.96-.85-1.48-1.18-.52-.33-1.25-.56-1.82-.84Z"/>
          <path class="cls-6" d="M25.89,63.95c-.38.2-1.51.24-2.47.37-.95.13-1.72.36-2.4.09-.68-.27-1.27-1.04-1.47-1.55-.2-.51-.01-.76.1-1.11.12-.35.17-.81.37-1.09.2-.28.54-.38.86-.31.33.07.64.31,1.04.45.4.14.88.18,1.2.48.32.3.47.86.73,1.17.26.31.62.36.92.41.3.05.53.1.83.31.3.21.67.58.29.79h0ZM.25,41.33c-.27.35-.26.68-.2,1,.07.38.2.74.31,1.13h.02c.29.22.58.35.81.49.23.14.41.31.66.31.25,0,.56-.15.92-.26.35-.11.74-.17.87-.39.13-.22,0-.58-.33-.94-.33-.36-.85-.7-1.48-.95-.54-.21-1.15-.36-1.58-.39H.25ZM.54,46.08c-.04.42-.09.85-.12,1.24-.06.7-.06,1.24,0,1.92.02.21.04.43.06.67.2-.03.4-.07.56-.16.32-.18.51-.55.79-.9.28-.36.64-.71.78-1.14.14-.43.05-.94-.24-1.26-.29-.32-.78-.44-1.43-.4-.13,0-.27.02-.41.04h0ZM.45,52.08c-.1.54-.26,1.04-.35,1.53-.12.67-.12,1.31-.01,2,.11.69.33,1.44.33,2.16,0,.1,0,.2-.01.3.07-.04.13-.08.2-.12.61-.38,1.25-.95,1.72-1.49.47-.55.77-1.07,1.38-1.39.61-.32,1.53-.44,2.26-.92.73-.49,1.27-1.35,1.42-1.82.15-.48-.1-.57-.57-.53-.47.04-1.16.21-1.85.47-.69.26-1.37.6-2.02.57-.65-.03-1.27-.44-1.86-.63-.21-.07-.41-.11-.62-.12H.45ZM.26,59.11c-.04.29-.07.58-.07.88,0,.25.02.51.05.77.19.11.37.09.48.02.11-.07.16-.21.24-.34.07-.13.17-.24.2-.44.04-.2.01-.5-.19-.68-.17-.15-.47-.22-.71-.22H.26ZM.35,61.5c.08.01.15.03.22.04.48.06.83-.02,1.21.06.39.07.81.3,1.25.36.45.06.92-.03,1.3-.33.38-.29.67-.78.96-.9.3-.12.6.14.96.27.35.13.75.14.88.23.13.09,0,.26-.34.66-.34.4-.87,1.03-1.52,1.44-.65.42-1.4.62-1.95.91-.54.29-.87.67-1.3.84-.43.16-.95.11-1.42-.15-.03-.02-.06-.03-.09-.05-.09-.17-.13-.39-.13-.68,0-.45.12-1.08.07-1.83-.02-.28-.06-.58-.11-.89H.35ZM2.23,66.07c.25.16.54.33.98.49.08.03.17.06.26.09.14-.09.33-.19.44-.3.14-.14.16-.31.14-.45-.02-.14-.09-.26-.21-.34-.12-.09-.29-.15-.41-.24-.12-.09-.18-.2-.28-.23-.09-.03-.22.04-.3.15-.08.11-.12.28-.26.46-.1.13-.26.26-.36.38h0ZM4.65,67.02c.43.14.85.3,1.22.5.81.44,1.31,1.09,2.31,1.65,1,.56,2.49,1.03,3.62,1.36l.22.06c.31-.1.61-.2.88-.3,1.04-.38,1.71-.77,2.02-1.33.31-.57.26-1.31-.11-1.98-.37-.67-1.07-1.27-2.06-1.39-.99-.12-2.28.25-3.24.31-.96.05-1.61-.22-2.14-.4-.54-.19-.97-.29-1.33-.04-.36.25-.63.84-1.15,1.35-.07.07-.15.14-.23.2h0ZM14.91,71.78c.86.55,1.81,1.32,2.61,1.77.79.45,1.42.59,2.01.67.09-.14.17-.28.27-.41.31-.42.7-.69.77-1,.08-.31-.15-.65-.56-.8-.41-.14-1-.09-1.43-.26-.44-.17-.72-.57-1.33-.75-.6-.17-1.52-.11-1.99.24-.18.14-.3.32-.36.53h0ZM22.27,74.78c.67.28,1.4.68,2,1.03.72.43,1.24.79,1.66.89.1.03.2.04.3.03-.05-.29-.14-.61-.31-.85-.29-.42-.81-.63-1.06-.94-.25-.31-.24-.71-.52-.93-.28-.22-.85-.27-1.31-.02-.32.17-.58.48-.75.79h0ZM16.22,65.95c-.2.17-.38.34-.44.61-.06.27-.01.63.15.78.16.15.43.09.79.1.36.01.79.09,1.03-.02.23-.11.26-.4.17-.65-.1-.25-.32-.45-.42-.63-.1-.19-.09-.36-.17-.47-.08-.11-.26-.15-.46-.1-.2.05-.42.2-.62.37h0ZM14.05,50.77c.08-.18.26-.4.48-.51.22-.1.46-.09.59.03.12.11.12.32.17.51.05.19.16.36.22.57.05.21.04.46-.06.57-.1.11-.3.09-.5.06-.2-.03-.42-.08-.53-.17-.11-.09-.11-.22-.16-.33-.04-.11-.13-.2-.18-.31-.06-.11-.1-.23-.02-.41h0ZM4.18,55.93c.21-.13.39-.17.56-.17.17,0,.34.03.38.13.04.1-.05.28-.06.52-.01.24.04.54-.04.7-.08.16-.29.17-.48.13-.18-.04-.33-.14-.53-.22-.19-.08-.43-.13-.53-.21-.1-.08-.05-.2.09-.37.14-.17.39-.39.6-.52h0ZM26.98,64.53c-.45.12-1.01.54-1.3.93-.29.39-.3.77-.37,1.08-.06.31-.18.55-.19.88-.01.33.07.75.27.98.2.23.5.28.8.44.29.16.58.42.98-.01.41-.43.94-1.57,1.12-2.36.18-.8,0-1.26-.25-1.57-.26-.32-.6-.49-1.05-.37h0ZM23.6,66.81c-.38-.04-1.05.35-1.41.69-.36.34-.4.62-.6.9-.2.28-.56.55-.67,1-.11.44.04,1.06.44,1.36.41.3,1.08.29,1.66.39.57.1,1.05.32,1.36.19.32-.12.47-.58.4-1-.07-.42-.37-.81-.52-1.23-.14-.42-.13-.88-.17-1.34-.04-.46-.12-.92-.5-.95h0ZM24.36,53.12c-.66-.1-.73.39-.65,1.1.08.72.31,1.66.4,2.43.09.76.05,1.33.27,1.82.22.49.71.89,1.25,1.01.54.12,1.13-.04,1.73-.25.6-.22,1.22-.49,1.36-.86.14-.37-.19-.85-.47-1.49-.28-.65-.51-1.46-1.25-2.22-.74-.75-1.99-1.44-2.65-1.54h0ZM17.83,43.31c.07.31.27.79.35,1.25.08.47.04.93.22,1.2s.59.37.95.37c.36,0,.67-.07.94-.17s.5-.21.59-.54c.09-.33.03-.88-.06-1.28-.09-.41-.2-.68-.45-.98-.25-.29-.64-.61-.9-.75-.26-.14-.39-.09-.63-.02-.24.07-.6.18-.81.31-.21.13-.27.28-.19.6h0ZM17.87,70.11c.09-.13.15-.52.02-.9-.13-.38-.46-.73-.74-.72-.28.02-.51.4-.48.61.02.2.29.22.48.33.18.11.28.32.4.49.11.17.24.32.34.19h0ZM21.96,66.45c.1.29-.05.46-.27.59-.22.13-.51.22-.88.4-.38.19-.84.48-1.09.45-.25-.03-.3-.37-.4-.63-.1-.25-.27-.42-.38-.57s-.17-.3-.18-.43c-.01-.12.03-.22.14-.3.11-.08.3-.16.46-.31.15-.15.27-.38.43-.43.16-.05.35.08.59.13.24.05.52.03.83.21.31.19.66.59.75.87h0ZM14.07,63.75c.12.17.07.36-.1.49-.17.13-.45.19-.72.29-.27.1-.51.25-.72.24-.2,0-.36-.17-.35-.34,0-.17.17-.34.31-.52.14-.18.24-.37.33-.52.09-.14.16-.24.25-.25.09,0,.2.08.4.19.2.11.47.24.59.41h0ZM16.43,54.94c0,.15-.14.37-.43.5-.28.13-.7.18-.86.13-.15-.05-.05-.19,0-.35.05-.15.05-.32.13-.45.08-.13.24-.23.35-.24.11-.01.18.06.25.09.07.03.15.03.27.06.12.03.27.1.27.25h0ZM9.21,60.13c-.01-.22.01-.37.1-.51.09-.15.25-.29.23-.45-.01-.16-.2-.34-.52-.34-.31,0-.75.17-1.03.33-.27.16-.38.32-.59.52-.21.2-.52.45-.57.6-.05.15.16.22.36.4.2.18.38.47.59.58.21.11.44.05.69-.03.26-.08.55-.18.66-.38.12-.2.07-.5.05-.72h0ZM16.82,47.45c-.16.21-.42.52-.68.62-.25.1-.49,0-.78,0-.28,0-.61.11-.81-.02-.21-.13-.3-.51-.27-.75.03-.25.17-.37.21-.57.04-.2-.03-.47-.04-.65,0-.18.04-.27.28-.28.23-.01.65.04,1.1.09.45.05.93.09,1.16.29.22.19.18.53.13.75-.05.22-.12.32-.29.52h0ZM10.16,52.82c.12.21.23.62.16.92-.07.31-.33.51-.53.53-.2.02-.34-.14-.53-.2-.19-.06-.44-.01-.6-.14-.16-.13-.24-.44-.25-.71,0-.27.07-.5.2-.65.13-.15.31-.2.51-.18.2.02.43.12.61.17.18.05.3.05.42.25h0ZM4.23,58.43c0,.26-.18.8-.37,1.08-.19.28-.38.31-.54.17-.15-.14-.26-.46-.37-.67-.11-.21-.22-.32-.06-.43.16-.11.58-.23.88-.31.3-.07.46-.1.46.16h0ZM5.78,50.28c.12.3-.01.71-.33.82-.32.1-.83-.11-1.27-.13-.44-.03-.81.13-.88-.02-.07-.15.17-.61.5-.88.33-.27.74-.35,1.13-.3.39.05.75.22.86.52h0ZM10.75,64.35c-.11.33-.39.63-.7.57-.31-.06-.67-.49-1.09-.64-.42-.15-.91-.03-1.18-.09-.27-.07-.31-.32-.13-.54.18-.22.58-.41.86-.66.28-.24.42-.54.8-.7.38-.16.99-.19,1.27,0,.28.19.22.6.22.98,0,.39.05.75-.06,1.08h0ZM9.88,57.56c-.07.19-.3.62-.75.79-.45.17-1.11.07-1.67.15-.56.08-1.03.34-1.39.39-.37.05-.64-.11-.61-.39.03-.28.35-.67.51-1.14.16-.47.16-1.01.34-1.39.18-.38.55-.6.83-.63.28-.02.48.15.83.32.35.17.86.35,1.18.65.32.3.45.72.57.9.12.19.23.14.16.34h0ZM15.01,53.86c-.02-.36-.3-.7-.58-.91-.29-.21-.59-.29-.8-.45-.21-.16-.31-.42-.58-.46-.26-.04-.68.12-.87.38-.19.26-.17.6-.3.94-.13.34-.42.68-.4,1.14.02.46.34,1.04.61,1.28.27.24.5.15.68-.03.18-.18.31-.45.6-.6.3-.15.76-.17,1.1-.37.34-.2.56-.57.54-.92h0ZM20.52,59.04c-.26.06-.55.31-.88.18-.33-.13-.7-.65-.71-1-.02-.35.32-.54.62-.78.29-.24.54-.54.85-.68.32-.13.71-.1,1.39-.13.67-.03,1.63-.12,1.84.03.22.15-.31.54-.5.87-.19.33-.06.6-.19.7-.13.1-.52.04-.72.14-.2.11-.22.38-.35.56-.13.18-.36.26-.6.23-.24-.03-.48-.18-.75-.12h0ZM18.06,64.21c.1-.28.11-.64,0-.96-.12-.31-.36-.57-.53-.53-.17.04-.28.38-.45.64-.17.26-.39.45-.4.74,0,.28.2.66.39.8.19.14.35.05.53-.09.18-.14.37-.33.47-.6h0ZM13.95,44.99c-.11.69-.35,1.38-.3,1.99.05.61.39,1.14.52,1.63.13.5.06.96-.44,1.21-.5.24-1.41.27-2.08.49-.67.23-1.1.66-1.65.45-.55-.21-1.22-1.07-1.85-1.53-.63-.46-1.22-.53-1.63-.68-.42-.15-.66-.38-.88-.64-.21-.26-.39-.56-.63-.69-.23-.14-.53-.11-.78-.31-.26-.2-.48-.63-.15-.97.32-.35,1.19-.62,2.56-1.11,1.36-.5,3.23-1.23,4.54-1.58,1.32-.35,2.09-.32,2.49.03.39.35.4,1.03.29,1.72h0ZM21.06,54.98c.33.15.19.17.13.17-.07,0-.07-.04.14.03.21.07.63.23.83.14.2-.09.2-.43.08-.84-.12-.41-.35-.89-.65-1.33-.3-.44-.65-.85-1.12-1.38-.47-.53-1.04-1.18-1.31-1.9-.27-.72-.25-1.5-.37-1.81-.12-.3-.38-.13-.82.12s-1.06.55-1.33.82c-.28.27-.22.5-.24.83-.02.33-.12.77-.05,1.22.07.45.32.92.45,1.42.14.5.17,1.02.34,1.44.17.41.49.71.85.76.36.05.77-.16,1.37-.14s1.39.3,1.71.44h0ZM17.45,56.56c-.26-.46-.64-.44-.9-.35-.27.08-.42.22-.68.24-.26.03-.61-.05-.92.02-.31.07-.58.3-.85.67-.27.36-.54.85-1.05,1.2-.52.34-1.28.54-1.78.98-.5.44-.74,1.13-.6,1.66.14.53.65.9,1.11.97s.85-.17,1.31-.07c.46.1,1,.52,1.47.62.47.1.89-.13,1.16-.58.27-.45.4-1.11.75-1.64.35-.53.93-.94,1.15-1.62.22-.68.08-1.64-.17-2.1Z"/>
          <path class="cls-8" d="M26.18,76.74c.3,0,.57-.1.94-.16.47-.08,1.08-.08,1.58-.42.5-.34.87-1.02,1.74-1.55.87-.53,2.23-.92,3.19-1.28.96-.36,1.52-.69,2.58-1.05,1.05-.37,2.6-.77,3.59-1.23.99-.47,1.42-1,1.82-1.36.39-.37.75-.57,1.26-.67.5-.1,1.15-.1,1.69-.29.54-.19.97-.56,1.38-.83.41-.27.8-.42,1.36-.65.57-.23,1.31-.53,2.04-.74.72-.21,1.43-.32,1.88-.54.45-.22.65-.53,1.07-.69.42-.16,1.05-.16,1.36-.58.32-.42.32-1.27.2-1.99-.11-.72-.34-1.33-.34-1.99s.23-1.4.27-2.16c.04-.76-.1-1.55-.27-2.45-.17-.9-.35-1.92-.37-3.32-.01-1.4.14-3.18.25-4.48.11-1.3.17-2.12.08-2.74-.09-.62-.32-1.05-.32-1.53,0-.47.21-.99.2-1.33s-.24-.5-.7-.65c-.47-.16-1.17-.32-2.03-.6-.86-.28-1.88-.68-2.54-1.1-.22-.14-.4-.28-.56-.42-2.17,1.14-4.91,2.16-7.79,3.25-4.02,1.51-8.32,3.11-10.55,4.22-2.22,1.1-2.37,1.71-2.55,2.27-.19.56-.42,1.08-.56,1.52-.14.44-.2.82-.23,1.69-.03.88-.03,2.25.13,3.39.16,1.13.47,2.02.53,3.17.06,1.15-.14,2.55-.33,3.83-.19,1.28-.36,2.43-.26,3.62.1,1.19.47,2.43.53,3.7.06,1.28-.2,2.6-.27,4.05-.04.71-.03,1.45.01,2.1Z"/>
          <path class="cls-9" d="M39.37,71.23s0-.04.01-.05c.17-.71.84-1.41,1.32-1.68.47-.27.75-.12,1.11-.06.03,0,.05,0,.08.01-.09.07-.18.14-.27.23-.39.37-.83.9-1.82,1.36-.13.06-.28.13-.43.19h0ZM26.86,76.63c.08-.02.17-.04.26-.05.47-.08,1.08-.08,1.58-.42.47-.32.82-.94,1.59-1.45-.03-.05-.06-.11-.1-.16-.31-.42-.88-.68-1.31-.74-.43-.06-.71.08-1.05.21-.34.12-.73.22-.89.63-.16.41-.08,1.12-.08,1.8,0,.06,0,.12,0,.19h0ZM32.99,73.56c.23-.08.44-.15.64-.23.82-.31,1.35-.59,2.15-.9-.09-.03-.18-.06-.27-.11-.31-.16-.63-.47-1.08-.51-.46-.04-1.05.19-1.28.64-.16.3-.16.71-.15,1.12h0ZM36.78,72.09c-.12-.18-.24-.41-.43-.68-.24-.34-.59-.76-.6-1.01,0-.25.33-.35.56-.49.24-.14.37-.33.51-.46.14-.13.28-.21.4-.24.12-.03.22,0,.32.1.1.1.2.28.37.41.17.13.42.21.49.36.07.15-.03.36-.04.6-.02.24.05.52-.09.86-.02.04-.03.07-.05.11-.48.16-.97.3-1.42.45h0ZM44.45,68.76s.07-.02.1-.03c.33-.12.63-.3.9-.49-.08-.03-.17-.04-.26-.02-.25.05-.56.29-.74.55h0ZM48.57,66.76c.25-.09.51-.17.77-.25.72-.21,1.43-.32,1.88-.54.45-.22.65-.53,1.07-.69.42-.16,1.05-.16,1.36-.58.05-.07.09-.15.13-.23-.21-.08-.4-.02-.65,0-.33.03-.78-.01-1.21.12-.44.14-.87.45-1.34.65-.47.21-.99.31-1.37.54-.38.23-.64.59-.63.95v.02h0ZM53.75,62.19c-.11-.51-.24-.97-.24-1.48,0-.67.23-1.4.27-2.16.04-.76-.1-1.55-.27-2.45-.12-.64-.25-1.35-.32-2.2-.1.17-.19.37-.24.62-.09.43-.07,1.02-.44,1.71-.37.69-1.12,1.48-1.25,2.06-.13.58.36.94.69,1.57.32.63.48,1.53.79,1.99.26.37.62.44,1,.35h0ZM53.22,50.53c.05-.79.12-1.58.17-2.24.07-.79.11-1.4.12-1.9-.28-.25-.58-.37-.86-.43-.38-.08-.7-.03-1.07-.13-.37-.1-.79-.34-1.08-.13-.29.2-.45.85-.4,1.32.04.47.29.77.44,1.14.15.37.2.82.42,1.11.22.29.61.42,1.01.65.4.22.79.53,1.24.61h0ZM51.6,41.75c-.3-.08-.63-.18-.98-.29-.86-.28-1.88-.68-2.54-1.1-.22-.14-.4-.28-.56-.42-.18.09-.36.19-.55.28.42.57.71,1.29,1.32,1.76.62.48,1.56.69,2.19.59.63-.1.93-.53,1.13-.83h0ZM45.07,41.09c-.73.31-1.49.62-2.28.93,0,.06,0,.13,0,.18.07.26.43.44.85.74.42.3.91.73,1.33.82.42.09.78-.15.77-.37-.02-.22-.41-.43-.52-.74-.11-.31.06-.73,0-1.14-.02-.15-.07-.29-.15-.42h0ZM41.75,42.42c-.66.25-1.34.51-2.03.76-.62.23-1.24.46-1.86.7-.03.04-.06.07-.08.11-.17.33-.06.86.2,1.28.26.41.67.71,1,.86.34.15.6.17.91.2.31.03.68.08,1.05-.1.38-.18.77-.59.86-.92.09-.34-.13-.6-.13-1.05,0-.44.23-1.07.15-1.56-.02-.1-.04-.2-.09-.28h0ZM33.5,45.55c-.61.24-1.2.48-1.75.7.29.17.6.12.99-.13.22-.14.47-.36.76-.57h0ZM29.03,47.48c-1.94.99-2.2,1.56-2.37,2.08.19.23.51.43.83.92.32.49.64,1.27,1.07,1.63.44.36,1,.31,1.22-.06.23-.37.13-1.05.18-1.6.05-.55.25-.97.54-1.32.29-.35.67-.62.79-.91.12-.29,0-.61-.4-.72-.39-.11-1.05-.01-1.58-.01-.1,0-.19,0-.29,0h0ZM25.83,52.95c0,.08,0,.17,0,.25.04.22.16.53.36.97.35.77.96,1.92,1.45,2.52.49.6.88.66,1.02.39.14-.27.03-.88.11-1.45.08-.56.34-1.08.34-1.46,0-.38-.27-.63-.69-.78-.41-.15-.97-.2-1.46-.31-.49-.12-.91-.3-1.07-.19-.02.02-.04.04-.05.07h0ZM26.5,60.07c-.02,1.01-.18,2.15-.34,3.2-.05.37-.11.72-.15,1.07.34-.15.65-.32.92-.36.6-.08,1.05.51,1.55,1.01.5.5,1.04.9,1.34.86.31-.04.38-.51-.03-1.19-.41-.68-1.29-1.58-1.83-2.49-.54-.91-.73-1.82-1.27-2.05-.06-.03-.13-.04-.2-.05h0ZM37.15,66.65c-.19-.17-.4-.33-.67-.35-.28-.02-.62.08-.75.26-.13.18-.03.44.01.8.04.35.03.8.17,1.01.14.22.44.2.67.07.23-.13.4-.38.57-.51.17-.13.34-.14.44-.24.09-.1.11-.28.03-.47-.08-.19-.26-.39-.46-.56h0ZM51.86,62.3c.18.05.44.2.57.4.13.2.15.45.06.58-.09.14-.3.16-.48.24-.18.08-.33.22-.53.3-.2.08-.44.11-.57.02-.13-.08-.13-.28-.13-.49,0-.21.02-.43.09-.55.07-.12.2-.14.3-.2.1-.06.18-.15.28-.23.1-.07.22-.13.4-.08h0ZM41.56,49.73c.08.24.07.64-.08.87-.15.23-.44.3-.64.29-.21,0-.33-.08-.47-.13-.13-.05-.28-.08-.37-.18-.09-.1-.13-.28-.05-.48.08-.21.27-.45.5-.58.22-.13.47-.15.68-.13.2.03.36.11.44.35h0ZM45.32,53.28c-.16-.19-.41-.4-.6-.52-.19-.12-.31-.14-.38-.04-.07.11-.08.35-.13.55-.05.2-.12.37-.14.55-.02.19.03.4.2.45.17.06.46-.05.7-.07.24-.02.43.04.53-.02.1-.05.1-.22.07-.39-.03-.17-.09-.34-.25-.53h0ZM31.77,66.48c.42.41.61,1.31.52,1.93-.08.62-.44.96-.54,1.42-.11.46.04,1.03-.05,1.46-.08.43-.39.7-.71.67-.32-.03-.64-.38-1.1-.62-.46-.24-1.04-.39-1.49-.76-.45-.37-.75-.96-.72-1.4.03-.43.4-.7.62-1,.22-.29.31-.61.58-.94.27-.33.73-.67,1.28-.88.55-.21,1.19-.29,1.61.12h0ZM33.28,68.88c.14.07.54.08.89-.11.35-.19.66-.57.6-.84-.06-.27-.47-.44-.67-.39-.2.05-.17.32-.25.52-.08.2-.27.33-.43.46-.16.14-.28.29-.14.36h0ZM35.17,48.68c.21-.17.34-.48.31-.71-.03-.23-.21-.38-.43-.58-.22-.2-.49-.45-.69-.53-.2-.08-.35,0-.51.17-.17.17-.35.42-.42.56-.07.14-.02.18.19.34.21.16.6.43.76.62.16.19.1.29.21.32.11.03.39,0,.59-.18h0ZM48.69,45.22c.25.02.58-.03.81-.17.23-.14.36-.38.37-.54.02-.16-.08-.25-.22-.44-.14-.19-.34-.47-.53-.56-.19-.09-.38.02-.57.09-.19.07-.39.11-.53.29-.14.17-.23.47-.21.68.02.21.14.32.29.43.15.11.33.21.58.23h0ZM35.44,54.6c-.14.04-.31.04-.47-.07-.16-.11-.31-.34-.44-.47-.13-.13-.23-.16-.32-.22-.09-.06-.17-.15-.1-.28.07-.13.28-.31.42-.48.14-.17.2-.34.34-.31.14.03.37.25.57.36.2.12.36.13.49.19.12.06.21.18.2.27-.01.1-.12.18-.19.31-.07.13-.1.31-.17.44-.07.13-.17.21-.31.26h0ZM40.26,48.16c.16.13.33.21.52.16.19-.05.4-.21.49-.37.09-.16.07-.32.14-.45.06-.13.21-.23.23-.37.02-.13-.1-.3-.26-.32-.16-.02-.37.1-.6.1-.24,0-.5-.12-.73-.06-.23.06-.43.3-.46.46-.03.16.1.25.24.39.14.14.28.33.44.46h0ZM33.51,52.36c-.28.2-.62.37-.9.35-.28-.01-.51-.21-.6-.41-.09-.2-.05-.42-.17-.67-.12-.26-.41-.55-.46-.92-.05-.37.15-.8.38-1.14.24-.34.52-.6.73-.63.21-.03.36.16.56.26.2.11.47.13.6.39.14.26.15.76.23,1.15.08.39.23.66.18.92-.04.26-.27.5-.56.7h0ZM39.02,64.21c-.15.14-.35.12-.5-.02-.15-.15-.25-.42-.39-.67-.14-.25-.32-.47-.34-.67-.02-.2.11-.38.28-.39.17-.02.36.12.56.23.2.11.4.19.56.25.15.07.26.12.28.21.02.09-.05.21-.13.42-.08.21-.17.5-.32.64h0ZM48.08,65.26c-.14.02-.38-.09-.56-.35-.17-.26-.28-.67-.25-.83.03-.16.18-.07.34-.04.16.03.32,0,.46.07.14.06.26.2.29.31.03.11-.03.18-.06.26-.02.08,0,.16-.02.28-.02.12-.06.28-.21.31h0ZM41.89,58.87c-.22.05-.51.14-.72.05-.22-.09-.36-.36-.48-.6-.12-.24-.21-.46-.13-.68.08-.22.34-.45.49-.67.15-.22.18-.44.34-.41.16.03.45.3.68.47.23.18.4.26.61.51.2.25.43.66.48.97.04.31-.1.52-.26.56-.16.04-.32-.1-.48-.17-.16-.07-.3-.07-.52-.03h0ZM49.26,58.75c-.19.15-.58.32-.89.29-.31-.03-.55-.25-.6-.45-.05-.19.09-.35.12-.55.03-.2-.05-.43.05-.61.11-.18.4-.3.67-.35.27-.04.51,0,.67.11.16.11.25.28.26.48,0,.21-.06.45-.08.63-.02.18,0,.3-.19.45h0ZM42.85,53.69c-.26.03-.82-.06-1.12-.21-.31-.14-.36-.34-.24-.51.12-.17.42-.33.61-.47.19-.14.28-.26.42-.12.13.14.32.54.43.83.12.28.17.44-.09.47h0ZM51.14,54.04c-.28.16-.71.09-.86-.21-.15-.3-.02-.84-.05-1.28-.04-.44-.25-.79-.11-.87.14-.09.63.08.94.36.32.28.46.68.47,1.07,0,.39-.11.77-.39.93h0ZM37.94,61c-.34-.06-.68-.29-.67-.61.02-.32.39-.73.48-1.17.09-.44-.1-.9-.08-1.18.03-.27.27-.35.52-.21.25.15.49.52.77.75.28.24.59.34.81.69.21.35.33.95.18,1.25-.15.3-.56.31-.94.37-.38.06-.73.16-1.08.1h0ZM44.53,59.15c.2.04.14-.06.31-.21.17-.15.56-.34.81-.7.25-.36.35-.89.47-1.26.12-.37.26-.59.2-.86-.07-.27-.34-.61-.74-.73-.4-.13-.94-.04-1.42-.13-.48-.09-.92-.35-1.2-.34-.28.01-.4.3-.3.66.1.36.42.78.59,1.32.16.54.17,1.21.4,1.63.23.42.69.59.89.63h0ZM48.94,63.69c-.35.08-.75-.09-.99-.4-.25-.31-.34-.76-.53-1.03-.19-.27-.47-.36-.68-.51-.21-.15-.33-.36-.13-.67.2-.31.72-.71,1.18-.79.45-.08.83.15,1.19.23.36.08.7,0,.98.16.28.16.51.54.5.81,0,.27-.24.41-.37.64-.13.23-.16.54-.33.86-.17.32-.46.63-.81.71h0ZM39.14,68.22c.29.06.65.02.95-.14.29-.16.51-.44.45-.61-.06-.17-.42-.22-.7-.35-.29-.13-.51-.32-.79-.28-.28.03-.62.3-.74.5-.11.2,0,.35.16.51.16.15.38.32.67.38h0ZM35.92,65.4c-.61.47-1.34.62-1.94.4-.6-.22-1.09-.83-1.61-1.8-.53-.97-1.09-2.31-1.67-3.52-.57-1.21-1.16-2.3-1-3.24.16-.93,1.05-1.7,1.72-2.26s1.13-.91,1.62-.73c.49.17,1.03.87,1.61,1.31.58.44,1.21.63,1.51.94.3.32.26.76.15,1.32-.11.56-.28,1.23-.09,2.18.19.95.74,2.17.77,3.16.03,1-.46,1.77-1.07,2.24h0ZM49.33,55.91c-.49-.08-1.42-.49-2.01-1.14-.59-.65-.84-1.55-1.24-2.1-.41-.56-.97-.77-1.58-1.16-.61-.38-1.26-.93-1.73-1.48-.46-.55-.74-1.1-.55-1.38.19-.28.85-.3,1.32-.53.47-.23.76-.69,1.06-1.28.3-.59.63-1.33,1.13-1.75.5-.42,1.18-.52,1.48-.36.3.16.21.59.34,1.17.14.58.5,1.32.74,1.96.24.64.35,1.19.25,1.8-.1.61-.42,1.29-.36,1.93.06.65.5,1.27.86,1.91.35.64.62,1.3.73,1.76.11.46.05.72-.44.64h0ZM39.78,56.74c.44.27.63.38.71.24.07-.14.02-.54.1-.91.08-.37.29-.71.13-.99-.16-.28-.68-.49-1.03-.82-.34-.33-.51-.78-.51-1.24,0-.45.16-.9.18-1.29.02-.39-.11-.73-.12-1.21,0-.48.11-1.11.02-1.56-.08-.45-.36-.72-.64-.86-.28-.14-.55-.15-.8-.26-.25-.12-.48-.34-.75-.29-.27.05-.59.36-.63.74-.04.38.2.83.11,1.3-.08.47-.49.96-.68,1.47-.19.51-.17,1.03.05,1.43.22.4.65.67,1.02,1.16.37.49.68,1.21,1.19,1.79.51.58,1.2,1.02,1.65,1.3h0ZM46.63,66.5c.42-.32.34-.69.22-.94-.12-.25-.28-.39-.34-.63-.06-.25-.04-.61-.15-.91-.12-.3-.39-.53-.78-.74-.4-.21-.92-.41-1.34-.86-.41-.46-.72-1.19-1.23-1.62-.51-.43-1.23-.57-1.73-.35-.5.21-.8.78-.8,1.24,0,.46.29.82.26,1.29-.03.47-.37,1.06-.4,1.54-.03.48.26.86.74,1.06.48.2,1.15.23,1.73.5.58.27,1.06.79,1.77.91.71.12,1.63-.16,2.05-.48Z"/>
          <path class="cls-4" d="M44.78,38.34c-.57-.28-.99-.61-1.6-.9-.61-.29-1.41-.55-2.34-.76-.93-.21-1.97-.37-3.14-.85-1.17-.49-2.46-1.31-3.73-1.82-1.27-.51-2.52-.71-3.44-1.07-.92-.36-1.51-.88-2.21-1.31-.7-.44-1.52-.8-2.04-.92-.52-.13-.75-.02-1,.03-.25.05-.52.05-.85.18-.33.13-.72.38-1.55.71-.83.33-2.11.75-3.07,1.07-.96.32-1.61.55-2.11.9-.5.34-.86.8-1.94,1.26-1.08.46-2.87.92-3.95,1.28s-1.43.62-2.15,1.03c-.72.41-1.79.97-2.88,1.38-1.08.42-2.17.69-3.31,1.08-1.13.39-2.31.91-2.9,1.38-.32.26-.47.51-.52.74.31.15.61.3.87.45.89.47,1.46.85,2.02,1.12.56.27,1.1.44,1.89.96.79.52,1.82,1.38,2.84,2.09,1.02.72,2.02,1.29,3.11,1.72,1.09.43,2.27.72,3.36.95,1.09.23,2.1.4,3.03.75.93.34,1.79.86,2.6,1.35.8.49,1.55.95,2.48,1.41.93.46,2.05.92,2.71,1.15.66.23.86.23,1.33.11.47-.11,1.22-.34,1.97-.67.75-.33,1.49-.76,2.05-1.03.56-.27.93-.39,1.74-.53.8-.14,2.04-.32,2.98-.6.95-.29,1.61-.69,2.38-1.18.77-.49,1.66-1.06,2.48-1.39.82-.33,1.56-.42,2.28-.6.72-.19,1.41-.47,2.24-.73.83-.26,1.81-.49,2.58-1.05s1.35-1.45,2.21-2.02,2.01-.83,3.11-1.08c.35-.08.7-.15,1.03-.23,0-.34-.24-.49-.7-.65-.47-.16-1.17-.32-2.03-.6-.86-.28-1.88-.68-2.54-1.1-.66-.42-.96-.85-1.48-1.18-.52-.33-1.25-.56-1.82-.84Z"/>
          <path class="cls-5" d="M35.55,34.76c-.52-.27-1.06-.54-1.58-.75-1.27-.51-2.52-.71-3.44-1.07-.92-.36-1.51-.88-2.21-1.31-.7-.44-1.52-.8-2.04-.92-.52-.13-.75-.02-1,.03-.25.05-.52.05-.85.18-.33.13-.72.38-1.55.71-.83.33-2.11.75-3.07,1.07-.96.32-1.61.55-2.11.9-.18.12-.33.26-.51.4.61.29,1.38.29,1.74.45.39.17.3.54.03.8-.27.26-.73.42-.96.63-.23.21-.23.46.15.75.38.3,1.13.64,1.97.98.84.34,1.78.68,2.62.25.84-.43,1.6-1.64,2.41-2.29s1.68-.74,2.67-.62c.99.13,2.11.47,3.05.48.94.01,1.69-.31,2.66-.47.66-.11,1.42-.14,2.04-.21h0ZM7.05,38.44c-.09.04-.18.07-.27.11-1.08.42-2.17.69-3.31,1.08-1.13.39-2.31.91-2.9,1.38-.32.26-.47.51-.52.74.31.15.61.3.87.45.89.47,1.46.85,2.02,1.12.56.27,1.1.44,1.89.96.27.18.57.4.89.64.19-.25.16-.51.29-.67.19-.26.77-.3,1.29-.43.52-.13,1-.33,1.52-.4.51-.07,1.05-.01,1.77.32.72.33,1.61.93,2.48,1.02.87.08,1.71-.35,2.92-.7,1.21-.35,2.79-.62,4.08-.82,1.29-.21,2.29-.35,2.59-.84.3-.49-.12-1.34-.91-1.69-.8-.35-1.99-.22-3.41-.47-1.43-.25-3.09-.89-4.82-1.05-1.72-.16-3.5.16-5.1-.23-.48-.12-.94-.3-1.37-.51h0ZM11.49,48.36c.88.29,1.79.51,2.65.69,1.09.23,2.09.4,3.03.75.93.34,1.79.86,2.6,1.35.8.49,1.55.95,2.48,1.41.93.46,2.05.92,2.71,1.15.11.04.2.07.29.09.03-.06.05-.12.06-.18.18-.76-.51-2.09-1.41-2.93-.9-.84-2.02-1.21-2.6-1.95-.58-.74-.61-1.85-1.53-2.39-.91-.55-2.71-.53-3.86-.5-1.15.03-1.66.08-2.03.41-.36.33-.58.94-1.09,1.33-.37.29-.91.46-1.32.77h0ZM53.18,42.32c-.12-.11-.29-.19-.53-.27-.47-.16-1.17-.32-2.03-.6-.86-.28-1.88-.68-2.54-1.1-.66-.42-.96-.85-1.48-1.18-.03-.02-.05-.03-.08-.05-.18.3-.18.72.04,1.03.27.39.86.63,1.24,1.02.38.39.54.92.92,1.27.38.34.99.49,1.57.42.58-.07,1.14-.37,1.75-.48.39-.07.79-.06,1.15-.06h0ZM28.36,41.23c.37-.6,1.69-.81,2.92-.72,1.23.09,2.37.48,3.21.01.83-.47,1.36-1.79,2.11-2.49.75-.7,1.73-.76,2.58-.37.84.4,1.55,1.27,2.42,2.15.87.88,1.89,1.77,1.93,2.51.04.74-.91,1.34-1.59,1.99-.68.65-1.09,1.35-2.01,1.61-.92.26-2.34.08-3.27-.28-.93-.36-1.36-.91-2.07-1.23-.71-.32-1.69-.41-2.57-.34-.88.07-1.65.3-2.11.29-.46-.01-.59-.26-.96-.89-.37-.63-.96-1.63-.59-2.24h0ZM28.9,47.77c.39-.36,1.45-.86,2.53-1,1.08-.13,2.19.1,2.42.54.23.44-.41,1.08-.73,1.63-.32.55-.31,1.01-.75,1.13s-1.34-.1-1.97-.41c-.63-.31-.99-.7-1.3-1.01-.32-.31-.59-.52-.2-.88h0ZM26.61,37.67c-.05-.43.3-.78.83-.83.52-.05,1.22.19,1.83.3.61.11,1.14.09,1.52.23.39.15.64.47.46.78-.18.31-.8.6-1.28.92-.48.31-.82.64-1.2.66-.38.02-.79-.28-1.22-.69-.43-.41-.89-.94-.94-1.37Z"/>
          <path class="cls-3" d="M52.1,42.97c-1.03.26-1.95.49-2.85,1.09-.86.64-1.35,1.42-2.17,2.07-.86.61-1.63.8-2.61,1.12-.75.25-1.48.55-2.24.77-.79.21-1.46.31-2.24.62-.87.38-1.63.89-2.42,1.4-.87.56-1.45.91-2.45,1.23-1.01.3-1.99.44-3.02.63-.67.13-1.03.21-1.64.51-.7.35-1.35.72-2.06,1.04-.57.27-1.28.5-1.89.66-.04.01-.09.02-.13.03-.65.15-.9.09-1.53-.13-.94-.33-1.86-.73-2.75-1.17-.88-.44-1.66-.92-2.5-1.43-.85-.52-1.6-.97-2.53-1.34-.99-.36-1.96-.54-2.98-.76-1.19-.27-2.25-.55-3.39-1-1.19-.5-2.08-1.04-3.13-1.8-.95-.7-1.84-1.47-2.8-2.15-.67-.44-1.17-.65-1.86-1-.59-.32-1.17-.69-1.75-1.03.6.31,1.18.64,1.8.94.73.32,1.21.49,1.93.92.98.62,1.92,1.37,2.88,2.04,1.04.7,1.93,1.19,3.1,1.65,1.12.41,2.16.66,3.33.89,1.06.21,2.05.37,3.08.73.99.37,1.76.82,2.66,1.36.82.49,1.6.95,2.46,1.38.87.42,1.77.8,2.68,1.12.5.17.63.22,1.14.1,0,0,.1-.03.12-.03.62-.17,1.19-.37,1.79-.62.7-.32,1.35-.68,2.04-1.02.68-.32,1.09-.42,1.83-.55,1-.17,1.97-.3,2.95-.58.93-.29,1.5-.62,2.32-1.12.84-.52,1.62-1.01,2.54-1.39.83-.31,1.49-.39,2.32-.58.76-.19,1.49-.47,2.24-.69.94-.27,1.72-.43,2.56-.98.84-.62,1.35-1.36,2.25-1.97.8-.53,1.99-.78,2.93-.96Z"/>
        </g>
        <path class="cls-7" d="M5.53,39.6c.31,0,.92.04,1.37.13.46.1.76.25.58.38-.18.13-.86.22-1.56.27-.7.05-1.42.04-1.79-.05-.36-.1-.36-.28-.18-.41.18-.13.55-.2.79-.22.23-.03.33-.01.39-.03.06-.02.08-.06.4-.06h0ZM34.38,38.29c.37-.04.98-.09,1.33-.07.35.02.45.1.35.19-.1.09-.41.19-.76.26-.36.07-.76.13-1,.14-.23.01-.29-.01-.36-.09-.07-.07-.15-.2-.11-.28s.18-.12.55-.16h0ZM25.86,37.19c.37-.03,1.07-.09,1.57-.03s.79.21.92.35c.13.13.08.24-.41.34-.5.1-1.45.18-1.93.24-.49.06-.51.09-.56.02-.05-.07-.12-.23-.2-.39-.08-.15-.16-.3-.13-.38.03-.08.17-.1.25-.11.09-.01.12-.02.49-.05h0ZM26.41,32.83c.51-.02,1.27-.08,1.85-.05.58.03.98.16,1.14.31.16.16.08.34-.58.46-.66.12-1.91.16-2.55.16-.65,0-.7-.05-.82-.2-.11-.15-.29-.39-.31-.53-.02-.13.12-.15.31-.15.2,0,.45,0,.95-.02h0ZM21,48.29c.48-.04,1.24-.11,1.87-.11.63,0,1.15.08,1.34.23.19.15.06.36-.46.52-.52.16-1.41.26-1.97.33-.56.06-.78.08-.96.06-.18-.03-.33-.1-.44-.24-.12-.13-.21-.33-.25-.46-.04-.13-.03-.21.07-.25.11-.04.32-.04.8-.08h0ZM47.75,42.25c.49-.08,1.38-.17,1.99-.22.61-.04.93-.03,1.13.04.21.07.29.19.19.29-.11.1-.42.19-.77.28-.35.09-.75.17-.97.19-.21.02-.24-.01-.58-.06-.34-.05-1-.12-1.34-.17-.33-.06-.34-.11-.3-.16.05-.05.15-.11.64-.19h0ZM34.48,48.09c.32-.05.87-.11,1.29-.1.43,0,.73.08.76.18.03.1-.21.22-.67.34-.46.12-1.14.24-1.48.29q-.34.06-.4-.08c-.06-.14-.17-.43-.17-.53,0-.11.08-.04.17-.02.09.01.17-.03.49-.08h0ZM25.07,43.23c.59,0,1.42,0,1.99.04.57.04.87.12.91.25.05.13-.17.31-.77.46-.6.15-1.59.27-2.2.32-.62.05-.87.02-1.01-.17-.15-.19-.19-.55-.03-.73.16-.18.52-.17,1.11-.17h0ZM11.84,41.69c.36-.05.87-.12,1.34-.11.48,0,.93.09.83.31-.11.23-.77.59-1.34.77-.57.18-1.03.16-1.34.06-.31-.11-.47-.31-.49-.48-.02-.17.08-.3.25-.38.16-.08.39-.12.75-.17Z"/>
        <g>
          <path class="cls-2" d="M24.07,33.13c.05-.31.48-.79.81-1.01.33-.22.56-.17.82-.14.25.03.52.05.75.13.23.08.41.22.54.35.13.13.22.25.23.47,0,.22-.06.54-.22.69-.16.15-.4.13-.71.18-.31.04-.68.15-.96.15s-.47-.1-.73-.23c-.26-.13-.58-.27-.52-.59h0ZM21.39,36.08c.12-.12.34-.22.56-.23.22-.02.43.04.62.12.18.07.33.16.33.25,0,.09-.16.17-.27.26-.11.09-.18.19-.35.24-.17.05-.44.06-.63.02-.19-.04-.3-.14-.35-.26-.04-.12-.02-.27.1-.39h0ZM18.74,48.5c0-.29.22-.67.58-.78.36-.11.85.06,1.29.15.43.09.81.11,1.06.24.26.13.39.39.31.51-.08.12-.38.12-.64.28-.26.16-.47.49-.81.56-.34.07-.82-.11-1.18-.3-.36-.19-.6-.38-.61-.66h0ZM24.43,37.24c.2-.27.51-.65.83-.66.33-.01.66.34.96.55.29.2.55.26.67.36.13.1.13.26-.09.4-.22.14-.65.26-.92.36-.27.1-.39.18-.59.16-.21-.02-.51-.13-.73-.24-.22-.11-.35-.23-.37-.36-.03-.13.05-.29.25-.56h0ZM2.79,40.03c.03-.25.16-.7.38-.99.22-.29.52-.43.85-.32.33.11.69.46,1.09.67.4.22.85.3,1.04.45.18.14.1.34-.24.44-.34.1-.93.11-1.34.16-.41.05-.65.14-.9.15-.25,0-.52-.08-.69-.16-.16-.08-.23-.14-.19-.4h0ZM22.8,43.92c-.04-.31.16-.85.39-1.12.23-.27.5-.27.78-.17.29.1.6.3.88.37.28.07.52.01.72.17.2.16.36.53.31.71-.05.18-.3.17-.54.21-.24.04-.48.14-.71.29-.23.15-.46.35-.66.36-.2.01-.38-.16-.61-.29-.23-.13-.52-.22-.56-.53h0ZM45.59,42.56c0-.29.4-.7.88-.84s1.04-.03,1.44.12c.39.14.62.31.9.42.28.11.63.15.8.25.16.1.15.26-.03.33-.18.07-.52.05-.88.12-.36.07-.75.23-1.15.29-.39.06-.79.03-1.18-.08-.39-.11-.77-.29-.77-.59h0ZM33.12,48.24c0-.17.16-.48.36-.63.2-.15.44-.15.65-.03.21.11.39.34.58.49.19.15.38.21.49.3.1.09.11.2.03.26-.09.05-.27.05-.47.13-.21.08-.44.24-.65.28-.21.04-.38-.03-.49-.14s-.13-.27-.23-.36c-.1-.09-.26-.11-.27-.28h0ZM9.22,42.41c0-.23.22-.64.46-.8.24-.16.51-.07.84-.1.33-.03.72-.18,1.1-.19.38-.01.74.11.88.27.14.16.05.37,0,.62-.05.24-.06.52-.17.68-.11.15-.33.19-.63.11-.3-.08-.69-.27-1.05-.33-.36-.06-.69,0-.96.02-.27,0-.48-.04-.47-.27h0ZM33.05,38.51c0-.17.03-.38.11-.55.08-.17.2-.29.4-.24.2.05.49.29.78.43.29.14.57.18.74.27.17.08.21.21.1.29-.11.08-.38.11-.68.21-.3.1-.64.26-.86.27-.23.01-.35-.12-.44-.25-.09-.13-.15-.26-.16-.43h0ZM15.21,37.46c.09-.19.26-.44.44-.59.18-.15.35-.2.5-.12.15.07.27.26.44.39.17.13.38.2.46.31.08.12.02.28-.17.46-.19.18-.51.38-.74.43-.23.05-.36-.03-.51-.1-.15-.07-.3-.11-.39-.17-.09-.05-.1-.12-.11-.21-.01-.09-.02-.22.07-.41Z"/>
          <path class="cls-1" d="M25.15,31.99c.2-.06.37-.03.55-.01.25.03.52.05.75.13.23.08.41.22.54.35.13.13.22.25.23.47,0,.22-.06.54-.22.69-.05.05-.11.08-.17.1h0c-.06-.21-.15-.51-.27-.77-.12-.26-.26-.48-.44-.63-.18-.15-.41-.21-.58-.26-.17-.04-.29-.06-.34-.06-.03,0-.04,0-.04-.01h0ZM4.32,38.93c.1.12.26.34.5.53.24.19.55.34.67.51.09.12.08.26.11.37.11-.02.21-.04.3-.06.34-.1.43-.3.24-.44-.18-.14-.63-.23-1.04-.45-.36-.19-.68-.49-.98-.63,0,0,0,0,.01,0,.02.01.07.04.18.16h0ZM16.28,36.85c.11.16.24.37.3.58.06.22.06.45.08.62,0,.01,0,.02,0,.04.08-.06.16-.12.22-.18.19-.18.25-.35.17-.46-.08-.12-.29-.18-.46-.31-.13-.1-.24-.24-.35-.33l.03.05h0ZM25.8,36.85c.09.11.32.35.44.57.13.22.16.42.17.6,0,.01,0,.02,0,.03.15-.05.29-.11.38-.17.22-.14.22-.29.09-.4-.13-.1-.38-.16-.67-.36-.18-.12-.38-.31-.58-.43.03.03.06.04.07.05.03.02,0,0,.09.1h0ZM33.87,37.88c.13.09.36.24.49.45.12.19.17.41.19.58.29-.09.54-.12.65-.2.11-.08.06-.21-.1-.29-.17-.08-.45-.13-.74-.27-.23-.11-.47-.29-.65-.38,0,0,0,0,0,0,.01,0,.04.02.17.11h0ZM47.31,41.73c.21.07.54.21.77.38.23.17.36.37.43.56.04.1.05.21.06.3.04,0,.08-.02.12-.03.36-.07.7-.05.88-.12.18-.07.2-.23.03-.33-.16-.1-.51-.14-.8-.25-.28-.11-.51-.27-.9-.42-.28-.1-.63-.19-.99-.18,0,0,.02,0,.03,0,.05,0,.15,0,.36.08h0ZM34.34,47.75c.08.09.18.22.24.37.06.14.07.3.07.47,0,.07,0,.14,0,.21.03-.02.07-.03.1-.04.21-.08.39-.07.47-.13.09-.05.07-.17-.03-.26-.1-.09-.3-.15-.49-.3-.18-.14-.36-.36-.56-.48,0,0,0,0,.02.01.03.02.09.06.17.15h0ZM20.11,47.79c.21.07.57.19.8.34.24.15.35.32.39.52.02.09.02.19.01.28.01,0,.02-.02.03-.02.26-.16.55-.16.64-.28.08-.12-.06-.37-.31-.51-.26-.13-.63-.15-1.06-.24-.27-.06-.56-.14-.83-.17,0,0,0,0,.01,0,.04,0,.11.02.32.08h0ZM24.11,42.72c.2.11.52.33.73.52.2.19.28.36.3.57.01.11.01.22.02.33.07-.02.13-.04.2-.05.24-.04.5-.03.54-.21.05-.18-.11-.55-.31-.71-.2-.16-.44-.1-.72-.17-.28-.07-.59-.27-.88-.37-.06-.02-.12-.04-.17-.05,0,0,.01,0,.02,0,.03,0,.09.02.29.14h0ZM11.29,41.42c.28,0,.6.07.8.27.2.2.28.53.3.85,0,.08,0,.17,0,.25.06-.16.08-.38.12-.57.05-.24.14-.45,0-.62-.14-.16-.5-.29-.88-.27-.23,0-.46.06-.68.11.1,0,.22-.02.34-.01Z"/>
        </g>
      </g>
      <g>
        <g>
          <path class="cls-10" d="M64.81,7.7c-.57-.28-.99-.61-1.6-.9-.61-.29-1.41-.55-2.34-.76-.93-.21-1.97-.37-3.14-.85-1.17-.49-2.46-1.31-3.73-1.82-1.27-.51-2.52-.71-3.44-1.07-.92-.36-1.51-.88-2.21-1.31-.7-.44-1.52-.8-2.04-.92-.52-.13-.75-.02-1,.03-.25.05-.52.05-.85.18-.33.13-.72.38-1.55.71-.83.33-2.11.75-3.07,1.07-.96.32-1.61.55-2.11.9-.5.34-.86.8-1.94,1.26-1.08.46-2.87.92-3.95,1.28s-1.43.62-2.15,1.03c-.72.41-1.79.97-2.88,1.38-1.08.42-2.17.69-3.31,1.08-1.13.39-2.31.91-2.9,1.38-.59.47-.59.9-.52,1.31.07.41.22.8.34,1.23.12.43.22.9.22,1.56,0,.66-.12,1.51-.18,2.2-.06.7-.06,1.24,0,1.92.06.68.17,1.5.11,2.26-.07.76-.31,1.45-.44,2.12-.12.67-.12,1.31-.01,2,.11.69.33,1.44.33,2.16s-.22,1.43-.22,2.21.22,1.64.27,2.39c.05.75-.06,1.38-.07,1.83,0,.45.09.72.34.94.25.22.65.37,1.03.6.37.23.72.53,1.45.8.73.27,1.85.52,2.66.96.81.44,1.31,1.09,2.31,1.65,1,.56,2.49,1.03,3.62,1.36,1.13.33,1.89.52,2.81,1.06.93.55,2.02,1.45,2.91,1.96.9.51,1.6.62,2.26.7.66.07,1.28.1,2.05.37.77.27,1.71.77,2.43,1.2.72.43,1.24.79,1.66.89.42.1.73-.05,1.2-.13.47-.08,1.08-.08,1.58-.42.5-.34.87-1.02,1.74-1.55.87-.53,2.23-.92,3.19-1.28.96-.36,1.52-.69,2.58-1.05,1.05-.37,2.6-.77,3.59-1.23.99-.47,1.42-1,1.82-1.36.39-.37.75-.57,1.26-.67.5-.1,1.15-.1,1.69-.29.54-.19.97-.56,1.38-.83.41-.27.8-.42,1.36-.65.57-.23,1.31-.53,2.04-.74.72-.21,1.43-.32,1.88-.54.45-.22.65-.53,1.07-.69.42-.16,1.05-.16,1.36-.58.32-.42.32-1.27.2-1.99-.11-.72-.34-1.33-.34-1.99s.23-1.4.27-2.16c.04-.76-.1-1.55-.27-2.45-.17-.9-.35-1.92-.37-3.32-.01-1.4.14-3.18.25-4.48.11-1.3.17-2.12.08-2.74-.09-.62-.32-1.05-.32-1.53,0-.47.21-.99.2-1.33s-.24-.5-.7-.65c-.47-.16-1.17-.32-2.03-.6-.86-.28-1.88-.68-2.54-1.1-.66-.42-.96-.85-1.48-1.18-.52-.33-1.25-.56-1.82-.84Z"/>
          <path class="cls-6" d="M45.92,33.31c-.38.2-1.51.24-2.47.37-.95.13-1.72.36-2.4.09-.68-.27-1.27-1.04-1.47-1.55-.2-.51-.01-.76.1-1.11.12-.35.17-.81.37-1.09.2-.28.54-.38.86-.31.33.07.64.31,1.04.45.4.14.88.18,1.2.48.32.3.47.86.73,1.17.26.31.62.36.92.41.3.05.53.1.83.31.3.21.67.58.29.79h0ZM20.28,10.68c-.27.35-.26.68-.2,1,.07.38.2.74.31,1.13h.02c.29.22.58.35.81.49.23.14.41.31.66.31.25,0,.56-.15.92-.26.35-.11.74-.17.87-.39.13-.22,0-.58-.33-.94-.33-.36-.85-.7-1.48-.95-.54-.21-1.15-.36-1.58-.39h0ZM20.57,15.44c-.04.42-.09.85-.12,1.24-.06.7-.06,1.24,0,1.92.02.21.04.43.06.67.2-.03.4-.07.56-.16.32-.18.51-.55.79-.9.28-.36.64-.71.78-1.14.14-.43.05-.94-.24-1.26-.29-.32-.78-.44-1.43-.4-.13,0-.27.02-.41.04h0ZM20.47,21.44c-.1.54-.26,1.04-.35,1.53-.12.67-.12,1.31-.01,2,.11.69.33,1.44.33,2.16,0,.1,0,.2-.01.3.07-.04.13-.08.2-.12.61-.38,1.25-.95,1.72-1.49.47-.55.77-1.07,1.38-1.39.61-.32,1.53-.44,2.26-.92.73-.49,1.27-1.35,1.42-1.82.15-.48-.1-.57-.57-.53-.47.04-1.16.21-1.85.47-.69.26-1.37.6-2.02.57-.65-.03-1.27-.44-1.86-.63-.21-.07-.41-.11-.62-.12h0ZM20.29,28.47c-.04.29-.07.58-.07.88,0,.25.02.51.05.77.19.11.37.09.48.02.11-.07.16-.21.24-.34.07-.13.17-.24.2-.44.04-.2.01-.5-.19-.68-.17-.15-.47-.22-.71-.22h0ZM20.38,30.85c.08.01.15.03.22.04.48.06.83-.02,1.21.06.39.07.81.3,1.25.36.45.06.92-.03,1.3-.33.38-.29.67-.78.96-.9.3-.12.6.14.96.27.35.13.75.14.88.23.13.09,0,.26-.34.66-.34.4-.87,1.03-1.52,1.44-.65.42-1.4.62-1.95.91-.54.29-.87.67-1.3.84-.43.16-.95.11-1.42-.15-.03-.02-.06-.03-.09-.05-.09-.17-.13-.39-.13-.68,0-.45.12-1.08.07-1.83-.02-.28-.06-.58-.11-.89h0ZM22.26,35.42c.25.16.54.33.98.49.08.03.17.06.26.09.14-.09.33-.19.44-.3.14-.14.16-.31.14-.45-.02-.14-.09-.26-.21-.34-.12-.09-.29-.15-.41-.24-.12-.09-.18-.2-.28-.23-.09-.03-.22.04-.3.15-.08.11-.12.28-.26.46-.1.13-.26.26-.36.38h0ZM24.68,36.38c.43.14.85.3,1.22.5.81.44,1.31,1.09,2.31,1.65,1,.56,2.49,1.03,3.62,1.36l.22.06c.31-.1.61-.2.88-.3,1.04-.38,1.71-.77,2.02-1.33.31-.57.26-1.31-.11-1.98-.37-.67-1.07-1.27-2.06-1.39-.99-.12-2.28.25-3.24.31-.96.05-1.61-.22-2.14-.4-.54-.19-.97-.29-1.33-.04-.36.25-.63.84-1.15,1.35-.07.07-.15.14-.23.2h0ZM34.94,41.14c.86.55,1.81,1.32,2.61,1.77.79.45,1.42.59,2.01.67.09-.14.17-.28.27-.41.31-.42.7-.69.77-1,.08-.31-.15-.65-.56-.8-.41-.14-1-.09-1.43-.26-.44-.17-.72-.57-1.33-.75-.6-.17-1.52-.11-1.99.24-.18.14-.3.32-.36.53h0ZM42.3,44.14c.67.28,1.4.68,2,1.03.72.43,1.24.79,1.66.89.1.03.2.04.3.03-.05-.29-.14-.61-.31-.85-.29-.42-.81-.63-1.06-.94-.25-.31-.24-.71-.52-.93-.28-.22-.85-.27-1.31-.02-.32.17-.58.48-.75.79h0ZM36.25,35.31c-.2.17-.38.34-.44.61-.06.27-.01.63.15.78.16.15.43.09.79.1.36.01.79.09,1.03-.02.23-.11.26-.4.17-.65-.1-.25-.32-.45-.42-.63-.1-.19-.09-.36-.17-.47-.08-.11-.26-.15-.46-.1-.2.05-.42.2-.62.37h0ZM34.08,20.12c.08-.18.26-.4.48-.51.22-.1.46-.09.59.03.12.11.12.32.17.51.05.19.16.36.22.57.05.21.04.46-.06.57-.1.11-.3.09-.5.06-.2-.03-.42-.08-.53-.17-.11-.09-.11-.22-.16-.33-.04-.11-.13-.2-.18-.31-.06-.11-.1-.23-.02-.41h0ZM24.21,25.28c.21-.13.39-.17.56-.17.17,0,.34.03.38.13.04.1-.05.28-.06.52-.01.24.04.54-.04.7-.08.16-.29.17-.48.13-.18-.04-.33-.14-.53-.22-.19-.08-.43-.13-.53-.21-.1-.08-.05-.2.09-.37.14-.17.39-.39.6-.52h0ZM47,33.89c-.45.12-1.01.54-1.3.93-.29.39-.3.77-.37,1.08-.06.31-.18.55-.19.88-.01.33.07.75.27.98.2.23.5.28.8.44.29.16.58.42.98-.01.41-.43.94-1.57,1.12-2.36.18-.8,0-1.26-.25-1.57-.26-.32-.6-.49-1.05-.37h0ZM43.63,36.17c-.38-.04-1.05.35-1.41.69-.36.34-.4.62-.6.9-.2.28-.56.55-.67,1-.11.44.04,1.06.44,1.36.41.3,1.08.29,1.66.39.57.1,1.05.32,1.36.19.32-.12.47-.58.4-1-.07-.42-.37-.81-.52-1.23-.14-.42-.13-.88-.17-1.34-.04-.46-.12-.92-.5-.95h0ZM44.39,22.47c-.66-.1-.73.39-.65,1.1.08.72.31,1.66.4,2.43.09.76.05,1.33.27,1.82.22.49.71.89,1.25,1.01.54.12,1.13-.04,1.73-.25.6-.22,1.22-.49,1.36-.86.14-.37-.19-.85-.47-1.49-.28-.65-.51-1.46-1.25-2.22-.74-.75-1.99-1.44-2.65-1.54h0ZM37.86,12.67c.07.31.27.79.35,1.25.08.47.04.93.22,1.2s.59.37.95.37c.36,0,.67-.07.94-.17s.5-.21.59-.54c.09-.33.03-.88-.06-1.28-.09-.41-.2-.68-.45-.98-.25-.29-.64-.61-.9-.75-.26-.14-.39-.09-.63-.02-.24.07-.6.18-.81.31-.21.13-.27.28-.19.6h0ZM37.89,39.46c.09-.13.15-.52.02-.9-.13-.38-.46-.73-.74-.72-.28.02-.51.4-.48.61.02.2.29.22.48.33.18.11.28.32.4.49.11.17.24.32.34.19h0ZM41.99,35.8c.1.29-.05.46-.27.59-.22.13-.51.22-.88.4-.38.19-.84.48-1.09.45-.25-.03-.3-.37-.4-.63-.1-.25-.27-.42-.38-.57s-.17-.3-.18-.43c-.01-.12.03-.22.14-.3.11-.08.3-.16.46-.31.15-.15.27-.38.43-.43.16-.05.35.08.59.13.24.05.52.03.83.21.31.19.66.59.75.87h0ZM34.1,33.11c.12.17.07.36-.1.49-.17.13-.45.19-.72.29-.27.1-.51.25-.72.24-.2,0-.36-.17-.35-.34,0-.17.17-.34.31-.52.14-.18.24-.37.33-.52.09-.14.16-.24.25-.25.09,0,.2.08.4.19.2.11.47.24.59.41h0ZM36.46,24.29c0,.15-.14.37-.43.5-.28.13-.7.18-.86.13-.15-.05-.05-.19,0-.35.05-.15.05-.32.13-.45.08-.13.24-.23.35-.24.11-.01.18.06.25.09.07.03.15.03.27.06.12.03.27.1.27.25h0ZM29.24,29.49c-.01-.22.01-.37.1-.51.09-.15.25-.29.23-.45-.01-.16-.2-.34-.52-.34-.31,0-.75.17-1.03.33-.27.16-.38.32-.59.52-.21.2-.52.45-.57.6-.05.15.16.22.36.4.2.18.38.47.59.58.21.11.44.05.69-.03.26-.08.55-.18.66-.38.12-.2.07-.5.05-.72h0ZM36.85,16.81c-.16.21-.42.52-.68.62-.25.1-.49,0-.78,0-.28,0-.61.11-.81-.02-.21-.13-.3-.51-.27-.75.03-.25.17-.37.21-.57.04-.2-.03-.47-.04-.65,0-.18.04-.27.28-.28.23-.01.65.04,1.1.09.45.05.93.09,1.16.29.22.19.18.53.13.75-.05.22-.12.32-.29.52h0ZM30.19,22.17c.12.21.23.62.16.92-.07.31-.33.51-.53.53-.2.02-.34-.14-.53-.2-.19-.06-.44-.01-.6-.14-.16-.13-.24-.44-.25-.71,0-.27.07-.5.2-.65.13-.15.31-.2.51-.18.2.02.43.12.61.17.18.05.3.05.42.25h0ZM24.26,27.79c0,.26-.18.8-.37,1.08-.19.28-.38.31-.54.17-.15-.14-.26-.46-.37-.67-.11-.21-.22-.32-.06-.43.16-.11.58-.23.88-.31.3-.07.46-.1.46.16h0ZM25.81,19.63c.12.3-.01.71-.33.82-.32.1-.83-.11-1.27-.13-.44-.03-.81.13-.88-.02-.07-.15.17-.61.5-.88.33-.27.74-.35,1.13-.3.39.05.75.22.86.52h0ZM30.77,33.71c-.11.33-.39.63-.7.57-.31-.06-.67-.49-1.09-.64-.42-.15-.91-.03-1.18-.09-.27-.07-.31-.32-.13-.54.18-.22.58-.41.86-.66.28-.24.42-.54.8-.7.38-.16.99-.19,1.27,0,.28.19.22.6.22.98,0,.39.05.75-.06,1.08h0ZM29.91,26.92c-.07.19-.3.62-.75.79-.45.17-1.11.07-1.67.15-.56.08-1.03.34-1.39.39-.37.05-.64-.11-.61-.39.03-.28.35-.67.51-1.14.16-.47.16-1.01.34-1.39.18-.38.55-.6.83-.63.28-.02.48.15.83.32.35.17.86.35,1.18.65.32.3.45.72.57.9.12.19.23.14.16.34h0ZM35.04,23.22c-.02-.36-.3-.7-.58-.91-.29-.21-.59-.29-.8-.45-.21-.16-.31-.42-.58-.46-.26-.04-.68.12-.87.38-.19.26-.17.6-.3.94-.13.34-.42.68-.4,1.14.02.46.34,1.04.61,1.28.27.24.5.15.68-.03.18-.18.31-.45.6-.6.3-.15.76-.17,1.1-.37.34-.2.56-.57.54-.92h0ZM40.55,28.4c-.26.06-.55.31-.88.18-.33-.13-.7-.65-.71-1-.02-.35.32-.54.62-.78.29-.24.54-.54.85-.68.32-.13.71-.1,1.39-.13.67-.03,1.63-.12,1.84.03.22.15-.31.54-.5.87-.19.33-.06.6-.19.7-.13.1-.52.04-.72.14-.2.11-.22.38-.35.56-.13.18-.36.26-.6.23-.24-.03-.48-.18-.75-.12h0ZM38.09,33.57c.1-.28.11-.64,0-.96-.12-.31-.36-.57-.53-.53-.17.04-.28.38-.45.64-.17.26-.39.45-.4.74,0,.28.2.66.39.8.19.14.35.05.53-.09.18-.14.37-.33.47-.6h0ZM33.98,14.34c-.11.69-.35,1.38-.3,1.99.05.61.39,1.14.52,1.63.13.5.06.96-.44,1.21-.5.24-1.41.27-2.08.49-.67.23-1.1.66-1.65.45-.55-.21-1.22-1.07-1.85-1.53-.63-.46-1.22-.53-1.63-.68-.42-.15-.66-.38-.88-.64-.21-.26-.39-.56-.63-.69-.23-.14-.53-.11-.78-.31-.26-.2-.48-.63-.15-.97.32-.35,1.19-.62,2.56-1.11,1.36-.5,3.23-1.23,4.54-1.58,1.32-.35,2.09-.32,2.49.03.39.35.4,1.03.29,1.72h0ZM41.08,24.34c.33.15.19.17.13.17-.07,0-.07-.04.14.03.21.07.63.23.83.14.2-.09.2-.43.08-.84-.12-.41-.35-.89-.65-1.33-.3-.44-.65-.85-1.12-1.38-.47-.53-1.04-1.18-1.31-1.9-.27-.72-.25-1.5-.37-1.81-.12-.3-.38-.13-.82.12s-1.06.55-1.33.82c-.28.27-.22.5-.24.83-.02.33-.12.77-.05,1.22.07.45.32.92.45,1.42.14.5.17,1.02.34,1.44.17.41.49.71.85.76.36.05.77-.16,1.37-.14s1.39.3,1.71.44h0ZM37.48,25.91c-.26-.46-.64-.44-.9-.35-.27.08-.42.22-.68.24-.26.03-.61-.05-.92.02-.31.07-.58.3-.85.67-.27.36-.54.85-1.05,1.2-.52.34-1.28.54-1.78.98-.5.44-.74,1.13-.6,1.66.14.53.65.9,1.11.97s.85-.17,1.31-.07c.46.1,1,.52,1.47.62.47.1.89-.13,1.16-.58.27-.45.4-1.11.75-1.64.35-.53.93-.94,1.15-1.62.22-.68.08-1.64-.17-2.1Z"/>
          <path class="cls-8" d="M46.21,46.1c.3,0,.57-.1.94-.16.47-.08,1.08-.08,1.58-.42.5-.34.87-1.02,1.74-1.55.87-.53,2.23-.92,3.19-1.28.96-.36,1.52-.69,2.58-1.05,1.05-.37,2.6-.77,3.59-1.23.99-.47,1.42-1,1.82-1.36.39-.37.75-.57,1.26-.67.5-.1,1.15-.1,1.69-.29.54-.19.97-.56,1.38-.83.41-.27.8-.42,1.36-.65.57-.23,1.31-.53,2.04-.74.72-.21,1.43-.32,1.88-.54.45-.22.65-.53,1.07-.69.42-.16,1.05-.16,1.36-.58.32-.42.32-1.27.2-1.99-.11-.72-.34-1.33-.34-1.99s.23-1.4.27-2.16c.04-.76-.1-1.55-.27-2.45-.17-.9-.35-1.92-.37-3.32-.01-1.4.14-3.18.25-4.48.11-1.3.17-2.12.08-2.74-.09-.62-.32-1.05-.32-1.53,0-.47.21-.99.2-1.33s-.24-.5-.7-.65c-.47-.16-1.17-.32-2.03-.6-.86-.28-1.88-.68-2.54-1.1-.22-.14-.4-.28-.56-.42-2.17,1.14-4.91,2.16-7.79,3.25-4.02,1.51-8.32,3.11-10.55,4.22-2.22,1.1-2.37,1.71-2.55,2.27-.19.56-.42,1.08-.56,1.52-.14.44-.2.82-.23,1.69-.03.88-.03,2.25.13,3.39.16,1.13.47,2.02.53,3.17.06,1.15-.14,2.55-.33,3.83-.19,1.28-.36,2.43-.26,3.62.1,1.19.47,2.43.53,3.7.06,1.28-.2,2.6-.27,4.05-.04.71-.03,1.45.01,2.1Z"/>
          <path class="cls-9" d="M59.39,40.59s0-.04.01-.05c.17-.71.84-1.41,1.32-1.68.47-.27.75-.12,1.11-.06.03,0,.05,0,.08.01-.09.07-.18.14-.27.23-.39.37-.83.9-1.82,1.36-.13.06-.28.13-.43.19h0ZM46.89,45.99c.08-.02.17-.04.26-.05.47-.08,1.08-.08,1.58-.42.47-.32.82-.94,1.59-1.45-.03-.05-.06-.11-.1-.16-.31-.42-.88-.68-1.31-.74-.43-.06-.71.08-1.05.21-.34.12-.73.22-.89.63-.16.41-.08,1.12-.08,1.8,0,.06,0,.12,0,.19h0ZM53.02,42.92c.23-.08.44-.15.64-.23.82-.31,1.35-.59,2.15-.9-.09-.03-.18-.06-.27-.11-.31-.16-.63-.47-1.08-.51-.46-.04-1.05.19-1.28.64-.16.3-.16.71-.15,1.12h0ZM56.81,41.44c-.12-.18-.24-.41-.43-.68-.24-.34-.59-.76-.6-1.01,0-.25.33-.35.56-.49.24-.14.37-.33.51-.46.14-.13.28-.21.4-.24.12-.03.22,0,.32.1.1.1.2.28.37.41.17.13.42.21.49.36.07.15-.03.36-.04.6-.02.24.05.52-.09.86-.02.04-.03.07-.05.11-.48.16-.97.3-1.42.45h0ZM64.48,38.12s.07-.02.1-.03c.33-.12.63-.3.9-.49-.08-.03-.17-.04-.26-.02-.25.05-.56.29-.74.55h0ZM68.59,36.11c.25-.09.51-.17.77-.25.72-.21,1.43-.32,1.88-.54.45-.22.65-.53,1.07-.69.42-.16,1.05-.16,1.36-.58.05-.07.09-.15.13-.23-.21-.08-.4-.02-.65,0-.33.03-.78-.01-1.21.12-.44.14-.87.45-1.34.65-.47.21-.99.31-1.37.54-.38.23-.64.59-.63.95v.02h0ZM73.77,31.54c-.11-.51-.24-.97-.24-1.48,0-.67.23-1.4.27-2.16.04-.76-.1-1.55-.27-2.45-.12-.64-.25-1.35-.32-2.2-.1.17-.19.37-.24.62-.09.43-.07,1.02-.44,1.71-.37.69-1.12,1.48-1.25,2.06-.13.58.36.94.69,1.57.32.63.48,1.53.79,1.99.26.37.62.44,1,.35h0ZM73.25,19.89c.05-.79.12-1.58.17-2.24.07-.79.11-1.4.12-1.9-.28-.25-.58-.37-.86-.43-.38-.08-.7-.03-1.07-.13-.37-.1-.79-.34-1.08-.13-.29.2-.45.85-.4,1.32.04.47.29.77.44,1.14.15.37.2.82.42,1.11.22.29.61.42,1.01.65.4.22.79.53,1.24.61h0ZM71.63,11.1c-.3-.08-.63-.18-.98-.29-.86-.28-1.88-.68-2.54-1.1-.22-.14-.4-.28-.56-.42-.18.09-.36.19-.55.28.42.57.71,1.29,1.32,1.76.62.48,1.56.69,2.19.59.63-.1.93-.53,1.13-.83h0ZM65.09,10.44c-.73.31-1.49.62-2.28.93,0,.06,0,.13,0,.18.07.26.43.44.85.74.42.3.91.73,1.33.82.42.09.78-.15.77-.37-.02-.22-.41-.43-.52-.74-.11-.31.06-.73,0-1.14-.02-.15-.07-.29-.15-.42h0ZM61.78,11.78c-.66.25-1.34.51-2.03.76-.62.23-1.24.46-1.86.7-.03.04-.06.07-.08.11-.17.33-.06.86.2,1.28.26.41.67.71,1,.86.34.15.6.17.91.2.31.03.68.08,1.05-.1.38-.18.77-.59.86-.92.09-.34-.13-.6-.13-1.05,0-.44.23-1.07.15-1.56-.02-.1-.04-.2-.09-.28h0ZM53.53,14.91c-.61.24-1.2.48-1.75.7.29.17.6.12.99-.13.22-.14.47-.36.76-.57h0ZM49.06,16.83c-1.94.99-2.2,1.56-2.37,2.08.19.23.51.43.83.92.32.49.64,1.27,1.07,1.63.44.36,1,.31,1.22-.06.23-.37.13-1.05.18-1.6.05-.55.25-.97.54-1.32.29-.35.67-.62.79-.91.12-.29,0-.61-.4-.72-.39-.11-1.05-.01-1.58-.01-.1,0-.19,0-.29,0h0ZM45.86,22.31c0,.08,0,.17,0,.25.04.22.16.53.36.97.35.77.96,1.92,1.45,2.52.49.6.88.66,1.02.39.14-.27.03-.88.11-1.45.08-.56.34-1.08.34-1.46,0-.38-.27-.63-.69-.78-.41-.15-.97-.2-1.46-.31-.49-.12-.91-.3-1.07-.19-.02.02-.04.04-.05.07h0ZM46.53,29.42c-.02,1.01-.18,2.15-.34,3.2-.05.37-.11.72-.15,1.07.34-.15.65-.32.92-.36.6-.08,1.05.51,1.55,1.01.5.5,1.04.9,1.34.86.31-.04.38-.51-.03-1.19-.41-.68-1.29-1.58-1.83-2.49-.54-.91-.73-1.82-1.27-2.05-.06-.03-.13-.04-.2-.05h0ZM57.18,36.01c-.19-.17-.4-.33-.67-.35-.28-.02-.62.08-.75.26-.13.18-.03.44.01.8.04.35.03.8.17,1.01.14.22.44.2.67.07.23-.13.4-.38.57-.51.17-.13.34-.14.44-.24.09-.1.11-.28.03-.47-.08-.19-.26-.39-.46-.56h0ZM71.89,31.65c.18.05.44.2.57.4.13.2.15.45.06.58-.09.14-.3.16-.48.24-.18.08-.33.22-.53.3-.2.08-.44.11-.57.02-.13-.08-.13-.28-.13-.49,0-.21.02-.43.09-.55.07-.12.2-.14.3-.2.1-.06.18-.15.28-.23.1-.07.22-.13.4-.08h0ZM61.59,19.09c.08.24.07.64-.08.87-.15.23-.44.3-.64.29-.21,0-.33-.08-.47-.13-.13-.05-.28-.08-.37-.18-.09-.1-.13-.28-.05-.48.08-.21.27-.45.5-.58.22-.13.47-.15.68-.13.2.03.36.11.44.35h0ZM65.35,22.64c-.16-.19-.41-.4-.6-.52-.19-.12-.31-.14-.38-.04-.07.11-.08.35-.13.55-.05.2-.12.37-.14.55-.02.19.03.4.2.45.17.06.46-.05.7-.07.24-.02.43.04.53-.02.1-.05.1-.22.07-.39-.03-.17-.09-.34-.25-.53h0ZM51.8,35.84c.42.41.61,1.31.52,1.93-.08.62-.44.96-.54,1.42-.11.46.04,1.03-.05,1.46-.08.43-.39.7-.71.67-.32-.03-.64-.38-1.1-.62-.46-.24-1.04-.39-1.49-.76-.45-.37-.75-.96-.72-1.4.03-.43.4-.7.62-1,.22-.29.31-.61.58-.94.27-.33.73-.67,1.28-.88.55-.21,1.19-.29,1.61.12h0ZM53.31,38.24c.14.07.54.08.89-.11.35-.19.66-.57.6-.84-.06-.27-.47-.44-.67-.39-.2.05-.17.32-.25.52-.08.2-.27.33-.43.46-.16.14-.28.29-.14.36h0ZM55.2,18.04c.21-.17.34-.48.31-.71-.03-.23-.21-.38-.43-.58-.22-.2-.49-.45-.69-.53-.2-.08-.35,0-.51.17-.17.17-.35.42-.42.56-.07.14-.02.18.19.34.21.16.6.43.76.62.16.19.1.29.21.32.11.03.39,0,.59-.18h0ZM68.72,14.58c.25.02.58-.03.81-.17.23-.14.36-.38.37-.54.02-.16-.08-.25-.22-.44-.14-.19-.34-.47-.53-.56-.19-.09-.38.02-.57.09-.19.07-.39.11-.53.29-.14.17-.23.47-.21.68.02.21.14.32.29.43.15.11.33.21.58.23h0ZM55.47,23.95c-.14.04-.31.04-.47-.07-.16-.11-.31-.34-.44-.47-.13-.13-.23-.16-.32-.22-.09-.06-.17-.15-.1-.28.07-.13.28-.31.42-.48.14-.17.2-.34.34-.31.14.03.37.25.57.36.2.12.36.13.49.19.12.06.21.18.2.27-.01.1-.12.18-.19.31-.07.13-.1.31-.17.44-.07.13-.17.21-.31.26h0ZM60.29,17.51c.16.13.33.21.52.16.19-.05.4-.21.49-.37.09-.16.07-.32.14-.45.06-.13.21-.23.23-.37.02-.13-.1-.3-.26-.32-.16-.02-.37.1-.6.1-.24,0-.5-.12-.73-.06-.23.06-.43.3-.46.46-.03.16.1.25.24.39.14.14.28.33.44.46h0ZM53.54,21.72c-.28.2-.62.37-.9.35-.28-.01-.51-.21-.6-.41-.09-.2-.05-.42-.17-.67-.12-.26-.41-.55-.46-.92-.05-.37.15-.8.38-1.14.24-.34.52-.6.73-.63.21-.03.36.16.56.26.2.11.47.13.6.39.14.26.15.76.23,1.15.08.39.23.66.18.92-.04.26-.27.5-.56.7h0ZM59.04,33.56c-.15.14-.35.12-.5-.02-.15-.15-.25-.42-.39-.67-.14-.25-.32-.47-.34-.67-.02-.2.11-.38.28-.39.17-.02.36.12.56.23.2.11.4.19.56.25.15.07.26.12.28.21.02.09-.05.21-.13.42-.08.21-.17.5-.32.64h0ZM68.11,34.61c-.14.02-.38-.09-.56-.35-.17-.26-.28-.67-.25-.83.03-.16.18-.07.34-.04.16.03.32,0,.46.07.14.06.26.2.29.31.03.11-.03.18-.06.26-.02.08,0,.16-.02.28-.02.12-.06.28-.21.31h0ZM61.92,28.23c-.22.05-.51.14-.72.05-.22-.09-.36-.36-.48-.6-.12-.24-.21-.46-.13-.68.08-.22.34-.45.49-.67.15-.22.18-.44.34-.41.16.03.45.3.68.47.23.18.4.26.61.51.2.25.43.66.48.97.04.31-.1.52-.26.56-.16.04-.32-.1-.48-.17-.16-.07-.3-.07-.52-.03h0ZM69.29,28.1c-.19.15-.58.32-.89.29-.31-.03-.55-.25-.6-.45-.05-.19.09-.35.12-.55.03-.2-.05-.43.05-.61.11-.18.4-.3.67-.35.27-.04.51,0,.67.11.16.11.25.28.26.48,0,.21-.06.45-.08.63-.02.18,0,.3-.19.45h0ZM62.88,23.05c-.26.03-.82-.06-1.12-.21-.31-.14-.36-.34-.24-.51.12-.17.42-.33.61-.47.19-.14.28-.26.42-.12.13.14.32.54.43.83.12.28.17.44-.09.47h0ZM71.17,23.4c-.28.16-.71.09-.86-.21-.15-.3-.02-.84-.05-1.28-.04-.44-.25-.79-.11-.87.14-.09.63.08.94.36.32.28.46.68.47,1.07,0,.39-.11.77-.39.93h0ZM57.97,30.36c-.34-.06-.68-.29-.67-.61.02-.32.39-.73.48-1.17.09-.44-.1-.9-.08-1.18.03-.27.27-.35.52-.21.25.15.49.52.77.75.28.24.59.34.81.69.21.35.33.95.18,1.25-.15.3-.56.31-.94.37-.38.06-.73.16-1.08.1h0ZM64.56,28.51c.2.04.14-.06.31-.21.17-.15.56-.34.81-.7.25-.36.35-.89.47-1.26.12-.37.26-.59.2-.86-.07-.27-.34-.61-.74-.73-.4-.13-.94-.04-1.42-.13-.48-.09-.92-.35-1.2-.34-.28.01-.4.3-.3.66.1.36.42.78.59,1.32.16.54.17,1.21.4,1.63.23.42.69.59.89.63h0ZM68.97,33.05c-.35.08-.75-.09-.99-.4-.25-.31-.34-.76-.53-1.03-.19-.27-.47-.36-.68-.51-.21-.15-.33-.36-.13-.67.2-.31.72-.71,1.18-.79.45-.08.83.15,1.19.23.36.08.7,0,.98.16.28.16.51.54.5.81,0,.27-.24.41-.37.64-.13.23-.16.54-.33.86-.17.32-.46.63-.81.71h0ZM59.17,37.58c.29.06.65.02.95-.14.29-.16.51-.44.45-.61-.06-.17-.42-.22-.7-.35-.29-.13-.51-.32-.79-.28-.28.03-.62.3-.74.5-.11.2,0,.35.16.51.16.15.38.32.67.38h0ZM55.95,34.75c-.61.47-1.34.62-1.94.4-.6-.22-1.09-.83-1.61-1.8-.53-.97-1.09-2.31-1.67-3.52-.57-1.21-1.16-2.3-1-3.24.16-.93,1.05-1.7,1.72-2.26s1.13-.91,1.62-.73c.49.17,1.03.87,1.61,1.31.58.44,1.21.63,1.51.94.3.32.26.76.15,1.32-.11.56-.28,1.23-.09,2.18.19.95.74,2.17.77,3.16.03,1-.46,1.77-1.07,2.24h0ZM69.36,25.26c-.49-.08-1.42-.49-2.01-1.14-.59-.65-.84-1.55-1.24-2.1-.41-.56-.97-.77-1.58-1.16-.61-.38-1.26-.93-1.73-1.48-.46-.55-.74-1.1-.55-1.38.19-.28.85-.3,1.32-.53.47-.23.76-.69,1.06-1.28.3-.59.63-1.33,1.13-1.75.5-.42,1.18-.52,1.48-.36.3.16.21.59.34,1.17.14.58.5,1.32.74,1.96.24.64.35,1.19.25,1.8-.1.61-.42,1.29-.36,1.93.06.65.5,1.27.86,1.91.35.64.62,1.3.73,1.76.11.46.05.72-.44.64h0ZM59.81,26.09c.44.27.63.38.71.24.07-.14.02-.54.1-.91.08-.37.29-.71.13-.99-.16-.28-.68-.49-1.03-.82-.34-.33-.51-.78-.51-1.24,0-.45.16-.9.18-1.29.02-.39-.11-.73-.12-1.21,0-.48.11-1.11.02-1.56-.08-.45-.36-.72-.64-.86-.28-.14-.55-.15-.8-.26-.25-.12-.48-.34-.75-.29-.27.05-.59.36-.63.74-.04.38.2.83.11,1.3-.08.47-.49.96-.68,1.47-.19.51-.17,1.03.05,1.43.22.4.65.67,1.02,1.16.37.49.68,1.21,1.19,1.79.51.58,1.2,1.02,1.65,1.3h0ZM66.66,35.85c.42-.32.34-.69.22-.94-.12-.25-.28-.39-.34-.63-.06-.25-.04-.61-.15-.91-.12-.3-.39-.53-.78-.74-.4-.21-.92-.41-1.34-.86-.41-.46-.72-1.19-1.23-1.62-.51-.43-1.23-.57-1.73-.35-.5.21-.8.78-.8,1.24,0,.46.29.82.26,1.29-.03.47-.37,1.06-.4,1.54-.03.48.26.86.74,1.06.48.2,1.15.23,1.73.5.58.27,1.06.79,1.77.91.71.12,1.63-.16,2.05-.48Z"/>
          <path class="cls-4" d="M64.81,7.7c-.57-.28-.99-.61-1.6-.9-.61-.29-1.41-.55-2.34-.76-.93-.21-1.97-.37-3.14-.85-1.17-.49-2.46-1.31-3.73-1.82-1.27-.51-2.52-.71-3.44-1.07-.92-.36-1.51-.88-2.21-1.31-.7-.44-1.52-.8-2.04-.92-.52-.13-.75-.02-1,.03-.25.05-.52.05-.85.18-.33.13-.72.38-1.55.71-.83.33-2.11.75-3.07,1.07-.96.32-1.61.55-2.11.9-.5.34-.86.8-1.94,1.26-1.08.46-2.87.92-3.95,1.28s-1.43.62-2.15,1.03c-.72.41-1.79.97-2.88,1.38-1.08.42-2.17.69-3.31,1.08-1.13.39-2.31.91-2.9,1.38-.32.26-.47.51-.52.74.31.15.61.3.87.45.89.47,1.46.85,2.02,1.12.56.27,1.1.44,1.89.96.79.52,1.82,1.38,2.84,2.09,1.02.72,2.02,1.29,3.11,1.72,1.09.43,2.27.72,3.36.95,1.09.23,2.1.4,3.03.75.93.34,1.79.86,2.6,1.35.8.49,1.55.95,2.48,1.41.93.46,2.05.92,2.71,1.15.66.23.86.23,1.33.11.47-.11,1.22-.34,1.97-.67.75-.33,1.49-.76,2.05-1.03.56-.27.93-.39,1.74-.53.8-.14,2.04-.32,2.98-.6.95-.29,1.61-.69,2.38-1.18.77-.49,1.66-1.06,2.48-1.39.82-.33,1.56-.42,2.28-.6.72-.19,1.41-.47,2.24-.73.83-.26,1.81-.49,2.58-1.05s1.35-1.45,2.21-2.02,2.01-.83,3.11-1.08c.35-.08.7-.15,1.03-.23,0-.34-.24-.49-.7-.65-.47-.16-1.17-.32-2.03-.6-.86-.28-1.88-.68-2.54-1.1-.66-.42-.96-.85-1.48-1.18-.52-.33-1.25-.56-1.82-.84Z"/>
          <path class="cls-5" d="M55.58,4.11c-.52-.27-1.06-.54-1.58-.75-1.27-.51-2.52-.71-3.44-1.07-.92-.36-1.51-.88-2.21-1.31-.7-.44-1.52-.8-2.04-.92-.52-.13-.75-.02-1,.03-.25.05-.52.05-.85.18-.33.13-.72.38-1.55.71-.83.33-2.11.75-3.07,1.07-.96.32-1.61.55-2.11.9-.18.12-.33.26-.51.4.61.29,1.38.29,1.74.45.39.17.3.54.03.8-.27.26-.73.42-.96.63-.23.21-.23.46.15.75.38.3,1.13.64,1.97.98.84.34,1.78.68,2.62.25.84-.43,1.6-1.64,2.41-2.29s1.68-.74,2.67-.62c.99.13,2.11.47,3.05.48.94.01,1.69-.31,2.66-.47.66-.11,1.42-.14,2.04-.21h0ZM27.07,7.8c-.09.04-.18.07-.27.11-1.08.42-2.17.69-3.31,1.08-1.13.39-2.31.91-2.9,1.38-.32.26-.47.51-.52.74.31.15.61.3.87.45.89.47,1.46.85,2.02,1.12.56.27,1.1.44,1.89.96.27.18.57.4.89.64.19-.25.16-.51.29-.67.19-.26.77-.3,1.29-.43.52-.13,1-.33,1.52-.4.51-.07,1.05-.01,1.77.32.72.33,1.61.93,2.48,1.02.87.08,1.71-.35,2.92-.7,1.21-.35,2.79-.62,4.08-.82,1.29-.21,2.29-.35,2.59-.84.3-.49-.12-1.34-.91-1.69-.8-.35-1.99-.22-3.41-.47-1.43-.25-3.09-.89-4.82-1.05-1.72-.16-3.5.16-5.1-.23-.48-.12-.94-.3-1.37-.51h0ZM31.52,17.72c.88.29,1.79.51,2.65.69,1.09.23,2.09.4,3.03.75.93.34,1.79.86,2.6,1.35.8.49,1.55.95,2.48,1.41.93.46,2.05.92,2.71,1.15.11.04.2.07.29.09.03-.06.05-.12.06-.18.18-.76-.51-2.09-1.41-2.93-.9-.84-2.02-1.21-2.6-1.95-.58-.74-.61-1.85-1.53-2.39-.91-.55-2.71-.53-3.86-.5-1.15.03-1.66.08-2.03.41-.36.33-.58.94-1.09,1.33-.37.29-.91.46-1.32.77h0ZM73.21,11.68c-.12-.11-.29-.19-.53-.27-.47-.16-1.17-.32-2.03-.6-.86-.28-1.88-.68-2.54-1.1-.66-.42-.96-.85-1.48-1.18-.03-.02-.05-.03-.08-.05-.18.3-.18.72.04,1.03.27.39.86.63,1.24,1.02.38.39.54.92.92,1.27.38.34.99.49,1.57.42.58-.07,1.14-.37,1.75-.48.39-.07.79-.06,1.15-.06h0ZM48.39,10.58c.37-.6,1.69-.81,2.92-.72,1.23.09,2.37.48,3.21.01.83-.47,1.36-1.79,2.11-2.49.75-.7,1.73-.76,2.58-.37.84.4,1.55,1.27,2.42,2.15.87.88,1.89,1.77,1.93,2.51.04.74-.91,1.34-1.59,1.99-.68.65-1.09,1.35-2.01,1.61-.92.26-2.34.08-3.27-.28-.93-.36-1.36-.91-2.07-1.23-.71-.32-1.69-.41-2.57-.34-.88.07-1.65.3-2.11.29-.46-.01-.59-.26-.96-.89-.37-.63-.96-1.63-.59-2.24h0ZM48.93,17.13c.39-.36,1.45-.86,2.53-1,1.08-.13,2.19.1,2.42.54.23.44-.41,1.08-.73,1.63-.32.55-.31,1.01-.75,1.13s-1.34-.1-1.97-.41c-.63-.31-.99-.7-1.3-1.01-.32-.31-.59-.52-.2-.88h0ZM46.64,7.02c-.05-.43.3-.78.83-.83.52-.05,1.22.19,1.83.3.61.11,1.14.09,1.52.23.39.15.64.47.46.78-.18.31-.8.6-1.28.92-.48.31-.82.64-1.2.66-.38.02-.79-.28-1.22-.69-.43-.41-.89-.94-.94-1.37Z"/>
          <path class="cls-3" d="M72.13,12.33c-1.03.26-1.95.49-2.85,1.09-.86.64-1.35,1.42-2.17,2.07-.86.61-1.63.8-2.61,1.12-.75.25-1.48.55-2.24.77-.79.21-1.46.31-2.24.62-.87.38-1.63.89-2.42,1.4-.87.56-1.45.91-2.45,1.23-1.01.3-1.99.44-3.02.63-.67.13-1.03.21-1.64.51-.7.35-1.35.72-2.06,1.04-.57.27-1.28.5-1.89.66-.04.01-.09.02-.13.03-.65.15-.9.09-1.53-.13-.94-.33-1.86-.73-2.75-1.17-.88-.44-1.66-.92-2.5-1.43-.85-.52-1.6-.97-2.53-1.34-.99-.36-1.96-.54-2.98-.76-1.19-.27-2.25-.55-3.39-1-1.19-.5-2.08-1.04-3.13-1.8-.95-.7-1.84-1.47-2.8-2.15-.67-.44-1.17-.65-1.86-1-.59-.32-1.17-.69-1.75-1.03.6.31,1.18.64,1.8.94.73.32,1.21.49,1.93.92.98.62,1.92,1.37,2.88,2.04,1.04.7,1.93,1.19,3.1,1.65,1.12.41,2.16.66,3.33.89,1.06.21,2.05.37,3.08.73.99.37,1.76.82,2.66,1.36.82.49,1.6.95,2.46,1.38.87.42,1.77.8,2.68,1.12.5.17.63.22,1.14.1,0,0,.1-.03.12-.03.62-.17,1.19-.37,1.79-.62.7-.32,1.35-.68,2.04-1.02.68-.32,1.09-.42,1.83-.55,1-.17,1.97-.3,2.95-.58.93-.29,1.5-.62,2.32-1.12.84-.52,1.62-1.01,2.54-1.39.83-.31,1.49-.39,2.32-.58.76-.19,1.49-.47,2.24-.69.94-.27,1.72-.43,2.56-.98.84-.62,1.35-1.36,2.25-1.97.8-.53,1.99-.78,2.93-.96Z"/>
        </g>
        <path class="cls-7" d="M25.55,8.96c.31,0,.92.04,1.37.13.46.1.76.25.58.38-.18.13-.86.22-1.56.27-.7.05-1.42.04-1.79-.05-.36-.1-.36-.28-.18-.41.18-.13.55-.2.79-.22.23-.03.33-.01.39-.03.06-.02.08-.06.4-.06h0ZM54.41,7.64c.37-.04.98-.09,1.33-.07.35.02.45.1.35.19-.1.09-.41.19-.76.26-.36.07-.76.13-1,.14-.23.01-.29-.01-.36-.09-.07-.07-.15-.2-.11-.28s.18-.12.55-.16h0ZM45.89,6.54c.37-.03,1.07-.09,1.57-.03s.79.21.92.35c.13.13.08.24-.41.34-.5.1-1.45.18-1.93.24-.49.06-.51.09-.56.02-.05-.07-.12-.23-.2-.39-.08-.15-.16-.3-.13-.38.03-.08.17-.1.25-.11.09-.01.12-.02.49-.05h0ZM46.43,2.19c.51-.02,1.27-.08,1.85-.05.58.03.98.16,1.14.31.16.16.08.34-.58.46-.66.12-1.91.16-2.55.16-.65,0-.7-.05-.82-.2-.11-.15-.29-.39-.31-.53-.02-.13.12-.15.31-.15.2,0,.45,0,.95-.02h0ZM41.03,17.65c.48-.04,1.24-.11,1.87-.11.63,0,1.15.08,1.34.23.19.15.06.36-.46.52-.52.16-1.41.26-1.97.33-.56.06-.78.08-.96.06-.18-.03-.33-.1-.44-.24-.12-.13-.21-.33-.25-.46-.04-.13-.03-.21.07-.25.11-.04.32-.04.8-.08h0ZM67.78,11.6c.49-.08,1.38-.17,1.99-.22.61-.04.93-.03,1.13.04.21.07.29.19.19.29-.11.1-.42.19-.77.28-.35.09-.75.17-.97.19-.21.02-.24-.01-.58-.06-.34-.05-1-.12-1.34-.17-.33-.06-.34-.11-.3-.16.05-.05.15-.11.64-.19h0ZM54.51,17.44c.32-.05.87-.11,1.29-.1.43,0,.73.08.76.18.03.1-.21.22-.67.34-.46.12-1.14.24-1.48.29q-.34.06-.4-.08c-.06-.14-.17-.43-.17-.53,0-.11.08-.04.17-.02.09.01.17-.03.49-.08h0ZM45.09,12.59c.59,0,1.42,0,1.99.04.57.04.87.12.91.25.05.13-.17.31-.77.46-.6.15-1.59.27-2.2.32-.62.05-.87.02-1.01-.17-.15-.19-.19-.55-.03-.73.16-.18.52-.17,1.11-.17h0ZM31.87,11.05c.36-.05.87-.12,1.34-.11.48,0,.93.09.83.31-.11.23-.77.59-1.34.77-.57.18-1.03.16-1.34.06-.31-.11-.47-.31-.49-.48-.02-.17.08-.3.25-.38.16-.08.39-.12.75-.17Z"/>
        <g>
          <path class="cls-2" d="M44.1,2.49c.05-.31.48-.79.81-1.01.33-.22.56-.17.82-.14.25.03.52.05.75.13.23.08.41.22.54.35.13.13.22.25.23.47,0,.22-.06.54-.22.69-.16.15-.4.13-.71.18-.31.04-.68.15-.96.15s-.47-.1-.73-.23c-.26-.13-.58-.27-.52-.59h0ZM41.42,5.44c.12-.12.34-.22.56-.23.22-.02.43.04.62.12.18.07.33.16.33.25,0,.09-.16.17-.27.26-.11.09-.18.19-.35.24-.17.05-.44.06-.63.02-.19-.04-.3-.14-.35-.26-.04-.12-.02-.27.1-.39h0ZM38.77,17.86c0-.29.22-.67.58-.78.36-.11.85.06,1.29.15.43.09.81.11,1.06.24.26.13.39.39.31.51-.08.12-.38.12-.64.28-.26.16-.47.49-.81.56-.34.07-.82-.11-1.18-.3-.36-.19-.6-.38-.61-.66h0ZM44.46,6.6c.2-.27.51-.65.83-.66.33-.01.66.34.96.55.29.2.55.26.67.36.13.1.13.26-.09.4-.22.14-.65.26-.92.36-.27.1-.39.18-.59.16-.21-.02-.51-.13-.73-.24-.22-.11-.35-.23-.37-.36-.03-.13.05-.29.25-.56h0ZM22.81,9.39c.03-.25.16-.7.38-.99.22-.29.52-.43.85-.32.33.11.69.46,1.09.67.4.22.85.3,1.04.45.18.14.1.34-.24.44-.34.1-.93.11-1.34.16-.41.05-.65.14-.9.15-.25,0-.52-.08-.69-.16-.16-.08-.23-.14-.19-.4h0ZM42.83,13.27c-.04-.31.16-.85.39-1.12.23-.27.5-.27.78-.17.29.1.6.3.88.37.28.07.52.01.72.17.2.16.36.53.31.71-.05.18-.3.17-.54.21-.24.04-.48.14-.71.29-.23.15-.46.35-.66.36-.2.01-.38-.16-.61-.29-.23-.13-.52-.22-.56-.53h0ZM65.62,11.92c0-.29.4-.7.88-.84s1.04-.03,1.44.12c.39.14.62.31.9.42.28.11.63.15.8.25.16.1.15.26-.03.33-.18.07-.52.05-.88.12-.36.07-.75.23-1.15.29-.39.06-.79.03-1.18-.08-.39-.11-.77-.29-.77-.59h0ZM53.15,17.6c0-.17.16-.48.36-.63.2-.15.44-.15.65-.03.21.11.39.34.58.49.19.15.38.21.49.3.1.09.11.2.03.26-.09.05-.27.05-.47.13-.21.08-.44.24-.65.28-.21.04-.38-.03-.49-.14s-.13-.27-.23-.36c-.1-.09-.26-.11-.27-.28h0ZM29.25,11.76c0-.23.22-.64.46-.8.24-.16.51-.07.84-.1.33-.03.72-.18,1.1-.19.38-.01.74.11.88.27.14.16.05.37,0,.62-.05.24-.06.52-.17.68-.11.15-.33.19-.63.11-.3-.08-.69-.27-1.05-.33-.36-.06-.69,0-.96.02-.27,0-.48-.04-.47-.27h0ZM53.08,7.87c0-.17.03-.38.11-.55.08-.17.2-.29.4-.24.2.05.49.29.78.43.29.14.57.18.74.27.17.08.21.21.1.29-.11.08-.38.11-.68.21-.3.1-.64.26-.86.27-.23.01-.35-.12-.44-.25-.09-.13-.15-.26-.16-.43h0ZM35.24,6.82c.09-.19.26-.44.44-.59.18-.15.35-.2.5-.12.15.07.27.26.44.39.17.13.38.2.46.31.08.12.02.28-.17.46-.19.18-.51.38-.74.43-.23.05-.36-.03-.51-.1-.15-.07-.3-.11-.39-.17-.09-.05-.1-.12-.11-.21-.01-.09-.02-.22.07-.41Z"/>
          <path class="cls-1" d="M45.17,1.35c.2-.06.37-.03.55-.01.25.03.52.05.75.13.23.08.41.22.54.35.13.13.22.25.23.47,0,.22-.06.54-.22.69-.05.05-.11.08-.17.1h0c-.06-.21-.15-.51-.27-.77-.12-.26-.26-.48-.44-.63-.18-.15-.41-.21-.58-.26-.17-.04-.29-.06-.34-.06-.03,0-.04,0-.04-.01h0ZM24.35,8.29c.1.12.26.34.5.53.24.19.55.34.67.51.09.12.08.26.11.37.11-.02.21-.04.3-.06.34-.1.43-.3.24-.44-.18-.14-.63-.23-1.04-.45-.36-.19-.68-.49-.98-.63,0,0,0,0,.01,0,.02.01.07.04.18.16h0ZM36.31,6.21c.11.16.24.37.3.58.06.22.06.45.08.62,0,.01,0,.02,0,.04.08-.06.16-.12.22-.18.19-.18.25-.35.17-.46-.08-.12-.29-.18-.46-.31-.13-.1-.24-.24-.35-.33l.03.05h0ZM45.83,6.21c.09.11.32.35.44.57.13.22.16.42.17.6,0,.01,0,.02,0,.03.15-.05.29-.11.38-.17.22-.14.22-.29.09-.4-.13-.1-.38-.16-.67-.36-.18-.12-.38-.31-.58-.43.03.03.06.04.07.05.03.02,0,0,.09.1h0ZM53.9,7.23c.13.09.36.24.49.45.12.19.17.41.19.58.29-.09.54-.12.65-.2.11-.08.06-.21-.1-.29-.17-.08-.45-.13-.74-.27-.23-.11-.47-.29-.65-.38,0,0,0,0,0,0,.01,0,.04.02.17.11h0ZM67.34,11.09c.21.07.54.21.77.38.23.17.36.37.43.56.04.1.05.21.06.3.04,0,.08-.02.12-.03.36-.07.7-.05.88-.12.18-.07.2-.23.03-.33-.16-.1-.51-.14-.8-.25-.28-.11-.51-.27-.9-.42-.28-.1-.63-.19-.99-.18,0,0,.02,0,.03,0,.05,0,.15,0,.36.08h0ZM54.36,17.1c.08.09.18.22.24.37.06.14.07.3.07.47,0,.07,0,.14,0,.21.03-.02.07-.03.1-.04.21-.08.39-.07.47-.13.09-.05.07-.17-.03-.26-.1-.09-.3-.15-.49-.3-.18-.14-.36-.36-.56-.48,0,0,0,0,.02.01.03.02.09.06.17.15h0ZM40.14,17.14c.21.07.57.19.8.34.24.15.35.32.39.52.02.09.02.19.01.28.01,0,.02-.02.03-.02.26-.16.55-.16.64-.28.08-.12-.06-.37-.31-.51-.26-.13-.63-.15-1.06-.24-.27-.06-.56-.14-.83-.17,0,0,0,0,.01,0,.04,0,.11.02.32.08h0ZM44.13,12.08c.2.11.52.33.73.52.2.19.28.36.3.57.01.11.01.22.02.33.07-.02.13-.04.2-.05.24-.04.5-.03.54-.21.05-.18-.11-.55-.31-.71-.2-.16-.44-.1-.72-.17-.28-.07-.59-.27-.88-.37-.06-.02-.12-.04-.17-.05,0,0,.01,0,.02,0,.03,0,.09.02.29.14h0ZM31.32,10.77c.28,0,.6.07.8.27.2.2.28.53.3.85,0,.08,0,.17,0,.25.06-.16.08-.38.12-.57.05-.24.14-.45,0-.62-.14-.16-.5-.29-.88-.27-.23,0-.46.06-.68.11.1,0,.22-.02.34-.01Z"/>
        </g>
      </g>
    </g>
  </g>
</svg>