<?xml version="1.0" encoding="UTF-8"?>
<svg xmlns="http://www.w3.org/2000/svg" viewBox="0 0 90.63 72.26">
  <defs>
    <style>
      .cls-1 {
        fill: #f1eae5;
      }

      .cls-2 {
        opacity: .6;
      }

      .cls-2, .cls-3, .cls-4, .cls-5 {
        mix-blend-mode: multiply;
      }

      .cls-3 {
        opacity: .4;
      }

      .cls-4 {
        opacity: .7;
      }

      .cls-6 {
        fill: #960423;
      }

      .cls-7 {
        fill: #e6bb94;
      }

      .cls-8 {
        isolation: isolate;
      }

      .cls-9 {
        opacity: .3;
      }
    </style>
  </defs>
  <g class="cls-8">
    <g id="Layer_2" data-name="Layer 2">
      <g id="Layer_1-2" data-name="Layer 1">
        <g>
          <path class="cls-1" d="M90.63,66.75l-1.67,5.51L.32,70.98l-.05-7.73-.08-13.22v-1.19s-.02-2.49-.02-2.49L.06,27.87,0,18.18v-.08C2.78,6.33,18.62,0,18.62,0l70.99,17.12.03,1.53.04,2.1.04,1.79.71,34.61h0l.11,5.64.08,3.97Z"/>
          <path class="cls-6" d="M89.72,22.53c-.07.06-.15.11-.22.16-.94.63-1.97.68-3,.54-.6-.08-1.2-.24-1.79-.39-12.96-3.27-26.25-3.18-39.2.25-2.52.67-5.03,1.46-7.58,1.66-4.74.37-9.53-1.32-14.23-.23-3.55.83-7.13,3.23-10.62,1.84-1.78-.71-3.8-2.31-5.27-.56-1.59,1.9-1.01,5.95-1.83,8.84-.57,2.01-1.8,3-2.5,4.79-.77,1.94-.54,4.57-1.14,6.14-.94,2.45-1.08,2.44-2.17.75L0,18.18v-.08C2.78,6.33,18.62,0,18.62,0l70.99,17.12.03,1.53.05,2.1.04,1.79Z"/>
          <path class="cls-7" d="M90.63,66.75l-1.67,5.51L.32,70.97l-.05-7.73c3.47-3.81,11.72-.17,15.41.21,14.16,1.44,28.34,2.33,42.52,2.66,8,.19,16,.19,24,.03,2.85-.06,5.93-.27,8.16-3.13.06-.07.12-.15.18-.24l.08,3.97Z"/>
          <g class="cls-4">
            <path class="cls-6" d="M89.69,20.75l-3.19,2.49c-.6-.08-1.2-.24-1.79-.39-12.96-3.27-26.25-3.18-39.2.25-2.52.67-5.03,1.46-7.58,1.66-4.74.37-9.53-1.32-14.23-.23-3.55.83-7.13,3.23-10.62,1.84-1.78-.71-3.8-2.31-5.27-.56-1.59,1.9-1.01,5.95-1.83,8.84-.57,2.01-1.8,3-2.5,4.79-.77,1.94-.54,4.57-1.14,6.14-.94,2.45-1.08,2.44-2.17.75L0,18.18l89.64.47.05,2.1Z"/>
          </g>
          <g class="cls-5">
            <path class="cls-1" d="M90.63,66.75l-1.67,5.51L.32,70.98l-.05-7.73-.08-13.22s.09.02.14.05c.78.38,1.05,4.79,1.34,5.98.59,2.44,1.4,4.74,2.57,6.6,3.35,5.32,8.58,5.75,13.3,5.86l16.21.37c7.72.18,15.45.35,23.17.53,2.84.07,5.68.13,8.52.2,3.98.09,7.98.18,11.94-.56,1.18-.22,2.37-.51,3.56-.36.83.1,1.66.41,2.48.24,1.47-.31,2.66-2.11,3.47-4.1.81-2,1.34-4.25,2.17-6.22.27-.64.6-1.29,1.07-1.44.11-.03.21-.04.32-.02h0l.11,5.64.08,3.97Z"/>
          </g>
          <g class="cls-5">
            <path class="cls-1" d="M89.39,22.41c-.05.55-.32.97-.59,1.33-2.04,2.68-4.89,3.06-7.53,2.79-2.64-.27-5.3-1.06-7.9-.28-1.27.39-2.52,1.15-3.82,1.05-1.91-.16-3.54-2.17-5.34-3.21-1.94-1.12-4.06-1.08-6.12-.91-5.59.44-11.15,1.73-16.6,3.84-1.58.62-3.18,1.3-4.8,1.27-1.46-.03-2.88-.64-4.32-1.02-3.63-.96-7.41-.44-10.89,1.5-2.82,1.57-5.72,4.1-8.61,2.93-.96-.39-1.95-1.19-2.91-.75-1.25.57-1.78,2.86-2.25,4.79-1.09,4.49-2.78,8.56-4.68,12.29-.31.63-.66,1.27-1.14,1.53-.59.32-1.25-.05-1.72-.73v-2.49S.06,27.87.06,27.87c2.31-2.83,5.28-3.88,8.14-4.83,1.87-.62,3.74-1.25,5.6-1.87,2.47-.82,4.95-1.65,7.47-1.64,2.65,0,5.26.95,7.89,1.39,4.35.73,8.73.1,13.09-.41,15.06-1.79,30.2-2.27,45.24-.24.87.11,2.02.77,1.89,2.15Z"/>
          </g>
          <g class="cls-2">
            <path class="cls-1" d="M12.47,37.84c.24.69.58,1.09,1.08,1.22.52.13,1.52-.78,1.81-.5.23.22.38.81.62,1.08.28.32.61.49.95.56.7.13,1.47-.12,1.76-1.24.08-.31.04-.61-.14-.8-.37-.38-.64-.3-1.07-.3-.89,0-.65-.06-1.24-.5-.14-.11-.3-.22-.45-.25-1.21-.2-2.23,3.23-3.25.65-.03-.08-.11,0-.08.08h0Z"/>
          </g>
          <g class="cls-2">
            <path class="cls-1" d="M25.83,34.45c.4,1.41.91,2.26,1.79,2.94.93.72,2.08,1.06,2.74-.5.23-.55.1-1.34-.17-1.78-.59-.97-1.38-.59-2.13-.58-.63.01-1.43-.2-2.03-.52-.17-.09-.26.23-.2.44h0Z"/>
          </g>
          <g class="cls-2">
            <path class="cls-1" d="M32.73,35.38c.28.03.56.06.85.1.28.03.54.03.73-.34.11-.21.1-.47-.01-.68-.2-.37-.47-.35-.74-.32-.28.03-.56.06-.84.1-.46.05-.44,1.09.02,1.14h0Z"/>
          </g>
          <g class="cls-2">
            <path class="cls-1" d="M36.75,39.43c.1,0,.2,0,.29,0,.17,0,.19-.35.07-.48-.08-.09-.17-.19-.25-.28-.32-.36-.58.75-.12.76h0Z"/>
          </g>
          <g class="cls-2">
            <path class="cls-1" d="M57.33,32.07c.64,1.89.81,3.6,2.14,4.63,1.04.81,2.59.48,3.55-.51.66-.68.78-2.6-.05-3.16-1-.67-1.62.11-2.61.09-.89-.02-2.08-.63-2.8-1.44-.15-.17-.3.17-.23.39h0Z"/>
          </g>
          <g class="cls-2">
            <path class="cls-1" d="M66.38,32.78c.56.2,1.64.51,1.83-.72.11-.69-.27-1.19-.65-1.3-.33-.09-.51-.07-.83-.2-.36-.15-.79.23-.86.83-.07.59.13,1.24.52,1.38h0Z"/>
          </g>
          <g class="cls-2">
            <path class="cls-1" d="M70.6,36.04c.26.06.51.12.77.15.18.02.36-.23.42-.48.07-.3.02-.58-.11-.82-.14-.25-.29-.49-.44-.72-.32-.5-.87-.35-1.08.27-.2.58,0,1.49.44,1.6h0Z"/>
          </g>
          <g class="cls-2">
            <path class="cls-1" d="M75.03,49.86c-.18,2.08,1.37,3.52,2.42,4.11,1.36.76,3.19.75,4.3-.85.61-.88.27-2.83-.55-3.04-1.04-.26-2.06.2-3.12-.11-.81-.23-1.87-1.14-2.67-.73-.16.08-.34.33-.37.62h0Z"/>
          </g>
          <g class="cls-2">
            <path class="cls-1" d="M80.41,47.02c.22.32.41.62.68.83.27.21.56.38.86.49.32.12.69-.02.91-.42.04-.07.08-.15.12-.22.25-.49.32-1.3-.03-1.75-.17-.22-.32-.45-.54-.54-.26-.1-.47.04-.73.11-.23.06-.55.09-.77.04-.5-.12-.93.84-.5,1.47h0Z"/>
          </g>
          <g class="cls-2">
            <path class="cls-1" d="M83.73,42.26c.46,0,1.04.16,1.47-.14.29-.2.5-.51.54-1.05.03-.46-.11-1.01-.39-1.21-.52-.37-1.1-.25-1.66-.24-.43,0-.84.65-.81,1.36.03.74.38,1.28.85,1.29h0Z"/>
          </g>
          <g class="cls-2">
            <path class="cls-1" d="M84.96,34.96c.45.09,1.14.32,1.55-.12.3-.33.36-.88.2-1.39-.11-.37-.36-.55-.57-.76-.17-.17-.34-.29-.53-.41-.5-.34-1.06-.12-1.28.75-.18.72.07,1.83.62,1.94h0Z"/>
          </g>
          <g class="cls-2">
            <path class="cls-1" d="M46.09,52.14c1.38,3.84,5.62,6.87,7.91,3.24.29-.47.11-1.23-.25-1.4-1.25-.59-2.56,0-3.83-.49-1.21-.47-2.22-1.69-3.4-2.25-.33-.16-.57.47-.41.91h0Z"/>
          </g>
          <g class="cls-2">
            <path class="cls-1" d="M53.69,48.07c.31.13.63.23.95.29.3.06.62,0,.92-.03.23-.02.27-.55.05-.65-.54-.24-1.09-.57-1.6-.93-.6-.42-.95,1.08-.33,1.32h0Z"/>
          </g>
          <g class="cls-2">
            <path class="cls-1" d="M48.56,43.02c.5.41,1.06.79,1.61.97.95.29,1.31-1.96.36-2.34-.44-.18-.87-.33-1.29-.63-.35-.25-.77-.13-.97.45-.18.53-.06,1.27.28,1.55h0Z"/>
          </g>
          <g class="cls-2">
            <path class="cls-1" d="M63.34,57.29c.7.88,1.62,1.48,2.52,1.48.48,0,.93-.18,1.3-.66.05-.11.1-.22.15-.33-.11.18-.1.2,0,.04.17-.25.3-.49.42-.8.26-.65-.11-1.71-.61-1.61-.12.02-.23.05-.35.07.22.14.18.12-.11-.07-.29-.05-.57,0-.87-.03-.56-.06-1.08-.4-1.64-.52-.78-.17-1.61,1.43-.83,2.42h0Z"/>
          </g>
          <g class="cls-2">
            <path class="cls-1" d="M65.44,46.55c.59.55,1.19.91,1.88.87.41-.02.77-.54.81-1.2.04-.7-.22-1.23-.62-1.45-.4-.21-.83-.38-1.21-.67-.43-.32-.95-.14-1.19.55-.23.68-.07,1.52.34,1.9h0Z"/>
          </g>
          <g class="cls-2">
            <path class="cls-1" d="M73.41,60.14c.13.36.17.64.39.92.21.26.48.46.73.59.56.29,1.03.04,1.57-.24.42-.22.43-1.25-.02-1.42-.1-.04-.2-.08-.3-.12-.02,0-.21-.14-.11-.05-.25-.22-.43-.33-.71-.4-.21-.06-.42-.11-.64-.15-.25-.05-.42.09-.66.12-.24.03-.38.42-.26.76h0Z"/>
          </g>
          <g class="cls-2">
            <path class="cls-1" d="M27.79,51.35c.29.23.52.58.83.79.23.16.48.29.72.39.56.24,1.22.41,1.79.27.53-.13.98-.61,1.03-1.53.05-.82-.27-1.66-.8-1.85-.54-.19-1.12-.2-1.67-.21-.25,0-.5,0-.75.02-.29.03-.57.19-.86.19-.63,0-.87,1.48-.3,1.93h0Z"/>
          </g>
          <g class="cls-2">
            <path class="cls-1" d="M31.07,58.42c.52.02,1.05.07,1.58.05.46-.02,1.13-.28,1.11-1.23-.01-.89-.62-1.16-1.07-1.19-.55-.04-1.11.04-1.66.05-.94.03-.89,2.29.04,2.32h0Z"/>
          </g>
          <g class="cls-2">
            <path class="cls-1" d="M20.63,57.69c.15.1.31.22.46.31.24.13.43.1.67.07.13-.02.29.02.44-.02.17-.04.32-.16.48-.24.39-.21.53-1.01.22-1.49-.12-.18-.23-.35-.36-.5-.2-.22-.39-.24-.6-.31-.27-.1-.48-.2-.78-.06-.2.09-.38.24-.56.4-.41.36-.44,1.54.03,1.84h0Z"/>
          </g>
          <g class="cls-2">
            <path class="cls-1" d="M9.24,56.87c.47.61.94,1.14,1.53,1.42.38.18.77-.31.81-.91.04-.56-.27-1.27-.67-1.18-.49.12-1,.25-1.48.1-.19-.05-.37.34-.19.56h0Z"/>
          </g>
          <g class="cls-2">
            <path class="cls-1" d="M9.01,63.26c.42.35.9.7,1.38.68.65-.03.91-1.52.31-2.01-.42-.35-.96-.39-1.43-.36-.55.03-.76,1.27-.26,1.69h0Z"/>
          </g>
          <g class="cls-2">
            <path class="cls-1" d="M3.93,62.41c1.46,2.03,3.5,3.66,5.45,2.77.27-.12.33-.78.06-.98-1.64-1.26-3.5-1.66-5.21-2.7-.32-.19-.55.57-.31.9h0Z"/>
          </g>
          <g class="cls-2">
            <path class="cls-1" d="M3,44.61c.61-2.17,1.55-3.39,2.47-5.15.79-1.51,1.23-3.34,1.73-5.12.26-.95.53-1.9.8-2.85.51-1.85.48-3.29,2.02-3.42,1.28-.11,2.4.75,3.72.38.43-.12.43-1.12.09-1.42-1.32-1.18-3.59-2.18-5.09-1.85-1.69.36-2.22,4.19-2.8,6.27-.84,3.02-1.65,5.6-2.84,8.3-.67,1.54-1.17,3.38-.29,4.89.05.08.15.06.18-.04h0Z"/>
          </g>
          <g class="cls-9">
            <path class="cls-1" d="M18.61.93c-.65.16-1.27.59-1.87,1.03-3.78,2.78-7.45,5.91-11.01,9.37-1.2,1.17-2.53,2.73-2.6,4.98,4.83.63,9.7.54,14.52-.26.38-.7.01-1.86-.51-2.27-.52-.41-1.13-.37-1.69-.61-.56-.23-1.14-.94-1.09-1.86.02-.27.09-.53.16-.78,1.64-5.38,5.89-8.3,9.46-6.51,1.19.6,3.66,3.22,4.95,2.24,1.73-1.32-.88-2.83-1.75-3.25-2.45-1.17-6.08-2.69-8.57-2.1Z"/>
          </g>
          <g class="cls-9">
            <path class="cls-1" d="M51.2,14.97c-.65.2-1.24.72-1.88.92-1.83.55-3.95-1.49-5.46.27,5.41.45,10.84.48,16.25.12,5.66-.38,11.49-1.18,16.86,1.71.47-.5.38-1.74-.03-2.36-.41-.62-1-.8-1.56-.94-4.98-1.29-9.95-2.69-14.94-3.88-2.26-.54-2.13.11-3.5,2.47-1.76,3.04-3.57,1.02-5.75,1.7Z"/>
          </g>
          <g class="cls-3">
            <path class="cls-6" d="M47.32,9.16c-.97-.61-2.06-1.38-3.01-.69-.44.31-.77.9-1.15,1.36-1.93,2.35-4.64,1.39-7.06,1.6-3.58.3-7.05,3.4-10.59,2.45-.98-.26-1.91-.83-2.89-1.09-3.7-.99-7.53,2.5-11.16.96.3,1.57,1.23,2.67,2.22,3.11.99.44,2.04.35,3.06.25,5.84-.56,11.71-1.08,17.55-.57,2.46.22,4.92.61,7.38.52,5.9-.24,11.69-3.32,17.58-2.94,1.93.12.48-2.56-.35-3.23-1.07-.86-2.04-.91-3.18-.7-2.97.55-5.51.77-8.41-1.03Z"/>
          </g>
        </g>
      </g>
    </g>
  </g>
</svg>