<?xml version="1.0" encoding="UTF-8"?>
<svg id="Layer_2" data-name="Layer 2" xmlns="http://www.w3.org/2000/svg" xmlns:xlink="http://www.w3.org/1999/xlink" viewBox="0 0 57.87 75.81">
  <defs>
    <style>
      .cls-1 {
        fill: none;
      }

      .cls-2 {
        fill: #eacdaa;
      }

      .cls-3 {
        fill: #f0eeec;
      }

      .cls-4 {
        fill: #e9c581;
      }

      .cls-5 {
        fill: #f6f4f3;
      }

      .cls-6 {
        fill: #f0ddc6;
      }

      .cls-7 {
        clip-path: url(#clippath-1);
      }

      .cls-8 {
        clip-path: url(#clippath-3);
      }

      .cls-9 {
        clip-path: url(#clippath-2);
      }

      .cls-10 {
        fill: #fafafa;
      }

      .cls-11 {
        fill: #f7f7f7;
      }

      .cls-12 {
        fill: #f6eadb;
      }

      .cls-13 {
        fill: #f2dfc9;
      }

      .cls-14 {
        clip-path: url(#clippath);
      }
    </style>
    <clipPath id="clippath">
      <rect class="cls-1" width="57.87" height="75.55"/>
    </clipPath>
    <clipPath id="clippath-1">
      <rect class="cls-1" width="57.87" height="23.05"/>
    </clipPath>
    <clipPath id="clippath-2">
      <rect class="cls-1" y="6.75" width="57.5" height="6.89"/>
    </clipPath>
    <clipPath id="clippath-3">
      <rect class="cls-1" x="29.78" y="67.76" width="1.04" height="8.06"/>
    </clipPath>
  </defs>
  <g id="Layer_1-2" data-name="Layer 1">
    <g>
      <g class="cls-14">
        <path class="cls-3" d="M57.81,10.24l-1.14,7.61-.78,5.18-6.14,41.03-.71,4.78c-1.75,1.11-4.08,3.44-4.08,3.44-4.44.9-14.68,3.22-14.68,3.22-4.2-1.45-14.79-2.93-14.79-2.93-2.3-2.06-6.7-4.57-6.84-4.99-.03-.08-.39-2.48-.94-6.27-1.33-9.04-3.8-25.98-5.58-38.28-.42-2.89-.8-5.52-1.12-7.73-.62-4.28-1.01-7-1.01-7,.01-.45.07-.87.17-1.28C1.32,2.73,7.63,1.92,11.21,1.37,18.99.17,26.88-.22,34.74.13c7.03.31,14.34,1.11,20.52,4.76,1.03.61,1.8,1.53,2.22,2.6.34.85.46,1.8.32,2.75"/>
      </g>
      <g class="cls-7">
        <path class="cls-6" d="M57.82,10.24c-.09,1.19-.37,2.4-.54,3.55l-.61,4.05-.78,5.18H2.14c-.42-2.89-.8-5.52-1.12-7.73-.07-.52-.15-1.02-.22-1.5-.49-3.4-.8-5.5-.8-5.5.01-.45.07-.87.17-1.28C1.34,2.62,8.47.69,29.13.05c.96-.03,1.9-.05,2.8-.05,7.1,0,14.31.79,20.87,3.64,1.44.63,2.88,1.37,3.91,2.56,1.03,1.19,1.21,2.59,1.1,4.03"/>
      </g>
      <path class="cls-4" d="M56.19,8.01c-1.74,2.58-14.71,5.29-26.94,5.23-19.59-.09-26.61-4.77-27.77-5.66C2.59,3.59,9.56,1.65,26.32,1.21c.92-.02,4.61,0,5.48,0,12.09,0,18.87,2.54,22.27,4.44.98.55,1.72,1.39,2.12,2.36"/>
      <path class="cls-2" d="M56.67,17.85l-6.91,46.21c-4.35,1.56-11.66,3.74-18.33,3.72-6.36-.02-17.11-2.76-23.71-6.47C6.07,50.15,2.92,28.43,1.23,16.77c2.89,1.61,12.65,4.91,29.27,5,11.66.06,20.68-2.1,26.17-3.92"/>
      <g class="cls-9">
        <path class="cls-3" d="M30.03,13.57h-.76C8.7,13.46,1.41,8.42.16,7.4c-.14-.11-.16-.31-.05-.45.11-.14.31-.16.45-.05,1.22.99,8.36,5.92,28.71,6.02,14.47.08,23.78-1.88,27.67-5.8.12-.12.32-.12.45,0,.12.12.12.33,0,.45-3.94,3.97-13.15,5.99-27.36,5.99"/>
      </g>
      <path class="cls-3" d="M53.47,39.82c-2.27-.98-4.29-1.04-5.99-.17-2.2,1.12-3.3,3.48-3.75,4.77-1.13-2.34-2.96-3.66-5.46-3.94-3.95-.44-7.07,1.49-8.09,4.89-.85-2.22-2.48-3.82-5.55-4.48-7.01-1.5-9.73,2.78-10.51,4.47-1.28-2.39-3.14-4.03-4.7-5.09-2.47-1.67-4.71-2.27-4.81-2.3-.16-.04-.33.06-.38.22-.04.16.06.33.22.38.09.02,8.86,2.41,10.37,10.68,1.54,8.42,1,15.77.99,15.84-.01.17.12.32.29.33h.02c.16,0,.3-.12.31-.29,0-.07.55-7.49-1-16-.2-1.13-.54-2.15-.96-3.07.14-.38.68-1.73,1.95-2.91,1.98-1.84,4.7-2.41,8.09-1.68,3.23.69,4.74,2.5,5.42,5.05h0c-.01.11.02.2.07.27.57,2.4.45,5.43.31,8.78-.09,2.13-.18,4.33-.09,6.55v5.98c0,.17.13.3.3.3s.3-.14.3-.3v-5.99c-.08-2.21,0-4.4.09-6.51.14-3.33.26-6.45-.34-8.97.56-3.74,3.62-5.96,7.63-5.5,2.81.31,4.38,2,5.26,4.32,0,.04.02.08.04.11.79,2.16.99,4.86,1.03,7.51.12,9.47.12,14.24.12,14.29,0,.18.15.33.32.33s.33-.15.33-.33c0-.05,0-4.83-.12-14.3-.03-2.46-.18-5.29-1.04-7.67.13-.52,1.08-3.83,3.65-5.14,1.52-.77,3.34-.71,5.42.19.17.07.37,0,.44-.17s0-.37-.17-.44"/>
      <path class="cls-11" d="M15.5,72.48h-.03c-.17-.02-.3-.17-.29-.35l.62-7.04c.02-.17.17-.3.34-.29.17.01.3.17.29.34l-.62,7.04c-.01.17-.15.29-.31.29"/>
      <g class="cls-8">
        <path class="cls-11" d="M30.13,75.81c-.17,0-.31-.15-.31-.33l.3-7.38c0-.18.16-.31.33-.31.18,0,.31.16.31.33l-.3,7.39c0,.17-.16.31-.33.3"/>
      </g>
      <path class="cls-11" d="M44.97,72.13c-.17,0-.32-.14-.32-.32v-6.11c0-.18.14-.32.32-.32s.32.14.32.32v6.11c0,.18-.14.32-.32.32"/>
      <path class="cls-3" d="M32.58,4.17s1.69-1.2,3.32-.58c1.64.62-2.6,1.28-3.32,1.45-.72.16-1.25.25-1.25.25,0,0-1.06-2.23,1.25-1.11"/>
      <path class="cls-3" d="M30.65,5.9s4.91-1.32,5.97-1.11c1.06.21.43,1.32-2.99,1.49-3.42.16-4.62.91-4.62.91,0,0,0-.81-1.21-1.21-1.2-.4-1.25-1.74.87-1.63,2.12.11,1.97,1.56,1.97,1.56"/>
      <path class="cls-3" d="M28.36,7.68s3.08-.87,5.68-.81,3.72-1.06,5.6-.65c1.88.42-1.77,1.77-4.51,1.93s-7.57.03-8.15.52c0,0-.01-.68-4.26-1.03-4.25-.36-2.29-2.81-.34-2.81s.75.41,1.88.91c1.13.51,4.1,1.92,4.1,1.92"/>
      <path class="cls-3" d="M36.79,9.03s-9.11.13-10.23.42c0,0-4.46-1.17-6.79-1.37s-4.95-1.13-3.1-2.79c0,0-1.65-.24-2.09,1.13s2.57,2.49,5.96,2.79,4.8.37,4.8,1.04c0,0,4.86-.62,6.7-.5,1.84.12,4.74-.71,4.74-.71"/>
      <path class="cls-3" d="M39.59,3.97s5.31-.51,8.42,1.79c3.11,2.3-4.21,4.25-4.21,4.25,0,0-9.58.87-12.98,1.02-3.4.16-5.43.05-6.03.51,0,0-.18-.77-3.64-.36-3.46.41-12.6-1.74-12.66-4.01-.06-2.16,3.27-3.84,10.51-4.29s10.15-.79,12.72.52c0,0-1.17-.02-1.54.58-.37.6.01-.94-2.84-1.02-2.86-.08-13.81,1.02-15.53,2.31-1.12.85-1.33,1.89,1.38,2.96,2.72,1.06,7.67,2.25,11.53,2.33,3.86.08,11.43.11,14-.33,2.57-.44,8.72-1.54,8.48-3.05s-.63-2.54-7.6-3.21"/>
      <path class="cls-3" d="M28.6,3.93s-5.6-.81-8.92.78-1.06,2.84.69,3.19c0,0-2.15-.76-1.82-1.75s2.77-1.75,4.74-1.81c1.97-.06,1.8.43,1.38.93-.41.5,1.9.95,1.9.95,0,0-1.43-.34-.91-.94.51-.6.12-1.13,2.94-1.35"/>
      <path class="cls-3" d="M37.53,8.2s4.49-.53,4.79-1.88-2.53-1.98-2.53-1.98c0,0,2.62-.13,3.28,1.1s-.66,2.78-4.13,3.09c-3.48.31-5.68.28-5.68.28l4.27-.62"/>
      <path class="cls-5" d="M17.52,65.4l-1.08-.41h0c.36.1.72.22,1.08.33v.08"/>
      <path class="cls-12" d="M14.65,20.57c-3.18-.5-5.83-1.11-7.95-1.72l-.87-8.57c1.6.57,3.58,1.15,6.01,1.66l2.31.69.51,7.93"/>
      <path class="cls-13" d="M17.52,65.32c-.36-.11-.72-.22-1.08-.34.07-1.11.42-8.02-1.01-15.85-.2-1.13-.54-2.15-.96-3.07.13-.35.59-1.52,1.65-2.61l1.4,21.86M15.83,64.77l-4.64-1.75-2.27-22.33c2.45,1.62,5.13,4.31,5.9,8.56,1.35,7.42,1.1,14,1.01,15.52M14.12,45.36c-1.28-2.39-3.14-4.03-4.7-5.09-.19-.13-.38-.26-.58-.37l-2.14-21.04c2.12.61,4.77,1.22,7.95,1.72l1.42,22.12c-1.04.95-1.64,2.01-1.95,2.67"/>
      <path class="cls-5" d="M11.83,11.94c-2.42-.51-4.41-1.09-6.01-1.66l-.02-.15,6.02,1.81"/>
      <path class="cls-5" d="M16.44,64.99h-.03c-.05-.11-.15-.19-.26-.2,0,0-.02,0-.03,0-.05,0-.09.01-.13.03l-.16-.06c.08-1.51.34-8.09-1.01-15.52-.77-4.24-3.46-6.94-5.9-8.56l-.08-.8c.19.12.38.24.58.37,1.57,1.06,3.42,2.7,4.7,5.09.31-.66.91-1.72,1.95-2.67l.05.77c-1.05,1.1-1.52,2.26-1.65,2.61.42.92.76,1.94.96,3.07,1.43,7.83,1.08,14.74,1.01,15.85h0"/>
      <path class="cls-10" d="M16.41,64.98l-.42-.16s.08-.03.13-.03c0,0,.02,0,.03,0,.12,0,.22.08.26.19"/>
    </g>
  </g>
</svg>