<?xml version="1.0" encoding="UTF-8"?>
<svg id="Layer_2" data-name="Layer 2" xmlns="http://www.w3.org/2000/svg" viewBox="0 0 13.67 12.72">
  <defs>
    <style>
      .cls-1 {
        fill: #524c2f;
      }
    </style>
  </defs>
  <g id="Layer_1-2" data-name="Layer 1">
    <g>
      <path class="cls-1" d="M4.93,4.05v7.37c0,.1.08.17.17.17s.17-.08.17-.17v-7.37c0-.1-.08-.17-.17-.17s-.17.08-.17.17Z"/>
      <path class="cls-1" d="M13.58,7.08l-1.72-.96c.03-.14.07-.29.1-.44.32-1.33.76-3.14-.02-4.38-.37-.58-.98-.97-1.81-1.14-4.23-.89-5.18,2.39-5.19,2.42,0,.02,0,.03,0,.05L.03,9.63s-.04.09-.03.14c.01.05.04.09.08.11l4.93,2.81s.06.02.09.02.06,0,.09-.02l3.93-2.24c.08-.05.11-.15.07-.24-.05-.08-.15-.11-.24-.07l-3.84,2.19L.43,9.68,5.1,2.99l3.94,5.64c.06.08.16.1.24.04.08-.06.1-.16.04-.24L5.29,2.64c.11-.35,1.06-2.93,4.78-2.15.75.16,1.27.48,1.59.99.7,1.11.28,2.84-.03,4.11-.04.14-.07.28-.1.42,0,0-.01,0-.02,0l-1.9,1.06c-.06.03-.09.09-.09.15v3.97c0,.1.08.17.17.17h3.81c.1,0,.17-.08.17-.17v-3.97c0-.06-.03-.12-.09-.15ZM11.57,7.47c.18,0,.33.15.33.33s-.15.33-.33.33-.33-.15-.33-.33.15-.33.33-.33ZM13.32,11.03h-3.46v-3.7l1.57-.88c-.05.33-.04.6-.04.69-.29.08-.5.34-.5.65,0,.37.3.68.68.68s.68-.3.68-.68c0-.31-.21-.58-.5-.65,0-.05-.01-.33.04-.66l1.53.85v3.7Z"/>
    </g>
  </g>
</svg>