<?xml version="1.0" encoding="UTF-8"?>
<svg xmlns="http://www.w3.org/2000/svg" viewBox="0 0 87.08 73.6">
  <defs>
    <style>
      .cls-1, .cls-2, .cls-3, .cls-4 {
        fill: #8e3726;
      }

      .cls-2, .cls-5, .cls-6, .cls-7, .cls-8, .cls-9 {
        mix-blend-mode: multiply;
      }

      .cls-2, .cls-6, .cls-10, .cls-11, .cls-12, .cls-8, .cls-9, .cls-4, .cls-13, .cls-14 {
        opacity: .2;
      }

      .cls-15, .cls-10 {
        fill: #ffecce;
      }

      .cls-5, .cls-6, .cls-7 {
        fill: #c57853;
      }

      .cls-5, .cls-16 {
        opacity: .1;
      }

      .cls-7, .cls-3, .cls-17 {
        opacity: .3;
      }

      .cls-11 {
        fill: #fff;
      }

      .cls-18 {
        isolation: isolate;
      }

      .cls-12, .cls-19 {
        fill: #b56845;
      }

      .cls-20 {
        fill: #c8693b;
      }

      .cls-8 {
        fill: #ca602b;
      }

      .cls-9 {
        fill: #ca5e27;
      }

      .cls-17, .cls-13 {
        fill: #ffab79;
      }

      .cls-14, .cls-16 {
        fill: #ffd98d;
      }
    </style>
  </defs>
  <g class="cls-18">
    <g id="Layer_2" data-name="Layer 2">
      <g id="Layer_1-2" data-name="Layer 1">
        <g>
          <path class="cls-20" d="M87.06,39.86c-.14-8.97-.85-27.69-.85-27.69H.93S-1.16,44.76.93,57.26c.1,1.72,35.62,16.97,42.64,16.32,7.02-.66,43.03-15.59,42.64-16.32,0,0,.99-8.43.85-17.4Z"/>
          <path class="cls-17" d="M87.06,39.86c-.14-8.97-.85-27.69-.85-27.69H.93s-.03.46-.07,1.18h83.25s.71,18.72.85,27.69c.14,8.97-.85,17.4-.85,17.4,0,0-.05.03-.05.04,1.37-.66,2.21-1.12,2.15-1.23,0,0,.99-8.43.85-17.4Z"/>
          <path class="cls-10" d="M86.21,13.36H.93s-.32,5.04-.58,11.88c.2.05.37.09.58.14,5.54,1.34,6.66,5.04,8.34,8.18,1.68,3.14,5.88-.55,9.79-1.66,3.92-1.11,7-.19,7.98,1.66.98,1.85,4.2,1.85,5.74,2.22,1.54.37,2.52,4.44,3.78,5.92,1.26,1.48,4.88-1.36,6.99-3.73,2.11-2.37,6.72-.96,8.4,0,1.68.96,4.34-.34,6.02-2.37,1.68-2.03,3.08-4.07,8.68-2.4,5.6,1.67,9.23.93,10.91-1.94,1.68-2.87-.42-1.63,3.36-2.34,1.68-.32,3.79-.09,5.83-.48-.24-7.7-.52-15.07-.52-15.07Z"/>
          <path class="cls-15" d="M86.21,12.17H.93s-.32,5.04-.58,11.88c.2.05.37.09.58.14,5.54,1.34,6.66,5.04,8.34,8.18,1.68,3.14,5.88-.56,9.79-1.66,3.92-1.11,7-.19,7.98,1.66.98,1.85,4.2,1.85,5.74,2.22,1.54.37,2.52,4.44,3.78,5.92,1.26,1.48,4.88-1.36,6.99-3.73,2.11-2.37,6.72-.96,8.4,0,1.68.96,4.34-.34,6.02-2.37,1.68-2.03,3.08-4.07,8.68-2.4,5.6,1.66,9.23.93,10.91-1.94,1.68-2.87-.42-1.63,3.36-2.34,1.68-.32,3.79-.09,5.83-.48-.24-7.7-.52-15.07-.52-15.07Z"/>
          <path class="cls-10" d="M73.49,42.54c-2.61,0-2.8.12-7,2.1-4.2,1.97-4.2,3.7-9.79,5.04-5.6,1.34-2.8.39-7.06,1.5-4.26,1.11-4.13,2.59-8.05,3.08-3.92.49-4.1-.37-7.84-2.24-3.73-1.87-6.44-5.28-10.35-5.3-3.92-.02-5.97,1.75-8.86-.84-2.89-2.59-2.43-4.32-8.21-5.33-2.6-.46-4.64-.78-6.31-1.62-.03,3.56,0,7.1.12,10.36.93.27,1.99.56,3.31.91,5.97,1.6,6.53,6.78,10.73,7.64,4.2.86,9.61-.24,13.99.8,4.38,1.04,6.53,4.39,11.75,7.07,5.22,2.69,3.92.15,6.53-.96,2.61-1.11,3.36-.99,7.93-1.97,4.57-.99,6.72-1.73,10.45-4.14,3.73-2.41,6.9-1.29,10.17-2.85,3.26-1.56,2.71-1.65,6.53-3.76,3.22-1.78,2.9-1.69,5.39-2.07.13-2.58.21-5.49.16-8.49-.03-1.73-.08-3.83-.14-6.08-1.96.49-4.3,1.45-6.53,3.19-4.57,3.55-4.29,3.97-6.9,3.97Z"/>
          <path class="cls-15" d="M73.49,40.94c-2.61,0-2.8.12-7,2.1-4.2,1.97-4.2,3.7-9.79,5.04-5.6,1.34-2.8.39-7.06,1.5-4.26,1.11-4.13,2.59-8.05,3.08-3.92.49-4.1-.37-7.84-2.24-3.73-1.87-6.44-5.28-10.35-5.3-3.92-.02-5.97,1.75-8.86-.84-2.89-2.59-2.43-4.32-8.21-5.33-2.6-.46-4.64-.78-6.31-1.62-.03,3.56,0,7.1.12,10.36.93.27,1.99.56,3.31.91,5.97,1.6,6.53,6.78,10.73,7.64,4.2.86,9.61-.24,13.99.8,4.38,1.04,6.53,4.39,11.75,7.07,5.22,2.69,3.92.15,6.53-.96,2.61-1.11,3.36-.99,7.93-1.97,4.57-.99,6.72-1.73,10.45-4.14,3.73-2.41,6.9-1.29,10.17-2.85,3.26-1.56,2.71-1.65,6.53-3.76,3.22-1.78,2.9-1.69,5.39-2.07.13-2.58.21-5.49.16-8.49-.03-1.73-.08-3.83-.14-6.08-1.96.49-4.3,1.45-6.53,3.19-4.57,3.55-4.29,3.97-6.9,3.97Z"/>
          <path class="cls-9" d="M6.33,41.03c5.78,1.02,5.32,2.74,8.21,5.33,2.89,2.59,4.94.82,8.86.84,3.92.02,6.62,3.44,10.35,5.3,3.73,1.87,3.92,2.73,7.84,2.24,3.92-.49,3.79-1.97,8.05-3.08,4.26-1.11,1.46-.16,7.06-1.5,5.6-1.34,5.6-3.06,9.79-5.04,4.2-1.97,4.38-2.1,7-2.1s2.33-.42,6.9-3.97c2.24-1.74,4.58-2.71,6.53-3.19.06,2.12.1,4.07.13,5.74,0-.59.02-1.15,0-1.74-.03-1.73-.08-3.83-.14-6.08-1.96.49-4.3,1.45-6.53,3.19-4.57,3.55-4.29,3.97-6.9,3.97s-2.8.12-7,2.1c-4.2,1.97-4.2,3.7-9.79,5.04-5.6,1.34-2.8.39-7.06,1.5-4.26,1.11-4.13,2.59-8.05,3.08-3.92.49-4.1-.37-7.84-2.24-3.73-1.87-6.44-5.28-10.35-5.3-3.92-.02-5.97,1.75-8.86-.84-2.89-2.59-2.43-4.32-8.21-5.33-2.6-.46-4.64-.78-6.31-1.62,0,.7,0,1.39,0,2.09,1.68.84,3.71,1.16,6.31,1.62Z"/>
          <path class="cls-7" d="M.93,57.26c.1,1.71,35.06,16.72,42.45,16.31-.39-10.31-1.16-34.78-.29-49.38l-15.6-12.01H.93S-1.16,44.76.93,57.26Z"/>
          <path class="cls-11" d="M44.33,55.23c-.94,2.13.59,4.31.33,6.4-.26,2.09.58,1.39,2.21,0,1.63-1.39,2.37-1.81,5.21-1.81s3.95,1.05,6.64-1.15c2.69-2.19,1.32-3.02,5.22-3.79,3.9-.77,5.64-1.33,6.79-1.12,1.16.21,4.11-1.18,6.48-2.92,2.37-1.74,3.27-3.62,5-3.83,1.74-.21,3.42-1.32,3.27-4.6-.16-3.27-.95-4.94-.95-4.94,0,0-1.84,4.18-4.85,5.71-3,1.53-4.32,1.88-6.58,2.09-2.26.21-3.11-.7-5.06.42-1.95,1.11-1.05.14-3.53,2.58-2.48,2.44-2.42,3.48-5.48,4.42-3.06.94-1.53,1.08-6.11.94-4.58-.14-7.17-1.6-8.6,1.6Z"/>
          <path class="cls-11" d="M43.37,28.62c-.58,2.72-.51,4.88,1.39,5.15,1.9.28,3.9-.42,6.11.77,2.21,1.18,3.53,2.09,5.58-.77,2.05-2.86,1.69-4.88,5.53-3.9,3.85.97,11.17,3.34,12.85,1.32,1.69-2.02.63-5.06,2.69-5.42,2.05-.36,6.27,2.15,7.11.34.84-1.81,1.21-9.33-.26-9.19-1.47.14-2.16,1.32-8.01,3.34-5.85,2.02-6.48,1.99-13.54,3.92s-8.95,1.04-12.91,2.35c-3.95,1.31-6.55,2.08-6.55,2.08Z"/>
          <path class="cls-6" d="M4.3,12.17H.93S-1.16,44.76.93,57.26c.1,1.62,31.56,15.21,41.07,16.23C27.71,67.39,4.7,51.64,4.3,12.17Z"/>
          <path class="cls-12" d="M.93,15.05c.1,1.27,35.62,12.49,42.64,12,7.02-.48,43.03-11.47,42.64-12-.03-.04.23-1.5,0-1.59-5.87-2.28-41.1-10.26-42.64-10.57-1.57-.32-38.12,7.89-42.54,10.4-.29.17-.11,1.66-.1,1.76Z"/>
          <path class="cls-19" d="M.93,13.76c.1,1.27,35.62,12.49,42.64,12,7.02-.48,43.03-11.47,42.64-12-.03-.04.23-1.5,0-1.59-5.87-2.28-41.1-10.26-42.64-10.57-1.57-.32-38.12,7.89-42.54,10.4-.29.17-.11,1.66-.1,1.76Z"/>
          <path class="cls-20" d="M.93,12.17c.1,1.27,35.62,12.49,42.64,12,7.02-.48,43.03-11.47,42.64-12S45.25.35,43.57,0C41.89-.33.8,10.58.93,12.17Z"/>
          <path class="cls-8" d="M11.36,10.27C14.91,8.24,29.27,4.75,42.86.07,37.17.93.81,10.67.93,12.17c.1,1.27,35.62,12.49,42.64,12,7.02-.48,43.03-11.47,42.64-12-.1-.14-2.93-1.01-7.06-2.21-8.71,2.34-20.56,7.1-24.97,8.82-6.65,2.59-9.72,2.13-12.52.28-2.8-1.85-2.8-3.24-18.12-3.51-15.32-.28-15.74-3.24-12.17-5.27Z"/>
          <path class="cls-13" d="M43.06,3.18c-7.84.92-13.87-.28-20.12,3.33-6.25,3.61-14.51,5.55-3.45,6.01,11.05.46,6.02-.6,12.94,1,6.93,1.59,8.95.75,10.7,2.88,1.75,2.13,3.14,5.37,7.51,3.34,4.38-2.03,7.59-5.46,13.92-5.73,6.34-.28,13.82-1.57,9.14-3.05-4.69-1.48-5.04-1.29-10.56-2.59-5.53-1.29-4.62-.83-8.75-2.13-4.13-1.29-4.95-3.79-7.34-3.98-2.39-.19-4,.92-4,.92Z"/>
          <path class="cls-13" d="M64.21,33.78c-.1.03-.2.06-.29.09-2.47.84-1.59,2.45-4.29,3.6-2.8,1.19-5.19.54-9.35,1.1-4.16.55-6.88,2.4-6.92,3.88-.04,1.48.04,3.14,0,5.64-.04,2.5,3.25,2.03,5.56.55,2.31-1.48,4.2-2.4,6.3-2.4s3.71.89,7-1.91c3.29-2.8,4.83-4.46,7.91-4.51,3.08-.05,3.78,1.72,5.46,0,1.68-1.72,3.71-3.47,6.3-5.14,2.59-1.66,5.12-3.81,2.81-4.17-2.32-.36-3.37-1.75-4.42-.27-1.05,1.48-2.1,3.98-5.11,4.62-3.01.65-7.41-.19-8.11-.46-.7-.28-2.84-.63-2.84-.63Z"/>
          <path class="cls-13" d="M51.87,64.55c-4.97,1.2-4.55-.18-6.3,1.48-1.75,1.66-2.44,3.98-1.99,4.99.45,1.02,1.85,2.96,5.91,0,4.06-2.96,4.97-3.28,9.65-4.13,4.69-.86,3.36.25,8.33-2.8,4.97-3.05,5.32-3.07,10.7-5.61,5.39-2.53,8.8-4.1,8.04-4.94-.76-.83,3.26-3.86-2.65-1.53-5.91,2.34-7.35,2.73-9.79,4.21-2.45,1.48-2.66,1.83-5.25,2.25-2.59.43-1.62-.04-4.31,1.44-2.69,1.48-2.13,1.37-5.35,2.44-3.22,1.07-4.41,1.17-5.39,1.26-.98.09-1.12.92-1.12.92h-.49Z"/>
          <path class="cls-5" d="M35.71,41.67c-4.29-3.07-1.59-3.56-5.97-4.92-4.38-1.36-2.24-3.29-6.34-3.43-4.1-.14-3.17-.02-8.77,1.21-5.6,1.23-8.3-2.96-3.08,3.58,5.22,6.54,5.78,7.89,10.68,6.23,4.9-1.66,5.46.31,9.19,3.02,3.73,2.71,8.21,5.34,9.14,2.86.93-2.49,2.43-6.31.09-6.93-2.33-.62-4.94-1.62-4.94-1.62Z"/>
          <path class="cls-6" d="M38.42,66.22c-4.94-3.82-6.51-7.7-10.95-7.73-4.44-.04-1.92-.16-7.99-.28-6.06-.12-9.61.08-12.59-2.49-2.99-2.57-6.04-5.19-5.96-3.7.08,1.5,2.23,6.42,4.65,7.1,2.43.68,6.16.82,9.79,3.28,3.64,2.46,4.66,2.45,8.86,4.49,4.2,2.04,4.8,1.87,9.23,3.82,4.44,1.95,7.93-2.03,6.44-3.27-1.49-1.23-1.31-.56-1.31-.56,0,0,4.76,3.15-.19-.67Z"/>
          <path class="cls-4" d="M39.42,6.66c-7.13-2.23-10.63-2.38-12.41-1.93-1.77.45-4.1,4.03-4.1,4.76s.75-1.23,4.94.49c4.2,1.73,8.77,3.84,10.26,3.96,1.49.11,1.31-7.29,1.31-7.29Z"/>
          <path class="cls-1" d="M40.21,5.55c-7.13-2.23-10.63-2.38-12.41-1.93-1.77.45-4.1,4.03-4.1,4.77s.75-1.23,4.94.49c4.2,1.73,8.77,3.84,10.26,3.96,1.49.11,1.31-7.29,1.31-7.29Z"/>
          <path class="cls-2" d="M29.73,7.62c-4.2-1.73-4.94.25-4.94-.49,0-.34.52-1.27,1.21-2.22-1.23,1.25-2.3,2.98-2.3,3.48,0,.74.75-1.23,4.94.49,4.2,1.73,8.77,3.84,10.26,3.96.41.03.68-.52.88-1.3-1.66-.25-6.01-2.26-10.05-3.92Z"/>
          <path class="cls-3" d="M42.9,5.64c2.9-2.17,6.59-2.8,8.76-1.69,2.17,1.11,6.29,3.26,6.29,3.26,0,0-1.2,2.58-1.83,3.04-.63.46-3-1.31-6.57-1.52-3.57-.21-2.3.08-5.07-.22-2.77-.29-1.57-2.88-1.57-2.88Z"/>
          <path class="cls-1" d="M42,4.62c2.9-2.19,6.58-2.84,8.75-1.74,2.17,1.1,6.3,3.22,6.3,3.22,0,0-1.19,2.59-1.82,3.05-.63.46-3.01-1.29-6.58-1.48-3.57-.19-2.3.09-5.07-.19-2.77-.28-1.58-2.87-1.58-2.87Z"/>
          <path class="cls-4" d="M32.42,14.74c2.24-5.94,7.77-8.81,13.29-8.25,5.53.55,4.97,2.4,6.58,4.53,1.61,2.13,0,5.17,0,5.17,0,0-4.13-1.29-6.09-1.57-1.96-.28-3.92-.92-8.26,0-4.34.92-5.53.11-5.53.11Z"/>
          <path class="cls-1" d="M32.42,13.52c2.24-5.94,7.77-8.81,13.29-8.25,5.53.56,4.97,2.4,6.58,4.53,1.61,2.13,0,5.17,0,5.17,0,0-4.13-1.29-6.09-1.57-1.96-.28-3.92-.92-8.26,0-4.34.92-5.53.11-5.53.11Z"/>
          <path class="cls-2" d="M47.08,11.45c-1.96-.28-3.92-.92-8.26,0-3.9.83-5.25.26-5.48.14-.34.61-.66,1.25-.92,1.94,0,0,1.19.81,5.53-.11,4.34-.92,6.3-.28,8.26,0,1.96.28,6.09,1.57,6.09,1.57,0,0,.46-.89.64-2.04-.88-.27-4.16-1.25-5.85-1.49Z"/>
          <path class="cls-4" d="M24.87,13.4c2.94-2.77,3.22-3.91,6.51-3.07,3.29.85,6.82,2.72,7.35,4.18.52,1.45.35,3.7-.91,4.44-1.26.74-.84.38-6.44-.93-5.6-1.3-6.51-1.34-7.7-1.36-1.19-.02,1.19-3.26,1.19-3.26Z"/>
          <path class="cls-1" d="M25.92,12.3c2.94-2.77,3.22-3.91,6.51-3.07,3.29.85,6.82,2.72,7.35,4.18.52,1.45.35,3.7-.91,4.44-1.26.74-.84.38-6.44-.93-5.6-1.3-6.51-1.34-7.7-1.36-1.19-.02,1.19-3.26,1.19-3.26Z"/>
          <path class="cls-2" d="M33.41,15.43c-5.6-1.3-6.51-1.34-7.7-1.36-.64-.01-.24-.95.25-1.82-.02.02-.03.03-.05.05,0,0-2.38,3.24-1.19,3.26,1.19.02,2.1.06,7.7,1.36,5.6,1.3,5.18,1.67,6.44.93.5-.3.79-.86.97-1.49-1.23.72-.85.36-6.42-.94Z"/>
          <path class="cls-3" d="M44.76,16.2c.92-4.87,7.91-4.88,10.91-4.89,3.01,0,4.41-.1,5.11.82.7.92.98,1.67,0,2.77-.98,1.11.56.08-4.06,1.29-4.62,1.21-3.76,1.21-7.65,1.21s-4.94,2.11-4.31-1.21Z"/>
          <path class="cls-1" d="M45.08,14.98c.92-4.87,7.91-4.88,10.91-4.89,3.01,0,4.41-.1,5.11.82s.98,1.66,0,2.77c-.98,1.11.56.08-4.06,1.29-4.62,1.21-3.76,1.21-7.65,1.21s-4.94,2.11-4.31-1.21Z"/>
          <path class="cls-2" d="M57.99,13.68c-4.62,1.21-3.76,1.21-7.65,1.21s-4.94,2.11-4.31-1.21c.09-.46.28-.84.46-1.22-.67.65-1.2,1.45-1.4,2.51-.63,3.32.42,1.21,4.31,1.21s3.03,0,7.65-1.21c4.62-1.21,3.08-.18,4.06-1.29.25-.28.41-.53.51-.77-.18.17-.34-.1-3.63.77Z"/>
          <path class="cls-14" d="M40.22,6.43s1.09-.76,4.7-.29c3.6.46,6.1,2.65,6.3,3.1.2.45-1.68.5-4.1-.62-2.42-1.11-1.26-1.5-3.99-1.75-2.72-.25-2.91-.44-2.91-.44Z"/>
          <path class="cls-14" d="M44.25,4c-1.82.65-.85,1.32.95.49,1.79-.84,2.62-1.37,4.34-.53,1.72.84,2.66,1.49,4.4,2.43,1.74.94,2.12.27,1.93,0-.2-.27-1.15-.85-2.99-1.54-1.84-.7-2.6-1.38-3.74-1.72-1.14-.34-.95-.88-2.07-.42-1.13.46-2.81,1.3-2.81,1.3Z"/>
          <path class="cls-14" d="M38.72,5.53c-.16,0-4.51-1.72-8.41-1.79-3.9-.07-4.92,2.41-4.92,2.41,0,0,1.76-1.04,4.64-.77,2.88.28,3.32,1.04,6.09,1.18,2.77.14,2.6-1.04,2.6-1.04Z"/>
          <path class="cls-14" d="M27.61,11.26s1.9-2.79,6.09-2.23c4.2.56,5.03,4.94,5.11,4.97.09.02-1.44,1.85-3.72-.73-2.28-2.59-.93-2.84-3.55-2.82-2.62.02-3.93.81-3.93.81Z"/>
          <path class="cls-16" d="M48.81,12.13c-.06.01-.11.03-.17.04-2.54.65-2.83,1.53-2.78,1.77.04.24,1.8-.55,6.29-1.11,4.5-.55,8.29-.72,8.53-1.03.25-.31.7-1.19-1.37-1.29-2.07-.09-3.72.23-5.72.42-2,.19-3.11.07-4,.09-.89.02-.78,1.1-.78,1.1Z"/>
        </g>
      </g>
    </g>
  </g>
</svg>