<?xml version="1.0" encoding="UTF-8"?>
<svg id="Layer_2" data-name="Layer 2" xmlns="http://www.w3.org/2000/svg" viewBox="0 0 84.83 72.61">
  <defs>
    <style>
      .cls-1 {
        fill: #ffe6a7;
      }

      .cls-2 {
        fill: #c15d1a;
      }

      .cls-3 {
        fill: #f28f3b;
      }

      .cls-4 {
        fill: #fb8500;
      }
    </style>
  </defs>
  <g id="Layer_1-2" data-name="Layer 1">
    <g>
      <g>
        <path class="cls-1" d="M0,18.47v38.32s84.83,13.19,84.83,13.19v-37.87S44.66,1.24,44.66,1.24C16.19-5.66,0,18.47,0,18.47Z"/>
        <polygon class="cls-2" points="84.83 59.29 0 46.11 0 42.51 84.83 55.7 84.83 59.29"/>
        <polygon class="cls-2" points="84.83 50.7 0 37.51 0 33.38 84.83 46.56 84.83 50.7"/>
        <path class="cls-2" d="M0,18.47l84.83,13.64L44.66,1.24C16.19-5.66,0,18.47,0,18.47Z"/>
      </g>
      <g>
        <path class="cls-4" d="M27.38,36.52s-18.01,6.18-13.04,23.34c0,0-1.18,3.69,1.08,5.96,2.26,2.27,4.1,2.05,4.1,2.05,0,0,4.72,4.94,12.3,4.66,7.58-.28,12.78-3.73,12.78-3.73l-17.23-32.29Z"/>
        <ellipse class="cls-3" cx="34.61" cy="53.83" rx="14.54" ry="18.96" transform="translate(-10.73 8.66) rotate(-12.37)"/>
        <ellipse class="cls-3" cx="34.62" cy="53.88" rx="11.12" ry="14.45" transform="translate(-10.74 8.67) rotate(-12.37)"/>
        <path class="cls-1" d="M31.15,38.08c-6.71,1.47-10.6,9.74-8.69,18.46,1.91,8.72,8.91,14.6,15.62,13.13,6.71-1.47,10.6-9.74,8.69-18.46-1.91-8.72-8.91-14.6-15.62-13.13ZM24.26,58.11c.08-.01.17-.03.25-.06,2.15-.6,4.14-1.78,6.33-2.22.88-.18,1.79-.23,2.64-.51.1.13.21.24.33.34-.63,1.65-1.42,3.19-2.35,4.58-.89,1.34-1.91,2.53-2.97,3.65-.15.16-.37.32-.56.52-1.57-1.67-2.85-3.82-3.67-6.3ZM32.92,39.57c2.02-.11,4.03.49,5.84,1.65-.04.09-.09.18-.12.27-1.01,2.41-1.6,5.14-2.73,7.45-.45.93-.99,1.8-1.37,2.78-.13,0-.25,0-.38.03,0,0-.01,0-.02,0-.53-1.87-.9-3.79-1.1-5.71-.19-1.86-.21-3.71-.18-5.55,0-.26.05-.59.06-.91ZM30.19,40.52c.72,2.81,1.88,5.48,2.47,8.32.24,1.14.38,2.31.7,3.42-.09.11-.17.24-.23.39-1.38-.99-2.69-2.16-3.89-3.5-1.16-1.29-2.22-2.72-3.23-4.2-.14-.21-.3-.51-.47-.77,1.15-1.82,2.72-3.21,4.59-3.98.02.11.05.22.07.32ZM24.33,47.38c2.03,1.56,4.25,2.61,6.22,4.31.79.68,1.54,1.47,2.36,2.06,0,.16.03.32.06.49,0,0,0,.02,0,.02-1.42.47-2.91.73-4.41.76-1.45.03-2.92-.14-4.38-.39-.21-.04-.48-.13-.73-.18-.31-2.59-.06-5.08.66-7.27.07.07.15.13.22.19ZM30.6,66.28c1.01-2.41,1.6-5.14,2.73-7.45.45-.93.99-1.8,1.37-2.78.13,0,.25,0,.38-.03,0,0,.01,0,.02,0,.53,1.87.9,3.79,1.1,5.71.19,1.86.21,3.71.18,5.55,0,.26-.05.59-.06.91-2.02.11-4.03-.49-5.84-1.65.04-.09.09-.18.12-.27ZM39.05,67.24c-.72-2.81-1.88-5.48-2.47-8.32-.24-1.14-.38-2.31-.7-3.42.09-.11.17-.24.23-.39,1.38.99,2.69,2.16,3.89,3.5,1.16,1.29,2.22,2.72,3.23,4.2.14.21.3.51.47.77-1.15,1.82-2.72,3.21-4.59,3.98-.02-.11-.05-.22-.07-.32ZM44.9,60.38c-2.03-1.56-4.25-2.61-6.22-4.31-.79-.68-1.54-1.47-2.36-2.06,0-.16-.03-.32-.06-.49,0,0,0-.02,0-.02,1.42-.47,2.91-.73,4.41-.76,1.45-.03,2.92.14,4.38.39.21.04.48.13.73.18.31,2.59.06,5.08-.66,7.27-.07-.07-.15-.13-.22-.19ZM44.73,49.71c-2.15.6-4.14,1.78-6.33,2.22-.88.18-1.79.23-2.64.51-.1-.13-.21-.24-.33-.34.63-1.65,1.42-3.19,2.35-4.58.89-1.34,1.91-2.53,2.97-3.65.15-.16.37-.32.56-.52,1.57,1.67,2.85,3.82,3.67,6.3-.08.01-.17.03-.25.06Z"/>
      </g>
    </g>
  </g>
</svg>