<?xml version="1.0" encoding="UTF-8"?>
<svg id="Layer_2" data-name="Layer 2" xmlns="http://www.w3.org/2000/svg" xmlns:xlink="http://www.w3.org/1999/xlink" viewBox="0 0 73.58 73.16">
  <defs>
    <style>
      .cls-1 {
        fill: none;
      }

      .cls-2 {
        fill: #f0d8c4;
      }

      .cls-3 {
        fill: #fcf2eb;
      }

      .cls-4 {
        fill: #f7f6f4;
      }

      .cls-5 {
        fill: #d7c6b9;
      }

      .cls-6 {
        clip-path: url(#clippath-1);
      }

      .cls-7 {
        clip-path: url(#clippath-2);
      }

      .cls-8 {
        fill: #eacdb6;
      }

      .cls-9 {
        fill: #fff;
      }

      .cls-10 {
        fill: #f2f0ee;
      }

      .cls-11 {
        fill: #f2dfd1;
      }

      .cls-12 {
        fill: #fff6ee;
      }

      .cls-13 {
        fill: #fbebdf;
      }

      .cls-14 {
        fill: #e7c1a2;
      }

      .cls-15 {
        clip-path: url(#clippath);
      }

      .cls-16 {
        fill: #b3723c;
      }
    </style>
    <clipPath id="clippath">
      <rect class="cls-1" x=".41" y=".55" width="73.18" height="72.6"/>
    </clipPath>
    <clipPath id="clippath-1">
      <rect class="cls-1" width="61.15" height="30.62"/>
    </clipPath>
    <clipPath id="clippath-2">
      <rect class="cls-1" y="9.74" width="60.45" height="6.26"/>
    </clipPath>
  </defs>
  <g id="Layer_1-2" data-name="Layer 1">
    <g>
      <g class="cls-15">
        <path class="cls-10" d="M66.28,41.39c-3.44,5.77-8.16,6.84-10.26,7.02.46-1.96.91-3.99,1.33-6.03.48-2.29.93-4.62,1.35-6.91.69-3.85,1.28-7.62,1.69-11.02.07,0,.13.02.2.03,4.16.57,6.79,3.52,7.56,7.26.61,2.97.05,6.45-1.86,9.66M73.51,31.23c-.02-.29-.04-.57-.08-.86-.04-.38-.09-.75-.15-1.1-1.26-7.29-7.02-9.38-10.97-9.94-.08-.01-.16-.02-.24-.03-.42-.06-.82-.09-1.18-.12.08-1.15.13-2.21.14-3.19.01-1.05-.02-1.99-.1-2.79C59.81,1.46,31.98.59,31.98.59,31.98.59,10.07-.45,1.85,8.17c-.73.76-1.13,1.77-1.17,2.82-.04,1.11-.11,2.84-.16,5.01-.03,1.18-.05,2.49-.07,3.9v.24c-.02,1.59-.02,3.3,0,5.1.04,3.59.16,7.55.43,11.61.12,1.83.27,3.68.45,5.53,1.02,10.2,3.1,20.22,7.22,25.84,1.04,1.43,2.22,2.57,3.55,3.35.72.42,1.51.67,2.33.79,2,.28,7.67.8,15.38.8,10.44,0,15.9,0,19.64-4.84.17-.21.39-.47.59-.82,1.26-2.13,2.86-6.97,4.46-12.99,10.81-1.93,17.34-8.41,18.77-17.36.3-1.87.38-3.84.23-5.91"/>
      </g>
      <g class="cls-6">
        <path class="cls-10" d="M20.72,30.02C12.77,29.82.44,21.55.46,19.9c.04-4.03.16-7.19.23-8.91.04-1.05.44-2.06,1.17-2.82C10.07-.45,31.98.59,31.98.59c0,0,27.83.87,28.95,12.61.15,1.56.13,3.6-.04,5.98.43.03-22.7,11.27-40.17,10.84"/>
      </g>
      <path class="cls-14" d="M59.84,19.18l-.49,5.26c-.4,3.41-.97,7.17-1.63,11.02-.4,2.29-.83,4.62-1.3,6.91H2.36c-.17-1.85-.32-3.7-.43-5.53-.39-6.2-.46-12.18-.42-16.95l58.33-.72"/>
      <path class="cls-8" d="M44.14,68.56c-8.9,1.56-19.64,2.13-31.65.21-2.13-.34-3.99-1.66-4.93-3.59-3.44-7.06-4.99-18.01-5.63-28.33,13.51,4.32,32.91,6.75,55.79-1.38-.75,4.33-1.64,8.77-2.58,12.94-.11,1.95-2.12,8.95-3.8,13.97-1.08,3.22-3.84,5.59-7.19,6.18"/>
      <path class="cls-13" d="M59.84,19.18c-.17.18-14.55,5.02-31.21,5.25-12.48.17-21.38-2.36-27.12-4.53.01-1.47.06-2.77.13-3.9.01-.32.03-.63.05-.92.08-1.33.17-2.4.2-3.21.04-.98.42-1.93,1.12-2.63C10.9,1.17,31.95,2.15,31.95,2.15c0,0,26.73.81,27.8,11.79.06.65.12,1.32.15,2.06.04.92.03,1.95-.05,3.19"/>
      <path class="cls-12" d="M58.88,11.23c-27.89,7.04-51.35,1.63-56.93.12.13-.79.49-1.54,1.07-2.12C10.9,1.17,31.95,2.15,31.95,2.15c0,0,22.17.67,26.93,9.09"/>
      <g class="cls-7">
        <path class="cls-9" d="M30.14,15.37c-2.7,0-5.41-.09-8.13-.27-10.17-.67-17.53-2.44-20.22-3.17-.83-.22-1.27-.36-1.29-.37-.32-.1-.49-.44-.39-.75.1-.32.44-.49.76-.39,0,0,.44.14,1.23.35,2.66.72,9.92,2.47,19.99,3.13,12.51.82,24.84-.27,36.65-3.25.32-.08.63-.16.95-.24.32-.08.65.11.73.43.08.32-.11.65-.43.73-.32.08-.64.17-.97.24-9.36,2.37-19.05,3.55-28.89,3.55"/>
      </g>
      <path class="cls-5" d="M70.78,35.87s-.04,0-.06,0c-.22-.04-.37-.24-.33-.46,1.48-9.08-4.93-11.74-5.21-11.85-.2-.08-.3-.31-.22-.52.08-.2.31-.3.52-.23.08.03,1.87.75,3.47,2.69,1.48,1.78,3.06,4.96,2.23,10.04-.03.2-.2.33-.39.33"/>
      <path class="cls-5" d="M54.51,54.9s-.07,0-.1-.01c-.21-.05-.34-.27-.29-.48l1.51-6.09c.05-.21.27-.35.48-.29.21.05.35.27.29.48l-1.51,6.09c-.04.18-.21.3-.39.3"/>
      <path class="cls-16" d="M34.61,4.84c-.25,0-.49.09-.63.25-.11.14-.13.3-.04.49.05.11.18.31.51.57,1.42-.43,1.88-.67,2.02-.8-.22-.14-.9-.3-1.36-.42l-.27-.07c-.08-.02-.16-.03-.24-.03ZM24.38,4.86c1.18.09,1.92.28,1.95,1.11.01.24.13.34.21.39.33.21,1.31.38,4.23-.83,1.33-.55,1.71-1.03,1.63-1.28-.17-.56-2.15-1.05-4.26-.6-.87.18-2.28.67-3.77,1.19ZM39.87,5.99c1.13.15,2.67.35,4.32.58,1.22-.35,2.33-.66,3.12-.87-.54-.1-1.06-.16-1.53-.19-1.67-.11-4.09.17-5.91.48ZM36.07,6.99c.86.32,2.05.64,3.71.92.56-.18,1.17-.38,1.86-.59.38-.12.76-.23,1.14-.34-1.68-.23-3.33-.44-4.76-.62-.28.07-.49.13-.6.18-.15.07-.58.21-1.35.45ZM27.22,7.95c.81.1,1.71.23,2.71.38,1.03-.35,2.05-.67,2.96-.96.55-.17,1.08-.34,1.56-.49-.03-.02-.06-.04-.09-.06-.56.16-1.24.35-2.05.55-1.76.44-3.46.6-5.08.59ZM41.12,8.1c1.84.24,4.14.43,7.03.52,2.72.08,4.13.07,4.86.02-1.51-.39-5.1-.95-8.79-1.47-1.08.31-2.12.63-3.09.93ZM16.6,6.71c-.12,0-.23,0-.35.01-.29.02-.57.03-.85.05-2.8.15-4.82.26-5.92,1.44-.13.13-.24.31-.2.39.23.4,2.3.61,5.03.03,1.63-.35,2.3-.91,2.94-1.45.16-.13.32-.27.49-.4-.41-.04-.8-.07-1.15-.07ZM31.26,8.52c1.09.16,2.29.32,3.61.48.52.06,1,.12,1.45.18.57-.25,1.31-.54,2.3-.88-1.55-.32-2.65-.67-3.43-1.03-.05.01-.09.03-.14.04-.6.18-1.27.4-1.99.63-.57.18-1.18.38-1.81.58ZM24.51,8.34c-1.5,0-2.55.31-3.36,1.16-.66.69-.91,1.29-.66,1.61.36.48,1.75.45,3.35-.42,1.02-.55,2.87-1.26,4.84-1.94-1.7-.24-3.06-.41-4.17-.41ZM35.14,10.56c.01.32.29.59.52.76.91.65,2.81.98,4.43.42,1.25-.43,1.32-.68,1.32-.69-.03-.1-.44-.62-5.02-1.26-.72.32-1.17.58-1.25.77ZM17.86,4.9c-1.35,0-2.73.19-4.15.57-.58.16-1.13.3-1.64.44-3.53.94-5.66,1.5-5.79,2.04-.07.29.56.86.77,1.05,1.91,1.76,13.01,3.51,21.66,3.9,7.67.35,13.63-.66,19.94-1.72l1.38-.23c4.31-.72,4.95-1.58,5.02-1.92.09-.41-.45-.85-.77-1.07-.8-.55-3.27-1.45-5.64-2-1,.26-2,.53-2.99.8.14.02.27.04.41.06,8.26,1.21,8.24,1.54,8.21,1.93-.03.38-.05.65-6.12.46-3.55-.11-6.24-.37-8.3-.7-.88.29-1.67.57-2.35.83,4.42.69,4.48,1.29,4.52,1.64.07.61-.83,1.01-1.72,1.32-1.87.64-3.96.22-4.97-.5-.51-.36-.77-.8-.77-1.26,0-.18,0-.43.8-.89-.17-.02-.36-.04-.54-.07-1.83-.21-3.41-.45-4.82-.65-2.33.78-4.68,1.63-5.86,2.28-1.76.96-3.49,1.06-4.11.26-.26-.34-.52-1.11.71-2.39.86-.9,1.91-1.27,3.33-1.33-1.3-.15-2.53-.36-3.66-.56-.61-.11-1.19-.21-1.73-.29-.39.22-.69.47-1,.74-.67.56-1.43,1.2-3.21,1.58-1.97.42-5.11.68-5.67-.32-.13-.23-.18-.6.28-1.1,1.27-1.36,3.39-1.47,6.33-1.63.27-.01.55-.03.84-.05.67-.04,1.45.04,2.32.16.25-.13.53-.24.86-.33.57-.17,1.29-.41,2.07-.69-.42-.04-.86-.1-1.33-.17-.76-.12-1.52-.18-2.29-.18ZM31.77,13.58c-1,0-2.03-.02-3.09-.07-7.57-.34-19.78-1.98-22.03-4.05-.66-.61-1.07-1.11-.94-1.64.21-.88,1.85-1.32,6.21-2.48.51-.14,1.05-.28,1.64-.44,2.31-.62,4.5-.75,6.69-.4.98.15,1.85.23,2.61.27.06-.02.12-.04.18-.07,1.9-.68,3.86-1.38,4.99-1.62,2.06-.44,4.62-.1,4.96,1,.22.7-.45,1.38-1.98,2.01-2.45,1.01-4.02,1.26-4.78.77-.3-.19-.47-.49-.49-.87-.02-.43-.63-.5-2.23-.59-.18-.01-.37-.02-.57-.03-1.2.43-2.33.83-3.2,1.09.24.04.49.08.74.13,3.25.57,7.31,1.27,11.66.18.63-.16,1.16-.3,1.62-.43-.2-.2-.31-.38-.38-.52-.18-.4-.13-.8.13-1.12.32-.39.91-.56,1.47-.42l.27.07c1.08.26,1.86.45,1.86.98,0,.32-.19.66-1.99,1.24l.1.05c1.01-.32,1.79-.56,1.95-.64.13-.06.38-.13.72-.21.02-.01.05-.02.08-.02,1.7-.41,5.44-1,7.83-.84.86.05,1.85.22,2.86.45h.04c2.49.58,5.05,1.52,5.9,2.11.8.55,1.14,1.13,1.02,1.7-.23,1.03-1.98,1.79-5.51,2.38l-1.38.23c-5.47.92-10.68,1.79-16.97,1.79"/>
      <path class="cls-4" d="M17.73,72.69h0l-1.95-.18c-.81-1.1-1.56-2.3-2.25-3.58,1.19.18,2.37.33,3.54.46.21,1.1.44,2.2.67,3.3"/>
      <path class="cls-2" d="M13.31,39.63c-2.45-.42-4.78-.93-6.98-1.51-.47-6.33-.54-12.24-.48-16.75,2.06.63,4.39,1.23,6.99,1.72-.03,5.49.13,11.01.47,16.53"/>
      <path class="cls-11" d="M17.06,69.39c-1.17-.13-2.35-.28-3.54-.46-4.44-8.28-6.39-20.13-7.19-30.8,2.2.58,4.53,1.09,6.98,1.51.62,9.99,1.86,19.99,3.75,29.76"/>
      <path class="cls-3" d="M12.84,23.1c-2.6-.5-4.93-1.1-6.99-1.72.07-4.77.28-7.97.31-8.41,1.88.39,4.2.82,6.88,1.2-.12,2.96-.19,5.94-.21,8.93"/>
      <path class="cls-9" d="M13.04,14.17c-2.69-.38-5.01-.81-6.88-1.2,0-.04,0-.05,0-.05,1.3.38,4.1.82,6.88,1.26,0,0,0,0,0,0"/>
    </g>
  </g>
</svg>