<?xml version="1.0" encoding="UTF-8"?>
<svg id="Layer_2" data-name="Layer 2" xmlns="http://www.w3.org/2000/svg" xmlns:xlink="http://www.w3.org/1999/xlink" viewBox="0 0 84.85 68.79">
  <defs>
    <style>
      .cls-1 {
        fill: none;
      }

      .cls-2 {
        fill: #d5d3d2;
      }

      .cls-3 {
        fill: #e1a36b;
      }

      .cls-4 {
        fill: #d58d4a;
      }

      .cls-5 {
        fill: #d7c6b9;
      }

      .cls-6 {
        clip-path: url(#clippath-1);
      }

      .cls-7 {
        clip-path: url(#clippath-2);
      }

      .cls-8 {
        fill: #f2f0ee;
      }

      .cls-9 {
        fill: #e6b99d;
      }

      .cls-10 {
        fill: #e1af8e;
      }

      .cls-11 {
        clip-path: url(#clippath);
      }
    </style>
    <clipPath id="clippath">
      <rect class="cls-1" x=".07" y="0" width="84.77" height="68.79"/>
    </clipPath>
    <clipPath id="clippath-1">
      <rect class="cls-1" x=".07" y="0" width="84.77" height="67.99"/>
    </clipPath>
    <clipPath id="clippath-2">
      <rect class="cls-1" y="8.77" width="66.85" height="11.31"/>
    </clipPath>
  </defs>
  <g id="Layer_1-2" data-name="Layer 1">
    <g>
      <g class="cls-11">
        <path class="cls-2" d="M66.52,20.96s4.08-2.78,7.88-3.39h0c1.95-.31,3.82-.05,5.04,1.45,2.77,3.42-7.37,10.42-12.12,13.43-1.4.89-2.33,1.43-2.33,1.43l1.53-12.92ZM67.26,11.37S66.39-.02,34.21,0C28.19,0,9.81,1.49,1.33,7.59.49,8.2.03,9.19.09,10.21c.19,3.35.91,12.34,3.71,29.51,0,0,2.6,19.48,9.32,22.93,0,0,1.84,1.46,5.48,2.96h0c3.85,1.58,9.71,3.2,17.54,3.16,0,0,10.47.72,18.83-5.61,2.21-1.67,4.28-3.84,5.96-6.64,0,0,2.46-6.47,2.64-14,0,0,20.92-10.5,21.27-20.12.35-9.62-5.97-14.35-17.57-11.02"/>
      </g>
      <g class="cls-6">
        <path class="cls-8" d="M67.32,32.45c-1.4.89-2.33,1.43-2.33,1.43l1.53-12.92s4.08-2.78,7.88-3.39h0c3.09-1.07,5.92-.65,6.83,1.31,2.5,5.36-13.91,13.57-13.91,13.57ZM67.26,11.37S66.74-.02,34.21,0C28.12,0,9.41,1.52,1.05,7.8c-.67.5-1.02,1.31-.98,2.13.16,3.11.85,12.12,3.73,29.79,0,0,2.6,19.48,9.32,22.93,0,0,1.84,1.46,5.48,2.96h0c4.13,1.28,9.78,2.38,16.91,2.35,0,0,10.5.65,19.45-4.8,2.21-1.67,4.28-3.84,5.96-6.64,0,0,2.46-6.47,2.64-14,0,0,20.92-10.5,21.27-20.12.35-9.62-5.97-14.35-17.57-11.02"/>
      </g>
      <path class="cls-10" d="M64.41,10.4s-1.97,40.84-6.44,47.21c-.85,1.22-1.81,2.27-2.87,3.17h0c-.56.48-1.15.91-1.77,1.31-2.27,1.46-4.93,2.4-7.97,2.97-3.73.7-8.04.84-12.91.7-19.81-.57-22.33-10.91-22.33-10.91C5.72,43.86,2.83,10.4,2.83,10.4h61.58"/>
      <path class="cls-9" d="M59.49,14.68s-1.22,37.97-6.16,47.4c-2.27,1.46-4.93,2.4-7.97,2.97,9-11.97,5.84-47.6,5.84-47.6l8.29-2.77"/>
      <path class="cls-4" d="M64.41,10.4c0,.34-.08.68-.23,1.01-1.99,4.25-16.26,7.56-29.32,7.56S3.89,15.36,2.88,10.82c-.03-.14-.05-.28-.05-.41C2.83,5.67,20.78,1.84,34.86,1.84s29.55,3.83,29.55,8.57"/>
      <path class="cls-3" d="M64.17,11.41c-1.99,4.25-16.26,7.56-29.32,7.56S3.89,15.36,2.88,10.82c2.2-4.28,18.67-7.6,31.78-7.6s28.74,3.64,29.52,8.2"/>
      <g class="cls-7">
        <path class="cls-8" d="M34.7,19.73c-2.55,0-4.23-.1-4.44-.11C7.9,19.22.6,10.72.3,10.36c-.3-.36-.25-.9.12-1.2.36-.3.91-.25,1.21.11.08.09,7.21,8.26,28.68,8.64h.04c.27.02,27.32,1.63,34.72-8.59.28-.38.81-.47,1.2-.2s.47.81.2,1.2c-3.37,4.65-10.52,7.63-21.25,8.85-3.99.45-7.75.57-10.51.57"/>
      </g>
      <path class="cls-5" d="M63.59,41.82s-.04,0-.06,0c-.19-.03-.31-.2-.28-.39l1.09-6.75c.03-.19.2-.31.39-.28.19.03.31.2.28.39l-1.09,6.74c-.03.17-.17.29-.34.29"/>
      <path class="cls-8" d="M38.64,5.67s8.09-.66,13.38,2.12c0,0,2.67,1.57-1.23,3.34-3.9,1.77-12.27,2.8-12.65,3.51-.38.71,1.1,1.38,1.1,1.38,0,0-3.59-1.59-5.48-1.7-1.89-.11-15.25-1.83-17.04-2.83-1.79-1-4.02-2.3-2.08-4.21,1.94-1.91,11.21-1.71,14.59-.05,0,0-6.29-.93-8.5-.71-2.21.23-4.77.54-4.15,2.13.62,1.59,4.75,2.27,4.75,2.27,0,0-2.74-1.23-3.32-1.74s-.25-1.57,2.2-1.83c2.46-.26,6.64.04,6.64.04,0,0-6.42-.17-7.19,1.09,0,0,4.79-1.2,8.37-.44,3.59.75,5.13,3.21,5.13,3.21,0,0-2.44-3.1.31-3.91,2.75-.81,7.48.77,7.75,1.43.27.66-.54,1.17-.54,1.17,0,0,1.03.56,1.28-1.09.25-1.64-5.09-2.08-5.09-2.08,0,0,5.4-.22,6.27,1.88s-3.38,2.62-3.38,2.62c0,0,2.73.4,3.54-1.05.81-1.45.09-2.94-1.12-3.21,0,0,3.4.88,3.16,2.01s-1.23,2.4-5.09,3.16c0,0,3.19.73,5.8-2.47s-8.66-3.59-9.18-3.42c0,0,9.23-.28,11.45,1.83,2.22,2.11-4.33,3.98-4.33,3.98,0,0,4.97-.86,5.55-2.89.58-2.04-4.9-3.41-10.96-3.55"/>
    </g>
  </g>
</svg>