<?xml version="1.0" encoding="UTF-8"?>
<svg id="Layer_2" data-name="Layer 2" xmlns="http://www.w3.org/2000/svg" viewBox="0 0 66.92 86.57">
  <defs>
    <style>
      .cls-1 {
        fill: #592712;
      }

      .cls-2 {
        fill: #7a381c;
      }

      .cls-3 {
        fill: #7d3e11;
      }

      .cls-4 {
        fill: #cf8351;
      }

      .cls-5 {
        fill: #cecdcc;
      }

      .cls-6 {
        fill: #4d2305;
      }

      .cls-7 {
        fill: #f0e6da;
      }

      .cls-8 {
        fill: #ebd0b4;
      }
    </style>
  </defs>
  <g id="Layer_1-2" data-name="Layer 1">
    <g>
      <g>
        <path class="cls-3" d="M58.8,72.76s0,0,0,0c0,0,0,0,0,0,0,0,0,0,0,0Z"/>
        <path class="cls-3" d="M56.82,18.98s0,0,0,0c0,0,0,0,0,0Z"/>
        <path class="cls-3" d="M10.1,18.98s0,0,0,0c0,0,0,0,0,0Z"/>
        <path class="cls-3" d="M56.73,18.95s0,0,0,0c0,0,0,0,.01,0,0,0,0,0,0,0Z"/>
        <path class="cls-3" d="M10.2,18.95s0,0,0,0c0,0,0,0,0,0,0,0,0,0,.01,0Z"/>
        <path class="cls-3" d="M56.7,18.94s.01,0,.02,0c0,0-.01,0-.02,0Z"/>
        <path class="cls-3" d="M10.22,18.94s-.01,0-.02,0c0,0,.01,0,.02,0Z"/>
        <path class="cls-3" d="M36.86,69.34c0-.11,0-.22,0-.33-.05-.39-.31-.73-.63-.95-.24-.16-.51-.28-.78-.38-.27-.11-.55-.2-.82-.31-.26-.1-.52-.22-.77-.34,0,0,0,0,0,0,0,0-.02,0-.03-.01-.04-.02-.08-.04-.12-.06,0,0,0,0,.01,0-.26-.14-.52-.29-.78-.44-.27-.16-.55-.31-.84-.42-.32-.12-.7-.15-1.01.02-.16.09-.28.21-.37.37-.07.13-.11.29-.12.45,0,.2.03.39.06.59.06.29.16.59.31.85.2.34.48.64.77.9,0,.1.04.2.11.27.06.08.15.14.23.21.07.06.15.12.22.18.15.12.31.25.47.35.04.03.09.05.14.07,0,0,.02.01.03.02.17.11.33.22.52.3.16.07.32.11.49.15.18.04.37.05.56.05.1,0,.2,0,.3-.01.3-.02.6-.09.87-.22.27-.13.51-.31.73-.51.1-.09.2-.2.28-.32.1-.13.17-.3.18-.46ZM41.41,69.92c.04-.09.06-.21.04-.3-.01-.09-.03-.18-.08-.25-.08-.12-.17-.22-.3-.29-.13-.08-.28-.13-.42-.17-.19-.06-.4-.09-.6-.06-.08.01-.17.03-.25.05-.06.02-.12.04-.18.07-.03,0-.07-.01-.1,0-.27.03-.53.05-.77.18-.15.08-.27.2-.34.36-.08.17-.07.37,0,.54.05.15.15.28.29.36.05.03.11.06.16.08.13.06.27.1.41.12.19.03.38.05.58.05.06,0,.12,0,.17,0,.32-.02.62-.1.91-.24.08-.04.17-.09.24-.15.05-.04.1-.08.14-.13.05-.06.09-.13.12-.2ZM50.27,61.84c.06-.31.09-.62.09-.94,0-.3-.03-.6-.09-.89-.06-.32-.13-.63-.24-.93-.1-.29-.21-.58-.35-.84-.08-.14-.16-.28-.25-.41-.09-.13-.19-.26-.31-.38-.11-.12-.23-.22-.35-.32-.06-.05-.13-.1-.19-.14-.06-.03-.11-.07-.17-.1-.15-.08-.29-.15-.44-.21-.14-.06-.29-.09-.43-.12-.19-.04-.39-.06-.59-.05-.17,0-.35.05-.51.12-.16.07-.3.17-.43.28-.26.22-.45.51-.58.83-.12.29-.19.58-.24.89-.05.29-.07.59-.09.89-.02.28-.05.56-.1.83-.03.11-.06.23-.09.34-.03.07-.06.14-.09.21-.03.06-.07.12-.1.18-.04.06-.08.11-.13.17-.05.05-.1.11-.16.16-.06.05-.12.1-.18.14-.03.02-.06.04-.09.06-.07.04-.13.08-.2.11-.07.03-.14.06-.22.09-.07.02-.15.04-.23.06-.12.02-.24.04-.36.05-.1,0-.19,0-.29,0-.15-.01-.29-.03-.44-.06-.19-.05-.38-.1-.57-.16-.18-.07-.35-.14-.52-.22-.33-.17-.64-.35-.96-.54-.32-.19-.64-.39-.98-.56,0,0,0,0,0,0-.01,0-.02-.01-.03-.02-.03-.02-.06-.03-.09-.04,0,0,0,0,0,0-.29-.15-.6-.27-.9-.39-.16-.06-.32-.13-.49-.18-.16-.05-.32-.1-.49-.12-.14-.01-.29-.02-.43.02-.07.02-.14.04-.21.06-.14.05-.28.13-.4.24-.12.11-.22.24-.29.38-.07.13-.11.28-.13.42-.04.26,0,.53.08.77.08.25.19.48.33.7,0,0,0,0,0,0,0,.02,0,.04.01.06.01.05.02.11.04.16.06.23.15.46.28.67.08.14.18.27.27.39.12.16.26.31.4.46.14.15.29.28.45.41,0,0-.02-.02-.03-.02.23.21.49.38.74.56.26.18.54.34.82.49.53.29,1.11.5,1.69.66.16.04.32.08.48.12.16.04.32.06.48.09.14.02.28.04.42.05.09,0,.19.01.28.02.06,0,.12,0,.18,0,.09,0,.17,0,.26,0,.06,0,.13,0,.2,0,.16,0,.33-.01.49-.03.17-.02.33-.03.49-.05.16-.02.32-.05.48-.08.15-.03.31-.06.46-.09.13-.03.26-.06.39-.1.17-.05.33-.1.5-.15.15-.05.3-.11.45-.17.08-.03.16-.07.23-.1.05-.02.11-.05.16-.07.16-.08.32-.16.47-.24.27-.14.52-.3.77-.47.12-.08.24-.16.35-.24.13-.1.27-.2.39-.31.06-.05.12-.1.17-.15.05-.05.1-.11.15-.16.11-.11.2-.24.3-.36.09-.12.17-.26.25-.4.02-.04.04-.09.06-.13.02-.03.03-.06.05-.1.03-.06.06-.13.08-.2.11-.29.21-.59.27-.89ZM63.16,33.21c-.09,1.04-.18,2.08-.26,3.12-.17,1.96-.33,3.92-.5,5.88-.17,2.04-.35,4.08-.52,6.12-.17,1.99-.34,3.98-.51,5.96-.13,1.55-.26,3.1-.39,4.66-.02,0-.04-.02-.06-.02-.14-.05-.29-.09-.44-.11-.15-.02-.31-.03-.47,0-.11.02-.22.04-.33.08-.07.03-.13.06-.2.09-.13.07-.25.15-.36.24-.07.06-.14.12-.2.19-.12.13-.21.28-.27.45-.05.15-.08.31-.1.46-.03.31,0,.62.07.93.07.31.19.6.38.86.18.25.38.49.59.72.2.22.42.43.67.6.07.04.13.09.2.12.04.02.07.04.11.06-.07.86-.15,1.73-.22,2.59-.04.43-.07.85-.11,1.28-.08.01-.15.02-.23.03-.11,0-.22,0-.33,0-.1,0-.19-.02-.29-.03-.06-.01-.12-.02-.19-.03-.1-.02-.2-.05-.3-.08-.11-.04-.22-.08-.33-.13-.06-.03-.13-.06-.18-.1-.06-.04-.12-.07-.17-.11-.05-.04-.11-.07-.16-.11-.05-.04-.09-.08-.14-.12-.09-.08-.17-.16-.25-.25-.07-.09-.14-.18-.21-.27-.05-.07-.09-.14-.13-.21-.03-.05-.06-.11-.09-.17-.04-.09-.08-.19-.12-.29-.06-.18-.11-.37-.15-.56-.06-.34-.1-.69-.13-1.04-.03-.48-.05-.95-.09-1.43-.04-.43-.14-.86-.24-1.28-.22-.94-.54-1.85-.75-2.79-.04-.2-.07-.4-.08-.6-.01-.25-.02-.49,0-.74.02-.18.04-.35.07-.52.04-.18.09-.36.15-.54.08-.23.17-.45.28-.66.09-.17.19-.33.29-.49.11-.15.22-.3.34-.44.08-.09.17-.17.26-.26.06-.05.11-.09.17-.13.08-.05.15-.09.23-.13.11-.05.22-.1.34-.14.14-.05.29-.09.43-.12.08-.02.17-.03.25-.05.09-.02.16-.05.22-.12.07-.1.08-.25,0-.35-.08-.1-.2-.13-.33-.15-.15-.02-.3-.02-.45-.02-.32.02-.63.08-.94.15-.33.08-.66.18-.98.3-.31.11-.61.26-.88.44-.13.09-.26.18-.38.29-.1.09-.19.18-.28.28-.1.11-.19.23-.27.36-.08.13-.15.25-.22.39-.27.55-.45,1.15-.49,1.76-.02.31-.02.63,0,.94.02.32.04.63.07.95.06.61.12,1.22.17,1.83.03.45.05.91.06,1.36.01.44,0,.88-.02,1.31-.02.22-.03.44-.06.66-.02.21-.06.42-.1.62-.04.17-.08.33-.13.49-.05.17-.1.33-.16.49-.06.15-.11.3-.17.44-.06.14-.12.28-.19.42-.08.16-.16.31-.25.47-.09.16-.19.31-.29.46-.11.16-.23.33-.35.48-.12.16-.25.31-.38.47-.09.1-.18.2-.28.29-.08.09-.17.17-.26.25-.16.14-.32.27-.49.4-.16.12-.33.24-.5.35-.23.15-.46.29-.7.43-.21.12-.43.24-.64.35-.43.21-.87.41-1.32.59-.47.19-.95.37-1.42.54-.32.11-.65.22-.97.31-.36.1-.71.19-1.08.27-.4.08-.8.16-1.21.21-.21.03-.43.05-.64.07-.19.02-.38.03-.57.05-.6.03-1.19.05-1.79.04-.6,0-1.2-.02-1.8-.04-1.19-.03-2.37-.05-3.56-.13-.3-.02-.59-.04-.88-.08-.31-.04-.61-.08-.91-.14-.13-.03-.26-.05-.39-.09-.13-.04-.26-.07-.39-.11-.11-.04-.22-.08-.33-.12-.1-.05-.2-.09-.3-.14-.15-.08-.29-.16-.43-.25-.13-.09-.25-.19-.37-.29-.15-.14-.29-.27-.42-.42-.17-.19-.32-.39-.47-.6-.14-.21-.27-.42-.38-.65-.12-.24-.22-.49-.31-.74-.2-.59-.36-1.2-.6-1.78-.12-.29-.25-.57-.41-.84-.14-.23-.3-.45-.48-.65-.37-.43-.8-.81-1.27-1.13-.48-.34-1-.64-1.55-.85-.28-.11-.57-.2-.87-.27-.31-.07-.63-.14-.95-.16-.16-.01-.31-.02-.47-.03-.15,0-.3,0-.45,0-.27.01-.55.05-.82.11-.28.05-.56.13-.83.22-.26.09-.5.2-.74.32-.49.25-.98.57-1.33,1-.18.22-.35.46-.46.72-.07.16-.1.33-.09.5,0,.15.04.31.11.44.09.15.22.28.39.34.12.04.24.04.36.02.15-.03.29-.09.44-.12.05,0,.1-.02.15-.02.04,0,.09,0,.13,0,.06,0,.12.02.19.03.1.02.19.05.29.08.16.06.32.13.47.2.11.06.22.12.33.19.06.04.11.08.17.13.04.04.08.08.12.13.03.03.05.06.07.09.03.04.05.08.07.12.03.07.06.14.08.2.03.09.05.18.07.27.02.09.03.18.04.28,0,.06,0,.11,0,.17,0,.03,0,.06-.01.1-.01.04-.02.09-.04.13-.01.04-.03.07-.05.11-.02.04-.04.08-.07.12-.01.02-.03.04-.04.06-.03.03-.06.07-.1.1-.03.03-.06.05-.1.07-.04.03-.09.05-.13.08-.07.03-.14.06-.21.09-.11.04-.23.07-.35.09-.24.04-.48.07-.73.09-.18,0-.36,0-.54,0,0,0-.02,0-.03,0,0,0,0,0,0,0,0,0,0,0-.01,0,0,0,0,0-.01,0,0,0,0,0,0,0,0,0-.02,0-.03,0-.26-.02-.51-.05-.77-.11-.13-.03-.25-.06-.38-.1-.17-.06-.34-.14-.5-.22-.17-.09-.34-.18-.5-.29-.15-.11-.3-.22-.44-.34-.16-.15-.31-.3-.46-.46-.09-.1-.17-.21-.25-.32-.09-.13-.17-.27-.24-.41-.08-.16-.15-.33-.21-.5-.06-.18-.11-.35-.15-.53-.02-.13-.04-.25-.05-.38,0-.16,0-.31,0-.46.02-.2.05-.4.09-.6.05-.24.11-.48.17-.72.07-.25.14-.5.2-.76,0-.04.02-.08.03-.11,0-.02,0-.04.01-.06.02-.06.02-.12.03-.18.02-.14.03-.28.03-.42,0-.13-.02-.27-.04-.4-.02-.13-.05-.27-.08-.4-.04-.16-.08-.33-.15-.48-.06-.14-.14-.27-.22-.39-.17-.24-.39-.44-.61-.63-.23-.19-.48-.35-.75-.49-.27-.14-.58-.24-.88-.28-.15-.02-.3-.03-.45-.03-.14,0-.29,0-.43.02-.15.01-.3.04-.45.07-.14.03-.27.07-.4.11,0,0,0,0-.01,0-.21.07-.41.15-.61.24-.21.1-.41.2-.61.31-.2.11-.39.23-.58.36-.05.03-.1.07-.15.11-.04.03-.08.06-.12.09-.08.06-.17.13-.25.19-.23.2-.46.4-.67.63-.2.23-.41.46-.59.71-.1.14-.2.28-.3.42-.08.12-.16.25-.24.37-.11.18-.21.36-.31.55-.09-1.12-.19-2.24-.28-3.36-.17-1.99-.34-3.97-.5-5.96-.17-1.99-.34-3.98-.51-5.96-.17-2.04-.35-4.08-.52-6.12-.17-1.96-.33-3.92-.5-5.88-.12-1.4-.24-2.8-.36-4.2.01,0,.03-.01.04-.02.07-.04.11-.1.13-.17,0-.01,0-.03.01-.04.02-.05.04-.1.06-.15,0,.15.02.29.04.44.01.09.04.17.06.26,0,.03.02.06.03.08,0,.04.02.07.03.11.02.06.03.12.05.19.03.12.07.24.11.37.17.54.35,1.08.52,1.62.17.57.34,1.15.49,1.73.14.55.27,1.1.38,1.66.18.89.35,1.79.49,2.69.07.45.13.9.2,1.35.07.46.15.91.24,1.36.12.61.23,1.22.38,1.83.07.29.14.58.24.86.05.14.09.28.15.42.05.11.1.22.17.31.07.09.15.19.25.24.03.02.06.03.09.05.03.01.06.02.09.03.04.01.09.01.13.01.09,0,.17-.04.25-.09.09-.06.14-.14.19-.23.03-.05.05-.11.06-.16.02-.07.03-.14.04-.21.04-.3.03-.6,0-.9-.05-.6-.11-1.19-.15-1.79-.08-1.26-.09-2.52,0-3.78.02-.25.04-.5.06-.74.02-.23.04-.45.09-.67.05.1.1.19.15.29.11.2.21.4.33.59.23.41.48.82.71,1.23.54.97,1,1.99,1.64,2.91.08.12.17.24.26.35.08.09.15.19.24.27.06.06.13.11.2.15.07.04.16.06.24.08.08.02.17,0,.25-.02.08-.02.15-.07.21-.12.12-.09.21-.24.26-.38.05-.12.08-.24.12-.37.06-.26.11-.53.16-.79.06-.27.13-.54.22-.81.04-.1.08-.2.13-.3.02-.04.04-.08.07-.12.01-.02.03-.03.04-.05.01-.02.03-.03.05-.05.02-.01.03-.02.05-.04.02,0,.03-.02.05-.03,0,0,.02,0,.02,0,0,0,.01,0,.02,0,0,0,.01,0,.02,0h.01s.01,0,.02,0c.01,0,.02,0,.04,0,.01,0,.03.01.04.02.02.01.05.03.07.04.03.02.06.04.09.07.05.05.1.09.14.14.1.12.2.24.29.37.18.27.34.56.49.85.22.45.42.9.58,1.37.08.23.15.46.21.69.06.24.12.48.17.73.07.34.13.68.19,1.02.06.35.13.69.19,1.04.06.37.12.75.18,1.12.05.33.1.66.16.98.03.13.05.26.08.39.03.14.07.28.14.41.08.16.2.34.39.39.07.02.15.02.22,0,.07-.02.13-.07.19-.12.07-.07.12-.19.14-.29.02-.08.03-.17.04-.25.02-.15.03-.29.03-.44.01-.31.02-.62.03-.93.02-1.2.02-2.41.09-3.61.02-.25.04-.49.07-.74.03-.25.08-.49.13-.74.11-.52.25-1.03.41-1.53.11-.32.24-.62.38-.93.19-.37.4-.74.62-1.09.05-.07.1-.14.16-.21.03-.03.06-.07.1-.1.02-.01.03-.02.05-.04.02,0,.03-.02.05-.03.01,0,.03-.01.04-.02.02,0,.03,0,.05-.02-.01,0-.02,0-.04,0,.05-.01.11-.02.16-.02-.01,0-.03,0-.04,0,.02,0,.04,0,.06,0,.02,0,.04,0,.06,0,.08.02.15.04.22.06.09.04.18.07.27.12.1.05.2.11.29.17.13.09.25.19.37.29.11.1.22.21.32.32.08.09.15.19.22.29.13.2.24.41.35.62.32.65.61,1.32.86,2.01.13.36.25.73.34,1.1.1.37.19.75.26,1.12.26,1.32.42,2.65.52,3.99.05.74.09,1.48.14,2.22.04.64.09,1.29.16,1.93.07.63.17,1.26.28,1.89.1.59.21,1.19.33,1.78.06.29.11.58.18.86.03.14.07.28.12.41.03.07.06.14.1.2.04.06.1.09.16.1.02,0,.05.01.07.01.1,0,.2-.05.25-.14.04-.07.05-.13.06-.21,0-.07,0-.13,0-.2,0-.14,0-.27,0-.41,0-.26,0-.52,0-.79-.01-1.25-.03-2.49-.05-3.74,0-.65-.02-1.31-.02-1.96,0-.33,0-.66.01-1,0-.33.02-.65.04-.98.04-.53.08-1.06.16-1.58.08-.52.17-1.03.27-1.54.12-.59.25-1.18.4-1.76.15-.57.32-1.13.51-1.69.17-.48.34-.95.56-1.41.03-.06.06-.12.1-.17.02-.02.03-.04.05-.07.01-.02.03-.03.04-.05.01-.01.02-.02.04-.03,0,0,.02-.01.03-.02,0,0,0,0,.01,0,0,0,0,0,0,0,0,0,0,0,.01,0,0,0,.01,0,.02.01.01.01.03.02.04.03,0,0-.02-.02-.03-.02.04.03.08.07.11.11.07.09.14.18.21.28.29.45.55.93.8,1.41.25.5.5,1,.79,1.48.06.1.13.21.2.31.04.05.07.11.12.16.07.08.14.15.22.22.14.11.31.17.48.21.17.04.35.04.53.02.13-.02.27-.06.39-.11.12-.05.24-.09.36-.15.13-.05.25-.11.37-.17.1-.05.21-.1.32-.14.03-.01.06-.02.1-.03.02,0,.04,0,.06,0,.01,0,.03,0,.04,0,.01,0,.02,0,.03,0,0,0,.02,0,.03,0,.01,0,.02,0,.03.01.02,0,.03.02.05.03.04.02.07.05.1.08,0,0-.02-.02-.03-.02.02.02.04.04.06.06.04.04.07.09.11.13.08.12.15.25.22.38.15.32.29.65.41.98.06.19.12.38.18.57.02.09.05.18.07.27.02.07.03.14.05.2.04.12.09.22.2.29.09.06.21.05.31.01.06-.03.12-.07.17-.12.04-.05.08-.09.12-.14.06-.08.11-.17.16-.26.1-.18.19-.38.28-.57.09-.2.17-.39.24-.59.16-.44.31-.88.46-1.33.08-.23.16-.47.25-.7.09-.22.18-.43.29-.64.12-.23.24-.45.37-.66.04-.06.08-.11.13-.17.02-.02.03-.03.05-.05.01-.01.03-.02.04-.04,0,0-.02.01-.03.02.03-.02.06-.04.1-.06.01,0,.03,0,.04-.01.01,0,.02,0,.03,0,.01,0,.02,0,.03,0,.01,0,.02,0,.04,0,.01,0,.03,0,.04.01.02,0,.03.01.05.02.02.01.04.03.06.04.02.02.04.03.07.05.04.04.09.08.13.13.06.08.12.15.18.23.06.09.11.18.16.28.1.21.19.44.27.66.13.39.24.79.35,1.2.05.18.09.36.15.54.02.05.03.11.06.16.03.06.05.12.09.17.04.05.07.08.12.12.04.03.09.05.14.06.12.03.24-.01.33-.08.11-.09.18-.22.25-.34.09-.17.17-.36.24-.55.14-.36.25-.73.38-1.09.22-.63.46-1.25.75-1.85.04-.08.09-.16.13-.24.02-.03.05-.06.07-.09.03-.03.05-.05.08-.08.03-.02.06-.05.09-.07.04-.02.07-.04.11-.06.07-.03.13-.06.2-.08.08-.02.16-.05.24-.06.08-.01.16-.02.24-.03.06,0,.11,0,.17,0,.07,0,.15.02.22.03.05.01.11.03.16.04.07.03.14.06.21.09.07.04.14.07.2.12.06.04.12.09.18.14.04.04.08.08.12.12.06.07.11.14.16.21.07.1.13.21.18.32.06.12.1.23.15.35.16.48.25.98.37,1.48.11.47.21.93.34,1.4.03.11.06.23.09.34.03.1.05.2.1.29.06.13.13.25.27.31.11.05.24.03.34-.04.12-.07.2-.22.25-.34.05-.11.09-.22.13-.33.08-.23.16-.46.24-.7.07-.19.13-.39.2-.58.43-1.18.9-2.35,1.35-3.52.43-1.09.89-2.17,1.41-3.22,0,0,0,0,0,0,.07-.13.13-.27.21-.39.01.02.03.05.04.07.04.09.08.18.11.27.1.29.17.58.23.88.07.38.13.76.19,1.14.03.17.05.34.08.5.01.09.03.17.04.26.01.08.03.17.06.25.02.04.04.08.07.12.03.04.06.06.1.08.08.05.19.05.28.02.1-.04.17-.12.23-.21.06-.09.11-.19.15-.29.15-.31.3-.63.45-.94.27-.53.55-1.07.88-1.57.05-.07.1-.13.15-.2.02-.02.03-.03.05-.05.02-.01.03-.02.05-.04.01,0,.03-.02.04-.03.01,0,.03-.01.04-.02.01,0,.03,0,.04-.01.01,0,.03,0,.04,0,.01,0,.02,0,.03,0,.01,0,.03,0,.04,0,.02,0,.03.01.05.02.02.01.04.02.06.03.02.02.04.03.06.05.03.03.06.06.09.1.03.04.07.09.1.13.05.07.09.15.13.23.06.13.11.26.16.39.08.25.14.5.19.75.08.41.13.83.16,1.25.03.58.04,1.16.04,1.74,0,.55,0,1.1.03,1.65.03,1.1.08,2.21.12,3.31,0,.11,0,.22.02.33,0,.1.01.22.06.31.07.14.22.22.37.18.15-.04.23-.19.3-.32.07-.13.12-.27.16-.42.04-.13.08-.26.12-.4.08-.27.15-.54.21-.81.26-1.18.43-2.37.66-3.55.14-.67.29-1.33.48-1.98.18-.65.4-1.28.62-1.92,0,0,0-.01,0-.02,0,0,0,0,0,0,.18-.52.37-1.03.6-1.52.21-.41.44-.81.7-1.19,0,0,0,0,0,0,.06-.09.13-.18.2-.27,0,0,0,0,0,0,.03.11.06.23.08.34.06.28.11.56.16.84.04.21.07.43.14.64.04.13.13.28.26.33.07.03.14.05.22.03.06,0,.13-.03.19-.06.24-.15.4-.38.55-.61.15-.22.29-.45.42-.68.12-.23.24-.47.35-.7.22-.48.44-.95.65-1.43.23-.55.47-1.11.66-1.68.04-.13.08-.25.12-.38Z"/>
        <path class="cls-3" d="M63.75,24.52c.07.29.1.6.07.9,0,.06-.01.12-.03.17,0,.02,0,.05,0,.07,0,.06,0,.12-.01.18,0,.06,0,.11-.01.16,0,.11-.02.21-.03.32-.04.45-.08.9-.11,1.35-.01.16-.03.32-.04.48-.05-.04-.11-.08-.17-.11-.16-.09-.33-.17-.51-.22-.17-.05-.33-.09-.51-.12-.26-.04-.52-.06-.78-.07-.3-.01-.61-.02-.91,0-.65.03-1.3.07-1.94.14-1.31.13-2.62.29-3.92.44-1.32.15-2.64.3-3.96.46-1.3.15-2.59.32-3.89.48-1.28.16-2.56.31-3.84.44-.67.07-1.33.14-2,.2-.64.06-1.27.1-1.91.15-1.25.08-2.51.14-3.77.15-.63,0-1.26,0-1.89-.02-.64-.02-1.28-.06-1.93-.1,0,0-.01,0-.02,0,0,0-.01,0-.02,0,0,0,.01,0,.02,0-.53-.04-1.06-.08-1.6-.13-1.31-.12-2.62-.25-3.93-.4-.6-.07-1.2-.14-1.8-.22-.33-.05-.66-.09-1-.15-.31-.05-.62-.11-.93-.17-.11-.02-.22-.05-.34-.07-1.23-.26-2.43-.66-3.63-1.02-.61-.18-1.23-.35-1.85-.49-.6-.13-1.2-.26-1.8-.38.01,0,.02,0,.04,0-.01,0-.03,0-.04,0-.01,0-.02,0-.03,0-.04,0-.07-.02-.11-.02-.01,0-.02,0-.04,0,0,0-.02,0-.03,0-.6-.12-1.2-.25-1.8-.37-.59-.11-1.18-.23-1.78-.3-.28-.03-.57-.06-.86-.07-.15,0-.3,0-.45.01-.15.01-.29.04-.43.07-.28.06-.56.15-.84.25-.26.09-.52.2-.77.31-.28.13-.55.26-.82.42-.27.15-.53.31-.78.49-.47.34-.88.77-1.24,1.24-.33.43-.62.9-.87,1.38-.13.24-.24.48-.35.72,0,.01,0,.02-.01.03-.02-.23-.04-.47-.06-.7-.08-.9-.15-1.8-.23-2.7-.04-.45-.08-.9-.11-1.35,0-.11-.02-.21-.03-.32,0-.05,0-.11-.01-.16,0-.06-.01-.12-.01-.18,0-.02,0-.05,0-.07-.02-.06-.03-.11-.03-.17-.02-.3,0-.61.07-.9.04-.16.09-.32.15-.47.06-.15.11-.3.19-.44.14-.27.32-.53.5-.78.36-.51.82-.94,1.31-1.32.25-.2.51-.38.77-.56.26-.18.53-.34.8-.5.25-.14.51-.27.76-.4.27-.14.54-.27.82-.39.27-.12.55-.24.82-.36.27-.11.54-.23.81-.32,0,0,0,0,0,0,0,0,.01,0,.02,0,.01,0,.03-.01.04-.01,0,0,0,0,0,0,0,0,.01,0,.02,0,0,0,0,0,.01,0,0,0,.01,0,.02,0,.15-.05.31-.1.46-.16.06-.02.12-.04.18-.06.08-.03.16-.05.24-.08.12-.04.24-.07.36-.11.06-.02.12-.04.18-.06.1-.03.21-.07.31-.1.61-.19,1.21-.38,1.82-.56.59-.17,1.18-.33,1.77-.5.62-.17,1.24-.34,1.85-.5.29-.08.59-.16.88-.23.31-.08.62-.15.93-.22.29-.07.59-.13.89-.19.31-.07.62-.12.93-.18.62-.12,1.24-.23,1.86-.33.61-.1,1.21-.2,1.82-.28.31-.04.62-.07.93-.1.3-.03.59-.06.89-.08.59-.05,1.19-.08,1.78-.12,1.09-.07,2.17-.12,3.25-.19h0s.02,0,.03,0h.01c.28-.02.56-.04.84-.06.31-.02.62-.06.93-.04.03,0,.05,0,.08.01.03,0,.05-.01.08-.01.31-.02.62.02.93.04.28.02.56.04.83.06h.01s.02,0,.04,0h0c1.08.07,2.17.13,3.26.19.59.04,1.19.07,1.78.12.3.02.59.05.89.08.31.03.62.06.93.1.61.08,1.22.18,1.82.28.62.11,1.24.21,1.86.33.31.06.62.12.93.18.3.06.59.13.89.19.31.07.62.14.93.22.29.07.59.15.88.23.62.17,1.24.33,1.85.5.59.17,1.18.33,1.77.5.61.18,1.22.37,1.82.56.14.05.29.09.43.14.04.01.09.03.13.04.04.01.08.03.12.04.09.03.19.06.28.09.08.02.16.05.23.07.01,0,.02,0,.03.01.05.02.09.03.14.05.06.02.11.04.17.06.07.02.13.04.2.07,0,0,.01,0,.02,0,0,0,0,0,.01,0,0,0,.01,0,.02,0,0,0,0,0,0,0,.01,0,.03,0,.04.01h0c.28.1.55.21.83.33.28.12.55.23.82.36.28.12.55.25.82.39.26.13.51.26.76.4.27.16.54.32.8.5.26.18.52.36.77.56.49.38.95.81,1.31,1.32.18.25.35.51.5.78.07.14.13.29.19.44.06.15.11.31.15.47Z"/>
        <path class="cls-6" d="M18.63,70.07s.02,0,.03,0c-.01,0-.02,0-.03,0Z"/>
        <path class="cls-6" d="M18.63,69.5s0,0,0,0c0,0,0,0,0,0Z"/>
        <path class="cls-6" d="M18.18,66.12s0,0,0,0c0,0,0,0,0,0,0,0,0,0,0,0h0Z"/>
        <path class="cls-6" d="M10.79,59.62s-.02,0-.03.01c.01,0,.02,0,.03-.01Z"/>
        <path class="cls-6" d="M39.14,60.87s0,0,0,0c0,0,0,0,0,0,0,0,0,0,0,0Z"/>
        <path class="cls-6" d="M39.39,60.37s.02,0,.03.01c0,0-.02,0-.03-.01Z"/>
        <path class="cls-6" d="M39.36,60.35s.01,0,.02,0c0,0-.01,0-.02,0Z"/>
        <path class="cls-6" d="M33.44,67.45s.01,0,.02.01c0,0-.01,0-.02-.01Z"/>
        <path class="cls-6" d="M33.43,67.44s0,0,0,0c0,0,0,0,0,0Z"/>
        <path class="cls-6" d="M33.43,67.44s0,0,0,0c0,0,0,0,0,0,0,0,0,0,0,0Z"/>
        <path class="cls-6" d="M43.58,70.3s0,0,0,0c0,0,0,0-.01,0,0,0,0,0,0,0Z"/>
        <path class="cls-6" d="M43.58,70.29s0,0,0,0c0,0,0,0,0,0Z"/>
        <path class="cls-6" d="M43.61,70.29s-.01,0-.02,0c0,0,.01,0,.02,0Z"/>
        <path class="cls-6" d="M43.72,69.62s0,0,0,0c0,0,0,0,0,0,0,0,0,0,0,0,0,0,0,0,0,0Z"/>
        <path class="cls-6" d="M43.74,69.57s0,0,0,0c0,0,0,0,0,0,0,0,0,0,0,0,0,0,0,0,0,0Z"/>
        <path class="cls-6" d="M43.56,68.78s-.01,0-.02,0c0,0,.01,0,.02,0Z"/>
        <path class="cls-6" d="M18.25,66.18s0,0,0,0c0,0,0,0,0,0t0,0ZM60.26,67.49c-.02.19-.03.39-.05.58-.1,1.17-.2,2.34-.3,3.52,0,0,0,0,0,.01,0,.04,0,.08-.01.13,0,0,0,0,0,0,.03.17-.06.33-.13.48-.13.26-.26.51-.42.75-.31.48-.67.93-1.08,1.32-.21.2-.45.38-.69.55-.25.17-.5.34-.75.5-.48.31-.98.6-1.48.87-.52.28-1.07.5-1.61.73-1.08.46-2.15.93-3.26,1.32-.13.05-.27.09-.4.14-.55.19-1.1.37-1.66.55-.55.18-1.1.36-1.65.52-1.14.34-2.3.59-3.47.81-.29.05-.57.1-.86.15-.29.05-.58.08-.87.12-.6.07-1.2.15-1.8.24-1.17.17-2.34.33-3.52.46-.53.06-1.06.11-1.59.11-.02,0-.05,0-.07,0-.38,0-.75-.02-1.13-.05-.38.03-.75.05-1.13.05-.56,0-1.11-.05-1.66-.11-1.18-.13-2.35-.29-3.52-.46-.6-.09-1.2-.17-1.8-.24-.29-.03-.58-.07-.87-.12-.29-.05-.57-.1-.86-.15-1.17-.22-2.33-.47-3.47-.81-.55-.16-1.1-.34-1.65-.52-.55-.18-1.11-.36-1.66-.55-.13-.05-.27-.09-.4-.14-1.11-.39-2.18-.86-3.26-1.32-.54-.23-1.1-.45-1.61-.73-.5-.28-.99-.57-1.48-.87-.26-.16-.51-.33-.75-.5-.24-.17-.48-.35-.69-.55-.41-.39-.77-.84-1.08-1.32-.15-.24-.29-.49-.42-.75-.07-.15-.16-.31-.13-.48,0,0,0,0,0,0,0-.04,0-.08-.01-.13,0,0,0,0,0-.01-.15-1.79-.3-3.58-.46-5.38-.04-.48-.08-.96-.12-1.44-.03-.39-.07-.77-.1-1.16.1-.19.19-.37.31-.55.08-.12.16-.25.24-.37.1-.14.2-.28.3-.42.18-.25.38-.48.59-.71.2-.23.44-.43.67-.63.08-.07.17-.13.25-.19.04-.03.08-.06.12-.09.05-.04.1-.07.15-.11.19-.12.38-.25.58-.36.2-.11.4-.21.61-.31.2-.09.4-.17.61-.24,0,0,0,0,.01,0,.13-.05.27-.08.4-.11.15-.03.3-.06.45-.07.14-.01.29-.02.43-.02.15,0,.3.02.45.03.31.04.61.14.88.28.26.14.52.29.75.49.22.19.44.39.61.63.09.13.16.25.22.39.07.15.11.32.15.48.03.13.06.27.08.4.02.13.04.27.04.4,0,.14-.01.28-.03.42,0,.06-.02.12-.03.18,0,.02,0,.04-.01.06,0,.04-.02.08-.03.11-.06.26-.13.51-.2.76-.06.24-.12.48-.17.72-.04.2-.07.4-.09.6,0,.15,0,.31,0,.46.01.13.03.25.05.38.04.18.09.36.15.53.06.17.13.34.21.5.07.14.15.28.24.41.08.11.16.21.25.32.15.16.3.32.46.46.14.12.29.24.44.34.16.1.33.2.5.29.16.08.33.16.5.22.12.04.25.07.38.1.25.05.51.08.77.11,0,0,.02,0,.03,0,0,0,0,0,0,0,0,0,0,0,.01,0,0,0,0,0,.01,0,0,0,0,0,0,0,0,0,.02,0,.03,0,.18,0,.36.01.54,0,.25-.02.49-.05.73-.09.12-.02.23-.05.35-.09.07-.03.14-.05.21-.09.05-.02.09-.05.13-.08.03-.02.06-.05.1-.07.03-.03.07-.06.1-.1.02-.02.03-.04.04-.06.02-.04.05-.08.07-.12.02-.04.03-.07.05-.11.01-.04.03-.09.04-.13,0-.03,0-.06.01-.1,0-.06,0-.11,0-.17,0-.09-.02-.18-.04-.28-.02-.09-.04-.18-.07-.27-.03-.07-.05-.14-.08-.2-.02-.04-.05-.08-.07-.12-.02-.03-.05-.06-.07-.09-.04-.04-.08-.09-.12-.13-.05-.05-.11-.09-.17-.13-.11-.07-.21-.13-.33-.19-.15-.08-.31-.14-.47-.2-.09-.03-.19-.06-.29-.08-.06-.01-.12-.02-.19-.03-.04,0-.09,0-.13,0-.05,0-.1.01-.15.02-.15.04-.29.1-.44.12-.12.02-.24.02-.36-.02-.17-.06-.3-.19-.39-.34-.08-.13-.11-.29-.11-.44,0-.17.03-.34.09-.5.11-.27.28-.5.46-.72.36-.43.84-.74,1.33-1,.24-.12.49-.23.74-.32.27-.09.55-.17.83-.22.27-.05.54-.09.82-.11.15,0,.3,0,.45,0,.16,0,.32.02.47.03.32.03.64.09.95.16.29.07.58.16.87.27.55.21,1.07.51,1.55.85.46.33.89.71,1.27,1.13.18.2.34.42.48.65.16.27.29.55.41.84.24.58.4,1.19.6,1.78.09.25.19.5.31.74.12.22.24.44.38.65.15.21.3.41.47.6.14.15.28.29.42.42.12.1.24.2.37.29.14.09.28.17.43.25.1.05.2.1.3.14.11.05.22.08.33.12.13.04.26.08.39.11.13.04.26.06.39.09.3.06.61.1.91.14.29.04.59.06.88.08,1.18.07,2.37.1,3.56.13.6.02,1.2.03,1.8.04.6,0,1.2-.01,1.79-.04.19-.01.38-.03.57-.05.21-.02.43-.05.64-.07.41-.05.81-.13,1.21-.21.36-.08.72-.17,1.08-.27.33-.09.65-.2.97-.31.48-.17.95-.35,1.42-.54.45-.18.89-.38,1.32-.59.22-.11.43-.23.64-.35.24-.14.47-.28.7-.43.17-.11.34-.23.5-.35.17-.13.33-.26.49-.4.09-.08.18-.17.26-.25.09-.1.19-.19.28-.29.13-.15.26-.31.38-.47.12-.16.23-.32.35-.48.1-.15.19-.3.29-.46.09-.15.17-.31.25-.47.07-.14.13-.28.19-.42.06-.15.12-.3.17-.44.06-.16.11-.33.16-.49.05-.16.09-.33.13-.49.04-.21.08-.41.1-.62.02-.22.04-.44.06-.66.02-.44.03-.88.02-1.31-.01-.45-.03-.91-.06-1.36-.04-.61-.11-1.22-.17-1.83-.03-.31-.05-.63-.07-.95-.02-.31-.02-.63,0-.94.04-.61.22-1.21.49-1.76.07-.13.14-.26.22-.39.08-.12.17-.25.27-.36.09-.1.18-.2.28-.28.12-.1.25-.2.38-.29.27-.18.58-.32.88-.44.32-.12.65-.22.98-.3.31-.07.62-.13.94-.15.15,0,.3,0,.45.02.12.02.25.05.33.15.08.1.07.25,0,.35-.05.07-.13.11-.22.12-.08.02-.17.03-.25.05-.15.03-.29.07-.43.12-.12.04-.23.09-.34.14-.08.04-.16.09-.23.13-.06.04-.11.09-.17.13-.09.08-.18.17-.26.26-.12.14-.23.29-.34.44-.1.16-.2.32-.29.49-.11.22-.2.44-.28.66-.06.18-.11.36-.15.54-.03.17-.06.35-.07.52-.01.25-.01.49,0,.74.02.2.05.4.08.6.21.94.52,1.86.75,2.79.1.42.2.85.24,1.28.05.47.07.95.09,1.43.03.35.07.69.13,1.04.04.19.09.37.15.56.04.1.08.19.12.29.03.06.06.11.09.17.04.07.09.14.13.21.07.09.14.18.21.27.08.09.16.17.25.25.05.04.09.08.14.12.05.04.1.08.16.11.06.04.12.07.17.11.06.04.12.07.18.1.11.05.21.09.33.13.1.03.2.06.3.08.06.01.12.02.19.03.1.02.19.03.29.03.11,0,.22,0,.33,0,.08,0,.15-.01.23-.03Z"/>
        <path class="cls-6" d="M36.85,69c.02.11.02.22,0,.33-.01.17-.09.33-.18.46-.08.11-.17.22-.28.32-.22.2-.46.38-.73.51-.27.13-.57.2-.87.22-.1,0-.2.01-.3.01-.19,0-.38-.02-.56-.05-.17-.03-.33-.08-.49-.15-.18-.08-.35-.19-.52-.3,0,0-.02-.01-.03-.02-.05-.02-.09-.04-.14-.07-.17-.1-.32-.23-.47-.35-.07-.06-.15-.12-.22-.18-.08-.06-.17-.13-.23-.21-.06-.08-.1-.18-.11-.27-.3-.26-.57-.56-.77-.9-.15-.26-.25-.55-.31-.85-.04-.19-.07-.39-.06-.59,0-.15.04-.31.12-.45.09-.16.21-.28.37-.37.31-.17.69-.13,1.01-.02.3.11.57.26.84.42.26.15.52.3.78.44,0,0,0,0-.01,0,.04.02.08.04.12.06,0,0,.02,0,.03.01,0,0,0,0,0,0,.25.13.51.24.77.34.27.11.55.2.82.31.27.11.54.22.78.38.32.21.57.56.63.95Z"/>
        <path class="cls-6" d="M41.45,69.61c.02.1,0,.21-.04.3-.03.07-.07.14-.12.2-.04.05-.09.09-.14.13-.07.06-.16.11-.24.15-.29.14-.59.22-.91.24-.06,0-.11,0-.17,0-.19,0-.39-.02-.58-.05-.14-.02-.27-.06-.41-.12-.05-.02-.11-.05-.16-.08-.14-.08-.24-.21-.29-.36-.06-.18-.07-.37,0-.54.07-.16.19-.27.34-.36.24-.13.51-.15.77-.18.04,0,.07,0,.1,0,.06-.03.12-.05.18-.07.08-.03.16-.04.25-.05.2-.03.41,0,.6.06.15.04.29.1.42.17.12.07.22.17.3.29.05.07.07.17.08.25Z"/>
        <path class="cls-6" d="M43.74,69.56h0s0-.01,0-.02c0,0,0,0,0-.01,0,0,0,0,0,0,0,0,0,0,0,0,0,0,0,0,0,0,0,0,0,0,0,0,0,0-.02-.01-.03-.02-.01,0-.02-.01-.03-.02-.02-.01-.05-.02-.07-.03-.05-.01-.1-.03-.15-.04-.08.02-.16.05-.24.07-.05.02-.1.04-.16.06-.02.01-.05.03-.07.04-.01,0-.02.02-.03.03,0,0,0,0-.01.01,0,0,0,0,0,.01,0,0,0,0,0,0,0,0,0,0,0,0,0,0,0,0,0,.01,0,0,0,0,0,0,0,0,0,0,0,0,0,0,0,.01,0,.02,0,0,0,0,0,0,0,0,.01.01.02.02,0,0,0,0,0,0,0,0,.02,0,.03.01.02,0,.04.02.05.02.01,0,.03,0,.04.01.03,0,.05,0,.08,0,.06,0,.12,0,.17,0,.05,0,.1-.01.15-.02,0,0,0,0,.01,0,.04,0,.08-.02.12-.03.02,0,.04-.02.06-.02,0,0,.01,0,.02-.01,0,0,0,0-.01,0,0,0,0,0,0,0,0,0,0,0,0,0,0,0,.01,0,.02-.01,0,0,.01-.01.02-.02,0,0,0,0,0-.01,0,0,.01-.02.02-.03,0,0,0,0,0-.01,0,0,0-.01,0-.02,0,0,0,0,0-.01ZM44.29,69.44c.03.17,0,.33-.1.48-.13.22-.37.32-.61.37,0,0,0,0,0,0-.12.02-.24.04-.37.04-.17,0-.33-.03-.48-.1-.19-.08-.33-.25-.38-.44-.05-.17,0-.36.1-.5.13-.18.34-.29.55-.36.16-.06.33-.1.49-.14.03,0,.06-.01.1-.02.03,0,.05,0,.08-.01.15-.02.3.09.32.24.02.01.05.03.07.04.13.09.22.25.25.4Z"/>
        <path class="cls-6" d="M50.35,60.9c0,.32-.03.63-.09.94-.06.31-.16.6-.27.89-.03.07-.06.13-.08.2-.01.03-.03.06-.05.1-.02.04-.04.09-.06.13-.08.13-.15.27-.25.4-.09.12-.19.25-.3.36-.05.05-.1.11-.15.16-.05.05-.11.1-.17.15-.12.11-.26.21-.39.31-.11.09-.23.17-.35.24-.25.17-.51.32-.77.47-.16.08-.31.16-.47.24-.05.03-.11.05-.16.07-.08.03-.15.07-.23.1-.15.06-.3.12-.45.17-.17.06-.33.1-.5.15-.13.04-.26.07-.39.1-.15.03-.31.07-.46.09-.16.03-.32.05-.48.08-.16.02-.33.04-.49.05-.16.02-.33.02-.49.03-.06,0-.13,0-.2,0-.09,0-.17,0-.26,0-.06,0-.12,0-.18,0-.09,0-.19,0-.28-.02-.14-.02-.28-.03-.42-.05-.16-.03-.32-.05-.48-.09-.16-.04-.32-.07-.48-.12-.58-.16-1.16-.38-1.69-.66-.28-.15-.56-.31-.82-.49-.25-.18-.51-.36-.74-.56,0,0,.02.02.03.02-.15-.13-.31-.26-.45-.41-.14-.15-.28-.29-.4-.46-.1-.13-.19-.26-.27-.39-.12-.21-.22-.43-.28-.67-.01-.05-.02-.11-.04-.16,0-.02,0-.04-.01-.06,0,0,0,0,0,0-.14-.22-.25-.46-.33-.7-.08-.25-.12-.52-.08-.77.02-.15.06-.29.13-.42.07-.15.17-.27.29-.38.11-.1.25-.18.4-.24.07-.03.14-.05.21-.06.14-.03.29-.03.43-.02.17.02.33.06.49.12.17.05.33.12.49.18.31.12.61.25.9.39,0,0,0,0,0,0,.03.01.06.03.09.04.01,0,.02.01.03.02,0,0,0,0,0,0,.34.17.66.37.98.56.32.19.63.37.96.54.17.08.35.15.52.22.19.06.38.12.57.16.15.03.29.05.44.06.1,0,.19,0,.29,0,.12,0,.24-.02.36-.05.08-.02.15-.04.23-.06.07-.03.15-.06.22-.09.07-.04.13-.07.2-.11.03-.02.06-.04.09-.06.06-.04.12-.09.18-.14.05-.05.11-.1.16-.16.04-.05.09-.11.13-.17.04-.06.07-.12.1-.18.03-.07.06-.14.09-.21.03-.11.06-.22.09-.34.05-.28.08-.55.1-.83.02-.3.04-.6.09-.89.05-.3.12-.6.24-.89.13-.31.33-.6.58-.83.13-.12.27-.21.43-.28.16-.07.34-.11.51-.12.2-.01.39.01.59.05.15.03.29.07.43.12.15.06.3.13.44.21.06.03.11.07.17.1.07.04.13.09.19.14.12.1.24.21.35.32.11.12.21.24.31.38.09.13.17.27.25.41.15.27.25.56.35.84.11.3.18.62.24.93.06.29.09.59.09.89Z"/>
        <path class="cls-6" d="M60.98,58.95c0,.07-.01.14-.02.2-.01.13-.02.26-.03.39-.02.24-.04.47-.06.71-.08.92-.16,1.84-.23,2.75-.02.21-.04.41-.05.62-.04-.02-.08-.04-.11-.06-.07-.04-.14-.08-.2-.12-.25-.16-.47-.37-.67-.6-.21-.23-.41-.47-.59-.72-.18-.26-.3-.55-.38-.86-.07-.3-.1-.62-.07-.93.01-.16.04-.31.1-.46.06-.17.15-.32.27-.45.06-.07.13-.13.2-.19.11-.09.23-.18.36-.24.06-.03.13-.07.2-.09.11-.04.21-.07.33-.08.15-.02.31-.01.47,0,.15.02.3.06.44.11.02,0,.04.01.06.02h0Z"/>
        <path class="cls-4" d="M25.2,52.31s0-.02,0-.03c0,.01,0,.02,0,.03,0,0,0,0,0,0Z"/>
        <path class="cls-4" d="M57.85,39.57s0,0,0,0c0,0,0,0,0,0,0,0,0,0,0,0Z"/>
        <path class="cls-4" d="M13.48,27.24s0,0,0,0c0,0,0,0,0,0Z"/>
        <path class="cls-4" d="M63.59,28.16c-.06.74-.13,1.48-.19,2.22-.08.94-.16,1.89-.24,2.83-.04.13-.08.25-.12.38-.19.57-.42,1.13-.66,1.68-.2.48-.43.96-.65,1.43-.11.24-.22.47-.35.7-.13.24-.27.46-.42.68-.15.23-.32.46-.55.61-.06.03-.12.06-.19.06-.08.01-.15,0-.22-.03-.13-.05-.22-.2-.26-.33-.07-.21-.1-.42-.14-.64-.06-.28-.1-.56-.16-.84-.02-.11-.05-.23-.08-.34,0,0,0,0,0,0-.07.09-.13.18-.2.27,0,0,0,0,0,0-.26.38-.49.78-.7,1.19-.24.49-.42,1.01-.6,1.52,0,0,0,0,0,0,0,0,0,.01,0,.02-.22.64-.44,1.27-.62,1.92-.18.65-.34,1.32-.48,1.98-.23,1.18-.4,2.38-.66,3.55-.06.27-.13.54-.21.81-.04.13-.08.27-.12.4-.05.14-.1.28-.16.42-.06.13-.15.28-.3.32-.15.04-.3-.04-.37-.18-.05-.1-.05-.21-.06-.31,0-.11-.01-.22-.02-.33-.04-1.1-.09-2.2-.12-3.31-.02-.55-.02-1.1-.03-1.65,0-.58,0-1.16-.04-1.74-.03-.42-.08-.83-.16-1.25-.05-.25-.12-.5-.19-.75-.05-.13-.1-.26-.16-.39-.04-.08-.08-.15-.13-.23-.03-.05-.06-.09-.1-.13-.03-.03-.06-.06-.09-.1-.02-.02-.04-.03-.06-.05-.02-.01-.04-.02-.06-.03-.02,0-.03-.01-.05-.02-.01,0-.03,0-.04,0-.01,0-.02,0-.03,0-.01,0-.03,0-.04,0-.01,0-.03,0-.04.01-.01,0-.03.01-.04.02-.01,0-.03.02-.04.03-.02.01-.03.02-.05.04-.02.02-.03.03-.05.05-.05.06-.1.13-.15.2-.32.51-.6,1.04-.88,1.57-.16.31-.3.62-.45.94-.05.1-.1.2-.15.29-.05.09-.13.17-.23.21-.08.04-.2.03-.28-.02-.04-.02-.07-.05-.1-.08-.03-.04-.05-.08-.07-.12-.03-.08-.05-.17-.06-.25-.02-.09-.03-.17-.04-.26-.03-.17-.05-.34-.08-.5-.06-.38-.12-.76-.19-1.14-.06-.3-.13-.59-.23-.88-.03-.09-.07-.18-.11-.27-.01-.03-.03-.05-.04-.07-.08.13-.15.26-.21.39,0,0,0,0,0,0-.52,1.05-.99,2.13-1.41,3.22-.46,1.17-.93,2.34-1.35,3.52-.07.19-.14.38-.2.58-.08.23-.16.46-.24.7-.04.11-.09.22-.13.33-.06.13-.13.27-.25.34-.1.06-.23.08-.34.04-.14-.06-.21-.18-.27-.31-.04-.09-.07-.2-.1-.29-.03-.11-.06-.23-.09-.34-.12-.46-.23-.93-.34-1.4-.11-.5-.2-1-.37-1.48-.05-.12-.09-.24-.15-.35-.06-.11-.12-.22-.18-.32-.05-.07-.11-.14-.16-.21-.04-.04-.08-.08-.12-.12-.06-.05-.12-.1-.18-.14-.07-.04-.13-.08-.2-.12-.07-.03-.14-.06-.21-.09-.05-.02-.11-.03-.16-.04-.07-.01-.15-.02-.22-.03-.06,0-.11,0-.17,0-.08,0-.16.02-.24.03-.08.02-.16.04-.24.06-.07.02-.13.05-.2.08-.04.02-.07.04-.11.06-.03.02-.06.05-.09.07-.03.03-.05.05-.08.08-.02.03-.05.06-.07.09-.05.08-.09.16-.13.24-.29.6-.53,1.22-.75,1.85-.13.36-.24.73-.38,1.09-.07.19-.15.37-.24.55-.07.12-.14.25-.25.34-.09.07-.21.11-.33.08-.05-.01-.09-.03-.14-.06-.05-.03-.08-.07-.12-.12-.04-.05-.07-.11-.09-.17-.02-.05-.04-.11-.06-.16-.06-.18-.1-.36-.15-.54-.11-.4-.22-.8-.35-1.2-.08-.22-.17-.45-.27-.66-.05-.1-.1-.19-.16-.28-.06-.08-.12-.16-.18-.23-.04-.04-.08-.09-.13-.13-.02-.02-.04-.03-.07-.05-.02-.01-.04-.03-.06-.04-.02,0-.03-.02-.05-.02-.01,0-.03,0-.04-.01-.01,0-.02,0-.04,0-.01,0-.02,0-.03,0-.01,0-.02,0-.03,0-.01,0-.03,0-.04.01-.03.02-.07.04-.1.06.01,0,.02-.01.03-.02-.01.01-.03.02-.04.04-.02.02-.03.03-.05.05-.05.05-.09.11-.13.17-.13.22-.25.44-.37.66-.1.21-.2.43-.29.64-.09.23-.17.47-.25.7-.15.44-.3.89-.46,1.33-.07.2-.16.4-.24.59-.09.19-.17.39-.28.57-.05.09-.11.18-.16.26-.03.05-.08.1-.12.14-.04.05-.11.1-.17.12-.1.04-.22.05-.31-.01-.11-.06-.16-.17-.2-.29-.02-.07-.03-.14-.05-.2-.02-.09-.04-.18-.07-.27-.05-.19-.11-.38-.18-.57-.12-.33-.25-.66-.41-.98-.07-.13-.14-.26-.22-.38-.03-.05-.07-.09-.11-.13-.02-.02-.04-.04-.06-.06,0,0,.02.02.03.02-.03-.03-.06-.06-.1-.08-.02,0-.03-.02-.05-.03-.01,0-.02,0-.03-.01-.01,0-.02,0-.03,0-.01,0-.02,0-.03,0-.01,0-.03,0-.04,0-.02,0-.04,0-.06,0-.03,0-.06.02-.1.03-.11.04-.21.09-.32.14-.12.06-.25.11-.37.17-.12.05-.24.1-.36.15-.12.05-.26.09-.39.11-.18.02-.36.03-.53-.02-.17-.04-.34-.1-.48-.21-.08-.07-.15-.14-.22-.22-.04-.05-.08-.1-.12-.16-.07-.1-.13-.21-.2-.31-.29-.48-.53-.98-.79-1.48-.25-.48-.51-.96-.8-1.41-.07-.09-.13-.19-.21-.28-.04-.04-.07-.08-.11-.11,0,0,.02.02.03.02-.01-.01-.03-.02-.04-.03,0,0-.01,0-.02-.01,0,0,0,0-.01,0,0,0,0,0,0,0,0,0,0,0-.01,0,0,0-.02.01-.03.02-.01.01-.02.02-.04.03-.01.02-.03.03-.04.05-.02.02-.03.04-.05.07-.03.06-.07.12-.1.17-.21.46-.39.93-.56,1.41-.19.56-.36,1.12-.51,1.69-.15.58-.28,1.17-.4,1.76-.1.51-.19,1.03-.27,1.54-.08.52-.12,1.05-.16,1.58-.02.33-.03.65-.04.98,0,.33-.01.66-.01,1,0,.65.01,1.31.02,1.96.02,1.25.03,2.49.05,3.74,0,.26,0,.52,0,.79,0,.14,0,.27,0,.41,0,.07,0,.13,0,.2,0,.08-.02.14-.06.21-.05.09-.15.14-.25.14-.03,0-.05,0-.07-.01-.06-.02-.13-.05-.16-.1-.04-.06-.08-.13-.1-.2-.05-.13-.08-.27-.12-.41-.07-.28-.12-.57-.18-.86-.12-.59-.23-1.18-.33-1.78-.11-.63-.21-1.25-.28-1.89-.07-.64-.11-1.29-.16-1.93-.05-.74-.09-1.48-.14-2.22-.1-1.34-.27-2.67-.52-3.99-.08-.38-.17-.75-.26-1.12-.1-.37-.22-.73-.34-1.1-.25-.68-.54-1.35-.86-2.01-.11-.21-.22-.42-.35-.62-.07-.1-.14-.19-.22-.29-.1-.11-.21-.22-.32-.32-.12-.1-.24-.2-.37-.29-.1-.06-.19-.12-.29-.17-.09-.04-.18-.08-.27-.12-.07-.02-.15-.05-.22-.06-.02,0-.04,0-.06,0-.02,0-.04,0-.06,0,.01,0,.03,0,.04,0-.05,0-.11,0-.16.02.01,0,.02,0,.04,0-.02,0-.03.01-.05.02-.01,0-.03.01-.04.02-.02,0-.03.02-.05.03-.02.01-.03.02-.05.04-.03.03-.07.06-.1.1-.06.07-.11.14-.16.21-.23.35-.43.72-.62,1.09-.14.3-.27.61-.38.93-.17.5-.3,1.02-.41,1.53-.05.25-.09.49-.13.74-.03.25-.06.49-.07.74-.07,1.2-.06,2.41-.09,3.61,0,.31-.01.62-.03.93,0,.15-.02.29-.03.44,0,.08-.03.17-.04.25-.02.1-.07.22-.14.29-.05.05-.11.1-.19.12-.07.02-.15.02-.22,0-.19-.05-.31-.23-.39-.39-.07-.13-.1-.27-.14-.41-.03-.13-.06-.26-.08-.39-.06-.33-.11-.65-.16-.98-.06-.37-.11-.75-.18-1.12-.06-.35-.12-.69-.19-1.04-.06-.34-.12-.68-.19-1.02-.05-.24-.11-.49-.17-.73-.06-.23-.13-.47-.21-.69-.17-.47-.36-.93-.58-1.37-.15-.29-.31-.57-.49-.85-.09-.13-.18-.25-.29-.37-.05-.05-.09-.1-.14-.14-.03-.02-.06-.04-.09-.07-.02-.01-.05-.03-.07-.04-.01,0-.03-.01-.04-.02-.01,0-.02,0-.04,0,0,0-.01,0-.02,0h-.01s-.01,0-.02,0c0,0-.01,0-.02,0,0,0-.02,0-.02,0-.02,0-.03.02-.05.03-.02.01-.03.02-.05.04-.02.02-.03.03-.05.05-.01.02-.03.03-.04.05-.02.04-.05.08-.07.12-.05.1-.09.2-.13.3-.09.27-.16.54-.22.81-.05.26-.09.53-.16.79-.03.13-.07.25-.12.37-.05.14-.14.29-.26.38-.06.05-.13.1-.21.12-.08.02-.17.04-.25.02-.08-.02-.17-.04-.24-.08-.07-.04-.14-.09-.2-.15-.09-.08-.16-.18-.24-.27-.09-.11-.17-.23-.26-.35-.63-.92-1.09-1.94-1.64-2.91-.23-.41-.48-.82-.71-1.23-.11-.2-.22-.39-.33-.59-.05-.09-.1-.19-.15-.29-.04.22-.06.45-.09.67-.03.25-.05.5-.06.74-.08,1.26-.07,2.52,0,3.78.04.6.1,1.19.15,1.79.02.3.03.6,0,.9,0,.07-.03.14-.04.21-.01.06-.03.11-.06.16-.05.09-.1.17-.19.23-.07.05-.16.09-.25.09-.04,0-.09,0-.13-.01-.03,0-.06-.02-.09-.03-.03-.01-.06-.03-.09-.05-.1-.05-.18-.15-.25-.24-.07-.09-.12-.2-.17-.31-.06-.13-.11-.28-.15-.42-.09-.28-.17-.57-.24-.86-.14-.61-.26-1.22-.38-1.83-.09-.45-.17-.91-.24-1.36-.07-.45-.13-.9-.2-1.35-.14-.9-.31-1.8-.49-2.69-.12-.56-.24-1.11-.38-1.66-.15-.58-.31-1.15-.49-1.73-.16-.54-.35-1.08-.52-1.62-.04-.12-.07-.24-.11-.37-.02-.06-.03-.12-.05-.19,0-.03-.02-.07-.03-.11,0-.03-.02-.06-.03-.08-.03-.08-.05-.17-.06-.26-.02-.15-.04-.29-.04-.44-.02.05-.04.1-.06.15,0,.01,0,.03-.01.04-.02.07-.06.13-.13.17-.01,0-.03.01-.04.02-.03-.35-.06-.7-.09-1.05,0-.01,0-.02.01-.03.11-.24.23-.49.35-.72.26-.48.54-.95.87-1.38.35-.46.77-.89,1.24-1.24.25-.18.51-.34.78-.49.27-.15.54-.29.82-.42.25-.12.51-.22.77-.31.27-.1.55-.19.84-.25.14-.03.28-.05.43-.07.15-.01.3-.02.45-.01.29,0,.57.04.86.07.6.07,1.19.18,1.78.3.6.12,1.2.24,1.8.37,0,0,.02,0,.03,0,.01,0,.02,0,.04,0,.04,0,.07.01.11.02.01,0,.02,0,.03,0,.01,0,.03,0,.04,0-.01,0-.02,0-.04,0,.6.12,1.2.24,1.8.38.62.14,1.24.31,1.85.49,1.21.35,2.4.75,3.63,1.02.11.02.23.05.34.07.31.06.62.12.93.17.33.06.66.1,1,.15.6.09,1.2.16,1.8.22,1.31.15,2.62.28,3.93.4.53.05,1.06.09,1.6.13,0,0-.01,0-.02,0,0,0,.01,0,.02,0,0,0,.01,0,.02,0,.64.04,1.28.07,1.93.1.63.02,1.26.03,1.89.02,1.26,0,2.51-.07,3.77-.15.64-.05,1.27-.09,1.91-.15.67-.06,1.33-.13,2-.2,1.28-.13,2.56-.29,3.84-.44,1.3-.16,2.59-.32,3.89-.48,1.32-.16,2.64-.31,3.96-.46,1.31-.15,2.61-.31,3.92-.44.65-.07,1.29-.11,1.94-.14.3-.01.61-.01.91,0,.26.01.52.03.78.07.17.03.34.07.51.12.18.05.35.13.51.22.06.03.11.07.17.11Z"/>
        <path class="cls-6" d="M43.13,70.07c-.63-.22-.27-.86.27-.88.23-.04.59.24.32.44.07.33-.3.54-.59.44Z"/>
      </g>
      <g>
        <path class="cls-7" d="M36.8,40.33s0,0,0,0c0,0,0,0,0,0,0,0,0,0,0,0Z"/>
        <path class="cls-7" d="M32.06,40.04s0,0,0,0c0,0,0,0,0,0,0,0,0,0,0,0Z"/>
        <path class="cls-7" d="M54.51,34.33s0,0,0,0c0,0,0,0,0,0,0,0,0,0,0,0Z"/>
        <path class="cls-7" d="M56,34.12s0,0,0,0c0,0,0,0,0,0,0,0,0,0,.01,0Z"/>
        <path class="cls-7" d="M63.83,24.73c.06.8.01,1.6-.11,2.35-.02.05-.04.11-.06.19-.01.14-.02.27-.04.41-.03.38-.06.77-.1,1.15-.04.1-.08.2-.13.3-.11.25-.24.5-.37.74-.12.23-.26.44-.41.66-.32.46-.66.91-1.06,1.3-.43.43-.91.81-1.42,1.14-.48.3-.98.58-1.49.82-.5.24-1.01.46-1.54.63-.23.07-.46.13-.7.19-.3.07-.61.13-.92.17-.3.05-.6.08-.9.1-.32.03-.65.03-.97.05-.19.01-.39.03-.58.07-.19.04-.37.1-.56.16-.2.07-.39.15-.58.24-.28.14-.55.3-.81.47-.15.11-.31.22-.46.33-.16.12-.31.25-.46.38-.46.41-.9.84-1.36,1.25-.23.2-.48.39-.74.55-.26.16-.54.3-.82.43-.58.27-1.18.48-1.79.67-.6.19-1.2.35-1.81.49-1.28.29-2.57.47-3.87.62-.62.07-1.24.14-1.86.19-.63.06-1.27.12-1.9.13-.2,0-.4,0-.6,0-.1,0-.2,0-.29,0-.28,0-.55-.02-.83-.04-.55-.03-1.1-.09-1.64-.18-.52-.08-1.04-.19-1.56-.31-.52-.12-1.04-.26-1.56-.37-.24-.05-.48-.09-.71-.13-.25-.04-.5-.06-.75-.08-.64-.04-1.29-.05-1.93-.03-.61.01-1.23.04-1.84,0-.59-.03-1.18-.16-1.74-.38-.28-.11-.55-.24-.81-.4-.24-.14-.48-.3-.71-.46-.3-.21-.6-.43-.9-.64-.24-.16-.48-.31-.74-.44-.13-.06-.25-.11-.38-.16-.1-.03-.2-.06-.31-.08-.19-.03-.37-.05-.56-.07-.24-.01-.48,0-.72,0-.6.05-1.19.16-1.78.28-.59.11-1.18.25-1.78.34-.31.05-.63.09-.95.11-.16,0-.31.02-.47.01-.16,0-.33-.02-.49-.04-.27-.03-.54-.1-.81-.18-.28-.09-.56-.2-.82-.33-.61-.31-1.15-.74-1.65-1.19-.26-.23-.5-.48-.74-.73-.22-.22-.44-.43-.67-.64-.19-.16-.38-.31-.58-.45-.17-.11-.34-.21-.53-.31-.55-.27-1.15-.46-1.67-.8-.13-.09-.26-.18-.37-.28-.13-.11-.24-.23-.34-.36-.04-.04-.07-.09-.11-.13-.06-.69-.12-1.39-.18-2.08-.04-.48-.08-.97-.12-1.45.01-.03.02-.06.03-.08,0-.01,0-.02.01-.04.02-.79.32-1.99.86-2.66.1-1.02.44-2.01,1.07-2.83.67-.97,1.63-1.53,2.69-1.86-.15-1.45.9-3.07,1.95-3.98,1.81-1.75,4.38-2.27,6.82-2.33.47-.02.93-.04,1.4-.06-.12-1.76.78-3.67,1.89-4.94,1.6-1.84,3.83-2.91,5.75-4.33,2.14-1.48,4.2-3.17,5.47-5.48.11-.21.33-.46.57-.31.24.21.23.62.36.88.36.96.83,1.95,1.52,2.71,2.11,2.25,5.15,2.62,7.43,4.45,3.21-.24,6.61,1.91,7.78,4.9,3.8.14,8.04,1.45,9.59,5.15,2.15.19,3.55,1.51,4.32,3.26.28.5.49,1.05.64,1.61.09.31.16.64.22.94.05.26.07.51.06.77Z"/>
        <path class="cls-7" d="M4.55,26.2c-.61-.43-.14-1.81.11-2.38.86-1.73,2.71-2.69,4.57-2.91.36-.05.44.51.08.56-2.18.21-4.66,1.86-4.45,4.29.05.2-.03.58-.31.45Z"/>
      </g>
      <g>
        <path class="cls-8" d="M42.63,15.86c-.35-.37.32-.74.46-1.08,1.86-2.35-1.1-4.36-2.25-6.2-.4-.51,0-1.11.42-.41,1.06,1.78,3.3,3.18,2.96,5.53,0,.4-1.14,2.58-1.58,2.16Z"/>
        <path class="cls-8" d="M42.26,22.41c-1.22-.06-2.42-.36-3.56-.78-1.43-.65-2.74-1.54-4.26-1.98-.15-.05-.21-.24-.15-.37.13-.49,1.67.41,2.03.5,2.42,1.33,4.36,2.26,7.22,2.08,2.59-.16,5.53-2.05,5.59-4.85.03-.67-.08-1.33-.21-1.98-.04-.55-.54-1.32-.23-1.8.1-.13.28-.05.35.07.58,1.79,1,3.84.22,5.64-1.32,2.46-4.27,3.74-7,3.49Z"/>
        <path class="cls-8" d="M31.93,19.04c-2.67-.72-5.42-.37-8.14-.31-1.66.01-3.43.02-4.93-.78-.88-.48-1.21-1.51-1.43-2.42-.05-.39.56-.43.57-.03.17.62.37,1.29.83,1.75,1.38.97,3.19.9,4.8.92,2.4-.01,4.82-.36,7.2.07.43.1.89.12,1.28.32.28.21.16.5-.19.48Z"/>
        <path class="cls-8" d="M25.91,27.26c-1.18-.03-2.25-.55-3.34-.96-1.21-.41-2.4-.87-3.66-1.07-2.6-.23-5.34.32-7.8-.82-1.26-.59-2.77-1.41-3.08-2.89-.08-.47.39-.71.54-.17.06.56.45,1.01.85,1.38,2.39,2.11,5.71,1.94,8.69,1.87,1.23.03,2.4.42,3.56.8,1.16.34,2.2.89,3.37,1.19.34.11.76.02,1.07.2.18.16.04.5-.2.48Z"/>
        <path class="cls-8" d="M50.5,24.53c-.02-.15.09-.3.24-.32.48-.05.97-.12,1.45-.19.88-.13,1.77-.25,2.61-.55,1.7-.61,4.21-2.52,3.36-4.57-.34-.63.29-.89.52-.22,1.18,2.88-2.74,5.42-5.21,5.72-.61.1-1.22.19-1.83.27-.35-.02-1,.33-1.14-.14Z"/>
        <path class="cls-8" d="M10.37,31.15c-2.44-.1-4.97-1.5-5.77-3.91-.08-.41-.58-1.14-.1-1.43.48.04.5,1.19.76,1.56.7,1.64,2.34,2.72,4.05,3.06,1.39.3,2.81.07,4.21,0,.59-.03,1.18-.03,1.78-.03.26.02.7-.09.71.29.02.51-1.26.19-1.63.28-1.34,0-2.67.24-4.02.17Z"/>
        <path class="cls-8" d="M40.91,35.01c-1.22-.11-2.4-.48-3.48-1.04-.34-.25-1.38-.51-1.23-1.02.28-.39,1.65.71,2.11.81,2.68,1.19,5.69.69,8.48.22,2.03-.43,4-1.21,5.76-2.32,1.2-.79,2.17-1.88,3.36-2.68,1.89-1.24,4.28-1.72,5.86-3.4.32-.35.52-.78.68-1.22.05-.14.23-.21.37-.15.54.28-.5,1.61-.77,1.9-2.11,2.05-5.34,2.44-7.39,4.59-3.66,3.36-8.9,4.54-13.76,4.31Z"/>
        <path class="cls-8" d="M34.43,39.43c-.83-.28-.32-1.43.45-1.17.35-.08.67.27.65.61-.03.5-.68.75-1.1.56Z"/>
        <path class="cls-8" d="M37.14,39.56c-.31,0-.79-.1-.76-.49.14-.52,1.23-.7,1.69-.59.31.07.45.46.25.71-.27.35-.77.37-1.19.37Z"/>
        <path class="cls-8" d="M23.77,36.36c.69,1-.65,1.61-1.43,1.03-.92-.41-.91-1.44.22-1.41.41-.25.97.02,1.21.38Z"/>
        <path class="cls-8" d="M25.27,35.32c.92.41.41,1.52-.52,1.16-.67-.11-.9-.98-.12-1.09.17-.18.43-.16.64-.07Z"/>
        <path class="cls-8" d="M31.9,37.34c1.26-.02,1.94,2.09.34,2.04-.6-.03-1.2.08-1.8-.03-.83-.13-1.57-1.07-.63-1.64.27-.23.62-.27.96-.26.37-.1.75-.16,1.13-.1Z"/>
        <path class="cls-8" d="M45.62,36.39c2.16-1.14,2.12,2.57-.83,2.14-.35-.07-.72-.29-.77-.66-.03-.24.14-.59.41-.56.21-.46.77-.66,1.19-.91Z"/>
        <path class="cls-8" d="M60.1,31.48c-.44.05-.79-.62-.27-.75.08-.34.53-.44.79-.25.54.39.03,1.04-.52,1.01Z"/>
        <path class="cls-8" d="M60.27,31c-.09-.08.04-.24.13-.15.09.09-.03.25-.13.15Z"/>
        <path class="cls-8" d="M60.98,29.42c-.62-.45.49-1.19.94-.82.51.52-.48,1.05-.94.82Z"/>
        <path class="cls-8" d="M8.71,34.48c-.44-.09-1.02-.68-.69-1.13.24-.76,1.11-.1,1.3.37.28.44-.11.95-.61.76Z"/>
        <path class="cls-8" d="M30.46,33.49c-.9-.15-1.78-.34-2.66-.55-.84-.19-1.61-.62-2.45-.81-1.01-.2-2.08-.19-3.07-.44-.13-.07-.21-.24-.07-.35.4-.31,1.1,0,1.58.01.9.11,1.83.16,2.67.53,1.37.56,2.81.84,4.25,1.06.67.03,1.32-.13,1.99-.16.36,0,.37.57,0,.57-.75.04-1.49.23-2.24.13Z"/>
        <path class="cls-8" d="M19.17,33.33c-.84-.51-.18-1.22.58-.94,1.05.23.84,1.14-.23.89-.09.09-.24.12-.35.05Z"/>
        <path class="cls-8" d="M18.14,34.21c-.52-.04-.66-.95-.07-.99.11,0,.28.05.3.18.53.2.32.89-.22.81Z"/>
        <path class="cls-8" d="M11.6,35.55c.3.51-.47.84-.85.61-.19-.15-.48-.19-.57-.44-.13-.32.23-.39.45-.27.23-.3.77-.18.97.1Z"/>
        <path class="cls-8" d="M58.39,31c.49.14.81.84.36,1.2-.22.89-1.41.9-2.15.87-1.16-.04-1.33-1.31-.31-1.78.65-.24,1.42-.53,2.11-.29Z"/>
      </g>
      <g>
        <path class="cls-1" d="M39.29,12.14c-.1-1.51.35-3.02-.84-4.24-1.57-1.73-2.98-1.82-5.16-1.39-.7.14-1.43.18-2.09.44-.65.31-.33,1.22.28,1.33.42,1.15,2.9.53,4.26,2.1.36.46.5,1.05.69,1.59.13.56.22,1.23.81,1.51.85.46,1.77-.62,2.04-1.35ZM41.71,8.63c.98,1.53-.05,1.99-.16,3.59-.21,1.4-.58,2.76-1.97,3.42-.75.45-.94,1.37-1.45,2.03-.75,1.13-2.25,1.54-3.55,1.5-.51.06-.54-.52-.34-.85.27-.5.96-.74.92-1.41-.01-.16-.02-.33-.03-.49-.04-.71-.06-1.43-.24-2.11-.02-.06-.05-.12-.08-.17-.04-.07-.09-.13-.15-.19-.19-.18-.44-.23-.71-.21-.13.01-.26.04-.38.08-.06.02-.11.04-.17.06-.05.02-.1.05-.14.07-.05.02-.09.05-.13.08-.05.02-.11.04-.17.05-.42.08-1.02-.07-1.54-.29-.37-.16-.7-.36-.89-.55-.24-.25-.44-.54-.62-.85-.43-.74-.76-1.56-1.44-2.1-1.28-.83-3.19.64-4.21-.83-.65-.64-.24-1.88-1.06-1.31-.41.31-.8,0-.4-.41.04-.03.09-.06.14-.09-.05-.31.48-.58.7-.75,1.43-.98,3.2-1.23,4.9-1.22,1.36-.31,2.75.6,4.06-.02.53-.28.85-.82,1.39-1.08.16-.1.48-.06.52.14.01.01.03.03.04.04.24-.22.47.07.64.23.36.29.72.6,1.12.84.07.04.14.08.2.11.07.04.15.07.23.1.34.12.7.16,1.04.26.49.13.95.33,1.39.56.17.09.33.18.49.27.04.03.09.05.13.08.76.31,1.58.62,1.92,1.43Z"/>
        <path class="cls-1" d="M31.05,5.23c0-.15.13-.28.28-.28s.28.13.28.28-.13.28-.28.28-.28-.13-.28-.28Z"/>
        <path class="cls-1" d="M31.82,5.13c0-.15.13-.28.28-.28s.28.13.28.28-.13.28-.28.28-.28-.13-.28-.28Z"/>
        <path class="cls-1" d="M32.88,4.16c0-.15.13-.28.28-.28s.28.13.28.28-.13.28-.28.28-.28-.13-.28-.28Z"/>
        <path class="cls-1" d="M33.26,3.84c0-.15.13-.28.28-.28s.28.13.28.28-.13.28-.28.28-.28-.13-.28-.28Z"/>
        <path class="cls-1" d="M32.94,5.28c0-.15.13-.28.28-.28s.28.13.28.28-.13.28-.28.28-.28-.13-.28-.28Z"/>
        <path class="cls-1" d="M33.06,5.23s0-.02,0,0c0,0,0,.01,0,0Z"/>
        <path class="cls-1" d="M33.74,4.67c0-.15.13-.28.28-.28s.28.13.28.28-.13.28-.28.28-.28-.13-.28-.28Z"/>
        <path class="cls-1" d="M34.1,4.61c0-.15.13-.28.28-.28s.28.13.28.28-.13.28-.28.28-.28-.13-.28-.28Z"/>
        <path class="cls-1" d="M34.43,4.79c0-.15.13-.28.28-.28s.28.13.28.28-.13.28-.28.28-.28-.13-.28-.28Z"/>
        <path class="cls-1" d="M34.66,4.95c0-.15.13-.28.28-.28s.28.13.28.28-.13.28-.28.28-.28-.13-.28-.28Z"/>
        <path class="cls-1" d="M32.34,5.53c0-.15.13-.28.28-.28s.28.13.28.28-.13.28-.28.28-.28-.13-.28-.28Z"/>
        <path class="cls-1" d="M32.35,5.76c0-.15.13-.28.28-.28s.28.13.28.28-.13.28-.28.28-.28-.13-.28-.28Z"/>
        <path class="cls-1" d="M33.23,4.85c0-.15.13-.28.28-.28s.28.13.28.28-.13.28-.28.28-.28-.13-.28-.28Z"/>
        <path class="cls-1" d="M33.18,5.22c-.25-.37.46-.94.79-1,.38-.05.75.17,1,.44.26.27-.14.66-.4.4-.74-.8-.78.48-1.39.16Z"/>
        <path class="cls-1" d="M32.57,5.85c-.34-.26.18-.74.45-.5.16.27-.16.72-.45.5Z"/>
        <path class="cls-1" d="M30.49,4.83c0-.15.13-.28.28-.28s.28.13.28.28-.13.28-.28.28-.28-.13-.28-.28Z"/>
        <path class="cls-1" d="M29.74,4.45s.04,0,.02.01c-.01,0-.02,0-.02-.01Z"/>
        <path class="cls-1" d="M29.33,4.69c0-.15.13-.28.28-.28s.28.13.28.28-.13.28-.28.28-.28-.13-.28-.28Z"/>
        <path class="cls-1" d="M30.09,5.79c0-.15.13-.28.28-.28s.28.13.28.28-.13.28-.28.28-.28-.13-.28-.28Z"/>
        <path class="cls-1" d="M30.61,5.89c0-.15.13-.28.28-.28s.28.13.28.28-.13.28-.28.28-.28-.13-.28-.28Z"/>
        <path class="cls-1" d="M29.98,6.14c-.23-.07-.46-.26-.7-.16-.3.14-.63.1-.95.17-.24.05-.42-.27-.26-.45.15-.16.4-.13.6-.16.47-.05.76-.29,1.24-.03.21.09.48.14.58.37.15.31-.32.38-.52.27Z"/>
        <path class="cls-1" d="M27.56,11.76c0-.15.13-.28.28-.28s.28.13.28.28-.13.28-.28.28-.28-.13-.28-.28Z"/>
        <path class="cls-1" d="M28.14,13.04c0-.15.13-.28.28-.28s.28.13.28.28-.13.28-.28.28-.28-.13-.28-.28Z"/>
        <path class="cls-1" d="M28.5,13.41c0-.15.13-.28.28-.28s.28.13.28.28-.13.28-.28.28-.28-.13-.28-.28Z"/>
        <path class="cls-1" d="M29.12,11.81c0-.15.13-.28.28-.28s.28.13.28.28-.13.28-.28.28-.28-.13-.28-.28Z"/>
        <path class="cls-1" d="M28.48,11.23c0-.15.13-.28.28-.28s.28.13.28.28-.13.28-.28.28-.28-.13-.28-.28Z"/>
        <path class="cls-1" d="M27.81,10.23c0-.15.13-.28.28-.28s.28.13.28.28-.13.28-.28.28-.28-.13-.28-.28Z"/>
        <path class="cls-1" d="M28.75,10.61c0-.15.13-.28.28-.28s.28.13.28.28-.13.28-.28.28-.28-.13-.28-.28Z"/>
        <path class="cls-1" d="M28.93,11.11c0-.15.13-.28.28-.28s.28.13.28.28-.13.28-.28.28-.28-.13-.28-.28Z"/>
        <path class="cls-1" d="M29.55,12.02c-.42-.15-.53-.57-.67-.95-.08-.17-.23-.28-.3-.45-.13-.39.16-.53.45-.29.26.26.43.59.53.94.02.06.05.12.11.16.19.08.4.26.27.48-.08.14-.25.17-.39.1Z"/>
        <path class="cls-1" d="M29.65,14.44c0-.15.13-.28.28-.28s.28.13.28.28-.13.28-.28.28-.28-.13-.28-.28Z"/>
        <path class="cls-1" d="M27.63,15.36c0-.15.13-.28.28-.28s.28.13.28.28-.13.28-.28.28-.28-.13-.28-.28Z"/>
        <path class="cls-1" d="M29.28,12.79c0-.15.13-.28.28-.28s.28.13.28.28-.13.28-.28.28-.28-.13-.28-.28Z"/>
        <path class="cls-1" d="M29.74,12.91c0-.15.13-.28.28-.28s.28.13.28.28-.13.28-.28.28-.28-.13-.28-.28Z"/>
        <path class="cls-1" d="M30.13,12.62c0-.15.13-.28.28-.28s.28.13.28.28-.13.28-.28.28-.28-.13-.28-.28Z"/>
        <path class="cls-1" d="M30.46,13.64c-.26-.29-.62-.62-.63-1.04,0-.22.17-.34.36-.21.14.08.2.24.28.37.11.16.24.31.37.45.39.15.82-.09,1.2-.2.15-.05.31,0,.37.15.15.46-.59.48-.89.6-.35.09-.77.12-1.06-.13Z"/>
        <path class="cls-1" d="M25.34,11c0-.15.13-.28.28-.28s.28.13.28.28-.13.28-.28.28-.28-.13-.28-.28Z"/>
        <path class="cls-1" d="M24.1,11.52s.02-.02.03,0c0,.02-.03.02-.03,0Z"/>
        <path class="cls-1" d="M22.7,11s0-.02.02,0c0,.01-.02.03-.02,0Z"/>
        <path class="cls-1" d="M22.1,10.83c0-.15.13-.28.28-.28s.28.13.28.28-.13.28-.28.28-.28-.13-.28-.28Z"/>
        <path class="cls-1" d="M23.87,10.35c0-.15.13-.28.28-.28s.28.13.28.28-.13.28-.28.28-.28-.13-.28-.28Z"/>
        <path class="cls-1" d="M24.36,10.94c0-.15.13-.28.28-.28s.28.13.28.28-.13.28-.28.28-.28-.13-.28-.28Z"/>
        <path class="cls-1" d="M23.89,11.87c0-.15.13-.28.28-.28s.28.13.28.28-.13.28-.28.28-.28-.13-.28-.28Z"/>
        <path class="cls-1" d="M22.95,9.23s.02-.07.03-.03c0,.02-.01.04-.03.03Z"/>
        <path class="cls-1" d="M24.75,10.09c-.27-.06-.59-.13-.76-.37-.11-.15-.08-.42.15-.4.32-.35.55.26.89.24.42.17.15.7-.27.53Z"/>
        <path class="cls-1" d="M22.76,9.33c0-.15.13-.28.28-.28s.28.13.28.28-.13.28-.28.28-.28-.13-.28-.28Z"/>
        <path class="cls-1" d="M23.49,8.67c0-.15.13-.28.28-.28s.28.13.28.28-.13.28-.28.28-.28-.13-.28-.28Z"/>
        <path class="cls-1" d="M23.89,8.52s.02-.05.02-.02c0,.01-.01.03-.02.02Z"/>
        <path class="cls-1" d="M23.14,7.88c0-.15.13-.28.28-.28s.28.13.28.28-.13.28-.28.28-.28-.13-.28-.28Z"/>
        <path class="cls-1" d="M25.63,10.56c-.22-.07-.49-.1-.63-.29-.07-.11-.01-.24.06-.28.21-.18.46-.04.69.02.28,0,.59-.44.82-.09.23.41-.63.71-.93.64Z"/>
        <path class="cls-1" d="M32.87,14.82c0-.15.13-.28.28-.28s.28.13.28.28-.13.28-.28.28-.28-.13-.28-.28Z"/>
        <path class="cls-1" d="M33.01,15.59c0-.15.13-.28.28-.28s.28.13.28.28-.13.28-.28.28-.28-.13-.28-.28Z"/>
        <path class="cls-1" d="M32.38,16.44c0-.15.13-.28.28-.28s.28.13.28.28-.13.28-.28.28-.28-.13-.28-.28Z"/>
        <path class="cls-1" d="M31.65,16.8c0-.15.13-.28.28-.28s.28.13.28.28-.13.28-.28.28-.28-.13-.28-.28Z"/>
        <path class="cls-1" d="M31.19,16.38c0-.15.13-.28.28-.28s.28.13.28.28-.13.28-.28.28-.28-.13-.28-.28Z"/>
        <path class="cls-1" d="M33.32,14.07s-.01-.01,0-.02c.01-.03.04.02,0,.02Z"/>
        <path class="cls-1" d="M33.74,14.43c0-.15.13-.28.28-.28s.28.13.28.28-.13.28-.28.28-.28-.13-.28-.28Z"/>
        <path class="cls-1" d="M34.01,15.45c0-.15.13-.28.28-.28s.28.13.28.28-.13.28-.28.28-.28-.13-.28-.28Z"/>
        <path class="cls-1" d="M33.8,17.15c0-.15.13-.28.28-.28s.28.13.28.28-.13.28-.28.28-.28-.13-.28-.28Z"/>
        <path class="cls-1" d="M33.7,18.08c0-.15.13-.28.28-.28s.28.13.28.28-.13.28-.28.28-.28-.13-.28-.28Z"/>
        <path class="cls-1" d="M29.24,16.72c0-.15.13-.28.28-.28s.28.13.28.28-.13.28-.28.28-.28-.13-.28-.28Z"/>
        <path class="cls-1" d="M32.44,14.36c0-.15.13-.28.28-.28s.28.13.28.28-.13.28-.28.28-.28-.13-.28-.28Z"/>
        <path class="cls-1" d="M33.3,13.79s0,.01,0,.02c0,.05-.02.1-.04.15-.05.08-.14.14-.24.14-.02,0-.04,0-.06,0-.13-.03-.22-.14-.22-.28,0-.15.13-.28.28-.28.12,0,.23.08.27.19,0,.02.01.05.02.08Z"/>
        <path class="cls-1" d="M33.67,13.8s0-.02.02-.01c.04,0-.02.05-.02.01Z"/>
        <path class="cls-1" d="M35.05,16.34c-.13-.22-.32-.4-.43-.63-.16-.33-.02-.72-.15-1.06-.17-.23-.28-.45-.54-.57-.31-.07-.56-.34-.17-.53.51-.17.89.38,1.14.72.26.34.17.78.23,1.17.11.22.29.4.41.61.18.32-.3.6-.49.29Z"/>
        <path class="cls-1" d="M34.77,14.54s-.06-.04-.08-.07c-.15.05-.28-.11-.34-.24-.13-.26.15-.55.42-.43.62-.37.65,1.06,0,.73Z"/>
        <path class="cls-1" d="M33.44,13.91c-.08-.03-.17-.1-.16-.19,0-.03.02-.07.03-.1,0,0,0,0,0,.01.1-.25.5-.4.64-.1.12.3-.25.49-.5.38Z"/>
        <path class="cls-1" d="M34.78,16.8c0-.15.13-.28.28-.28s.28.13.28.28-.13.28-.28.28-.28-.13-.28-.28Z"/>
        <path class="cls-1" d="M34.91,17.73c-.05-.12-.01-.24.08-.32-.18-.39-.26-1.17.33-1.22.15.03.17.22.16.34-.01.13-.09.24-.06.38.06.25.22.51.07.77-.1.24-.46.33-.58.06Z"/>
        <path class="cls-1" d="M34.33,16.43s.04-.05.03-.01c0,.02-.02.03-.03.01Z"/>
        <path class="cls-1" d="M34.81,17.25s-.02-.03,0-.04c.04-.04.07.06,0,.04Z"/>
        <path class="cls-1" d="M35.05,17.42s.08-.03.08.02c0,.06-.1.05-.08-.02Z"/>
        <path class="cls-1" d="M34.17,16.42c0-.15.13-.28.28-.28s.28.13.28.28-.13.28-.28.28-.28-.13-.28-.28Z"/>
        <path class="cls-1" d="M34.74,17.48c0-.15.13-.28.28-.28s.28.13.28.28-.13.28-.28.28-.28-.13-.28-.28Z"/>
        <path class="cls-1" d="M34.78,16.25c0-.15.13-.28.28-.28s.28.13.28.28-.13.28-.28.28-.28-.13-.28-.28Z"/>
        <path class="cls-1" d="M34.59,16.59c0-.15.13-.28.28-.28s.28.13.28.28-.13.28-.28.28-.28-.13-.28-.28Z"/>
        <path class="cls-1" d="M34.5,18.16c-.24-.25.07-.49.28-.63-.08-.22-.16-.47-.06-.7.09-.22.45-.37.51-.05.03.1.01.21.01.31.02.16.1.29.13.45.03.19-.08.4-.27.45-.17.14-.39.37-.6.16Z"/>
        <path class="cls-1" d="M39.53,17.43c0-.15.13-.28.28-.28s.28.13.28.28-.13.28-.28.28-.28-.13-.28-.28Z"/>
        <path class="cls-1" d="M40.1,16.99c0-.15.13-.28.28-.28s.28.13.28.28-.13.28-.28.28-.28-.13-.28-.28Z"/>
        <path class="cls-1" d="M41.27,15.53c0-.15.13-.28.28-.28s.28.13.28.28-.13.28-.28.28-.28-.13-.28-.28Z"/>
        <path class="cls-1" d="M41.61,15.1c0-.15.13-.28.28-.28s.28.13.28.28-.13.28-.28.28-.28-.13-.28-.28Z"/>
        <path class="cls-1" d="M39.68,16.21c0-.15.13-.28.28-.28s.28.13.28.28-.13.28-.28.28-.28-.13-.28-.28Z"/>
        <path class="cls-1" d="M40.07,14.93c0-.15.13-.28.28-.28s.28.13.28.28-.13.28-.28.28-.28-.13-.28-.28Z"/>
        <path class="cls-1" d="M40.33,14.67c0-.15.13-.28.28-.28s.28.13.28.28-.13.28-.28.28-.28-.13-.28-.28Z"/>
        <path class="cls-1" d="M41.42,17.88c0-.15.13-.28.28-.28s.28.13.28.28-.13.28-.28.28-.28-.13-.28-.28Z"/>
        <path class="cls-1" d="M38.71,16.85c0-.15.13-.28.28-.28s.28.13.28.28-.13.28-.28.28-.28-.13-.28-.28Z"/>
        <path class="cls-1" d="M38.92,15.59c0-.15.13-.28.28-.28s.28.13.28.28-.13.28-.28.28-.28-.13-.28-.28Z"/>
        <path class="cls-1" d="M36.73,18.37c-.23-.61,1.22-.31,1.66-1.5.05-.33.12-.64.26-.94.05-.25.49-.56.58-.19.07.25-.11.48-.18.72-.1.39-.13.8-.41,1.12-.37.48-.94.77-1.51.93-.15.07-.33.02-.4-.14Z"/>
        <path class="cls-1" d="M37.31,19.06c0-.15.13-.28.28-.28s.28.13.28.28-.13.28-.28.28-.28-.13-.28-.28Z"/>
        <path class="cls-1" d="M38.33,18.75c0-.15.13-.28.28-.28s.28.13.28.28-.13.28-.28.28-.28-.13-.28-.28Z"/>
        <path class="cls-1" d="M38.8,18.06c0-.15.13-.28.28-.28s.28.13.28.28-.13.28-.28.28-.28-.13-.28-.28Z"/>
        <path class="cls-1" d="M39.3,19.67c0-.15.13-.28.28-.28s.28.13.28.28-.13.28-.28.28-.28-.13-.28-.28Z"/>
        <path class="cls-1" d="M38.36,17.84c0-.15.13-.28.28-.28s.28.13.28.28-.13.28-.28.28-.28-.13-.28-.28Z"/>
        <path class="cls-1" d="M38.54,18.02c0-.15.13-.28.28-.28s.28.13.28.28-.13.28-.28.28-.28-.13-.28-.28Z"/>
        <path class="cls-1" d="M38.17,17.42c0-.15.13-.28.28-.28s.28.13.28.28-.13.28-.28.28-.28-.13-.28-.28Z"/>
        <path class="cls-1" d="M38.51,17.61c.06-.06.1.07.03.08-.03,0-.08-.04-.03-.08Z"/>
        <path class="cls-1" d="M37.82,18.23c0-.15.13-.28.28-.28s.28.13.28.28-.13.28-.28.28-.28-.13-.28-.28Z"/>
        <path class="cls-1" d="M38.02,18.24c-.15-.06-.2-.23-.15-.37.04-.11.14-.16.25-.19.15-.1.24-.26.3-.43.11-.27-.06-.81.39-.78.42.07.2.77.12,1.04.18.28-.11.56-.38.64-.17.05-.35.17-.53.1Z"/>
        <path class="cls-1" d="M36.73,18.53c-.17-.48.88-.62,1.19-.74.19-.06.39-.22.59-.15.08.05.11.17.1.26-.1.44-.67.45-1.03.57-.27.07-.66.44-.85.06Z"/>
        <path class="cls-1" d="M41.52,13.21c0-.15.13-.28.28-.28s.28.13.28.28-.13.28-.28.28-.28-.13-.28-.28Z"/>
        <path class="cls-1" d="M42.03,12.75c0-.15.13-.28.28-.28s.28.13.28.28-.13.28-.28.28-.28-.13-.28-.28Z"/>
        <path class="cls-1" d="M42.57,12.29c0-.15.13-.28.28-.28s.28.13.28.28-.13.28-.28.28-.28-.13-.28-.28Z"/>
        <path class="cls-1" d="M41.6,11.85c0-.15.13-.28.28-.28s.28.13.28.28-.13.28-.28.28-.28-.13-.28-.28Z"/>
        <path class="cls-1" d="M40.89,13.32c-.24-.26.09-.55.23-.77.02-.55.06-1.1.24-1.63.08-.22.19-.55.49-.43.14.06.21.23.15.37-.14.28-.2.58-.25.87.37.31.12.76-.12,1.07-.1.28-.41.8-.74.51Z"/>
        <path class="cls-1" d="M45.14,15.21c.15,0,.28.13.28.28s-.13.28-.28.28-.28-.13-.28-.28.13-.28.28-.28Z"/>
        <path class="cls-1" d="M45.72,15.43s-.01-.04,0-.03c.01,0,0,.03,0,.03Z"/>
        <path class="cls-1" d="M47.43,13.81c.06.26.13.52.1.79,0,.33-.45.96-.87,1.15.04.26,0,.54-.16.77-.12.17-.26.39-.42.59-.01.13-.11.23-.24.25-.2.18-.44.3-.71.26-.35-.1-.54-.55-.39-.88.14-.28.4-.48.66-.65.26-.28.34-.63.46-.97.02-.04.05-.07.09-.1-.41-.27-.17-.93-.13-1.34.07-.41-.16-1.06.35-1.23.83-.19,1.21.68,1.27,1.37Z"/>
        <path class="cls-1" d="M45.61,17.14c-.24-.44.42-.78.59-1.13.21-.34.29-.74.5-1.08.19-.32.67-.04.49.29-.17.31-.27.66-.44.97-.18.26-.79,1.24-1.15.95Z"/>
        <path class="cls-1" d="M46.02,15.63c-.26-.07-.22-.35-.15-.55.03-.17.13-.35.3-.4.39-.06.27.53.19.75-.04.15-.2.24-.35.2Z"/>
        <path class="cls-1" d="M45.64,17.94c0-.15.13-.28.28-.28s.28.13.28.28-.13.28-.28.28-.28-.13-.28-.28Z"/>
        <path class="cls-1" d="M46.48,17.25s0-.04.02-.04c.04,0,0,.07-.02.04Z"/>
        <path class="cls-1" d="M46.45,16.68c0-.15.13-.28.28-.28s.28.13.28.28-.13.28-.28.28-.28-.13-.28-.28Z"/>
        <path class="cls-1" d="M46.13,18.33c0-.15.13-.28.28-.28s.28.13.28.28-.13.28-.28.28-.28-.13-.28-.28Z"/>
        <path class="cls-1" d="M46.64,18.81c0-.15.13-.28.28-.28s.28.13.28.28-.13.28-.28.28-.28-.13-.28-.28Z"/>
        <path class="cls-1" d="M45.74,19.88c0-.15.13-.28.28-.28s.28.13.28.28-.13.28-.28.28-.28-.13-.28-.28Z"/>
        <path class="cls-1" d="M44.27,18.28s.01.02,0,.02-.01-.02,0-.02Z"/>
        <path class="cls-1" d="M44.57,18.61s0,.01,0,.01,0-.01,0-.01Z"/>
        <path class="cls-1" d="M47.51,14.2c0-.15.13-.28.28-.28s.28.13.28.28-.13.28-.28.28-.28-.13-.28-.28Z"/>
        <path class="cls-1" d="M46.47,11.66c0-.15.13-.28.28-.28s.28.13.28.28-.13.28-.28.28-.28-.13-.28-.28Z"/>
        <path class="cls-1" d="M46.09,11.06s.03-.05.02-.01c0,0,0,.02-.02.01Z"/>
        <path class="cls-1" d="M44.09,18.52c0-.15.13-.28.28-.28s.28.13.28.28-.13.28-.28.28-.28-.13-.28-.28Z"/>
        <path class="cls-1" d="M46.31,17.14c0-.15.13-.28.28-.28s.28.13.28.28-.13.28-.28.28-.28-.13-.28-.28Z"/>
        <path class="cls-1" d="M40.94,14.13c-.06-.05-.12-.15-.07-.23,0,0,0-.01.01-.02,0-.34-.18-1.1.37-1.04.14.04.25.2.2.35-.11.29.12.65-.12.89-.1.1-.28.14-.4.04Z"/>
        <path class="cls-1" d="M42.13,10.9c0-.15.13-.28.28-.28s.28.13.28.28-.13.28-.28.28-.28-.13-.28-.28Z"/>
        <path class="cls-1" d="M36.16,6.06c0-.15.13-.28.28-.28s.28.13.28.28-.13.28-.28.28-.28-.13-.28-.28Z"/>
        <path class="cls-1" d="M39.1,7.02c0-.15.13-.28.28-.28s.28.13.28.28-.13.28-.28.28-.28-.13-.28-.28Z"/>
        <path class="cls-1" d="M39.62,7.36c0-.15.13-.28.28-.28s.28.13.28.28-.13.28-.28.28-.28-.13-.28-.28Z"/>
        <path class="cls-1" d="M31.77,5.81c0-.15.13-.28.28-.28s.28.13.28.28-.13.28-.28.28-.28-.13-.28-.28Z"/>
        <path class="cls-1" d="M31.83,3.14c0-.15.13-.28.28-.28s.28.13.28.28-.13.28-.28.28-.28-.13-.28-.28Z"/>
        <path class="cls-1" d="M31.6,2.33c0-.15.13-.28.28-.28s.28.13.28.28-.13.28-.28.28-.28-.13-.28-.28Z"/>
        <path class="cls-2" d="M38.45,7.91c1.19,1.21.74,2.72.84,4.24-.27.72-1.19,1.81-2.04,1.35-.58-.28-.67-.95-.81-1.51-.19-.55-.32-1.13-.69-1.59-1.37-1.57-3.84-.95-4.26-2.1-.62-.11-.93-1.02-.28-1.33.66-.27,1.39-.31,2.09-.44,2.18-.43,3.59-.34,5.16,1.39Z"/>
        <path class="cls-2" d="M32.88,9.59c-.05-.01-.05-.09,0-.1.07-.01.07.12,0,.1Z"/>
        <path class="cls-2" d="M33.36,9.52c0-.15.13-.28.28-.28s.28.13.28.28-.13.28-.28.28-.28-.13-.28-.28Z"/>
        <path class="cls-2" d="M34.22,9.22c0-.15.13-.28.28-.28s.28.13.28.28-.13.28-.28.28-.28-.13-.28-.28Z"/>
        <path class="cls-2" d="M32.49,9.68c0-.15.13-.28.28-.28s.28.13.28.28-.13.28-.28.28-.28-.13-.28-.28Z"/>
        <path class="cls-2" d="M34.22,10.93c0-.15.13-.28.28-.28s.28.13.28.28-.13.28-.28.28-.28-.13-.28-.28Z"/>
        <path class="cls-2" d="M34.79,9.97c0-.15.13-.28.28-.28s.28.13.28.28-.13.28-.28.28-.28-.13-.28-.28Z"/>
        <path class="cls-2" d="M35.19,9.77c0-.15.13-.28.28-.28s.28.13.28.28-.13.28-.28.28-.28-.13-.28-.28Z"/>
        <path class="cls-2" d="M35.2,10.4c-.31,0-.73-.23-.68-.59.04-.1.19-.13.28-.13.16-.02.26.13.4.14.37,0,.37.56,0,.57Z"/>
        <path class="cls-2" d="M34.47,10.04c-.21-.18-.44-.69-.06-.82.24-.07.35.16.41.35.22.34.09.73-.34.47Z"/>
        <path class="cls-2" d="M35.75,11.1c-.24-.23-.62-.7-.31-1,.39-.1.46.42.71.59.26.26-.14.66-.4.4Z"/>
        <path class="cls-2" d="M35.31,12.92c0-.15.13-.28.28-.28s.28.13.28.28-.13.28-.28.28-.28-.13-.28-.28Z"/>
        <path class="cls-2" d="M35.52,13.49c0-.15.13-.28.28-.28s.28.13.28.28-.13.28-.28.28-.28-.13-.28-.28Z"/>
        <path class="cls-2" d="M35.43,14.69c0-.15.13-.28.28-.28s.28.13.28.28-.13.28-.28.28-.28-.13-.28-.28Z"/>
        <path class="cls-2" d="M36.26,12.92c-.25-.04-.29-.45-.02-.49.33-.05.32.5.02.49Z"/>
        <path class="cls-2" d="M36.01,11.86c0-.15.13-.28.28-.28s.28.13.28.28-.13.28-.28.28-.28-.13-.28-.28Z"/>
        <path class="cls-2" d="M36.72,12.85c-.18-.25-.71-.9-.22-1.06.37.05.44.49.66.72.23.29-.23.64-.45.35Z"/>
        <path class="cls-2" d="M37.85,13.59c-.19-.39.37-.48.59-.66.28-.21.53-.4.74-.67.04-.15,0-.31,0-.46,0-.34-.28-1.06.24-1.12.37.2.24.75.33,1.11.03.32.06.68-.2.93-.27.26-1.39,1.35-1.7.87Z"/>
        <path class="cls-2" d="M37,14.68c0-.15.13-.28.28-.28s.28.13.28.28-.13.28-.28.28-.28-.13-.28-.28Z"/>
        <path class="cls-2" d="M37.26,15.1c0-.15.13-.28.28-.28s.28.13.28.28-.13.28-.28.28-.28-.13-.28-.28Z"/>
        <path class="cls-2" d="M38.56,14.22c0-.15.13-.28.28-.28s.28.13.28.28-.13.28-.28.28-.28-.13-.28-.28Z"/>
        <path class="cls-2" d="M30.44,9.04c0-.15.13-.28.28-.28s.28.13.28.28-.13.28-.28.28-.28-.13-.28-.28Z"/>
        <path class="cls-2" d="M28.95,8.4c0-.15.13-.28.28-.28s.28.13.28.28-.13.28-.28.28-.28-.13-.28-.28Z"/>
        <path class="cls-2" d="M28.81,7.81c0-.15.13-.28.28-.28s.28.13.28.28-.13.28-.28.28-.28-.13-.28-.28Z"/>
        <path class="cls-2" d="M30.81,7.63c-.41-.13-.37-.66.04-.76.3-.03,1.04-.13,1.07.31-.11.29-.46.24-.71.23-.02.18-.23.29-.39.22Z"/>
        <path class="cls-2" d="M33.54,7.18c-.35-.07-.74.04-1.07-.1-.22-.11-.12-.34.06-.43.34-.15.74-.04,1.09-.03.37.05.29.61-.08.56Z"/>
        <path class="cls-2" d="M30.28,7.81c0-.15.13-.28.28-.28s.28.13.28.28-.13.28-.28.28-.28-.13-.28-.28Z"/>
        <path class="cls-2" d="M27.75,6.71s.02-.03.03-.02c.02.02-.02.04-.03.02Z"/>
        <path class="cls-2" d="M26.78,7.39c0-.15.13-.28.28-.28s.28.13.28.28-.13.28-.28.28-.28-.13-.28-.28Z"/>
        <path class="cls-2" d="M32.03,8.99c-.25,0-.5-.05-.67-.24-.16-.17-.45-.41-.28-.66.12-.1.3-.06.43.01.16.07.23.31.41.32.19,0,.37,0,.56,0,.15,0,.28.13.28.28-.02.37-.47.28-.73.29Z"/>
        <path class="cls-2" d="M39.09,10.7c-.17-.47,0-.99-.2-1.44-.28-.37-.13-.86.35-.49.46.49.22,1.2.39,1.79.09.36-.45.51-.55.15Z"/>
        <path class="cls-2" d="M40.07,9.19c0-.15.13-.28.28-.28s.28.13.28.28-.13.28-.28.28-.28-.13-.28-.28Z"/>
        <path class="cls-2" d="M40.1,10.17c0-.15.13-.28.28-.28s.28.13.28.28-.13.28-.28.28-.28-.13-.28-.28Z"/>
        <path class="cls-2" d="M40.71,10.99c0-.15.13-.28.28-.28s.28.13.28.28-.13.28-.28.28-.28-.13-.28-.28Z"/>
        <path class="cls-2" d="M39.56,10.18c0-.15.13-.28.28-.28s.28.13.28.28-.13.28-.28.28-.28-.13-.28-.28Z"/>
        <path class="cls-2" d="M39.36,11.6c.03-.31.06-.63-.04-.93-.11-.3-.45-.85-.01-1.02.36.05.37.5.52.76.14.41.21,1,.01,1.39-.16.18-.5.04-.48-.2Z"/>
        <path class="cls-2" d="M40.14,12.79c0-.15.13-.28.28-.28s.28.13.28.28-.13.28-.28.28-.28-.13-.28-.28Z"/>
        <path class="cls-2" d="M40.18,13.1c0-.15.13-.28.28-.28s.28.13.28.28-.13.28-.28.28-.28-.13-.28-.28Z"/>
        <path class="cls-2" d="M38.43,8.68c-.27-.09-.23-.42-.32-.63-.18-.28-.53-.38-.79-.56-.46-.31-1.01-.59-1.53-.69-.4-.02-.36-.62.03-.57.15.03.36.07.48.12.53.16,1,.46,1.47.75.45.23.94.55.96,1.11.03.19-.07.49-.3.47Z"/>
        <path class="cls-2" d="M33.34,7.1c-.15.02-.28-.09-.24-.25.05-.29.37-.35.6-.42.15-.05.31.05.35.2.08.37-.44.44-.71.48Z"/>
        <path class="cls-1" d="M31.85,8.46c0-.15.13-.28.28-.28s.28.13.28.28-.13.28-.28.28-.28-.13-.28-.28Z"/>
        <path class="cls-1" d="M32.85,7.88c0-.15.13-.28.28-.28s.28.13.28.28-.13.28-.28.28-.28-.13-.28-.28Z"/>
        <path class="cls-1" d="M31.87,6.96c0-.15.13-.28.28-.28s.28.13.28.28-.13.28-.28.28-.28-.13-.28-.28Z"/>
        <path class="cls-1" d="M39.11,12.63c0-.15.13-.28.28-.28s.28.13.28.28-.13.28-.28.28-.28-.13-.28-.28Z"/>
        <path class="cls-1" d="M39.32,11.2c0-.15.13-.28.28-.28s.28.13.28.28-.13.28-.28.28-.28-.13-.28-.28Z"/>
        <path class="cls-1" d="M37.82,7.95c0-.15.13-.28.28-.28s.28.13.28.28-.13.28-.28.28-.28-.13-.28-.28Z"/>
        <path class="cls-1" d="M35.52,6.65c0-.15.13-.28.28-.28s.28.13.28.28-.13.28-.28.28-.28-.13-.28-.28Z"/>
        <path class="cls-1" d="M33.61,6.81c0-.15.13-.28.28-.28s.28.13.28.28-.13.28-.28.28-.28-.13-.28-.28Z"/>
        <path class="cls-2" d="M32.54,6.57c0-.15.13-.28.28-.28s.28.13.28.28-.13.28-.28.28-.28-.13-.28-.28Z"/>
        <path class="cls-2" d="M34.33,6.29c0-.15.13-.28.28-.28s.28.13.28.28-.13.28-.28.28-.28-.13-.28-.28Z"/>
        <path class="cls-2" d="M30.21,7.02s.06-.07.04-.01c0,.02-.02.02-.04.01Z"/>
        <path class="cls-2" d="M38.45,13.63c0-.15.13-.28.28-.28s.28.13.28.28-.13.28-.28.28-.28-.13-.28-.28Z"/>
        <path class="cls-2" d="M36.83,13.41c0-.15.13-.28.28-.28s.28.13.28.28-.13.28-.28.28-.28-.13-.28-.28Z"/>
        <path class="cls-2" d="M46.17,14.3c0-.15.13-.28.28-.28s.28.13.28.28-.13.28-.28.28-.28-.13-.28-.28Z"/>
        <path class="cls-2" d="M46.02,15.59c0-.15.13-.28.28-.28s.28.13.28.28-.13.28-.28.28-.28-.13-.28-.28Z"/>
        <path class="cls-2" d="M46.42,14.8c0-.15.13-.28.28-.28s.28.13.28.28-.13.28-.28.28-.28-.13-.28-.28Z"/>
        <path class="cls-1" d="M25.45,20.48c.58.51.09,1-.56.88-1.89-.14-3.81.06-5.66-.4-1.18-.23-2.78-.55-3.09-1.92-.19-.82.55-1.39,1.26-.98.4.21.2.69.81.85,1.06.22,2.09.54,3.15.75.73.1,1.47.04,2.2.14.66.1,1.33.3,1.88.68Z"/>
        <path class="cls-1" d="M19,19.11c0-.15.13-.28.28-.28s.28.13.28.28-.13.28-.28.28-.28-.13-.28-.28Z"/>
        <path class="cls-1" d="M20,19.6c0-.15.13-.28.28-.28s.28.13.28.28-.13.28-.28.28-.28-.13-.28-.28Z"/>
        <path class="cls-1" d="M18.25,19.16c0-.15.13-.28.28-.28s.28.13.28.28-.13.28-.28.28-.28-.13-.28-.28Z"/>
        <path class="cls-1" d="M16.54,17.4c0-.15.13-.28.28-.28s.28.13.28.28-.13.28-.28.28-.28-.13-.28-.28Z"/>
        <path class="cls-1" d="M13.85,19.46c0-.15.13-.28.28-.28s.28.13.28.28-.13.28-.28.28-.28-.13-.28-.28Z"/>
        <path class="cls-1" d="M15.5,21.62c0-.15.13-.28.28-.28s.28.13.28.28-.13.28-.28.28-.28-.13-.28-.28Z"/>
        <path class="cls-1" d="M17.08,21.24c0-.15.13-.28.28-.28s.28.13.28.28-.13.28-.28.28-.28-.13-.28-.28Z"/>
        <path class="cls-1" d="M16.22,19.64c0-.15.13-.28.28-.28s.28.13.28.28-.13.28-.28.28-.28-.13-.28-.28Z"/>
        <path class="cls-1" d="M16.19,20.55c0-.15.13-.28.28-.28s.28.13.28.28-.13.28-.28.28-.28-.13-.28-.28Z"/>
        <path class="cls-1" d="M16.07,19.04c0-.15.13-.28.28-.28s.28.13.28.28-.13.28-.28.28-.28-.13-.28-.28Z"/>
        <path class="cls-1" d="M14.93,18.78c0-.15.13-.28.28-.28s.28.13.28.28-.13.28-.28.28-.28-.13-.28-.28Z"/>
        <path class="cls-1" d="M13.28,18.34c-.06,0-.07-.09-.01-.11.08-.02.09.11.01.11Z"/>
        <path class="cls-1" d="M12.9,18.35c0-.15.13-.28.28-.28s.28.13.28.28-.13.28-.28.28-.28-.13-.28-.28Z"/>
        <path class="cls-1" d="M18.88,21.74c0-.15.13-.28.28-.28s.28.13.28.28-.13.28-.28.28-.28-.13-.28-.28Z"/>
        <path class="cls-1" d="M19.36,20.91c0-.15.13-.28.28-.28s.28.13.28.28-.13.28-.28.28-.28-.13-.28-.28Z"/>
        <path class="cls-1" d="M19.4,20.99c0-.15.13-.28.28-.28s.28.13.28.28-.13.28-.28.28-.28-.13-.28-.28Z"/>
        <path class="cls-1" d="M20.99,21.6c0-.15.13-.28.28-.28s.28.13.28.28-.13.28-.28.28-.28-.13-.28-.28Z"/>
        <path class="cls-1" d="M21.53,21.94c0-.15.13-.28.28-.28s.28.13.28.28-.13.28-.28.28-.28-.13-.28-.28Z"/>
        <path class="cls-1" d="M21.34,22.79c0-.15.13-.28.28-.28s.28.13.28.28-.13.28-.28.28-.28-.13-.28-.28Z"/>
        <path class="cls-1" d="M23.53,23.12c0-.15.13-.28.28-.28s.28.13.28.28-.13.28-.28.28-.28-.13-.28-.28Z"/>
        <path class="cls-1" d="M23.19,21.34c0-.15.13-.28.28-.28s.28.13.28.28-.13.28-.28.28-.28-.13-.28-.28Z"/>
        <path class="cls-1" d="M22.67,21.3c0-.15.13-.28.28-.28s.28.13.28.28-.13.28-.28.28-.28-.13-.28-.28Z"/>
        <path class="cls-1" d="M22,21.24s.02-.02.02,0c0,.01-.01.01-.02,0Z"/>
        <path class="cls-1" d="M25.08,21.83c0-.15.13-.28.28-.28s.28.13.28.28-.13.28-.28.28-.28-.13-.28-.28Z"/>
        <path class="cls-1" d="M27.54,20.83c0-.15.13-.28.28-.28s.28.13.28.28-.13.28-.28.28-.28-.13-.28-.28Z"/>
        <path class="cls-1" d="M23.45,21.99c0-.15.13-.28.28-.28s.28.13.28.28-.13.28-.28.28-.28-.13-.28-.28Z"/>
        <path class="cls-1" d="M23.76,20.8c0-.15.13-.28.28-.28s.28.13.28.28-.13.28-.28.28-.28-.13-.28-.28Z"/>
        <path class="cls-1" d="M25.74,23.24c0-.15.13-.28.28-.28s.28.13.28.28-.13.28-.28.28-.28-.13-.28-.28Z"/>
        <path class="cls-1" d="M25.05,20.8c0-.15.13-.28.28-.28s.28.13.28.28-.13.28-.28.28-.28-.13-.28-.28Z"/>
        <path class="cls-1" d="M25.93,21.02c0-.15.13-.28.28-.28s.28.13.28.28-.13.28-.28.28-.28-.13-.28-.28Z"/>
        <path class="cls-1" d="M26.13,20.92c0-.15.13-.28.28-.28s.28.13.28.28-.13.28-.28.28-.28-.13-.28-.28Z"/>
        <path class="cls-1" d="M24.99,21.18c0-.15.13-.28.28-.28s.28.13.28.28-.13.28-.28.28-.28-.13-.28-.28Z"/>
        <path class="cls-1" d="M25.43,21.51c-.64.02-.55-.56.02-.57.07-.36.61-.3.57.07-.05.3-.32.52-.62.5.01,0,.03,0,.04,0Z"/>
        <path class="cls-1" d="M24.28,21.59c-.32-.16-.27-.46.08-.52.22-.04.55-.18.64.13.08.38-.46.47-.73.38Z"/>
        <path class="cls-1" d="M20.93,20.12c-.53-.07-.48-.56.04-.56.4.01.35.61-.04.56Z"/>
        <path class="cls-1" d="M23.49,19.84c0-.15.13-.28.28-.28s.28.13.28.28-.13.28-.28.28-.28-.13-.28-.28Z"/>
        <path class="cls-1" d="M25.03,19.74c0-.06.09,0,.03.03-.02,0-.04,0-.03-.03Z"/>
        <path class="cls-1" d="M15.22,19.96c0-.15.13-.28.28-.28s.28.13.28.28-.13.28-.28.28-.28-.13-.28-.28Z"/>
        <path class="cls-1" d="M16.78,20.12c0-.15.13-.28.28-.28s.28.13.28.28-.13.28-.28.28-.28-.13-.28-.28Z"/>
        <path class="cls-1" d="M15.71,18.84c0-.15.13-.28.28-.28s.28.13.28.28-.13.28-.28.28-.28-.13-.28-.28Z"/>
        <path class="cls-1" d="M15.37,18.11c0-.15.13-.28.28-.28s.28.13.28.28-.13.28-.28.28-.28-.13-.28-.28Z"/>
        <path class="cls-1" d="M13.03,20.29c0-.15.13-.28.28-.28s.28.13.28.28-.13.28-.28.28-.28-.13-.28-.28Z"/>
        <path class="cls-1" d="M15.85,19.41c0-.15.13-.28.28-.28s.28.13.28.28-.13.28-.28.28-.28-.13-.28-.28Z"/>
        <path class="cls-1" d="M16.2,19.67c0-.15.13-.28.28-.28s.28.13.28.28-.13.28-.28.28-.28-.13-.28-.28Z"/>
        <path class="cls-1" d="M16.56,19.95c-.29.01-.66-.31-.44-.59.16-.1.35.01.52.03.37.05.29.61-.08.56Z"/>
        <path class="cls-1" d="M17.15,20.38c-.64-.05-1.7-.76-1.08-1.43.35-.23.59.03.39.39.07.34.54.42.84.5.36.09.2.65-.15.55Z"/>
        <path class="cls-1" d="M19.04,21.16c-1.94-.09-1.11-1.49-.75-.83.26.31.75.25,1.11.28.23-.04.57-.12.62.2,0,.47-.67.36-.98.36Z"/>
        <path class="cls-1" d="M32.11,24.01c0-.15.13-.28.28-.28s.28.13.28.28-.13.28-.28.28-.28-.13-.28-.28Z"/>
        <path class="cls-1" d="M34.04,23.06c0-.15.13-.28.28-.28s.28.13.28.28-.13.28-.28.28-.28-.13-.28-.28Z"/>
        <path class="cls-1" d="M33.82,23.83c0-.15.13-.28.28-.28s.28.13.28.28-.13.28-.28.28-.28-.13-.28-.28Z"/>
        <path class="cls-1" d="M36.12,23.55c0-.15.13-.28.28-.28s.28.13.28.28-.13.28-.28.28-.28-.13-.28-.28Z"/>
        <path class="cls-1" d="M36.59,24.31c0-.15.13-.28.28-.28s.28.13.28.28-.13.28-.28.28-.28-.13-.28-.28Z"/>
        <path class="cls-1" d="M38.41,24.16s-.02-.03,0-.04c.04-.03.05.06,0,.04Z"/>
        <path class="cls-1" d="M35.61,24.22c0-.15.13-.28.28-.28s.28.13.28.28-.13.28-.28.28-.28-.13-.28-.28Z"/>
        <path class="cls-1" d="M38.99,24.81c0-.15.13-.28.28-.28s.28.13.28.28-.13.28-.28.28-.28-.13-.28-.28Z"/>
        <path class="cls-1" d="M40.61,25.15s.04.06,0,.06-.04-.06,0-.06Z"/>
        <path class="cls-1" d="M43.99,23.77c-.07-.11.07-.26.18-.18.14.11-.08.32-.18.18Z"/>
        <path class="cls-1" d="M43.6,23.85c0-.15.13-.28.28-.28s.28.13.28.28-.13.28-.28.28-.28-.13-.28-.28Z"/>
        <path class="cls-1" d="M43.62,23.81c0-.15.13-.28.28-.28s.28.13.28.28-.13.28-.28.28-.28-.13-.28-.28Z"/>
        <path class="cls-1" d="M39.57,25.12c0-.15.13-.28.28-.28s.28.13.28.28-.13.28-.28.28-.28-.13-.28-.28Z"/>
        <path class="cls-1" d="M52.74,17.93c.15,0,.28.13.28.28s-.13.28-.28.28-.28-.13-.28-.28.13-.28.28-.28Z"/>
        <path class="cls-1" d="M52.42,17.01c0-.15.13-.28.28-.28s.28.13.28.28-.13.28-.28.28-.28-.13-.28-.28Z"/>
        <path class="cls-1" d="M52.4,16.69c0-.15.13-.28.28-.28s.28.13.28.28-.13.28-.28.28-.28-.13-.28-.28Z"/>
        <path class="cls-1" d="M50.63,18.07c0-.15.13-.28.28-.28s.28.13.28.28-.13.28-.28.28-.28-.13-.28-.28Z"/>
        <path class="cls-1" d="M55.24,18c0-.15.13-.28.28-.28s.28.13.28.28-.13.28-.28.28-.28-.13-.28-.28Z"/>
        <path class="cls-1" d="M55.55,19.02c0-.15.13-.28.28-.28s.28.13.28.28-.13.28-.28.28-.28-.13-.28-.28Z"/>
        <path class="cls-1" d="M54.73,20.12c0-.15.13-.28.28-.28s.28.13.28.28-.13.28-.28.28-.28-.13-.28-.28Z"/>
        <path class="cls-1" d="M53.27,21.98c0-.15.13-.28.28-.28s.28.13.28.28-.13.28-.28.28-.28-.13-.28-.28Z"/>
        <path class="cls-1" d="M55.38,20.7c0-.15.13-.28.28-.28s.28.13.28.28-.13.28-.28.28-.28-.13-.28-.28Z"/>
        <path class="cls-1" d="M56.82,19.35c0-.15.13-.28.28-.28s.28.13.28.28-.13.28-.28.28-.28-.13-.28-.28Z"/>
        <path class="cls-1" d="M51.91,22.1c0-.15.13-.28.28-.28s.28.13.28.28-.13.28-.28.28-.28-.13-.28-.28Z"/>
        <path class="cls-1" d="M49.9,21.86c0-.15.13-.28.28-.28s.28.13.28.28-.13.28-.28.28-.28-.13-.28-.28Z"/>
        <path class="cls-1" d="M48.23,22.48c0-.15.13-.28.28-.28s.28.13.28.28-.13.28-.28.28-.28-.13-.28-.28Z"/>
        <path class="cls-1" d="M54,20.26s-.03-.03-.05-.04c0,0-.01.01-.02.02.02,0,.05.01.07.02ZM55.17,18.92s0,.03,0,.05h0c0,.16-.13.29-.28.29-.09,0-.17-.04-.22-.11-.1.23-.22.45-.35.64.08.05.14.14.14.25,0,.15-.13.28-.28.28-.04,0-.08,0-.12-.03.07.05.11.13.11.23,0,.15-.13.28-.28.28s-.28-.12-.28-.27c-.47.36-1.04.61-1.63.67-.87-.2-.1-.83.49-1.39-.06-.05-.1-.13-.1-.22,0-.12.08-.22.18-.26-.03-.05-.05-.1-.05-.16,0-.15.13-.28.28-.28.11,0,.21.07.26.16.18-.47.24-1,.37-1.48.02-.21.06-.47.15-.65-.02-.04-.03-.08-.03-.13,0-.14.1-.25.23-.28.04-.15.12-.27.26-.3.27-.07.5.11.66.37.03-.13.14-.23.28-.23.15,0,.28.13.28.28,0,.1-.05.18-.13.23.07.05.11.13.11.23,0,.15-.13.28-.28.28,0,0,0,0-.01,0,0,.12,0,.24-.03.34.05.29.02.61-.06.93.02,0,.03,0,.05,0,.15,0,.28.13.28.28Z"/>
      </g>
      <g>
        <path class="cls-5" d="M33.68,29.15c-.07,0-.15,0-.22,0-.07,0-.15,0-.22,0-.02,0-.04,0-.06,0-1.01-.02-2.01-.06-3.01-.12-.64-.04-1.28-.08-1.92-.14-.62-.06-1.25-.13-1.87-.2-.63-.07-1.25-.16-1.87-.23-.64-.08-1.28-.15-1.92-.23-.64-.07-1.28-.16-1.92-.24-.65-.08-1.3-.16-1.95-.25-1.31-.19-2.62-.41-3.92-.68-.65-.14-1.3-.29-1.95-.47-.62-.17-1.23-.35-1.84-.55-.63-.2-1.26-.41-1.87-.67-.59-.25-1.18-.52-1.76-.8-.29-.14-.57-.28-.85-.44-.28-.16-.55-.32-.82-.5-.54-.35-1.09-.7-1.57-1.13-.25-.22-.49-.45-.72-.69-.21-.23-.39-.48-.56-.73-.17-.26-.31-.55-.39-.85-.04-.16-.08-.32-.08-.48,0-.08,0-.16.02-.24.03-.09.07-.18.15-.24.06-.04.15-.09.22-.06.06.03.1.09.13.15.03.06.04.12.05.18,0,.06,0,.13,0,.19,0,.06.01.12.02.18.02.1.05.2.08.29.03.09.07.18.11.26.07.13.14.26.23.39.12.17.24.33.37.48.26.28.54.54.8.77.28.24.57.45.85.65,0,0,.02.01.03.02h0c.3.2.6.4.91.59.32.2.65.37.98.54.5.25,1.01.49,1.53.72.25.11.51.22.76.33.26.1.52.2.78.29.62.21,1.24.4,1.86.59.63.19,1.27.36,1.91.51.28.07.57.13.86.19,1.28.26,2.56.48,3.85.66.65.09,1.31.17,1.96.25.66.08,1.31.17,1.97.25.63.07,1.26.14,1.89.22.63.08,1.26.16,1.89.23.91.1,1.83.21,2.75.27,1.16.08,2.32.14,3.49.17.21,0,.42,0,.64.01.21,0,.42,0,.64-.01,1.16-.03,2.33-.09,3.49-.17.92-.06,1.83-.17,2.75-.27.63-.07,1.26-.16,1.89-.23.63-.08,1.26-.15,1.89-.22.66-.08,1.31-.16,1.97-.25.65-.08,1.31-.16,1.96-.25,1.29-.18,2.58-.4,3.85-.66.29-.06.57-.12.86-.19.64-.15,1.28-.32,1.91-.51.62-.18,1.25-.38,1.86-.59.26-.09.52-.19.78-.29.26-.1.51-.22.76-.33.52-.23,1.02-.47,1.53-.72.33-.17.66-.34.98-.54.31-.19.61-.39.91-.59,0,0,0,0,0,0h.01c.3-.21.59-.43.84-.64.29-.25.57-.51.82-.8.13-.16.25-.32.37-.48.08-.13.16-.25.23-.39.04-.09.08-.17.11-.26.03-.1.06-.19.08-.29.01-.06.02-.12.02-.18,0-.06,0-.13,0-.19,0-.06.02-.12.05-.18.03-.06.07-.12.13-.15.07-.03.16.01.22.06.08.06.12.15.15.24.02.08.02.16.02.24,0,.16-.04.33-.08.48-.08.3-.22.59-.39.85-.17.26-.35.51-.56.73-.23.24-.47.47-.72.69-.48.43-1.03.79-1.57,1.13-.27.17-.54.34-.82.5-.28.15-.56.3-.85.44-.58.28-1.16.55-1.76.8-.61.26-1.24.47-1.87.67-.61.19-1.22.38-1.84.55-.65.17-1.3.33-1.95.47-1.3.27-2.61.49-3.92.68-.65.09-1.3.17-1.95.25-.64.08-1.28.17-1.92.24-.64.07-1.28.15-1.92.23-.62.08-1.25.16-1.87.23-.62.07-1.25.14-1.87.2-.64.06-1.28.11-1.92.14-1,.06-2.01.11-3.01.12-.02,0-.04,0-.06,0h0Z"/>
        <path class="cls-5" d="M61.51,22.76s0,0-.01,0c0,0,0,0,0,0,0,0,0,0,.01,0Z"/>
        <path class="cls-5" d="M5.43,22.76s0,0-.01,0c0,0,0,0,.01,0,0,0,0,0,0,0Z"/>
        <path class="cls-5" d="M2.58,19.7c-.07-.05-.12-.13-.14-.22-.02-.09-.02-.17,0-.26,0-.08.02-.16.04-.25.06-.32.17-.62.29-.92.12-.3.28-.59.45-.87.17-.28.37-.55.6-.8.4-.44.83-.85,1.3-1.21.12-.09.24-.18.36-.26.05-.04.11-.08.16-.11.02-.01.04-.03.07-.05.03-.03.07-.05.07-.05,1.09-.74,2.3-1.28,3.52-1.76,1.24-.48,2.5-.9,3.77-1.27,1.27-.37,2.55-.71,3.83-1.02,1.13-.27,2.27-.49,3.41-.7-.06.07-.12.14-.19.21-.13.15-.26.31-.38.47-.35.07-.71.13-1.06.2-1.3.27-2.59.58-3.87.93-.62.17-1.25.35-1.87.53-.64.19-1.28.39-1.92.61-.09.03-.19.07-.28.1-1.07.37-2.12.79-3.14,1.29-.25.13-.5.26-.75.4-.26.15-.52.31-.77.47-.02.01-.04.03-.05.04-.02.02-.05.04-.08.05-.34.23-.66.48-.97.74-.27.24-.53.5-.77.77-.14.17-.28.34-.4.52-.15.22-.28.45-.4.68-.09.2-.18.4-.25.61-.05.16-.1.33-.14.5-.01.06-.02.12-.03.18-.01.08-.01.17-.05.25-.04.1-.12.24-.24.24,0,0,0,0,0,0-.04,0-.09-.02-.12-.05Z"/>
        <path class="cls-5" d="M64.22,19.74c-.12,0-.2-.15-.24-.24-.03-.08-.04-.17-.05-.25,0-.06-.02-.12-.03-.18-.04-.17-.09-.33-.14-.5-.07-.21-.16-.41-.25-.61-.12-.23-.25-.46-.4-.68-.13-.18-.26-.35-.4-.52-.24-.27-.5-.52-.77-.77-.31-.27-.63-.51-.97-.74-.03-.02-.05-.03-.08-.05-.02-.01-.04-.02-.05-.04-.25-.17-.51-.32-.77-.47-.24-.14-.5-.27-.75-.4-1.02-.5-2.07-.91-3.14-1.29-.09-.03-.19-.07-.28-.1-.63-.22-1.27-.42-1.92-.61-.62-.18-1.24-.36-1.87-.53-1.28-.35-2.57-.66-3.86-.93-.23-.05-.47-.09-.7-.14-.24-.25-.49-.49-.75-.72,1.08.2,2.16.41,3.24.67,1.29.31,2.56.65,3.83,1.02,1.27.37,2.54.78,3.77,1.27,1.22.48,2.43,1.02,3.49,1.74.03.02.07.04.1.07.02.01.04.03.07.05.05.04.11.07.16.11.12.09.24.17.36.26.47.36.9.77,1.3,1.21.22.25.42.52.6.8.17.28.33.56.45.87.12.3.23.61.29.92.02.08.03.16.04.25,0,.09.02.17,0,.26-.02.08-.07.16-.14.22-.03.03-.08.05-.12.05,0,0,0,0,0,0Z"/>
        <path class="cls-5" d="M66.56,21.48c-.07,0-.14-.05-.19-.11-.05-.06-.06-.13-.06-.21v-.03s0-.01,0-.02h0c.03-.48.05-.97.02-1.45-.01-.2-.03-.4-.06-.6,0-.06-.02-.11-.02-.17,0-.07.01-.13.04-.19.03-.07.08-.15.15-.18.1-.04.22.05.27.12.05.07.09.15.1.24,0,.05.01.1.02.15.03.25.05.5.06.76.02.48,0,.97-.03,1.45,0,.14-.15.24-.29.24-.01,0-.02,0-.03,0Z"/>
        <path class="cls-5" d="M.04,21.24c-.03-.48-.06-.97-.03-1.45.01-.25.03-.51.06-.76,0-.05.01-.1.02-.15.01-.09.05-.17.1-.24.06-.07.18-.17.27-.12.07.03.12.11.15.18.03.06.04.13.04.19,0,.06-.01.12-.02.17-.03.2-.04.4-.06.6-.03.48-.01.97.02,1.43,0,0,0,.01,0,.02h0s0,.03,0,.05c0,.08,0,.15-.06.21-.05.06-.11.1-.19.11-.01,0-.02,0-.03,0-.14,0-.28-.1-.29-.24Z"/>
        <path class="cls-5" d="M66.32,21.11s0,0,0,0c0,0,0,0,0,0,0,0,0,0,0,0Z"/>
        <path class="cls-5" d="M.6,21.11s0,0,0,0c0,0,0,0,0,0,0,0,0,0,0,0Z"/>
        <path class="cls-5" d="M66.29,18.86c-.05-.07-.06-.15-.08-.24-.01-.07-.02-.13-.04-.2-.04-.21-.1-.42-.17-.62-.11-.3-.24-.58-.38-.86-.11-.21-.24-.41-.36-.58-.15-.22-.3-.43-.47-.63-.15-.19-.31-.37-.47-.56-.24-.27-.49-.52-.76-.76-.38-.32-.77-.63-1.18-.91-.16-.11-.32-.21-.48-.31-.17-.11-.33-.22-.5-.32-.34-.2-.69-.38-1.01-.54-.54-.27-1.09-.52-1.65-.75-.55-.22-1.09-.43-1.65-.63,0,0,0,0-.01,0-.01,0-.02,0-.03-.01,0,0,0,0-.01,0,0,0-.01,0-.02,0,0,0-.02,0-.03,0,0,0-.01,0-.02,0,0,0,0,0,0,0-.08-.03-.15-.05-.23-.08-.16-.05-.33-.11-.49-.16-.33-.11-.66-.22-1-.32-.66-.2-1.32-.39-1.99-.59-.66-.19-1.33-.36-2-.53-.66-.17-1.33-.32-2-.46-.04,0-.08-.02-.12-.02-.67-.13-1.35-.25-2.02-.37-.34-.06-.69-.12-1.03-.18-.33-.06-.65-.11-.98-.15-1.34-.19-2.69-.36-4.04-.48-.23-.02-.46-.04-.69-.06-.39-.25-.8-.47-1.22-.68.64.06,1.28.12,1.92.17.34.03.68.06,1.02.1.33.04.66.08.99.12.69.08,1.37.17,2.06.27.68.09,1.35.21,2.03.33.66.12,1.33.24,1.99.36.33.06.66.14.99.21.35.08.7.16,1.04.24.67.17,1.34.33,2,.53.66.19,1.32.39,1.98.58.66.2,1.31.41,1.95.63.01,0,.02,0,.03.01,0,0,.01,0,.02,0,.01,0,.03,0,.04.01,0,0,0,0,.01,0,0,0,0,0,0,0,.64.22,1.27.47,1.91.73.61.25,1.2.54,1.78.84.31.16.62.33.92.51.29.18.57.36.85.55.28.19.55.39.82.61.26.21.52.43.76.67.24.23.46.48.67.73.23.27.45.54.65.82.19.28.38.55.53.86.15.29.29.59.39.9.1.28.17.58.22.87.01.07.03.14.02.22,0,.06-.03.13-.06.18-.04.06-.1.14-.18.15,0,0,0,0-.02,0-.1,0-.19-.11-.24-.18Z"/>
        <path class="cls-5" d="M.38,19.05c-.08,0-.14-.09-.18-.15-.03-.06-.05-.12-.06-.18,0-.07,0-.15.02-.22.05-.29.12-.59.22-.87.11-.31.25-.61.39-.9.15-.3.34-.58.53-.86.2-.29.42-.56.65-.82.21-.25.44-.49.67-.73.24-.24.5-.46.76-.67.26-.21.54-.42.82-.61.28-.19.56-.37.85-.55.3-.18.61-.35.92-.51.58-.3,1.18-.59,1.78-.84.63-.26,1.26-.51,1.91-.73,0,0,0,0,0,0,0,0,0,0,.01,0,.01,0,.03,0,.04-.01,0,0,.01,0,.02,0,.01,0,.02,0,.03-.01.65-.22,1.3-.43,1.95-.63.66-.2,1.32-.39,1.98-.58.66-.19,1.33-.36,2-.53.35-.09.69-.16,1.04-.24.33-.07.66-.15.99-.21.66-.13,1.33-.25,1.99-.36.67-.12,1.35-.24,2.03-.33.68-.09,1.37-.19,2.06-.27.01,0,.03,0,.04,0-.36.23-.71.46-1.07.7-.33.04-.65.09-.98.13-.33.05-.65.1-.98.15-.34.06-.69.12-1.03.18-.67.12-1.35.24-2.02.37-.04,0-.08.02-.12.02-.67.14-1.34.29-2,.46-.67.17-1.34.34-2,.53-.66.19-1.33.39-1.99.59-.33.1-.67.21-1,.32-.16.05-.33.11-.49.16-.08.03-.15.05-.23.08,0,0,0,0,0,0,0,0-.01,0-.02,0,0,0-.02,0-.03,0,0,0-.01,0-.02,0,0,0,0,0-.01,0,0,0-.02,0-.03.01,0,0,0,0-.01,0-.55.2-1.1.41-1.65.63-.56.22-1.11.48-1.62.73-.35.18-.7.36-1.04.56-.17.1-.34.21-.5.32-.16.1-.32.21-.48.31-.41.28-.8.59-1.18.91-.27.24-.52.49-.76.76-.16.18-.32.37-.47.56-.17.2-.32.42-.45.6-.13.2-.27.4-.37.6-.14.28-.27.57-.38.87-.07.2-.12.41-.17.62-.01.07-.02.13-.04.2-.01.09-.03.16-.08.24-.05.08-.14.18-.24.18,0,0-.01,0-.02,0Z"/>
        <path class="cls-5" d="M49.27,8.77s.01,0,.02,0c0,0-.01,0-.02,0Z"/>
        <path class="cls-5" d="M66.18,18.42c-.04-.21-.1-.42-.17-.62-.11-.3-.24-.58-.38-.87,0,0,0,0,0,0-.11-.21-.24-.41-.38-.61,0,0,.01.02.02.03-.15-.22-.3-.43-.47-.63-.15-.19-.31-.37-.47-.56-.24-.27-.49-.52-.76-.76-.38-.33-.78-.64-1.2-.93,0,0,.02.01.03.02-.65-.44-1.33-.85-2.03-1.19.01,0,.02.01.03.02-.54-.27-1.09-.52-1.65-.75-.54-.22-1.09-.43-1.64-.62,0,0-.02,0-.03,0-.06,0-.11-.02-.15-.05-.55-.19-1.11-.37-1.67-.54-1.97-.6-3.95-1.16-5.97-1.58,0,0,0,0,.01,0-2.95-.6-5.92-.99-8.91-1.28-.4-.25-.82-.48-1.25-.69,2.02.17,4.03.41,6.03.67,4.08.58,8.1,1.56,11.99,2.9.03,0,.06.01.09.03.02,0,.03.02.05.03.57.1,1.56.64,1.86.7,2.78,1.16,5.51,2.88,6.98,5.58.19.44,1.03,2.06.39,2.32-.3-.03-.32-.39-.37-.62Z"/>
        <path class="cls-5" d="M62.14,76.89c-.16-.02-.27-.16-.25-.31.09-1.07.17-2.14.26-3.2.18-2.23.35-4.46.53-6.68.18-2.23.36-4.46.53-6.69.18-2.27.36-4.54.54-6.81.18-2.28.36-4.57.55-6.85.18-2.32.37-4.65.56-6.97.18-2.3.37-4.59.55-6.89.18-2.21.35-4.41.53-6.62.08-1.06.17-2.13.25-3.19.04-.48.08-.95.11-1.43,0-.11.02-.22.03-.33,0-.09.02-.18.06-.26.05-.09.13-.19.23-.2.06-.01.11.03.15.06.05.05.08.11.11.17.03.1.02.2.02.31,0,.11-.02.22-.03.33-.04.53-.08,1.05-.13,1.58-.17,2.17-.35,4.35-.52,6.52-.18,2.28-.36,4.57-.55,6.85-.18,2.28-.36,4.56-.55,6.85-.18,2.31-.37,4.62-.55,6.93-.18,2.28-.36,4.56-.55,6.85-.18,2.24-.36,4.48-.53,6.72-.18,2.23-.36,4.46-.53,6.69-.17,2.11-.34,4.22-.5,6.33-.01.14-.14.25-.28.25,0,0-.02,0-.03,0Z"/>
        <path class="cls-5" d="M4.47,76.63c-.17-2.11-.34-4.22-.5-6.33-.18-2.23-.36-4.46-.53-6.69-.18-2.24-.36-4.48-.53-6.72-.18-2.28-.36-4.56-.55-6.85-.18-2.31-.37-4.62-.55-6.93-.18-2.28-.36-4.56-.55-6.85-.18-2.28-.36-4.57-.55-6.85-.17-2.17-.35-4.35-.52-6.52-.04-.53-.08-1.05-.13-1.58,0-.11-.02-.22-.03-.33,0-.11-.02-.21.02-.31.02-.07.06-.13.11-.17.04-.04.09-.07.15-.06.1.02.19.11.23.2.04.08.05.17.06.26,0,.11.02.22.03.33.04.48.08.95.11,1.43.08,1.06.17,2.13.25,3.19.18,2.21.35,4.41.53,6.62.18,2.3.37,4.59.55,6.89.19,2.32.37,4.65.56,6.97.18,2.28.36,4.57.55,6.85.18,2.27.36,4.54.54,6.81.18,2.23.36,4.46.53,6.69.18,2.23.36,4.46.53,6.68.08,1.07.17,2.14.26,3.2.01.15-.1.29-.25.31,0,0-.02,0-.03,0-.14,0-.27-.11-.28-.25Z"/>
        <path class="cls-5" d="M33.46,86.57c-.14,0-.27,0-.41,0-.04,0-.08,0-.11-.02-.17,0-.34-.02-.5-.02-.59-.03-1.19-.06-1.78-.09-.31-.01-.61-.02-.92-.05-.29-.02-.57-.05-.86-.09-.61-.07-1.23-.15-1.84-.23-1.23-.16-2.46-.32-3.69-.51-.63-.1-1.26-.21-1.89-.32-.6-.11-1.2-.23-1.8-.35-.09-.02-.18-.04-.23-.05-.03,0-.05-.01-.07-.01h-.03s-.04-.02-.06-.02c-.02,0-.05,0-.07-.01-.01,0-.02,0-.03,0-.11-.02-.22-.04-.29-.06-1.23-.25-2.45-.53-3.64-.9-1.19-.37-2.37-.81-3.51-1.33-.57-.26-1.13-.55-1.68-.85-.55-.3-1.09-.6-1.63-.93-.29-.17-.57-.35-.85-.54-.07-.05-.13-.09-.17-.12-.52-.35-1.02-.75-1.49-1.17-.46-.42-.9-.88-1.21-1.42-.1-.18-.19-.36-.27-.54-.05-.13-.06-.25-.01-.38.02-.06.08-.13.15-.15.04,0,.09,0,.13.02.07.03.13.08.18.14.05.07.08.14.11.21.03.06.06.13.09.19.08.16.17.31.26.46.1.15.21.29.33.42.23.25.47.49.73.72.42.37.85.71,1.28,1,.06.04.12.08.18.12h0c.51.34,1.04.66,1.57.97.55.32,1.11.63,1.68.91.04.02.07.04.11.06.52.25,1.04.5,1.57.72.55.23,1.11.44,1.68.64.58.2,1.17.38,1.77.55.61.17,1.22.31,1.83.45.3.06.59.12.89.19.1.02.2.04.26.05.02,0,.05,0,.06.01h.02s.06.02.09.02c.01,0,.02,0,.03,0h.04s.04.02.05.02c1.21.24,2.42.49,3.63.67.62.1,1.25.19,1.87.28.62.09,1.24.16,1.86.24.5.06,1.01.13,1.51.19.46.06.92.12,1.38.15.6.04,1.2.06,1.81.09.57.03,1.13.06,1.7.08.05,0,.11,0,.16,0,.05,0,.11,0,.16,0,.57-.02,1.13-.05,1.7-.08.6-.03,1.21-.05,1.81-.09.46-.03.92-.09,1.38-.15.5-.06,1.01-.13,1.51-.19.62-.08,1.24-.16,1.86-.24.63-.09,1.25-.18,1.87-.28,1.22-.19,2.43-.43,3.62-.67h.03s.05-.02.08-.02c.01,0,.02,0,.03,0,.03,0,.06-.01.08-.02,0,0,.02,0,.05-.01.1-.02.2-.04.3-.06.3-.06.59-.12.89-.19.61-.14,1.23-.28,1.83-.45.6-.16,1.18-.35,1.77-.55.56-.2,1.13-.41,1.68-.64.53-.22,1.05-.46,1.57-.72.04-.02.07-.04.11-.06.57-.29,1.13-.6,1.68-.91.53-.3,1.06-.62,1.54-.94.01,0,.02-.02.04-.02.06-.04.12-.08.15-.1.46-.31.89-.66,1.31-1.02.25-.23.5-.47.73-.72.12-.14.23-.28.33-.42.1-.15.18-.3.26-.46.03-.06.06-.12.09-.19.03-.08.06-.15.11-.21.05-.06.11-.11.18-.14.04-.02.08-.03.13-.02.07.01.13.08.15.15.05.13.04.25-.01.38-.08.19-.17.37-.27.54-.31.55-.75,1-1.21,1.42-.47.42-.96.82-1.46,1.15-.07.05-.13.09-.2.13-.28.19-.56.36-.85.54-.53.32-1.08.63-1.63.93-.55.3-1.11.59-1.68.85-1.14.52-2.31.96-3.51,1.33-1.2.37-2.42.65-3.6.89-.11.02-.22.05-.32.07-.01,0-.02,0-.03,0-.02,0-.05,0-.06.01h-.03s-.05.02-.05.02h-.04c-.09.03-.18.04-.26.06-.6.12-1.2.24-1.8.35-.63.12-1.26.22-1.89.32-1.23.19-2.46.35-3.69.51-.61.08-1.23.16-1.84.23-.29.03-.57.06-.86.09-.31.02-.61.03-.92.05-.59.03-1.19.06-1.78.09-.17,0-.34.02-.5.02-.03.02-.07.02-.11.02-.14,0-.27,0-.41,0Z"/>
        <path class="cls-5" d="M47.68,84.81s-.02,0-.03,0c0,0,.02,0,.03,0Z"/>
        <path class="cls-5" d="M19.24,84.81s.02,0,.03,0c0,0-.02,0-.03,0Z"/>
        <path class="cls-5" d="M19.19,84.8s.01,0,.02,0c0,0-.01,0-.02,0Z"/>
        <path class="cls-5" d="M47.74,84.8s0,0-.01,0c0,0,0,0,.01,0Z"/>
        <path class="cls-5" d="M47.78,84.79s-.02,0-.03,0c.01,0,.02,0,.03,0Z"/>
        <path class="cls-5" d="M19.14,84.79s.02,0,.03,0c-.01,0-.02,0-.03,0Z"/>
        <path class="cls-5" d="M47.48,84.27s-.02,0-.03,0c0,0,.02,0,.03,0Z"/>
        <path class="cls-5" d="M19.45,84.27s.02,0,.03,0c0,0-.02,0-.03,0Z"/>
        <path class="cls-5" d="M47.49,84.27s0,0-.01,0c0,0,0,0,0,0,0,0,0,0,.01,0Z"/>
        <path class="cls-5" d="M19.45,84.27s0,0-.01,0c0,0,0,0,.01,0,0,0,0,0,0,0Z"/>
        <path class="cls-5" d="M47.59,84.25s-.02,0-.03,0c0,0,.02,0,.03,0Z"/>
        <path class="cls-5" d="M19.34,84.25s.02,0,.03,0c0,0-.02,0-.03,0Z"/>
        <path class="cls-5" d="M59.03,79.72s0,0-.01,0c0,0,0,0,.01,0Z"/>
        <path class="cls-5" d="M7.89,79.72s0,0,.01,0c0,0,0,0-.01,0Z"/>
        <path class="cls-5" d="M59.05,79.7s0,0,0,0c0,0,0,0-.01,0,0,0,.01,0,.02-.01Z"/>
        <path class="cls-5" d="M7.88,79.71s0,0,0,0c0,0,.01,0,.02.01,0,0,0,0-.01,0Z"/>
      </g>
    </g>
  </g>
</svg>