<?xml version="1.0" encoding="UTF-8"?>
<svg id="Layer_2" data-name="Layer 2" xmlns="http://www.w3.org/2000/svg" xmlns:xlink="http://www.w3.org/1999/xlink" viewBox="0 0 85.36 71.86">
  <defs>
    <style>
      .cls-1 {
        fill: url(#linear-gradient-7);
      }

      .cls-2 {
        fill: url(#linear-gradient-5);
      }

      .cls-3 {
        fill: url(#linear-gradient-6);
      }

      .cls-4 {
        fill: url(#linear-gradient-4);
      }

      .cls-5 {
        fill: url(#linear-gradient-3);
      }

      .cls-6 {
        fill: url(#linear-gradient-2);
      }

      .cls-7, .cls-8, .cls-9, .cls-10, .cls-11 {
        fill: #f6ac29;
      }

      .cls-12 {
        fill: url(#linear-gradient);
      }

      .cls-13 {
        fill: #ece7d3;
      }

      .cls-14 {
        fill: #fff;
      }

      .cls-15 {
        fill: #f8f6e8;
      }

      .cls-16 {
        fill: #fffdf0;
      }

      .cls-17 {
        opacity: .09;
      }

      .cls-18 {
        opacity: .16;
      }

      .cls-19 {
        opacity: .07;
      }

      .cls-20 {
        opacity: .06;
      }

      .cls-21 {
        fill: #8cb23f;
      }

      .cls-22 {
        fill: #fffd96;
      }

      .cls-8 {
        opacity: .31;
      }

      .cls-9 {
        opacity: .29;
      }

      .cls-10 {
        opacity: .39;
      }

      .cls-11 {
        opacity: .4;
      }
    </style>
    <linearGradient id="linear-gradient" x1="2.97" y1="42.88" x2="82.09" y2="42.88" gradientTransform="translate(88.19) rotate(-180) scale(1 -1)" gradientUnits="userSpaceOnUse">
      <stop offset="0" stop-color="#ffee8d"/>
      <stop offset="1" stop-color="#f4db71"/>
    </linearGradient>
    <linearGradient id="linear-gradient-2" x1="2.83" y1="60.01" x2="81.69" y2="60.01" xlink:href="#linear-gradient"/>
    <linearGradient id="linear-gradient-3" x1="53.22" y1="9.17" x2="77.27" y2="9.17" gradientTransform="translate(88.19) rotate(-180) scale(1 -1)" gradientUnits="userSpaceOnUse">
      <stop offset="0" stop-color="#8cc63f"/>
      <stop offset="1" stop-color="#7da838"/>
    </linearGradient>
    <linearGradient id="linear-gradient-4" x1="26.95" y1="15.53" x2="51.18" y2="15.53" xlink:href="#linear-gradient-3"/>
    <linearGradient id="linear-gradient-5" x1="32.86" y1="11.13" x2="59.78" y2="11.13" gradientTransform="translate(88.19) rotate(-180) scale(1 -1)" gradientUnits="userSpaceOnUse">
      <stop offset="0" stop-color="#ffd60b"/>
      <stop offset="1" stop-color="#f2d10f"/>
    </linearGradient>
    <linearGradient id="linear-gradient-6" x1="32.86" y1="10.03" x2="57.39" y2="10.03" gradientTransform="translate(88.19) rotate(-180) scale(1 -1)" gradientUnits="userSpaceOnUse">
      <stop offset="0" stop-color="#fff98d"/>
      <stop offset="1" stop-color="#fffd96"/>
    </linearGradient>
    <linearGradient id="linear-gradient-7" x1="33.37" y1="9.5" x2="56.81" y2="9.5" gradientTransform="translate(88.19) rotate(-180) scale(1 -1)" gradientUnits="userSpaceOnUse">
      <stop offset="0" stop-color="#ffe54a"/>
      <stop offset="1" stop-color="#f9e445"/>
    </linearGradient>
  </defs>
  <g id="Layer_1-2" data-name="Layer 1">
    <g>
      <path class="cls-13" d="M1.15,54.47c2.38,3.25,7.3,3.93,9.51,4.53,16.95,4.6,23.35,4.51,37.96,7.71,9.47,2.07,19.36,2.65,28.81,4.79.34.08,1.8.42,3.59.14.74-.11,1.92-.29,2.78-.99.69-.56,1.09-1.37,1.12-4.56,0-1.3-.04-3.01-.29-5.02.25-.79.49-1.85.5-3.11.01-1.42-.27-2.61-.56-3.45.17-.85.31-1.74.41-2.69.25-2.29.23-4.38.06-6.22.14-.9.28-2.17.2-3.69-.04-.83-.08-1.62-.25-2.45-.1-.48-.24-.98-.44-1.5-.37-.92-1.19-2.52-3.13-4.14-11.1-10.39-22.21-20.78-33.31-31.18-3.83-.85-11.46-2.05-20.46-.08-8.43,1.84-13.72,5.52-14.93,6.38-2.36,1.69-8.39,6.46-10.97,14.18-.4,1.19-.65,2.26-.81,3.77-.21,1.97-.24,3.78-.24,6.84h0c0,4.99-.58,8.79-.66,12.22-.11,4.53-.16,6.8,1.1,8.52Z"/>
      <path class="cls-15" d="M.95,26.89c1.52-1.29,4.29-3.23,8.2-3.82,3.36-.51,6.06.2,10.26,1.4,8.4,2.39,12.59,3.58,14.61,4.38,19.92,7.94,50.34,14.01,51.19,12.27.1-.22-.05-.94-.21-1.66,0,0-.17-.77-.44-1.5-.84-2.19-3.13-4.14-3.13-4.14l-21.97-20.56c-.94-.88-1.89-1.77-2.83-2.65-2.84-2.65-5.67-5.31-8.51-7.96-3.83-.85-11.46-2.05-20.46-.08-2.89.63-5.42,1.48-7.53,2.36-.01,0-.02,0-.03.01-1.19.49-2.24.99-3.16,1.47-.73.38-1.38.74-1.93,1.07-1.13.67-1.89,1.2-2.27,1.47-.6.43-1.44,1.06-2.41,1.89-.4.34-.82.72-1.25,1.13-2.61,2.49-5.67,6.22-7.31,11.15-.4,1.19-.65,2.26-.81,3.77Z"/>
      <path class="cls-16" d="M73.49,26.87c3.4,3.24,2.98,2.94,3.88,3.71,3.02,2.57,3.93,3.28,5.22,5.01.74,1,3.03,4.08,1.85,5.18-1.12,1.04-4.76-.29-5.22-.46.82-.63,2.24-1.9,2.2-3.52-.04-1.62-1.53-2.76-2.38-3.43-3.86-3.05-7.11-6.6-10.61-9.93-3.52-3.36-4.95-4.74-6.82-6.67-.83-.85-4.65-4.78-4.49-4.89.28-.2,13.07,11.89,16.34,15Z"/>
      <path class="cls-16" d="M3.79,24.2c3.53-2.01,7.83-1.79,9.95-1.66.05,0,.23.01.47.03,1.03.1,3.11.49,10.48,2.8,5.41,1.7,8.11,2.54,8.87,2.79,5.81,1.92,8.86,3.1,8.93,2.99.07-.12-3.11-1.5-5.91-2.6-1.22-.48-3-1.16-6.14-2.22-3.78-1.27-6.62-2.22-10.55-3.23-.68-.17-4.19-1.08-8.95-1.85-5.19-.84-6.51-.65-7.49-.04-1.9,1.2-1.9,3.65-1.84,4.66.84-.84,1.65-1.37,2.19-1.68Z"/>
      <path class="cls-19" d="M85.1,45.26c-.2.13-.51.32-.92.5-.81.35-1.63.49-2.43.53-1.32.07-2.69-.1-6.07-.82-1.07-.23-.87-.2-3.51-.77-2.75-.6-2.5-.52-3.52-.77-7.57-1.86-6.13-1.43-11.02-2.67-12.83-3.24-14.8-3.99-20.42-5.31-4.68-1.1-11.35-2.49-19.66-3.62,10.57,5.24,19.64,8.02,26.02,9.58,15.29,3.76,17.47,1.17,28.11,5.49,3.38,1.37,8.6,3.84,11.48,2.12,1.56-.94,1.9-2.79,1.94-4.25Z"/>
      <path class="cls-16" d="M38.46,34.1c-.25-.01-.81-.03-.85.1-.05.16.66.62,1.28.48.25-.06.53-.23.5-.35-.04-.19-.75-.22-.93-.22Z"/>
      <path class="cls-16" d="M33.38,30.73c-.51-.16-1.32-.32-1.39-.19-.08.15.75.66,1.68.87.38.08.99.16,1.04.05.06-.13-.66-.51-1.33-.72Z"/>
      <path class="cls-16" d="M70.76,41.03c.03-.12-.71-.37-1.45-.41-.27-.02-.79-.02-.81.07-.02.1.59.31,1.19.39.44.05,1.05.05,1.07-.05Z"/>
      <path class="cls-16" d="M3.78,25.77c.65-.15.98-.23,1.12-.1.08.07.1.2.04.29-.23.36-1.73.13-1.74-.02,0-.04.19-.09.58-.18Z"/>
      <path class="cls-16" d="M5.91,19.41c-.38-.03-1.16-.09-1.16-.19,0-.09.65-.22,1.28-.22.93,0,1.82.27,1.8.39-.02.14-1.34.07-1.91.02Z"/>
      <path class="cls-16" d="M10.57,18.16c0,.05-.31.09-.41.11-.59.07-1.14-.16-1.13-.23.03-.11,1.53,0,1.54.12Z"/>
      <path class="cls-16" d="M12.25,20.11c.23-.12.63-.21.78-.07.17.16.01.65-.38.75-.32.08-.73-.11-.75-.31-.02-.18.26-.32.35-.36Z"/>
      <path class="cls-7" d="M84.94,46.66c-.4.29-1.06.69-1.97.93,0,0-1.36.36-2.98.08-21.5-3.67-57.15-14.21-57.15-14.21-3.23-.96-13.31-3.87-15.84-1.12-.72.78-.91,2.12-.97,2.47-.4,2.75,1.36,4.81,1.85,5.35,1.85,2,4.53,2.69,5.56,2.94,9.56,2.32,29.12,6.34,34.17,7.44,10.64,2.33,21.51,3.85,32.2,6.01.34.07,1.39.29,2.61,0,.89-.21,1.56-.61,2.03-.98.18-.82.33-1.69.44-2.61.28-2.34.24-4.47.04-6.3Z"/>
      <path class="cls-12" d="M85.05,45.6c-.4.29-1.06.69-1.97.93,0,0-1.36.36-2.98.08-21.5-3.67-57.15-14.21-57.15-14.21-3.23-.96-13.31-3.87-15.84-1.12-.72.78-.91,2.12-.97,2.47-.4,2.75,1.36,4.81,1.85,5.35,1.85,2,4.53,2.69,5.56,2.94,9.56,2.32,29.12,6.34,34.17,7.44,10.64,2.33,21.51,3.85,32.2,6.01.34.07,1.39.29,2.61,0,.89-.21,1.56-.61,2.03-.98.18-.82.33-1.69.44-2.61.28-2.34.24-4.47.04-6.3Z"/>
      <path class="cls-7" d="M84.89,61.41c-.12.16-.32.38-.64.59-.45.29-.91.4-1.17.44h0c-2.24.93-4.66.53-5.76.32-2.41-.45-20.81-4.14-46.02-9.46-11.96-2.91-21.22-3.79-23.13-2.19-1.14.96-1.51,2.07-1.51,2.07-.48,1.45.13,2.71.29,3.03,1.01,2.01,3.55,2.97,4.75,3.37,7.4,2.49,26.65,5.22,36.17,7.22,0,0,20.11,4.23,30.83,5.01.68.05,2.2.18,3.83-.42.66-.24,1.16-.53,1.48-.75.07-.13.19-.34.31-.59,0,0,.47-.99.68-2.24.18-1.06.25-3.38-.12-6.4Z"/>
      <path class="cls-6" d="M84.81,60.6c-.16.1-.34.21-.55.32-.42.21-.83.35-1.17.44h0c-2.24.93-4.66.53-5.76.32-2.41-.45-20.81-4.14-46.02-9.46-11.96-2.91-21.22-3.79-23.13-2.19-1.14.96-1.51,2.07-1.51,2.07-.48,1.45.13,2.71.29,3.03,1.01,2.01,3.55,2.97,4.75,3.37,7.4,2.49,26.65,5.22,36.17,7.22,0,0,20.11,4.23,30.83,5.01.78.06,2.21.07,3.83-.42.91-.28,1.6-.63,2.03-.89.1-.3.2-.61.28-.93.79-2.93.54-5.65-.06-7.9Z"/>
      <path class="cls-8" d="M7.12,33.23c-.42.05-.65,1.89-.06,3.52.64,1.76,2.07,2.78,2.68,3.21,1.26.88,2.5,1.26,3.06,1.43,4.94,1.48,16.93,4.23,17.04,3.84.07-.24-4.54-1.44-10.66-3.03-5.64-1.47-7.32-1.74-8.96-3.27-2.64-2.47-2.53-5.75-3.09-5.68Z"/>
      <path class="cls-10" d="M8.9,50.89c-.33-.09-1.97,1.66-1.55,3.48.27,1.14,1.25,1.92,2.26,2.55,3.28,2.05,6.56,2.42,14.63,3.85.59.1,2.27.41,5.64,1.03,8.4,1.53,10.17,1.88,10.2,1.8.05-.17-5.13-1.71-11.24-2.92-1.9-.38-7.63-1.47-14.39-3.19-2.26-.57-4.79-1.26-5.62-3.01-.81-1.7.4-3.51.08-3.6Z"/>
      <path class="cls-9" d="M80.01,47.2c-10.58-2.38-21.16-4.77-31.73-7.15-1.66-.28-2.07-.29-2.09-.23-.1.29,10.22,2.9,18.51,4.82,3.36.78,15.97,3.69,16.19,3.11.05-.12-.46-.36-.88-.55Z"/>
      <path class="cls-11" d="M78.57,62.74c-9.32-1.89-18.63-3.78-27.95-5.67-1.46-.21-1.81-.21-1.83-.16-.07.27,9.02,2.36,16.32,3.89,2.96.62,14.06,2.93,14.24,2.41.04-.11-.41-.32-.79-.47Z"/>
      <ellipse class="cls-9" cx="73.63" cy="50.14" rx="1.07" ry=".39"/>
      <path class="cls-7" d="M69.92,48.77c0,.11.26.2.58.2s.58-.09.58-.2c0-.11-.26-.2-.58-.2s-.58.09-.58.2Z"/>
      <ellipse class="cls-7" cx="50.63" cy="47.54" rx="1.31" ry=".28"/>
      <path class="cls-7" d="M36.95,38.87c0,.12.65.21,1.45.21s1.45-.09,1.45-.21c0-.12-.65-.21-1.45-.21-.8,0-1.45.09-1.45.21Z"/>
      <ellipse class="cls-7" cx="18.18" cy="39.85" rx="1.12" ry=".42"/>
      <path class="cls-7" d="M15.78,38.63c0,.13.29.23.64.23s.64-.1.64-.23c0-.13-.29-.23-.64-.23s-.64.1-.64.23Z"/>
      <ellipse class="cls-7" cx="21.19" cy="37.97" rx="1" ry=".43"/>
      <path class="cls-7" d="M30.54,44.28c0,.09.22.16.48.16s.48-.07.48-.16-.22-.16-.48-.16-.48.07-.48.16Z"/>
      <ellipse class="cls-7" cx="13.07" cy="31.37" rx=".72" ry=".18"/>
      <ellipse class="cls-7" cx="9.12" cy="30.8" rx=".46" ry=".17"/>
      <ellipse class="cls-7" cx="81" cy="68.76" rx=".58" ry=".27"/>
      <path class="cls-7" d="M69.99,64.05c0,.16.51.29,1.14.29s1.14-.13,1.14-.29-.51-.29-1.14-.29-1.14.13-1.14.29Z"/>
      <path class="cls-7" d="M57.43,64.9c0,.17.29.31.64.31s.64-.14.64-.31c0-.17-.29-.31-.64-.31s-.64.14-.64.31Z"/>
      <ellipse class="cls-7" cx="59.56" cy="65.84" rx=".46" ry=".11"/>
      <ellipse class="cls-7" cx="45.22" cy="57.7" rx="1.16" ry=".16"/>
      <ellipse class="cls-7" cx="42.46" cy="56.38" rx=".75" ry=".13"/>
      <path class="cls-7" d="M33.67,60.79c0,.15.39.27.87.27s.87-.12.87-.27c0-.15-.39-.27-.87-.27s-.87.12-.87.27Z"/>
      <ellipse class="cls-7" cx="26" cy="55.06" rx=".68" ry=".22"/>
      <ellipse class="cls-7" cx="12.88" cy="50.68" rx=".58" ry=".21"/>
      <ellipse class="cls-7" cx="11.78" cy="55.06" rx=".52" ry=".22"/>
      <path class="cls-7" d="M13.46,56.47c0,.12.18.22.41.22s.41-.1.41-.22c0-.12-.18-.22-.41-.22s-.41.1-.41.22Z"/>
      <path class="cls-7" d="M14.04,54.6c0,.13.34.24.75.24s.75-.11.75-.24-.34-.24-.75-.24-.75.11-.75.24Z"/>
      <ellipse class="cls-7" cx="82.28" cy="52.98" rx=".68" ry=".22"/>
      <path class="cls-7" d="M83.23,47.63c0,.1.18.19.41.19s.41-.08.41-.19c0-.1-.18-.19-.41-.19s-.41.08-.41.19Z"/>
      <path class="cls-7" d="M82.97,65.15c0,.14.28.25.62.25s.62-.11.62-.25c0-.14-.28-.25-.62-.25s-.62.11-.62.25Z"/>
      <path class="cls-16" d="M84.6,48.19c.1,0,.17,1.7.1,3.24-.02.44-.05.99-.1,1-.07,0-.19-1.14-.17-2.28.01-.87.1-1.96.17-1.96Z"/>
      <path class="cls-16" d="M84.91,63.09c.05.26.11.73.1,1.72-.02,1.15-.13,1.88-.17,2.15-.01.08-.14.87-.19.87-.05,0,.06-.78.08-1.99.01-.96-.04-2.54-.04-2.66-.01-.46-.03-.86.02-.87.05,0,.16.47.21.79Z"/>
      <path class="cls-19" d="M53.52,17.24c1.04,1.09,2.46,2.62,1.91,4-.83,2.09-5.62,2.42-7.53,2.55-9.46.66-16.29-4.11-16.81-4.48-1.56-1.12-3.82-2.79-5.1-5.63-1.48-3.3-1.75-8.44,1.45-10.07,1.86-.95,4.21-.35,5.22-.1,4.48,1.13,4.39,3.88,9.16,7.18,4.86,3.36,7.91,2.56,11.71,6.55Z"/>
      <path class="cls-19" d="M20.36,10.65c.02.24-.66.52-2.03.82,4.35.41,6.52.8,6.51,1.16,0,.18-.55.36-1.64.53,3.92.59,7.84,1.19,11.77,1.78-2.4-2.5-4.79-5.01-7.19-7.51.2.63.2,1,0,1.11-.4.22-1.6-.57-3.59-2.36.19.55.19.89,0,1.01-.43.27-1.78-.49-4.06-2.27-.02-.01-.04-.03-.06-.04,0,.02.02.04.02.06.18.47.13.79-.02,1-.4.56-1.63.63-3.14.47-.73.38-1.38.74-1.93,1.07,1.24.85,1.78,1.46,1.6,1.84-.12.25-.57.4-1.33.44,3.38.22,5.08.52,5.1.9Z"/>
      <path class="cls-5" d="M20.36,9.91c.02.24-.66.52-2.03.82,4.35.41,6.52.8,6.51,1.16,0,.18-.55.36-1.64.53,2.3.35,4.61.7,6.91,1.05,1.62.24,3.23.49,4.85.73-2.4-2.5-4.79-5.01-7.19-7.51.2.63.2,1,0,1.11-.4.22-1.6-.57-3.59-2.36.19.55.19.89,0,1.01-.43.27-1.8-.5-4.12-2.31.21.5.16.83,0,1.06-.74,1.02-4.25.41-7.14-.29-.73-.18-1.42-.36-2.02-.53,4.11,2.13,6,3.53,5.68,4.19-.12.25-.57.4-1.33.44,3.37.22,5.08.52,5.1.9Z"/>
      <path class="cls-21" d="M34.69,14s-2.25-1.35-5.44-2.78c-.48-.21-.89-.39-1.21-.53-.28-1.49-.43-2.24-.44-2.24-.01,0,.11.74.37,2.21-2.17-.85-4.34-1.71-6.51-2.56-.47-1.5-.72-2.24-.73-2.24-.01,0,.19.74.62,2.2-.08-.03-.18-.07-.3-.12-2.27-.86-4.94-1.83-4.96-1.81-.01.02,1.44.59,2.65,1.06,2.52.99,4.57,1.77,5.96,2.29-1.94.44-2.9.67-2.9.68,0,.01,1.01-.2,3.03-.63.95.35,2.35.88,3.99,1.59,3.56,1.54,5.85,2.89,5.86,2.87Z"/>
      <path class="cls-19" d="M52.26,18.93c-.01-.4,1.43-.83,4.31-1.28-.67-.16-1.01-.33-1.03-.54-.05-.44,1.47-1,4.54-1.67-.62-.12-.94-.33-1.08-.56-.25-.41-.04-.98.45-1.62-.94-.88-1.89-1.77-2.83-2.65-1.4,1.47-2.26,2.13-2.58,1.98-.26-.12-.18-.74.23-1.87-2.73,2.84-4.27,4.17-4.64,3.97-.18-.1-.07-.58.33-1.44-2.69,2.45-5.37,4.9-8.06,7.34,3.83-.36,7.65-.72,11.48-1.08-.75-.19-1.12-.38-1.13-.59Z"/>
      <path class="cls-4" d="M47.51,19.63c.04-.4,1.53-.69,4.46-.87-.64-.22-.96-.43-.95-.63.01-.45,1.59-.86,4.74-1.24-.6-.18-.89-.41-1-.66-.63-1.4,3.85-4.03,6.48-5.44-.19.06-.38.11-.56.16-4.21,1.21-6.51,1.51-6.92.92-.16-.24-.02-.62.42-1.14-2.31,2.05-3.66,2.97-4.03,2.75-.24-.14-.08-.75.49-1.83-2.28,1.9-3.82,3.03-4.6,3.4-.28.13-.46.17-.55.11-.14-.09-.05-.42.27-.97.07-.13.16-.27.26-.43-.1.08-.21.15-.31.23-2.9,2.1-5.79,4.21-8.69,6.31,3.85,0,7.7,0,11.55,0-.72-.26-1.07-.49-1.04-.69Z"/>
      <path class="cls-21" d="M38.52,19.15s2.67-.63,6-1.8c.5-.18.93-.33,1.25-.46,1.58.75,2.38,1.12,2.38,1.11,0,0-.77-.39-2.32-1.14,2.16-.88,4.31-1.76,6.47-2.64,1.7.63,2.56.93,2.57.92,0-.01-.81-.33-2.46-.96.08-.03.18-.08.3-.13,2.22-.94,4.8-2.07,4.79-2.1-.01-.02-1.45.57-2.65,1.06-2.5,1.02-4.51,1.87-5.87,2.44.79-1.53,1.18-2.3,1.16-2.31-.01,0-.45.78-1.3,2.36-.92.4-2.29.98-3.98,1.61-3.67,1.35-6.36,2-6.35,2.03Z"/>
      <path class="cls-18" d="M20.36,9.91c.02.24-.66.52-2.03.82,4.35.41,6.52.8,6.51,1.16,0,.18-.55.36-1.64.53,2.3.35,4.61.7,6.91,1.05.54-.47.97-.93,1.3-1.3-6.16-2.42-12.32-4.84-18.48-7.26-.73-.18-1.42-.36-2.02-.53,4.11,2.13,6,3.53,5.68,4.19-.12.25-.57.4-1.33.44,3.37.22,5.08.52,5.1.9Z"/>
      <path class="cls-18" d="M50.63,11.66c-2.28,1.9-3.82,3.03-4.6,3.4.34.9.74,1.63.93,1.95,4.57-2.02,9.14-4.04,13.71-6.06-4.21,1.21-6.51,1.51-6.92.92-.16-.24-.02-.62.42-1.14-2.31,2.05-3.66,2.97-4.03,2.75-.24-.14-.08-.75.49-1.83Z"/>
      <path class="cls-18" d="M45.69,14c.02.07.04.13.05.2.07-.13.16-.27.26-.43-.1.08-.21.15-.31.23Z"/>
      <path class="cls-2" d="M30.66,16.91c1.69,2.23,4.32,3.85,7.39,4.7,5.34,1.47,12,.57,17.28-3.64-7.72-5.99-15.45-11.98-23.17-17.96-.23.28-.45.57-.66.86-3.83,5.27-4.08,11.76-.83,16.05Z"/>
      <path class="cls-3" d="M55.32,17.96C47.6,11.98,39.87,5.99,32.15,0c-.18.4-3.67,8.28,1.32,14.49,4.49,5.58,13.88,7.41,21.85,3.47Z"/>
      <path class="cls-1" d="M54.82,17.57C47.35,11.78,39.88,6,32.42.21c-.11.18-.23.46-.23.8.03,1.27,1.92,2.17,2.76,2.58,1.88.93,4.37,2.35,7.91,4.71-4.13-1.38-6.8-3.06-8.5-4.38-1.02-.79-1.92-1.63-2.48-1.37-.8.37-.71,2.96.77,4.12.9.71,1.94.58,3.84.67,1.55.07,3.73.29,6.37.96-1.63.28-3.75.53-6.22.5-2.02-.02-3.16-.21-3.51.35-.46.73.81,2.12,2.5,3.98,1.7,1.86,2.64,2.91,3.42,2.69.87-.24.62-1.81,1.71-4.25.67-1.5,1.52-2.6,2.1-3.27.04,1.06,0,2.63-.37,4.48-.5,2.49-1.17,3.23-.69,4.16,1.02,1.98,5.95,2.38,6.68,1.18.36-.59-.39-1.39-1.77-3.35-1.75-2.51-3-4.75-3.86-6.46,2.93,2.4,4.5,4.67,5.4,6.36.7,1.3,1.29,2.8,2.84,3.34,1.31.46,2.72.02,3.72-.43Z"/>
      <path class="cls-22" d="M46.31,14.84c.58.73.88,1.11,1.09,1.64.09.23.25.71.18.74-.17.07-1.7-2.72-1.6-2.77.02,0,.12.12.33.39Z"/>
      <path class="cls-22" d="M44.66,13.3c.31.51.59,1.19.63,2,.01.29.02.52-.04.54-.2.04-1.11-2.43-.77-2.58.05-.02.12.01.18.05Z"/>
      <path class="cls-22" d="M43.9,15.88c.12.67.28,1.53.2,1.54-.06.01-.28-.5-.39-1.04-.14-.7-.08-1.37-.02-1.38.04,0,.1.29.2.87Z"/>
      <path class="cls-22" d="M47.95,13.3c.21.53.49.92.9,1.44.34.43.48.64.75.86.11.09.44.36.51.3.13-.1-.6-1.1-.79-1.36-.54-.74-1.37-1.74-1.49-1.66-.05.03,0,.16.11.42Z"/>
      <path class="cls-22" d="M52.99,17.11c.06-.05-.36-.54-.64-.82-.56-.57-1.27-1.09-1.34-1.02-.06.06.4.6.79.97.5.48,1.13.93,1.2.87Z"/>
      <path class="cls-22" d="M46.39,11.29s-.18-.2-.33-.34c-.11-.1-.31-.29-.33-.27-.02.01.08.15.18.27.2.22.46.36.48.34Z"/>
      <path class="cls-22" d="M43.64,11.81c.01-.07.04-.23.08-.23.07,0,.13.44.18.83.07.49.1.73.07.74-.07.01-.27-.49-.33-.99,0-.04-.03-.18,0-.35Z"/>
      <path class="cls-22" d="M42.73,14.4c.08,0,.16.32.18.58.02.29-.04.67-.12.68-.1,0-.27-.5-.18-.97.01-.06.06-.29.12-.29Z"/>
      <path class="cls-22" d="M43.16,10c.05,0,.18.29.22.59.05.34,0,.7-.07.7-.08,0-.16-.54-.18-.96,0-.15-.01-.33.03-.34Z"/>
      <path class="cls-22" d="M38.19,9.33c0-.12-.84-.24-1.66-.1-.8.13-1.53.51-1.49.63.06.18,1.83-.18,2.18-.25.59-.12.97-.2.97-.28Z"/>
      <path class="cls-22" d="M36.7,10.84c-.51.08-.6.03-.86.13-.37.14-.72.44-.66.55.07.15.87.02,1.49-.25.48-.21.89-.51.86-.58-.03-.05-.27.06-.83.15Z"/>
      <path class="cls-22" d="M40.65,9.18c-.97.31-1.02.32-1.19.4-.42.22-.83.57-.77.65.07.1.82-.17,1.35-.43.63-.31,1.2-.71,1.16-.78-.02-.02-.1,0-.55.15Z"/>
      <path class="cls-22" d="M38.99,11.77c-.28.2-.62.44-.91.83-.25.34-.52.84-.41.91.13.09.81-.56.88-.63.62-.6,1.13-1.35,1.02-1.43-.06-.04-.26.1-.58.33Z"/>
      <path class="cls-22" d="M37.13,12.92c.15-.15.4-.43.33-.5-.08-.09-.67.15-.95.58-.04.06-.15.24-.1.29.08.07.46-.12.72-.36Z"/>
      <path class="cls-22" d="M38.44,15.08c.07.04.3-.15.43-.3.22-.26.34-.62.26-.67-.07-.04-.29.16-.41.3-.22.26-.36.62-.28.67Z"/>
      <path class="cls-22" d="M34.82,4.61s-.13-.18-.44-.45c-.5-.44-.76-.67-.83-.62-.07.05.07.43.37.7.35.32.85.44.9.37Z"/>
      <path class="cls-22" d="M38.59,6.96s-.48-.28-.96-.5c-.43-.2-.58-.25-.72-.29-.38-.1-.83-.13-.85-.07-.02.09.73.33,1.29.52.27.09,1.2.4,1.23.34Z"/>
      <path class="cls-22" d="M35.55,6.54c-.35-.13-.63-.19-.77-.22-.25-.05-.76-.13-.77-.08-.02.05.51.24.96.35.49.13,1.05.22,1.07.17.01-.04-.29-.15-.48-.22Z"/>
      <path class="cls-22" d="M33.64,4.63s-.36-.3-.83-.45c-.5-.17-1-.2-1.01-.15,0,0,.01.03.72.27.74.25,1.1.37,1.12.34Z"/>
      <path class="cls-22" d="M34.3,5.89c-.03.1-.5.04-.7,0-.37-.06-.9-.23-.88-.34.02-.11.57-.17,1.05-.02.27.09.56.27.53.35Z"/>
      <path class="cls-22" d="M37.32,4.61c-.04.05-.41-.12-.68-.27-.32-.18-.72-.48-.68-.54.04-.06.57.13.99.44.17.12.4.32.37.37Z"/>
      <path class="cls-22" d="M35.52,3.02s-.37-.41-.61-.6c-.47-.39-1.04-.74-1.09-.69-.04.04.33.38.57.59.49.41,1.08.75,1.12.7Z"/>
      <path class="cls-22" d="M33.46,2.15s-.07-.25-.24-.4c-.25-.22-.63-.29-.66-.23-.05.08.45.39.59.49.16.1.28.18.31.15Z"/>
      <path class="cls-14" d="M40.01,20.38c.07-.18-.66-.63-1.38-.86-.65-.2-1.56-.31-1.63-.13-.09.22,1.03.89,2.21,1.03.19.02.74.09.8-.05Z"/>
      <path class="cls-14" d="M36.12,18.24c.13-.12-.07-.6-.44-.83-.38-.24-.94-.24-1.02-.08-.09.17.37.53.69.7.06.03.62.34.77.2Z"/>
      <path class="cls-14" d="M42.5,20.56c.06-.09-.15-.39-.47-.48-.3-.09-.65.02-.66.13-.02.19,1.02.51,1.13.35Z"/>
      <path class="cls-17" d="M30.66,16.91c1.69,2.23,4.32,3.85,7.39,4.7-.68-.34-1.65-.89-2.69-1.67-1.18-.87-4.62-3.5-5.68-7.75-.53-2.12-.26-3.79.06-5.73.38-2.37,1.13-4.28,1.76-5.6-3.83,5.27-4.08,11.76-.83,16.05Z"/>
      <path class="cls-20" d="M52.62,18.93s-2.32.87-5.42.99c-4.21.16-7.22-1.07-7.82-1.32-1.03-.44-2.16-1.06-2.12-1.13.05-.07,1.2.41,2.43.82,1.06.35,4.57,1.47,8.61,1.3,2.56-.11,4.31-.69,4.32-.65Z"/>
    </g>
  </g>
</svg>