<?xml version="1.0" encoding="UTF-8"?>
<svg id="Layer_2" data-name="Layer 2" xmlns="http://www.w3.org/2000/svg" viewBox="0 0 88.19 67.54">
  <defs>
    <style>
      .cls-1 {
        fill: #ffe0b6;
      }

      .cls-2 {
        fill: #123d68;
      }

      .cls-3 {
        fill: #ffdaa4;
      }

      .cls-4 {
        fill: #2b618e;
      }

      .cls-5 {
        fill: #fc8;
      }

      .cls-6 {
        fill: #ffe6bb;
      }

      .cls-7 {
        fill: #fcd7a2;
      }

      .cls-8 {
        fill: #0d2e4f;
      }

      .cls-9 {
        fill: #eb8b3e;
      }

      .cls-10 {
        fill: #1d487b;
      }

      .cls-11 {
        fill: #ffd7a6;
      }

      .cls-12 {
        fill: #6e9327;
      }

      .cls-13 {
        fill: #85aa3f;
      }

      .cls-14 {
        fill: #76a02f;
      }

      .cls-15 {
        fill: #fcb36b;
        opacity: .35;
      }

      .cls-16 {
        fill: #e2803d;
      }

      .cls-17 {
        fill: #ffefd4;
      }
    </style>
  </defs>
  <g id="Layer_1-2" data-name="Layer 1">
    <g>
      <path class="cls-9" d="M0,51.38c-.07,1.84,1.3,3.41,3.12,3.62h0s85.05,13.95,85.05,12.43c0-2.26,0-4.33,0-5.41.02-3.29-87.89-18.46-87.89-18.46L0,51.38Z"/>
      <path class="cls-6" d="M88.17,27.37c-.36-.22-84.65-15.15-87.26-15.23C0,13.13.29,43.28.29,43.28c0,1.08-.27,5,6.67,6.55,11.87,2.66,81.21,13.98,81.21,12.21,0-1.96.03-33.31,0-34.67Z"/>
      <path class="cls-3" d="M53.77.28h0s0,0,0,0c-.04,0-.24-.03-.58-.06-6.06-.62-17.04-.04-34.67,3.32C6.17,5.88,2.19,9.84.91,12.14l87.26,15.23L53.77.28Z"/>
      <g>
        <path class="cls-16" d="M82.9,63.18c-.45-.23,0-.7.22-.59.22.12-.03.68-.22.59Z"/>
        <path class="cls-16" d="M69.92,61.98c.12-.85,1.14-.39,1.06.03-.07.41-1.11.32-1.06-.03Z"/>
        <path class="cls-16" d="M10.07,51.63c.92.1.45,1.21,0,1.14-.45-.06-.38-1.18,0-1.14Z"/>
        <path class="cls-16" d="M13.11,55.52c.55-.22.61.55.34.65-.27.1-.57-.56-.34-.65Z"/>
        <path class="cls-16" d="M21.41,56.35c.49.25,0,.76-.24.63-.23-.13.04-.73.24-.63Z"/>
        <path class="cls-16" d="M2.09,50.2c-.58.51-1-.4-.71-.64.29-.24.94.43.71.64Z"/>
        <path class="cls-16" d="M36.71,56.47c.2.59-.61.61-.7.32-.09-.29.62-.56.7-.32Z"/>
        <path class="cls-16" d="M39.56,59.97c-.59.22-.64-.59-.35-.69.29-.1.59.6.35.69Z"/>
        <path class="cls-16" d="M30.12,58.15c-.3-.55.5-.72.64-.44.14.27-.52.67-.64.44Z"/>
        <path class="cls-16" d="M74.17,65.15c.07-.49.65-.21.61.02-.04.24-.64.18-.61-.02Z"/>
        <path class="cls-16" d="M47.56,61.05c-.86.13-.7-.99-.28-1.04.42-.05.63.98.28,1.04Z"/>
        <path class="cls-16" d="M56.35,59.9c-.37-.32.17-.66.35-.5.17.16-.2.63-.35.5Z"/>
        <path class="cls-16" d="M52.25,59.83c-.5.67-1.14-.2-.88-.52.25-.32,1.09.25.88.52Z"/>
        <path class="cls-16" d="M78.33,63.45c-.4-.31.13-.69.32-.54.19.16-.16.66-.32.54Z"/>
        <path class="cls-16" d="M87.43,64.35c-.71-.05-.38-.91-.03-.88.35.04.32.9.03.88Z"/>
        <path class="cls-16" d="M79.8,65.38c.57.2.1.83-.17.72-.27-.11-.06-.8.17-.72Z"/>
        <path class="cls-16" d="M71.97,65.45c-.91-.18-.34-1.24.1-1.14.44.1.27,1.21-.1,1.14Z"/>
        <path class="cls-16" d="M74.93,62.79c-.48.13-.47-.52-.23-.57.24-.06.43.52.23.57Z"/>
        <path class="cls-16" d="M31.48,55.66c.41-.5.88.2.67.44-.21.24-.84-.24-.67-.44Z"/>
        <path class="cls-16" d="M41,58.03c-.63-.67.43-1.2.73-.87.3.34-.47,1.14-.73.87Z"/>
        <path class="cls-16" d="M6.71,54.37c-.09-.86,1.01-.65,1.04-.23.03.42-1.01.58-1.04.23Z"/>
        <path class="cls-16" d="M25.42,57.24c-.46.31-.67-.38-.44-.52.23-.14.63.4.44.52Z"/>
        <path class="cls-16" d="M22.01,53.92c.16-.5.72-.12.63.12-.08.24-.7.08-.63-.12Z"/>
        <path class="cls-16" d="M5.1,51.23c-.6.3-.75-.56-.45-.7.3-.14.7.58.45.7Z"/>
        <path class="cls-16" d="M17.66,56.53c-.46-.7.58-1.01.79-.66.21.35-.6.95-.79.66Z"/>
        <path class="cls-16" d="M33.73,58.89c-.42-.38.21-.76.41-.57.2.19-.23.72-.41.57Z"/>
        <path class="cls-16" d="M83.51,66.16c-.65-.23-.11-.95.2-.83.31.12.07.92-.2.83Z"/>
        <path class="cls-16" d="M66.75,61.34c.27.8-.82.84-.94.45-.12-.4.83-.77.94-.45Z"/>
        <path class="cls-16" d="M61.06,60.14c.64.01.38.81.07.79-.31-.02-.33-.8-.07-.79Z"/>
        <path class="cls-16" d="M4.46,53.24c-.52.65-1.13-.24-.86-.55.26-.31,1.08.29.86.55Z"/>
        <path class="cls-16" d="M.94,51.81c.89.34.14,1.31-.29,1.14-.43-.18-.07-1.27.29-1.14Z"/>
        <path class="cls-16" d="M17.25,53.86c-.53-.65.48-1.06.72-.73.25.32-.51,1-.72.73Z"/>
        <path class="cls-16" d="M26.93,55.26c-.27-.68.68-.77.8-.43.12.34-.69.71-.8.43Z"/>
        <path class="cls-16" d="M44.47,58.24c-.61.17-.59-.64-.29-.72.3-.07.54.65.29.72Z"/>
        <path class="cls-16" d="M56.65,61.65c.93-.22.86,1.01.4,1.11-.46.09-.78-1.02-.4-1.11Z"/>
        <path class="cls-16" d="M52.42,61.91c.41.34-.17.72-.36.55-.2-.17.19-.69.36-.55Z"/>
        <path class="cls-16" d="M62.58,63.15c.24-.63.93-.1.81.21-.13.3-.9.05-.81-.21Z"/>
        <path class="cls-16" d="M14.26,53.1c-.25.48-.76,0-.63-.24.13-.23.73.04.63.24Z"/>
      </g>
      <path class="cls-1" d="M5.94,10.77c.17-1.73,8.13-5.74,23.47-7.69,15.34-1.96,23-1.82,23.73-1.57.72.25,30.4,22.71,29.68,23.16-.72.45-50.77-8.59-55.11-9.43-4.34-.85-21.95-2.57-21.76-4.46Z"/>
      <path class="cls-17" d="M2.55,15.32c-.62.54-.26,25.96,0,27.72s1.57,3.89,10.58,5.39c9.01,1.5,33.51,6.34,41.12,7.41,7.61,1.07,30.86,4.93,31.13,4.25.27-.68,1.42-26.64.59-29.11-.62-1.85-30.11-6.33-40.93-8.37-9.76-1.84-41.67-8-42.49-7.28Z"/>
      <g>
        <path class="cls-11" d="M52.47,2.85c.24.27.47.63.22.82-.24.18-.69.21-.88-.03-.18-.24-.18-.53-.02-.79.21-.32.47-.23.67,0Z"/>
        <path class="cls-11" d="M60.47,10.24c.14-.32.37-.67.63-.53.26.14.47.52.33.78-.14.26-.39.37-.68.33-.37-.05-.39-.32-.27-.59Z"/>
        <path class="cls-11" d="M61.25,14.86c.17.24.33.56.11.69-.22.13-.58.11-.71-.1-.13-.22-.1-.45.05-.64.2-.25.4-.15.55.06Z"/>
        <path class="cls-11" d="M68.78,16.64c.23.18.46.42.29.6-.16.18-.51.27-.68.11-.18-.16-.22-.38-.13-.61.11-.28.33-.25.52-.1Z"/>
        <path class="cls-11" d="M77.9,22.77c-.07.28-.21.59-.44.51-.23-.08-.45-.36-.37-.6s.27-.36.51-.36c.31,0,.36.21.3.44Z"/>
        <path class="cls-11" d="M71.19,21.57c-.24-.06-.51-.19-.44-.38.07-.2.31-.38.51-.32.2.07.3.23.31.44,0,.26-.18.31-.38.26Z"/>
        <path class="cls-11" d="M63.92,18.39c.19.32.35.73.07.87-.28.14-.74.09-.88-.19s-.09-.57.13-.8c.27-.29.52-.15.68.12Z"/>
        <path class="cls-11" d="M54.65,10.93c.12.25.21.57,0,.65-.22.09-.56.01-.64-.21s-.02-.43.15-.59c.22-.2.4-.07.5.14Z"/>
        <path class="cls-11" d="M56.46,17.75c.17.11.36.26.26.4-.1.14-.34.23-.48.13-.14-.1-.19-.25-.14-.42.06-.21.21-.2.36-.11Z"/>
        <path class="cls-11" d="M44.29,15.1c.35.11.75.3.63.59-.11.29-.49.56-.78.45-.29-.11-.44-.36-.44-.67,0-.39.28-.45.58-.36Z"/>
        <path class="cls-11" d="M28.4,13.62c-.2.07-.45.1-.49-.07-.04-.17.05-.42.22-.47.17-.04.33.02.43.17.13.19.02.31-.15.36Z"/>
        <path class="cls-11" d="M10.63,10.11c-.15-.14-.3-.34-.17-.46.13-.12.39-.16.5-.02.12.13.13.29.05.45-.1.19-.26.16-.38.03Z"/>
        <path class="cls-11" d="M20.17,11.77c-.15.29-.38.61-.61.47-.24-.14-.41-.51-.27-.75.14-.24.38-.33.66-.28.34.07.36.32.23.57Z"/>
        <path class="cls-11" d="M20.81,5.86c.25.13.51.34.39.54-.13.2-.45.34-.65.22-.2-.13-.28-.34-.23-.57.06-.29.28-.3.49-.19Z"/>
        <path class="cls-11" d="M31.21,8.06c.32.14.67.36.53.62-.14.26-.52.47-.78.34-.26-.14-.38-.39-.34-.68.05-.37.31-.4.58-.28Z"/>
        <path class="cls-11" d="M34.64,4.32c.11.26.18.58-.05.66s-.56-.02-.64-.25,0-.43.19-.58c.24-.18.4-.05.49.17Z"/>
        <path class="cls-11" d="M40.02,9.85c.31.09.65.26.56.51-.1.26-.42.49-.68.4-.26-.1-.39-.31-.39-.58,0-.34.24-.4.5-.32Z"/>
        <path class="cls-11" d="M41.04,4.32c.06.28.07.61-.17.64-.24.03-.55-.13-.58-.36-.03-.24.08-.43.29-.53.27-.14.41.03.45.26Z"/>
        <path class="cls-11" d="M50.17,6.8c.15.19.28.44.11.55-.17.11-.47.11-.58-.06-.11-.17-.1-.36.02-.52.15-.2.32-.13.44.03Z"/>
        <path class="cls-11" d="M51.92,15.07c.28-.11.63-.18.7.06.07.24-.03.6-.27.68-.24.07-.46,0-.62-.21-.19-.25-.05-.43.19-.52Z"/>
        <path class="cls-11" d="M34.69,14.2c-.06-.38-.05-.83.27-.85.32-.02.73.21.76.53.02.32-.14.57-.43.7-.37.17-.55-.06-.6-.38Z"/>
        <path class="cls-11" d="M26.88,5.93c-.09.29-.25.62-.49.53-.24-.09-.46-.4-.37-.65.09-.24.3-.37.56-.36.33,0,.38.24.3.48Z"/>
        <path class="cls-11" d="M14.24,10.76c-.26-.2-.52-.48-.34-.69.18-.21.58-.31.78-.12.21.18.25.44.15.7-.13.32-.38.29-.6.12Z"/>
        <path class="cls-11" d="M46.31,3.88c-.16-.27-.3-.62-.06-.74.24-.12.63-.07.75.17.12.24.07.48-.11.68-.23.24-.44.12-.58-.11Z"/>
        <path class="cls-11" d="M48.64,10.2c.23.2.45.47.27.64-.18.18-.54.25-.72.07-.18-.18-.21-.41-.1-.64.13-.29.36-.24.55-.08Z"/>
        <path class="cls-11" d="M65.5,13.13c.3.03.65.12.61.38-.04.25-.3.53-.56.49-.25-.04-.42-.22-.46-.47-.06-.32.16-.41.41-.39Z"/>
        <path class="cls-11" d="M43.29,7.11c-.08.2-.22.42-.38.34-.16-.08-.3-.32-.21-.48.08-.16.24-.24.42-.22.23.03.25.19.18.36Z"/>
        <path class="cls-11" d="M55.36,6.94c.03.25.02.54-.2.55-.21,0-.48-.15-.49-.36,0-.21.1-.37.3-.45.24-.1.36.05.38.26Z"/>
      </g>
      <g>
        <path class="cls-7" d="M47.42.84c-.06-.23-.1-.5.1-.54s.46.07.5.26-.04.36-.21.46c-.21.13-.34,0-.39-.18Z"/>
        <path class="cls-7" d="M39.07,1.25c.05.19.07.41-.09.44-.16.03-.38-.06-.41-.22-.03-.16.04-.29.18-.38.18-.1.28,0,.32.16Z"/>
        <path class="cls-7" d="M38.68,17.71c.1-.11.24-.22.33-.13.09.09.12.28.03.37s-.21.1-.33.04c-.14-.07-.12-.18-.03-.28Z"/>
        <path class="cls-7" d="M3.64,10.42c.19-.06.43-.1.47.06.04.16-.04.4-.2.44-.16.04-.31-.02-.41-.16-.12-.18-.02-.29.14-.35Z"/>
        <path class="cls-7" d="M10.21,6.75c-.07.21-.18.45-.36.38-.17-.07-.33-.29-.26-.47s.22-.26.4-.26c.23,0,.27.17.22.35Z"/>
        <path class="cls-7" d="M16.84,4.95c-.18-.16-.35-.38-.21-.52.15-.14.44-.19.58-.05.14.15.16.33.07.51-.11.23-.29.19-.44.05Z"/>
        <path class="cls-7" d="M32.38,2.1c-.13.03-.29.04-.31-.07-.02-.11.05-.26.17-.28.11-.02.21.04.26.14.07.13,0,.19-.12.22Z"/>
        <path class="cls-7" d="M24.55,3.35c-.18-.02-.4-.07-.37-.23.03-.15.18-.32.34-.3.15.03.25.13.28.29.04.19-.09.25-.25.24Z"/>
        <path class="cls-7" d="M7.69,12.75c-.06-.14-.1-.31.02-.35.12-.04.3.01.34.13.04.12,0,.23-.1.31-.13.1-.22.03-.26-.09Z"/>
        <path class="cls-7" d="M17.05,14.13c.13.02.27.07.24.18-.03.11-.14.21-.25.19-.11-.03-.17-.11-.18-.21-.01-.14.08-.17.19-.15Z"/>
        <path class="cls-7" d="M28.26,16.01c.15-.04.34-.05.36.08.02.13-.06.31-.19.33-.13.02-.24-.04-.3-.15-.08-.15,0-.23.14-.26Z"/>
        <path class="cls-7" d="M46.23,19.28c.07-.17.19-.35.33-.28.14.07.25.27.18.41-.07.14-.2.2-.36.18-.19-.02-.21-.16-.15-.31Z"/>
        <path class="cls-7" d="M56.08,21c.2-.16.46-.3.57-.12.12.18.12.49-.05.61-.18.12-.37.11-.54-.02-.22-.16-.14-.33.02-.46Z"/>
        <path class="cls-7" d="M67.88,23.06c-.06.18-.17.38-.31.32-.15-.06-.28-.26-.22-.41.06-.15.19-.22.35-.22.2,0,.23.15.18.31Z"/>
        <path class="cls-7" d="M76.53,24.39c.19.01.41.06.39.22-.02.16-.18.34-.34.32-.16-.02-.27-.13-.3-.28-.04-.2.09-.26.25-.25Z"/>
        <path class="cls-7" d="M83.87,25.68c.07-.27.21-.57.43-.5.22.08.44.35.36.58-.08.22-.26.34-.5.35-.3,0-.35-.2-.29-.43Z"/>
        <path class="cls-7" d="M78.95,20.74c-.12.02-.27.02-.28-.08-.01-.1.06-.24.17-.25s.19.04.23.14c.06.12-.02.18-.12.2Z"/>
        <path class="cls-7" d="M66.12,10.77c-.05-.09-.09-.2-.03-.25.06-.05.15-.05.19.03s.03.16,0,.23c-.05.09-.11.06-.14-.01Z"/>
        <path class="cls-7" d="M71.63,14.83c-.05.08-.12.18-.19.16-.07-.02-.12-.11-.07-.18s.12-.11.2-.11c.1,0,.1.06.06.13Z"/>
        <path class="cls-7" d="M74.88,17.35c.11-.01.24,0,.24.09s-.09.22-.18.23c-.09,0-.16-.05-.19-.14-.03-.11.04-.17.13-.18Z"/>
        <path class="cls-7" d="M57.43,3.99c-.12-.05-.26-.13-.21-.24.05-.1.19-.18.3-.13.1.05.15.15.13.26-.02.14-.12.15-.22.11Z"/>
        <path class="cls-7" d="M62.04,7.25c-.04.13-.1.27-.21.24-.11-.04-.21-.17-.17-.28s.13-.16.24-.17c.14,0,.17.1.14.21Z"/>
        <path class="cls-7" d="M53.8.86c.15.14.29.33.16.44-.12.11-.37.15-.48.03-.11-.12-.13-.28-.05-.43.1-.19.25-.15.37-.03Z"/>
      </g>
      <g>
        <path class="cls-6" d="M4.65,15.54c.16.26.3.59.07.71-.23.12-.61.08-.73-.15-.12-.23-.08-.47.1-.66.22-.24.42-.13.56.09Z"/>
        <path class="cls-6" d="M8.85,20.25c.11.29.18.65-.07.72-.25.07-.62-.04-.69-.29-.07-.25.01-.48.22-.63.26-.2.44-.05.54.2Z"/>
        <path class="cls-6" d="M9.96,17.01c.21-.04.47-.04.49.14.02.18-.1.42-.28.44-.18.02-.33-.07-.41-.23-.1-.2.02-.31.2-.34Z"/>
        <path class="cls-6" d="M13.29,21.35c.26-.2.59-.38.74-.15.15.23.15.63-.08.78-.23.15-.48.13-.7-.03-.28-.2-.18-.43.04-.6Z"/>
        <path class="cls-6" d="M15.98,18.09c-.19.19-.45.37-.6.2-.15-.17-.19-.5-.02-.65s.38-.16.58-.05c.25.14.19.34.03.5Z"/>
        <path class="cls-6" d="M8.66,41.23c.16-.08.37-.13.42,0,.05.14,0,.36-.14.41-.14.05-.28.01-.37-.1-.12-.14-.04-.25.09-.32Z"/>
        <path class="cls-6" d="M18.17,21.37c-.2-.03-.43-.11-.39-.28.04-.17.23-.34.4-.3.17.04.27.17.29.34.02.22-.12.27-.29.24Z"/>
        <path class="cls-6" d="M20.81,19.83c-.13-.25-.24-.57-.02-.67s.57-.03.67.19c.1.22.04.44-.14.61-.22.21-.4.09-.52-.13Z"/>
        <path class="cls-6" d="M25.7,29.24c-.27.12-.61.21-.7-.03-.08-.24,0-.59.24-.68.24-.08.46,0,.62.18.2.24.06.42-.17.53Z"/>
        <path class="cls-6" d="M28.03,20.35c.05.31.05.68-.22.7-.26.02-.61-.17-.63-.43-.02-.26.11-.47.35-.58.3-.14.45.05.49.31Z"/>
        <path class="cls-6" d="M24.11,22.43c.12.17.24.39.09.48-.15.09-.41.09-.5-.06-.09-.15-.08-.31.03-.45.13-.17.28-.11.38.03Z"/>
        <path class="cls-6" d="M36.29,38.87c-.04.19-.12.4-.28.36s-.31-.23-.27-.39c.05-.16.17-.25.33-.26.2-.01.25.13.22.29Z"/>
        <path class="cls-6" d="M32.23,22.05c-.22-.15-.45-.36-.32-.54.14-.18.45-.28.63-.15.18.14.23.34.16.55-.08.27-.29.25-.47.13Z"/>
        <path class="cls-6" d="M35.42,25.35c-.3-.02-.64-.09-.61-.34.03-.25.28-.53.52-.5.25.03.41.2.47.44.07.31-.14.41-.39.39Z"/>
        <path class="cls-6" d="M38.73,22.81c-.18.12-.42.23-.51.06-.09-.16-.07-.43.09-.52.16-.09.33-.06.47.06.18.15.1.3-.05.4Z"/>
        <path class="cls-6" d="M42.51,26.59c.06.27.08.6-.16.64-.23.03-.55-.12-.58-.35-.03-.23.08-.43.28-.54.26-.14.4.02.45.25Z"/>
        <path class="cls-6" d="M84.07,37.24c-.11.15-.26.31-.38.21-.12-.1-.19-.32-.09-.44.1-.12.24-.16.39-.1.19.07.17.21.08.34Z"/>
        <path class="cls-6" d="M68.86,32.66c.19-.02.41,0,.41.16,0,.16-.12.36-.28.36-.16,0-.28-.09-.33-.24-.07-.19.05-.27.21-.28Z"/>
        <path class="cls-6" d="M58.83,31.12c-.03-.14-.04-.31.08-.33s.28.06.3.18c.02.12-.04.22-.15.28-.14.07-.21-.01-.23-.13Z"/>
        <path class="cls-6" d="M50.26,29.21c.2-.06.45-.09.48.08.04.17-.06.41-.23.45-.17.04-.32-.03-.41-.18-.12-.19,0-.3.16-.35Z"/>
        <path class="cls-6" d="M43.66,31.32c-.1.15-.24.3-.36.21-.12-.09-.19-.3-.1-.42.09-.12.23-.15.37-.11.18.06.17.19.09.32Z"/>
        <path class="cls-6" d="M3.99,21.96c-.17-.17-.34-.39-.19-.53s.45-.18.58-.03.15.34.05.52c-.12.23-.3.18-.44.04Z"/>
        <path class="cls-6" d="M26.56,47.62c-.15-.13-.29-.31-.17-.42s.36-.16.47-.04.13.27.06.42c-.09.19-.23.16-.36.05Z"/>
        <path class="cls-6" d="M46.11,47.06c-.02-.27,0-.58.23-.58.23,0,.5.18.5.41,0,.23-.13.39-.34.47-.27.1-.38-.07-.4-.3Z"/>
        <path class="cls-6" d="M27.89,25.08c.22.06.46.17.39.35s-.28.35-.46.28c-.18-.06-.27-.21-.28-.4,0-.24.16-.28.35-.23Z"/>
        <path class="cls-6" d="M36.32,29.23c-.21-.06-.44-.18-.37-.35.07-.17.29-.33.46-.26.17.07.26.21.25.4,0,.23-.17.27-.34.21Z"/>
        <path class="cls-6" d="M46.16,23.49c-.01-.24.02-.53.22-.53.21,0,.46.17.45.38,0,.21-.12.36-.32.42-.24.08-.34-.07-.36-.28Z"/>
        <path class="cls-6" d="M50.3,26.77c.24.17.48.41.32.6-.16.19-.5.29-.69.14-.19-.16-.24-.38-.16-.61.1-.29.32-.27.52-.12Z"/>
        <path class="cls-6" d="M53.84,25.27c-.13-.18-.24-.41-.08-.5.16-.1.43-.08.52.07.1.16.08.33-.04.47-.14.18-.3.11-.4-.04Z"/>
        <path class="cls-6" d="M55.22,28.22c.16-.15.37-.3.49-.15.12.14.15.41,0,.53-.14.12-.32.12-.48.03-.2-.12-.15-.28-.02-.41Z"/>
        <path class="cls-6" d="M61.29,28.69c.17-.02.38-.01.39.14,0,.15-.11.34-.25.34s-.26-.07-.32-.21c-.07-.17.04-.25.18-.27Z"/>
        <path class="cls-6" d="M59.59,25.73c.21-.2.5-.4.66-.21.16.19.2.56,0,.72-.19.16-.43.17-.64.04-.27-.16-.2-.38-.02-.55Z"/>
        <path class="cls-6" d="M66,29.96c.08-.16.2-.33.33-.25.13.08.22.27.15.4-.08.13-.2.18-.35.15-.18-.03-.19-.17-.13-.3Z"/>
        <path class="cls-6" d="M65.66,27.71c-.26-.1-.55-.28-.45-.49s.41-.39.62-.29c.22.1.31.3.29.54-.03.3-.25.33-.47.24Z"/>
        <path class="cls-6" d="M73.21,35.3c.07-.17.18-.35.31-.28.14.07.25.26.18.4-.07.14-.19.2-.35.18-.19-.02-.21-.16-.15-.3Z"/>
        <path class="cls-6" d="M70.43,29.18c-.05-.24-.05-.53.15-.56.21-.02.48.11.5.32s-.08.37-.26.46c-.23.12-.35-.03-.39-.23Z"/>
        <path class="cls-6" d="M75.82,28.73c-.02.21-.08.45-.25.42-.18-.03-.37-.2-.34-.38.03-.18.15-.29.32-.33.22-.04.29.1.27.28Z"/>
        <path class="cls-6" d="M77.19,32.46c-.02-.31.01-.68.28-.68.27,0,.59.22.59.48,0,.27-.15.46-.4.55-.31.11-.45-.09-.46-.35Z"/>
        <path class="cls-6" d="M82.17,30.4c-.09-.15-.17-.35-.03-.42.13-.07.35-.04.42.1.07.13.04.27-.06.38-.13.14-.25.07-.32-.06Z"/>
        <path class="cls-6" d="M85.18,33.54c.2.09.43.24.33.41-.09.17-.34.3-.51.2s-.24-.25-.21-.44c.04-.24.21-.25.38-.17Z"/>
        <path class="cls-6" d="M80.84,33.33c.16-.27.4-.55.62-.39.21.15.35.52.2.73-.15.21-.39.28-.64.21-.32-.09-.31-.33-.17-.55Z"/>
        <path class="cls-6" d="M3.87,26.63c-.14-.17-.27-.39-.12-.49.15-.11.42-.12.52.03s.1.32,0,.47c-.13.19-.28.13-.4,0Z"/>
        <path class="cls-6" d="M3.65,30.99c-.17-.14-.33-.32-.21-.46.12-.13.38-.19.51-.07.13.12.16.29.08.46-.09.21-.25.18-.39.07Z"/>
        <path class="cls-6" d="M10.58,27.82c.11-.14.26-.28.37-.19.11.1.17.31.07.42-.1.11-.23.14-.37.08-.17-.07-.16-.2-.07-.32Z"/>
        <path class="cls-6" d="M7.76,31.33c0-.25.06-.54.27-.52s.45.22.43.43c-.02.21-.16.35-.36.41-.26.07-.35-.1-.34-.31Z"/>
        <path class="cls-6" d="M16.39,30.22c.1.2.18.46,0,.54-.18.07-.46.02-.53-.16s-.03-.35.12-.48c.18-.16.32-.07.41.11Z"/>
        <path class="cls-6" d="M21.38,30.41c.1-.29.26-.61.5-.52.24.1.45.41.36.65-.1.24-.31.36-.57.35-.33-.01-.37-.24-.29-.49Z"/>
        <path class="cls-6" d="M19.53,37.13c.17.28.32.63.07.76s-.64.08-.77-.16c-.13-.24-.08-.49.1-.7.23-.25.45-.13.59.1Z"/>
        <path class="cls-6" d="M10.36,37.28c.2.24.39.56.18.72-.22.16-.61.17-.76-.04-.16-.22-.15-.46,0-.68.19-.28.41-.19.58.01Z"/>
        <path class="cls-6" d="M26.36,33.03c.33.04.7.15.65.43-.06.27-.35.56-.62.51-.27-.06-.44-.25-.49-.53-.05-.35.18-.44.46-.41Z"/>
        <path class="cls-6" d="M30.76,34.94c.28-.05.61-.05.64.18.02.24-.14.55-.38.57-.24.02-.43-.09-.53-.31-.13-.27.04-.41.27-.45Z"/>
        <path class="cls-6" d="M24.82,37.31c-.1.31-.28.66-.54.55-.26-.11-.49-.44-.38-.7.11-.26.33-.39.61-.38.35.01.4.26.31.52Z"/>
        <path class="cls-6" d="M27.47,42.55c-.03.29-.13.61-.37.57-.24-.05-.5-.3-.45-.54.05-.24.22-.39.46-.43.3-.05.39.15.36.4Z"/>
        <path class="cls-6" d="M19.27,42.33c-.13-.18-.25-.42-.09-.52.16-.1.44-.09.54.07.1.16.08.34-.04.48-.15.19-.3.12-.41-.04Z"/>
        <path class="cls-6" d="M14.47,41.45c-.16-.14-.32-.33-.19-.45s.38-.17.51-.05.14.29.07.45c-.1.2-.25.17-.39.05Z"/>
        <path class="cls-6" d="M5.66,36.46c-.22.18-.52.35-.66.15-.14-.2-.15-.56.05-.7.2-.14.43-.13.63.01.25.18.17.38-.02.54Z"/>
        <path class="cls-6" d="M5.37,42.66c.27-.15.61-.27.72-.03.11.23.05.61-.18.72-.23.11-.47.05-.65-.13-.23-.23-.11-.43.12-.55Z"/>
        <path class="cls-6" d="M11.76,45.68c-.15-.14-.3-.34-.17-.46.13-.12.39-.16.51-.03.12.13.13.29.05.45-.1.2-.26.16-.39.04Z"/>
        <path class="cls-6" d="M20.22,47.4c.14-.27.35-.57.57-.43s.39.47.25.69c-.13.22-.35.31-.61.26-.32-.06-.33-.29-.22-.52Z"/>
        <path class="cls-6" d="M31.79,49.17c.24-.1.54-.17.61.04.07.21-.02.52-.23.59-.21.07-.4,0-.54-.17-.17-.22-.05-.37.16-.46Z"/>
        <path class="cls-6" d="M31.93,40.76c0-.32.05-.7.32-.68.27.01.59.25.58.52-.01.27-.18.46-.44.54-.33.1-.45-.11-.46-.38Z"/>
        <path class="cls-6" d="M36.3,33.05c-.16.12-.36.23-.45.09s-.09-.38.05-.47c.14-.09.29-.08.42.02.17.13.11.26-.03.36Z"/>
        <path class="cls-6" d="M43.69,37.13c-.02.18-.08.38-.22.35-.15-.03-.31-.18-.28-.33.03-.15.13-.24.28-.26.19-.03.24.09.22.24Z"/>
        <path class="cls-6" d="M40.69,42.47c.16.19.3.45.13.57-.17.12-.48.13-.6-.05-.12-.17-.11-.37.01-.54.15-.22.33-.15.46.02Z"/>
        <path class="cls-6" d="M42.38,46.96c-.24.12-.54.21-.62,0-.09-.21-.02-.53.18-.62.21-.09.41-.03.56.13.19.21.08.38-.12.48Z"/>
        <path class="cls-6" d="M37.8,50.59c.16-.21.38-.42.55-.27.16.15.25.46.1.62-.15.16-.35.2-.55.12-.26-.1-.23-.3-.09-.47Z"/>
        <path class="cls-6" d="M52.29,52.01c-.09.28-.24.6-.48.51-.23-.09-.45-.39-.36-.63.09-.23.29-.36.54-.35.32,0,.36.23.29.47Z"/>
        <path class="cls-6" d="M46.25,41.38c.11-.24.28-.51.48-.4.2.11.36.4.25.6-.11.2-.3.29-.52.25-.28-.04-.3-.24-.21-.45Z"/>
        <path class="cls-6" d="M54.77,35.08c-.02.21-.09.44-.26.41-.17-.03-.36-.21-.32-.38.03-.17.15-.28.33-.31.22-.04.28.11.26.28Z"/>
        <path class="cls-6" d="M54.23,42.1c-.15-.22-.29-.5-.1-.62.19-.12.53-.1.64.09.12.19.09.4-.05.58-.18.22-.36.13-.49-.05Z"/>
        <path class="cls-6" d="M58.45,54.44c-.05.27-.16.58-.38.52-.23-.06-.46-.31-.4-.54.06-.23.23-.36.46-.38.29-.03.36.17.32.4Z"/>
        <path class="cls-6" d="M52.32,47.04c.27-.05.59-.06.61.17s-.12.53-.35.56c-.23.03-.41-.08-.51-.29-.13-.26.03-.39.25-.44Z"/>
        <path class="cls-6" d="M62.91,43.87c.12-.15.3-.3.42-.19.12.11.17.35.06.47s-.27.14-.42.08c-.19-.08-.16-.23-.06-.36Z"/>
        <path class="cls-6" d="M60.34,50.82c.12-.15.3-.3.42-.19.12.11.17.35.06.47-.11.12-.27.14-.42.08-.19-.08-.16-.23-.06-.36Z"/>
        <path class="cls-6" d="M59.89,40.67c-.17.08-.39.14-.45-.01-.06-.15,0-.38.15-.44.15-.06.3-.01.4.11.13.16.05.27-.1.34Z"/>
        <path class="cls-6" d="M77.86,36.35c.16-.1.37-.18.45-.04s.04.38-.1.45c-.14.07-.29.04-.41-.07-.15-.14-.07-.27.06-.35Z"/>
        <path class="cls-6" d="M62.61,33.15c.23.17.47.41.32.59-.16.19-.5.29-.68.13-.19-.16-.23-.38-.15-.6.1-.29.32-.26.52-.12Z"/>
        <path class="cls-6" d="M8.1,25.68c.01.18-.01.4-.17.39-.15,0-.34-.13-.34-.28s.09-.27.24-.32c.18-.06.26.05.27.21Z"/>
        <path class="cls-6" d="M14.68,25.83c-.18.09-.4.16-.46,0-.06-.15-.02-.4.14-.46.15-.06.31-.02.42.1.14.16.06.28-.09.36Z"/>
        <path class="cls-6" d="M21.68,26.29c-.27.09-.59.14-.65-.09s.06-.56.29-.61c.23-.06.43.03.56.23.17.25.02.4-.2.48Z"/>
        <path class="cls-6" d="M29.95,28.58c.12-.23.3-.48.49-.37.19.11.33.41.22.6-.11.19-.31.26-.52.22-.27-.05-.28-.25-.18-.45Z"/>
        <path class="cls-6" d="M39.78,29.17c.11.21.2.47.01.55-.18.08-.47.03-.55-.15-.08-.18-.03-.36.11-.5.18-.17.33-.07.42.1Z"/>
        <path class="cls-6" d="M47.11,33.18c.12.24.21.55,0,.64-.21.08-.54.01-.63-.2-.08-.21-.02-.42.15-.57.22-.19.39-.07.48.13Z"/>
        <path class="cls-6" d="M57.26,33.41c-.26.03-.58.01-.59-.21,0-.22.16-.51.39-.52.22,0,.4.11.48.32.11.26-.06.38-.28.41Z"/>
        <path class="cls-6" d="M67.27,38.27c0-.2.05-.44.22-.42.17.02.37.18.35.35-.02.17-.13.29-.29.33-.21.05-.28-.08-.28-.26Z"/>
        <path class="cls-6" d="M75.59,39.32c0,.33-.05.71-.32.7-.28-.01-.61-.26-.59-.53.01-.28.18-.48.45-.56.33-.1.46.11.47.39Z"/>
        <path class="cls-6" d="M81.79,40.58c.19-.1.43-.17.5,0,.07.17.02.43-.15.5-.17.07-.33.02-.45-.11-.15-.17-.06-.3.1-.38Z"/>
        <path class="cls-6" d="M69.12,43.25c.04-.27.14-.58.36-.53.22.05.46.29.41.52-.05.22-.21.36-.44.39-.29.04-.36-.16-.33-.38Z"/>
        <path class="cls-6" d="M80.58,45.38c-.25-.18-.51-.43-.35-.63.16-.2.53-.31.73-.15.2.16.26.4.17.64-.11.31-.34.28-.55.14Z"/>
        <path class="cls-6" d="M83.47,52.24c.15-.26.38-.53.59-.39s.35.49.2.7c-.15.21-.37.28-.62.21-.31-.08-.3-.31-.17-.53Z"/>
        <path class="cls-6" d="M80.62,57.75c.22.17.45.42.29.6-.16.18-.5.26-.68.1-.18-.16-.22-.38-.12-.6.11-.28.33-.25.52-.1Z"/>
        <path class="cls-6" d="M75.82,51.04c-.13.13-.3.27-.4.15-.1-.11-.14-.34-.03-.44.11-.1.26-.12.4-.05.17.09.14.23.03.34Z"/>
        <path class="cls-6" d="M70.74,56.91c-.3.07-.67.08-.7-.17-.04-.26.13-.6.39-.64.26-.04.47.08.59.31.15.29-.02.45-.28.5Z"/>
        <path class="cls-6" d="M69.75,52.14c.08.21.13.46-.05.51-.18.05-.44-.03-.49-.21-.05-.18.01-.34.16-.45.19-.14.32-.03.38.14Z"/>
        <path class="cls-6" d="M63.41,55.2c-.08-.28-.12-.63.12-.68.24-.05.58.08.63.33.05.24-.05.45-.26.58-.26.17-.43,0-.49-.23Z"/>
        <path class="cls-6" d="M61.71,36.7c.14-.14.33-.28.44-.16.11.13.15.37.02.48-.13.11-.28.12-.43.04-.19-.1-.15-.25-.03-.37Z"/>
        <path class="cls-6" d="M57.64,46.01c.08-.28.23-.6.47-.51.23.09.45.39.36.62-.09.23-.29.36-.54.36-.31,0-.37-.22-.3-.46Z"/>
        <path class="cls-6" d="M45.87,51.44c.16.14.33.34.2.47-.13.13-.4.18-.52.05-.13-.13-.15-.3-.07-.47.1-.21.26-.17.4-.05Z"/>
        <path class="cls-6" d="M36.29,45.48c.1.18.17.4.02.47s-.4.03-.47-.12c-.07-.15-.03-.31.09-.42.15-.15.28-.07.36.08Z"/>
        <path class="cls-6" d="M38.4,35.9c.11-.14.26-.28.37-.19.11.1.17.31.07.42-.1.11-.23.14-.37.08-.17-.07-.16-.2-.07-.32Z"/>
        <path class="cls-6" d="M14.36,34.99c-.26-.11-.54-.3-.43-.51.11-.21.42-.38.63-.27.21.11.3.31.27.55-.04.3-.26.32-.47.22Z"/>
        <path class="cls-6" d="M50.13,38.02c-.18.2-.43.39-.59.22-.15-.17-.21-.5-.04-.65.17-.15.38-.17.58-.07.25.13.21.33.05.5Z"/>
        <path class="cls-6" d="M73.98,45.48c.21.16.43.39.28.56-.15.17-.47.26-.64.11-.17-.15-.21-.35-.13-.56.1-.26.3-.24.48-.1Z"/>
        <path class="cls-6" d="M64.92,47.67c.21.16.43.39.28.56-.15.17-.47.26-.64.11-.17-.15-.21-.35-.13-.56.1-.26.3-.24.48-.1Z"/>
        <path class="cls-6" d="M77.53,56.86c-.23.16-.53.31-.65.11-.12-.2-.11-.56.1-.68.2-.12.43-.1.61.05.23.19.14.38-.05.52Z"/>
        <path class="cls-6" d="M84.75,47c.25-.09.55-.16.61.05.06.21-.03.53-.24.59-.21.06-.41,0-.54-.19-.17-.22-.04-.38.17-.46Z"/>
      </g>
      <g>
        <path class="cls-7" d="M85.37,28.43c-.17-.21-.32-.48-.14-.61.19-.13.52-.13.64.05.13.19.12.4-.01.58-.16.23-.35.16-.49-.02Z"/>
        <path class="cls-7" d="M80.39,26.68c.22-.09.5-.15.56.05.06.19-.03.48-.22.54-.19.06-.37,0-.49-.17-.15-.2-.04-.35.15-.42Z"/>
        <path class="cls-7" d="M86.86,32.44c-.12-.1-.23-.24-.14-.33.09-.09.28-.13.37-.03.09.09.11.21.05.33-.07.15-.19.12-.28.04Z"/>
        <path class="cls-7" d="M87.04,35.96c.14,0,.31.04.3.16-.01.12-.13.26-.25.25-.12-.01-.2-.09-.23-.21-.04-.15.06-.2.19-.2Z"/>
        <path class="cls-7" d="M72.04,25.59c.1-.14.24-.29.35-.2.11.09.18.3.09.41-.09.11-.22.15-.36.1-.17-.06-.16-.19-.08-.31Z"/>
        <path class="cls-7" d="M64.34,24.42c-.13-.14-.24-.33-.12-.42.13-.1.36-.11.46.01.1.13.1.27.01.41-.11.17-.24.12-.35,0Z"/>
        <path class="cls-7" d="M57.83,22.89c.15-.17.37-.35.5-.21.14.14.19.42.05.56-.14.14-.32.16-.5.07-.22-.11-.19-.28-.06-.43Z"/>
        <path class="cls-7" d="M49.84,21.33c.26,0,.56.03.55.25-.01.22-.2.48-.42.47-.22-.01-.37-.14-.44-.35-.08-.26.09-.36.31-.37Z"/>
        <path class="cls-7" d="M41.59,19.9c.23-.06.51-.09.55.11.04.2-.08.47-.27.51-.2.04-.36-.05-.47-.22-.13-.22,0-.34.19-.39Z"/>
        <path class="cls-7" d="M31.66,18.53c.07-.14.18-.29.29-.22.11.07.2.24.13.36-.07.11-.18.16-.31.13-.16-.03-.17-.15-.11-.27Z"/>
        <path class="cls-7" d="M25.14,17.37c-.12.23-.29.47-.48.35-.18-.11-.32-.4-.2-.58s.3-.25.51-.21c.26.05.27.25.17.44Z"/>
        <path class="cls-7" d="M16.79,15.7c.17-.2.41-.39.57-.23.15.16.22.48.06.63-.16.15-.36.18-.56.08-.25-.12-.21-.31-.06-.48Z"/>
        <path class="cls-7" d="M8.54,14.84c.02-.19.07-.41.23-.38.16.03.33.19.31.35s-.13.26-.29.29c-.2.04-.26-.09-.25-.25Z"/>
        <path class="cls-7" d="M5.18,13.92c-.2.13-.45.25-.55.08-.1-.17-.08-.46.09-.56.17-.1.36-.07.51.05.19.16.11.32-.05.43Z"/>
        <path class="cls-7" d="M1.39,13.65c.04.17.06.39-.09.41-.15.03-.35-.07-.38-.21-.03-.15.04-.27.17-.35.17-.09.26,0,.3.15Z"/>
        <path class="cls-7" d="M1.7,17.62c-.14,0-.31-.01-.31-.13s.11-.27.23-.26.21.07.25.19c.05.14-.04.2-.16.21Z"/>
        <path class="cls-7" d="M1.43,19.78c.24.06.5.18.43.37-.07.2-.31.38-.5.31-.2-.07-.3-.23-.31-.43,0-.26.17-.31.37-.26Z"/>
        <path class="cls-7" d="M86.54,38.88c-.18-.18-.36-.43-.19-.58.17-.14.49-.18.63-.01.14.17.15.37.04.56-.14.24-.33.18-.48.03Z"/>
        <path class="cls-7" d="M87.61,45.27c.12.18.22.4.07.49s-.42.07-.51-.08c-.09-.16-.07-.32.05-.46.14-.17.29-.1.39.05Z"/>
        <path class="cls-7" d="M87.1,53.24c-.11-.25-.19-.57.03-.64.22-.08.55,0,.63.22.08.22.01.42-.17.57-.22.19-.39.06-.49-.15Z"/>
        <path class="cls-7" d="M87.38,60.86c.05.22.07.49-.12.52-.19.03-.45-.09-.48-.28-.03-.19.05-.35.22-.44.21-.12.33,0,.37.2Z"/>
        <path class="cls-7" d="M78.7,60.46c-.03.28-.11.61-.35.57s-.49-.28-.45-.52c.04-.24.21-.39.44-.43.3-.05.39.15.36.38Z"/>
        <path class="cls-7" d="M68.04,59.16c.08-.15.2-.32.32-.24.12.08.21.27.14.39-.08.12-.2.17-.34.14-.18-.04-.18-.17-.12-.3Z"/>
        <path class="cls-7" d="M57.11,57.28c.15-.21.36-.42.53-.28.17.14.26.44.12.61-.14.17-.34.21-.54.13-.26-.09-.23-.29-.11-.46Z"/>
        <path class="cls-7" d="M46.16,55.58c.18-.14.43-.27.53-.1.11.16.1.45-.06.56-.16.11-.35.09-.5-.03-.2-.15-.13-.31.03-.43Z"/>
        <path class="cls-7" d="M33.91,53.63c-.11-.18-.2-.4-.04-.48.16-.08.41-.05.49.11.08.16.05.31-.07.44-.15.16-.29.08-.38-.07Z"/>
        <path class="cls-7" d="M23.59,51.31c.14.25.25.57.03.67-.22.1-.57.04-.67-.18-.1-.22-.05-.44.12-.61.22-.21.4-.1.52.11Z"/>
        <path class="cls-7" d="M12.98,49.75c.2-.16.45-.3.57-.13.12.17.12.48-.05.6s-.37.11-.54-.01c-.22-.15-.14-.33.02-.46Z"/>
        <path class="cls-7" d="M3.89,46.86c.21.11.43.29.32.46-.11.17-.38.28-.55.17s-.23-.29-.18-.48c.06-.24.24-.25.41-.15Z"/>
        <path class="cls-7" d="M1.16,40.23c-.2-.15-.41-.37-.26-.53.14-.16.45-.24.61-.1.16.14.2.34.12.54-.1.25-.29.22-.46.09Z"/>
        <path class="cls-7" d="M.88,31.19c.05-.28.17-.6.41-.54.24.06.47.33.41.57-.06.24-.24.37-.49.39-.31.03-.38-.18-.33-.42Z"/>
        <path class="cls-7" d="M1.24,23.07c.16-.15.38-.29.49-.14.11.15.14.42,0,.53-.15.11-.32.12-.48.02-.2-.12-.15-.28,0-.41Z"/>
      </g>
      <polygon class="cls-5" points="1.64 12.27 4.25 12.7 6.87 13.13 12.09 14 22.54 15.77 32.99 17.56 43.43 19.39 53.87 21.24 64.3 23.12 74.73 25.01 85.2 26.85 74.67 25.16 64.25 23.42 53.8 21.61 43.36 19.78 22.49 16.07 12.06 14.19 6.85 13.24 4.24 12.76 1.64 12.27"/>
      <path class="cls-15" d="M56.74,10.86c.05-.08.11-.16.16-.23.07-.11.14-.23.2-.35.77-1.5.73-3.37-.26-4.89-1.42-2.17-18.07-1.42-18.23-.99-.87-1.3-2.33-2.16-4-2.16-2.66,0-4.82,2.18-4.82,4.86,0,0,0,0,0,0h0c0,1.74.91,3.27,2.28,4.13.74,1.12,1.83,1.59,2.61,1.79.42,1.92,2.03,3.39,4.02,3.76.1.02.19.03.29.05.34.04.69.05,1.04.03.09,0,.17-.01.26-.02.03,0,.06,0,.09-.01.06,0,.11-.01.17-.02.03,0,.07-.01.1-.02.05,0,.1-.02.15-.03.04,0,.07-.02.1-.02.05-.01.09-.02.14-.03.04,0,.07-.02.11-.03.04-.01.09-.02.13-.04.04-.01.07-.02.11-.04.04-.01.08-.03.12-.04.04-.01.07-.03.11-.04.04-.02.08-.03.12-.05.04-.01.07-.03.11-.05.04-.02.08-.03.11-.05.04-.02.07-.03.11-.05.04-.02.07-.04.11-.06.04-.02.07-.04.1-.06.03-.02.07-.04.1-.06.03-.02.07-.04.1-.06.03-.02.06-.04.1-.06.03-.02.07-.04.1-.07.03-.02.06-.04.09-.06.03-.02.07-.05.1-.07.03-.02.05-.04.08-.06.03-.03.07-.05.1-.08.02-.02.05-.04.07-.06.04-.03.07-.06.11-.09.01-.01.03-.03.04-.04.15-.14.29-.29.43-.44,0,0,0,0,0,0,.04-.05.08-.09.11-.14.01-.01.02-.03.03-.04.03-.04.07-.09.1-.14.01-.02.02-.03.04-.05.03-.04.06-.09.09-.14.01-.02.02-.04.04-.06.03-.05.06-.09.08-.14.01-.02.02-.04.03-.06.03-.05.05-.09.08-.14.01-.02.02-.04.03-.06.02-.05.05-.1.07-.14,0-.02.02-.04.03-.06.01-.03.03-.06.04-.09.41,1.51,1.68,2.74,3.37,3.08.07.01.15.03.22.04.03,0,.05,0,.08.01.05,0,.09.01.14.02.03,0,.07,0,.1,0,.04,0,.08,0,.11,0,.04,0,.08,0,.12,0,.03,0,.06,0,.1,0,.04,0,.09,0,.13,0,.03,0,.05,0,.08,0,.05,0,.1,0,.14,0,.02,0,.04,0,.07,0,.05,0,.1-.01.16-.02.02,0,.03,0,.05,0,.06,0,.11-.02.17-.03.01,0,.02,0,.03,0,.06-.01.12-.02.18-.04,0,0,.01,0,.02,0,1.45-.34,2.65-1.41,3.08-2.87.61-.25,1.35-.7,1.91-1.47.25-.11.5-.24.74-.39.28-.18.53-.39.76-.61.09-.09.17-.18.25-.27.1-.11.19-.23.27-.35ZM48.01,8.64s-.02,0-.03,0c0-.01.02-.03.03-.04,0,.01,0,.02,0,.04Z"/>
      <g>
        <g>
          <path class="cls-14" d="M49.69.33c-3.13,2.18-1.61,5.49-1.61,5.49,0,0,3.06-1.97,1.61-5.49Z"/>
          <path class="cls-12" d="M49.69.33c-.05.04.52,1.33.01,2.89-.49,1.49-1.62,2.6-1.62,2.6,0,0,3.06-1.97,1.61-5.49Z"/>
          <path class="cls-13" d="M48.1,5.36s.96-.83,1.37-2.12c.45-1.4.09-2.5.09-2.5,0,0-1.19.78-1.53,2.1-.29,1.11.07,2.52.07,2.52Z"/>
        </g>
        <g>
          <ellipse class="cls-10" cx="43.39" cy="4.96" rx="5.14" ry="4.87" transform="translate(-.23 2.81) rotate(-3.7)"/>
          <path class="cls-2" d="M43.38,8.74c2.83-.18,4.99-2.51,4.81-5.19-.01-.16-.03-.32-.06-.48.21.48.35,1,.38,1.56.17,2.68-1.98,5-4.81,5.19-2.66.17-4.97-1.61-5.38-4.05.81,1.86,2.81,3.11,5.06,2.97Z"/>
          <path class="cls-4" d="M42.31.62c2.31-.59,3.64.75,4.05,1.25.03.03-.01.08-.05.05-.51-.33-2.03-1.17-3.85-.73-1.82.5-2.74,1.98-3.02,2.51-.02.04-.07.02-.07-.02.1-.63.59-2.45,2.94-3.06Z"/>
          <path class="cls-8" d="M41.92,1.72c-.01.1.7.15.94.2.17.04.24.17.13.26-.16.12-.73.36-.64.45.08.08.61-.22.84-.29.16-.05.36.02.36.14,0,.21-.02.58.08.59.1.01.17-.36.22-.56.03-.11.25-.15.38-.06.19.14.68.53.76.48.1-.05-.38-.45-.54-.6-.11-.1,0-.24.18-.22.25.02.91.07.92,0,.01-.1-.58-.14-.9-.19-.18-.03-.25-.18-.13-.26.17-.1.7-.37.6-.45-.09-.07-.61.2-.8.29-.14.06-.34-.02-.36-.14-.02-.12.03-.52-.1-.53-.14-.01-.16.38-.2.5-.05.11-.24.14-.38.06-.17-.09-.63-.48-.73-.43-.11.05.4.41.5.55.08.11,0,.22-.18.22-.25,0-.95-.09-.96,0Z"/>
        </g>
        <g>
          <ellipse class="cls-10" cx="34.27" cy="6.12" rx="4.82" ry="4.87"/>
          <path class="cls-2" d="M34.27,10c-2.5,0-4.55-1.92-4.79-4.37-.02.16-.02.33-.02.5,0,2.69,2.16,4.87,4.82,4.87s4.82-2.18,4.82-4.87c0-.17,0-.33-.02-.5-.25,2.45-2.3,4.37-4.79,4.37Z"/>
          <path class="cls-8" d="M32.79,5.11c.06-.1.6.23.81.31.15.06.29-.04.26-.19-.03-.21-.28-.76-.15-.81.11-.04.29.56.4.75.08.13.27.17.35.05.14-.21.38-.6.46-.56.08.05-.12.46-.22.69-.06.13.08.29.23.27.23-.03.84-.17.87-.07.03.11-.57.25-.79.32-.14.04-.16.24-.02.33.19.12.7.43.65.5-.06.11-.51-.17-.77-.29-.15-.07-.3.05-.26.19.05.19.25.76.13.78-.11.02-.3-.54-.38-.73-.06-.14-.25-.16-.35-.05-.1.11-.32.55-.43.49-.11-.06.15-.47.19-.62.04-.14-.07-.27-.23-.27-.19,0-.77.15-.81.05-.04-.11.57-.2.73-.29.13-.07.15-.22.02-.33-.17-.14-.74-.43-.69-.52Z"/>
          <path class="cls-4" d="M34.22,1.99c-2.38,0-3.34,1.63-3.61,2.22-.02.04.03.07.06.04.41-.45,1.67-1.64,3.55-1.67,1.89.03,3.15,1.24,3.55,1.68.03.03.08,0,.06-.04-.25-.58-1.19-2.23-3.61-2.23Z"/>
        </g>
        <g>
          <ellipse class="cls-10" cx="52.46" cy="7.03" rx="4.82" ry="4.87" transform="translate(4.7 29.84) rotate(-33.16)"/>
          <path class="cls-2" d="M54.58,10.28c-2.09,1.37-4.86.88-6.4-1.04.08.15.16.29.25.43,1.47,2.25,4.47,2.89,6.7,1.44,2.23-1.46,2.84-4.46,1.37-6.71-.09-.14-.19-.27-.29-.4,1.14,2.19.47,4.92-1.62,6.28Z"/>
          <path class="cls-8" d="M50.68,6.99c0-.12.63-.13.85-.18.16-.03.22-.19.12-.3-.14-.16-.65-.49-.57-.6.07-.09.55.31.75.41.14.07.32,0,.32-.15,0-.25-.01-.71.08-.72.09,0,.15.45.19.7.02.14.22.2.34.1.17-.15.61-.6.69-.54.09.07-.34.52-.49.7-.1.12,0,.29.16.29.22,0,.82-.02.82.06,0,.13-.52.13-.81.18-.16.02-.23.2-.12.3.15.13.63.5.54.59-.08.08-.55-.29-.72-.4-.13-.09-.3,0-.32.15-.02.15.03.63-.09.64-.13,0-.14-.47-.18-.62-.04-.14-.21-.19-.34-.1-.16.1-.57.55-.65.48-.1-.07.36-.48.45-.64.07-.13,0-.27-.16-.29-.22-.02-.86.05-.86-.06Z"/>
          <path class="cls-4" d="M50.16,3.61c-1.99,1.3-1.9,3.19-1.8,3.83,0,.04.06.04.07,0,.1-.6.5-2.29,2.06-3.34,1.6-1.01,3.31-.69,3.89-.54.04.01.06-.04.03-.07-.53-.35-2.21-1.22-4.24.11Z"/>
        </g>
        <g>
          <path class="cls-14" d="M39,2.08c-2.29,3.05.17,5.72.17,5.72,0,0,2.3-2.82-.17-5.72Z"/>
          <path class="cls-12" d="M39,2.08c-.04.05.91,1.1.91,2.75,0,1.56-.74,2.98-.74,2.98,0,0,2.3-2.82-.17-5.72Z"/>
          <path class="cls-13" d="M39.05,7.35s.65-1.08.64-2.44c0-1.47-.69-2.4-.69-2.4,0,0-.89,1.11-.8,2.47.07,1.14.85,2.38.85,2.38Z"/>
        </g>
        <g>
          <path class="cls-14" d="M31.02,8.41c3.81.18,4.29,3.79,4.29,3.79,0,0-3.64-.03-4.29-3.79Z"/>
          <path class="cls-12" d="M31.02,8.41c.07,0,.26,1.4,1.53,2.45,1.2,1,2.76,1.33,2.76,1.33,0,0-3.64-.03-4.29-3.79Z"/>
          <path class="cls-13" d="M35.04,11.81s-1.25-.19-2.29-1.06c-1.12-.94-1.41-2.06-1.41-2.06,0,0,1.42.03,2.41.96.84.78,1.29,2.17,1.29,2.17Z"/>
        </g>
        <g>
          <ellipse class="cls-10" cx="39.37" cy="11.02" rx="5.14" ry="4.87" transform="translate(-.65 2.68) rotate(-3.86)"/>
          <path class="cls-2" d="M39.87,14.77c-2.83.19-5.27-1.83-5.45-4.51-.01-.16-.01-.32,0-.48-.15.51-.21,1.04-.17,1.59.18,2.68,2.62,4.7,5.45,4.51,2.66-.18,4.71-2.25,4.8-4.72-.56,1.96-2.37,3.46-4.62,3.61Z"/>
          <path class="cls-4" d="M39.87,6.57c-2.36-.29-3.51,1.22-3.85,1.77-.02.04.02.07.05.05.46-.39,1.86-1.43,3.72-1.23,1.87.26,2.98,1.61,3.33,2.09.02.03.08,0,.06-.03-.18-.61-.91-2.35-3.32-2.65Z"/>
          <path class="cls-8" d="M40.4,7.61c.02.09-.68.24-.91.32-.17.06-.22.2-.09.27.17.1.77.26.69.36-.07.09-.64-.14-.87-.18-.16-.03-.35.07-.34.18.02.2.1.57,0,.6-.1.02-.22-.33-.29-.53-.04-.11-.27-.12-.38-.01-.17.16-.6.61-.69.58-.1-.04.31-.49.45-.66.09-.11-.03-.23-.21-.2-.24.05-.9.19-.91.12-.02-.1.56-.22.87-.31.17-.05.23-.21.09-.27-.18-.08-.75-.27-.65-.36.08-.08.63.12.83.18.15.04.33-.06.34-.18,0-.12-.1-.51.03-.54.14-.03.2.35.27.47.06.1.25.11.38.01.16-.12.56-.56.66-.52.11.04-.34.46-.42.61-.06.12.03.22.21.2.25-.03.93-.22.95-.13Z"/>
        </g>
        <g>
          <path class="cls-14" d="M44.48,6.16c-2.37,2.99.03,5.73.03,5.73,0,0,2.37-2.76-.03-5.73Z"/>
          <path class="cls-12" d="M44.48,6.16c-.04.05.88,1.12.84,2.77-.04,1.56-.81,2.96-.81,2.96,0,0,2.37-2.76-.03-5.73Z"/>
          <path class="cls-13" d="M44.4,11.43s.68-1.07.7-2.42c.03-1.47-.63-2.42-.63-2.42,0,0-.91,1.09-.86,2.45.04,1.15.79,2.4.79,2.4Z"/>
        </g>
        <g>
          <path class="cls-14" d="M55.21,9.02c-3.76.63-3.82,4.26-3.82,4.26,0,0,3.61-.46,3.82-4.26Z"/>
          <path class="cls-12" d="M55.21,9.02c-.07.01-.1,1.42-1.23,2.62-1.08,1.13-2.59,1.65-2.59,1.65,0,0,3.61-.46,3.82-4.26Z"/>
          <path class="cls-13" d="M51.62,12.87s1.22-.34,2.15-1.32c1.01-1.07,1.16-2.22,1.16-2.22,0,0-1.41.19-2.28,1.23-.74.88-1.03,2.31-1.03,2.31Z"/>
        </g>
        <g>
          <path class="cls-8" d="M49.26,8.74c.11.03.18-.29.24-.39.05-.07.21-.06.3.02.14.11.42.46.53.44.1-.01-.25-.36-.33-.49-.06-.09.03-.16.17-.13.24.06.68.19.7.14.01-.05-.42-.19-.66-.28-.13-.05-.18-.17-.07-.2.16-.05.63-.16.58-.21-.06-.06-.53.04-.71.07-.12.02-.28-.07-.26-.15.02-.11.09-.41,0-.44-.12-.04-.17.23-.24.37-.04.07-.22.06-.3-.02-.12-.11-.43-.45-.52-.42-.08.02.23.35.33.47.07.09-.03.15-.17.13-.15-.03-.61-.18-.63-.12-.02.06.45.19.59.25.13.06.16.16.07.2-.11.05-.57.15-.52.21.06.07.49-.06.66-.07.13,0,.26.07.26.15,0,.12-.12.42-.01.46Z"/>
          <path class="cls-10" d="M52.57,12.63c-.45,2.25-2.71,3.7-5.06,3.24-2.35-.46-3.89-2.67-3.44-4.92.45-2.25,2.71-3.7,5.06-3.24,2.35.46,3.89,2.67,3.44,4.92Z"/>
          <path class="cls-4" d="M51.27,11.36c-.28,1.4-1.68,2.3-3.14,2.01-1.46-.29-2.42-1.66-2.14-3.06.28-1.4,1.68-2.3,3.14-2.01,1.46.29,2.42,1.66,2.14,3.06Z"/>
          <path class="cls-2" d="M44.41,10c-.45,2.25,1.09,4.46,3.44,4.92,1.96.39,3.86-.56,4.69-2.2-.49,2.2-2.72,3.6-5.03,3.15-2.35-.46-3.89-2.67-3.44-4.92.07-.37.2-.72.37-1.04,0,.03-.02.06-.02.09Z"/>
        </g>
      </g>
    </g>
  </g>
</svg>