<?xml version="1.0" encoding="UTF-8"?>
<svg id="Layer_2" data-name="Layer 2" xmlns="http://www.w3.org/2000/svg" viewBox="0 0 156.51 54.24">
  <defs>
    <style>
      .cls-1 {
        fill: #524c2f;
      }
    </style>
  </defs>
  <g id="Layer_1-2" data-name="Layer 1">
    <g>
      <path class="cls-1" d="M29.73,24.56c.28,1.51.42,2.83.42,3.96l-.28,6.68-2.35,5.02H7.19c-2.09,0-3.66-.44-4.7-1.34-1.17-1.01-1.92-2.8-2.26-5.35-.34-2.61-.31-6.41.09-11.38l2.07.05c.03-.12.03-.06,0,.18-.03.58-.05,1.03-.05,1.34,0,2.24.66,3.87,1.98,4.89,1.14.86,2.86,1.29,5.16,1.29h18.39l-3.55-6.27,3.78-3.69c.71,1.01,1.24,2.55,1.61,4.61ZM11.29,45.35l4.15-4.15,4.15,4.15-4.15,4.15-4.15-4.15Z"/>
      <path class="cls-1" d="M49.13,30.51v9.08l-.42.65c-.95,0-2.26-.52-3.92-1.57-.43,3.04-1.03,5.56-1.8,7.56-.74,1.94-1.71,3.59-2.9,4.98l-10.92-3.09.23-2.03c2.83-.46,5.3-1.34,7.42-2.63,2.27-1.41,3.9-3.16,4.89-5.25l-5.39-10.23,5.67-5.35h-.05c.74,1.41,1.54,3.84,2.4,7.28h4.38l.42.6Z"/>
      <path class="cls-1" d="M59.45,40.19v.05l-11.57-.05-.42-.74v-8.94l.42-.65,9.08.05c3.5.03,5.7-.43,6.59-1.38-.06-.95-.18-1.84-.37-2.67-3.07,1.57-5.68,2.35-7.83,2.35-1.97,0-3.5-.57-4.61-1.71-1.14-1.14-1.71-2.72-1.71-4.75,0-2.89.83-5.48,2.49-7.79,1.66-2.3,3.55-3.46,5.67-3.46,2.33,0,4.29,1.2,5.85,3.59,1.57,2.43,2.35,5.44,2.35,9.03,0,4.15-1.98,9.83-5.95,17.05ZM49.55,6.64l4.15-4.15,4.15,4.15-4.15,4.15-4.15-4.15ZM59.55,20.69c-1.01-2.03-2.17-3.06-3.46-3.09-1.26-.03-3.1.98-5.53,3.04l8.99.05ZM56.55,6.27l4.15-4.15,4.15,4.15-4.15,4.15-4.15-4.15Z"/>
      <path class="cls-1" d="M74.02,8.66l-6.87,1.15.6-4.19,2.07-.51c-.74-.86-1.14-1.38-1.2-1.57-.06-.31.06-.84.37-1.61.43-.86,1.01-1.47,1.75-1.84.03,0,.08-.01.14-.05l.05-.05c.21,0,.42.03.6.09.49.12.94.4,1.34.83.43.43.65.92.65,1.48-1.69-.52-3.21-.14-4.56,1.15,2.18,1.11,4.27,1.21,6.27.32l-1.2,4.79ZM68.21,13.64l5.99-4.1-.14,5.07-1.15,20.19-.32,6.36-2.95.09-1.43-27.61Z"/>
      <path class="cls-1" d="M108.03,35.95c-.89-.58-1.46-1.06-1.71-1.43l-2.12,7c-5.07-1.14-9.02-2.49-11.84-4.06,0-2.83.42-5.56,1.24-8.2-1.94.71-3.03,1.57-3.27,2.58l3.13,14.66-4.06,7.74h-1.38c-.34-3.2-.74-6.96-1.2-11.29-.58-5.56-.88-8.59-.88-9.08,0-1.97.84-4.02,2.54-6.18,1.63-2.09,3.66-3.83,6.08-5.21,2.55-1.44,4.99-2.17,7.33-2.17,2.12,0,4.09,1.57,5.9,4.7l.83,1.43c.58,1.01,1.54,2.41,2.86,4.19l-3.46,5.3ZM95.45,29.82c2.52,1.14,5.81,2.17,9.86,3.09,0-.03-.02-.06-.05-.09-.06-.09-.11-.17-.14-.23l-.69-1.2c-1.01-1.84-2.54-2.77-4.56-2.77-1.29,0-2.77.4-4.42,1.2ZM108.44,27.24l2.72,2.67h3.55l.37.55v9.26l-.37.51c-2.24,0-3.89-.46-4.93-1.38-.62-.55-1.83-2-3.64-4.33.06-.12.83-2.55,2.3-7.28Z"/>
      <path class="cls-1" d="M112.04,46.27l4.15-4.15,4.15,4.15-4.15,4.15-4.15-4.15ZM114.48,40.23l-.37-.55v-9.4l.28-.37h8.25l-4.05-7.19,3.78-3.73c.74,1.01,1.37,2.58,1.89,4.7.43,1.84.65,3.46.65,4.84v3.09l-2.63,8.62h-7.79ZM119.04,45.9l4.15-4.15,4.15,4.15-4.15,4.15-4.15-4.15Z"/>
      <path class="cls-1" d="M128.77,13.64l5.99-4.1-.14,5.07-1.15,20.19-.32,6.36-2.95.09-1.43-27.61Z"/>
      <path class="cls-1" d="M151.58,19.03c1.35,1.38,2.44,2.8,3.27,4.24,1.04,1.84,1.6,3.61,1.66,5.3v3.04l-2.63,8.62h-9.4c-1.51,0-2.61-.34-3.32-1.01-.8-.74-1.29-2.06-1.47-3.96-.18-1.87-.12-4.67.18-8.39h1.66c-.09,1.51.23,2.43.97,2.77.71.31,2.06.41,4.06.32.98-.03,1.77-.05,2.35-.05h6.45l-9.82-10,3.09-3.32h.18c.83.55,1.75,1.37,2.77,2.44Z"/>
    </g>
  </g>
</svg>