<?xml version="1.0" encoding="UTF-8"?>
<svg id="Layer_2" data-name="Layer 2" xmlns="http://www.w3.org/2000/svg" viewBox="0 0 261.59 28.38">
  <defs>
    <style>
      .cls-1 {
        fill: #524c2f;
      }
    </style>
  </defs>
  <g id="Layer_1-2" data-name="Layer 1">
    <g>
      <path class="cls-1" d="M22.86,19.22c-1.86,3.1-5.08,4.95-8.62,4.95-5.54,0-10.04-4.49-10.04-10.01S8.7,4.17,14.24,4.17c3.52,0,6.73,1.84,8.59,4.93l.53.88,3.78-1.82-.62-1.06C23.94,2.72,19.24,0,14.24,0,6.39,0,0,6.36,0,14.17s6.39,14.17,14.24,14.17c5.07,0,9.79-2.73,12.31-7.13l.61-1.06-3.77-1.81-.53.89Z"/>
      <path class="cls-1" d="M54.78,17.16c0,4.41-2.8,7.05-7.49,7.05s-7.49-2.63-7.49-7.05V.48h-4.17v16.75c0,6.75,4.58,11.11,11.66,11.11s11.66-4.36,11.66-11.11V.48h-4.17v16.68Z"/>
      <path class="cls-1" d="M74.15,15.97V4.55h6.59c4.29,0,6.21,2.88,6.21,5.72s-2.13,5.69-6.21,5.69h-6.59ZM80.81.49h-10.82v27.37h4.17v-7.82h6.66c6.79,0,10.34-4.91,10.34-9.76,0-5.77-4.25-9.79-10.34-9.79"/>
      <path class="cls-1" d="M118.11,24.18c-5.54,0-10.04-4.49-10.04-10.01s4.5-10.01,10.04-10.01,10.01,4.49,10.01,10.01-4.49,10.01-10.01,10.01M118.11,0C110.26,0,103.87,6.36,103.87,14.17s6.39,14.17,14.23,14.17,14.2-6.36,14.2-14.17S125.94,0,118.11,0"/>
      <polygon class="cls-1" points="141.91 27.86 146.07 27.86 146.07 19.56 155.23 19.56 155.23 15.49 146.07 15.49 146.07 4.62 160.79 4.62 160.79 .49 141.91 .49 141.91 27.86"/>
      <path class="cls-1" d="M212.39,4.17c5.52,0,10.01,4.49,10.01,10.01s-4.49,10.01-10.01,10.01-10.04-4.49-10.04-10.01,4.5-10.01,10.04-10.01M212.39,0c-7.85,0-14.23,6.36-14.23,14.17s6.39,14.17,14.23,14.17,14.2-6.36,14.2-14.17S220.22,0,212.39,0"/>
      <path class="cls-1" d="M184.71,18.59c0,3.08-2.5,5.58-5.58,5.58s-5.58-2.5-5.58-5.58h-4.16c0,5.37,4.37,9.75,9.75,9.75s9.75-4.37,9.75-9.75V.49h-4.16v18.1Z"/>
      <path class="cls-1" d="M238.3,12.12c.93-4.52,4.82-7.93,9.46-7.93s8.53,3.4,9.46,7.93h-18.91ZM261.59,14.21c0-7.81-6.2-14.17-13.83-14.17s-13.83,6.36-13.83,14.17,6.36,14.17,14.17,14.17c4.88,0,9.36-2.46,11.98-6.59l-3.52-2.23c-1.85,2.91-5.01,4.65-8.46,4.65-4.81,0-8.83-3.4-9.79-7.93h23.28v-2.08Z"/>
    </g>
  </g>
</svg>